<?xml version="1.0" encoding="utf-8"?>
<!-- Generator: Adobe Illustrator 22.1.0, SVG Export Plug-In . SVG Version: 6.00 Build 0)  -->
<svg version="1.1" id="_x30_6a2e43f-80de-4f11-8a96-d56f75682caa"
	 xmlns="http://www.w3.org/2000/svg" xmlns:xlink="http://www.w3.org/1999/xlink" x="0px" y="0px" viewBox="0 0 817.5 541.1"
	 style="enable-background:new 0 0 817.5 541.1;" xml:space="preserve">
<style type="text/css">
	.st0{fill:#FFFFFF;}
</style>
<title>cocotierlogo</title>
<g>
	<path class="st0" d="M446.9,77.4c0.8-2.1,1.4-3.7,2.1-5.3c9.3-23.4,23.8-42.6,45.2-56.2c14.4-9.1,30.3-13.8,47.4-15.4
		c11.3-1.1,22.5-0.2,33.8,1.1c0.2,0,0.4,0.3,1.2,0.7c-2,0.5-3.5,0.9-5.1,1.2c-18.5,4.2-35.9,11-51.2,22.5
		c-15.8,11.8-26.3,27-30.1,46.4c-0.7,3.6-1,7.4-1.6,11.6l6.9-1.2c44.4-7.7,83,3.7,115.6,34.8c17.6,16.8,30,37.1,39.9,59.1
		c3.3,7.4,6.2,15.1,8.8,23c-20.1-21.9-44.4-39.5-71.5-51.8c-26.9-12.4-56-19.2-85.6-20c46.7,23.6,71.8,61.6,76.5,113.5
		c-0.7-1.1-1.4-2.2-2.1-3.3c-14.8-23.7-32.4-44.9-54.9-61.7c-11.7-8.7-24.4-15.7-38.5-19.9c-1.2-0.4-2.3-0.7-3.5-1
		c-0.5-0.1-1-0.1-1.5-0.1c-0.2,0.8-0.4,1.7-0.5,2.6c-0.1,1.1,0,2.1,0,3.2c0,79.3,0,158.7,0,238c0,3.5,0.3,7,0.9,10.4
		c0.9,5.1,4.5,8.4,9.4,8.7c8.7,0.6,17.4,0.3,26.2,0.4c0.2,0,0.5-0.2,1.2-0.6V269.5h36.8c0.1,6.1,0,12.3,0,18.4c0,6.3,0,12.7,0,19
		v111.4c3.4,1,25.6,1.2,30.8,0.4c0.1-0.7,0.1-1.5,0-2.2c-1.9-7.7-2.8-15.6-2.8-23.6c-0.2-23-0.2-46,0-69c0.1-7.8,0.6-15.6,2.9-23.1
		c6-19.7,19.5-31.4,39.5-35.4c10.7-2.3,21.9-1.6,32.2,1.8c19.3,6.6,30.3,20.5,34.4,40.2c0.9,4.4,1.3,8.8,1.3,13.2
		c0.2,15.7,0.1,31.5,0,47.2c0,1.3-0.2,2.6-0.3,4.3c-1.9,0.1-3.6,0.3-5.3,0.3h-62.5c-1.7,0-3.4,0.2-5.3,0.3c-0.2,1.4-0.3,2.4-0.3,3.5
		c0,7.4-0.1,14.8,0,22.2c0,1.9,0.3,3.8,0.7,5.6c1.4,6.5,6.9,11.4,13.5,12.1c3.1,0.4,6.2,0.4,9.2,0c4.5-0.5,8.1-2.8,10-7.1
		c1.2-2.7,2.1-5.5,3.1-8.3c0.3-0.9,0.6-1.7,0.9-2.6h36c0.9,7.2-1.1,13.9-2.6,21h31c0.3-10.1,0.1-20,0.1-29.9s0-19.9,0-29.9v-89.8
		h36.5v18.1c2.1,0.5,2.8-1,3.8-1.7c6.1-4.2,11.9-8.7,18.2-12.6c7.2-4.5,15.5-5.8,23.9-6.3c0.8,0,1.6,0,2.4,0.1
		c0.2,0,0.5,0.2,0.9,0.5v37.5c-0.9-0.1-1.8-0.2-2.7-0.4c-19.6-4.9-44.3,7.3-46.2,34.3c-0.2,2.5-0.2,5.1-0.2,7.7
		c0,33.9,0,67.8,0,101.6c0,1.7-0.2,3.4-0.3,5.4h-4.8c-42.6,0-85.2,0-127.9,0c-25.1,0-50.3,0.3-75.4,0.3c-21.4,0-42.7-0.2-64.1-0.3
		c-6.2,0-12.3-1.3-18-3.7c-13-5.8-20.2-16-22.8-29.7c-0.7-4.4-1.1-8.8-1-13.2c0-80.4,0-160.8,0-241.2V160c-1.2,0-2.3,0.1-3.5,0.3
		c-18.9,5-37.2,11.3-54.2,21.2c-10.7,6.2-20.3,13.6-28,23.4c-0.4,0.3-0.9,0.6-1.4,0.9c12.1-32.3,31.2-57.3,63.4-70.7
		c-0.1-0.3-0.2-0.5-0.3-0.8c-3.3-0.5-6.5-1-9.8-1.3c-19.8-1.8-39.7-3-59.6-2.4c-26.4,0.9-52.5,3.5-78,11
		c-10.3,2.9-20.3,6.9-29.9,11.9c-0.6,0.3-1.2,0.5-1.9,0.5c22.1-21.5,48.1-37,77-47.4s58.8-14.3,90.2-12.6c-0.7-1.8-1.1-3.2-1.7-4.4
		c-3.2-6.8-7.2-13.2-12-19.1c-12.2-15.5-27-28-43.5-38.7c-7.8-5-15.9-9.4-23.9-14.1c-1.1-0.6-2.1-1.4-2.8-2.3
		c5.6,0.8,11.3,1.5,16.9,2.5c18.8,3.4,37.2,8.4,54.7,16.1c11.5,4.9,22.3,11.3,32.1,19.1c7.6,6.1,14.1,13.4,19.2,21.6
		C445.3,75.4,446,76.2,446.9,77.4z M654,343.4c0.2-0.6,0.4-1.1,0.5-1.7c-0.2-8.3-0.1-16.6-0.6-24.9c-0.2-5.2-3-10-7.4-12.8
		c-11.3-7.6-26.7-1.3-28.4,12.2c-1.1,8.7-0.5,17.6-0.6,26.5c0,0.2,0.3,0.4,0.5,0.8h36V343.4z"/>
	<path class="st0" d="M132.1,380.7c0.9,16,0.6,31.7-8.3,45.9c-9.3,14.8-22.1,24.9-39.4,28.2c-14.6,3-29.9,0.8-43.1-6.1
		c-15.9-8.3-24.9-22.1-27.8-39.8c-0.6-4-1-8-0.9-12c-0.1-48.8-0.1-97.5-0.1-146.3c0-13,3.6-25,11.5-35.4
		c10.2-13.5,24-20.6,40.7-22.6c9.9-1.3,20-0.3,29.4,3c18.9,6.8,30.3,20.8,35.7,39.7c1.6,5.6,2,11.6,2.5,17.5
		c0.4,4.9,0.1,9.9,0.1,14.8c-3.2,0.9-28.6,1.2-36.5,0.5c-0.1-1.3-0.1-2.8-0.2-4.2c-0.2-4.8-0.3-9.7-0.8-14.5
		c-0.6-4.1-2.2-8.1-4.8-11.4c-3.1-4.7-8-7.8-13.5-8.8c-5-0.9-10.2-0.4-15,1.5c-3.6,1.3-6.5,4-8.1,7.4c-2.4,4.8-3.7,10.1-4.1,15.5
		c-0.2,2-0.2,4-0.2,6c0,44,0,87.9,0.1,131.9c0,4.3,0.5,8.6,1.6,12.7c3,11.5,11.3,16.4,24.2,14.7s20-10.2,20.5-23.4
		c0.2-3.6,0.1-7.3,0.1-10.9c0-1.3,0-2.6,0-3.9C99.3,379.7,128.8,379.7,132.1,380.7z"/>
	<path class="st0" d="M261.7,310c1.7,0.5,3,0.7,4.3,1.1c2.1,0.8,2.5,2,1,3.6c-1,1.3-2.3,2.3-3.8,2.9c-2.9,0.7-3.6,2.6-4.4,5.1
		c-4.1,13.4-11.1,25.8-20.5,36.2c-5.2,5.7-11.1,10.6-18.3,13.6c-11.1,4.6-21.6,3.2-31.1-4.2c-9.8-7.7-14-18.1-13.7-30.4
		c0.1-5.5,1-11,2.6-16.3c4.8-15.4,12.4-29.1,24.1-40.4c7-6.8,15.1-11.6,24.8-13.2c8.4-1.4,15.7,0.5,21.1,7.6c1.6,2.2,3.4,4.2,5.4,6
		c7.5,6.6,9.3,15,8.6,24.5C261.9,307.3,261.8,308.5,261.7,310z M221.7,293.1c-1.6,1.6-2.8,2.7-3.8,3.9
		c-11.2,12.5-18.7,27.8-21.7,44.3c-0.9,4.6-1.1,9.3-0.7,14c0.5,6.2,5,8.6,10.6,5.9c2.9-1.4,5.5-3.3,7.8-5.6
		c10.8-10.7,17.7-23.9,23.5-37.7c0.9-2.1,0.4-3.4-1.6-4.7c-5.3-3.5-9.5-8.4-12-14.3C223.2,297.3,222.6,295.6,221.7,293.1
		L221.7,293.1z M241.8,305c0.7-0.9,1.4-1.3,1.5-1.9c1.1-4.5,2.1-9.1,3-13.7c0.2-1.2,0-2.4-0.7-3.5c-0.8-1.2-1.9-2.1-3.2-2.6
		c-1.5-0.4-3.1,0.4-3.6,2c-0.7,1.6-1.4,3.4-1.2,5c0.5,3.7,1.2,7.4,2.2,11C240,302.5,240.9,303.6,241.8,305L241.8,305z"/>
	<path class="st0" d="M408.3,310.1c1.6,0.4,2.8,0.7,3.9,1.1c2,0.8,2.5,2.1,1.2,3.7c-1.1,1.4-2.5,2.4-4.1,3c-2.3,0.7-3.1,2.1-3.7,4.2
		c-3.8,12.8-10.2,24.6-18.8,34.8c-4.1,4.8-8.8,9.1-14.1,12.5c-22.2,14.4-45.8-0.5-50.1-22.1c-2-9.9-0.3-19.5,2.9-28.9
		c5.3-15.2,13.3-28.7,25.6-39.4c6.2-5.6,13.8-9.4,22.1-10.9c8.6-1.4,15.9,0.4,21.5,7.7c2.2,2.7,4.5,5.3,7,7.8
		c4.4,4.4,6.9,10.4,6.8,16.7C408.3,303.5,408.3,306.7,408.3,310.1z M367.6,293.8c-0.6,0.4-1.2,0.9-1.8,1.4
		c-13.6,14.5-22.2,33-24.4,52.7c-0.3,3.1,0,6.2,0.7,9.1c1,4.4,4.3,6.2,8.6,4.7c2.3-0.7,4.4-1.9,6.3-3.5c3.4-3,6.6-6.3,9.5-9.8
		c6.7-8.6,11.9-18.2,16.2-28.2c0.7-1.7,1.2-3.5,1.7-4.8c-3.6-3.5-7.3-6.3-10.1-9.9S369.9,297.9,367.6,293.8L367.6,293.8z M388.7,305
		c2.5-5.1,3.8-10.7,3.8-16.3c0-1.2-0.4-2.4-1-3.4c-0.8-1.7-2.9-2.5-4.7-1.6c-0.7,0.3-1.2,0.8-1.6,1.5c-0.8,1.2-1.2,2.6-1.3,4.1
		c0.1,3.1,0.4,6.1,1,9.1C385.4,300.6,386.1,303,388.7,305L388.7,305z"/>
	<path class="st0" d="M298.7,359.1c-0.9,0.1-1.7,0.3-2.6,0.6c-1.2,0.7-2.2,1.5-3.2,2.5c-9.6,9.6-16.7,20.7-19.9,34
		c-1.1,4-1.3,8.3-0.4,12.4c1.5,6.8,5.6,9.3,12.4,7.9s12.4-5.2,17.1-10c4-4.1,7.5-8.8,11.2-13.2c1-1.2,1.7-3.1,3.6-2.5
		s1.7,2.5,1.8,4.1c0.2,3.1-0.7,6.2-2.6,8.7c-9.7,13.6-22.8,20.8-39.6,19.3c-13.2-1.2-19.6-10.5-20.2-21.8c-0.2-4.3,0.3-8.6,1.5-12.7
		c4-13.3,11.2-24.6,22.8-32.7c4.4-3,9.1-5,14.6-4.9c11.4,0.4,19.8,11.9,15.9,22.6c-1.9,5.3-4.4,10.4-6.8,15.5
		c-1,2.1-2.4,2.5-4.6,1.6c-4.4-1.7-7.8-7-6.7-11.7c1-4.3,2.8-8.4,4.2-12.5c0.7-2.1,1.5-4.2,2.3-6.3L298.7,359.1z"/>
	<path class="st0" d="M305.9,449.8c-16.2,0.4-32.3-2.4-47.4-8.4c-1-0.4-2-0.8-2.9-1.3c-2.6-1.3-3.5-2.9-3-5c0.5-2.4,2.6-4.2,5.1-4.4
		c1.3,0,2.6,0.3,3.9,0.8c17.7,7.6,36.4,9.5,55.2,7.8c33.8-3.1,64.2-15.4,91.4-35.7c1.4-1.2,3-2.2,4.7-3c3.4-1.4,7.5,1.9,6.8,5.4
		c-0.4,1.4-1.2,2.6-2.4,3.5c-4,3.1-8.1,6.2-12.4,9c-20.8,13.8-44.2,23.5-68.7,28.4C326.1,449,316,450,305.9,449.8z"/>
	<path class="st0" d="M420.3,234.3c0,5.3-3.9,8.3-8.8,6.3c-8.9-3.7-18.4-6-28-6.9c-21.9-1.8-42.4,2.7-60.9,15
		c-2.1,1.4-4.1,3-6.3,4.4c-2.7,1.9-6.4,1.8-9-0.3c-3.5-2.5-4-7.5,0-10.5c9.8-7.3,20.6-13.1,32.1-17.3c14.8-5.2,30.1-6.7,45.6-5.5
		c10.2,0.9,20.1,3.3,29.6,7.2C418.4,228.3,420.2,230.8,420.3,234.3z"/>
	<path class="st0" d="M193,245.7c7.8,0.2,15.5,1.9,22.7,5c2.7,1.2,3.4,2.6,3,5c-0.4,2.5-2.5,4.3-5,4.4c-1.5-0.1-2.9-0.4-4.3-0.9
		c-3.1-0.8-6.1-1.9-9.3-2.4c-12.8-2.3-24.1,1.4-34.4,8.8c-1.1,0.8-2.1,1.7-3.2,2.4c-2.4,1.5-5.5,0.9-7.1-1.4c-1.8-2.3-1.6-4.6,1-6.7
		c7.8-6.9,17.4-11.4,27.6-13.1C186.9,246.3,189.9,246.1,193,245.7z"/>
</g>
<g>
	<path class="st0" d="M47.3,527l6.6,7H49l-4.4-4.7c-3.9,2.8-8.5,4.1-13.7,4.1c-5.6,0-10-1.6-13.4-5c-3.4-3.4-5-7.7-5-13.1
		c0-4.1,1-7.9,3-11.4s4.7-6.2,8.3-8.2s7.4-3,11.6-3c5.4,0,9.8,1.7,13.3,5.1s5.2,7.7,5.2,13C53.9,517.3,51.7,522.7,47.3,527z
		 M44.7,524.2c1.7-1.7,3-3.8,3.9-6.2c1-2.3,1.4-4.8,1.4-7.3c0-4.1-1.3-7.6-4.1-10.3c-2.7-2.7-6.3-3.9-10.7-3.9
		c-3.5,0-6.6,0.9-9.5,2.5s-5.2,3.9-6.8,6.8c-1.6,3-2.5,6.1-2.5,9.4c0,2.9,0.6,5.4,1.8,7.6c1.3,2.2,2.9,3.9,5.1,5.2
		c2.2,1.3,4.7,1.8,7.6,1.8c4,0,7.7-1.2,11.1-3.4l-6.4-6.8h4.9L44.7,524.2z"/>
	<path class="st0" d="M64.1,503.9h3.7l-1.7,11.9c-0.5,3.6-0.8,5.8-0.8,6.7c0,2.1,0.7,3.8,2,5.2c1.3,1.3,3.1,2,5.3,2
		c1.8,0,3.5-0.5,4.8-1.5c1.3-1.1,2.3-2.4,2.9-4.1c0.3-0.9,0.7-2.8,1.1-5.9l1.9-14.3h3.6l-1.3,10.9c-0.7,5.2-1.3,8.9-2.1,11.1
		s-2,3.9-3.9,5.4c-1.9,1.4-4.2,2.1-6.9,2.1c-3.1,0-5.7-1.1-7.6-3.1c-2-2-3-4.5-3-7.6c0-1.3,0.1-2.6,0.3-4.2l0.3-2.5l0.2-1.1
		L64.1,503.9z"/>
	<path class="st0" d="M119.6,532.5h-3.8l0.6-4.3c-3.3,3.4-7.1,5-11.4,5c-3.8,0-7-1.3-9.5-3.8c-2.5-2.5-3.8-5.8-3.8-9.7
		c0-4.5,1.6-8.5,4.9-11.7s7.1-4.9,11.5-4.9c2.4,0,4.5,0.5,6.3,1.5c1.8,1,3.3,2.6,4.5,4.7l0.7-5.4h3.8L119.6,532.5z M105.5,529.9
		c2.3,0,4.5-0.6,6.4-1.6c1.9-1.2,3.5-2.7,4.6-4.8c1.2-2.1,1.7-4.3,1.7-6.8c0-3-1-5.4-2.8-7.2c-1.8-1.8-4.3-2.8-7.3-2.8
		c-3.5,0-6.5,1.3-9,3.8c-2.5,2.5-3.8,5.7-3.8,9.3c0,3,1,5.5,2.8,7.3C100,529,102.5,529.9,105.5,529.9z"/>
	<path class="st0" d="M131.9,503.9h3.6l-0.6,4.4c2.9-3.5,6.3-5.2,10.1-5.2c3,0,5.4,0.9,7.1,2.7c1.8,1.8,2.7,4.2,2.7,7.3
		c0,1.3-0.2,3.3-0.6,6.2l-1.7,13.1h-3.6l1.7-13.1c0.4-2.8,0.6-4.9,0.6-6.3c0-2-0.6-3.7-1.8-4.8c-1.3-1.3-2.8-1.8-4.8-1.8
		c-1.9,0-3.8,0.5-5.4,1.5c-1.6,1-3,2.3-3.8,4c-1,1.7-1.6,4.4-2.1,8.1l-1.6,12.3H128L131.9,503.9z"/>
	<path class="st0" d="M189.2,532.5h-3.8l0.6-4.4c-3.4,3.5-7.2,5.2-11.5,5.2c-3.8,0-7-1.3-9.5-3.8c-2.5-2.5-3.8-5.8-3.8-9.7
		c0-4.5,1.6-8.5,4.8-11.7c3.3-3.3,7-4.9,11.5-4.9c2.4,0,4.4,0.5,6.3,1.5c1.8,1,3.4,2.6,4.6,4.7l2.2-16.5h3.8L189.2,532.5z
		 M175.2,529.9c2.4,0,4.5-0.6,6.4-1.6c1.9-1.2,3.5-2.7,4.6-4.8s1.7-4.3,1.7-6.8c0-3-1-5.4-2.8-7.2c-1.8-1.8-4.3-2.8-7.3-2.8
		c-3.6,0-6.5,1.3-9,3.8c-2.5,2.5-3.8,5.7-3.8,9.3c0,3,1,5.5,2.8,7.3C169.7,529,172.2,529.9,175.2,529.9z"/>
	<path class="st0" d="M217.3,492.9h3.6l-5.3,39.6H212L217.3,492.9z"/>
	<path class="st0" d="M251.7,532.5h-3.8l0.6-4.3c-3.3,3.4-7.1,5-11.4,5c-3.8,0-7-1.3-9.5-3.8c-2.5-2.5-3.8-5.8-3.8-9.7
		c0-4.5,1.6-8.5,4.9-11.7c3.3-3.3,7.1-4.9,11.5-4.9c2.4,0,4.5,0.5,6.3,1.5c1.8,1,3.3,2.6,4.5,4.7l0.7-5.4h3.8L251.7,532.5z
		 M237.6,529.9c2.3,0,4.5-0.6,6.4-1.6c1.9-1.2,3.5-2.7,4.6-4.8s1.7-4.3,1.7-6.8c0-3-1-5.4-2.8-7.2c-1.8-1.8-4.3-2.8-7.3-2.8
		c-3.5,0-6.5,1.3-9,3.8c-2.5,2.5-3.8,5.7-3.8,9.3c0,3,1,5.5,2.8,7.3C232.2,529,234.7,529.9,237.6,529.9z"/>
	<path class="st0" d="M305.7,509.7l-6,3.3c-1.2-1.2-2.2-2-3.4-2.4c-1.1-0.5-2.4-0.7-3.8-0.7c-2.7,0-4.8,0.8-6.5,2.4
		c-1.6,1.6-2.5,3.7-2.5,6.2c0,2.4,0.8,4.4,2.4,6c1.6,1.5,3.7,2.3,6.3,2.3c3.2,0,5.7-1.1,7.5-3.3l5.7,3.8c-3.1,3.9-7.4,6-13,6
		c-5,0-8.9-1.4-11.8-4.4c-2.9-3-4.2-6.4-4.2-10.5c0-2.8,0.7-5.3,2.1-7.6c1.3-2.3,3.3-4.1,5.8-5.5c2.5-1.3,5.3-2,8.3-2
		c2.9,0,5.4,0.6,7.6,1.7C302.4,506,304.2,507.6,305.7,509.7z"/>
	<path class="st0" d="M325.5,503.2c2.7,0,5.2,0.7,7.6,2c2.4,1.3,4.2,3.2,5.6,5.5c1.3,2.3,2,4.8,2,7.5s-0.7,5.2-2,7.6
		c-1.3,2.4-3.2,4.1-5.5,5.5c-2.3,1.3-4.9,2-7.7,2c-4.1,0-7.6-1.4-10.5-4.3c-2.9-2.9-4.3-6.4-4.3-10.6c0-4.4,1.6-8.2,4.9-11.2
		C318.5,504.5,321.8,503.2,325.5,503.2z M325.7,510c-2.2,0-4,0.8-5.6,2.3c-1.4,1.5-2.2,3.6-2.2,6c0,2.5,0.8,4.5,2.2,6.1
		c1.4,1.5,3.4,2.3,5.6,2.3c2.2,0,4.1-0.8,5.6-2.3c1.4-1.5,2.2-3.6,2.2-6.1c0-2.4-0.8-4.4-2.2-6C329.8,510.8,327.9,510,325.7,510z"/>
	<path class="st0" d="M346.5,503.9h7.2v3.3c1.3-1.3,2.6-2.3,4.1-3c1.5-0.7,3.2-1,4.9-1c1.8,0,3.4,0.5,4.8,1.3
		c1.4,0.9,2.6,2.1,3.5,3.8c1.2-1.6,2.5-3,4.2-3.8c1.6-0.9,3.5-1.3,5.4-1.3c2,0,3.8,0.5,5.4,1.4c1.5,1,2.7,2.2,3.4,3.8
		c0.7,1.5,1.1,4,1.1,7.4v16.7h-7.2V518c0-3.3-0.4-5.4-1.3-6.5c-0.8-1.2-2-1.7-3.7-1.7c-1.3,0-2.3,0.4-3.3,1.1
		c-1,0.7-1.7,1.6-2.2,2.9c-0.5,1.3-0.7,3.2-0.7,6v12.9H365v-13.9c0-2.6-0.2-4.4-0.6-5.6c-0.4-1.2-1-2-1.7-2.6
		c-0.8-0.6-1.6-0.9-2.7-0.9c-1.2,0-2.3,0.4-3.3,1.1c-1,0.7-1.7,1.7-2.2,3c-0.5,1.3-0.8,3.3-0.8,6.1v12.7h-7.2V503.9z"/>
	<path class="st0" d="M414,503.9h3.8l-0.6,4.3c3.3-3.4,7.1-5,11.4-5c3.8,0,7.1,1.3,9.6,3.8c2.5,2.5,3.8,5.8,3.8,9.7
		c0,4.5-1.6,8.5-4.8,11.7c-3.3,3.3-7,4.9-11.5,4.9c-2.4,0-4.4-0.5-6.3-1.5c-1.8-1-3.4-2.6-4.6-4.7l-2.1,15.9h-3.8L414,503.9z
		 M428.1,506.5c-2.3,0-4.5,0.6-6.4,1.6c-1.9,1.2-3.5,2.7-4.6,4.8c-1.2,2.1-1.7,4.3-1.7,6.8c0,3,1,5.4,2.8,7.2
		c1.9,1.8,4.3,2.8,7.3,2.8c3.6,0,6.5-1.3,9-3.8c2.5-2.5,3.8-5.7,3.8-9.3c0-3.1-1-5.5-2.8-7.3C433.6,507.5,431.2,506.5,428.1,506.5z"
		/>
	<path class="st0" d="M463.2,503.2c2.4,0,4.7,0.6,6.7,1.7c2,1.2,3.7,2.8,4.7,4.9c1.2,2.1,1.7,4.4,1.7,7c0,3-0.8,5.8-2.2,8.4
		s-3.4,4.5-5.9,6c-2.4,1.4-5.2,2.1-8.4,2.1c-3.8,0-7-1.3-9.4-3.8c-2.5-2.5-3.8-5.7-3.8-9.6c0-3.1,0.8-5.9,2.2-8.5
		c1.4-2.6,3.5-4.6,6-6.1C457.5,503.9,460.2,503.2,463.2,503.2z M463.1,506.7c-2.3,0-4.4,0.6-6.4,1.7c-2,1.2-3.6,2.7-4.6,4.7
		c-1.1,2-1.6,4.1-1.6,6.5c0,3,1,5.5,2.8,7.3c1.8,1.9,4.2,2.8,7.2,2.8c2.3,0,4.4-0.6,6.3-1.6c1.8-1.1,3.4-2.7,4.4-4.7
		c1.1-2,1.6-4.3,1.6-6.6c0-2-0.4-3.8-1.3-5.3c-0.9-1.5-2-2.7-3.5-3.6C466.6,507.1,464.9,506.7,463.1,506.7z"/>
	<path class="st0" d="M484.1,503.9h3.7l-0.5,3.6c1-1.3,2.2-2.4,3.6-3.2c1.3-0.8,2.8-1.2,4.2-1.2c1.1,0,2.1,0.3,3.3,0.8l-1.7,3.4
		c-0.9-0.4-1.6-0.6-2.3-0.6c-1.3,0-2.5,0.5-3.8,1.3s-2.3,2.2-3.1,3.9c-0.8,1.7-1.4,4.5-2,8.5l-1.6,12.1h-3.6L484.1,503.9z"/>
	<path class="st0" d="M506.2,493.2h3.6l-1.4,10.7h5.8l-0.4,3.2H508l-3.4,25.4h-3.7l3.5-25.4h-4.9l0.5-3.2h4.9L506.2,493.2z"/>
	<path class="st0" d="M545.7,518.9h-25.5c-0.1,3.4,0.9,6.1,2.7,8c1.8,1.9,4.2,2.9,7.3,2.9c2,0,3.8-0.4,5.6-1.3s3.2-2,4.2-3.5
		l2.7,2.2c-1.3,1.7-3.2,3.2-5.4,4.2c-2.2,1.1-4.6,1.6-7.2,1.6c-4.5,0-7.9-1.3-10.1-4.1c-2.2-2.8-3.4-5.9-3.4-9.3
		c0-2.9,0.8-5.6,2.3-8.2s3.6-4.7,6.1-6.2c2.5-1.4,5.3-2.2,8.3-2.2c3.7,0,6.7,1.3,9.1,3.8c2.4,2.5,3.6,5.7,3.6,9.4
		C545.9,517.1,545.8,518,545.7,518.9z M542.3,515.8c-0.1-2.7-1.1-4.9-2.8-6.5c-1.7-1.6-3.9-2.5-6.5-2.5c-2.9,0-5.4,0.8-7.6,2.4
		s-3.8,3.8-4.6,6.6H542.3z"/>
	<path class="st0" d="M583.1,507.1l-2,3c-1.6-2.3-3.6-3.5-5.8-3.5c-1.3,0-2.3,0.4-3.3,1.3c-0.9,0.9-1.3,1.7-1.3,2.7
		c0,0.8,0.3,1.5,0.8,2.2c0.5,0.7,1.7,1.6,3.6,2.9c2.7,1.7,4.5,3.3,5.4,4.6c0.9,1.3,1.3,2.9,1.3,4.6c0,2.4-0.9,4.4-2.5,6
		c-1.6,1.5-3.8,2.4-6.5,2.4c-3.6,0-6.5-1.5-8.9-4.7l2.2-2.6c2.1,2.6,4.4,3.8,6.9,3.8c1.4,0,2.7-0.5,3.8-1.5c1.1-1,1.5-2.1,1.5-3.5
		c0-1.1-0.4-2.1-1.2-3.1c-0.5-0.7-1.8-1.7-4.1-3.2c-2.4-1.6-3.9-3-4.7-4.1c-0.8-1.1-1.2-2.3-1.2-3.7c0-2.1,0.8-3.9,2.4-5.4
		c1.6-1.4,3.7-2.2,6.1-2.2c1.4,0,2.7,0.3,3.9,0.9C580.8,504.6,582,505.7,583.1,507.1z"/>
	<path class="st0" d="M616.4,518.9h-25.5c-0.1,3.4,0.9,6.1,2.7,8c1.8,1.9,4.2,2.9,7.3,2.9c2,0,3.8-0.4,5.6-1.3s3.2-2,4.2-3.5
		l2.7,2.2c-1.3,1.7-3.2,3.2-5.4,4.2c-2.2,1.1-4.6,1.6-7.2,1.6c-4.5,0-7.9-1.3-10.1-4.1c-2.2-2.8-3.4-5.9-3.4-9.3
		c0-2.9,0.8-5.6,2.3-8.2s3.6-4.7,6.1-6.2s5.3-2.2,8.3-2.2c3.7,0,6.7,1.3,9.1,3.8c2.4,2.5,3.6,5.7,3.6,9.4
		C616.6,517.1,616.5,518,616.4,518.9z M613,515.8c-0.1-2.7-1.1-4.9-2.8-6.5c-1.7-1.6-3.9-2.5-6.5-2.5c-2.9,0-5.4,0.8-7.6,2.4
		c-2.2,1.6-3.8,3.8-4.6,6.6H613z"/>
	<path class="st0" d="M639,507.1l-2,3c-1.6-2.3-3.6-3.5-5.8-3.5c-1.3,0-2.3,0.4-3.3,1.3c-0.9,0.9-1.3,1.7-1.3,2.7
		c0,0.8,0.3,1.5,0.8,2.2s1.7,1.6,3.6,2.9c2.7,1.7,4.5,3.3,5.4,4.6c0.9,1.3,1.3,2.9,1.3,4.6c0,2.4-0.9,4.4-2.5,6
		c-1.6,1.5-3.8,2.4-6.5,2.4c-3.6,0-6.5-1.5-8.9-4.7l2.2-2.6c2.1,2.6,4.4,3.8,6.9,3.8c1.4,0,2.7-0.5,3.8-1.5c1.1-1,1.5-2.1,1.5-3.5
		c0-1.1-0.4-2.1-1.2-3.1c-0.5-0.7-1.8-1.7-4.1-3.2c-2.4-1.6-3.9-3-4.7-4.1c-0.8-1.1-1.2-2.3-1.2-3.7c0-2.1,0.8-3.9,2.4-5.4
		s3.7-2.2,6.1-2.2c1.4,0,2.7,0.3,3.9,0.9C636.6,504.6,637.9,505.7,639,507.1z"/>
	<path class="st0" d="M674.1,493.8l-0.5,3.5c-1.3-1.3-2.6-1.9-3.8-1.9c-0.8,0-1.4,0.4-1.9,1.1c-0.6,0.7-1,2.1-1.3,4.3l-0.4,3.1h6
		l-0.4,3.2h-6.1l-3.4,25.4h-3.6l3.5-25.4h-3.5l0.4-3.2h3.5l0.4-2.5c0.4-3,0.9-4.9,1.3-6c0.5-1,1.2-1.8,2.1-2.4c1-0.6,2-0.9,3.1-0.9
		C671.1,492.2,672.5,492.8,674.1,493.8z"/>
	<path class="st0" d="M676.9,503.9h3.7l-0.5,3.6c1-1.3,2.2-2.4,3.6-3.2c1.3-0.8,2.8-1.2,4.2-1.2c1.1,0,2.1,0.3,3.3,0.8l-1.7,3.4
		c-0.9-0.4-1.6-0.6-2.3-0.6c-1.3,0-2.5,0.5-3.8,1.3c-1.3,0.9-2.3,2.2-3.1,3.9c-0.8,1.7-1.4,4.5-2,8.5l-1.6,12.1h-3.6L676.9,503.9z"
		/>
	<path class="st0" d="M696.3,503.9h3.7l-1.7,11.9c-0.5,3.6-0.8,5.8-0.8,6.7c0,2.1,0.7,3.8,2,5.2s3.1,2,5.3,2c1.8,0,3.5-0.5,4.8-1.5
		s2.3-2.4,2.9-4.1c0.3-0.9,0.7-2.8,1.1-5.9l1.9-14.3h3.6l-1.3,10.9c-0.7,5.2-1.3,8.9-2.1,11.1s-2,3.9-3.9,5.4
		c-1.9,1.4-4.2,2.1-6.9,2.1c-3.1,0-5.7-1.1-7.6-3.1c-2-2-3-4.5-3-7.6c0-1.3,0.1-2.6,0.3-4.2l0.3-2.5l0.2-1.1L696.3,503.9z"/>
	<path class="st0" d="M726.6,503.9h3.5l-3.8,28.6h-3.6L726.6,503.9z M729.5,492.2c0.8,0,1.5,0.3,2.1,0.9s0.9,1.3,0.9,2.1
		c0,0.9-0.3,1.5-0.9,2.1c-0.6,0.6-1.3,0.9-2.1,0.9c-0.9,0-1.5-0.3-2.1-0.9c-0.6-0.6-0.9-1.3-0.9-2.1c0-0.8,0.3-1.5,0.9-2.1
		C727.9,492.5,728.7,492.2,729.5,492.2z"/>
	<path class="st0" d="M742.7,493.2h3.6l-1.4,10.7h5.8l-0.4,3.2h-5.8l-3.4,25.4h-3.7l3.5-25.4h-4.9l0.5-3.2h4.9L742.7,493.2z"/>
	<path class="st0" d="M769.6,507.1l-2,3c-1.6-2.3-3.6-3.5-5.8-3.5c-1.3,0-2.3,0.4-3.3,1.3c-0.9,0.9-1.3,1.7-1.3,2.7
		c0,0.8,0.3,1.5,0.8,2.2c0.5,0.7,1.7,1.6,3.6,2.9c2.7,1.7,4.5,3.3,5.4,4.6c0.9,1.3,1.3,2.9,1.3,4.6c0,2.4-0.9,4.4-2.5,6
		c-1.6,1.5-3.8,2.4-6.5,2.4c-3.6,0-6.5-1.5-8.9-4.7l2.2-2.6c2.1,2.6,4.4,3.8,6.9,3.8c1.4,0,2.7-0.5,3.8-1.5c1.1-1,1.5-2.1,1.5-3.5
		c0-1.1-0.4-2.1-1.2-3.1c-0.5-0.7-1.8-1.7-4.1-3.2c-2.4-1.6-3.9-3-4.7-4.1c-0.8-1.1-1.2-2.3-1.2-3.7c0-2.1,0.8-3.9,2.4-5.4
		c1.6-1.4,3.7-2.2,6.1-2.2c1.4,0,2.7,0.3,3.9,0.9C767.3,504.6,768.5,505.7,769.6,507.1z"/>
	<path class="st0" d="M792.6,526.8c0.9,0,1.6,0.3,2.3,1c0.6,0.7,1,1.3,1,2.3c0,0.9-0.3,1.6-1,2.2c-0.6,0.7-1.3,1-2.3,1
		c-0.9,0-1.6-0.3-2.3-1c-0.6-0.7-1-1.3-1-2.2c0-0.9,0.3-1.6,1-2.3C791,527.2,791.6,526.8,792.6,526.8z M795.6,492.9h3.7l-4,30h-3.7
		L795.6,492.9z"/>
</g>
</svg>
