<?xml version="1.0" encoding="utf-8"?>
<!-- Generator: Adobe Illustrator 22.1.0, SVG Export Plug-In . SVG Version: 6.00 Build 0)  -->
<svg version="1.1" id="_x30_6a2e43f-80de-4f11-8a96-d56f75682caa"
	 xmlns="http://www.w3.org/2000/svg" xmlns:xlink="http://www.w3.org/1999/xlink" x="0px" y="0px" viewBox="0 0 817.5 541.1"
	 style="enable-background:new 0 0 817.5 541.1;" xml:space="preserve">
<style type="text/css">
	.st0{fill:#FFFFFF;}
</style>
<title>cocotierlogo</title>
<g>
	<path class="st0" d="M434.4,77.4c0.8-2.1,1.4-3.7,2.1-5.3c9.3-23.4,23.8-42.6,45.2-56.2C496.1,6.8,512,2.1,529.1,0.5
		c11.3-1.1,22.5-0.2,33.8,1.1c0.2,0,0.4,0.3,1.2,0.7c-2,0.5-3.5,0.9-5.1,1.2c-18.5,4.2-35.9,11-51.2,22.5
		C492,37.8,481.5,53,477.7,72.4c-0.7,3.6-1,7.4-1.6,11.6l6.9-1.2c44.4-7.7,83,3.7,115.6,34.8c17.6,16.8,30,37.1,39.9,59.1
		c3.3,7.4,6.2,15.1,8.8,23c-20.1-21.9-44.4-39.5-71.5-51.8c-26.9-12.4-56-19.2-85.6-20c46.7,23.6,71.8,61.6,76.5,113.5
		c-0.7-1.1-1.4-2.2-2.1-3.3c-14.8-23.7-32.4-44.9-54.9-61.7c-11.7-8.7-24.4-15.7-38.5-19.9c-1.2-0.4-2.3-0.7-3.5-1
		c-0.5-0.1-1-0.1-1.5-0.1c-0.2,0.8-0.4,1.7-0.5,2.6c-0.1,1.1,0,2.1,0,3.2c0,79.3,0,158.7,0,238c0,3.5,0.3,7,0.9,10.4
		c0.9,5.1,4.5,8.4,9.4,8.7c8.7,0.6,17.4,0.3,26.2,0.4c0.2,0,0.5-0.2,1.2-0.6V269.5h36.8c0.1,6.1,0,12.3,0,18.4c0,6.3,0,12.7,0,19
		v111.4c3.4,1,25.6,1.2,30.8,0.4c0.1-0.7,0.1-1.5,0-2.2c-1.9-7.7-2.8-15.6-2.8-23.6c-0.2-23-0.2-46,0-69c0.1-7.8,0.6-15.6,2.9-23.1
		c6-19.7,19.5-31.4,39.5-35.4c10.7-2.3,21.9-1.6,32.2,1.8c19.3,6.6,30.3,20.5,34.4,40.2c0.9,4.4,1.3,8.8,1.3,13.2
		c0.2,15.7,0.1,31.5,0,47.2c0,1.3-0.2,2.6-0.3,4.3c-1.9,0.1-3.6,0.3-5.3,0.3h-62.5c-1.7,0-3.4,0.2-5.3,0.3c-0.2,1.4-0.3,2.4-0.3,3.5
		c0,7.4-0.1,14.8,0,22.2c0,1.9,0.3,3.8,0.7,5.6c1.4,6.5,6.9,11.4,13.5,12.1c3.1,0.4,6.2,0.4,9.2,0c4.5-0.5,8.1-2.8,10-7.1
		c1.2-2.7,2.1-5.5,3.1-8.3c0.3-0.9,0.6-1.7,0.9-2.6h36c0.9,7.2-1.1,13.9-2.6,21h31c0.3-10.1,0.1-20,0.1-29.9s0-19.9,0-29.9v-89.8
		h36.5v18.1c2.1,0.5,2.8-1,3.8-1.7c6.1-4.2,11.9-8.7,18.2-12.6c7.2-4.5,15.5-5.8,23.9-6.3c0.8,0,1.6,0,2.4,0.1
		c0.2,0,0.5,0.2,0.9,0.5v37.5c-0.9-0.1-1.8-0.2-2.7-0.4c-19.6-4.9-44.3,7.3-46.2,34.3c-0.2,2.5-0.2,5.1-0.2,7.7
		c0,33.9,0,67.8,0,101.6c0,1.7-0.2,3.4-0.3,5.4h-4.8c-42.6,0-85.2,0-127.9,0c-25.1,0-50.3,0.3-75.4,0.3c-21.4,0-42.7-0.2-64.1-0.3
		c-6.2,0-12.3-1.3-18-3.7c-13-5.8-20.2-16-22.8-29.7c-0.7-4.4-1.1-8.8-1-13.2c0-80.4,0-160.8,0-241.2v-5.9c-1.2,0-2.3,0.1-3.5,0.3
		c-18.9,5-37.2,11.3-54.2,21.2c-10.7,6.2-20.3,13.6-28,23.4c-0.4,0.3-0.9,0.6-1.4,0.9c12.1-32.3,31.2-57.3,63.4-70.7
		c-0.1-0.3-0.2-0.5-0.3-0.8c-3.3-0.5-6.5-1-9.8-1.3c-19.8-1.8-39.7-3-59.6-2.4c-26.4,0.9-52.5,3.5-78,11
		c-10.3,2.9-20.3,6.9-29.9,11.9c-0.6,0.3-1.2,0.5-1.9,0.5c22.1-21.5,48.1-37,77-47.4s58.8-14.3,90.2-12.6c-0.7-1.8-1.1-3.2-1.7-4.4
		c-3.2-6.8-7.2-13.2-12-19.1c-12.2-15.5-27-28-43.5-38.7c-7.8-5-15.9-9.4-23.9-14.1c-1.1-0.6-2.1-1.4-2.8-2.3
		c5.6,0.8,11.3,1.5,16.9,2.5c18.8,3.4,37.2,8.4,54.7,16.1c11.5,4.9,22.3,11.3,32.1,19.1c7.6,6.1,14.1,13.4,19.2,21.6
		C432.8,75.4,433.5,76.2,434.4,77.4z M641.5,343.4c0.2-0.6,0.4-1.1,0.5-1.7c-0.2-8.3-0.1-16.6-0.6-24.9c-0.2-5.2-3-10-7.4-12.8
		c-11.3-7.6-26.7-1.3-28.4,12.2c-1.1,8.7-0.5,17.6-0.6,26.5c0,0.2,0.3,0.4,0.5,0.8H641.5z"/>
	<path class="st0" d="M119.6,380.7c0.9,16,0.6,31.7-8.3,45.9c-9.3,14.8-22.1,24.9-39.4,28.2c-14.6,3-29.9,0.8-43.1-6.1
		C12.9,440.4,3.9,426.6,1,408.9c-0.6-4-1-8-0.9-12C0,348.1,0,299.4,0,250.6c0-13,3.6-25,11.5-35.4c10.2-13.5,24-20.6,40.7-22.6
		c9.9-1.3,20-0.3,29.4,3c18.9,6.8,30.3,20.8,35.7,39.7c1.6,5.6,2,11.6,2.5,17.5c0.4,4.9,0.1,9.9,0.1,14.8
		c-3.2,0.9-28.6,1.2-36.5,0.5c-0.1-1.3-0.1-2.8-0.2-4.2c-0.2-4.8-0.3-9.7-0.8-14.5c-0.6-4.1-2.2-8.1-4.8-11.4
		c-3.1-4.7-8-7.8-13.5-8.8c-5-0.9-10.2-0.4-15,1.5c-3.6,1.3-6.5,4-8.1,7.4c-2.4,4.8-3.7,10.1-4.1,15.5c-0.2,2-0.2,4-0.2,6
		c0,44,0,87.9,0.1,131.9c0,4.3,0.5,8.6,1.6,12.7c3,11.5,11.3,16.4,24.2,14.7s20-10.2,20.5-23.4c0.2-3.6,0.1-7.3,0.1-10.9
		c0-1.3,0-2.6,0-3.9C86.8,379.7,116.3,379.7,119.6,380.7z"/>
	<path class="st0" d="M249.2,310c1.7,0.5,3,0.7,4.3,1.1c2.1,0.8,2.5,2,1,3.6c-1,1.3-2.3,2.3-3.8,2.9c-2.9,0.7-3.6,2.6-4.4,5.1
		c-4.1,13.4-11.1,25.8-20.5,36.2c-5.2,5.7-11.1,10.6-18.3,13.6c-11.1,4.6-21.6,3.2-31.1-4.2c-9.8-7.7-14-18.1-13.7-30.4
		c0.1-5.5,1-11,2.6-16.3c4.8-15.4,12.4-29.1,24.1-40.4c7-6.8,15.1-11.6,24.8-13.2c8.4-1.4,15.7,0.5,21.1,7.6c1.6,2.2,3.4,4.2,5.4,6
		c7.5,6.6,9.3,15,8.6,24.5C249.4,307.3,249.3,308.5,249.2,310z M209.2,293.1c-1.6,1.6-2.8,2.7-3.8,3.9
		c-11.2,12.5-18.7,27.8-21.7,44.3c-0.9,4.6-1.1,9.3-0.7,14c0.5,6.2,5,8.6,10.6,5.9c2.9-1.4,5.5-3.3,7.8-5.6
		c10.8-10.7,17.7-23.9,23.5-37.7c0.9-2.1,0.4-3.4-1.6-4.7c-5.3-3.5-9.5-8.4-12-14.3C210.7,297.3,210.1,295.6,209.2,293.1
		L209.2,293.1z M229.3,305c0.7-0.9,1.4-1.3,1.5-1.9c1.1-4.5,2.1-9.1,3-13.7c0.2-1.2,0-2.4-0.7-3.5c-0.8-1.2-1.9-2.1-3.2-2.6
		c-1.5-0.4-3.1,0.4-3.6,2c-0.7,1.6-1.4,3.4-1.2,5c0.5,3.7,1.2,7.4,2.2,11C227.5,302.5,228.4,303.6,229.3,305L229.3,305z"/>
	<path class="st0" d="M395.8,310.1c1.6,0.4,2.8,0.7,3.9,1.1c2,0.8,2.5,2.1,1.2,3.7c-1.1,1.4-2.5,2.4-4.1,3c-2.3,0.7-3.1,2.1-3.7,4.2
		c-3.8,12.8-10.2,24.6-18.8,34.8c-4.1,4.8-8.8,9.1-14.1,12.5c-22.2,14.4-45.8-0.5-50.1-22.1c-2-9.9-0.3-19.5,2.9-28.9
		c5.3-15.2,13.3-28.7,25.6-39.4c6.2-5.6,13.8-9.4,22.1-10.9c8.6-1.4,15.9,0.4,21.5,7.7c2.2,2.7,4.5,5.3,7,7.8
		c4.4,4.4,6.9,10.4,6.8,16.7C395.8,303.5,395.8,306.7,395.8,310.1z M355.1,293.8c-0.6,0.4-1.2,0.9-1.8,1.4
		c-13.6,14.5-22.2,33-24.4,52.7c-0.3,3.1,0,6.2,0.7,9.1c1,4.4,4.3,6.2,8.6,4.7c2.3-0.7,4.4-1.9,6.3-3.5c3.4-3,6.6-6.3,9.5-9.8
		c6.7-8.6,11.9-18.2,16.2-28.2c0.7-1.7,1.2-3.5,1.7-4.8c-3.6-3.5-7.3-6.3-10.1-9.9S357.4,297.9,355.1,293.8L355.1,293.8z M376.2,305
		c2.5-5.1,3.8-10.7,3.8-16.3c0-1.2-0.4-2.4-1-3.4c-0.8-1.7-2.9-2.5-4.7-1.6c-0.7,0.3-1.2,0.8-1.6,1.5c-0.8,1.2-1.2,2.6-1.3,4.1
		c0.1,3.1,0.4,6.1,1,9.1C372.9,300.6,373.6,303,376.2,305L376.2,305z"/>
	<path class="st0" d="M286.2,359.1c-0.9,0.1-1.7,0.3-2.6,0.6c-1.2,0.7-2.2,1.5-3.2,2.5c-9.6,9.6-16.7,20.7-19.9,34
		c-1.1,4-1.3,8.3-0.4,12.4c1.5,6.8,5.6,9.3,12.4,7.9s12.4-5.2,17.1-10c4-4.1,7.5-8.8,11.2-13.2c1-1.2,1.7-3.1,3.6-2.5
		s1.7,2.5,1.8,4.1c0.2,3.1-0.7,6.2-2.6,8.7c-9.7,13.6-22.8,20.8-39.6,19.3c-13.2-1.2-19.6-10.5-20.2-21.8c-0.2-4.3,0.3-8.6,1.5-12.7
		c4-13.3,11.2-24.6,22.8-32.7c4.4-3,9.1-5,14.6-4.9c11.4,0.4,19.8,11.9,15.9,22.6c-1.9,5.3-4.4,10.4-6.8,15.5
		c-1,2.1-2.4,2.5-4.6,1.6c-4.4-1.7-7.8-7-6.7-11.7c1-4.3,2.8-8.4,4.2-12.5c0.7-2.1,1.5-4.2,2.3-6.3L286.2,359.1z"/>
	<path class="st0" d="M293.4,449.8c-16.2,0.4-32.3-2.4-47.4-8.4c-1-0.4-2-0.8-2.9-1.3c-2.6-1.3-3.5-2.9-3-5c0.5-2.4,2.6-4.2,5.1-4.4
		c1.3,0,2.6,0.3,3.9,0.8c17.7,7.6,36.4,9.5,55.2,7.8c33.8-3.1,64.2-15.4,91.4-35.7c1.4-1.2,3-2.2,4.7-3c3.4-1.4,7.5,1.9,6.8,5.4
		c-0.4,1.4-1.2,2.6-2.4,3.5c-4,3.1-8.1,6.2-12.4,9c-20.8,13.8-44.2,23.5-68.7,28.4C313.6,449,303.5,450,293.4,449.8z"/>
	<path class="st0" d="M407.8,234.3c0,5.3-3.9,8.3-8.8,6.3c-8.9-3.7-18.4-6-28-6.9c-21.9-1.8-42.4,2.7-60.9,15
		c-2.1,1.4-4.1,3-6.3,4.4c-2.7,1.9-6.4,1.8-9-0.3c-3.5-2.5-4-7.5,0-10.5c9.8-7.3,20.6-13.1,32.1-17.3c14.8-5.2,30.1-6.7,45.6-5.5
		c10.2,0.9,20.1,3.3,29.6,7.2C405.9,228.3,407.7,230.8,407.8,234.3z"/>
	<path class="st0" d="M781.2,417.2h36.2v35.9c-2.8,0.8-31,1.1-36.2,0.2V417.2z"/>
	<path class="st0" d="M180.5,245.7c7.8,0.2,15.5,1.9,22.7,5c2.7,1.2,3.4,2.6,3,5c-0.4,2.5-2.5,4.3-5,4.4c-1.5-0.1-2.9-0.4-4.3-0.9
		c-3.1-0.8-6.1-1.9-9.3-2.4c-12.8-2.3-24.1,1.4-34.4,8.8c-1.1,0.8-2.1,1.7-3.2,2.4c-2.4,1.5-5.5,0.9-7.1-1.4c-1.8-2.3-1.6-4.6,1-6.7
		c7.8-6.9,17.4-11.4,27.6-13.1C174.4,246.3,177.4,246.1,180.5,245.7z"/>
</g>
<g>
	<path class="st0" d="M36.1,526.4l6.9,7.3h-5.1l-4.6-4.9c-4.1,2.9-8.8,4.3-14.2,4.3c-5.8,0-10.4-1.7-13.9-5.2
		c-3.5-3.5-5.2-8-5.2-13.6c0-4.3,1-8.2,3.1-11.8c2.1-3.6,4.9-6.4,8.6-8.5c3.7-2.1,7.7-3.1,12.1-3.1c5.6,0,10.2,1.8,13.8,5.3
		c3.6,3.5,5.4,8,5.4,13.5C43,516.3,40.7,521.9,36.1,526.4z M33.4,523.5c1.8-1.8,3.1-4,4.1-6.4s1.5-5,1.5-7.6c0-4.3-1.4-7.9-4.3-10.7
		c-2.8-2.8-6.5-4.1-11.1-4.1c-3.6,0-6.9,0.9-9.9,2.6c-3,1.7-5.4,4.1-7.1,7.1c-1.7,3.1-2.6,6.3-2.6,9.8c0,3,0.6,5.6,1.9,7.9
		c1.3,2.3,3,4.1,5.3,5.4s4.9,1.9,7.9,1.9c4.2,0,8-1.2,11.5-3.5l-6.7-7.1H29L33.4,523.5z"/>
	<path class="st0" d="M53.6,502.4h3.8l-1.8,12.4c-0.5,3.7-0.8,6-0.8,7c0,2.2,0.7,4,2.1,5.4c1.4,1.4,3.2,2.1,5.5,2.1
		c1.9,0,3.6-0.5,5-1.6c1.4-1.1,2.4-2.5,3-4.3c0.3-0.9,0.7-2.9,1.1-6.1l2-14.9h3.7l-1.4,11.3c-0.7,5.4-1.4,9.2-2.2,11.5
		c-0.8,2.3-2.1,4.1-4.1,5.6c-2,1.5-4.4,2.2-7.2,2.2c-3.2,0-5.9-1.1-7.9-3.2c-2.1-2.1-3.1-4.7-3.1-7.9c0-1.3,0.1-2.7,0.3-4.4l0.3-2.6
		l0.2-1.1L53.6,502.4z"/>
	<path class="st0" d="M111.2,532.1h-3.9l0.6-4.5c-3.4,3.5-7.4,5.2-11.8,5.2c-4,0-7.3-1.3-9.9-3.9c-2.6-2.6-3.9-6-3.9-10.1
		c0-4.7,1.7-8.8,5.1-12.2c3.4-3.4,7.4-5.1,11.9-5.1c2.5,0,4.7,0.5,6.5,1.6c1.9,1,3.4,2.7,4.7,4.9l0.7-5.6h4L111.2,532.1z
		 M96.6,529.4c2.4,0,4.7-0.6,6.7-1.7c2-1.2,3.6-2.8,4.8-5c1.2-2.2,1.8-4.5,1.8-7.1c0-3.1-1-5.6-2.9-7.5c-1.9-1.9-4.5-2.9-7.6-2.9
		c-3.6,0-6.8,1.3-9.4,4c-2.6,2.6-3.9,5.9-3.9,9.7c0,3.1,1,5.7,2.9,7.6C90.9,528.4,93.5,529.4,96.6,529.4z"/>
	<path class="st0" d="M124,502.4h3.7l-0.6,4.6c3-3.6,6.5-5.4,10.5-5.4c3.1,0,5.6,0.9,7.4,2.8c1.9,1.9,2.8,4.4,2.8,7.6
		c0,1.3-0.2,3.4-0.6,6.4l-1.8,13.6h-3.7l1.8-13.6c0.4-2.9,0.6-5.1,0.6-6.5c0-2.1-0.6-3.8-1.9-5c-1.3-1.3-2.9-1.9-5-1.9
		c-2,0-3.9,0.5-5.6,1.6c-1.7,1-3.1,2.4-4,4.2c-1,1.8-1.7,4.6-2.2,8.4l-1.7,12.8H120L124,502.4z"/>
	<path class="st0" d="M183.6,532.1h-3.9l0.6-4.6c-3.5,3.6-7.5,5.4-11.9,5.4c-4,0-7.3-1.3-9.9-3.9c-2.6-2.6-3.9-6-3.9-10.1
		c0-4.7,1.7-8.8,5-12.2c3.4-3.4,7.3-5.1,11.9-5.1c2.5,0,4.6,0.5,6.5,1.6c1.9,1,3.5,2.7,4.8,4.9l2.3-17.1h4L183.6,532.1z M169,529.4
		c2.5,0,4.7-0.6,6.7-1.7c2-1.2,3.6-2.8,4.8-5c1.2-2.2,1.8-4.5,1.8-7.1c0-3.1-1-5.6-2.9-7.5c-1.9-1.9-4.5-2.9-7.6-2.9
		c-3.7,0-6.8,1.3-9.4,4c-2.6,2.6-3.9,5.9-3.9,9.7c0,3.1,1,5.7,2.9,7.6C163.3,528.4,165.9,529.4,169,529.4z"/>
	<path class="st0" d="M212.8,490.9h3.7l-5.5,41.2h-3.7L212.8,490.9z"/>
	<path class="st0" d="M248.5,532.1h-3.9l0.6-4.5c-3.4,3.5-7.4,5.2-11.8,5.2c-4,0-7.3-1.3-9.9-3.9c-2.6-2.6-3.9-6-3.9-10.1
		c0-4.7,1.7-8.8,5.1-12.2c3.4-3.4,7.4-5.1,11.9-5.1c2.5,0,4.7,0.5,6.5,1.6c1.9,1,3.4,2.7,4.7,4.9l0.7-5.6h4L248.5,532.1z
		 M233.9,529.4c2.4,0,4.7-0.6,6.7-1.7c2-1.2,3.6-2.8,4.8-5c1.2-2.2,1.8-4.5,1.8-7.1c0-3.1-1-5.6-2.9-7.5c-1.9-1.9-4.5-2.9-7.6-2.9
		c-3.6,0-6.8,1.3-9.4,4c-2.6,2.6-3.9,5.9-3.9,9.7c0,3.1,1,5.7,2.9,7.6C228.3,528.4,230.8,529.4,233.9,529.4z"/>
	<path class="st0" d="M304.6,508.4l-6.2,3.4c-1.2-1.2-2.3-2.1-3.5-2.5c-1.1-0.5-2.5-0.7-4-0.7c-2.8,0-5,0.8-6.8,2.5
		c-1.7,1.7-2.6,3.8-2.6,6.4c0,2.5,0.8,4.6,2.5,6.2c1.7,1.6,3.8,2.4,6.5,2.4c3.3,0,5.9-1.1,7.8-3.4l5.9,4c-3.2,4.1-7.7,6.2-13.5,6.2
		c-5.2,0-9.3-1.5-12.3-4.6s-4.4-6.7-4.4-10.9c0-2.9,0.7-5.5,2.2-7.9c1.4-2.4,3.4-4.3,6-5.7c2.6-1.4,5.5-2.1,8.6-2.1
		c3,0,5.6,0.6,7.9,1.8C301.2,504.6,303.1,506.2,304.6,508.4z"/>
	<path class="st0" d="M325.2,501.6c2.8,0,5.4,0.7,7.9,2.1c2.5,1.4,4.4,3.3,5.8,5.7c1.4,2.4,2.1,5,2.1,7.8c0,2.8-0.7,5.4-2.1,7.9
		s-3.3,4.3-5.7,5.7c-2.4,1.4-5.1,2.1-8,2.1c-4.3,0-7.9-1.5-10.9-4.5c-3-3-4.5-6.7-4.5-11c0-4.6,1.7-8.5,5.1-11.6
		C317.9,503,321.4,501.6,325.2,501.6z M325.4,508.7c-2.3,0-4.2,0.8-5.8,2.4c-1.5,1.6-2.3,3.7-2.3,6.2c0,2.6,0.8,4.7,2.3,6.3
		c1.5,1.6,3.5,2.4,5.8,2.4c2.3,0,4.3-0.8,5.8-2.4c1.5-1.6,2.3-3.7,2.3-6.3c0-2.5-0.8-4.6-2.3-6.2
		C329.7,509.5,327.7,508.7,325.4,508.7z"/>
	<path class="st0" d="M347,502.4h7.5v3.4c1.3-1.4,2.7-2.4,4.3-3.1c1.6-0.7,3.3-1,5.1-1c1.9,0,3.5,0.5,5,1.4s2.7,2.2,3.6,4
		c1.2-1.7,2.6-3.1,4.4-4c1.7-0.9,3.6-1.4,5.6-1.4c2.1,0,4,0.5,5.6,1.5c1.6,1,2.8,2.3,3.5,3.9c0.7,1.6,1.1,4.2,1.1,7.7v17.4h-7.5V517
		c0-3.4-0.4-5.6-1.3-6.8c-0.8-1.2-2.1-1.8-3.8-1.8c-1.3,0-2.4,0.4-3.4,1.1c-1,0.7-1.8,1.7-2.3,3c-0.5,1.3-0.7,3.3-0.7,6.2v13.4h-7.5
		v-14.4c0-2.7-0.2-4.6-0.6-5.8c-0.4-1.2-1-2.1-1.8-2.7c-0.8-0.6-1.7-0.9-2.8-0.9c-1.2,0-2.4,0.4-3.4,1.1c-1,0.7-1.8,1.8-2.3,3.1
		c-0.5,1.3-0.8,3.4-0.8,6.3v13.2H347V502.4z"/>
	<path class="st0" d="M417.2,502.4h3.9l-0.6,4.5c3.4-3.5,7.4-5.2,11.8-5.2c4,0,7.4,1.3,10,3.9c2.6,2.6,3.9,6,3.9,10.1
		c0,4.7-1.7,8.8-5,12.2c-3.4,3.4-7.3,5.1-11.9,5.1c-2.5,0-4.6-0.5-6.5-1.6c-1.9-1-3.5-2.7-4.8-4.9l-2.2,16.5h-4L417.2,502.4z
		 M431.8,505.1c-2.4,0-4.7,0.6-6.7,1.7c-2,1.2-3.6,2.8-4.8,5c-1.2,2.2-1.8,4.5-1.8,7.1c0,3.1,1,5.6,2.9,7.5c2,1.9,4.5,2.9,7.6,2.9
		c3.7,0,6.8-1.3,9.4-4c2.6-2.6,3.9-5.9,3.9-9.7c0-3.2-1-5.7-2.9-7.6C437.5,506.1,435,505.1,431.8,505.1z"/>
	<path class="st0" d="M468.3,501.6c2.5,0,4.9,0.6,7,1.8c2.1,1.2,3.8,2.9,4.9,5.1c1.2,2.2,1.8,4.6,1.8,7.3c0,3.1-0.8,6-2.3,8.7
		c-1.5,2.7-3.5,4.7-6.1,6.2c-2.5,1.5-5.4,2.2-8.7,2.2c-4,0-7.3-1.3-9.8-3.9c-2.6-2.6-3.9-5.9-3.9-10c0-3.2,0.8-6.1,2.3-8.8
		c1.5-2.7,3.6-4.8,6.2-6.3C462.4,502.4,465.2,501.6,468.3,501.6z M468.2,505.3c-2.4,0-4.6,0.6-6.7,1.8c-2.1,1.2-3.7,2.8-4.8,4.9
		c-1.1,2.1-1.7,4.3-1.7,6.8c0,3.1,1,5.7,2.9,7.6c1.9,2,4.4,2.9,7.5,2.9c2.4,0,4.6-0.6,6.5-1.7c1.9-1.1,3.5-2.8,4.6-4.9
		c1.1-2.1,1.7-4.5,1.7-6.9c0-2.1-0.4-3.9-1.3-5.5c-0.9-1.6-2.1-2.8-3.6-3.7C471.8,505.7,470.1,505.3,468.2,505.3z"/>
	<path class="st0" d="M490,502.4h3.8l-0.5,3.7c1-1.4,2.3-2.5,3.7-3.3c1.4-0.8,2.9-1.2,4.4-1.2c1.1,0,2.2,0.3,3.4,0.8l-1.8,3.5
		c-0.9-0.4-1.7-0.6-2.4-0.6c-1.3,0-2.6,0.5-3.9,1.4c-1.3,0.9-2.4,2.3-3.2,4.1c-0.8,1.8-1.5,4.7-2.1,8.8l-1.7,12.6h-3.7L490,502.4z"
		/>
	<path class="st0" d="M513,491.3h3.7l-1.5,11.1h6l-0.4,3.3h-6l-3.5,26.4h-3.8l3.6-26.4h-5.1l0.5-3.3h5.1L513,491.3z"/>
	<path class="st0" d="M554,518h-26.5c-0.1,3.5,0.9,6.3,2.8,8.3c1.9,2,4.4,3,7.6,3c2.1,0,4-0.4,5.8-1.3c1.8-0.9,3.3-2.1,4.4-3.6
		l2.8,2.3c-1.4,1.8-3.3,3.3-5.6,4.4c-2.3,1.1-4.8,1.7-7.5,1.7c-4.7,0-8.2-1.4-10.5-4.3c-2.3-2.9-3.5-6.1-3.5-9.7
		c0-3,0.8-5.8,2.4-8.5c1.6-2.7,3.7-4.9,6.3-6.4c2.6-1.5,5.5-2.3,8.6-2.3c3.8,0,7,1.3,9.5,3.9c2.5,2.6,3.7,5.9,3.7,9.8
		C554.2,516.1,554.1,517,554,518z M550.5,514.7c-0.1-2.8-1.1-5.1-2.9-6.8c-1.8-1.7-4.1-2.6-6.8-2.6c-3,0-5.6,0.8-7.9,2.5
		c-2.3,1.7-3.9,4-4.8,6.9H550.5z"/>
	<path class="st0" d="M592.9,505.7l-2.1,3.1c-1.7-2.4-3.7-3.6-6-3.6c-1.3,0-2.4,0.4-3.4,1.3c-0.9,0.9-1.4,1.8-1.4,2.8
		c0,0.8,0.3,1.6,0.8,2.3c0.5,0.7,1.8,1.7,3.7,3c2.8,1.8,4.7,3.4,5.6,4.8c0.9,1.4,1.3,3,1.3,4.8c0,2.5-0.9,4.6-2.6,6.2
		c-1.7,1.6-4,2.5-6.8,2.5c-3.7,0-6.8-1.6-9.3-4.9l2.3-2.7c2.2,2.7,4.6,4,7.2,4c1.5,0,2.8-0.5,3.9-1.6c1.1-1,1.6-2.2,1.6-3.6
		c0-1.1-0.4-2.2-1.2-3.2c-0.5-0.7-1.9-1.8-4.3-3.3c-2.5-1.7-4.1-3.1-4.9-4.3c-0.8-1.1-1.2-2.4-1.2-3.8c0-2.2,0.8-4.1,2.5-5.6
		c1.7-1.5,3.8-2.3,6.3-2.3c1.5,0,2.8,0.3,4.1,0.9C590.5,503.1,591.7,504.2,592.9,505.7z"/>
	<path class="st0" d="M627.5,518H601c-0.1,3.5,0.9,6.3,2.8,8.3c1.9,2,4.4,3,7.6,3c2.1,0,4-0.4,5.8-1.3c1.8-0.9,3.3-2.1,4.4-3.6
		l2.8,2.3c-1.4,1.8-3.3,3.3-5.6,4.4c-2.3,1.1-4.8,1.7-7.5,1.7c-4.7,0-8.2-1.4-10.5-4.3c-2.3-2.9-3.5-6.1-3.5-9.7
		c0-3,0.8-5.8,2.4-8.5c1.6-2.7,3.7-4.9,6.3-6.4c2.6-1.5,5.5-2.3,8.6-2.3c3.8,0,7,1.3,9.5,3.9c2.5,2.6,3.7,5.9,3.7,9.8
		C627.7,516.1,627.6,517,627.5,518z M624,514.7c-0.1-2.8-1.1-5.1-2.9-6.8c-1.8-1.7-4.1-2.6-6.8-2.6c-3,0-5.6,0.8-7.9,2.5
		c-2.3,1.7-3.9,4-4.8,6.9H624z"/>
	<path class="st0" d="M651,505.7l-2.1,3.1c-1.7-2.4-3.7-3.6-6-3.6c-1.3,0-2.4,0.4-3.4,1.3c-0.9,0.9-1.4,1.8-1.4,2.8
		c0,0.8,0.3,1.6,0.8,2.3c0.5,0.7,1.8,1.7,3.7,3c2.8,1.8,4.7,3.4,5.6,4.8c0.9,1.4,1.3,3,1.3,4.8c0,2.5-0.9,4.6-2.6,6.2
		c-1.7,1.6-4,2.5-6.8,2.5c-3.7,0-6.8-1.6-9.3-4.9l2.3-2.7c2.2,2.7,4.6,4,7.2,4c1.5,0,2.8-0.5,3.9-1.6c1.1-1,1.6-2.2,1.6-3.6
		c0-1.1-0.4-2.2-1.2-3.2c-0.5-0.7-1.9-1.8-4.3-3.3c-2.5-1.7-4.1-3.1-4.9-4.3c-0.8-1.1-1.2-2.4-1.2-3.8c0-2.2,0.8-4.1,2.5-5.6
		c1.7-1.5,3.8-2.3,6.3-2.3c1.5,0,2.8,0.3,4.1,0.9C648.5,503.1,649.8,504.2,651,505.7z"/>
	<path class="st0" d="M687.4,491.9l-0.5,3.6c-1.4-1.3-2.7-2-3.9-2c-0.8,0-1.5,0.4-2,1.1c-0.6,0.7-1,2.2-1.3,4.5l-0.4,3.2h6.2
		l-0.4,3.3h-6.3l-3.5,26.4h-3.7l3.6-26.4h-3.6l0.4-3.3h3.6l0.4-2.6c0.4-3.1,0.9-5.1,1.4-6.2c0.5-1,1.2-1.9,2.2-2.5
		c1-0.6,2.1-0.9,3.2-0.9C684.3,490.2,685.8,490.8,687.4,491.9z"/>
	<path class="st0" d="M690.4,502.4h3.8l-0.5,3.7c1-1.4,2.3-2.5,3.7-3.3c1.4-0.8,2.9-1.2,4.4-1.2c1.1,0,2.2,0.3,3.4,0.8l-1.8,3.5
		c-0.9-0.4-1.7-0.6-2.4-0.6c-1.3,0-2.6,0.5-3.9,1.4c-1.3,0.9-2.4,2.3-3.2,4.1c-0.8,1.8-1.5,4.7-2.1,8.8l-1.7,12.6h-3.7L690.4,502.4z
		"/>
	<path class="st0" d="M710.5,502.4h3.8l-1.8,12.4c-0.5,3.7-0.8,6-0.8,7c0,2.2,0.7,4,2.1,5.4c1.4,1.4,3.2,2.1,5.5,2.1
		c1.9,0,3.6-0.5,5-1.6c1.4-1.1,2.4-2.5,3-4.3c0.3-0.9,0.7-2.9,1.1-6.1l2-14.9h3.7l-1.4,11.3c-0.7,5.4-1.4,9.2-2.2,11.5
		c-0.8,2.3-2.1,4.1-4.1,5.6c-2,1.5-4.4,2.2-7.2,2.2c-3.2,0-5.9-1.1-7.9-3.2c-2.1-2.1-3.1-4.7-3.1-7.9c0-1.3,0.1-2.7,0.3-4.4l0.3-2.6
		l0.2-1.1L710.5,502.4z"/>
	<path class="st0" d="M742,502.4h3.6l-3.9,29.7H738L742,502.4z M745,490.2c0.8,0,1.6,0.3,2.2,0.9c0.6,0.6,0.9,1.3,0.9,2.2
		c0,0.9-0.3,1.6-0.9,2.2c-0.6,0.6-1.3,0.9-2.2,0.9c-0.9,0-1.6-0.3-2.2-0.9c-0.6-0.6-0.9-1.3-0.9-2.2c0-0.8,0.3-1.6,0.9-2.2
		C743.4,490.5,744.2,490.2,745,490.2z"/>
	<path class="st0" d="M758.7,491.3h3.7l-1.5,11.1h6l-0.4,3.3h-6l-3.5,26.4h-3.8l3.6-26.4h-5.1l0.5-3.3h5.1L758.7,491.3z"/>
	<path class="st0" d="M786.7,505.7l-2.1,3.1c-1.7-2.4-3.7-3.6-6-3.6c-1.3,0-2.4,0.4-3.4,1.3c-0.9,0.9-1.4,1.8-1.4,2.8
		c0,0.8,0.3,1.6,0.8,2.3c0.5,0.7,1.8,1.7,3.7,3c2.8,1.8,4.7,3.4,5.6,4.8c0.9,1.4,1.3,3,1.3,4.8c0,2.5-0.9,4.6-2.6,6.2
		c-1.7,1.6-4,2.5-6.8,2.5c-3.7,0-6.8-1.6-9.3-4.9l2.3-2.7c2.2,2.7,4.6,4,7.2,4c1.5,0,2.8-0.5,3.9-1.6c1.1-1,1.6-2.2,1.6-3.6
		c0-1.1-0.4-2.2-1.2-3.2c-0.5-0.7-1.9-1.8-4.3-3.3c-2.5-1.7-4.1-3.1-4.9-4.3c-0.8-1.1-1.2-2.4-1.2-3.8c0-2.2,0.8-4.1,2.5-5.6
		c1.7-1.5,3.8-2.3,6.3-2.3c1.5,0,2.8,0.3,4.1,0.9C784.3,503.1,785.5,504.2,786.7,505.7z"/>
	<path class="st0" d="M810.6,526.2c0.9,0,1.7,0.3,2.4,1c0.6,0.7,1,1.4,1,2.4c0,0.9-0.3,1.7-1,2.3c-0.6,0.7-1.4,1-2.4,1
		c-0.9,0-1.7-0.3-2.4-1c-0.6-0.7-1-1.4-1-2.3c0-0.9,0.3-1.7,1-2.4C808.9,526.6,809.6,526.2,810.6,526.2z M813.7,490.9h3.8l-4.2,31.2
		h-3.8L813.7,490.9z"/>
</g>
</svg>
