<svg id="06a2e43f-80de-4f11-8a96-d56f75682caa" data-name="Calque 1" xmlns="http://www.w3.org/2000/svg" viewBox="0 0 817.46 456.08"><defs><style>.\35 2a145e0-5a46-4642-9be1-dead16ef60cd{fill:#fff;}.\37 88fd0d8-8522-43b1-9843-1bb004c9d59e{fill:#364294;}</style></defs><title>cocotierlogo</title><path class="52a145e0-5a46-4642-9be1-dead16ef60cd" d="M446.59,138.24c.82-2.08,1.44-3.68,2.08-5.27,9.3-23.38,23.75-42.64,45.22-56.19,14.47-9.14,30.38-13.85,47.39-15.45,11.34-1.07,22.54-.25,33.75,1.11.23,0,.43.26,1.16.72-2,.48-3.54.88-5.12,1.24-18.53,4.22-35.94,11-51.24,22.5-15.63,11.75-26.12,26.89-29.91,46.29-.71,3.64-1,7.36-1.59,11.65l6.87-1.18c44.35-7.66,83,3.69,115.64,34.82,17.57,16.77,30,37.11,39.86,59.14,3.32,7.45,6.18,15.1,8.85,23a223.3,223.3,0,0,0-71.49-51.81,217.76,217.76,0,0,0-85.59-20c46.69,23.63,71.81,61.64,76.54,113.47-.69-1.09-1.4-2.17-2.09-3.27-14.76-23.71-32.39-44.88-54.89-61.7-11.71-8.74-24.39-15.68-38.46-19.87-1.16-.35-2.32-.68-3.49-1a10.45,10.45,0,0,0-1.49-.14,19.6,19.6,0,0,0-.53,2.55c-.1,1.07,0,2.15,0,3.23q0,119,0,238a58.42,58.42,0,0,0,.89,10.4c.93,5.08,4.45,8.36,9.36,8.69,8.69.6,17.44.33,26.16.41.24,0,.48-.23,1.18-.59V330.31H552.4c.08,6.14,0,12.27,0,18.4q0,9.48,0,19V479.14c3.41,1,25.58,1.2,30.77.4a8.67,8.67,0,0,0,0-2.22,94.7,94.7,0,0,1-2.77-23.56q-.23-34.49,0-69c.06-7.78.57-15.62,2.86-23.14,6-19.73,19.51-31.41,39.49-35.41A61.27,61.27,0,0,1,655,328.05c19.3,6.63,30.34,20.53,34.41,40.19a68.88,68.88,0,0,1,1.31,13.21c.16,15.73.07,31.46,0,47.19,0,1.32-.16,2.63-.28,4.33-1.94.1-3.64.26-5.33.26l-62.52,0c-1.7,0-3.41.18-5.28.29-.15,1.38-.34,2.42-.35,3.46,0,7.39-.06,14.79,0,22.18a26.35,26.35,0,0,0,.73,5.58,15.61,15.61,0,0,0,13.49,12.13,39.49,39.49,0,0,0,9.22,0c4.52-.53,8.13-2.79,10-7.13,1.18-2.69,2.08-5.51,3.09-8.28.32-.85.6-1.73.91-2.65H690.4c.94,7.22-1.13,13.89-2.64,21h31c.27-10.09.09-20,.12-29.88s0-19.9,0-29.85V330.32h36.52v18.1c2.09.48,2.75-1,3.75-1.68,6.06-4.21,11.93-8.73,18.17-12.63,7.24-4.52,15.52-5.78,23.9-6.32a16.2,16.2,0,0,1,2.41.1c.24,0,.46.23.93.49v37.55a26.69,26.69,0,0,1-2.71-.39c-19.6-4.86-44.29,7.29-46.15,34.32-.17,2.54-.16,5.1-.16,7.66q0,50.82,0,101.64c0,1.7-.16,3.41-.26,5.39h-4.77q-63.93,0-127.86,0c-25.13,0-50.27.27-75.4.28-21.37,0-42.74-.16-64.11-.33a45.16,45.16,0,0,1-18-3.71c-13-5.76-20.25-16-22.76-29.72a74.93,74.93,0,0,1-1-13.23q-.07-120.6,0-241.19v-5.9a21.44,21.44,0,0,0-3.51.28c-18.88,5-37.24,11.33-54.21,21.2-10.66,6.19-20.34,13.58-28,23.38a8.1,8.1,0,0,1-1.4.87c12.12-32.28,31.18-57.3,63.4-70.71-.09-.26-.17-.52-.26-.78-3.28-.46-6.54-1-9.83-1.34-19.82-1.81-39.68-3-59.58-2.36-26.38.86-52.52,3.48-78,11a158.29,158.29,0,0,0-29.86,11.91,3.58,3.58,0,0,1-1.91.46c22.14-21.54,48.05-37,77-47.4S374,153,405.45,154.63c-.7-1.84-1.13-3.16-1.7-4.41a93.26,93.26,0,0,0-12-19.08c-12.2-15.47-27-28-43.52-38.66-7.77-5-15.94-9.44-23.93-14.13A8,8,0,0,1,321.48,76c5.64.83,11.31,1.5,16.91,2.52,18.81,3.42,37.18,8.37,54.73,16.09a137.2,137.2,0,0,1,32.09,19.14,86.6,86.6,0,0,1,19.22,21.58C445,136.24,445.67,137,446.59,138.24Zm207.14,266a8.6,8.6,0,0,0,.45-1.74c-.15-8.31-.09-16.63-.58-24.92a16.12,16.12,0,0,0-7.36-12.82c-11.3-7.58-26.72-1.3-28.41,12.16-1.1,8.72-.47,17.65-.59,26.48,0,.22.27.44.54.84Z" transform="translate(-12.22 -60.84)"/><path class="52a145e0-5a46-4642-9be1-dead16ef60cd" d="M131.86,441.54c.94,15.95.59,31.66-8.33,45.89-9.29,14.84-22.09,24.91-39.44,28.22A64.88,64.88,0,0,1,41,509.54c-15.92-8.35-24.85-22.14-27.81-39.76a73.49,73.49,0,0,1-.94-12q-.09-73.19,0-146.39c0-13,3.62-25,11.48-35.4,10.18-13.5,24-20.61,40.71-22.6a63.72,63.72,0,0,1,29.39,3c18.94,6.79,30.28,20.8,35.71,39.72,1.61,5.61,2,11.61,2.49,17.48.4,4.92.08,9.91.08,14.77-3.18.91-28.62,1.2-36.46.46-.07-1.34-.13-2.75-.21-4.17-.24-4.82-.3-9.66-.81-14.45a24.19,24.19,0,0,0-4.81-11.39A20.55,20.55,0,0,0,76.31,290a28.06,28.06,0,0,0-15,1.48,14.67,14.67,0,0,0-8.14,7.44,41.38,41.38,0,0,0-4.07,15.49c-.16,2-.19,4-.19,6q0,65.94.07,131.87A50.88,50.88,0,0,0,50.6,465c3,11.47,11.33,16.39,24.17,14.71s20-10.16,20.54-23.37c.16-3.63.09-7.26.11-10.89,0-1.32,0-2.65,0-3.86C99,440.55,128.51,440.55,131.86,441.54Z" transform="translate(-12.22 -60.84)"/><path class="52a145e0-5a46-4642-9be1-dead16ef60cd" d="M261.44,370.88c1.69.45,3,.69,4.26,1.15,2.06.76,2.48,2,1.05,3.62a8.48,8.48,0,0,1-3.76,2.87c-2.85.73-3.6,2.64-4.37,5.09a95,95,0,0,1-20.48,36.16c-5.21,5.71-11.07,10.63-18.3,13.6-11.13,4.57-21.63,3.18-31.07-4.2-9.8-7.66-14-18.07-13.74-30.38a59,59,0,0,1,2.6-16.26c4.76-15.42,12.45-29.11,24.1-40.4,7-6.78,15.08-11.64,24.84-13.23,8.43-1.36,15.72.45,21.14,7.61a40.32,40.32,0,0,0,5.37,6c7.49,6.57,9.34,15,8.6,24.46C261.59,368.16,261.54,369.35,261.44,370.88Zm-40-16.92c-1.62,1.63-2.78,2.69-3.82,3.86a91.07,91.07,0,0,0-21.69,44.3,51.8,51.8,0,0,0-.69,14c.52,6.24,5,8.64,10.65,5.87a29.87,29.87,0,0,0,7.81-5.56c10.75-10.72,17.68-23.87,23.46-37.72.85-2.06.36-3.4-1.56-4.71a31.72,31.72,0,0,1-12-14.31C222.92,358.1,222.36,356.47,221.41,354Zm20.05,11.89c.72-.87,1.35-1.31,1.48-1.85,1.07-4.54,2.13-9.09,3-13.67a5.1,5.1,0,0,0-.66-3.47,7.07,7.07,0,0,0-3.23-2.57,2.91,2.91,0,0,0-3.55,1.95c-.66,1.57-1.43,3.36-1.25,5a87.75,87.75,0,0,0,2.17,11C239.7,363.36,240.63,364.41,241.46,365.85Z" transform="translate(-12.22 -60.84)"/><path class="52a145e0-5a46-4642-9be1-dead16ef60cd" d="M408,370.9c1.58.44,2.77.67,3.89,1.1,2,.75,2.51,2.15,1.16,3.67a9.7,9.7,0,0,1-4.14,3c-2.34.67-3.11,2.13-3.73,4.18a96.34,96.34,0,0,1-18.84,34.8,64.48,64.48,0,0,1-14.09,12.53c-22.21,14.42-45.82-.51-50.14-22.11-2-9.93-.34-19.51,2.92-28.88,5.3-15.21,13.33-28.69,25.59-39.39a44.37,44.37,0,0,1,22.09-10.88c8.58-1.43,15.92.43,21.46,7.7a78,78,0,0,0,7,7.75,23.16,23.16,0,0,1,6.79,16.7C408,364.29,408,367.5,408,370.9Zm-40.63-16.26a13.2,13.2,0,0,0-1.8,1.4,91.45,91.45,0,0,0-24.35,52.73,27.44,27.44,0,0,0,.72,9.14c1,4.39,4.34,6.18,8.59,4.74a18.25,18.25,0,0,0,6.27-3.46,78.18,78.18,0,0,0,9.47-9.79c6.73-8.6,11.85-18.18,16.21-28.16.73-1.69,1.21-3.48,1.67-4.82-3.65-3.52-7.34-6.33-10.07-9.89S369.61,358.74,367.35,354.64Zm21.07,11.18a37.9,37.9,0,0,0,3.79-16.32,7.1,7.1,0,0,0-1-3.4,3.49,3.49,0,0,0-6.22-.16,7.73,7.73,0,0,0-1.27,4.11,54.71,54.71,0,0,0,1,9.12C385.16,361.44,385.79,363.82,388.42,365.82Z" transform="translate(-12.22 -60.84)"/><path class="52a145e0-5a46-4642-9be1-dead16ef60cd" d="M298.43,419.94a9.13,9.13,0,0,0-2.57.63,15.73,15.73,0,0,0-3.18,2.46c-9.57,9.59-16.66,20.67-19.87,34a26.64,26.64,0,0,0-.43,12.37c1.55,6.76,5.59,9.34,12.37,7.86s12.4-5.18,17.12-10.05c4-4.13,7.47-8.77,11.16-13.21,1-1.21,1.71-3.14,3.65-2.52s1.72,2.49,1.82,4.12a13.51,13.51,0,0,1-2.56,8.74c-9.67,13.64-22.82,20.84-39.62,19.27-13.21-1.24-19.64-10.52-20.21-21.76a38.43,38.43,0,0,1,1.48-12.71c4-13.34,11.18-24.64,22.79-32.74,4.37-3.05,9.12-5,14.63-4.86,11.44.35,19.75,11.9,15.87,22.56-1.92,5.28-4.43,10.36-6.77,15.48-1,2.1-2.37,2.5-4.64,1.63-4.42-1.68-7.75-6.95-6.67-11.68,1-4.27,2.78-8.36,4.24-12.53.73-2.1,1.51-4.18,2.26-6.26Z" transform="translate(-12.22 -60.84)"/><path class="788fd0d8-8522-43b1-9843-1bb004c9d59e" d="M305.59,510.65a122.11,122.11,0,0,1-47.44-8.35c-1-.4-2-.8-2.95-1.28-2.56-1.28-3.51-2.89-3-5a5.62,5.62,0,0,1,5.09-4.43,9.9,9.9,0,0,1,3.87.81c17.72,7.61,36.37,9.52,55.25,7.77,33.78-3.11,64.22-15.35,91.37-35.71a22.68,22.68,0,0,1,4.7-3c3.35-1.37,7.5,1.94,6.79,5.43a6.62,6.62,0,0,1-2.37,3.5c-4,3.12-8.13,6.19-12.38,9a192.44,192.44,0,0,1-68.73,28.41A137.44,137.44,0,0,1,305.59,510.65Z" transform="translate(-12.22 -60.84)"/><path class="788fd0d8-8522-43b1-9843-1bb004c9d59e" d="M420,295.09c0,5.33-3.9,8.27-8.79,6.29a96.26,96.26,0,0,0-28-6.94c-21.92-1.83-42.4,2.73-60.91,15-2.13,1.41-4.13,3-6.27,4.39a7.44,7.44,0,0,1-9-.28c-3.5-2.52-4-7.45.05-10.5a122.5,122.5,0,0,1,32.14-17.26c14.8-5.24,30.08-6.68,45.58-5.47a98,98,0,0,1,29.56,7.22C418.16,289.1,419.94,291.59,420,295.09Z" transform="translate(-12.22 -60.84)"/><path class="52a145e0-5a46-4642-9be1-dead16ef60cd" d="M793.47,478h36.2v35.9c-2.77.84-31,1.06-36.2.23Z" transform="translate(-12.22 -60.84)"/><path class="788fd0d8-8522-43b1-9843-1bb004c9d59e" d="M192.71,306.55a59.57,59.57,0,0,1,22.66,5c2.71,1.18,3.43,2.58,3,5a5.18,5.18,0,0,1-5,4.35,18.87,18.87,0,0,1-4.28-.85c-3.1-.79-6.15-1.88-9.3-2.43-12.78-2.28-24.1,1.44-34.43,8.84-1.09.78-2.08,1.72-3.22,2.41a5.27,5.27,0,0,1-7.15-1.41c-1.75-2.27-1.55-4.56,1-6.71a56.17,56.17,0,0,1,27.62-13.14C186.58,307.12,189.65,306.9,192.71,306.55Z" transform="translate(-12.22 -60.84)"/></svg>