<?xml version="1.0" encoding="utf-8"?>
<!-- Generator: Adobe Illustrator 22.1.0, SVG Export Plug-In . SVG Version: 6.00 Build 0)  -->
<svg version="1.1" id="_x39_fd2b8a1-8ac7-4552-b194-f6069346332e"
	 xmlns="http://www.w3.org/2000/svg" xmlns:xlink="http://www.w3.org/1999/xlink" x="0px" y="0px" viewBox="0 0 763 242.3"
	 style="enable-background:new 0 0 763 242.3;" xml:space="preserve">
<style type="text/css">
	.st0{fill:#374494;stroke:#374494;stroke-width:2;stroke-miterlimit:10;}
	.st1{fill:#E9474F;stroke:#E9474F;stroke-width:3;stroke-miterlimit:10;}
	.st2{fill:#374494;}
</style>
<title>logo1</title>
<path class="st0" d="M763,129c-0.3,0.6-0.5,1.2-0.7,1.8c-0.9,7.1-1.8,14.2-2.7,21.2c-0.2,1.5-0.4,2.9-0.6,4.5h-3.2
	c1.3-9.9,2.7-19.6,4-29.5l3.2-0.3L763,129z"/>
<path class="st0" d="M112.9,95.7l3.6,0.6c3.1,0.5,3.9,2.4,1.7,4.6c-1.4,1.4-3.1,2.4-4.9,3.1c-1.4,0.4-2.5,1.6-2.8,3
	c-3.2,11.2-8.3,21.8-15.2,31.3c-4.9,7.2-11.1,13.4-18.2,18.4c-4.5,3.3-9.7,5.5-15.2,6.5c-10.1,1.7-19-1-26.7-7.6
	c-8.5-7.3-12.8-16.8-13.2-28c-0.2-8.6,1.3-17.1,4.4-25.1C31.7,88.6,39.1,76,49.8,65.6C56.4,59.1,64,54.2,73.2,52c3.9-1,8-1.2,12-0.8
	c5.3,0.6,9.4,3.5,12.8,7.5c2.4,2.9,4.9,5.7,7.6,8.4c4.9,4.7,7.6,11.2,7.7,17.9c0.1,2.6-0.1,5.3-0.2,7.9
	C113,93.8,113,94.6,112.9,95.7z M70.7,78.1c-1.6,1.6-2.9,2.9-4.1,4.2C56.6,93.6,50,106.6,45.9,121c-1.8,6.6-3.2,13.2-2.6,20
	c0.2,2,0.6,3.9,1.4,5.7c0.9,2.2,3.1,3.5,5.4,3.3c2.2-0.1,4.3-0.7,6.1-1.8c3.4-2,6.5-4.6,9-7.6c9.6-11,16.6-23.6,22-37.2
	c0.3-0.8,0.5-1.7,0.7-2.6C74.3,89.7,75.7,89.7,70.7,78.1z M92,90.4c0.3-0.4,0.6-0.7,0.9-1.1c2.2-4.9,3.4-10.2,3.5-15.5
	c0-1.4-0.3-2.8-1-4c-1.5-2.8-4.5-2.9-6.4-0.4c-1.2,1.6-1.7,3.6-1.6,5.6c0.1,3.9,0.9,7.8,2.3,11.5C90.5,87.8,91.2,89.1,92,90.4
	L92,90.4z"/>
<path class="st0" d="M266.4,95.8c1.4,0.2,2.6,0.3,3.8,0.6c2.6,0.5,3.2,2.2,1.7,4.3c-1.1,1.6-2.8,2.8-4.8,3.3c-2,0.4-2.8,1.7-3.4,3.6
	c-3.7,12.7-9.8,24.5-18,34.8c-4.4,5.7-9.6,10.7-15.5,14.7c-5,3.3-10.3,5.8-16.3,6.5c-7.3,1-14.6-0.7-20.8-4.7
	c-10-6.4-15.7-15.7-17.3-27.5c-1.4-10.3,0.8-20,4.4-29.6c5-13.5,12.2-25.6,22.5-35.8c6.8-6.7,14.6-11.8,24-14.1
	c4.1-1,8.4-1.2,12.6-0.6c4.2,0.7,8.1,2.8,10.8,6.1c3.5,3.8,6.9,7.7,10.4,11.5c3.7,4.1,5.8,9.4,5.9,14.9
	C266.5,87.7,266.4,91.6,266.4,95.8z M224.4,78.5c-0.6,0.2-0.9,0.2-1.1,0.4c-1,1-2.1,1.9-3,3c-13.1,14.7-21.4,33.1-23.8,52.6
	c-0.6,3.7-0.3,7.6,0.9,11.1c1.2,3.3,3.1,4.6,6.6,4.4c2.5-0.2,5-1.2,7-2.8c4.2-2.9,7.8-6.5,10.8-10.6c7.2-9.5,13.2-19.9,17.8-31
	c0.6-1.5,1.1-3.1,1.5-4.4c-3.7-3.5-7.3-6.7-10.5-10.1S225.8,83.1,224.4,78.5L224.4,78.5z M245.3,90.1c0.4-0.3,0.7-0.4,0.7-0.5
	c2.4-5.2,3.7-10.9,3.7-16.6c0-1.2-0.4-2.4-1-3.4c-1.5-2.6-4.5-2.7-6.2-0.3c-0.7,1-1.2,2.1-1.4,3.3c-0.6,5.5,0.5,11.1,3.1,16
	C244.5,89.2,244.9,89.6,245.3,90.1z"/>
<path class="st0" d="M152,146.6c-1,0.2-2,0.6-3,1c-1.3,0.8-2.5,1.7-3.5,2.8c-9.9,9.9-17.2,21.4-20.5,35.1c-1.3,4.6-1.4,9.4-0.3,14
	c0.4,1.5,1.1,3,1.9,4.4c1.7,2.7,4.4,3.7,7.5,3.5c5-0.5,9.8-2.2,13.8-5.1c4.9-3.3,9.3-7.4,13-12c2.2-2.7,4.2-5.5,6.3-8.3
	c0.9-1.2,1.8-2.8,3.5-2.2s1.9,2.2,2,3.7c0.3,3.7-0.7,7.4-2.8,10.4c-5.1,7.8-12.2,13.2-20.7,16.9c-5.9,2.7-12.4,3.9-18.9,3.4
	c-13.5-1-21.2-9.3-22.9-20.2c-0.9-5.4-0.5-10.9,1.2-16.2c3.5-12.2,10.4-23.1,20-31.5c3.9-3.5,8.6-6.1,13.7-7.6
	c4.5-1.5,9.5-0.8,13.5,1.8c2.3,1.6,4.5,3.3,6.5,5.3c3.9,3.8,4.6,8.5,3.3,13.5c-0.8,2.7-1.8,5.3-2.9,7.9c-1.5,3.5-3.1,7-4.7,10.6
	c-1.2,2.7-2.6,3.3-5.4,2.1c-5.3-2.1-8.2-7.8-6.9-13.4c1.1-4.1,2.8-8,4.3-11.9c0.6-1.5,1.3-2.9,1.8-4.4
	C152,148.9,152,147.8,152,146.6z"/>
<path class="st0" d="M156.6,242.3c-16.7,0-33.2-3.3-48.6-9.5c-1-0.4-1.9-0.8-2.8-1.3c-2.1-1.1-3-3.7-2-5.8c1.1-3.2,4.6-4.8,7.8-3.6
	c0.2,0.1,0.4,0.1,0.6,0.2c5.5,2.4,11.2,4.3,17.1,5.7c13.3,3.1,27,4.1,40.6,2.9c23.7-1.9,46-8.7,67.3-19.1
	c11.2-5.5,21.7-12.1,31.4-19.8c1.4-1.3,3.2-2,5.1-1.9c2.3,0.2,4.3,1.7,5.2,3.8c0.7,2.1,0.1,4-2,5.7c-8.5,6.8-17.6,12.9-27.2,18.1
	c-18.7,10.4-38.9,17.7-59.8,21.7C178.5,241.4,167.6,242.4,156.6,242.3z"/>
<path class="st0" d="M231.3,0c14.3,0,28.5,2.8,41.8,8.2c4.6,1.8,6.3,4.7,5.8,9.4s-4.3,7.2-8.7,5.5c-7-2.8-14.2-4.9-21.6-6.3
	c-9.3-1.6-18.7-2-28.1-1.1c-14.1,1.3-27.7,5.8-39.8,13c-3.6,2.1-6.9,4.5-10.3,7c-3.2,2.4-7.7,2.1-10.6-0.6
	c-3.5-3.1-3.5-7.2,0.2-10.1c16.4-12.8,35.8-21,56.4-23.9C221.4,0.4,226.4,0.3,231.3,0z"/>
<path class="st0" d="M37.9,28.2c9-0.3,17.9,1.4,26.1,4.8c3.6,1.5,4.7,3.5,3.6,6.4c-1.1,3.2-4.5,4.9-7.7,3.8c0,0,0,0,0,0
	c-2.5-0.8-4.9-1.9-7.4-2.5c-15.3-3.8-29-0.2-41.3,9.2c-0.8,0.7-1.8,1.4-2.7,2c-2.9,1.4-6.5,0.2-7.9-2.7c-0.1-0.2-0.2-0.5-0.3-0.7
	c-0.6-2,0.1-4.3,1.9-5.5C9.5,36.5,18.4,32,27.9,29.8C31.2,29,34.6,28.7,37.9,28.2z"/>
<path class="st1" d="M745.6,100.9c-0.1-1.3-0.2-2.4-0.2-3.5c-0.1-4.2-0.1-8.5-0.2-12.7c0-0.6,0-1.1-0.1-1.7c-0.4-2.8-1.7-4.5-3.9-5
	c-2.4-0.4-4.8,0.7-6.1,2.7c-1.1,1.9-1.6,4-1.5,6.2c-0.1,3.7,0,7.3,0,11c0,0.9-0.1,1.8-0.1,2.9h-6.2c-0.1-0.9-0.2-1.8-0.2-2.7
	c0-3.6,0-7.1,0-10.7c0-1.7-0.2-3.3-0.5-5c-0.2-2-1.7-3.7-3.6-4.2c-2-0.6-4.1,0.1-5.4,1.6c-0.9,1.1-1.6,2.3-1.9,3.7
	c-0.4,1.8-0.6,3.7-0.6,5.6c-0.1,3.9,0,7.7,0,11.6c-2.2,0.7-4.2,0.5-6.4,0.2V72.6h6c0.3,1,0.5,1.8,0.7,2.9c0.9-0.6,1.5-1,2.2-1.4
	c1.7-1.2,3.7-1.9,5.7-2c3.6-0.3,6.5,0.8,8.6,3.8c0.2,0.3,0.5,0.5,0.9,1c0.7-0.6,1.4-1.2,2-1.9c3.5-3.5,9.7-3.5,12.6-1.9
	c2.2,1.1,3.8,3.2,4.2,5.7c0.3,1.6,0.5,3.2,0.5,4.8c0.1,5,0,10,0,14.9c0,0.7-0.1,1.5-0.2,2.4L745.6,100.9z"/>
<path class="st2" d="M322,121.3V67.7c0-0.8,0-1.7,0.1-2.5c0.2-1.3,1.3-2.2,2.6-2.1c1.3-0.1,2.4,0.8,2.6,2.1c0.1,0.7,0.1,1.3,0.1,2
	c0,36.2,0,72.5,0,108.7c0,2.9-0.8,4-2.9,3.9s-2.6-1-2.6-3.9V121.3z"/>
<path class="st1" d="M686.9,101.7c-7.3,0.6-14.8-6.3-14.8-14.8c0-9,8.1-15.2,14.8-14.9c8.4,0.4,15,6.5,15,14.8
	c0.2,8.1-6.2,14.8-14.3,15C687.4,101.7,687.2,101.7,686.9,101.7z M678.8,86.8c0,5,3.6,9,8.2,8.8c5.3-0.3,8.1-4.1,8.2-8.6
	c0-4.9-2.9-8.6-8.2-8.8C682.3,78.1,678.8,82,678.8,86.8L678.8,86.8z"/>
<path class="st0" d="M405.5,96.1l5.9,6.4c-2.6,0.6-4.5,0.4-6-1.7c-0.8-1-1.7-1.9-2.6-2.8c-0.9,0.5-1.8,0.9-2.6,1.3
	c-5.6,2.9-12,3.6-18,1.7c-6.5-2-11.1-7.8-11.6-14.5c-1.2-12.7,6.6-21.9,16.8-24.5c4.2-1.2,8.6-1.1,12.8,0.3
	c6.6,2.2,11.2,8.2,11.7,15.2c0.6,6.2-1.3,12.3-5.5,17c-0.2,0.3-0.5,0.6-0.7,0.9C405.6,95.7,405.5,95.9,405.5,96.1z M394.1,88.7
	c3.1-0.8,5,0.1,6.5,2.2c0.6,0.7,1.3,1.3,2,1.9c0.3-0.2,0.6-0.3,0.9-0.6c0.3-0.3,0.6-0.7,0.9-1.1c2.7-3.6,4.1-7.9,4-12.4
	c0-6.8-4.8-12.6-11.5-13.8c-10.4-2.1-20.5,4.5-22.6,14.9c-0.1,0.3-0.1,0.6-0.2,0.9c-1.8,9.8,4.2,17.5,14.1,17.9
	c4.2,0.3,8.4-1,11.8-3.5L394.1,88.7z"/>
<path class="st1" d="M661.2,92.9c0.3,0.2,0.7,0.4,1,0.6c1.2,0.8,2.3,1.6,3.6,2.5c-2.1,3.1-5.5,5.1-9.2,5.5c-2.7,0.3-5.4,0.2-8.1-0.3
	c-5.7-1.1-9.2-4.9-10.7-10.4s0-10.6,4.2-14.7c5.7-5.6,17.5-5.6,23,0.5c0.4,0.5,0.8,1,1.1,1.6c-1.6,0.9-3,1.7-4.5,2.5
	c-1.1,0.6-1.7-0.3-2.5-0.8c-2.3-1.6-5.2-2.2-8-1.5c-5.1,1.3-7.9,5.4-6.9,10.5c1,5.6,6.8,7.5,10.5,6.6
	C656.9,94.8,659.1,93.9,661.2,92.9z"/>
<path class="st0" d="M548.4,77.8c0.8-5.7,1.6-11,2.3-16.3h2.8c0.6,2.2-2.2,25.1-4.9,39.5l-2.8,0.2c-0.1-1.3-0.2-2.5-0.3-3.9
	c-1.1,0.8-1.9,1.3-2.7,1.9c-3.5,2.5-7.9,3.4-12.1,2.3c-6.1-1.3-9.9-6.8-9.8-13.4c0.2-8.6,7.7-17.6,18.8-16c2.4,0.3,4.7,1.5,6.4,3.4
	L548.4,77.8z M537.3,75c-6.7-0.4-13.8,6-12.9,14.6c0.6,5.9,5,9.6,11,9.2c6.6-0.4,11.1-4.7,12.3-11.5C548.8,81,544.6,74.7,537.3,75
	L537.3,75z"/>
<path class="st0" d="M374.9,161.5c-1.9,5.2-1.8,10.3-3.1,15.3h-3.1c1.5-12.9,3.4-25.6,5.1-38.5h3.2v3.5c0.8-0.5,1.4-0.9,2-1.3
	c3.4-2.7,7.9-3.8,12.2-3c5,0.9,9,4.8,10.1,9.8c1.9,9-3.9,17.8-13,19.7c-0.1,0-0.2,0-0.3,0.1c-4.7,0.9-9-0.2-12.2-4.1
	C375.5,162.5,375.2,162,374.9,161.5z M374.9,153.6c0,6.2,4.1,10.5,10.4,10.5c7.3,0,13-5.9,13.1-13.4s-6.3-11.4-12.4-10.4
	C379.4,141.4,374.7,147.1,374.9,153.6L374.9,153.6z"/>
<path class="st0" d="M611.9,101h-3.1v-3.8l-3,2.1c-5.8,4-15.7,3.6-19.8-3.7c-2.8-5-2.5-10.2,0.2-15.1c3.2-6.2,9.9-9.6,16.8-8.4
	c2.5,0.3,4.9,1.6,6.6,3.5c0.5,0.6,1.1,1.2,1.9,2c0.4-1.8,0.7-3.3,1-4.8h3.1C614.7,82.2,613.2,91.4,611.9,101z M600.6,75
	c-6.5-0.4-13.5,5.4-13.2,13.8c0.2,6.4,5,10.5,11.5,9.9c6.7-0.6,11.1-5.1,11.9-12.1S606.6,74.7,600.6,75L600.6,75z"/>
<path class="st0" d="M478.3,101.1h-3c0-1.1-0.1-2.2-0.2-3.8c-0.9,0.7-1.6,1.2-2.3,1.7c-3.5,2.6-8,3.6-12.3,2.6
	c-6-1.2-9.8-6.5-9.9-13C450.5,79.5,457.9,72,467,72c0.9,0,1.7,0.1,2.6,0.2c2.4,0.3,4.5,1.5,6.1,3.2l2.2,2.4c0.4-1.9,0.7-3.3,1-4.9
	h3.3C480.8,82.2,479.6,91.5,478.3,101.1z M453.9,88.4c0,6.3,4.1,10.5,10.3,10.5c7.3,0,13.2-6,13.2-13.3c0-1.1-0.1-2.2-0.4-3.2
	c-1-4.2-4.6-7.2-8.9-7.4c-7.2-0.6-13.6,4.7-14.2,12C453.9,87.4,453.8,87.9,453.9,88.4L453.9,88.4z"/>
<path class="st0" d="M578.3,152.7h-25.3c-0.9,4,0.8,8,4.3,10.1c4.4,2.6,10.2,1.5,15.5-3.1l2.3,1.8c-2.7,3.4-6.8,5.5-11.2,5.6
	c-10,0.7-16.5-7.1-14.3-16.9c1.8-8.5,9.9-14.1,18.5-12.8c5.6,0.9,9.8,5.5,10.2,11.2C578.3,149.8,578.3,151,578.3,152.7z
	 M553.7,149.7h21.2c0.3-3.5-1.6-6.9-4.8-8.4c-6.1-3-14.8,1-16.6,7.7C553.5,149.2,553.6,149.4,553.7,149.7L553.7,149.7z"/>
<path class="st0" d="M506.3,152.7h-25c-0.9,6,2.9,10.9,8.5,11.4c4.3,0.4,8.5-1.2,11.3-4.4l2.5,1.8c-0.7,0.8-1.5,1.6-2.2,2.2
	c-4.4,3.5-10.2,4.5-15.5,2.7c-4.3-1.4-6.7-4.8-7.8-9c-2.4-9.1,4.1-18.5,13.4-20c8.2-1.4,13.4,3.6,14.7,8.4
	C506.9,148.1,507,150.5,506.3,152.7z M503.4,149.7c0.2-2.9-1.1-5.7-3.5-7.4c-2.7-2.1-5.7-2.2-8.8-1.6c-4.6,0.9-8.2,4.4-9.2,9H503.4z
	"/>
<path class="st0" d="M436.5,150.9c0.2,8.8-6.8,16.2-15.6,16.4c-0.7,0-1.3,0-2-0.1c-7.1-0.5-12-6.2-11.9-13.6
	c0.2-9.1,6.8-16.3,15.9-16.5C432.4,137,436.8,144.3,436.5,150.9z M410.4,153.5c0,6.5,4.3,10.8,10.8,10.6
	c9.8-0.3,13.9-10.5,11.6-17.1c-1.4-4.1-5.4-6.8-9.8-6.7C415.9,140.5,410.2,146.4,410.4,153.5L410.4,153.5z"/>
<path class="st0" d="M491.1,72.8h2.8c0.1,1.2,0.2,2.3,0.3,3.7c0.8-0.7,1.3-1,1.8-1.5c2.6-2.3,6-3.4,9.4-3.1c4.6,0.3,8.2,3.6,8.5,8.2
	c0,2.9-0.1,5.8-0.5,8.7c-0.4,3.6-0.9,7.1-1.4,10.6c-0.1,0.4-0.2,0.9-0.4,1.5h-3c0.3-2.2,0.5-4.2,0.7-6.2c0.5-3.4,1-6.7,1.4-10.1
	c0.1-1.1,0.2-2.3,0.1-3.4c0-3.7-3-6.6-6.7-6.6c-0.3,0-0.6,0-0.9,0.1c-4.6,0.6-8,2.9-9.4,7.4c-0.8,2.9-1.4,5.8-1.8,8.8
	c-0.5,3.2-0.9,6.5-1.3,9.9h-3.1C488.4,91.4,489.8,82.1,491.1,72.8z"/>
<path class="st0" d="M422.6,72.6l3.2,0.2c-0.2,2.1-0.5,4-0.7,6c-0.5,3.2-1,6.3-1.4,9.5c-0.1,0.9-0.2,1.9-0.2,2.8
	c-0.1,3.2,1.1,5.8,4.1,7c2.9,1.4,6.3,0.9,8.7-1.2c1.8-1.6,2.9-3.8,3.1-6.1c0.5-3,0.8-6,1.2-8.9s0.8-5.9,1.3-9l2.7-0.1
	c0.8,2.1,0,4-0.3,5.9c-0.6,4.7-1.4,9.5-2.2,14.2c-1,5.5-5.5,10.2-13.7,8.9c-4.5-0.8-7.9-4.7-8-9.3c0-2.7,0.2-5.4,0.5-8.1
	C421.4,80.4,422,76.7,422.6,72.6z"/>
<path class="st0" d="M678.9,138.2l2.7-0.1c0,0.7,0,1.3,0,2c-0.8,5.6-1.5,11.2-2.4,16.7c-0.2,1.3-0.6,2.6-1.1,3.8
	c-2.6,5.7-9.4,8.3-15.1,5.7c-0.4-0.2-0.9-0.4-1.3-0.7c-3.7-2.4-5-6-4.7-10.2c0.3-3.5,0.8-6.9,1.3-10.4c0.3-2.2,0.7-4.4,1-6.8l3-0.2
	c-0.1,1.4,0,2.5-0.2,3.7c-0.6,4.5-1.3,8.9-1.9,13.4s1.5,7.7,5.3,8.8c4,1.1,8.2-1,9.7-4.8c0.6-1.9,1.1-3.8,1.3-5.8
	c0.7-4.6,1.2-9.1,1.8-13.7C678.6,139.1,678.8,138.6,678.9,138.2z"/>
<path class="st0" d="M544.4,141.1l-1.5,2.3c-0.8-0.6-1.5-1.2-2.2-1.7c-2.2-1.6-4.6-1.8-6.6-0.4c-2.3,1.5-2.7,4-0.8,6
	c0.8,0.8,1.7,1.5,2.6,2.1c1.2,0.9,2.5,1.7,3.7,2.6c3.6,2.9,4.7,7.1,2.9,10.8c-1.8,3.5-6.2,5.3-10.4,4.3c-2.6-0.6-4.9-2.1-6.4-4.3
	l1.7-2.2c1.1,0.9,2,1.7,3,2.3c2.3,1.4,4.7,1.9,7.2,0.4c2.3-1.3,3.2-4.2,1.9-6.5c-0.2-0.4-0.6-0.9-0.9-1.2c-1.1-1-2.3-1.9-3.5-2.8
	c-1.4-1-2.7-2-4-3.1c-3.2-3-2.9-7.5,0.4-10.4c3.9-3.1,9.5-2.4,12.5,1.4C544.2,140.7,544.3,140.9,544.4,141.1z"/>
<path class="st0" d="M714.4,162.7l1.8-2.1c1,0.8,1.8,1.5,2.7,2.1c2.1,1.3,4.2,2,6.7,0.9c3.6-1.6,4.3-5.6,1.5-8.3
	c-1.1-1-2.3-1.9-3.6-2.8c-1.3-0.9-2.6-1.9-3.8-3c-2.8-2.5-3-6.8-0.5-9.6c0.3-0.4,0.7-0.7,1.1-1c3.4-2.6,9.7-2.5,12.6,2.1
	c-0.4,0.7-0.9,1.4-1.5,2.4c-0.9-0.7-1.5-1.3-2.3-1.9c-2-1.6-4.8-1.7-6.8-0.1c-2,1.6-2.2,3.8-0.5,5.7c1,0.9,2,1.7,3.1,2.5
	c1.1,0.9,2.3,1.6,3.4,2.5c3.5,2.9,4.5,7,2.8,10.6s-6.1,5.4-10.4,4.4C718.2,166.4,715.9,164.9,714.4,162.7z"/>
<path class="st0" d="M600.9,141.1c-0.5,0.7-1,1.4-1.5,2.3c-0.8-0.6-1.5-1.3-2.2-1.8c-2-1.4-4.1-1.8-6.3-0.5
	c-2.5,1.5-2.8,4.1-0.8,6.2c0.8,0.8,1.7,1.5,2.6,2.1c1.1,0.8,2.3,1.6,3.5,2.4c3.3,2.5,4.7,5.6,3.2,10.2c-1.2,3.6-5,5.5-9.4,5.1
	c-3.1-0.3-5.8-2-7.5-4.6c0.2-0.3,0.3-0.6,0.5-0.9s0.5-0.8,0.9-1.3c0.9,0.7,1.5,1.2,2.2,1.7c1.4,1.3,3.3,2,5.2,2
	c2.2,0,4.3-1.3,5.1-3.4c0.9-1.9,0.3-4-1.5-5.6c-1.1-1-2.4-1.8-3.6-2.7c-1.3-0.9-2.5-1.9-3.7-3c-2.7-2.5-2.7-6.8-0.2-9.4
	c0.1-0.1,0.1-0.1,0.2-0.2C590.6,136.3,597.7,136.1,600.9,141.1z"/>
<path class="st0" d="M621.5,166.1c1.1-8.4,2.2-16.6,3.3-25l-3.2-0.6c0.1-0.8,0.1-1.4,0.2-2.2l3.3-0.5c0.5-2.4,0.8-4.8,1.4-7.1
	c0.6-3.1,3.6-5.1,6.7-4.5c0.3,0.1,0.6,0.1,0.9,0.2c2.1,0.6,2.5,1.3,1.7,3.9c-0.6-0.3-1.2-0.6-1.7-0.8c-2.2-0.9-3.7-0.3-4.4,2
	c-0.5,2.1-0.9,4.2-1.3,6.3l6,0.5c-0.1,0.9-0.2,1.6-0.3,2.5c-1.4,0-2.7,0-4,0c-1-0.2-2,0.5-2.2,1.5c0,0.1,0,0.3,0,0.4
	c-0.7,5.5-1.5,11-2.2,16.5c-0.2,1.7-0.4,3.4-0.6,5C624.7,166.5,624.5,166.6,621.5,166.1z"/>
<path class="st0" d="M465.1,166.3h-3.1c1.1-8.5,2.2-16.7,3.3-25.2l-4.8-0.6l0.4-2.3l4.7-0.3c0.5-3.4,1.1-6.9,1.7-10.5h3
	c-0.4,3.5-0.8,6.8-1.2,10.5l5.5,0.3l-0.2,2.5l-5.6,0.3C467.1,149.3,466.5,157.8,465.1,166.3z"/>
<path class="st0" d="M704.3,141l-4.7-0.4c0.1-0.8,0.2-1.6,0.2-2.4l4.8-0.4c0.5-3.4,1-6.8,1.6-10.4h3c-0.4,3.5-0.8,6.8-1.2,10.4
	l5.6,0.5l-0.3,2.4l-5.7,0.3c-1.2,8.5-2.3,16.9-3.5,25.4h-3.2C702.1,157.9,703.2,149.6,704.3,141z"/>
<path class="st0" d="M444.7,138.2l2.9-0.1l0.5,2.7c3.1-2.4,6.1-4.7,10.5-2.8l-1.3,2.6c-5.8-0.2-8.7,1.8-10.1,7.4
	c-1,3.9-1.5,7.9-2.1,11.9c-0.2,1.5-0.4,3-0.6,4.5c-0.3,2.3-0.5,2.4-3.5,1.7C442.1,156.8,443.4,147.6,444.7,138.2z"/>
<path class="st0" d="M639.1,166.3c-0.5,0.1-1,0.2-1.5,0.2c-0.5-0.1-1.1-0.2-1.6-0.3c1.3-9.4,2.5-18.6,3.8-28h3.2
	c0,0.8,0.1,1.5,0.1,2.3c0.3,0,0.6,0,0.8-0.1c1.4-1.4,3.1-2.4,5-2.9c1.6-0.4,3.2-0.2,4.7,0.6l-1.2,2.6c-5.1-0.4-8.4,1-10.2,7.4
	c-1.3,4.7-1.7,9.6-2.5,14.4C639.6,163.7,639.3,164.9,639.1,166.3z"/>
<path class="st0" d="M575.3,101.2l-3.2-0.2c1.8-13.2,3.5-26.2,5.3-39.4l3.2-0.2C579,74.7,577.1,87.8,575.3,101.2z"/>
<path class="st0" d="M689.5,166.3h-3.2l3.8-28c0.4-0.1,0.9-0.2,1.3-0.3c0.6,0,1.1,0.1,1.7,0.2C692.1,147.7,690.6,156.9,689.5,166.3z
	"/>
<path class="st0" d="M759.6,164.2c0,1.7-1.3,3-3,3c-1.6,0-3-1.4-3-3c-0.1-1.6,1.2-2.9,2.8-3c0.1,0,0.1,0,0.2,0
	c1.5-0.1,2.9,1.1,3,2.6C759.6,163.9,759.6,164.1,759.6,164.2z"/>
<path class="st0" d="M690.2,128.7c-0.1-1.4,1-2.5,2.4-2.6c0.1,0,0.2,0,0.3,0c1.5-0.1,2.7,1.1,2.8,2.5c0,0.1,0,0.2,0,0.3
	c-0.1,1.4-1.3,2.6-2.7,2.7c-1.5,0-2.7-1.2-2.7-2.7C690.2,128.9,690.2,128.8,690.2,128.7z"/>
</svg>
