<?xml version="1.0" encoding="utf-8"?>
<!-- Generator: Adobe Illustrator 22.1.0, SVG Export Plug-In . SVG Version: 6.00 Build 0)  -->
<svg version="1.1" id="_x39_fd2b8a1-8ac7-4552-b194-f6069346332e"
	 xmlns="http://www.w3.org/2000/svg" xmlns:xlink="http://www.w3.org/1999/xlink" x="0px" y="0px" viewBox="0 0 592.9 242.3"
	 style="enable-background:new 0 0 592.9 242.3;" xml:space="preserve">
<style type="text/css">
	.st0{fill:#374092;}
	.st1{fill:#FFFFFF;}
</style>
<title>logo1</title>
<g>
	<path class="st0" d="M285.6,187.3c0.1-0.1,0.2-0.2,0.3-0.4C285.8,187,285.7,187.2,285.6,187.3L285.6,187.3z"/>
	<path class="st0" d="M210.3,122.8c-19.2-7.9-40.7-4.4-57,8.2c-3.9,3.1,1.6,8.5,5.5,5.5c14.2-11,33-13,49.4-6.2
		C212.9,132.1,214.9,124.6,210.3,122.8z"/>
	<path class="st0" d="M103.5,140.2c3.4,1.5,6.4-3.5,2.9-5c-11-4.8-22.6-2.9-31.7,4.9c-2.8,2.4,1.3,6.5,4.1,4.1
		C85.8,138.3,95.1,136.5,103.5,140.2z"/>
	<path class="st1" d="M53.9,113.5c-5.7-6-13.1-8.9-22.3-8.9c-4.7,0-9,0.8-12.8,2.4c-3.9,1.6-7.2,3.8-10,6.6
		c-2.8,2.8-4.9,6.1-6.5,9.9c-1.5,3.8-2.3,7.9-2.3,12.4v74.6c0,6.2,1,11.3,3,15.3s4.5,7.3,7.5,9.8s6.5,4.3,10.3,5.3s7.5,1.5,11.2,1.5
		c4.3,0,8.3-0.9,12.1-2.6c3.7-1.7,7-4,9.8-6.9s5-6.2,6.6-10c1.6-3.7,2.4-7.7,2.4-11.9v-8.4H43.4v6.7c0,2.7-0.4,4.9-1.1,6.7
		c-0.8,1.8-1.7,3.2-2.9,4.2c-1.3,1-2.6,1.7-4.1,2.2c-1.5,0.4-2.8,0.7-4.1,0.7c-4.4,0-7.5-1.3-9.2-4c-1.7-2.7-2.6-6-2.6-9.9v-69.3
		c0-4.6,0.8-8.3,2.4-11.3s4.8-4.5,9.6-4.5c3.7,0,6.6,1.4,8.8,4.2c2.2,2.8,3.2,6.1,3.2,9.9v6.5h19.4v-7.6c0-4.7-0.8-9-2.4-13
		C58.8,119.8,56.6,116.4,53.9,113.5z"/>
	<path class="st1" d="M413.4,164.1v-20.6c-5.6,0-10.3,1-14.1,3c-3.8,2-7.7,4.8-11.6,8.4v-10.3h-19.4v78.2c-4.4,0-9.9,0-16.1,0
		c1.2-3.3,1.8-7,1.8-11.1h-19.4c-0.3,2.2-1,4.3-2.2,6.5s-3.6,3.2-7.3,3.2c-2.9,0-5.2-0.8-6.9-2.5c-1.7-1.6-2.6-4-2.6-7v-13.1H354
		v-26.6c0-8.6-2.5-15.8-7.6-21.5c-2.5-2.7-5.6-4.8-9.2-6.3s-7.6-2.3-12.1-2.3c-6.1,0-11.3,1.3-15.5,3.8c-4.3,2.5-7.5,5.9-9.8,10.1
		c-1.4,2.5-2.3,5.5-2.9,8.8c-0.5,3.3-0.8,6.9-0.8,10.8v31.8c0,3.9,0.3,7.6,0.8,10.8c0.2,1.6,0.6,3.1,1.1,4.6c-5.6,0-11,0-16.1,0
		v-78.1h-19.4v78.1c-7.7,0-12.6,0-12.8-0.1c-1.5-0.1-2.7-0.5-3.7-1.1s-1.7-1.6-2.2-2.9c-0.4-1.3-0.7-3-0.7-5.3v-68.7v-1.1v-56
		c0.2,0,0.3,0.1,0.5,0.1c22,5.8,40.4,25.5,51,45.1c0.9,1.6,3.8,1,3.6-1c-1.9-22.6-13.4-45.9-33.2-57.8c27.1,3.6,55.9,16.2,71.9,37.5
		c1.2,1.6,4.3,0.8,3.5-1.5C331,82.7,314,56,284.9,47.3c-10.6-3.2-23.1-4.2-34.2-1.6c3.1-22.3,24.9-35.6,45.4-38.1
		c1.9-0.2,2.9-3.4,0.5-3.8C276,0.5,254.9,4,239.8,19.4C234,25.3,229,32.7,226,40.5c-14.1-20.2-42.9-28.4-66.3-30.3
		c-1.9-0.1-2.7,2.8-1,3.6c15.2,7.7,36.5,20.1,43.5,37.4c-31.1-0.9-66.1,9.7-87.4,33.4c-1.4,1.6,0.4,4.2,2.3,3
		c25.4-14.4,59.1-15.6,88.1-12.1c-14.1,7.7-25.1,21.5-29.3,37.1c-0.6,2.2,2.3,3.2,3.5,1.5c8.7-12.5,24.2-18.9,38.4-23
		c1.8-0.5,3.7-1.1,5.7-1.7v51.1v4v73.8c0,2.5,0.4,5.2,1.2,7.9s2.1,5.2,3.9,7.3c1.8,2.2,4.2,3.9,7.1,5.3c3,1.4,6.7,2.1,11.1,2.1h14.5
		v0.2h28.9v-0.2h29.2h19.4H368h19.4v-57.3c0-3.9,0.6-7.2,1.9-9.9s2.9-4.8,4.9-6.5c1.9-1.6,4-2.8,6.4-3.5c2.3-0.7,4.5-1,6.6-1
		C409.5,162.9,411.5,163.3,413.4,164.1z M334.6,183.6h-19v-11c0-3.7,0.9-6.4,2.6-8.3c1.7-1.8,4-2.8,6.9-2.8s5.2,0.9,6.9,2.8
		c1.7,1.8,2.6,4.6,2.6,8.3V183.6z"/>
	<path class="st1" d="M133,168.9c1.1-1.4,0.8-2.6-2.8-2.6c1.2-11.7-2.6-12.7-6.5-17.3c-2.6-3.6-5.1-5.1-9.1-5.1
		c-9.1,0-17.8,6.9-24,18c-3.6,6.5-5.8,13.3-5.8,19.3c0,4.4,1.2,8.6,3.9,12c3.9,5.1,9,7,13.5,7c2.1,0,3.7-0.4,5-0.8
		c10.5-3.6,19.3-17.1,22.2-28.6C130.9,170.6,132,170,133,168.9z M113.1,178.7c-5.1,9.4-10.6,14.5-14.2,14.5c-2.1,0-3.3-1.7-3.3-5.8
		c0-5.1,2.2-12.8,5.8-19.5c2.3-4.1,5-7.6,7.9-10.4c1.1,4.8,4,8.4,8.4,11.2C116.8,171.7,115.2,175.1,113.1,178.7z M119.9,163.5
		c-1.5-1.8-2.2-5.4-2.2-7.9c0-2.2,1.2-3.3,2.1-3.3c1,0,2.1,0.8,2.1,2.9C121.8,157,121.2,160.3,119.9,163.5z"/>
	<path class="st1" d="M200,149c-2.6-3.6-5.1-5.1-9.1-5.1c-9.1,0-17.8,6.9-24,18c-3.6,6.5-5.8,13.3-5.8,19.3c0,4.4,1.2,8.6,3.9,12
		c3.9,5.1,9,7,13.5,7c2.1,0,3.7-0.4,5-0.8c10.5-3.6,19.3-17.1,22.2-28.6c1.5-0.3,2.6-0.8,3.6-1.9c1.1-1.4,0.8-2.6-2.8-2.6
		C207.7,154.5,203.8,153.6,200,149z M189.3,178.7c-5.1,9.4-10.6,14.5-14.2,14.5c-2.1,0-3.3-1.7-3.3-5.8c0-5.1,2.2-12.8,5.8-19.5
		c2.3-4.1,5-7.6,7.9-10.4c1.1,4.8,4,8.4,8.4,11.2C193.1,171.7,191.4,175.1,189.3,178.7z M196.1,163.5c-1.5-1.8-2.2-5.4-2.2-7.9
		c0-2.2,1.2-3.3,2.1-3.3c1,0,2.1,0.8,2.1,2.9C198,157,197.5,160.3,196.1,163.5z"/>
	<path class="st1" d="M146.1,202.7c0,2.5,1.6,4.3,3.3,5.3c1.9,0.9,2.7,0.7,3.3-1c0.4-1,0.9-2.4,1.7-3.8c1.8-3.6,3.3-7.1,1.9-10.1
		c-1.5-2.8-5.4-6-8.8-6c-5.4,0-12.7,5-17.5,14.6c-2,3.7-2.9,7.4-2.9,10.8c0,7.4,4.7,12.9,13.3,12.8c7.3-0.1,14.8-4.7,18.3-10.2
		c1.7-2.6,1.7-5,1.2-6.2c-0.6-1.6-2-1.2-2.8,0.2c-3.7,5.6-10.1,12.7-17.1,12.7c-2.5-0.1-4.2-2.6-4.2-6.7c0-2.8,0.9-6.6,2.8-10.4
		c3.7-7.5,9.8-13.6,10.9-12.7c0.4,0.4-0.3,2-1.2,3.9C146.5,199.6,146.1,201.5,146.1,202.7z"/>
	<path class="st0" d="M207.6,213.7c-20.1,16.2-53.3,26.3-78.2,15.4c-3.4-1.5-6.4,3.5-2.9,5c27.6,12.1,62.9,1.7,85.2-16.3
		C214.6,215.4,210.5,211.3,207.6,213.7z"/>
</g>
</svg>
