<?xml version="1.0" encoding="utf-8"?>
<!-- Generator: Adobe Illustrator 22.1.0, SVG Export Plug-In . SVG Version: 6.00 Build 0)  -->
<svg version="1.1" id="_x39_fd2b8a1-8ac7-4552-b194-f6069346332e"
	 xmlns="http://www.w3.org/2000/svg" xmlns:xlink="http://www.w3.org/1999/xlink" x="0px" y="0px" viewBox="0 0 1046.5 242.3"
	 style="enable-background:new 0 0 1046.5 242.3;" xml:space="preserve">
<style type="text/css">
	.st0{fill:#374494;stroke:#374494;stroke-width:2;stroke-miterlimit:10;}
	.st1{fill:#E9474F;stroke:#E9474F;stroke-width:3;stroke-miterlimit:10;}
	.st2{fill:#374494;}
	.st3{fill:#374092;}
</style>
<title>logo1</title>
<g>
	<path class="st0" d="M895.7,192.1c-0.3,0.6-0.5,1.2-0.7,1.8c-0.9,7.1-1.8,14.2-2.7,21.2c-0.2,1.5-0.4,2.9-0.6,4.5h-3.2
		c1.3-9.9,2.7-19.6,4-29.5l3.2-0.3V192.1z"/>
	<path class="st1" d="M878.3,164c-0.1-1.3-0.2-2.4-0.2-3.5c-0.1-4.2-0.1-8.5-0.2-12.7c0-0.6,0-1.1-0.1-1.7c-0.4-2.8-1.7-4.5-3.9-5
		c-2.4-0.4-4.8,0.7-6.1,2.7c-1.1,1.9-1.6,4-1.5,6.2c-0.1,3.7,0,7.3,0,11c0,0.9-0.1,1.8-0.1,2.9H860c-0.1-0.9-0.2-1.8-0.2-2.7
		c0-3.6,0-7.1,0-10.7c0-1.7-0.2-3.3-0.5-5c-0.2-2-1.7-3.7-3.6-4.2c-2-0.6-4.1,0.1-5.4,1.6c-0.9,1.1-1.6,2.3-1.9,3.7
		c-0.4,1.8-0.6,3.7-0.6,5.6c-0.1,3.9,0,7.7,0,11.6c-2.2,0.7-4.2,0.5-6.4,0.2v-28.3h6c0.3,1,0.5,1.8,0.7,2.9c0.9-0.6,1.5-1,2.2-1.4
		c1.7-1.2,3.7-1.9,5.7-2c3.6-0.3,6.5,0.8,8.6,3.8c0.2,0.3,0.5,0.5,0.9,1c0.7-0.6,1.4-1.2,2-1.9c3.5-3.5,9.7-3.5,12.6-1.9
		c2.2,1.1,3.8,3.2,4.2,5.7c0.3,1.6,0.5,3.2,0.5,4.8c0.1,5,0,10,0,14.9c0,0.7-0.1,1.5-0.2,2.4H878.3z"/>
	<path class="st2" d="M454.7,184.4v-53.6c0-0.8,0-1.7,0.1-2.5c0.2-1.3,1.3-2.2,2.6-2.1c1.3-0.1,2.4,0.8,2.6,2.1
		c0.1,0.7,0.1,1.3,0.1,2c0,36.2,0,72.5,0,108.7c0,2.9-0.8,4-2.9,3.9s-2.6-1-2.6-3.9L454.7,184.4L454.7,184.4z"/>
	<path class="st1" d="M819.6,164.8c-7.3,0.6-14.8-6.3-14.8-14.8c0-9,8.1-15.2,14.8-14.9c8.4,0.4,15,6.5,15,14.8
		c0.2,8.1-6.2,14.8-14.3,15C820.1,164.8,819.9,164.8,819.6,164.8z M811.5,149.9c0,5,3.6,9,8.2,8.8c5.3-0.3,8.1-4.1,8.2-8.6
		c0-4.9-2.9-8.6-8.2-8.8C815,141.2,811.5,145.1,811.5,149.9L811.5,149.9z"/>
	<path class="st0" d="M538.2,159.2l5.9,6.4c-2.6,0.6-4.5,0.4-6-1.7c-0.8-1-1.7-1.9-2.6-2.8c-0.9,0.5-1.8,0.9-2.6,1.3
		c-5.6,2.9-12,3.6-18,1.7c-6.5-2-11.1-7.8-11.6-14.5c-1.2-12.7,6.6-21.9,16.8-24.5c4.2-1.2,8.6-1.1,12.8,0.3
		c6.6,2.2,11.2,8.2,11.7,15.2c0.6,6.2-1.3,12.3-5.5,17c-0.2,0.3-0.5,0.6-0.7,0.9C538.3,158.8,538.2,159,538.2,159.2z M526.8,151.8
		c3.1-0.8,5,0.1,6.5,2.2c0.6,0.7,1.3,1.3,2,1.9c0.3-0.2,0.6-0.3,0.9-0.6c0.3-0.3,0.6-0.7,0.9-1.1c2.7-3.6,4.1-7.9,4-12.4
		c0-6.8-4.8-12.6-11.5-13.8c-10.4-2.1-20.5,4.5-22.6,14.9c-0.1,0.3-0.1,0.6-0.2,0.9c-1.8,9.8,4.2,17.5,14.1,17.9
		c4.2,0.3,8.4-1,11.8-3.5L526.8,151.8z"/>
	<path class="st1" d="M793.9,156c0.3,0.2,0.7,0.4,1,0.6c1.2,0.8,2.3,1.6,3.6,2.5c-2.1,3.1-5.5,5.1-9.2,5.5c-2.7,0.3-5.4,0.2-8.1-0.3
		c-5.7-1.1-9.2-4.9-10.7-10.4s0-10.6,4.2-14.7c5.7-5.6,17.5-5.6,23,0.5c0.4,0.5,0.8,1,1.1,1.6c-1.6,0.9-3,1.7-4.5,2.5
		c-1.1,0.6-1.7-0.3-2.5-0.8c-2.3-1.6-5.2-2.2-8-1.5c-5.1,1.3-7.9,5.4-6.9,10.5c1,5.6,6.8,7.5,10.5,6.6
		C789.6,157.9,791.8,157,793.9,156z"/>
	<path class="st0" d="M681.1,140.9c0.8-5.7,1.6-11,2.3-16.3h2.8c0.6,2.2-2.2,25.1-4.9,39.5l-2.8,0.2c-0.1-1.3-0.2-2.5-0.3-3.9
		c-1.1,0.8-1.9,1.3-2.7,1.9c-3.5,2.5-7.9,3.4-12.1,2.3c-6.1-1.3-9.9-6.8-9.8-13.4c0.2-8.6,7.7-17.6,18.8-16c2.4,0.3,4.7,1.5,6.4,3.4
		L681.1,140.9z M670,138.1c-6.7-0.4-13.8,6-12.9,14.6c0.6,5.9,5,9.6,11,9.2c6.6-0.4,11.1-4.7,12.3-11.5
		C681.5,144.1,677.3,137.8,670,138.1L670,138.1z"/>
	<path class="st0" d="M507.6,224.6c-1.9,5.2-1.8,10.3-3.1,15.3h-3.1c1.5-12.9,3.4-25.6,5.1-38.5h3.2v3.5c0.8-0.5,1.4-0.9,2-1.3
		c3.4-2.7,7.9-3.8,12.2-3c5,0.9,9,4.8,10.1,9.8c1.9,9-3.9,17.8-13,19.7c-0.1,0-0.2,0-0.3,0.1c-4.7,0.9-9-0.2-12.2-4.1
		C508.2,225.6,507.9,225.1,507.6,224.6z M507.6,216.7c0,6.2,4.1,10.5,10.4,10.5c7.3,0,13-5.9,13.1-13.4c0.1-7.5-6.3-11.4-12.4-10.4
		C512.1,204.5,507.4,210.2,507.6,216.7L507.6,216.7z"/>
	<path class="st0" d="M744.6,164.1h-3.1v-3.8l-3,2.1c-5.8,4-15.7,3.6-19.8-3.7c-2.8-5-2.5-10.2,0.2-15.1c3.2-6.2,9.9-9.6,16.8-8.4
		c2.5,0.3,4.9,1.6,6.6,3.5c0.5,0.6,1.1,1.2,1.9,2c0.4-1.8,0.7-3.3,1-4.8h3.1C747.4,145.3,745.9,154.5,744.6,164.1z M733.3,138.1
		c-6.5-0.4-13.5,5.4-13.2,13.8c0.2,6.4,5,10.5,11.5,9.9c6.7-0.6,11.1-5.1,11.9-12.1S739.3,137.8,733.3,138.1L733.3,138.1z"/>
	<path class="st0" d="M611,164.2h-3c0-1.1-0.1-2.2-0.2-3.8c-0.9,0.7-1.6,1.2-2.3,1.7c-3.5,2.6-8,3.6-12.3,2.6c-6-1.2-9.8-6.5-9.9-13
		c-0.1-9.1,7.3-16.6,16.4-16.6c0.9,0,1.7,0.1,2.6,0.2c2.4,0.3,4.5,1.5,6.1,3.2l2.2,2.4c0.4-1.9,0.7-3.3,1-4.9h3.3
		C613.5,145.3,612.3,154.6,611,164.2z M586.6,151.5c0,6.3,4.1,10.5,10.3,10.5c7.3,0,13.2-6,13.2-13.3c0-1.1-0.1-2.2-0.4-3.2
		c-1-4.2-4.6-7.2-8.9-7.4c-7.2-0.6-13.6,4.7-14.2,12C586.6,150.5,586.5,151,586.6,151.5L586.6,151.5z"/>
	<path class="st0" d="M711,215.8h-25.3c-0.9,4,0.8,8,4.3,10.1c4.4,2.6,10.2,1.5,15.5-3.1l2.3,1.8c-2.7,3.4-6.8,5.5-11.2,5.6
		c-10,0.7-16.5-7.1-14.3-16.9c1.8-8.5,9.9-14.1,18.5-12.8c5.6,0.9,9.8,5.5,10.2,11.2C711,212.9,711,214.1,711,215.8z M686.4,212.8
		h21.2c0.3-3.5-1.6-6.9-4.8-8.4c-6.1-3-14.8,1-16.6,7.7C686.2,212.3,686.3,212.5,686.4,212.8L686.4,212.8z"/>
	<path class="st0" d="M639,215.8h-25c-0.9,6,2.9,10.9,8.5,11.4c4.3,0.4,8.5-1.2,11.3-4.4l2.5,1.8c-0.7,0.8-1.5,1.6-2.2,2.2
		c-4.4,3.5-10.2,4.5-15.5,2.7c-4.3-1.4-6.7-4.8-7.8-9c-2.4-9.1,4.1-18.5,13.4-20c8.2-1.4,13.4,3.6,14.7,8.4
		C639.6,211.2,639.7,213.6,639,215.8z M636.1,212.8c0.2-2.9-1.1-5.7-3.5-7.4c-2.7-2.1-5.7-2.2-8.8-1.6c-4.6,0.9-8.2,4.4-9.2,9H636.1
		z"/>
	<path class="st0" d="M569.2,214c0.2,8.8-6.8,16.2-15.6,16.4c-0.7,0-1.3,0-2-0.1c-7.1-0.5-12-6.2-11.9-13.6
		c0.2-9.1,6.8-16.3,15.9-16.5C565.1,200.1,569.5,207.4,569.2,214z M543.1,216.6c0,6.5,4.3,10.8,10.8,10.6
		c9.8-0.3,13.9-10.5,11.6-17.1c-1.4-4.1-5.4-6.8-9.8-6.7C548.6,203.6,542.9,209.5,543.1,216.6L543.1,216.6z"/>
	<path class="st0" d="M623.8,135.9h2.8c0.1,1.2,0.2,2.3,0.3,3.7c0.8-0.7,1.3-1,1.8-1.5c2.6-2.3,6-3.4,9.4-3.1
		c4.6,0.3,8.2,3.6,8.5,8.2c0,2.9-0.1,5.8-0.5,8.7c-0.4,3.6-0.9,7.1-1.4,10.6c-0.1,0.4-0.2,0.9-0.4,1.5h-3c0.3-2.2,0.5-4.2,0.7-6.2
		c0.5-3.4,1-6.7,1.4-10.1c0.1-1.1,0.2-2.3,0.1-3.4c0-3.7-3-6.6-6.7-6.6c-0.3,0-0.6,0-0.9,0.1c-4.6,0.6-8,2.9-9.4,7.4
		c-0.8,2.9-1.4,5.8-1.8,8.8c-0.5,3.2-0.9,6.5-1.3,9.9h-3.1C621.1,154.5,622.5,145.2,623.8,135.9z"/>
	<path class="st0" d="M555.3,135.7l3.2,0.2c-0.2,2.1-0.5,4-0.7,6c-0.5,3.2-1,6.3-1.4,9.5c-0.1,0.9-0.2,1.9-0.2,2.8
		c-0.1,3.2,1.1,5.8,4.1,7c2.9,1.4,6.3,0.9,8.7-1.2c1.8-1.6,2.9-3.8,3.1-6.1c0.5-3,0.8-6,1.2-8.9c0.4-2.9,0.8-5.9,1.3-9l2.7-0.1
		c0.8,2.1,0,4-0.3,5.9c-0.6,4.7-1.4,9.5-2.2,14.2c-1,5.5-5.5,10.2-13.7,8.9c-4.5-0.8-7.9-4.7-8-9.3c0-2.7,0.2-5.4,0.5-8.1
		C554.1,143.5,554.7,139.8,555.3,135.7z"/>
	<path class="st0" d="M811.6,201.3l2.7-0.1c0,0.7,0,1.3,0,2c-0.8,5.6-1.5,11.2-2.4,16.7c-0.2,1.3-0.6,2.6-1.1,3.8
		c-2.6,5.7-9.4,8.3-15.1,5.7c-0.4-0.2-0.9-0.4-1.3-0.7c-3.7-2.4-5-6-4.7-10.2c0.3-3.5,0.8-6.9,1.3-10.4c0.3-2.2,0.7-4.4,1-6.8l3-0.2
		c-0.1,1.4,0,2.5-0.2,3.7c-0.6,4.5-1.3,8.9-1.9,13.4s1.5,7.7,5.3,8.8c4,1.1,8.2-1,9.7-4.8c0.6-1.9,1.1-3.8,1.3-5.8
		c0.7-4.6,1.2-9.1,1.8-13.7C811.3,202.2,811.5,201.7,811.6,201.3z"/>
	<path class="st0" d="M677.1,204.2l-1.5,2.3c-0.8-0.6-1.5-1.2-2.2-1.7c-2.2-1.6-4.6-1.8-6.6-0.4c-2.3,1.5-2.7,4-0.8,6
		c0.8,0.8,1.7,1.5,2.6,2.1c1.2,0.9,2.5,1.7,3.7,2.6c3.6,2.9,4.7,7.1,2.9,10.8c-1.8,3.5-6.2,5.3-10.4,4.3c-2.6-0.6-4.9-2.1-6.4-4.3
		l1.7-2.2c1.1,0.9,2,1.7,3,2.3c2.3,1.4,4.7,1.9,7.2,0.4c2.3-1.3,3.2-4.2,1.9-6.5c-0.2-0.4-0.6-0.9-0.9-1.2c-1.1-1-2.3-1.9-3.5-2.8
		c-1.4-1-2.7-2-4-3.1c-3.2-3-2.9-7.5,0.4-10.4c3.9-3.1,9.5-2.4,12.5,1.4C676.9,203.8,677,204,677.1,204.2z"/>
	<path class="st0" d="M847.1,225.8l1.8-2.1c1,0.8,1.8,1.5,2.7,2.1c2.1,1.3,4.2,2,6.7,0.9c3.6-1.6,4.3-5.6,1.5-8.3
		c-1.1-1-2.3-1.9-3.6-2.8c-1.3-0.9-2.6-1.9-3.8-3c-2.8-2.5-3-6.8-0.5-9.6c0.3-0.4,0.7-0.7,1.1-1c3.4-2.6,9.7-2.5,12.6,2.1
		c-0.4,0.7-0.9,1.4-1.5,2.4c-0.9-0.7-1.5-1.3-2.3-1.9c-2-1.6-4.8-1.7-6.8-0.1c-2,1.6-2.2,3.8-0.5,5.7c1,0.9,2,1.7,3.1,2.5
		c1.1,0.9,2.3,1.6,3.4,2.5c3.5,2.9,4.5,7,2.8,10.6s-6.1,5.4-10.4,4.4C850.9,229.5,848.6,228,847.1,225.8z"/>
	<path class="st0" d="M733.6,204.2c-0.5,0.7-1,1.4-1.5,2.3c-0.8-0.6-1.5-1.3-2.2-1.8c-2-1.4-4.1-1.8-6.3-0.5
		c-2.5,1.5-2.8,4.1-0.8,6.2c0.8,0.8,1.7,1.5,2.6,2.1c1.1,0.8,2.3,1.6,3.5,2.4c3.3,2.5,4.7,5.6,3.2,10.2c-1.2,3.6-5,5.5-9.4,5.1
		c-3.1-0.3-5.8-2-7.5-4.6c0.2-0.3,0.3-0.6,0.5-0.9s0.5-0.8,0.9-1.3c0.9,0.7,1.5,1.2,2.2,1.7c1.4,1.3,3.3,2,5.2,2
		c2.2,0,4.3-1.3,5.1-3.4c0.9-1.9,0.3-4-1.5-5.6c-1.1-1-2.4-1.8-3.6-2.7c-1.3-0.9-2.5-1.9-3.7-3c-2.7-2.5-2.7-6.8-0.2-9.4
		c0.1-0.1,0.1-0.1,0.2-0.2C723.3,199.4,730.4,199.2,733.6,204.2z"/>
	<path class="st0" d="M754.2,229.2c1.1-8.4,2.2-16.6,3.3-25l-3.2-0.6c0.1-0.8,0.1-1.4,0.2-2.2l3.3-0.5c0.5-2.4,0.8-4.8,1.4-7.1
		c0.6-3.1,3.6-5.1,6.7-4.5c0.3,0.1,0.6,0.1,0.9,0.2c2.1,0.6,2.5,1.3,1.7,3.9c-0.6-0.3-1.2-0.6-1.7-0.8c-2.2-0.9-3.7-0.3-4.4,2
		c-0.5,2.1-0.9,4.2-1.3,6.3l6,0.5c-0.1,0.9-0.2,1.6-0.3,2.5c-1.4,0-2.7,0-4,0c-1-0.2-2,0.5-2.2,1.5c0,0.1,0,0.3,0,0.4
		c-0.7,5.5-1.5,11-2.2,16.5c-0.2,1.7-0.4,3.4-0.6,5C757.4,229.6,757.2,229.7,754.2,229.2z"/>
	<path class="st0" d="M597.8,229.4h-3.1c1.1-8.5,2.2-16.7,3.3-25.2l-4.8-0.6l0.4-2.3l4.7-0.3c0.5-3.4,1.1-6.9,1.7-10.5h3
		c-0.4,3.5-0.8,6.8-1.2,10.5l5.5,0.3l-0.2,2.5l-5.6,0.3C599.8,212.4,599.2,220.9,597.8,229.4z"/>
	<path class="st0" d="M837,204.1l-4.7-0.4c0.1-0.8,0.2-1.6,0.2-2.4l4.8-0.4c0.5-3.4,1-6.8,1.6-10.4h3c-0.4,3.5-0.8,6.8-1.2,10.4
		l5.6,0.5l-0.3,2.4l-5.7,0.3c-1.2,8.5-2.3,16.9-3.5,25.4h-3.2C834.8,221,835.9,212.7,837,204.1z"/>
	<path class="st0" d="M577.4,201.3l2.9-0.1l0.5,2.7c3.1-2.4,6.1-4.7,10.5-2.8l-1.3,2.6c-5.8-0.2-8.7,1.8-10.1,7.4
		c-1,3.9-1.5,7.9-2.1,11.9c-0.2,1.5-0.4,3-0.6,4.5c-0.3,2.3-0.5,2.4-3.5,1.7C574.8,219.9,576.1,210.7,577.4,201.3z"/>
	<path class="st0" d="M771.8,229.4c-0.5,0.1-1,0.2-1.5,0.2c-0.5-0.1-1.1-0.2-1.6-0.3c1.3-9.4,2.5-18.6,3.8-28h3.2
		c0,0.8,0.1,1.5,0.1,2.3c0.3,0,0.6,0,0.8-0.1c1.4-1.4,3.1-2.4,5-2.9c1.6-0.4,3.2-0.2,4.7,0.6l-1.2,2.6c-5.1-0.4-8.4,1-10.2,7.4
		c-1.3,4.7-1.7,9.6-2.5,14.4C772.3,226.8,772,228,771.8,229.4z"/>
	<path class="st0" d="M708,164.3l-3.2-0.2c1.8-13.2,3.5-26.2,5.3-39.4l3.2-0.2C711.7,137.8,709.8,150.9,708,164.3z"/>
	<path class="st0" d="M822.2,229.4H819l3.8-28c0.4-0.1,0.9-0.2,1.3-0.3c0.6,0,1.1,0.1,1.7,0.2C824.8,210.8,823.3,220,822.2,229.4z"
		/>
	<path class="st0" d="M892.3,227.3c0,1.7-1.3,3-3,3c-1.6,0-3-1.4-3-3c-0.1-1.6,1.2-2.9,2.8-3c0.1,0,0.1,0,0.2,0
		c1.5-0.1,2.9,1.1,3,2.6C892.3,227,892.3,227.2,892.3,227.3z"/>
	<path class="st0" d="M822.9,191.8c-0.1-1.4,1-2.5,2.4-2.6c0.1,0,0.2,0,0.3,0c1.5-0.1,2.7,1.1,2.8,2.5c0,0.1,0,0.2,0,0.3
		c-0.1,1.4-1.3,2.6-2.7,2.7c-1.5,0-2.7-1.2-2.7-2.7C822.9,192,822.9,191.9,822.9,191.8z"/>
</g>
<g>
	<path class="st3" d="M285.6,187.3c0.1-0.1,0.2-0.2,0.3-0.4C285.8,187,285.7,187.2,285.6,187.3L285.6,187.3z"/>
	<path class="st3" d="M210.3,122.8c-19.2-7.9-40.7-4.4-57,8.2c-3.9,3.1,1.6,8.5,5.5,5.5c14.2-11,33-13,49.4-6.2
		C212.9,132.1,214.9,124.6,210.3,122.8z"/>
	<path class="st3" d="M103.5,140.2c3.4,1.5,6.4-3.5,2.9-5c-11-4.8-22.6-2.9-31.7,4.9c-2.8,2.4,1.3,6.5,4.1,4.1
		C85.8,138.3,95.1,136.5,103.5,140.2z"/>
	<path class="st3" d="M53.9,113.5c-5.7-6-13.1-8.9-22.3-8.9c-4.7,0-9,0.8-12.8,2.4c-3.9,1.6-7.2,3.8-10,6.6
		c-2.8,2.8-4.9,6.1-6.5,9.9c-1.5,3.8-2.3,7.9-2.3,12.4v74.6c0,6.2,1,11.3,3,15.3c2,4,4.5,7.3,7.5,9.8c3,2.5,6.5,4.3,10.3,5.3
		c3.8,1,7.5,1.5,11.2,1.5c4.3,0,8.3-0.9,12.1-2.6c3.7-1.7,7-4,9.8-6.9c2.8-2.9,5-6.2,6.6-10c1.6-3.7,2.4-7.7,2.4-11.9v-8.4H43.4v6.7
		c0,2.7-0.4,4.9-1.1,6.7c-0.8,1.8-1.7,3.2-2.9,4.2c-1.3,1-2.6,1.7-4.1,2.2c-1.5,0.4-2.8,0.7-4.1,0.7c-4.4,0-7.5-1.3-9.2-4
		c-1.7-2.7-2.6-6-2.6-9.9v-69.3c0-4.6,0.8-8.3,2.4-11.3c1.6-3,4.8-4.5,9.6-4.5c3.7,0,6.6,1.4,8.8,4.2c2.2,2.8,3.2,6.1,3.2,9.9v6.5
		h19.4v-7.6c0-4.7-0.8-9-2.4-13C58.8,119.8,56.6,116.4,53.9,113.5z"/>
	<path class="st3" d="M413.4,164.1v-20.6c-5.6,0-10.3,1-14.1,3c-3.8,2-7.7,4.8-11.6,8.4v-10.3h-19.4v78.2c-4.4,0-9.9,0-16.1,0
		c1.2-3.3,1.8-7,1.8-11.1h-19.4c-0.3,2.2-1,4.3-2.2,6.5c-1.2,2.2-3.6,3.2-7.3,3.2c-2.9,0-5.2-0.8-6.9-2.5c-1.7-1.6-2.6-4-2.6-7
		v-13.1H354v-26.6c0-8.6-2.5-15.8-7.6-21.5c-2.5-2.7-5.6-4.8-9.2-6.3c-3.6-1.5-7.6-2.3-12.1-2.3c-6.1,0-11.3,1.3-15.5,3.8
		c-4.3,2.5-7.5,5.9-9.8,10.1c-1.4,2.5-2.3,5.5-2.9,8.8c-0.5,3.3-0.8,6.9-0.8,10.8v31.8c0,3.9,0.3,7.6,0.8,10.8
		c0.2,1.6,0.6,3.1,1.1,4.6c-5.6,0-11,0-16.1,0v-78.1h-19.4v78.1c-7.7,0-12.6,0-12.8-0.1c-1.5-0.1-2.7-0.5-3.7-1.1
		c-1-0.6-1.7-1.6-2.2-2.9c-0.4-1.3-0.7-3-0.7-5.3v-68.7v-1.1v-56c0.2,0,0.3,0.1,0.5,0.1c22,5.8,40.4,25.5,51,45.1
		c0.9,1.6,3.8,1,3.6-1c-1.9-22.6-13.4-45.9-33.2-57.8c27.1,3.6,55.9,16.2,71.9,37.5c1.2,1.6,4.3,0.8,3.5-1.5
		C331,82.7,314,56,284.9,47.3c-10.6-3.2-23.1-4.2-34.2-1.6c3.1-22.3,24.9-35.6,45.4-38.1c1.9-0.2,2.9-3.4,0.5-3.8
		C276,0.5,254.9,4,239.8,19.4c-5.8,5.9-10.8,13.3-13.8,21.1c-14.1-20.2-42.9-28.4-66.3-30.3c-1.9-0.1-2.7,2.8-1,3.6
		c15.2,7.7,36.5,20.1,43.5,37.4c-31.1-0.9-66.1,9.7-87.4,33.4c-1.4,1.6,0.4,4.2,2.3,3c25.4-14.4,59.1-15.6,88.1-12.1
		c-14.1,7.7-25.1,21.5-29.3,37.1c-0.6,2.2,2.3,3.2,3.5,1.5c8.7-12.5,24.2-18.9,38.4-23c1.8-0.5,3.7-1.1,5.7-1.7v51.1v4v73.8
		c0,2.5,0.4,5.2,1.2,7.9c0.8,2.7,2.1,5.2,3.9,7.3c1.8,2.2,4.2,3.9,7.1,5.3c3,1.4,6.7,2.1,11.1,2.1h14.5v0.2h28.9v-0.2h29.2h19.4
		h29.2h19.4v-57.3c0-3.9,0.6-7.2,1.9-9.9c1.3-2.7,2.9-4.8,4.9-6.5c1.9-1.6,4-2.8,6.4-3.5c2.3-0.7,4.5-1,6.6-1
		C409.5,162.9,411.5,163.3,413.4,164.1z M334.6,183.6h-19v-11c0-3.7,0.9-6.4,2.6-8.3c1.7-1.8,4-2.8,6.9-2.8c2.9,0,5.2,0.9,6.9,2.8
		c1.7,1.8,2.6,4.6,2.6,8.3V183.6z"/>
	<rect x="407.1" y="221.7" class="st3" width="19.4" height="19.4"/>
	<path class="st3" d="M133,168.9c1.1-1.4,0.8-2.6-2.8-2.6c1.2-11.7-2.6-12.7-6.5-17.3c-2.6-3.6-5.1-5.1-9.1-5.1
		c-9.1,0-17.8,6.9-24,18c-3.6,6.5-5.8,13.3-5.8,19.3c0,4.4,1.2,8.6,3.9,12c3.9,5.1,9,7,13.5,7c2.1,0,3.7-0.4,5-0.8
		c10.5-3.6,19.3-17.1,22.2-28.6C130.9,170.6,132,170,133,168.9z M113.1,178.7c-5.1,9.4-10.6,14.5-14.2,14.5c-2.1,0-3.3-1.7-3.3-5.8
		c0-5.1,2.2-12.8,5.8-19.5c2.3-4.1,5-7.6,7.9-10.4c1.1,4.8,4,8.4,8.4,11.2C116.8,171.7,115.2,175.1,113.1,178.7z M119.9,163.5
		c-1.5-1.8-2.2-5.4-2.2-7.9c0-2.2,1.2-3.3,2.1-3.3c1,0,2.1,0.8,2.1,2.9C121.8,157,121.2,160.3,119.9,163.5z"/>
	<path class="st3" d="M200,149c-2.6-3.6-5.1-5.1-9.1-5.1c-9.1,0-17.8,6.9-24,18c-3.6,6.5-5.8,13.3-5.8,19.3c0,4.4,1.2,8.6,3.9,12
		c3.9,5.1,9,7,13.5,7c2.1,0,3.7-0.4,5-0.8c10.5-3.6,19.3-17.1,22.2-28.6c1.5-0.3,2.6-0.8,3.6-1.9c1.1-1.4,0.8-2.6-2.8-2.6
		C207.7,154.5,203.8,153.6,200,149z M189.3,178.7c-5.1,9.4-10.6,14.5-14.2,14.5c-2.1,0-3.3-1.7-3.3-5.8c0-5.1,2.2-12.8,5.8-19.5
		c2.3-4.1,5-7.6,7.9-10.4c1.1,4.8,4,8.4,8.4,11.2C193.1,171.7,191.4,175.1,189.3,178.7z M196.1,163.5c-1.5-1.8-2.2-5.4-2.2-7.9
		c0-2.2,1.2-3.3,2.1-3.3c1,0,2.1,0.8,2.1,2.9C198,157,197.5,160.3,196.1,163.5z"/>
	<path class="st3" d="M146.1,202.7c0,2.5,1.6,4.3,3.3,5.3c1.9,0.9,2.7,0.7,3.3-1c0.4-1,0.9-2.4,1.7-3.8c1.8-3.6,3.3-7.1,1.9-10.1
		c-1.5-2.8-5.4-6-8.8-6c-5.4,0-12.7,5-17.5,14.6c-2,3.7-2.9,7.4-2.9,10.8c0,7.4,4.7,12.9,13.3,12.8c7.3-0.1,14.8-4.7,18.3-10.2
		c1.7-2.6,1.7-5,1.2-6.2c-0.6-1.6-2-1.2-2.8,0.2c-3.7,5.6-10.1,12.7-17.1,12.7c-2.5-0.1-4.2-2.6-4.2-6.7c0-2.8,0.9-6.6,2.8-10.4
		c3.7-7.5,9.8-13.6,10.9-12.7c0.4,0.4-0.3,2-1.2,3.9C146.5,199.6,146.1,201.5,146.1,202.7z"/>
	<path class="st3" d="M207.6,213.7c-20.1,16.2-53.3,26.3-78.2,15.4c-3.4-1.5-6.4,3.5-2.9,5c27.6,12.1,62.9,1.7,85.2-16.3
		C214.6,215.4,210.5,211.3,207.6,213.7z"/>
</g>
</svg>
