<?xml version="1.0" encoding="utf-8"?>
<!-- Generator: Adobe Illustrator 22.1.0, SVG Export Plug-In . SVG Version: 6.00 Build 0)  -->
<svg version="1.1" id="_x37_fb674e0-4aa5-460c-b2ad-1dd4c7605b4d"
	 xmlns="http://www.w3.org/2000/svg" xmlns:xlink="http://www.w3.org/1999/xlink" x="0px" y="0px" viewBox="0 0 841.9 595.3"
	 style="enable-background:new 0 0 841.9 595.3;" xml:space="preserve">
<style type="text/css">
	.st0{opacity:0.78;}
	.st1{opacity:0.44;fill:#2BC9C4;}
</style>
<title>Plan de travail 1</title>
<g class="st0">
	<path class="st1" d="M708,542.6c43.9-10.5,89-14.7,134-12.6v-2.5c-51.1-2.4-102.2,3.3-151.4,17c-1.6,0.4-0.9,2.6,0.7,2.4
		c6.4-0.8,12.7-1.5,19.1-2c-0.7,0.7-1,1.9-0.3,3.1c9.1,17.3,28.1,16.7,40.1,29.6c0.1,0.2,0.3,0.3,0.4,0.5c-8,1.6-15.9,3.7-23.6,6.7
		c-1.2,0.5-1.2,2.6,0.3,2.5c19.8-2.1,39.7-2.3,59.5-0.7c-0.1,0.2-0.2,0.5,0.1,0.7c2.2,1.7,3.4,4.1,4.3,6.7
		c-9.3,0.8-18.7-0.5-27.5-3.8c-0.7-1.5-1.5-3-2.1-4.1c-0.4,0-0.4,1.9-0.8,1.9c-1.5,0-3-0.4-4.3-1.2c2,3.4,3.9,7,5.9,10.4h5.3V597
		c-0.1-0.1-0.1-0.2-0.2-0.2c-1-1.3-2-3.2-3-5c8.7,3.1,17.9,4.2,27.1,3.4c0.2,0.6,0.4,1.2,0.5,1.9h1.3c-0.2-0.8-0.4-1.5-0.6-2.2
		c2.3-1.9,4-4.3,5-7.1c3.8,0.4,7.5,0.9,11.2,1.5c-0.2,0.4-0.2,0.9,0.2,1.4c1.6,2,2.9,4.2,3.9,6.5h2.7c-1.1-2.7-2.5-5.2-4.2-7.5
		c10.2,1.6,20.4,3.7,30.5,6.2v-2.6H842c-34.2-8.6-69.6-11.7-104.7-9.2c5-1.5,10.1-2.7,15.2-3.6c0.1,0.1,0.2,0.3,0.3,0.4
		c0-0.2-0.1-0.3-0.1-0.5c15.8-2.9,32.1-3.5,48.3-3.7c13.7-0.2,27.4-0.4,41.1-0.6v-2.5c-12.5,0.2-25.1,0.4-37.6,0.5
		c0-0.6-0.2-1.3-0.7-1.8c-25.5-25.8-61.4-11.9-90.2-27.4c43.3-2.9,86.9,2.4,128.5,15.8v-2.6H842C798.8,544.1,753.2,538.9,708,542.6z
		 M792.4,593.5c-0.9-2.6-2.2-4.9-4.3-6.8c2.8,0.2,5.6,0.5,8.4,0.8C795.7,589.9,794.3,591.9,792.4,593.5z M721.6,553.4
		c8.3,4.4,17.2,7.6,26.4,9.5c3.4,0.7,6.8,0.9,10.2,1.3c-3.8,2.5-7.2,4.1-11.3,4.2c-8.8-5.9-19.6-8.4-27.3-15.7
		C720.3,552.9,720.9,553.2,721.6,553.4z M755,558.6c1.5,1.1,2.6,2.6,3.3,4.3c0,0.1,0.1,0.2,0.2,0.2c-0.6-0.1-1.2-0.2-1.8-0.2
		c-10-1.1-19.8-3.7-28.9-7.9C736.7,557,745.9,557.7,755,558.6z M779,574.7c-0.2-0.2-0.3-0.5-0.5-0.7c1.7-3.4,2.3-7.1,2.1-10.8
		c6.6,2.2,12.8,5.6,18.5,10.8C792.3,574.1,785.7,574.3,779,574.7z M777.6,572.9c-4.8-6-10.8-8.5-18.4-9.7c0.3-0.1,0.4-0.3,0.3-0.6
		c-0.6-1.5-1.4-2.8-2.4-3.8c7.6,0.8,15.1,1.8,22.2,4.1C779.7,566.2,779.1,569.7,777.6,572.9z M751.7,572.2c-1-1-2.1-1.8-3.2-2.7
		c3.7-0.4,7-2.1,10.7-4.4c0.3-0.2,0.3-0.5,0.2-0.7c1.3,0.2,2.6,0.4,3.9,0.6c5.7,1.2,10.3,4.6,13.7,9.1c0,0,0,0.1,0,0.1
		c-0.1,0.2-0.1,0.5,0,0.6c-7.4,0.5-14.8,1.3-22.1,2.5c0.2-0.3,0.3-0.5,0.4-0.9C755,575.9,752.2,572.7,751.7,572.2z"/>
	<path class="st1" d="M267.3,469.3c-29.5-4.7-55.9-19.6-84.3-28.1c-14.4-4.4-29.5-6.5-44.6-6c-12.1,0.4-24.1,2-36,3.9
		c0.3-0.4,0.4-1-0.1-1.5c-3.1-2.7-6.9-4.3-11-4.5c0.6-2.5,1.2-5.1,1.7-7.7c2.9-0.7,5.8-1.6,8.7-2.7c5.1,6.4,14.2,9,22.1,9.4
		c6.7,0.3,19.5-1.2,22.8-8.2c3.7-7.9-8.2-10.1-13.4-10.8c-4.6-0.6-9.2,0.5-13.8,1.3l-2.5,0.4c4.4-3,8.5-6.4,12.3-10.3
		c0.9-0.9,1.8-1.8,2.6-2.8c7.8,3.5,16.3,5.1,24.9,4.7c4.7-0.2,16.4-0.4,17.3-6.8c1.9-13.9-28-5.7-38.4-2.1
		c5.8-6.9,11.1-14.2,16.7-21.2c7.3,4.2,15.3,7,23.5,8.6c4.5,0.8,11.9,2.8,13-3.5c2.4-13-22.1-11.7-32.6-9.9
		c7.3-8.5,15.3-15.7,25.4-19.8c5.9,6.8,10.1,13.9,18.2,18.7c4,2.4,15.1,8.5,19.1,3.8c5-5.9-4.2-12.4-8.2-15.1
		c-6.7-4.6-14.2-7.9-22.2-9.6c0.6-0.1,1.1-0.3,1.7-0.4c6.9-1.4,14.1-2.2,20.6-5.1c0.1,0.3,0.3,0.6,0.4,0.9c0.1,0.3,0.3,0.5,0.5,0.5
		c3.8,8,9.1,15.2,15.6,21.2c3,2.7,10,7.6,11.5,0.6c1.3-6.1-2.3-13.8-6.1-18.3c-4.7-5.6-10.6-7.3-17.3-7.5c2.4-1.6,4.5-3.4,6.5-5.5
		c0.2,0.1,0.4,0.1,0.7,0.1c8.8-1,17.9-2.6,26.1-6.1c3.8-1.7,11.8-7.3,10-12.6c-1.5-4.4-11.4,0.1-13.9,1.1c-6.2,2.5-11.9,6.1-17.3,10
		c3.2-5.3,5.4-11.1,6.8-17.1c0.3,0,0.5-0.1,0.8-0.3c7.4-5.7,13.7-12.6,18.7-20.5c2.3-3.8,8.5-15.7,3.4-19.5
		c-4.6-3.4-11.5,7.8-13.6,10.7c-2.9,4.3-5.3,8.9-7.2,13.7c0.2-5.1,0-10.2-0.5-15.2c0-0.2-0.1-0.4-0.1-0.5c2.7-8.3,3.5-15.9,0.2-24.3
		c-1.7-4.3-7.6-14.1-13.9-11.4c-4.8,2-1.9,14.5-0.9,18.2c2.2,8.4,7,15.6,12.2,22.3c0.1,0.1,0.2,0.2,0.3,0.3
		c0.3,5.7,0.3,11.4-0.4,17.1c-2.6-7.5-6.3-14.5-11-20.9c-3.1-4.1-9.4-10.6-14.9-6.3c-5.5,4.3-4.6,14.6-0.7,19.6
		c5.5,7.2,15,13.7,23.2,17.4c0.8,0.4,1.5-0.1,1.8-0.7c-1.4,5.6-3.4,11-6.5,16.1c-0.3,0.5-0.6,0.9-0.9,1.4c0-6.1-1.2-12.3-4.9-17.3
		c-2.6-3.4-7.9-7.5-12.4-5.2c-3.8,1.9-4.2,6.9-3.1,10.5c2.3,7.1,11.1,12.6,16.3,17.3c-2.3,2.5-5,4.8-8,6.5c0-0.4-0.2-0.7-0.6-0.9
		c-0.3-0.1-0.5-0.2-0.8-0.4c-3.1-6.3-6-12.4-11.4-17.3c-3.4-3.1-10.3-8.8-15.4-6.4c-5.1,2.4-2.9,9.6,0.1,12.8
		c3,3.2,7.6,4.8,11.5,6.6l13.5,6.4c0.1,0.2,0.2,0.4,0.3,0.6c-0.7,0.3-1.4,0.6-2.2,0.9c-7.1,2.6-14.7,3-21.9,5
		c-1.1,0.3-2.2,0.6-3.2,1c-0.1-0.1-0.1-0.2-0.2-0.2c-0.7-4.2-5.6-28.5-12.3-20.9c-6.7,7.7,0.4,19.6,8.9,22.5
		c-8.8,3.9-16.1,10.4-22.6,17.7c1.1-4.9,1.6-9.8,1.6-14.8c-0.1-4.5-0.2-9.8-3.2-13.3c1.9-1.1,3.8-2.1,5.8-3.2
		c0.6-0.4,0.8-1.1,0.4-1.7c-0.2-0.4-0.6-0.6-1-0.6c-33.2,1.5-67,4.1-98.3,15.9c-3,1.1-5.9,2.3-8.9,3.6c9.7-14.3,5.8-35.3-1-49.8
		c-3.1-6.5-4.5-11.9-0.5-18.4c2.6-4.9,6.2-8.8,8.7-13.6c5.2-10,7.7-21.2,7.2-32.4c0-1.4-2.2-1.8-2.4-0.3
		c-2.2,10.6-9.4,15.9-19.9,16.8c-6.4,0.6-13,0.1-18.9,3.2c-12.3,6.4-15.5,22.4-16.5,34.9c-0.4,4.5-0.4,9-0.7,13.5
		c-0.4,5.3-4.7,6.1-8.5,8.4l-0.8,0.5v3c0.7-0.5,1.4-0.9,2.1-1.3c1.6-0.9,3.5-1.6,5.1-2.5c-3,11.6-1,23.8,3.8,34.9
		c-3.6,2.4-7.4,4.7-11.1,6.8v1.4c3.8-2.2,7.6-4.6,11.3-7.1c0,0.1,0.1,0.2,0.2,0.3c8.2,6.9,18.3,10.1,28.7,8.3
		c-13.9,7.7-26.5,17.3-37.3,29c-1-0.4-2-0.9-2.9-1.4v1.5c0.7,0.4,1.3,0.7,2,1c-0.6,0.7-1.3,1.4-1.9,2.1v3.8
		c7-8.3,14.9-15.7,23.5-22.2c-5.5,22-4.1,46.1,9.1,65.3c0,0,0,0,0,0c0,0.1,0,0.2,0.1,0.4c-4.2,9.4-9.1,18.3-16.4,25.9
		c-5,5.1-10.5,9.7-16.4,13.6v1.5c2.6-1.7,5.2-3.6,7.6-5.5c8.4,7.5,19.5,10.6,30.6,11.5c10.7,0.9,24.2,1.8,33.8-3.8
		c0.3-0.2,0.3-0.6,0.1-0.9c-0.2-0.2-0.5-0.3-0.7-0.2c-9,5.2-21.4,4.4-31.5,3.7c-11.2-0.7-22.7-3.6-31.2-11.2
		c1.8-1.4,3.5-2.9,5.2-4.4c9-8.5,15.3-18.6,20.2-29.8c10.1,0.9,20.3,1.8,30.5,1.3c8-0.4,17.4-1,24.5-5.1
		c-3.5,13.9-7.7,27.8-13.9,40.8c-8.6,18-21.7,33.5-37.9,45.1c-8.5,6.1-17.5,11.3-26.8,16c-3.7-1.1-7.4-2.3-10.5-4.4v1.5
		c2.8,1.7,5.8,2.9,8.9,3.8c-2.9,1.5-5.9,2.9-8.9,4.3v2.7c8.2-3.9,16.4-8,24.2-12.6c3.3,7.9,11.9,13.1,20,15.6
		c-2.2,0.5-4.4,1-6.6,1.6c-8.1,2-16.1,4.6-23.8,7.9c0,0,0,0,0,0C7.7,556.4,3,553.6-1,550v1.7c3.7,3.1,7.8,5.5,12.3,7.2
		c-4.2,1.9-8.3,4-12.3,6.5v3c2.2-1.4,4.4-2.7,6.6-3.9c0,0.2,0,0.4,0.1,0.6c2.9,9.1,6.4,18.2,12.5,25.7c1.9,2.3,4.2,4.4,6.7,6.2h4.4
		c-3.1-1.8-6-4.2-8.4-6.9c-6.3-7.3-9.9-16.6-12.8-25.7c-0.1-0.4-0.4-0.6-0.7-0.8c2.5-1.3,5.1-2.5,7.8-3.5c6.9,0.3,13.6,1.4,20.2,3.2
		c4.2,8.2,6.6,17.1,7.3,26.2c0.1,0.8,1.3,0.8,1.2,0c-0.7-9-3.1-17.7-7-25.7c5.6,1.6,11.1,3.8,16.4,6.4c0,0.1,0,0.3,0,0.4
		c3.8,7.8,6.3,16.1,7.3,24.7c0.1,0.8,1.3,0.8,1.2,0c-1.1-8.5-3.4-16.6-7.1-24.4c5.3,2.7,10.3,6,15.1,9.6c0,0.1,0,0.2,0.1,0.4
		c2,4.6,3.2,9.4,3.7,14.4c0.1,0.8,1.3,0.8,1.2,0c-0.4-4.6-1.5-9.1-3.2-13.4c3.1,2.4,6,5,8.8,7.8c-2.4,2.3-4.6,4.8-6.8,7.3h3.3
		c4.8-5.2,9.9-10.1,15.4-14.5c10-8.6,20.5-16.6,31.3-24.1c10.6-7.3,21.6-14,32.9-20.2c-20.6,15-36.6,35.3-46.6,58.8h2.7
		c14-33,41.2-59,74.1-73.5c1.4-0.6,2.9-1.2,4.3-1.8c1.5-0.6,0.8-3-0.7-2.4s-3,1.2-4.5,1.9c-23.3,10.1-45.6,22.5-66.4,37.1
		c-8.1,5.7-15.9,11.6-23.5,17.9c0.1-0.3,0-0.6-0.1-0.9c-5.9-12.1-14.5-24.9-27.9-28.9c8.1-1.7,16.1-3.5,23.9-5.8
		c18.3-5.1,35-14.8,48.7-28c13.9-13.5,26.7-29.7,46.3-34.8c12.6-3.3,26.2-3.5,39.2-4.3c13.7-0.9,27.4-1.5,41.1-1.8
		C268.3,471.7,268.8,469.6,267.3,469.3z M252.6,318.5c0.7-0.4,1.6-0.1,2.1,0.5c1.5,0.2,1.7,0.9,0.7,1.9c-0.4,2-3.2,4.2-4.7,5.2
		c-2.8,1.5-5.7,2.7-8.8,3.5c-5.6,1.7-11.2,2.8-16.9,3.5c3.8-2.8,7.7-5.6,11.8-7.9C241.3,322.6,247.4,318.5,252.6,318.5z
		 M254.9,274.3c5.3,2-4.2,16.5-6.5,19.5c-3.8,5.1-8.3,9.7-13.2,13.7c0-0.1,0.1-0.1,0.1-0.2c1.4-6.7,3.9-13.2,7.2-19.2
		C244.3,285,251.1,272.8,254.9,274.3z M223.2,259.6c-0.5-2.4-1.6-6.7-0.8-9.1c-0.2-1.3,0.5-2,2.2-2.2c1.1-1.6,2.2-1.8,3.3-0.5
		c1.7,0.8,3.2,3,4.1,4.5c1.5,2.6,2.6,5.5,3.2,8.4c1.5,6.7,0.1,12.6-2,18.9c0,0.1,0,0.1-0.1,0.2c-2.5-3.4-4.8-7-6.7-10.9
		C225,265.9,223.9,262.8,223.2,259.6z M231.3,309.3c-6.5-2.9-12.1-7.3-17.5-11.9c-2.2-1.9-4.5-3.8-6-6.3c-1.8-3-2.6-8.6-0.6-11.7
		l5.5-3.5c1.2,0.3,2.3,0.9,3.2,1.7c1.1,0.9,2.1,1.9,3,3c2.3,2.8,4.4,5.8,6.1,8.9c3.2,5.7,5.7,11.7,7.5,18c0,0,0,0,0,0
		c-0.2,0.9-0.4,1.9-0.6,2.8C231.9,309.9,231.8,309.5,231.3,309.3z M207.4,317.5c-1.6-2.8-3.4-10.5,3.8-9.6c4.9,0.6,8.3,7,9.5,11.1
		c1.3,4.1,1.4,8.4,1.2,12.6c-3.3-3-6.6-6-9.9-9C210.2,321.1,208.7,319.4,207.4,317.5z M236.3,363.5l0.1,1.5l-4.1,2.3
		c-0.7,0-3-2.5-3.8-3.2c-1.8-1.7-3.5-3.4-5.1-5.3c-3.9-4.6-7.1-9.7-9.6-15.1c5.7-0.1,11,0.7,15.3,4.7
		C232.6,351.7,236.9,358.4,236.3,363.5z M194.4,331.1c-2.5-1.2-5.2-2.3-7.3-4.1c-1.2-1-4.4-4.7-3.5-6.7l4.4-3.1
		c0.8,0.2,1.6,0.5,2.3,0.9c8.7,3.9,13.1,11.3,17.1,19.1C203.1,335.2,198.7,333.1,194.4,331.1z M210.1,361.5c1.7,1.2,3.4,2.5,4.9,4
		c2.4,1.5,2.3,3-0.1,4.7c-0.5,2.4-1.6,3.1-3.3,2.3c-5.3,0.1-12.7-5.3-16.5-8.6c-4.4-3.8-7.3-8.5-10.9-12.9c6.2,1,12.3,2.9,18,5.7
		C205,358.1,207.6,359.7,210.1,361.5z M172.1,341.6c-1.1-1.8-1.8-3.9-2-6c-0.1-1.5,0-7.4,2.7-7.2c1.5,0.1,4.4,9.6,4.7,10.4
		c0.9,2.9,1.6,5.8,2,8.7C176.4,346.5,173.7,344.5,172.1,341.6z M192.9,458c-6.8-0.8-13.7-1.3-20.6-1.7c6.3-4.1,12.7-8.2,20.3-9.2
		c8,2.9,16,6,23.9,9.2c-2.7,0.9-5.3,2.3-7.5,3.9C203.7,459.4,198.3,458.6,192.9,458z M185.6,444.7c1.6,0.5,3.2,1.1,4.8,1.6
		c-7,1.5-13.2,5.4-19.2,9.4c-0.2,0.1-0.3,0.4-0.3,0.6c-2.3-0.1-4.5-0.2-6.8-0.3c-8.8-0.2-17.5-0.3-25.9,2.7c-3,1.1-5.8,2.3-8.6,3.7
		c3.6-10.1,8.5-19.3,19-23.7c0.4-0.2,0.5-0.5,0.4-0.8C161.4,438.5,173.7,440.8,185.6,444.7z M100.6,439.4c-3.8,0.6-7.5,1.3-11.3,2
		c-0.1,0-0.1,0-0.2,0c0.5-1.9,1-3.9,1.5-5.8C94.2,435.8,97.7,437.1,100.6,439.4C100.5,439.4,100.5,439.4,100.6,439.4z M103.7,387.1
		c0.1,4.7,0.1,9.5-0.2,14.2c-0.2,3.9,0.5,12.4-3.2,15.3c-1.4-2.4-2.4-4.9-3-7.5c-0.1-0.3-0.3-0.5-0.5-0.6
		C98.6,401.1,100.7,393.9,103.7,387.1z M102.4,419.7c0,0-0.1,0-0.1,0l0.4-0.1C102.6,419.6,102.5,419.6,102.4,419.7z M95.8,412.7
		c0.9,2.4,2.1,4.8,3.5,6.9c0.4,0.6,1.2,0.6,1.8,0.2c0,0,0.1,0,0.1,0c-0.3,0.1-0.4,0.3-0.5,0.6c-2.3,0.9-4.6,1.6-7,2.3
		C94.3,419.3,95,416,95.8,412.7z M122.9,416.2c3.8-0.6,7.4-1.3,11.3-0.6c3,0.6,12.2,2.1,10,7.5c-1.2,3-7.4,4.6-10.1,5.3
		c-3.3,0.9-6.8,1.2-10.2,1.1c-6.8-0.4-15-2.6-19.6-7.9c2.4-1,4.8-2.2,7.1-3.5L122.9,416.2z M110.3,415.8l-6.9,1.1
		c1.5-2.3,1.7-5.4,2-8.2c0.7-7.4,0.9-14.8,0.7-22.2c0-0.7-0.6-1.2-1.2-1.2c-0.1,0-0.3,0-0.4,0.1c1.7-3.6,3.6-7.1,5.9-10.4
		c1.5-2.1,3.1-4.2,4.7-6.1c-0.9,4.3-0.3,9.1,1.2,12.7c2.2,5.1,5,10,8.3,14.5c1.4,1.9,3,3.5,5.1,4c0,0,0,0.1,0,0.1
		C124,406.4,117.5,411.7,110.3,415.8z M140,348c2,9,5.9,17.6,11.5,25c-6.2,7.7-11.9,15.8-17.9,23c2.7-8.7,3.6-18.2-0.3-26.6
		c-1.4-2.8-5.1-8.3-9-9.7C129.2,355.3,134.5,351.5,140,348z M121.2,362.5c5.7-2.9,10.8,10,11.6,13.6c1.5,7.2,0,14.6-2.4,21.5
		c-4.9-1.5-9.2-11.5-11-15.1c-1.6-2.9-2.3-6.2-2.2-9.5c0.1-2.1,0.7-6.3,2.2-8.8C120,363.7,120.6,363.1,121.2,362.5z M161.9,394.6
		c1.5,0,3.5-0.3,4.9,0.2c1.8-0.2,2.6,0.9,2.4,3.2c2,2.2,1.8,3.5-0.6,3.8c-4.5,2.4-12,2.2-17,2c-5.7-0.3-11.3-1.6-16.5-3.6
		c5.7-2.4,11.8-4,17.9-4.9C155.9,394.9,158.9,394.7,161.9,394.6z M170,372.9c3,0.1,6,0.5,9,1.2c1.6,0.3,3.2,0.8,4.7,1.6
		c3.9,3.8,3.7,6.3-0.6,7.5c-4.3,1-11.2-1.6-15.4-2.9c-4.7-1.5-9.2-3.5-13.5-5.8c0.1-0.1,0.2-0.2,0.3-0.3
		C159.6,373,164.8,372.5,170,372.9z M155,356.5c-0.2,4.7-1,9.4-2.2,13.9c-5.1-7.2-8.7-15.3-10.5-23.9c3.2-2,6.5-4,9.8-5.8
		C155.7,344.6,155.2,351.7,155,356.5z M120.2,360c-0.2,0.1-0.3,0.2-0.5,0.4c-0.5,0.4-1,0.9-1.4,1.5c-0.7,0.7-1.5,1.5-2.2,2.2
		c-2.9,3.1-5.4,6.3-7.6,9.7c-7.8,0-15.6-0.5-21.9-5.7c0-0.1,0-0.2,0-0.3c8.5-7.4,18.8-12.3,29-16.9c10.8-4.7,21.9-8.6,33.2-11.5
		c0.3-0.1,0.5-0.4,0.4-0.8c-0.1-0.3-0.4-0.5-0.8-0.4c-11.5,3-22.7,6.9-33.5,11.7c-9.8,4.3-19.7,9.1-28,15.9
		c1.5-8.1,4.7-15.8,9.4-22.5c0.2-0.2,0.1-0.4,0-0.6c19-3.6,38.5-5.1,57.9-6.1C142.2,343.4,130.3,350.6,120.2,360z M95.1,343.1
		c-5.1,7.2-8.3,15.6-9.7,24.2c0,0,0,0,0,0c-0.1,0.1-0.2,0.3-0.1,0.5C74.6,371.7,65,378.3,57.6,387c-1.7-11.5-0.5-23.4,3.6-34.4
		c1.2-0.5,2.5-0.9,3.7-1.4C74.8,347.7,84.9,345.1,95.1,343.1z M45.7,292.1C45.7,292.1,45.7,292.1,45.7,292.1
		c-7.7,1.3-15.1,2.9-20.6,8.3c0.1-1.4,0.3-2.8,0.6-4.1c2.1-10.3,7.7-19.9,16.5-25.8c5.1,0.3,10.3,0.3,15.5,0c-0.5,1-1.1,1.9-1.6,2.9
		C52.3,279.4,46.5,285,45.7,292.1z M64.3,247.1c-0.6,7.8-2.7,15.4-6.2,22.3c-0.1-0.1-0.2-0.2-0.4-0.1c-5.1,0.3-10.2,0.3-15.3,0
		c0,0,0,0,0-0.1c0.7-3.7,1.6-7.4,2.5-11c4.5-0.4,8.9-1.1,12.8-3.7C60.5,252.6,62.7,250,64.3,247.1z M39.2,258.6
		c1.4-0.1,2.9-0.2,4.4-0.3c-0.9,3.8-1.8,7.6-2.6,11.4c-10.8,7.7-16,19.5-17,32c0,0,0,0-0.1,0.1c-5.3-8.4-8.7-17.6-7.9-27.6
		c0.6-1.3,1.2-2.5,1.9-3.7C22.8,262,29.8,259.1,39.2,258.6z M7.9,314.4c0.1-0.1,0.3-0.2,0.4-0.3c4.6-3.9,2.9-13.2,3.3-18.4
		c0.4-6.1,1.2-12.3,3.1-18.1c0.1,9.2,3.6,17.6,8.6,25.5c0.1,0.2,0.3,0.3,0.4,0.3c0,0,0.1,0,0.1,0c-0.2,3.5-0.1,7.1,0.4,10.6
		c1.3,11.4,2.1,22.3-7,30.7c-1.9,1.7-3.9,3.3-6,4.8C6.3,338.4,4.6,326.1,7.9,314.4z M41.2,358.3c-10.8,2.7-21.4-0.3-29.7-7.5
		c0-0.1,0.1-0.1,0.1-0.2c1.3-0.9,2.5-1.8,3.8-2.7c6.6-5.1,10.7-11.6,11.1-20c0.4-8.7-1.8-17.1-1.4-25.6c5.4-6,12.9-7.7,20.6-8.9
		c0,0.9,0,1.7,0.2,2.6c0.8,5,3.9,9.5,5.7,14c2.3,5.5,3.7,11.3,4.2,17.3c0.7,9.7-1.5,21.4-8.6,28.6c-1.8,0.8-3.5,1.7-5.2,2.6
		C41.7,358.4,41.5,358.2,41.2,358.3z M24.2,372.5c7.3-5.3,15-9.9,23.1-13.9c0.3,0,0.7-0.1,1-0.3c0.1-0.1,0.2-0.2,0.2-0.3
		c3.6-1.8,7.4-3.4,11.1-4.9c-4.1,11.2-5.2,23.3-3.1,35c-0.4,0.5-0.8,1-1.3,1.6c-8.4,10.8-13.2,23.7-18.1,36.4
		c-1.5,3.9-3.1,7.8-4.7,11.7C19.5,418.6,18.4,394.4,24.2,372.5z M88.2,434.5c-8,5-19.2,5.3-28.3,5.5c-8.8,0-17.6-0.5-26.3-1.4
		c0.2-0.5,0.4-0.9,0.6-1.4c5.6-13.4,9.9-27.6,17.6-40c1.6-2.7,3.5-5.2,5.4-7.7C67.6,400.2,82,402,96.3,400c0.8-0.1,0.8-1.4,0-1.2
		c-14,1.9-28.1,0.4-38.3-10.2c7.4-8.8,16.9-15.7,27.8-19.6c6.4,5.1,14,5.9,21.9,6c-7.8,12.4-11.6,26.5-14.9,41.2
		c-0.5,2.4-1.1,4.7-1.6,7.1c0,0,0,0-0.1,0c-1.1,0.3-1.1,1.6-0.4,2.2c-0.7,3-1.4,6-2.2,9C88.4,434.4,88.3,434.4,88.2,434.5z
		 M88.7,443.3c0.3,0.4,0.7,0.7,1.3,0.5c3-0.5,6.1-1,9.1-1.6c-7.8,15.5-12.4,32.6-13.3,50.1c0,0.8,1.2,0.8,1.2,0
		c0.9-17.3,5.4-34.2,13.2-49.6c0.1-0.2,0.1-0.5,0-0.6c13.3-2.2,26.7-4.1,40.2-4.4c2.4,0,4.8,0,7.2,0.1
		c-10.8,4.8-15.8,14.4-19.5,25.2c0,0.1,0,0.1,0,0.2c-15,7.9-27.6,19.9-41.2,30.2c0,0,0,0-0.1,0c-0.5-0.4-0.9,0.2-0.8,0.7
		c-8.5,6.4-17.3,12-27.4,15.4c0,0,0-0.1,0-0.1c-0.1-1.8,0.1-3.5,0.6-5.1c3.5-4.1,6.8-8.4,9.8-13.1C78.4,476.6,84.1,460,88.7,443.3z
		 M57.6,506c-0.2,1.1-0.3,2.2-0.2,3.4c0,0,0,0.1,0,0.1c-0.1,0.1-0.1,0.3-0.1,0.4c-1.6,0.5-3.2,1-4.8,1.4
		C54.3,509.6,56,507.8,57.6,506z M62.7,547.9c15.3,2.2,24.5,15.8,30.8,28.7c0.2,0.5,0.6,0.7,1,0.7c-2.3,1.9-4.6,3.8-6.9,5.7
		c-2.2,1.9-4.3,3.8-6.4,5.8c-3-2.9-6.1-5.7-9.4-8.3c4.6-3,10.1-4.1,15.6-3.2c0.8,0.1,1.1-1.1,0.3-1.2c-5.8-1-11.7,0.3-16.7,3.4
		c-0.1,0.1-0.1,0.2-0.2,0.3c-5.2-4-10.7-7.5-16.4-10.4c6.2-3.6,13.5-4.9,20.5-3.9c0.8,0.1,1.1-1.1,0.3-1.2
		c-7.7-1.2-15.6,0.4-22.2,4.4c-5.2-2.5-10.6-4.7-16.1-6.3c6-4.7,13.2-7.6,20.8-8c0.8,0,0.8-1.3,0-1.2c-8.2,0.5-15.9,3.6-22.2,8.9
		c-5.7-1.6-11.6-2.6-17.5-3.1c14-5.4,29-8.3,44.1-11.4C62.2,547.7,62.4,547.9,62.7,547.9z M45.7,548.2c-8.3-2-18.1-7.2-21.5-15.6
		c9.5-5.7,18.5-12.1,26.6-19.6c2.5-0.5,4.9-1.1,7.2-1.9c8.5,14.1,22.5,22.1,38.3,25.5c-0.2,0-0.3,0.1-0.4,0.1
		C79.5,542,62.4,544.5,45.7,548.2z M125.4,522.2c-8.2,5.7-17.3,10.3-26.8,13.6c-16.2-3.1-30.7-10.9-39.3-25.2
		c10.1-3.5,19.1-9.2,27.8-15.6c16.6,10.9,36.4,12.9,55.8,11.7C137.3,512.3,131.7,517.7,125.4,522.2z M147.4,502.1
		c-1.2,1.2-2.4,2.4-3.6,3.6c-0.1-0.2-0.3-0.3-0.5-0.2c-19.2,1.2-38.8-0.6-55.2-11.3c13.6-10.2,26.3-22.2,41.2-30.1
		c9.4,11.4,22,19.2,36.7,21.1c0,0,0,0,0.1,0C159.3,490.2,153.3,496.2,147.4,502.1z M168,483.8c-0.5,0.3-1,0.7-1.4,1
		c0.1-0.3-0.1-0.8-0.6-0.8c-14.2-1.9-26.6-9.5-35.6-20.5c1-0.5,2.1-1,3.1-1.5c9.2-4.3,18.6-5,28.6-4.8c3.1,0.1,6.2,0.2,9.4,0.3
		c3.9,8.2,11,13.3,19.1,16.9C182.5,476.1,174.9,479,168,483.8z M192.8,474C192.7,474,192.7,474,192.8,474
		c-8.3-3.5-15.8-8.3-19.9-16.4c6,0.3,12,0.8,18.1,1.4c5.7,0.6,11.4,1.4,17.1,2.3c-0.1,0.1-0.1,0.2,0,0.4c1.3,4,3.8,7.5,7.4,9.8
		c-6.7,0.5-13.3,1.2-19.9,2.1C194.6,473.7,193.7,473.9,192.8,474z M217.2,471.3c0-0.1-0.1-0.3-0.3-0.3c-3.6-2-6.3-5.4-7.7-9.3
		c0.1,0,0.1-0.1,0.2-0.1c12.8,2.1,25.6,4.8,38.1,8.3c0.1,0,0.1,0,0.2,0C237.5,470.1,227.3,470.6,217.2,471.3z M247.8,469.8
		c0.2,0,0.5-0.2,0.5-0.4c0.2-0.3,0-0.7-0.3-0.8c-12.2-3.4-24.6-6.1-37.1-8.1c2.3-1.5,4.9-2.7,7.5-3.5c12.2,4.8,24.5,9.5,37.3,12.6
		C253.1,469.7,250.4,469.7,247.8,469.8z"/>
	<path class="st1" d="M201.5,557.4c-31.1,5-58.2,22.1-83.9,39.6h4.5c23-15.6,47.2-30.5,74.5-36.2c-14.2,10.4-27.5,22.3-37.9,36.2
		h3.1c11.2-14.5,25.6-26.7,40.7-37.3c0.6-0.4,0.8-1.1,0.4-1.7C202.6,557.5,202,557.3,201.5,557.4z"/>
	<path class="st1" d="M830.4,505.7c-1.2,0.3-2.4,0.5-3.6,0.7c4.5-3.5,6.2-11.2,7-16.5c1.1-6.9,0.6-13.9-1.5-20.7
		c3.3-0.2,6.6-0.1,9.7,0.4v-1.3c-3.6-0.5-7.2-0.6-10.9-0.3c-0.5-1.8-1.6-3.4-3-4.6c4.7,0,9.3,0.1,14,0.3v-2.5h0
		c-29.2-1.5-58.3,2.1-86.2,10.8c0-0.1,0-0.3-0.1-0.5c-1.7-4.2-3-10-5.6-13.7c-0.9-1.7-3-2.2-4.7-1.3c0,0-0.1,0-0.1,0.1
		c-3.6,1.9-6.3,7.2-8.8,10.4l-10.9,13.8c-20.1,1.3-39.9,5.7-58.6,13.3c19.3-28.4,44.8-52.1,74.6-69.2
		c30.9-17.9,65.3-28.4,100.4-34.4V388c-12.2,2.1-24.3,4.7-36.2,8c10.9-4.5,20.3-11.6,25.1-22.7c0.1-0.1,0.1-0.3,0-0.4
		c0-0.1,0.1-0.1,0.1-0.2c0,0,0-0.1,0-0.1c3.7,0.6,7.3,1.2,11,1.7v-1.2h0c-3.6-0.5-7.3-1.1-10.9-1.7c1.1-12.4-1.5-24.8-7.6-35.6
		c-0.2-0.3-0.6-0.3-0.9-0.1c-0.2,0.2-0.3,0.5-0.2,0.7c6,10.6,8.6,22.7,7.5,34.8c-13.4-2.4-26.7-6.1-38.5-12.2
		c1.3-15,2.7-32.2-3.1-46.3c-0.3-0.7-1.5-0.4-1.2,0.3c5.7,13.7,4.4,30.6,3.2,45.4c-10.8-5.8-20.3-13.8-27.4-25
		c-5.3-8.2-8.3-17.6-10.9-27.2c7.6-13.9,12-29.2,12.6-45c0-0.8-1.2-0.8-1.2,0c-0.6,15.1-4.7,30-11.9,43.3
		c-1.5-5.7-2.9-11.4-4.4-16.9c-2.2-7.8-4.5-15.5-6.9-23.2c-1.9-5.8-4.2-11.5-8.3-16.2c1-7,0.3-14.3-2.1-20.9
		c-0.3-0.8-1.5-0.4-1.2,0.3c2.2,6.2,3,13,2.2,19.5c-0.1,0-0.1,0-0.2,0c0,0,0-0.1,0-0.1c-4.9-12.8-11.2-25.8-23.4-32.9
		c-0.3-0.1-0.7,0-0.8,0.3s0,0.6,0.2,0.7c11.7,6.9,17.9,19.4,22.6,31.6c-5.9-2.3-11.3-5.7-15.8-10.2c-0.5-0.5-1.4,0.4-0.8,0.9
		c5.1,5,11.2,8.8,17.8,11.1c6,6.3,8.2,14.9,10.7,23c2.6,8.5,5.1,17,7.4,25.6c0.8,2.8,1.5,5.6,2.3,8.4c-13.7-5.7-25.1-15.4-33.9-27.4
		c-0.4-0.7-1.5-0.1-1.1,0.6c9.1,12.5,21,22.4,35.4,28.3c0,0,0,0,0,0c3.3,11.7,7,23,14.7,32.8c6.8,8.7,15.1,15.1,24.3,20
		c0,0.2,0,0.3,0,0.5c-22.9,8.6-48,4.5-67.7-9.7c-0.6-0.5-1.2,0.5-0.6,1c20,14.5,45.7,18.6,68.9,9.8c0.2-0.1,0.4-0.3,0.4-0.4
		c0.1-0.1,0.2-0.3,0.2-0.5c0,0,0-0.1,0-0.1c11.8,6.1,25.1,9.6,38.5,12c0,0.1,0,0.2,0,0.3c0,0,0,0,0,0c-5.3,12.4-16.3,19.5-28.8,23.8
		c-14,4.8-28,8.5-42.8,5c-0.7-0.2-1.1,0.9-0.3,1.2c9.6,2.2,19,1.6,28.2-0.5c-17,6-33.4,13.4-48.8,22.6c0-0.6-0.3-1.1-0.9-1.2
		c-16.6-4.8-24.3-23.7-27.8-39c-4.3-18.9-3.8-38.4-2.7-57.6c1.8-32.9,5.8-69.1-10-99.5c-6.9-13.4-18-24.2-31.6-30.7
		c28.9-3.4,57,9.6,78.2,28.8c24.7,22.3,36.9,53.8,59,78.2c10.6,11.7,23.9,21.8,39.9,24c0.1,0,0.3,0,0.4,0l0.2-2.6
		c-34.7-4.9-52.7-42.4-70-68.4c-16.5-24.9-38.3-46.8-66.8-57.4c-14.6-5.5-30.3-7.1-45.7-4.5c-1.3,0.2-1,2,0,2.4
		c35.5,13.5,45.2,52.7,45.7,86.9c0.5,35.8-7.6,72.9,2.9,107.9c4.2,14,12.5,29.3,27.4,33.8c-15.4,9.3-29.9,20.4-43,33.4
		c-11.2,11.2-21.3,23.5-29.9,36.9c-0.8,1.2,0.7,2.1,1.7,1.7c19.7-8.4,40.6-13.3,62-14.6c0,0,0,0,0.1,0c0.1,0,0.1,0,0.2,0
		c0,0,0,0,0,0c0,0,0.1,0,0.1-0.1c0.3-0.1,0.5-0.4,0.6-0.6l13.3-16.8c1-1.2,2-2.5,3-3.7c1.9-2.3,2.3-4.2,5.4-0.3
		c2,2.5,3,7.5,4.2,10.5c0.2,0.6,0.8,0.8,1.3,0.8c-0.2,0.8,0.5,1.8,1.5,1.5c8.5-2.6,17.1-4.8,25.8-6.5c-15.6,14.8-26.5,34-32.5,54.6
		c-0.2,0.7,0.3,1.4,0.9,1.5c0.4,0.1,0.8,0,1.2-0.3c7.6-7.5,16-15.1,26.8-17.4c11.3-2.3,22.8,0.8,34,2.1c10.6,1.2,21.6,0,29.8-5.5
		l-0.1-2.9C838.6,502.8,834.6,504.7,830.4,505.7z M829.8,468.1c-7.1,0.6-14.3,2.5-21.2,5c-4.4-3.8-10.9-5.8-16.8-6.8
		c11.3-1.7,22.7-2.7,34.2-2.9C827.8,464.4,829.2,466.1,829.8,468.1z M785,468.6c0.4-0.4,0.5-0.8,0.3-1.2c0.9-0.2,1.8-0.3,2.7-0.5
		c0,0,0,0,0.1,0c6.3,0.8,14.2,2.5,19.3,6.7c-5.1,1.9-10,4.2-14.5,6.6c-1.3,0.7-2.7,1.5-4,2.2c0-0.2-0.2-0.4-0.4-0.4
		c-4.7-1.4-9.6-2-14.5-1.7C777.4,476.2,781,472.2,785,468.6z M771.6,494.5c0-0.3-0.1-0.5-0.5-0.6c-2.1-0.5-4.2-0.6-6.3-0.4
		c2.5-4.1,5.2-8.1,8.2-11.9c0,0,0,0,0,0c4.9-0.4,9.9,0.1,14.6,1.4c0,0,0,0.1,0,0.1C782.1,486.4,776.6,490.2,771.6,494.5z M764,494.9
		c2.3-0.4,4.6-0.3,6.8,0.2c0,0,0,0,0,0c-7.3,6.4-13.5,13.9-16.8,22.5c-0.1,0.1,0,0.3,0,0.4c-0.2,0.2-0.5,0.4-0.7,0.6
		C756,510.3,759.6,502.4,764,494.9z M770.6,497c-0.8,3.3-1.4,6.6-1.7,10.1c-4.8,2.3-9.1,5.6-13,9.2C759.1,509,764.4,502.6,770.6,497
		z M771.5,505.9c-0.4,0.2-0.8,0.4-1.3,0.6c0.4-3.7,1-7.4,2-10.9c4.8-4.1,10.1-7.8,15.4-10.9c0.2,6.3-0.8,12.7-3,18.7
		C780.2,503.5,775.7,504.2,771.5,505.9z M786,503.2c2.2-6.2,3.2-12.8,2.9-19.4c1.5-0.9,3.1-1.8,4.6-2.6c4.3-2.3,9-4.5,14-6.4
		c0.9,10.1-2.9,20.2-5.7,29.7c-1.5-0.2-3-0.4-4.4-0.6C793.6,503.5,789.8,503.2,786,503.2z M803.1,504.8c2.9-9.7,6.6-19.8,5.7-30
		c0-0.1,0-0.1-0.1-0.2c0.3,0,0.5-0.1,0.6-0.4c7-2.5,14.4-4.4,21.7-4.9c1.8,5.5,2.5,11.3,2,17.1c-0.5,5.7-2,15.3-7,19
		c-0.4,0.3-0.3,0.8,0,1.1C818.4,507.3,810.6,506,803.1,504.8z"/>
	<path class="st1" d="M753.2,189.8c6.4,5.9,12.7,3.5,19.2-1.1c0.1-0.1,0.1-0.1,0.2-0.2c0,0.1,0.1,0.2,0.1,0.4c0.2,0.7,0.9,1,1.6,0.8
		c0.1,0,0.1,0.1,0.2,0.1c5.2,2,9.9,4.8,14.1,8.3c-5-0.2-10-0.7-14.1,2.6c-3.3,2.6-5.8,7.7-3.9,11.8c5.2,11.3,20.9-1.7,22.3-9.3
		c0.2-1.3-1.3-1.9-2.1-1.3c-0.1-0.1-0.4-0.2-0.5-0.1l-1.6,0.4c-2.8,0.3-5.6,1-8.2,2.2c-0.7,0.3-0.5,1.4,0.3,1.2l0,0.1
		c0.2-0.1,0.4-0.2,0.6-0.3l6.7-1.8c-1.5,1.2-3,2.3-4.7,3.3c-0.7,0.4,0,1.5,0.6,1.1c2.3-1.4,4.3-3.1,6.3-4.7c-0.7,3-2.6,5.3-5,7.3
		c-1.7,1.5-3.6,2.6-5.8,3.3c-5,1.1-7.9-2.4-6.3-7.1c2.7-7.8,11.5-6.1,18.3-6.1c3.9,3.8,7.3,8.1,10.1,12.9c1.7,2.9,3.1,5.9,4.2,9
		c-8.1-2.5-21.1,3-20.3,11.6c0.5,5.5,7.1,7.3,11.8,6.7c5.8-0.7,9-5.4,10.8-10.6c1.5,6.3,2.4,12.9,3.5,19.6c0.6,4,1.5,8.2,2.9,12
		c-6.4-3.6-16.9-2.7-18,5.1c-0.7,4.8,1.6,8.9,6.6,9.3c6.6,0.6,10.8-3.1,14.7-7.8c1.9,2.8,4.4,5.2,7.8,6.8c3.2,1.6,6.7,2.2,10.1,2
		c-3.8,3.8-6.3,8.5-7.2,13.6c-0.5,2.8-1,7.7,2.4,8.9c3.4,1.2,8.5-0.7,11.2-3.5l-0.1-16.8c0-0.1-0.1-0.2-0.1-0.3
		c-0.6-1.5-3-0.8-2.4,0.7c1.4,3.3,2.9,6.9,2.4,10.6c-0.2,2.7-2,5.1-4.6,6c-1.2,0.5-3.9,1.4-5,0.9c-3.2-1.6-1.3-7.3-0.4-9.6
		c1.3-3.4,3.3-6.4,5.9-9c0.6-0.6,0.4-1.3-0.1-1.8c1.5-0.2,2.9-0.7,4.3-1.2v-2.5c-1.4,0.6-2.8,1.1-4.2,1.3v-1.9
		c0.2-0.1,0.4-0.2,0.4-0.6c0-0.7-0.2-1.5-0.4-2.2c-0.1-0.3-0.5-0.5-0.8-0.4c-0.3,0.1-0.4,0.3-0.4,0.6v4.6c-0.1,0-0.2,0-0.2,0
		c-1-3.7-1.4-7.9,0.6-11.2c1.2-1.9,3-3.3,5.1-4v-2.8H842c-2.7,0.7-5,2.3-6.6,4.5c-2.9,3.9-2.8,9-1.6,13.6
		c-5.1-0.3-10.1-2.8-13.5-7.1c0,0,0.1,0,0.1-0.1c4.6-4.2,9.6-9.9,11.2-16.1c0.7-2.9,1-10.1-2.6-11.4c-4.3-1.5-11.1,4.8-12.6,8.4
		c-1.1,2.7-1.3,5.6-1,8.5c-2.3-8.7-2.3-18.1-4.4-26.8c-0.1-0.3-0.2-0.6-0.2-1c4.3-1.9,7.7-5.5,9.3-9.9c1.4-4,0.8-11-3.2-13.4
		c-4-2.4-9.1-2.2-11.1,2.4c-0.9,2-1,4.1-0.8,6.3c-2.8-5.2-6.2-10-10.2-14.1c0.1,0,0.2-0.1,0.3-0.2c0.4,0.1,0.8,0.1,1.2-0.2
		c4.3-3.6,6.5-9.5,6.5-15.1c0-4.2-1.7-9.8-6.8-9.8s-8.1,4-8.4,8.7c-0.3,5.5,2.5,10.2,6,14.3c-0.4,0-0.8,0-1.2,0.1
		c-5-4.6-10.8-8.3-17.2-10.8c-0.1,0-0.2-0.1-0.3-0.1c-1.8-6.5-4.9-15.6-10.8-19.2c-5.7-3.5-13,2-16.2,6.7
		C744.1,180.4,749,185.9,753.2,189.8z M810.4,272.2c-3.4,2.1-11.2,3-11.5-2.9c-0.5-8.1,12.5-9.2,16.8-3.6c0,0,0,0-0.1,0
		c-0.6-0.2-1.3-0.3-2-0.4c-0.1-0.2-0.3-0.3-0.5-0.3c-2.3-0.2-4.6-0.1-6.8,0.5c-0.3,0.1-0.5,0.4-0.4,0.8c0.1,0.3,0.3,0.5,0.6,0.5
		c0.1,0,0.1,0,0.2,0l0,0.1c0.3-0.1,0.6-0.1,0.9-0.2c1.1-0.1,2.4-0.2,3.6-0.3c0.7,0,1.3,0,2,0.1c0.1,0,0.1,0,0.2-0.1
		c0.2,0,0.5,0,0.7,0.1c-0.9,0.6-2,1-3,1.6c-1.2,0.7-2.3,1.4-3.3,2.2c-0.6,0.5,0.3,1.4,0.9,0.9c1.3-1,2.6-1.9,4.1-2.6
		c1.1-0.5,2.2-1.1,3.1-1.9c0.1-0.1,0.1-0.3,0.1-0.4c0,0.1,0.1,0.1,0.1,0.2C814.5,268.6,812.7,270.8,810.4,272.2z M818.4,250.8
		c0.8-3.3,7.9-11,10.7-6.1c3.6,6.1-4.2,15.2-9,19.8c0,0,0,0,0-0.1c-0.2-0.4-0.3-0.7-0.5-1.1c0-0.2,0.1-0.3,0.1-0.5
		c0.3,0.1,0.6-0.1,0.7-0.4c1.1-3,2.3-6,3.6-9c0.3-0.7-0.8-1.4-1.1-0.6c-0.6,1.3-1.1,2.6-1.7,4c0.1-1.3,0.2-2.6,0.3-3.9c0,0,0,0,0,0
		c0,0,0,0,0-0.1h0c-0.1-0.7-1.1-0.7-1.2,0h0c0,0.1,0,0.1,0,0.2c-0.3,2.8-0.8,5.5-1.5,8.3C817.9,257.9,817.6,254.2,818.4,250.8z
		 M806.1,228.5c-1,3.3-2.5,6.9-5.6,8.7c-4.4,2.6-15.3,0.5-11.8-6.5c2.5-5,12.9-8.2,18.1-5.1c0.2,0.7,0.4,1.4,0.6,2.1
		C806.9,227.6,806.3,227.9,806.1,228.5z M814.2,207.6c4.5,1.7,4.9,8.3,3.2,12.1c-1.5,3-3.9,5.5-6.8,7c0.1-0.3,0.2-0.6,0.1-0.8
		c0-0.1-0.1-0.3-0.1-0.4c0.3,0,0.5-0.2,0.5-0.6c0-0.1,0-0.2,0-0.2c0.1,0,0.1,0,0.2,0c0.3,0,0.5-0.2,0.6-0.5l2.6-8.3
		c0.2-0.8-1-1.1-1.2-0.3l-1.6,5.3l-0.2-2.1c0-1.2-0.2-2.4-0.5-3.5c0,0,0,0,0,0l0,0c0-0.1-0.1-0.2-0.1-0.3c-0.3-0.6-1.2-0.3-1.2,0.3
		c-0.1,2.5,0,4.9,0,7.4C807.8,216.1,805,204.2,814.2,207.6z M797,178.5c6.6,2.4,2.9,13.4-1,18.2c-0.1-0.3-0.2-0.6-0.3-0.8
		c0.9-0.5,0.8-2.1,1-2.9c0.3-2,0.5-4,0.5-6.1c0-0.8-1.2-0.8-1.2,0c-0.1,1.4-0.1,2.7-0.3,4.1c0,0.6-0.1,1.3-0.2,1.9l-1.2-5.5
		c-0.1-0.3-0.5-0.5-0.8-0.4c-0.3,0.1-0.4,0.3-0.4,0.6c0,0.1,0,0.1,0,0.2l-0.1,0l0.2,0.8c0.1,2.2,0.5,4.4,1.1,6.5
		c-1.4-1.8-2.6-3.9-3.4-6.1C789.5,184.6,790.6,176.1,797,178.5z M752.3,173.6c3.1-2.9,6.9-6.1,11.5-2.6c1.5,1.1,2.7,3.4,3.6,4.9
		c1.5,2.6,2.8,5.3,3.8,8.1c0,0,0,0,0,0c-0.2,0.2-0.4,0.4-0.6,0.5c0-0.1,0-0.2-0.1-0.4c-1.6-2.1-3.4-4.1-4.7-6.4
		c-0.4-0.7-1.4-0.1-1.1,0.6c0.6,1.1,1.1,2.3,1.7,3.4c-1.2-0.5-2.3-1.1-3.5-1.7c-0.3-0.1-0.7,0-0.8,0.3s0,0.6,0.2,0.7c0,0,0,0,0,0
		l0,0.1c0.3,0.1,0.5,0.2,0.8,0.4c1.5,0.9,2.9,1.8,4.4,2.8c-1.3,0.4-2.7,0.5-4,0.5v0.1h0c-0.3,0-0.6,0.4-0.5,0.7
		c0,0.3,0.3,0.5,0.5,0.5c0.7,0,1.4,0,2.1-0.1c1.2,0,2.5,0,3.7,0c0.9,0,1.7-0.3,2.4-0.8c0.1,0.4,0.3,0.8,0.4,1.3
		c-0.3-0.1-0.6,0-0.9,0.2c-5.6,4-11,6.5-16.8,0.9c-1.1-1.1-2.2-2.3-3.2-3.6C748.4,180.4,749.2,176.5,752.3,173.6z M768.4,183.4
		c-0.1-0.1-0.2-0.1-0.2-0.2c0,0,0-0.1,0-0.1C768.2,183.2,768.3,183.3,768.4,183.4z M769.4,184.7
		C769.4,184.7,769.4,184.7,769.4,184.7c0.1,0.1,0.1,0.1,0.1,0.1c-0.1,0-0.1,0-0.2,0C769.3,184.8,769.4,184.7,769.4,184.7z"/>
	<path class="st1" d="M831.6,540.8c-0.3,0-0.6,0.4-0.5,0.7c0,0.2,0.2,0.5,0.5,0.5s0.6-0.4,0.5-0.7
		C832.1,541,831.8,540.8,831.6,540.8z"/>
	<path class="st1" d="M827.6,546c-0.3,0-0.6,0.4-0.5,0.7c0,0.3,0.2,0.5,0.5,0.5s0.6-0.4,0.5-0.7C828.1,546.2,827.8,546,827.6,546z"
		/>
	<path class="st1" d="M832.7,546.8c-0.3,0-0.6,0.4-0.5,0.7c0,0.2,0.2,0.5,0.5,0.5s0.6-0.4,0.5-0.7
		C833.2,547,832.9,546.8,832.7,546.8z"/>
	<path class="st1" d="M834.5,582.9c-0.3,0-0.6,0.4-0.5,0.7c0,0.3,0.2,0.5,0.5,0.5s0.6-0.4,0.5-0.7
		C835,583.1,834.7,582.9,834.5,582.9z"/>
	<path class="st1" d="M829.6,585.5c-0.3,0-0.6,0.4-0.5,0.7c0,0.3,0.2,0.5,0.5,0.5s0.6-0.4,0.5-0.7
		C830.1,585.7,829.8,585.5,829.6,585.5z"/>
	<path class="st1" d="M153.8,587.1c-0.3,0-0.6,0.4-0.5,0.7c0,0.2,0.2,0.5,0.5,0.5c0.3,0,0.6-0.4,0.5-0.7
		C154.3,587.3,154,587.1,153.8,587.1z"/>
	<path class="st1" d="M105.8,585.5c-0.3,0-0.6,0.4-0.5,0.7c0,0.3,0.2,0.5,0.5,0.5c0.3,0,0.6-0.4,0.5-0.7
		C106.3,585.7,106,585.5,105.8,585.5z"/>
	<path class="st1" d="M6.5,472.3c-3.2-4.6-5.7-9.7-7.5-15v3.7c1.7,4.2,3.9,8.3,6.4,12C5.9,473.6,7,473,6.5,472.3z"/>
	<path class="st1" d="M805.4,225.9c-0.1-0.1-0.3-0.1-0.4-0.1c0,0,0,0,0,0c-0.2-0.2-0.4-0.3-0.7-0.1c-0.2,0.1-0.3,0.2-0.4,0.3
		c-1.9,0.4-3.8,0.9-5.6,1.6c-0.7,0.2-1.5,0.6-2.1,0.9c-0.1,0-0.1,0.1-0.2,0.1c0,0-0.1,0-0.1,0c-0.3,0.2-0.7,0.4-1,0.6l0,0.1
		c0,0,0,0,0,0c-0.6,0.5-0.1,1.5,0.6,1.1c1.8-1.1,3.9-1.9,6.1-2.4c-1.5,1.4-2.8,3-3.9,4.7c-0.4,0.6,0.5,1.2,1,0.8
		c2.6-2,5.3-3.8,7-6.7C805.9,226.5,805.7,226.1,805.4,225.9z"/>
	<path class="st1" d="M837.7,279.5c-0.6,3.6-1.5,7.2-2.5,10.7c-0.1,0.3,0.1,0.7,0.4,0.8c0.3,0.1,0.7-0.1,0.8-0.4
		c0.3-0.9,0.5-1.7,0.8-2.5c0,1,0.1,2,0.2,3c0.1,0.8,1.3,0.8,1.2,0c-0.2-2.2-0.2-4.3-0.2-6.5c0-0.3-0.1-0.5-0.3-0.6
		c0.3-1.4,0.6-2.8,0.8-4.2C839.1,279,837.8,278.7,837.7,279.5z"/>
	<path class="st1" d="M772.5,452.5c-0.3,0-0.6,0.4-0.5,0.7c0,0.2,0.2,0.4,0.5,0.5c0.3,0,0.6-0.4,0.5-0.7
		C773,452.7,772.7,452.5,772.5,452.5z"/>
	<path class="st1" d="M764.1,456.6c-0.3,0-0.6,0.4-0.5,0.7c0,0.3,0.2,0.5,0.5,0.5s0.6-0.4,0.5-0.7
		C764.6,456.8,764.3,456.6,764.1,456.6z"/>
	<path class="st1" d="M770.3,459.2c-0.3,0-0.6,0.4-0.5,0.7c0,0.3,0.2,0.5,0.5,0.5s0.6-0.4,0.5-0.7
		C770.8,459.4,770.5,459.2,770.3,459.2z"/>
</g>
</svg>
