<?xml version="1.0" encoding="utf-8"?>
<!-- Generator: Adobe Illustrator 22.1.0, SVG Export Plug-In . SVG Version: 6.00 Build 0)  -->
<svg version="1.1" id="_x37_fb674e0-4aa5-460c-b2ad-1dd4c7605b4d"
	 xmlns="http://www.w3.org/2000/svg" xmlns:xlink="http://www.w3.org/1999/xlink" x="0px" y="0px" viewBox="0 0 841.9 595.3"
	 style="enable-background:new 0 0 841.9 595.3;" xml:space="preserve">
<style type="text/css">
	.st0{fill:#B9EFEF;}
</style>
<title>Plan de travail 1</title>
<path class="st0" d="M741.6,424.9c30.9-17.9,65.3-28.4,100.4-34.4V388c-55.5,9.4-109,31-149.5,71.3c-11.2,11.2-21.3,23.5-29.9,36.9
	c-0.8,1.2,0.7,2.1,1.7,1.7c19.7-8.4,40.6-13.3,62-14.6c1.6-0.1,1.6-2.6,0-2.5c-20.4,1.2-40.4,5.7-59.3,13.3
	C686.3,465.7,711.8,442,741.6,424.9z"/>
<path class="st0" d="M727.1,482.9l13.6-17.2c1-1.2,2-2.5,3-3.7c1.9-2.3,2.3-4.2,5.4-0.3c2,2.5,3,7.5,4.2,10.5c0.6,1.5,3,0.8,2.4-0.7
	c-1.7-4.2-3-10-5.6-13.7c-0.9-1.7-3-2.2-4.7-1.3c0,0-0.1,0-0.1,0.1c-3.6,1.9-6.3,7.2-8.8,10.4l-11.2,14.2
	C724.4,482.3,726.1,484.1,727.1,482.9L727.1,482.9z"/>
<path class="st0" d="M842,461.2c-29.3-1.5-58.6,2.1-86.6,10.9c-1.5,0.5-0.9,2.9,0.7,2.4c27.8-8.6,56.9-12.3,85.9-10.8V461.2z"/>
<path class="st0" d="M842,593.1c-34.2-8.6-69.6-11.7-104.7-9.2c20.6-6.2,42.2-7.1,63.7-7.4c13.7-0.2,27.4-0.4,41.1-0.6v-2.5
	c-14.3,0.2-28.6,0.4-42.9,0.6c-24.5,0.4-49.2,1.8-72.2,10.8c-1.2,0.5-1.2,2.6,0.3,2.5c38.4-4,77.3-1.1,114.8,8.4V593.1z"/>
<path class="st0" d="M842,557.9c-43.2-13.8-88.8-19-134-15.3c43.9-10.5,89-14.7,134-12.6v-2.5c-51.1-2.4-102.2,3.3-151.4,17
	c-1.6,0.4-0.9,2.6,0.7,2.4c50.6-6.7,102.1-2.1,150.8,13.6V557.9z"/>
<path class="st0" d="M842,325.2c-34.7-4.9-52.7-42.4-70-68.4c-16.5-24.9-38.3-46.8-66.8-57.4c-14.6-5.5-30.3-7.1-45.7-4.5
	c-1.3,0.2-1,2,0,2.4c35.5,13.5,45.2,52.7,45.7,86.9c0.5,35.8-7.6,72.9,2.9,107.9c4.2,14.1,12.6,29.5,27.7,33.9
	c0.7,0.2,1.4-0.2,1.5-0.9c0.2-0.7-0.2-1.4-0.9-1.5c-16.6-4.8-24.3-23.7-27.8-39c-4.3-18.9-3.8-38.4-2.7-57.6
	c1.8-32.9,5.8-69.1-10-99.5c-6.9-13.4-18-24.2-31.6-30.7c28.9-3.4,57,9.6,78.2,28.8c24.7,22.3,36.9,53.8,59,78.2
	c10.6,11.7,23.9,21.8,39.9,24c0.1,0,0.3,0,0.4,0L842,325.2z"/>
<path class="st0" d="M159.6,333.9c-33.2,1.5-67,4.1-98.3,15.9c-23.9,9-45.5,23.1-62.2,42.3v3.8c17.3-20.7,40.4-35.6,65.8-44.7
	c28.7-10.2,59.2-13,89.4-14.5c-13.8,7.6-27.3,15.9-38.2,27.4c-13.9,14.8-18.9,32.9-23.3,52.1c-4.7,20.5-9.5,41.4-18.6,60.6
	c-8.6,18-21.7,33.5-37.9,45.1C24.6,530.3,11.9,537-1,543.1v2.7c27.2-12.8,53.4-28.5,70-54.6c10.8-16.9,16.8-36.4,21.7-55.7
	c5.1-20.4,7.5-42.9,19.7-60.5s31.3-28.7,49.8-38.8c0.6-0.4,0.8-1.1,0.4-1.7C160.4,334.1,160,333.9,159.6,333.9z"/>
<path class="st0" d="M267.3,469.3c-29.5-4.7-55.9-19.6-84.3-28.1c-14.4-4.4-29.5-6.5-44.6-6c-16.5,0.5-32.9,3.3-49.1,6.2
	c-1.6,0.3-0.9,2.7,0.7,2.4c16.7-2.9,33.5-5.8,50.4-6.1c15.4-0.2,30.6,2.2,45.2,7c23.6,7.6,46,19.1,70.1,24.9
	c-20.1,0.5-40.4,1.3-60.2,4c-10,1.4-19.2,4.4-27.5,10.2c-7.6,5.2-14.1,11.8-20.6,18.3c-7,7.1-13.9,14.3-22,20.1
	c-9,6.3-19,11.2-29.6,14.5c-19.3,6.3-39.6,8.6-59.2,13.6c-13.2,3.3-26.1,8-37.6,15.1v3c27.2-17.4,61.8-18.7,92.7-27.8
	c18.3-5.1,35-14.8,48.7-28c13.9-13.5,26.7-29.7,46.3-34.8c12.6-3.3,26.2-3.5,39.2-4.3c13.7-0.9,27.4-1.5,41.1-1.8
	C268.3,471.7,268.8,469.6,267.3,469.3z"/>
<path class="st0" d="M76.8,597c4.8-5.2,9.9-10.1,15.4-14.5c10-8.6,20.5-16.6,31.3-24.1c10.6-7.3,21.6-14,32.9-20.2
	c-20.6,15-36.6,35.3-46.6,58.8h2.7c14-33,41.2-59,74.1-73.5c1.4-0.6,2.9-1.2,4.3-1.8c1.5-0.6,0.8-3-0.7-2.4s-3,1.2-4.5,1.9
	c-23.3,10.1-45.6,22.5-66.4,37.1c-11,7.7-21.5,16-31.7,24.7c-5.1,4.3-9.8,8.9-14.1,14H76.8z"/>
<path class="st0" d="M122.1,597c23-15.6,47.2-30.5,74.5-36.2c-14.2,10.4-27.5,22.3-37.9,36.2h3.1c11.2-14.5,25.6-26.7,40.7-37.3
	c0.6-0.4,0.8-1.1,0.4-1.7c-0.3-0.5-0.9-0.7-1.4-0.6c-31.1,5-58.2,22.1-83.9,39.6L122.1,597z"/>
<path class="st0" d="M91.7,425.7c14.3-3.3,27.3-10.7,37.5-21.3c9.7-9.8,17.3-21.4,26.1-32c9.5-11.3,20.1-20.5,34.9-23.5
	c7.2-1.5,14.6-2.2,21.3-5.4c5.8-2.9,10.7-7.3,14.3-12.7c10.2-14.7,11.7-33.5,10.1-50.8c-0.1-1.6-2.6-1.6-2.5,0
	c1.4,15.9,0.4,32.9-8.1,46.9c-4.2,6.9-10.2,12.7-17.9,15.5c-7.1,2.6-14.7,3-21.9,5c-24.2,6.5-37.1,31.1-52.2,48.9
	c-11.2,13.2-25.1,23.1-42.2,27C89.5,423.7,90.2,426.1,91.7,425.7L91.7,425.7z"/>
<path class="st0" d="M235.5,280.3c2.9-8.6,3.9-16.4,0.5-25.1c-1.7-4.3-7.6-14.1-13.9-11.4c-4.8,2-1.9,14.5-0.9,18.2
	c2.2,8.4,7,15.6,12.2,22.3c1,1.3,2.7-0.5,1.8-1.8c-3.4-4.2-6.3-8.7-8.8-13.6c-1.4-3-2.5-6.1-3.2-9.3c-0.5-2.4-1.6-6.7-0.8-9.1
	c-0.2-1.3,0.5-2,2.2-2.2c1.1-1.6,2.2-1.8,3.3-0.5c1.7,0.8,3.2,3,4.1,4.5c1.5,2.6,2.6,5.5,3.2,8.4c1.5,6.7,0.1,12.6-2,18.9
	C232.6,281.2,235,281.8,235.5,280.3L235.5,280.3z"/>
<path class="st0" d="M235.1,310.8c7.4-5.7,13.7-12.6,18.7-20.5c2.3-3.8,8.5-15.7,3.4-19.5c-4.6-3.4-11.5,7.8-13.6,10.7
	c-5.2,7.6-8.8,16.1-10.7,25.1c-0.4,1.6,2.1,2.2,2.4,0.7c1.4-6.7,3.9-13.2,7.2-19.2c1.8-3.1,8.6-15.3,12.4-13.8
	c5.3,2-4.2,16.5-6.5,19.5c-4.3,5.7-9.4,10.8-15,15.2C232,310,233.8,311.8,235.1,310.8L235.1,310.8z"/>
<path class="st0" d="M235,306.8c-2.6-9.4-6.9-18.2-12.6-26c-3.1-4.1-9.4-10.6-14.9-6.3s-4.6,14.6-0.7,19.6
	c5.5,7.2,15,13.7,23.2,17.4c1.5,0.7,2.7-1.5,1.3-2.2c-6.5-2.9-12.1-7.3-17.5-11.9c-2.2-1.9-4.5-3.8-6-6.3c-1.8-3-2.6-8.6-0.6-11.7
	l5.5-3.5c1.2,0.3,2.3,0.9,3.2,1.7c1.1,0.9,2.1,1.9,3,3c2.3,2.8,4.4,5.8,6.1,8.9c3.2,5.7,5.7,11.7,7.5,18c0.2,0.7,0.9,1,1.6,0.8
	C234.7,308.1,235.1,307.4,235,306.8L235,306.8z"/>
<path class="st0" d="M222.6,335.8c8.8-1,17.9-2.6,26.1-6.1c3.8-1.7,11.8-7.3,10-12.6c-1.5-4.4-11.4,0.1-13.9,1.1
	c-8.1,3.3-15.2,8.4-22.2,13.5c-1.3,0.9-0.1,3.1,1.3,2.2c4.2-3,8.4-6.1,12.9-8.7s10.6-6.7,15.8-6.7c0.7-0.4,1.6-0.1,2.1,0.5
	c1.5,0.2,1.7,0.9,0.7,1.9c-0.4,2-3.2,4.2-4.7,5.2c-2.8,1.5-5.7,2.7-8.8,3.5c-6.3,1.9-12.7,3.1-19.2,3.8
	C221,333.5,220.9,336,222.6,335.8L222.6,335.8z"/>
<path class="st0" d="M224.3,332.8c0.5-7.5-0.1-15.6-4.8-21.8c-2.6-3.4-7.9-7.5-12.4-5.2c-3.8,1.9-4.2,6.9-3.1,10.5
	c2.3,7.1,11.1,12.6,16.3,17.3c1.2,1.1,3-0.7,1.8-1.8c-3.4-3.1-6.8-6.1-10.1-9.2c-1.8-1.5-3.3-3.2-4.6-5.1c-1.6-2.8-3.4-10.5,3.8-9.6
	c4.9,0.6,8.3,7,9.5,11.1c1.4,4.5,1.4,9.2,1.1,13.8C221.7,334.4,224.2,334.4,224.3,332.8L224.3,332.8z"/>
<path class="st0" d="M211.4,343.8c6.6-0.4,12.8,0,17.7,4.6c3.5,3.3,7.8,10,7.2,15.1l0.1,1.5l-4.1,2.3c-0.7,0-3-2.5-3.8-3.2
	c-1.8-1.7-3.5-3.4-5.1-5.3c-3.9-4.7-7.2-9.8-9.7-15.3c-0.7-1.5-2.9-0.2-2.2,1.3c3.8,8.2,9.2,15.5,15.8,21.6c3,2.7,10,7.6,11.5,0.6
	c1.3-6.1-2.3-13.8-6.1-18.3c-5.6-6.7-13-7.9-21.4-7.4C209.8,341.4,209.8,343.9,211.4,343.8L211.4,343.8z"/>
<path class="st0" d="M213.2,343.4c-4.1-7.8-7-15.8-13.7-21.9c-3.4-3.1-10.3-8.8-15.4-6.4s-2.9,9.6,0.1,12.8s7.6,4.8,11.5,6.6
	l14.7,6.9c1.4,0.7,2.7-1.5,1.3-2.2c-5.8-2.7-11.6-5.4-17.3-8.1c-2.5-1.2-5.2-2.3-7.3-4.1c-1.2-1-4.4-4.7-3.5-6.7l4.4-3.1
	c0.8,0.2,1.6,0.5,2.3,0.9c11.5,5.1,15.5,16.3,20.9,26.6C211.8,346.1,213.9,344.8,213.2,343.4L213.2,343.4z"/>
<path class="st0" d="M181,350.8c6.2,7,10.4,14.4,18.8,19.4c4,2.4,15.1,8.5,19.1,3.8c5-5.9-4.2-12.4-8.2-15.1
	c-8.1-5.6-17.3-9.2-27.1-10.5c-1.6-0.2-2.3,2.2-0.7,2.4c6.7,0.9,13.2,2.9,19.3,5.9c2.8,1.4,5.4,3,7.9,4.8c1.7,1.2,3.4,2.5,4.9,4
	c2.4,1.5,2.3,3-0.1,4.7c-0.5,2.4-1.6,3.1-3.3,2.3c-5.3,0.1-12.7-5.3-16.5-8.6c-5-4.3-8.1-9.9-12.4-14.7
	C181.7,347.8,179.9,349.6,181,350.8L181,350.8z"/>
<path class="st0" d="M182.1,348.4c-0.5-3.5-5.5-28.9-12.3-21.1c-7.3,8.4,1.8,21.7,11.1,23.1c1.6,0.2,2.2-2.2,0.7-2.4
	c-4-0.6-7.5-2.9-9.5-6.4c-1.1-1.8-1.8-3.9-2-6c-0.1-1.5,0-7.4,2.7-7.2c1.5,0.1,4.4,9.6,4.7,10.4c1.1,3.4,1.8,6.8,2.3,10.3
	C179.9,350.7,182.3,350,182.1,348.4L182.1,348.4z"/>
<path class="st0" d="M151.9,375.9c7.4,4.3,15.5,7.2,23.9,8.8c4.5,0.8,11.9,2.8,13-3.5c2.7-14.6-28.8-11.1-35.8-9.2
	c-0.7,0.2-1.1,0.9-0.9,1.5c0.2,0.7,0.9,1.1,1.5,0.9c5.4-1.4,10.9-1.9,16.4-1.5c3,0.1,6,0.5,9,1.2c1.6,0.3,3.2,0.8,4.7,1.6
	c3.9,3.8,3.7,6.3-0.6,7.5c-4.3,1-11.2-1.6-15.4-2.9c-5.1-1.6-10-3.8-14.6-6.4c-0.6-0.4-1.4-0.2-1.7,0.4
	C151.1,374.8,151.3,375.6,151.9,375.9L151.9,375.9z"/>
<path class="st0" d="M154.3,374.1c2.2-6.9,3.4-14.1,3.3-21.4c-0.1-5-0.2-11-4.3-14.5c-1.2-1-3,0.7-1.8,1.8
	c4.3,3.7,3.7,11.4,3.5,16.5c-0.3,5.8-1.3,11.5-3.1,17C151.4,374.9,153.8,375.6,154.3,374.1z"/>
<path class="st0" d="M139.8,347c2.1,10,6.4,19.4,12.8,27.4c1,1.2,2.8-0.5,1.8-1.8c-6-7.7-10.2-16.7-12.1-26.3
	C141.9,344.8,139.5,345.4,139.8,347L139.8,347z"/>
<path class="st0" d="M130.4,401c8.2,3.9,17.2,5.7,26.3,5.3c4.7-0.2,16.4-0.4,17.3-6.8c2.1-15.5-35.5-3.5-41.2-1.1
	c-1.5,0.6-0.2,2.8,1.3,2.2c6-2.6,12.4-4.4,18.9-5.3c2.9-0.4,5.9-0.6,8.9-0.7c1.5,0,3.5-0.3,4.9,0.2c1.8-0.2,2.6,0.9,2.4,3.2
	c2,2.2,1.8,3.5-0.6,3.8c-4.5,2.4-12,2.2-17,2c-6.9-0.4-13.6-2.1-19.8-5C130.2,398.2,128.9,400.4,130.4,401L130.4,401z"/>
<path class="st0" d="M132.7,398.7c3.4-9.4,5-20.1,0.6-29.4c-1.9-3.9-8.5-13.2-13.6-8.9c-5.7,4.9-6,14.8-3.4,21.2
	c2.2,5.1,5,10,8.3,14.5c1.9,2.5,4,4.5,7.3,4.2c1.6-0.1,1.6-2.6,0-2.5c-5.6,0.4-10.5-11.3-12.5-15.3c-1.6-2.9-2.3-6.2-2.2-9.5
	c0.1-2.7,1.1-8.9,3.8-10.4c5.8-3.3,11,9.9,11.8,13.5c1.5,7.4-0.1,15-2.6,22C129.7,399.6,132.1,400.3,132.7,398.7L132.7,398.7z"/>
<path class="st0" d="M100.8,421.4c4.8,7.3,14.6,10.2,23,10.6c6.7,0.3,19.5-1.2,22.8-8.2c3.7-7.9-8.2-10.1-13.4-10.8
	c-4.6-0.6-9.2,0.5-13.8,1.3l-18.8,3.1c-1.6,0.3-0.9,2.7,0.7,2.4l21.6-3.6c3.8-0.6,7.4-1.3,11.3-0.6c3,0.6,12.2,2.1,10,7.5
	c-1.2,3-7.4,4.6-10.1,5.3c-3.3,0.9-6.8,1.2-10.2,1.1c-7.4-0.4-16.5-3-20.8-9.4C102,418.9,99.8,420.1,100.8,421.4L100.8,421.4z"/>
<path class="st0" d="M101.1,419.1c3.7-2.2,3.9-6.5,4.3-10.4c0.7-7.4,0.9-14.8,0.7-22.2c0-0.7-0.6-1.2-1.2-1.2s-1.2,0.6-1.2,1.2
	c0.1,4.9,0.1,9.9-0.2,14.8c-0.2,4.1,0.6,13.1-3.6,15.6c-0.6,0.4-0.7,1.2-0.3,1.7C99.9,419.1,100.5,419.3,101.1,419.1L101.1,419.1z"
	/>
<path class="st0" d="M101.4,418.3c-1.9-2.8-3.3-6-4.1-9.2c-0.2-0.7-0.9-1-1.6-0.8c-0.6,0.2-1,0.8-0.8,1.5c0.9,3.5,2.4,6.8,4.4,9.8
	C100.1,420.8,102.3,419.6,101.4,418.3L101.4,418.3z"/>
<path class="st0" d="M90.3,435.6c3.7,0.1,7.3,1.4,10.2,3.8c1.2,1,3-0.7,1.8-1.8c-3.3-2.9-7.5-4.5-11.9-4.6c-0.7,0-1.2,0.6-1.2,1.2
	S89.6,435.6,90.3,435.6z"/>
<path class="st0" d="M842,500.1c-3.4,2.7-7.4,4.6-11.6,5.6c-10.9,2.6-22.2-0.3-33-1.7c-8.7-1.1-17.7-1.4-25.9,1.9
	c-7,2.8-12.8,7.6-18.2,12.7c6.3-19,16.9-36.4,31.7-50c1.2-1.1-0.6-2.9-1.8-1.8c-16.3,15-27.6,34.6-33.8,55.8
	c-0.2,0.7,0.3,1.4,0.9,1.5c0.4,0.1,0.8,0,1.2-0.3c7.6-7.5,16-15.1,26.8-17.4c11.3-2.3,22.8,0.8,34,2.1c10.6,1.2,21.6,0,29.8-5.5
	L842,500.1z"/>
<path class="st0" d="M842,273.3c-8.5,4-18.9,0.4-23.7-8.6c-5.5-10.5-4.5-23.1-7.3-34.4c-4.6-18.8-17.5-35.9-35.8-42.9
	c-1.5-0.6-2.2,1.9-0.7,2.4c11.6,4.4,20.9,13.2,27.1,23.8c6.7,11.4,8,23.5,10,36.3c1.5,9.7,4.4,20.7,14,25.4
	c5.1,2.5,11.1,2.7,16.4,0.5V273.3z"/>
<path class="st0" d="M775.2,188.4c-1.7-6.5-4.9-16.5-11.1-20.3c-5.7-3.5-13,2-16.2,6.7c-3.8,5.6,1.1,11.1,5.3,15
	c6.4,5.9,12.7,3.5,19.2-1.1c1.3-0.9,0.1-3.1-1.3-2.2c-5.6,4-11,6.5-16.8,0.9c-1.1-1.1-2.2-2.3-3.2-3.6c-2.7-3.4-1.9-7.3,1.2-10.2
	s6.9-6.1,11.5-2.6c1.5,1.1,2.7,3.4,3.6,4.9c2.4,4.1,4.2,8.4,5.3,13c0.2,0.7,0.9,1,1.6,0.8C775,189.7,775.4,189.1,775.2,188.4
	L775.2,188.4z"/>
<path class="st0" d="M796.3,200.1c4.3-3.6,6.5-9.5,6.5-15.1c0-4.2-1.7-9.8-6.8-9.8s-8.1,4-8.4,8.7c-0.3,5.9,3,11,6.8,15.2
	c1.1,1.2,2.8-0.6,1.8-1.8c-2.3-2.3-4.2-5.2-5.3-8.3c-1.4-4.4-0.3-12.9,6.1-10.5c7.4,2.7,1.8,16.2-2.4,19.7
	C793.3,199.3,795,201.1,796.3,200.1L796.3,200.1z"/>
<path class="st0" d="M794.4,198.1c-6.6,0.7-14.2-1.9-19.9,2.6c-3.3,2.6-5.8,7.7-3.9,11.8c5.2,11.3,20.9-1.7,22.3-9.3
	c0.3-1.6-2.1-2.2-2.4-0.7c-0.6,3.4-2.6,5.9-5.2,8.1c-1.7,1.5-3.6,2.6-5.8,3.3c-5,1.1-7.9-2.4-6.3-7.1c3.1-9,14.3-5.4,21.3-6.2
	C796,200.4,796,197.9,794.4,198.1L794.4,198.1z"/>
<path class="st0" d="M809.1,230c5.1-1.7,9.1-5.6,11-10.6c1.4-4,0.8-11-3.2-13.4s-9.1-2.2-11.1,2.4c-2.5,5.6,0.9,12.7,2.5,18.1
	c0.2,0.7,0.9,1.1,1.5,0.9c0.7-0.2,1.1-0.9,0.9-1.5c-1.3-4.4-7.6-22.4,3.5-18.3c4.5,1.7,4.9,8.3,3.2,12.1c-1.8,3.7-5,6.6-8.9,8
	C806.9,228.1,807.6,230.6,809.1,230L809.1,230z"/>
<path class="st0" d="M810.3,225.5c-6-7.7-25.8-1.8-24.8,8.7c0.5,5.5,7.1,7.3,11.8,6.7c6.2-0.8,9.5-6.1,11.2-11.7
	c0.2-0.7-0.3-1.3-0.9-1.5c-0.6-0.2-1.3,0.2-1.5,0.8c-1,3.3-2.5,6.9-5.6,8.7c-4.4,2.6-15.3,0.5-11.8-6.5c2.8-5.6,15.7-9,19.9-3.6
	C809.5,228.5,811.3,226.8,810.3,225.5z"/>
<path class="st0" d="M820.4,267.7c4.6-4.2,9.6-9.9,11.2-16.1c0.7-2.9,1-10.1-2.6-11.4c-4.3-1.5-11.1,4.8-12.6,8.4
	c-2.2,5.4-0.9,12,1.5,17.1c0.7,1.5,2.8,0.2,2.2-1.3c-1.9-4.1-2.8-9.1-1.7-13.6c0.8-3.3,7.9-11,10.7-6.1c4,6.8-6.1,17.2-10.4,21.1
	C817.4,267.1,819.2,268.8,820.4,267.7L820.4,267.7z"/>
<path class="st0" d="M818.9,266.6c-3.3-8.2-20.9-9.8-22.4,0.4c-0.7,4.8,1.6,8.9,6.6,9.3c6.9,0.6,11.1-3.4,15.2-8.4
	c1-1.2-0.8-3-1.8-1.8c-1.8,2.2-3.7,4.6-6.1,6.1c-3.4,2.1-11.2,3-11.5-2.9c-0.5-8.8,14.7-9.3,17.6-2.1
	C817.1,268.8,819.5,268.1,818.9,266.6L818.9,266.6z"/>
<path class="st0" d="M842,256.8c-2.7,0.7-5,2.3-6.6,4.5c-3.2,4.3-2.7,10-1.2,14.9c0.2,0.7,0.9,1.1,1.5,0.9c0.7-0.2,1.1-0.9,0.9-1.5
	c-1.2-3.9-1.8-8.4,0.4-12c1.2-1.9,3-3.3,5.1-4V256.8z"/>
<path class="st0" d="M842,279.5c0-0.1-0.1-0.2-0.1-0.3c-0.6-1.5-3-0.8-2.4,0.7c1.4,3.3,2.9,6.9,2.4,10.6c-0.2,2.7-2,5.1-4.6,6
	c-1.2,0.5-3.9,1.4-5,0.9c-3.2-1.6-1.3-7.3-0.4-9.6c1.3-3.4,3.3-6.4,5.9-9c1.1-1.2-0.7-2.9-1.8-1.8c-3.9,3.8-6.5,8.6-7.5,13.9
	c-0.5,2.8-1,7.7,2.4,8.9s8.5-0.7,11.2-3.5L842,279.5z"/>
<path class="st0" d="M59.6,271.6c5.2-10,7.7-21.2,7.2-32.4c0-1.4-2.2-1.8-2.4-0.3c-2.2,10.6-9.4,15.9-19.9,16.8
	c-6.4,0.6-13,0.1-18.9,3.2c-12.3,6.4-15.5,22.4-16.5,34.9c-0.4,4.5-0.4,9-0.7,13.5c-0.4,5.3-4.7,6.1-8.5,8.4l-0.8,0.5v3
	c0.7-0.5,1.4-0.9,2.1-1.3c2.3-1.3,5.1-2.1,7.1-3.8c4.6-3.9,2.9-13.2,3.3-18.4c0.6-8.7,1.9-17.6,6.3-25.3
	c4.9-8.4,11.9-11.3,21.3-11.8c6.3-0.4,13-0.4,18.5-4.1c2.8-1.9,5-4.5,6.6-7.4c-0.7,9.3-3.5,18.3-8.3,26.3
	c-4.3,7-11.7,13.5-10.2,22.6c0.8,5,3.9,9.5,5.7,14c2.3,5.5,3.7,11.3,4.2,17.3c0.7,10-1.6,22.1-9.2,29.2c-1.2,1.1,0.6,2.9,1.8,1.8
	c14.8-14,10.8-38.4,3.1-54.7c-3.1-6.5-4.5-11.9-0.5-18.4C53.5,280.3,57.1,276.4,59.6,271.6z"/>
<path class="st0" d="M62.7,547.9c15.3,2.2,24.5,15.8,30.8,28.7c0.7,1.5,2.9,0.2,2.2-1.3c-6.5-13.4-16.4-27.6-32.3-29.9
	C61.8,545.3,61.1,547.7,62.7,547.9L62.7,547.9z"/>
<path class="st0" d="M842,373.1c-30.2-4.2-61.7-12.3-79.1-39.7c-8.7-13.6-11.4-30.4-15.8-45.8c-2.2-7.8-4.5-15.5-6.9-23.2
	c-2-6.2-4.5-12.3-9.1-17.1c-0.6-0.6-1.5,0.3-0.9,0.9c6.2,6.3,8.4,15.1,10.9,23.3c2.6,8.5,5.1,17,7.4,25.6
	c4.2,15.1,7.5,30.1,17.4,42.7c18.6,23.6,47.7,30.6,76.1,34.5V373.1z"/>
<path class="st0" d="M842,468.3c-16.5-2.3-35,4.3-49.1,11.9c-15.3,8.2-32.4,20.7-38.9,37.4c-0.3,0.7,0.9,1.1,1.2,0.3
	c6.4-16.3,23.4-28.6,38.3-36.6c13.9-7.4,32.3-14,48.5-11.7V468.3z"/>
<path class="st0" d="M831.6,542c0.3,0,0.6-0.4,0.5-0.7c0-0.3-0.3-0.5-0.5-0.5c-0.3,0-0.6,0.4-0.5,0.7
	C831.1,541.7,831.3,542,831.6,542z"/>
<path class="st0" d="M827.6,547.2c0.3,0,0.6-0.4,0.5-0.7c0-0.3-0.3-0.5-0.5-0.5c-0.3,0-0.6,0.4-0.5,0.7
	C827.1,547,827.3,547.2,827.6,547.2z"/>
<path class="st0" d="M832.7,548c0.3,0,0.6-0.4,0.5-0.7c0-0.3-0.3-0.5-0.5-0.5c-0.3,0-0.6,0.4-0.5,0.7
	C832.2,547.7,832.4,548,832.7,548z"/>
<path class="st0" d="M834.5,584.1c0.3,0,0.6-0.4,0.5-0.7c0-0.3-0.3-0.5-0.5-0.5c-0.3,0-0.6,0.4-0.5,0.7
	C834,583.9,834.2,584.1,834.5,584.1z"/>
<path class="st0" d="M829.6,586.7c0.3,0,0.6-0.4,0.5-0.7c0-0.3-0.3-0.5-0.5-0.5c-0.3,0-0.6,0.4-0.5,0.7
	C829.1,586.5,829.3,586.7,829.6,586.7z"/>
<path class="st0" d="M153.8,588.3c0.3,0,0.6-0.4,0.5-0.7c0-0.3-0.3-0.5-0.5-0.5c-0.3,0-0.6,0.4-0.5,0.7
	C153.3,588,153.5,588.3,153.8,588.3z"/>
<path class="st0" d="M105.8,586.7c0.3,0,0.6-0.4,0.5-0.7c0-0.3-0.3-0.5-0.5-0.5c-0.3,0-0.6,0.4-0.5,0.7
	C105.3,586.5,105.5,586.7,105.8,586.7z"/>
<path class="st0" d="M12.4,560c25.9,0.5,49.8,11.8,68.1,29.9c0.2,0.2,0.6,0.2,0.9,0c0.2-0.2,0.2-0.6,0-0.9l0,0
	c-18.5-18.3-42.8-29.8-69-30.3c-0.3,0-0.6,0.4-0.5,0.7C11.9,559.7,12.1,560,12.4,560L12.4,560z"/>
<path class="st0" d="M248,468.6c-18.1-5-36.5-8.5-55.1-10.6c-9.5-1.1-19.1-1.7-28.8-2c-8.8-0.2-17.5-0.3-25.9,2.7
	c-33.2,11.9-53.6,47-89.5,53.4c-0.8,0.1-0.5,1.3,0.3,1.2c33.9-6,54.5-37.3,84.5-51.3c9.2-4.3,18.6-5,28.6-4.8
	c9.6,0.2,19.2,0.8,28.8,1.8c19.1,2.1,38.1,5.7,56.6,10.8c0.3,0.1,0.7-0.1,0.8-0.4C248.5,469.1,248.3,468.7,248,468.6L248,468.6z"/>
<path class="st0" d="M85.7,367.6c-12,4.3-22.6,12-30.4,22.2c-8.4,10.8-13.2,23.7-18.1,36.4c-5.5,14.1-11.2,28-21.8,39.1
	c-5,5.1-10.5,9.7-16.4,13.6v1.5c4.9-3.2,9.5-6.9,13.9-10.8c9.7-9.1,16.2-20.2,21.3-32.4c5.6-13.4,9.9-27.6,17.6-40
	c8-13,19.9-23.2,34.3-28.3C86.8,368.5,86.5,367.3,85.7,367.6z"/>
<path class="st0" d="M41.7,269.2C26.8,279.3,22.2,297,24.2,314c1.3,11.4,2.1,22.3-7,30.7c-5.3,4.9-11.8,8.7-18.2,12.4v1.4
	c5.6-3.2,11.1-6.7,16.3-10.6c6.6-5.1,10.7-11.6,11.1-20c0.5-10.7-2.9-20.9-0.7-31.6c2.1-10.4,7.8-20,16.6-25.9
	C43,269.9,42.4,268.8,41.7,269.2z"/>
<path class="st0" d="M42.2,270.1c0.8-4.1,1.8-8.2,2.8-12.3c0.1-0.3-0.1-0.7-0.4-0.8c-0.3-0.1-0.7,0.1-0.8,0.4c-1,4.1-2,8.2-2.8,12.3
	C40.8,270.5,42.1,270.9,42.2,270.1z"/>
<path class="st0" d="M42,270.5c5.2,0.3,10.5,0.3,15.7,0c0.8,0,0.8-1.3,0-1.2c-5.2,0.3-10.5,0.3-15.7,0
	C41.2,269.3,41.2,270.5,42,270.5z"/>
<path class="st0" d="M14.9,273.3c-1.1,10.9,2.7,20.7,8.4,29.8c0.4,0.7,1.5,0,1.1-0.6c-5.7-8.8-9.4-18.5-8.3-29.1
	C16.3,272.5,15,272.5,14.9,273.3z"/>
<path class="st0" d="M24.2,303.2c5.5-6.9,13.5-8.6,21.8-9.9c0.8-0.1,0.5-1.3-0.3-1.2c-8.5,1.4-16.7,3.3-22.3,10.2
	C22.9,302.9,23.7,303.8,24.2,303.2z"/>
<path class="st0" d="M7.9,310.5c-5.1,13.3-3.2,27.6,2.5,40.4c0.3,0.7,1.4,0.1,1.1-0.6c-5.6-12.5-7.4-26.4-2.4-39.5
	C9.4,310.1,8.2,309.7,7.9,310.5z"/>
<path class="st0" d="M10.5,351.7c8.8,7.4,19.8,10.5,31,7.8c0.8-0.2,0.5-1.4-0.3-1.2c-10.8,2.7-21.4-0.3-29.8-7.5
	C10.8,350.3,9.9,351.2,10.5,351.7L10.5,351.7z"/>
<path class="st0" d="M2.7,389.2c-1.3-0.4-2.5-1-3.7-1.7v1.5c1.1,0.6,2.2,1.1,3.3,1.5C3.1,390.7,3.5,389.5,2.7,389.2z"/>
<path class="st0" d="M86.6,368.3c1.3-9,4.7-17.5,9.8-24.9c0.5-0.7-0.6-1.3-1.1-0.6c-5.3,7.5-8.7,16.2-10,25.2
	C85.3,368.8,86.5,369.1,86.6,368.3L86.6,368.3z"/>
<path class="st0" d="M85.3,368.6c6.8,5.8,15.1,6.4,23.7,6.4c0.3,0,0.6-0.4,0.5-0.7c0-0.3-0.3-0.5-0.5-0.5c-8.2,0-16.3-0.4-22.8-6
	C85.6,367.2,84.7,368.1,85.3,368.6L85.3,368.6z"/>
<path class="st0" d="M86.4,368.1c8.5-7.5,19-12.5,29.3-17.1c10.8-4.7,21.9-8.6,33.2-11.5c0.3-0.1,0.5-0.4,0.4-0.8
	c-0.1-0.3-0.4-0.5-0.8-0.4c-11.5,3-22.7,6.9-33.5,11.7c-10.4,4.6-21,9.7-29.6,17.3C84.9,367.8,85.8,368.7,86.4,368.1L86.4,368.1z"/>
<path class="st0" d="M60.3,351.5c-4.6,11.8-5.9,24.6-3.7,37c0.1,0.8,1.3,0.5,1.2-0.3c-2-12.2-0.8-24.8,3.7-36.4
	C61.8,351,60.6,350.7,60.3,351.5L60.3,351.5z"/>
<path class="st0" d="M56.7,389c10.4,11.2,25.1,13,39.6,11c0.8-0.1,0.8-1.4,0-1.2c-14.2,1.9-28.5,0.4-38.7-10.6
	C57,387.5,56.2,388.4,56.7,389z"/>
<path class="st0" d="M23.4,370.7C17,393.5,17.9,419,31.7,439c0.5,0.6,1.5,0,1.1-0.6c-13.6-19.7-14.5-44.8-8.2-67.2
	c0.1-0.3-0.1-0.7-0.4-0.8C23.8,370.3,23.5,370.4,23.4,370.7L23.4,370.7z"/>
<path class="st0" d="M32.3,439.7c10.4,0.9,20.8,1.9,31.3,1.4c8.3-0.4,18-1,25.2-5.5c0.7-0.4,0-1.5-0.6-1.1c-8,5-19.2,5.3-28.3,5.5
	c-9.2,0-18.4-0.5-27.5-1.5C31.5,438.4,31.5,439.6,32.3,439.7L32.3,439.7z"/>
<path class="st0" d="M6.5,472.3c-3.2-4.6-5.7-9.7-7.5-15v3.7c1.7,4.2,3.9,8.3,6.4,12C5.9,473.6,7,473,6.5,472.3z"/>
<path class="st0" d="M6.3,474.6c8.4,7.7,19.7,10.9,30.9,11.8c10.7,0.9,24.2,1.8,33.8-3.8c0.3-0.2,0.3-0.6,0.1-0.9
	c-0.2-0.2-0.5-0.3-0.7-0.2c-9,5.2-21.4,4.4-31.5,3.7c-11.4-0.7-23-3.7-31.6-11.5C6.6,473.1,5.7,474,6.3,474.6L6.3,474.6z"/>
<path class="st0" d="M10.1,538.1c-3.9-1.1-7.8-2.4-11.1-4.6v1.5c3.4,2,7,3.4,10.8,4.3c0.3,0.1,0.7-0.1,0.8-0.5
	C10.6,538.5,10.4,538.2,10.1,538.1z"/>
<path class="st0" d="M171.8,456.7c7-4.6,14.1-9.2,22.7-9.8c0.8,0,0.8-1.3,0-1.2c-8.8,0.7-16.1,5.3-23.3,10
	C170.5,456.1,171.2,457.2,171.8,456.7L171.8,456.7z"/>
<path class="st0" d="M171.1,456.8c4.1,9.2,12,14.5,21,18.3c0.7,0.3,1.4-0.8,0.6-1.1c-8.8-3.7-16.6-8.9-20.6-17.9
	C171.8,455.4,170.7,456,171.1,456.8L171.1,456.8z"/>
<path class="st0" d="M129.3,463.3c3.6-10.5,8.5-20.1,19.3-24.6c0.7-0.3,0.4-1.5-0.3-1.2c-11.3,4.7-16.4,14.5-20.2,25.5
	C127.8,463.8,129.1,464.1,129.3,463.3L129.3,463.3z"/>
<path class="st0" d="M128.8,463.5c9.4,11.7,22.2,19.8,37.2,21.7c0.8,0.1,0.8-1.1,0-1.2c-14.6-1.9-27.2-9.9-36.3-21.3
	C129.1,462,128.3,462.9,128.8,463.5L128.8,463.5z"/>
<path class="st0" d="M209.2,461.7c3-2.3,6.4-3.9,10-4.9c0.3-0.1,0.5-0.4,0.4-0.8c-0.1-0.3-0.4-0.5-0.8-0.4c-3.7,1-7.3,2.7-10.3,5
	C207.9,461.1,208.6,462.2,209.2,461.7L209.2,461.7z"/>
<path class="st0" d="M208,461.7c1.4,4.4,4.3,8.1,8.3,10.4c0.7,0.4,1.3-0.7,0.6-1.1c-3.7-2.1-6.5-5.6-7.8-9.7
	C209,460.6,207.7,461,208,461.7L208,461.7z"/>
<path class="st0" d="M99.2,442c-7.9,15.6-12.5,32.8-13.4,50.3c0,0.8,1.2,0.8,1.2,0c0.9-17.3,5.4-34.2,13.2-49.6
	C100.6,441.9,99.5,441.3,99.2,442z"/>
<path class="st0" d="M86.2,494.5c16.9,11.5,37.2,13.5,57.1,12.2c0.8,0,0.8-1.3,0-1.2c-19.7,1.2-39.8-0.7-56.5-12.1
	C86.2,492.9,85.6,494,86.2,494.5z"/>
<path class="st0" d="M58.9,501.6c-1.1,2.5-1.6,5.1-1.5,7.8c0,0.8,1.3,0.8,1.2,0c-0.1-2.5,0.3-4.9,1.3-7.2
	C60.3,501.5,59.2,500.9,58.9,501.6z"/>
<path class="st0" d="M57.4,510.1c8.8,15.3,24,23.7,41,26.9c0.8,0.2,1.1-1,0.3-1.2c-16.7-3.2-31.6-11.3-40.2-26.4
	c-0.2-0.3-0.6-0.3-0.9-0.1C57.3,509.5,57.3,509.8,57.4,510.1z"/>
<path class="st0" d="M22.8,532.2c3.3,9.4,14.1,15.2,23.2,17.3c0.8,0.2,1.1-1,0.3-1.2c-8.7-2-19.2-7.5-22.4-16.5
	C23.7,531.1,22.5,531.5,22.8,532.2z"/>
<path class="st0" d="M12.8,558.2c-5.1-1.8-9.8-4.6-13.8-8.2v1.7c4,3.4,8.6,6,13.5,7.7C13.3,559.7,13.6,558.5,12.8,558.2z"/>
<path class="st0" d="M71.7,580.6c4.6-3,10.2-4.2,15.7-3.3c0.8,0.1,1.1-1.1,0.3-1.2c-5.8-1-11.7,0.3-16.7,3.4
	C70.4,580,71.1,581.1,71.7,580.6z"/>
<path class="st0" d="M53.5,569.9c6.4-4,14-5.5,21.4-4.4c0.8,0.1,1.1-1.1,0.3-1.2c-7.8-1.2-15.7,0.4-22.3,4.5
	c-0.3,0.2-0.3,0.6-0.1,0.9C52.9,569.9,53.2,570,53.5,569.9z"/>
<path class="st0" d="M36.1,563.1c6.1-5.1,13.7-8.2,21.6-8.7c0.8,0,0.8-1.3,0-1.2c-8.3,0.5-16.2,3.7-22.5,9.1
	C34.5,562.7,35.4,563.6,36.1,563.1z"/>
<path class="st0" d="M35.3,563.3c4.2,8.2,6.6,17.1,7.3,26.2c0.1,0.8,1.3,0.8,1.2,0c-0.7-9.4-3.3-18.5-7.5-26.8
	C36,562,34.9,562.6,35.3,563.3z"/>
<path class="st0" d="M53.2,570.6c3.8,7.8,6.3,16.1,7.3,24.7c0.1,0.8,1.3,0.8,1.2,0c-1.1-8.8-3.6-17.3-7.5-25.3
	C53.9,569.3,52.9,569.9,53.2,570.6L53.2,570.6z"/>
<path class="st0" d="M69.8,580.9c2,4.6,3.2,9.4,3.7,14.4c0.1,0.8,1.3,0.8,1.2,0c-0.5-5.2-1.8-10.2-3.9-15
	C70.5,579.5,69.4,580.2,69.8,580.9L69.8,580.9z"/>
<path class="st0" d="M24.9,597h4.4c-3.1-1.8-6-4.2-8.4-6.9c-6.3-7.3-9.9-16.6-12.8-25.7c-0.5-1.5-2.9-0.9-2.4,0.7
	c2.9,9.1,6.4,18.2,12.5,25.7C20.1,593.1,22.4,595.2,24.9,597z"/>
<path class="st0" d="M771.1,493.9c-3.1-0.7-6.4-0.6-9.4,0.2c-0.3,0.1-0.5,0.5-0.4,0.8c0.1,0.3,0.4,0.4,0.7,0.4
	c2.9-0.8,5.9-0.9,8.8-0.2C771.6,495.3,771.9,494.1,771.1,493.9L771.1,493.9z"/>
<path class="st0" d="M771.1,495c-1.2,4.5-2,9-2.3,13.7c-0.1,0.8,1.2,0.8,1.2,0c0.4-4.5,1.1-9,2.3-13.3c0.1-0.3-0.2-0.7-0.5-0.7
	C771.5,494.6,771.2,494.7,771.1,495L771.1,495z"/>
<path class="st0" d="M788.5,482c-5-1.5-10.3-2.1-15.5-1.6c-0.8,0.1-0.8,1.3,0,1.2c5.1-0.4,10.3,0.1,15.2,1.6
	c0.3,0.1,0.7-0.2,0.7-0.5C789,482.4,788.8,482.1,788.5,482L788.5,482z"/>
<path class="st0" d="M787.6,483.2c0.4,7.1-0.7,14.2-3.2,20.9c-0.3,0.8,0.9,1.1,1.2,0.3c2.6-6.8,3.7-14,3.3-21.2
	C788.8,482.4,787.6,482.4,787.6,483.2z"/>
<path class="st0" d="M809.2,473.6c-5.3-5-14.1-7-21.1-7.9c-0.8-0.1-0.8,1.1,0,1.2c6.7,0.9,15.2,2.7,20.2,7.5
	C808.9,475,809.8,474.2,809.2,473.6L809.2,473.6z"/>
<path class="st0" d="M807.5,474.9c0.9,10.6-3.3,21.2-6.1,31.2c-0.1,0.3,0.2,0.7,0.5,0.7c0.3,0.1,0.6-0.1,0.7-0.4
	c2.9-10.2,7.1-20.8,6.2-31.6C808.7,474.1,807.5,474.1,807.5,474.9L807.5,474.9z"/>
<path class="st0" d="M831,469.3c1.8,5.5,2.5,11.3,2,17.1c-0.5,5.7-2,15.3-7,19c-0.6,0.5,0,1.6,0.6,1.1c4.6-3.4,6.4-11.3,7.2-16.6
	c1.1-7,0.6-14.1-1.6-20.9c-0.1-0.3-0.5-0.5-0.8-0.4C831.2,468.7,831,469,831,469.3L831,469.3z"/>
<path class="st0" d="M831.2,468.5c-0.7-3.1-3-5.6-5.9-6.8c-0.8-0.3-1.1,0.9-0.3,1.2c2.5,1,4.4,3.2,5,5.9c0.1,0.3,0.5,0.5,0.8,0.4
	C831.1,469.1,831.3,468.8,831.2,468.5L831.2,468.5z"/>
<path class="st0" d="M712.6,237.4c5.2,5.1,11.4,8.9,18.2,11.2c0.8,0.3,1.1-1,0.3-1.2c-6.6-2.3-12.7-6-17.7-10.9
	C712.9,236,712,236.9,712.6,237.4z"/>
<path class="st0" d="M731.9,248.4c1-7.1,0.3-14.4-2.1-21.1c-0.3-0.8-1.5-0.4-1.2,0.3c2.3,6.5,3.1,13.6,2.1,20.4
	C730.5,248.9,731.8,249.2,731.9,248.4z"/>
<path class="st0" d="M715.8,278.7c9.1,12.5,21,22.4,35.4,28.3c0.8,0.3,1.1-0.9,0.3-1.2c-14-5.7-25.7-15.5-34.6-27.7
	C716.5,277.4,715.4,278,715.8,278.7z"/>
<path class="st0" d="M751.9,306.4c7.7-13.9,12.1-29.3,12.7-45.2c0-0.8-1.2-0.8-1.2,0c-0.6,15.6-4.9,30.9-12.5,44.5
	C750.4,306.5,751.5,307.1,751.9,306.4z"/>
<path class="st0" d="M721.8,351.6c20,14.5,45.7,18.6,68.9,9.8c0.8-0.3,0.4-1.5-0.3-1.2c-23,8.7-48.2,4.7-68-9.6
	C721.8,350.1,721.2,351.1,721.8,351.6L721.8,351.6z"/>
<path class="st0" d="M791.3,360.5c1.3-15.4,3-33.2-3-47.8c-0.3-0.7-1.5-0.4-1.2,0.3c6,14.4,4.3,32.2,3,47.5
	C790.1,361.3,791.3,361.3,791.3,360.5L791.3,360.5z"/>
<path class="st0" d="M757.9,402.7c15.5,3.6,30.5-0.3,45.2-5.6c12-4.4,22.6-11.7,27.8-23.8c0.3-0.7-0.8-1.4-1.1-0.6
	c-5.3,12.4-16.3,19.5-28.8,23.8c-14,4.8-28,8.5-42.8,5C757.5,401.3,757.1,402.4,757.9,402.7L757.9,402.7z"/>
<path class="st0" d="M831,372.7c1.4-12.8-1.2-25.7-7.5-36.9c-0.2-0.3-0.6-0.3-0.9-0.1c-0.2,0.2-0.3,0.5-0.2,0.7
	c6.2,11,8.8,23.7,7.4,36.3C829.7,373.5,830.9,373.5,831,372.7z"/>
<path class="st0" d="M730.6,247c-4.9-12.8-11.2-25.8-23.4-32.9c-0.3-0.1-0.7,0-0.8,0.3c-0.1,0.3,0,0.6,0.2,0.7
	c11.9,7,18.1,19.8,22.8,32.2C729.7,248.1,730.9,247.8,730.6,247L730.6,247z"/>
<path class="st0" d="M804.3,226.1c-3.1,0.8-6.8,1.2-9.4,3.2c-0.6,0.5-0.1,1.5,0.6,1.1c2.8-1.8,6.6-2.6,9.8-3.3l-0.7-0.9
	c-1.6,2.7-4.3,4.5-6.8,6.4l1,0.8c1.6-2.6,3.7-4.8,6.1-6.6c0.7-0.5,0-1.5-0.6-1.1c-2.7,1.9-4.9,4.2-6.6,7c-0.4,0.6,0.5,1.2,1,0.8
	c2.6-2,5.3-3.8,7-6.7c0.2-0.3,0-0.7-0.3-0.9c-0.1-0.1-0.3-0.1-0.4-0.1c-3.4,0.7-7.2,1.6-10.1,3.4l0.6,1.1c2.5-1.9,6.2-2.3,9.1-3.1
	c0.3-0.1,0.5-0.5,0.4-0.8C805,226.2,804.7,226.1,804.3,226.1L804.3,226.1z"/>
<path class="st0" d="M811.1,224.9c-0.2-3.2-0.2-6.4-0.1-9.6l-1.2,0.3c0.6,1.3,0.5,3.2,0.6,4.6l0.3,3.9c0,0.3,0.3,0.6,0.6,0.6
	c0.3,0,0.5-0.2,0.6-0.5l2.6-8.3c0.2-0.8-1-1.1-1.2-0.3l-2.6,8.3l1.2,0.2l-0.4-5.3c0-1.3-0.2-2.6-0.6-3.8c-0.3-0.6-1.2-0.3-1.2,0.3
	c-0.1,3.2,0,6.4,0.1,9.6C809.8,225.7,811.1,225.7,811.1,224.9L811.1,224.9z"/>
<path class="st0" d="M790.3,201.8l-9.8,2.7l0.3,1.2c2.9-1.4,6-2.1,9.2-2.3l-0.4-1.1c-1.9,1.7-4,3.2-6.2,4.6c-0.7,0.4,0,1.5,0.6,1.1
	c2.3-1.4,4.4-3.1,6.4-4.8c0.2-0.2,0.2-0.6,0-0.9c-0.1-0.1-0.3-0.2-0.4-0.2c-3.3,0.2-6.5,1-9.5,2.3c-0.7,0.3-0.5,1.4,0.3,1.2l9.8-2.7
	c0.3-0.1,0.5-0.4,0.4-0.8C791,201.9,790.6,201.7,790.3,201.8L790.3,201.8z"/>
<path class="st0" d="M796,196.8c-1.1-2.9-1.7-6.1-1.8-9.2l-1.2,0.2l1.7,7.8c0.1,0.3,0.4,0.5,0.8,0.4c1.1-0.3,1-2.1,1.2-3
	c0.3-2,0.5-4,0.5-6.1c0-0.8-1.2-0.8-1.2,0c-0.1,1.4-0.1,2.7-0.3,4.1c-0.1,1.3-0.3,2.5-0.5,3.8l0.8,0.4l-1.7-7.8
	c-0.1-0.3-0.5-0.5-0.8-0.4c-0.3,0.1-0.4,0.3-0.4,0.6c0.1,3.2,0.7,6.5,1.8,9.5C795.1,197.8,796.3,197.5,796,196.8L796,196.8z"/>
<path class="st0" d="M771.2,184c-0.9,1.1-2.5,0.8-3.8,0.8h-4c-0.3,0-0.6,0.4-0.5,0.7c0,0.3,0.3,0.5,0.5,0.5c1.9,0.1,3.8-0.2,5.6-0.9
	c0.3-0.1,0.5-0.5,0.4-0.8c0-0.1-0.1-0.3-0.3-0.4c-2-1.4-4.1-2.6-6.2-3.9l-0.6,1.1c1.7,0.9,3.4,1.7,5.2,2.4c0.5,0.2,0.9-0.5,0.7-0.9
	c-0.8-1.6-1.6-3.3-2.4-4.9l-1.1,0.6c1.2,2.4,3.1,4.3,4.7,6.4c0.5,0.6,1.6,0,1.1-0.6c-1.6-2.1-3.4-4.1-4.7-6.4
	c-0.4-0.7-1.4-0.1-1.1,0.6c0.8,1.6,1.6,3.3,2.4,4.9l0.7-0.9c-1.7-0.6-3.3-1.5-4.9-2.3c-0.3-0.1-0.7,0-0.8,0.3
	c-0.1,0.3,0,0.6,0.2,0.7c2.1,1.3,4.1,2.6,6.2,3.9l0.2-1.1c-1.7,0.7-3.5,1-5.3,0.9v1.2c1.9,0,3.9,0.1,5.8,0c1.1,0,2.1-0.4,2.8-1.2
	C772.7,184.3,771.8,183.4,771.2,184L771.2,184z"/>
<path class="st0" d="M813.1,265c-2.3-0.2-4.6-0.1-6.8,0.5c-0.3,0.1-0.5,0.4-0.4,0.8c0.1,0.3,0.3,0.5,0.6,0.5c2.7-0.1,6.2-0.9,8.8,0
	l-0.3-1c-1.1,1.1-2.6,1.5-3.9,2.3c-1.2,0.7-2.3,1.4-3.3,2.2c-0.6,0.5,0.3,1.4,0.9,0.9c1.3-1,2.6-1.9,4.1-2.6
	c1.1-0.5,2.2-1.1,3.1-1.9c0.2-0.3,0.2-0.7-0.1-0.9c-0.1,0-0.1-0.1-0.2-0.1c-2.8-0.9-6.3-0.1-9.1,0l0.2,1.2c2.1-0.5,4.3-0.6,6.5-0.4
	C813.9,266.4,813.9,265.2,813.1,265L813.1,265z"/>
<path class="st0" d="M819.6,263.5c0.9-3.5,1.6-7.1,2-10.7h-1.2c-0.1,3.1-0.5,6.2-1.1,9.2c-0.1,0.3,0.1,0.7,0.4,0.8
	c0.3,0.1,0.7-0.1,0.8-0.4c1.1-3,2.3-6,3.6-9c0.3-0.7-0.8-1.4-1.1-0.6c-1.3,3-2.6,6.1-3.7,9.3l1.2,0.3c0.6-3.1,1-6.3,1.1-9.5
	c0-0.8-1.2-0.8-1.2,0c-0.4,3.5-1.1,6.9-2,10.3c-0.1,0.3,0.1,0.7,0.4,0.8C819.1,264,819.4,263.8,819.6,263.5L819.6,263.5z"/>
<path class="st0" d="M837.7,279.5c-0.6,3.6-1.5,7.2-2.5,10.7c-0.1,0.3,0.1,0.7,0.4,0.8c0.3,0.1,0.7-0.1,0.8-0.4c0.6-2,1.3-3.9,2-5.8
	l-1.2-0.2c0,2.2,0,4.3,0.2,6.5c0.1,0.8,1.3,0.8,1.2,0c-0.2-2.2-0.2-4.3-0.2-6.5c0-0.8-1-0.8-1.2-0.2c-0.8,1.9-1.5,3.8-2,5.8l1.2,0.3
	c1-3.5,1.9-7.1,2.5-10.7C839.1,279,837.8,278.7,837.7,279.5L837.7,279.5z"/>
<path class="st0" d="M837.8,275.4v-5.3l-1.2,0.2c0.2,0.6,0.3,1.2,0.4,1.9c0,0.8,1.3,0.8,1.2,0c0-0.7-0.2-1.5-0.4-2.2
	c-0.1-0.3-0.5-0.5-0.8-0.4c-0.3,0.1-0.4,0.3-0.4,0.6v5.3c0,0.3,0.4,0.6,0.7,0.5C837.6,275.9,837.8,275.7,837.8,275.4L837.8,275.4z"
	/>
<path class="st0" d="M813.1,597h2.7c-1.2-3-2.8-5.8-4.8-8.3c-1-1.2-2.8,0.5-1.8,1.8C810.8,592.5,812.1,594.7,813.1,597z"/>
<path class="st0" d="M767.7,597c-0.1-0.1-0.1-0.2-0.2-0.2c-2.1-2.8-4.2-7.7-5.9-10.8c-0.4,0-0.4,1.9-0.8,1.9c-1.5,0-3-0.4-4.3-1.2
	c2,3.4,3.9,7,5.9,10.4H767.7z"/>
<path class="st0" d="M803.8,572.1c-25.7-26-61.8-11.7-90.7-27.7c-1.9-1-4.3,1.2-3,3.6c9.1,17.3,28.1,16.7,40.1,29.6
	c0.9,1,1.8,2,2.6,3.1c-0.6-2.3,1.9-2,2.6-4.3c-0.4-0.5-3.2-3.7-3.7-4.2c-9.3-8.9-22.9-10.8-32.1-19.5c26.8,9.5,58.8,0.4,81.2,23
	C802.8,577.9,805.9,574.3,803.8,572.1z"/>
<path class="st0" d="M792.1,597h1.3c-0.9-4-2.3-7.9-5.6-10.6c-0.6-0.5-1.5,0.4-0.9,0.9C789.9,589.7,791.2,593.3,792.1,597z"/>
<path class="st0" d="M779.2,575c-5.6-8.3-12.8-11-22.5-12.1c-12.8-1.4-25.1-5.3-36.3-11.6c-0.7-0.4-1.3,0.7-0.6,1.1
	c8.8,4.9,18.3,8.4,28.2,10.5c5.1,1,10.3,1.1,15.3,2.1c6.3,1.3,11.3,5.4,14.9,10.7C778.6,576.2,779.7,575.6,779.2,575L779.2,575z"/>
<path class="st0" d="M754.2,558c1.9,1.1,3.3,2.8,4.1,4.9c0.3,0.7,1.5,0.4,1.2-0.3c-0.9-2.4-2.5-4.3-4.7-5.6
	c-0.3-0.2-0.7-0.1-0.8,0.2C753.8,557.4,753.9,557.8,754.2,558z"/>
<path class="st0" d="M742.5,569.2c6.5,1.4,11.2-0.5,16.7-4.1c0.7-0.4,0-1.5-0.6-1.1c-5.1,3.4-9.5,5.3-15.7,4
	C742,567.9,741.7,569,742.5,569.2L742.5,569.2z"/>
<path class="st0" d="M779.1,561.5c0.8,4.3,0,8.8-2.1,12.7c-0.4,0.7,0.7,1.3,1.1,0.6c2.3-4.2,3-9,2.2-13.6
	C780.2,560.4,779,560.7,779.1,561.5L779.1,561.5z"/>
<path class="st0" d="M761.5,590.6c9.6,4,20.1,5.5,30.4,4.5c0.8-0.1,0.8-1.3,0-1.2c-10.2,1-20.6-0.6-30.1-4.5
	C761.1,589.1,760.8,590.3,761.5,590.6z"/>
<path class="st0" d="M792.4,595.1c2.7-2,4.6-4.8,5.6-8c0.2-0.8-1-1.1-1.2-0.3c-0.9,2.9-2.6,5.4-5,7.2
	C791.1,594.4,791.8,595.5,792.4,595.1L792.4,595.1z"/>
<path class="st0" d="M772.5,453.7c0.3,0,0.6-0.4,0.5-0.7c0-0.3-0.3-0.5-0.5-0.5c-0.3,0-0.6,0.4-0.5,0.7
	C772,453.4,772.2,453.6,772.5,453.7z"/>
<path class="st0" d="M764.1,457.8c0.3,0,0.6-0.4,0.5-0.7c0-0.3-0.3-0.5-0.5-0.5c-0.3,0-0.6,0.4-0.5,0.7
	C763.6,457.6,763.8,457.8,764.1,457.8z"/>
<path class="st0" d="M770.3,460.4c0.3,0,0.6-0.4,0.5-0.7c0-0.3-0.3-0.5-0.5-0.5c-0.3,0-0.6,0.4-0.5,0.7
	C769.8,460.2,770,460.4,770.3,460.4z"/>
</svg>
