<svg id="3b204732-50d8-4771-b791-686b1cf5b04e" data-name="Calque 1" xmlns="http://www.w3.org/2000/svg" xmlns:xlink="http://www.w3.org/1999/xlink" viewBox="0 0 841.89 595.28"><defs><style>.a2a4382c-9a7a-4d53-b033-a9d86ae32be7{fill:none;}.\36 ab10d70-a1af-43ad-aa90-397374ae9740{clip-path:url(#6bc429d5-33bb-471a-8369-151cf02654b8);}.d1d120a5-a5ee-4055-adfb-f9c8d6f97b36{fill:#15b4b7;}.\32 9ab2c8f-3f47-4688-9b4b-10487462cb23{fill:#f8b47e;}.\36 2b6d925-3d3b-4439-ad02-f69612ae77f1{fill:#fff;}.a4198b1f-d058-4243-afb0-94bfe59e6ff9{fill:#ef8963;}.\31 48d42ba-6785-4009-9772-f96bfc033190{fill:#bbe0dd;}.\31 3dfcb8c-990e-425e-8fbb-fc587984b25b{fill:#fde463;}</style><clipPath id="6bc429d5-33bb-471a-8369-151cf02654b8"><rect class="a2a4382c-9a7a-4d53-b033-a9d86ae32be7" x="1.51" y="-19.65" width="854.67" height="614.93"/></clipPath></defs><title>Plan de travail 1</title><g class="6ab10d70-a1af-43ad-aa90-397374ae9740"><rect class="d1d120a5-a5ee-4055-adfb-f9c8d6f97b36" x="-19.79" y="-9.03" width="915.01" height="611.71"/><path class="29ab2c8f-3f47-4688-9b4b-10487462cb23" d="M-17.06,706.18c11.89-.67,23.8-.77,35.71-.52,25.41-6.08,52.34-3,78.12-3.6,11.61-.28,23.45-1.3,35.31-1.9-.17-1.59-.42-3.22-.69-4.86-1.26-7.36-3.56-14.55-3.9-22-.74-15.91,9-17.3,16.35-27.7,6.45-9.15,8.32-21.67,8.2-32.91s-1.78-22.4-6.52-32.24-12.83-18.11-22.7-20.92c-8.82-2.52-18.7-.74-26.68-5.52-6.21-3.72-10-10.69-14-17.1C71,518.66,56.25,502.26,37.61,494c-15.37-6.84-35.81-8.1-50.52,1.57-13.39,8.79-18.59,34.71-22.21,50.4-9,38.92-7.8,80.08-1.13,119.31,2,11.67,4.62,23.7,11.43,33A41.57,41.57,0,0,0-17.06,706.18Z"/><path class="62b6d925-3d3b-4439-ad02-f69612ae77f1" d="M-5.61,543.76a103.76,103.76,0,0,1,17.39-43.25c9.08-12.88,21.71-21.13,33-31.73C66.25,448.72,73,418.74,79,391.17H76.57c5.56,34.88,10.21,72.71-11,103.46-9.3,13.45-20.28,25.35-25.58,41.14-5,14.85-6.18,30.63-10.6,45.64-2.79,9.48-7,18.41-14,25.56S-.49,619.3-9.26,624.14c-1.41.77-.15,2.93,1.26,2.16C6.77,618.15,20.55,608.88,27.74,593c6.81-15,8.11-31.76,12.05-47.63A85.77,85.77,0,0,1,50,520.29c4.61-7.37,10.2-14.06,15.32-21.08a93.34,93.34,0,0,0,17.93-47c2-20.63-1-41.4-4.26-61.74-.2-1.23-2.16-1.16-2.41,0-6.56,30-14.07,60.39-38.63,81-11.18,9.37-22,18.09-30.13,30.42A105.77,105.77,0,0,0-8,543.1c-.25,1.57,2.16,2.25,2.41.66Z"/><path class="62b6d925-3d3b-4439-ad02-f69612ae77f1" d="M-17.16,375.28c8.52-20.49,17.57-42.42,35.34-56.72,17.54-14.1,40.37-18.63,62-22.1l-1-2.28C56.43,311.12,43.6,335,36.14,361.94c-7.11,25.7-13.95,61.5-42.95,71.38-1.51.52-.86,2.93.67,2.41,25.46-8.67,35-37.35,41.38-60.82,4.13-15.28,7.95-30.67,15.67-44.63A106.34,106.34,0,0,1,80.5,296.34a1.26,1.26,0,0,0-1-2.29c-22.14,3.55-45.24,8.31-63.13,22.74-18.1,14.61-27.29,36.92-36,57.82-.62,1.49,1.8,2.13,2.41.67Z"/><path class="a4198b1f-d058-4243-afb0-94bfe59e6ff9" d="M-18.83,206c8.12,11.07,22.37,14.08,35.37,14.38,18.33.43,37.12-3.17,52.84-13.42s28-27.79,30-47.61c1.21-11.69-.91-24.35,4.31-34.66,5.64-11.12,17.84-15.7,27.62-22.62,16.05-11.36,25.86-31.47,27.48-52,.88-11.11-1-21.29-4.43-31.68-3.81-11.5-1.85-24.75-6.35-35.68s-16.49-15.55-27.28-18.39A347.11,347.11,0,0,0-2.87-45.43c-7.28.74-14.74,1.78-21.16,5.58-13.55,8-19,26-21.87,42.5A319,319,0,0,0-33.08,161.88C-28.07,176.37-28.1,193.41-18.83,206Z"/><path class="62b6d925-3d3b-4439-ad02-f69612ae77f1" d="M-8.53,97.12c6.69-20,26-30.46,44.51-37.51,23.59-9,48.47-16.3,73.93-15.81V41.3A61,61,0,0,0,67.53,63.08a1.3,1.3,0,0,0-.19,1.52l3.81,6.51.45-1.71L45.47,83.54a1.27,1.27,0,0,0,.3,2.29l6.4,1.92-.29-2.29a163,163,0,0,0-55.4,66.48c-.67,1.46,1.49,2.73,2.16,1.27C10.72,127,29.26,104,53.14,87.62a1.27,1.27,0,0,0-.3-2.28l-6.4-1.92.29,2.28L72.86,71.56a1.28,1.28,0,0,0,.45-1.71c-.91-1.55-3.38-4.3-3-6.21.29-1.35,3.41-3.62,4.41-4.55a59.36,59.36,0,0,1,10.4-7.71,56.47,56.47,0,0,1,24.77-7.58,1.25,1.25,0,0,0,0-2.5C83,40.78,56.19,48.68,31.47,58.71,13.36,66.06-4.42,77-10.94,96.45c-.51,1.53,1.9,2.19,2.41.67Z"/><path class="62b6d925-3d3b-4439-ad02-f69612ae77f1" d="M28.83,393.22c30.56-26.27,69.63-41.48,110.05-41.3a.63.63,0,0,0,0-1.25C98.12,350.48,58.76,365.85,28,392.34c-.62.52.27,1.4.88.88Z"/><path class="62b6d925-3d3b-4439-ad02-f69612ae77f1" d="M139.12,351.81a128.41,128.41,0,0,1-19.87,21.6,118,118,0,0,1-11.82,8.92c-2,1.34-2.44,1.59-3.73-.16-1.53-2.07-2.4-5.4-3.51-7.73a.63.63,0,0,0-1.14.15,31.66,31.66,0,0,0-1.6,12.92c.07.8,1.32.8,1.25,0a30.91,30.91,0,0,1,1.55-12.59l-1.14.15q2.39,5,4.55,10.19a.64.64,0,0,0,.92.38,128.06,128.06,0,0,0,35.62-33.19c.47-.65-.61-1.28-1.08-.64Z"/><path class="62b6d925-3d3b-4439-ad02-f69612ae77f1" d="M97.43,387.56l-9.12,6.25c-2.92,2-5.9,4.66-9.46,5.36-.79.15-.45,1.35.33,1.2,3.28-.64,5.85-2.79,8.55-4.64l10.33-7.09c.66-.45,0-1.53-.63-1.08Z"/><path class="62b6d925-3d3b-4439-ad02-f69612ae77f1" d="M74.69,401.65A250.51,250.51,0,0,1,5.22,434.4a.63.63,0,0,0,.33,1.21,251.65,251.65,0,0,0,69.77-32.88c.67-.45,0-1.53-.63-1.08Z"/><path class="62b6d925-3d3b-4439-ad02-f69612ae77f1" d="M137.45,354.22c-11.33,25.57-33.56,42.43-55.64,58.32-.65.46,0,1.55.63,1.07,22.24-16,44.68-33,56.09-58.76.32-.73-.76-1.36-1.08-.63Z"/><path class="62b6d925-3d3b-4439-ad02-f69612ae77f1" d="M69.5,419.68c-7,3-14.1,5.85-21.29,8.41-2.17.77-7.34,3.66-9.59,3.25-1.9-.35-2.87-3.92-4-5.5a.63.63,0,0,0-1.14.48c1.44,6.36-15.16,9.35-19.41,10.59A146.68,146.68,0,0,1-4.3,441.12c-.79.13-.46,1.33.33,1.21A184.48,184.48,0,0,0,24.34,435c4.46-1.45,11.75-2.83,10.35-9l-1.14.48a18.35,18.35,0,0,1,2.88,6.19.64.64,0,0,0,.77.44Q54,427.74,70.13,420.76c.74-.32.1-1.4-.63-1.08Z"/><path class="62b6d925-3d3b-4439-ad02-f69612ae77f1" d="M93.54,405.47a210.69,210.69,0,0,1,64.87-.64c1,.14,5,.29,5.77.9,1.56,1.24.86,1.94.09,3.64a25.18,25.18,0,0,1-5.83,7.87c-9.32,8.77-23.27,13.29-34.93,17.94-13,5.19-26.49,9.32-40.64,9.41a.63.63,0,0,0,0,1.25c17.8-.11,34.4-6.54,50.56-13.44,12.89-5.51,29.57-11.59,33.45-26.77a.63.63,0,0,0-.44-.76,219.54,219.54,0,0,0-73.23-.61c-.79.13-.46,1.34.33,1.21Z"/><path class="62b6d925-3d3b-4439-ad02-f69612ae77f1" d="M59.61,446c-4.39.14-8.77.39-13.14.81-1.35.13-4.3.89-5.61.61-2.68-.57-3-3.89-3.88-6.06a.64.64,0,0,0-1-.28c-1.75,1.43-1.33,2.59-3.61,4-3.34,2-7.67,1.64-11.54,1.71A172.48,172.48,0,0,1,0,445.84c-.8-.08-.79,1.17,0,1.25a162.32,162.32,0,0,0,28.4.62c1.85-.13,4.4,0,5.93-1.38-.74.65,2.12-2.66,1.32-2.2q1.3-1.87,1.48.94l1.31,3.38c.09.24.32.5.6.46,6.85-.88,13.71-1.43,20.62-1.66.8,0,.8-1.28,0-1.25Z"/><path class="62b6d925-3d3b-4439-ad02-f69612ae77f1" d="M45.64,316.38c-4.81,4.58-9.58,9.27-13.46,14.68-4.12,5.74-6.62,12.08-8.77,18.75-5,15.38-11.86,28.57-26.08,37.23A.63.63,0,0,0-2,388.12a57.14,57.14,0,0,0,23.88-29.58c2.79-7.62,4.56-15.62,8.69-22.69s10.07-13,16-18.58c.58-.56-.3-1.44-.88-.89Z"/><path class="62b6d925-3d3b-4439-ad02-f69612ae77f1" d="M69.66,453.67a63.73,63.73,0,0,1-18.11,30.47C44,491.17,35,497,29.45,505.88c-6.11,9.81-8.21,21.8-13.08,32.23-2.71,5.83-5.56,12.53-11.21,16.06-4.37,2.73-9.53,3.88-14,6.47a.63.63,0,0,0,.64,1.08c4.65-2.71,10.13-3.84,14.61-6.85,4.06-2.72,6.41-6.91,8.6-11.16a138.63,138.63,0,0,0,7.41-17.12c2.23-6.28,4-12.8,7.26-18.64,6.08-10.83,17.21-17,25.61-25.71A64.65,64.65,0,0,0,70.86,454a.62.62,0,0,0-1.2-.33Z"/><path class="62b6d925-3d3b-4439-ad02-f69612ae77f1" d="M46.33,317.08a88.88,88.88,0,0,0,4-14.57c.15-.79-1-1.13-1.2-.34a90.34,90.34,0,0,1-4,14.57c-.28.76.93,1.09,1.2.34Z"/><path class="62b6d925-3d3b-4439-ad02-f69612ae77f1" d="M45.93,317.8c4-.89,7.94-.44,11.93.07.79.1.78-1.15,0-1.25-4.12-.53-8.17-.94-12.26,0-.79.17-.46,1.38.33,1.2Z"/><path class="62b6d925-3d3b-4439-ad02-f69612ae77f1" d="M25.81,313c3,8.87,2.25,18,1.37,27.15-.08.8,1.17.79,1.25,0,.89-9.25,1.57-18.54-1.41-27.48-.25-.76-1.46-.44-1.21.33Z"/><path class="62b6d925-3d3b-4439-ad02-f69612ae77f1" d="M28.07,340.62a32.26,32.26,0,0,1,20.59-7.33.63.63,0,0,0,0-1.25,33.65,33.65,0,0,0-21.47,7.7c-.63.5.26,1.38.88.88Z"/><path class="62b6d925-3d3b-4439-ad02-f69612ae77f1" d="M7.5,326.14c6.13,14.16,8.62,29.55,6.13,44.84-.13.79,1.08,1.13,1.21.34,2.55-15.68,0-31.31-6.26-45.82-.32-.73-1.4-.1-1.08.64Z"/><path class="62b6d925-3d3b-4439-ad02-f69612ae77f1" d="M14.62,371.87c7.05-3.05,14.09-6,21.87-6.24.8,0,.8-1.28,0-1.25-8,.28-15.26,3.27-22.5,6.41-.73.32-.1,1.4.63,1.08Z"/><path class="62b6d925-3d3b-4439-ad02-f69612ae77f1" d="M26.13,398.32c-9.22-2.6-19.72,1.29-27.78,5.68-.71.38-.08,1.46.63,1.08,7.71-4.2,18-8,26.82-5.55a.63.63,0,0,0,.33-1.21Z"/><path class="62b6d925-3d3b-4439-ad02-f69612ae77f1" d="M46.87,316.64c8.2-7.43,18.77-13.35,28.56-18.43.71-.37.08-1.45-.63-1.08-9.92,5.14-20.5,11.09-28.81,18.62-.6.55.28,1.43.88.89Z"/><path class="62b6d925-3d3b-4439-ad02-f69612ae77f1" d="M70.82,453.79c-.8-5.75-2.1-11.39-5.4-16.25-.45-.66-1.53,0-1.08.63,3.25,4.79,4.49,10.31,5.28,15.95.11.79,1.31.46,1.2-.33Z"/><path class="62b6d925-3d3b-4439-ad02-f69612ae77f1" d="M71,454.78c3.09-5.61,6.26-11.23,11.23-15.41.61-.52-.27-1.4-.89-.88-5,4.24-8.28,10-11.42,15.65-.39.71.69,1.34,1.08.64Z"/><path class="62b6d925-3d3b-4439-ad02-f69612ae77f1" d="M76.41,398.1a125.46,125.46,0,0,1-1.67,28.57c-1.67,9-4,17.88-5.27,27-.11.79,1.09,1.13,1.21.33,1.39-9.68,3.91-19.13,5.59-28.76a125.4,125.4,0,0,0,1.39-27.1c0-.81-1.29-.81-1.25,0Z"/><path class="62b6d925-3d3b-4439-ad02-f69612ae77f1" d="M53.46,483.64c2.33-7-.71-13.9-3-20.53-.26-.75-1.47-.43-1.2.34,2.21,6.39,5.26,13.06,3,19.86-.26.76,1,1.09,1.2.33Z"/><path class="62b6d925-3d3b-4439-ad02-f69612ae77f1" d="M53.15,484.45c6.08-6.09,15.68-1,22.56-5.67.66-.45,0-1.53-.63-1.08-7,4.7-16.49-.48-22.81,5.87a.62.62,0,0,0,.88.88Z"/><path class="62b6d925-3d3b-4439-ad02-f69612ae77f1" d="M34.74,500.92a35.15,35.15,0,0,0,.35-24.1c-.25-.75-1.46-.43-1.2.33a34,34,0,0,1-.36,23.44c-.28.75.93,1.08,1.21.33Z"/><path class="62b6d925-3d3b-4439-ad02-f69612ae77f1" d="M34.41,501.34c9.69-6,21.79,2,31.2-5,.63-.48,0-1.56-.64-1.08-9.29,6.93-21.46-1-31.19,5-.68.42-.06,1.5.63,1.08Z"/><path class="62b6d925-3d3b-4439-ad02-f69612ae77f1" d="M22,526.21c.38-10.32-10-17.75-7.9-28.17.16-.79-1.05-1.12-1.21-.33-2.16,10.75,8.25,18,7.86,28.5,0,.8,1.22.8,1.25,0Z"/><path class="62b6d925-3d3b-4439-ad02-f69612ae77f1" d="M21.77,527.31a20.3,20.3,0,0,1,9-3.92c2.92-.46,5.91,0,8.82-.56,4.16-.81,8-3.45,11.33-5.86.64-.46,0-1.55-.64-1.08a49,49,0,0,1-6.37,4c-3.67,1.85-6.74,1.81-10.67,2a21.37,21.37,0,0,0-12,4.36c-.64.47,0,1.55.63,1.08Z"/><path class="62b6d925-3d3b-4439-ad02-f69612ae77f1" d="M11.05,549.53c.61-6.57-3.89-14.76-8.22-19.47-.54-.6-1.43.29-.88.88,4.1,4.47,8.43,12.41,7.85,18.59-.07.8,1.18.79,1.25,0Z"/><path class="62b6d925-3d3b-4439-ad02-f69612ae77f1" d="M10.4,550.84c5.38-3.27,11.37-3.42,17.48-3.42,4.17,0,8,0,11.49-2.44.66-.45,0-1.53-.63-1.08-4.94,3.38-11.4,2-17.06,2.38a25.69,25.69,0,0,0-11.91,3.48.63.63,0,0,0,.63,1.08Z"/><path class="62b6d925-3d3b-4439-ad02-f69612ae77f1" d="M31.92,572.28c-2.41,3.84-11,.83-14.79,1.84C11.52,575.6,6.64,581.6.46,578.39c-.71-.37-1.34.71-.63,1.08,6.05,3.14,10.63-1.53,16.16-3.55,4.45-1.62,8.67-.07,13.21-.74a4.56,4.56,0,0,0,3.8-2.26c.43-.69-.65-1.31-1.08-.64Z"/><path class="62b6d925-3d3b-4439-ad02-f69612ae77f1" d="M121.76,135.2a1.49,1.49,0,0,0-.51-1.94c-28.32-13.7-59-21.74-90-18.39a5.63,5.63,0,0,1-2,3.21c28.24-3.49,56.23,2.58,82.4,14a2.29,2.29,0,0,0-1.1,1.7,1.79,1.79,0,0,0,0,.56,154.42,154.42,0,0,0-38.26,11c-1.62.7-.91,3.58.73,2.87A152.66,152.66,0,0,1,120.56,136a1.16,1.16,0,0,0,1.19-.81Z"/><path class="62b6d925-3d3b-4439-ad02-f69612ae77f1" d="M73.2,146.72a19.57,19.57,0,0,0-1.92-5.32.63.63,0,0,0-1.14.15,30.31,30.31,0,0,0-1.44,7.12c-.06.8,1.19.8,1.25,0a29.16,29.16,0,0,1,1.39-6.79L70.2,142a18.24,18.24,0,0,1,1.79,5c.17.79,1.37.45,1.21-.33Z"/><path class="62b6d925-3d3b-4439-ad02-f69612ae77f1" d="M68.94,148.66c-6.38,3.62-13.29,6.12-19.86,9.37a154.43,154.43,0,0,0-17.94,10.45A166.29,166.29,0,0,0,.63,195.2c-.54.6.35,1.49.89.89a164.46,164.46,0,0,1,31.64-27.46c11.57-7.64,24.45-12.11,36.41-18.89a.63.63,0,0,0-.63-1.08Z"/><path class="62b6d925-3d3b-4439-ad02-f69612ae77f1" d="M65.92,116.3c5-10.37,13.28-17.27,22.8-23.37C97,87.62,106.09,82.81,112,74.68,125,57.05,120.71,29.74,110.48,12a.38.38,0,0,0-.65.38c11.42,19.81,14.85,50.93-3.72,67.71C98.84,86.64,89.78,90.9,81.89,96.64a51.54,51.54,0,0,0-16.62,19.28c-.21.43.44.81.65.38Z"/><path class="62b6d925-3d3b-4439-ad02-f69612ae77f1" d="M10.16,203.18c22.48-.39,43.15-14.8,47.57-37.46.09-.48-.64-.68-.73-.2-4.36,22.34-24.68,36.53-46.84,36.91a.38.38,0,0,0,0,.75Z"/><path class="62b6d925-3d3b-4439-ad02-f69612ae77f1" d="M2.35,159.21c-6.71,3.59-13.92,5.65-21.24,7.6a.37.37,0,0,0,.2.72c7.38-2,14.66-4.05,21.42-7.67.42-.23,0-.88-.38-.65Z"/><path class="62b6d925-3d3b-4439-ad02-f69612ae77f1" d="M47.5-12.66C63.72,5,65.19,34.55,50.32,53.49c-.29.38.24.91.54.53C66,34.74,64.55,4.82,48-13.19c-.33-.36-.86.17-.53.53Z"/><path class="62b6d925-3d3b-4439-ad02-f69612ae77f1" d="M18.25-2.27c4.43,9.8,9.06,20.08,8.91,31.07-.07,5.3-1.19,10.89-4,15.44S16,51.63,11.75,54.89c-6,4.65-8.62,9.92-10.3,17.22-1,4.56-1.89,9.44-4.56,13.4-3,4.5-8,7-12.78,9.28-.44.21-.06.85.38.65,8.44-4,14-8.6,16.47-17.9,1.4-5.3,2-11,5-15.71s8.1-7.41,12.29-10.93c16.66-14,8.1-37.1.66-53.55-.2-.44-.85-.06-.65.38Z"/><path class="62b6d925-3d3b-4439-ad02-f69612ae77f1" d="M127.46,648.43c2.48-10.8,3.81-22.68.68-33.48-3.4-11.71-12.26-17.85-24.15-19.19-8-.91-16.26-.36-23.91-3.36a37.46,37.46,0,0,1-18-15.4c-4.2-6.84-4.61-14.37-7.49-21.62-2.67-6.72-8.23-10.3-14.54-13.3-.43-.2-.81.45-.38.65,3.62,1.72,7.29,3.59,10.13,6.49,3.46,3.56,4.77,8,5.9,12.74,1.5,6.24,3.22,11.88,6.91,17.23a37.51,37.51,0,0,0,26.77,16.2c7.66.93,15.7.27,23.07,2.93a23.63,23.63,0,0,1,14.18,14.53c4.12,11.15,2.68,24,.08,35.38-.11.47.62.67.72.2Z"/><path class="62b6d925-3d3b-4439-ad02-f69612ae77f1" d="M109.18,42.54a63.86,63.86,0,0,0-16.46,9.58,65.26,65.26,0,0,0-8,7.74c-.73.84-1.38,1.83-2.16,2.61-2.18,2.2-3.64.59-6.15-.45-.46-.19-.87.36-.76.77a23.94,23.94,0,0,0,2.29,5.79c.39.71,1.47.08,1.08-.63-3.59-6.57-.82-2.2,2.62-2.72,2-.3,4.19-4.78,5.58-6.26a62.7,62.7,0,0,1,22.33-15.23c.73-.3.41-1.5-.34-1.2Z"/><path class="62b6d925-3d3b-4439-ad02-f69612ae77f1" d="M78.43,68.09a245,245,0,0,0-33.29,34c-.5.62.37,1.51.88.89A244.48,244.48,0,0,1,79.31,69c.62-.51-.27-1.39-.88-.88Z"/><path class="62b6d925-3d3b-4439-ad02-f69612ae77f1" d="M45.47,102.3l-3.71-.46c-.67-.09-1.91-.53-2.53-.09-1.19.85.48,3.62,1,4.52.39.71,1.47.08,1.08-.63s-1.42-2.42-1.13-3.18l-.44.43c.63-.26,2.1.2,2.74.28l3,.38c.8.1.79-1.15,0-1.25Z"/><path class="62b6d925-3d3b-4439-ad02-f69612ae77f1" d="M40.37,105.58C28.45,114.69,22.22,127.35,14.69,140a.63.63,0,0,0,1.08.63c7.37-12.41,13.55-25.08,25.23-34,.63-.48,0-1.56-.63-1.07Z"/><path class="62b6d925-3d3b-4439-ad02-f69612ae77f1" d="M15.77,140.15a7.55,7.55,0,0,0-3-4.1c-.44-.3-.88.11-.94.54a56.23,56.23,0,0,0-.51,7.1.63.63,0,0,0,1.25,0,56.23,56.23,0,0,1,.51-7.1l-.94.54a6.16,6.16,0,0,1,2.43,3.36c.24.76,1.45.43,1.2-.34Z"/><path class="62b6d925-3d3b-4439-ad02-f69612ae77f1" d="M11.55,143.55A68.78,68.78,0,0,0,.27,162.05c-.31.74.9,1.06,1.21.33a66.62,66.62,0,0,1,11-17.95c.52-.61-.36-1.5-.88-.88Z"/><path class="62b6d925-3d3b-4439-ad02-f69612ae77f1" d="M120.4,133.94c-21.61,5.52-41.64,15.82-59.36,29.3-.63.48,0,1.57.63,1.08,17.63-13.41,37.55-23.68,59.06-29.17a.63.63,0,0,0-.33-1.21Z"/><path class="62b6d925-3d3b-4439-ad02-f69612ae77f1" d="M61.87,163.55a26.81,26.81,0,0,0-2.13-6,.63.63,0,0,0-1.14.15,14.59,14.59,0,0,0-.58,6c.08.79,1.33.8,1.25,0A14,14,0,0,1,59.8,158l-1.14.15a25.76,25.76,0,0,1,2,5.7c.17.79,1.38.46,1.2-.33Z"/><path class="62b6d925-3d3b-4439-ad02-f69612ae77f1" d="M58.17,163.53c-4.93,3.25-8.91,7.43-13,11.65-.56.58.32,1.46.88.88,4-4.14,7.9-8.26,12.75-11.45.67-.45,0-1.53-.63-1.08Z"/><path class="62b6d925-3d3b-4439-ad02-f69612ae77f1" d="M46,175.5,43.53,168c-.18-.53-1.09-.65-1.2,0-.57,3.32-1,6.64-1.39,10l1.17-.32a47.45,47.45,0,0,0-4-5.68c-.38-.47-1,0-1.07.44a28.42,28.42,0,0,0,.27,8.78c.15.79,1.35.45,1.21-.33a26.93,26.93,0,0,1-.23-8.45l-1.06.44A47,47,0,0,1,41,178.3a.63.63,0,0,0,1.16-.31c.34-3.24.79-6.45,1.34-9.66h-1.2l2.51,7.51c.25.76,1.46.43,1.2-.34Z"/><path class="62b6d925-3d3b-4439-ad02-f69612ae77f1" d="M37.67,180.48A262.75,262.75,0,0,0,2.28,209.53c-.58.56.31,1.44.88.88A261.86,261.86,0,0,1,38.3,181.56c.66-.45,0-1.53-.63-1.08Z"/><path class="62b6d925-3d3b-4439-ad02-f69612ae77f1" d="M8.62,205.29c11.12,3.12,21.15,10.47,30.06,17.64,8.69,7,13.74,16.34,18.51,26.21.21.44.85.06.65-.37-5.13-10.63-10.55-20.16-20-27.47-8.8-6.78-18.16-13.69-29-16.73a.37.37,0,0,0-.2.72Z"/><path class="62b6d925-3d3b-4439-ad02-f69612ae77f1" d="M52.67,238.91c1.58-1,3.79-.79,5.55-.43a7.61,7.61,0,0,1,2.3.72c1.22.78,2.24,3.45-.08,4-2.71.59-5.67-3-7.45-4.56-.36-.32-.9.21-.53.53,1.86,1.64,3.67,3.7,6.11,4.48,1.5.47,3.7.66,4-1.29.79-5-7.25-5.94-10.29-4.06-.41.26,0,.91.38.65Z"/><path class="62b6d925-3d3b-4439-ad02-f69612ae77f1" d="M52.05,238.33a13,13,0,0,0-5.46,5.9c-.63,1.52-.81,3.7.69,4.81s3,0,3.74-1.39c1.29-2.38,1.23-5.25,1-7.86-.05-.47-.8-.48-.75,0a21.08,21.08,0,0,1,.09,4,10.1,10.1,0,0,1-.5,2.43,5.91,5.91,0,0,1-.62,1.35c-.53,1.09-1.61,1-3.23-.26-1.37-3.05,3.26-7,5.45-8.31a.37.37,0,0,0-.38-.64Z"/><path class="62b6d925-3d3b-4439-ad02-f69612ae77f1" d="M42.49,225.62a11.57,11.57,0,0,1,7.94-2.47c2.63,0,8.85.75,6.54,4.81s-11.64-.38-14.38-2.22c-.41-.26-.78.38-.38.65a21.51,21.51,0,0,0,11,3.7c2.16,0,5.54,0,5.2-2.76-.47-3.78-2.73-4.56-6.06-4.82-3.81-.29-7.36.05-10.35,2.58-.37.31.16.84.53.53Z"/><path class="62b6d925-3d3b-4439-ad02-f69612ae77f1" d="M42.31,225.11a8.17,8.17,0,0,0-3.8,7c.05,2.36,1.57,6.11,4.13,6.84,2,.6,3-1.66,3-3.41.18-3.1-1-6.88-3.31-9-.36-.33-.89.2-.53.53a8.88,8.88,0,0,1,2.56,4.52c.45,1.69,1.25,8.41-2.64,5.81-4.17-2.77-2.7-9.29.92-11.67.4-.27,0-.92-.38-.65Z"/><path class="62b6d925-3d3b-4439-ad02-f69612ae77f1" d="M31.83,216.87c2.7-4.1,13.51-7.86,14.86-.71,1.5,8-12.53,1.68-15.35.07a.37.37,0,0,0-.38.64c3,1.71,19,8.49,16.57-1-2-7.7-13.14-4.29-16.35.57-.26.41.39.78.65.38Z"/><path class="62b6d925-3d3b-4439-ad02-f69612ae77f1" d="M30.69,216.38c-2.08,2.76-4.42,6.75-4,10.38.23,2,1.95,5.34,4.46,5,2.29-.31,3-4.24,3-6-.14-3-1-6.89-2.76-9.37-.28-.39-.93,0-.65.38,1.81,2.57,3.65,9,2.12,11.89-2,3.83-5,.19-5.31-2a8.46,8.46,0,0,1,.53-3.82,21,21,0,0,1,3.31-6.12c.29-.39-.36-.76-.65-.38Z"/><path class="62b6d925-3d3b-4439-ad02-f69612ae77f1" d="M20.73,209.67a16.26,16.26,0,0,1,5.51-3.55,34.09,34.09,0,0,1,3.53-1.47,11.9,11.9,0,0,1,1.67-.5c2.73-1.08,4-.28,3.67,2.38q1.66,2.61-1,3.47l-2,.8a12.63,12.63,0,0,1-4.33.35,31.63,31.63,0,0,1-7.46-1.87c-.46-.15-.66.57-.2.73,4.18,1.39,8.92,2.91,13.24,1.15,2.11-.85,4.74-2.75,4.12-5.37-1.61-6.74-14.89.68-17.28,3.35-.32.36.21.89.53.53Z"/><path class="62b6d925-3d3b-4439-ad02-f69612ae77f1" d="M19.87,209.33c-3.4,2.39-9.59,13.53-2.2,15a4.92,4.92,0,0,0,6-3.42c1-3.56-1.38-7.6-3.06-10.55a.38.38,0,0,0-.65.38,28,28,0,0,1,2.73,5.91c.91,3.14-.15,7.8-4.51,7-6.88-1.32-1.07-11.41,2.06-13.6.39-.28,0-.93-.38-.65Z"/><path class="62b6d925-3d3b-4439-ad02-f69612ae77f1" d="M12.43,206.38c3.31.18,7.78-1.15,9-4.5.17-.45-.56-.64-.73-.2-1.1,3-5.39,4.11-8.29,3.95-.48,0-.48.72,0,.75Z"/><path class="62b6d925-3d3b-4439-ad02-f69612ae77f1" d="M12.13,202.67a3.51,3.51,0,0,0-.42,3c.15.46.87.26.72-.2a2.75,2.75,0,0,1,.35-2.44c.27-.4-.38-.78-.65-.38Z"/><path class="62b6d925-3d3b-4439-ad02-f69612ae77f1" d="M11.82,205.64c-3,1.1-5.68,2.4-6.88,5.5-1,2.48-1.39,6.58,1.71,7.79,2.7,1,4.82-1.36,6-3.49,1.5-2.79,1.74-6.6-.08-9.28-.27-.4-.92,0-.65.38a8,8,0,0,1,.86,6.46c-.59,2.41-3.61,7.64-6.77,4.61-1.87-1.79-.91-5.65.3-7.54s3.61-2.91,5.75-3.71c.45-.17.25-.89-.2-.72Z"/><path class="62b6d925-3d3b-4439-ad02-f69612ae77f1" d="M57,248.84c-1.27,3.11-2.25,6.75-.62,10,1.1,2.15,3.6,3.67,6,2.68S65,257,64.53,254.78c-.79-3.9-3.71-4.35-6.75-6-.42-.23-.8.42-.37.65,1.54.85,3.5,1.19,4.8,2.42,2.16,2.06,2.81,7.84-.54,9-3.14,1.06-5-2.24-5.3-4.8a13.55,13.55,0,0,1,1.33-7c.18-.45-.54-.64-.72-.2Z"/><path class="62b6d925-3d3b-4439-ad02-f69612ae77f1" d="M50.65,331.71A119.29,119.29,0,0,1,87,315l-1.58-1.21-.28,12.47a1.26,1.26,0,0,0,2.13.88,31,31,0,0,0,4.07-5.7c2.86-4.76,5.48-6.73,11.33-7.29a133.27,133.27,0,0,1,23.21,0l-1.2-1.58-2.4,10.57c-.19.83.6,1.93,1.54,1.54,8.2-3.39,16.42-.25,24.12,3q5.07,2.16,10.12,4.36c.85.36,4.52,1.45,5.06,2.17,1.12,1.46.18,2.92-.35,4.42a71.34,71.34,0,0,1-22.7,31.91c-1,.84.12,2.33,1.22,2.09l11-2.4-1.54-1.54c-2.94,9.92-7.7,27.65-20.87,26.89-1.44-.08-1.65,2.06-.33,2.45l5.32,1.57-.55-2.09a14,14,0,0,1-3.79,3.07c-1.41.78-.15,2.94,1.26,2.16a15.45,15.45,0,0,0,4.29-3.46,1.27,1.27,0,0,0-.55-2.09l-5.32-1.57-.33,2.46c14.62.84,20-17.68,23.28-28.72a1.26,1.26,0,0,0-1.53-1.54l-11,2.4,1.21,2.08a72.36,72.36,0,0,0,16-17.89,74.51,74.51,0,0,0,5.52-10.55c1.06-2.48,3.69-6.92,2.92-9.71-.6-2.2-3.45-2.75-5.3-3.55-4.47-1.92-8.93-3.88-13.43-5.77-7.83-3.28-16.19-6-24.42-2.58l1.53,1.54,2.4-10.58a1.28,1.28,0,0,0-1.21-1.58c-8.75-.68-18.34-1.27-27,.45-7.57,1.5-8.63,8.31-13.37,13.28l2.14.88.28-12.47a1.26,1.26,0,0,0-1.58-1.2,120.94,120.94,0,0,0-36.95,16.94c-1.33.89-.08,3.06,1.26,2.15Z"/><path class="62b6d925-3d3b-4439-ad02-f69612ae77f1" d="M62.9,348.58c-.59-3.91-1.35-8.7,1.05-12.23,2.81-4.16,10.27-4.54,12.51.34,1.33,2.87,1,8.58-.57,11.21-2.43,4.07-11,7.19-13,.68-.14-.46-.87-.26-.72.2,1.47,4.81,6.91,5.07,10.84,2.85,5-2.81,6-9.58,4.37-14.72-1.4-4.49-6.57-5.38-10.58-3.84-6.23,2.41-5.43,10.43-4.63,15.71.07.48.79.28.72-.2Z"/><path class="62b6d925-3d3b-4439-ad02-f69612ae77f1" d="M92,337.27c-.44.57-.26,1.21-.21,1.88a1.86,1.86,0,0,0,.83,1.67c1.14.64,2.57-.22,3.24-1.16s1.24-2.64-.11-3.07-2.8-.45-3.69.6c-.32.37.21.9.53.53a2.13,2.13,0,0,1,2-.6c.43.06,1.12.07,1.2.63a2.42,2.42,0,0,1-.39,1.25,2.28,2.28,0,0,1-2,1.26c-.73-.12-.76-.74-.82-1.36,0-.45-.18-.86.11-1.25s-.35-.76-.64-.38Z"/><path class="62b6d925-3d3b-4439-ad02-f69612ae77f1" d="M129.75,382.4c-3.69,0-9.39,1.42-11.4,5-1.48,2.61,2.13,4.52,4.36,4.87,3.8.6,8.4-1.11,9.94-4.83.95-2.31.1-6.3-3.09-4.95-.44.19-.06.84.38.65q3.28,1.77,1.95,4a4.77,4.77,0,0,1-1.33,2.07,8.18,8.18,0,0,1-3.48,1.95,9.8,9.8,0,0,1-3.36.43c-.57,0-4-.77-4.42-1.89-1-2.46,2-4.16,3.79-5.07a13.86,13.86,0,0,1,6.66-1.46.38.38,0,0,0,0-.75Z"/><path class="62b6d925-3d3b-4439-ad02-f69612ae77f1" d="M154.81,330.21a55.27,55.27,0,0,0-16,15.62c-.28.4.37.77.64.38a54.32,54.32,0,0,1,15.71-15.35c.41-.26,0-.91-.38-.65Z"/><path class="62b6d925-3d3b-4439-ad02-f69612ae77f1" d="M138.93,346.4c7.39.54,14.71,1,22.06-.15.48-.07.27-.8-.2-.73-7.28,1.09-14.54.67-21.86.13-.48,0-.47.72,0,.75Z"/><path class="62b6d925-3d3b-4439-ad02-f69612ae77f1" d="M138.91,345.63,125.26,352c-.44.2-.06.85.38.64l13.65-6.34c.43-.2.05-.85-.38-.65Z"/><path class="62b6d925-3d3b-4439-ad02-f69612ae77f1" d="M122.28,328.4c-3.34,6.87-2.06,16.1-1.11,23.41.06.47.81.48.75,0-.92-7.06-2.2-16.43,1-23,.21-.43-.43-.81-.64-.37Z"/><path class="62b6d925-3d3b-4439-ad02-f69612ae77f1" d="M126.66,373.65c5.18,3.31,12.54,3.4,18.42,2.34.48-.09.28-.81-.19-.73-5.67,1-12.89.91-17.85-2.26-.41-.26-.78.39-.38.65Z"/><path class="62b6d925-3d3b-4439-ad02-f69612ae77f1" d="M102.2,325.71c-3.35,9.53-3.72,19.49-3.94,29.49a.38.38,0,0,0,.75,0c.22-9.92.59-19.84,3.91-29.29.16-.45-.56-.65-.72-.2Z"/><path class="62b6d925-3d3b-4439-ad02-f69612ae77f1" d="M105.23,396.22c5,2.39,11.73,1.62,17,1.37.48,0,.48-.77,0-.75-5.09.24-12,1-16.67-1.27-.43-.21-.81.44-.38.65Z"/><path class="62b6d925-3d3b-4439-ad02-f69612ae77f1" d="M71.71,351.62c-.87,4.29-.5,8.56,0,12.88,0,.48.8.48.75,0-.47-4.24-.86-8.46,0-12.68.09-.47-.63-.67-.73-.2Z"/><path class="62b6d925-3d3b-4439-ad02-f69612ae77f1" d="M48,345.09a78.92,78.92,0,0,0,1.07,31.22.38.38,0,0,0,.73-.2,77.68,77.68,0,0,1-1.08-30.82c.08-.47-.64-.68-.72-.2Z"/><path class="62b6d925-3d3b-4439-ad02-f69612ae77f1" d="M32.68,379.58a19.87,19.87,0,0,0,1.12,7.64c.16.45.88.26.72-.2a19.41,19.41,0,0,1-1.09-7.44c0-.49-.72-.48-.75,0Z"/><path class="62b6d925-3d3b-4439-ad02-f69612ae77f1" d="M73.49,333.12a32.7,32.7,0,0,1,1.28-5.45c.15-.46-.58-.66-.72-.2a32.7,32.7,0,0,0-1.28,5.45c-.07.47.65.68.72.2Z"/><path class="62b6d925-3d3b-4439-ad02-f69612ae77f1" d="M86.18,446.15a103.63,103.63,0,0,1,20,17.28c3.06,3.34,6,6.82,8.78,10.36s5.4,8.35,8.75,11.46c2.13,2-.3-1.26-1-1.91a36.16,36.16,0,0,0-3.61-3A78.06,78.06,0,0,0,108.75,474c-8.76-4.66-17.88-8.58-27-12.5-.43-.19-.82.46-.37.65,8.22,3.54,16.45,7.07,24.42,11.16,7.2,3.69,14.38,7.6,19.48,14.05.26.33.84-.11.59-.45-11.4-15.31-23.1-30.89-39.33-41.42-.4-.26-.78.39-.37.65Z"/><path class="62b6d925-3d3b-4439-ad02-f69612ae77f1" d="M49.4,447.36l7.65,2.82c.46.17.65-.55.2-.72l-7.65-2.82c-.45-.17-.65.56-.2.72Z"/><path class="62b6d925-3d3b-4439-ad02-f69612ae77f1" d="M89.76,466.2a83.28,83.28,0,0,1,7.11,12.18,80.42,80.42,0,0,1,3.42,8.46c.85,2.48,2.17,4.32-.61,1.35a52.76,52.76,0,0,0-21.1-13.66c-.45-.17-.65.56-.19.72a53.22,53.22,0,0,1,23.48,16.6c.25.29.73,0,.63-.37a85.51,85.51,0,0,0-12.09-25.66c-.27-.4-.92,0-.65.38Z"/><path class="62b6d925-3d3b-4439-ad02-f69612ae77f1" d="M49.76,460.84a102.79,102.79,0,0,0-45-10.33.38.38,0,0,0,0,.75,101.79,101.79,0,0,1,44.6,10.23c.43.21.81-.44.38-.65Z"/><path class="148d42ba-6785-4009-9772-f96bfc033190" d="M567.31-25.88a38.71,38.71,0,0,0-6.37,14.06,80.1,80.1,0,0,0,7.31,26.52c9.67,20.67,24.55,38.7,29.58,61.58,3.64,16.54,3.44,34.16,9.09,50.2,6.74,19.11,24.63,26.27,43,26.48a67,67,0,0,0,52.37-24.19c7.66-9.26,11.18-20,14.88-31.44,3.47-10.7,7.85-21.55,16.46-28.83C749.45,55.1,771.14,53.37,787.21,40a59.09,59.09,0,0,0,9.52-10.08,111.79,111.79,0,0,0-.47-49.54c-8-33.48-29.79-61.91-55.69-83.18-21.92-18-49.36-32-76.76-27.47a118.74,118.74,0,0,1,1.81,61.79C657.22-33.7,588.7-53.9,567.31-25.88Z"/><path class="148d42ba-6785-4009-9772-f96bfc033190" d="M565.15-27.14a40.07,40.07,0,0,0-6.18,13c-1.41,5.24.77,12,2.22,17.08,3.26,11.46,9.25,21.86,15.19,32.1,5.73,9.89,11.69,19.78,15.68,30.54,4.5,12.16,5.58,25,7.3,37.77,2.67,19.7,7.76,39.07,27.55,47.57,17.8,7.65,39.5,5.32,56.38-3.59a68.16,68.16,0,0,0,22.19-18.66c7-9.1,10.53-19.95,14.07-30.7,3.85-11.7,8.71-22.89,19.06-30.23,8.76-6.22,19.06-9.65,28.88-13.78s19.19-9.19,26.6-17.06c1.51-1.6,3.79-3.74,4.8-5.77,1.12-2.25,1.22-5.41,1.59-7.85a115.59,115.59,0,0,0,1.28-19.14c-.4-22.4-7.69-44.17-19.27-63.23C770.08-79.5,753-97.22,733.71-111.25c-20.39-14.82-45-25.3-70.57-21.46a2.52,2.52,0,0,0-1.74,3.08,117.54,117.54,0,0,1,3.14,54.17c-1.87,10.25-5.48,17.39-15.26,21.84-17.9,8.15-39.09,6.58-57.94,11.35-9.71,2.46-19.44,6.56-25.8,14.62-2,2.5,1.54,6.06,3.54,3.53,12.8-16.2,38.59-16,57.21-18.71,9.46-1.37,19.36-3,27.86-7.64s12.77-11.72,14.69-21A122.78,122.78,0,0,0,666.22-131l-1.75,3.08c22.13-3.33,43.67,5.39,61.78,17.51a178.37,178.37,0,0,1,44.88,43.23C783-50.72,792-31.85,795.32-11.76a108.7,108.7,0,0,1-.11,36.48c-1.88,10.65-14.94,17.9-24,22.17-17,8.07-36.73,12.51-47.57,29.35-5.3,8.23-8,17.69-11.09,26.87-3.63,10.64-8.3,20.49-16.33,28.53A65.2,65.2,0,0,1,643.06,150c-8.71-1-17.52-4-24.15-9.88-7.8-6.93-10.88-16.69-12.87-26.63-2.52-12.55-3-25.42-5.8-37.92-2.48-11.15-7.38-21.54-12.9-31.48-5.65-10.21-12-20.07-16.93-30.69a80.26,80.26,0,0,1-6.07-18.87c-1.35-7.29.85-13.28,5.13-19.19C571.36-27.23,567-29.73,565.15-27.14Z"/><path class="13dfcb8c-990e-425e-8fbb-fc587984b25b" d="M841.52,387.19c-12.6-8.09-27.46-12.39-42-10.75a52.9,52.9,0,0,0-37.45,22.25c-12.25,17.82-13.92,43.88-30.19,57.38-13.09,10.85-31.09,9.76-47.48,11.4-22.27,2.24-45,11.32-59.1,30.23-5.57,7.49-9.57,16.2-13.16,25-4.85,11.92-9.08,24.43-9.56,37.45-.45,12.39,3,24.8,10.74,34.05,7.57,9,21.81,12.86,32.38,16.53,26,9.06,53.4,13,80.65,14.36,38.72,1.87,77.47-1.47,116.23-2.33,1.82,0,3.76-.12,5.27-1.23a9.65,9.65,0,0,0,2.34-2.93C866,592,869.07,558.76,869.23,527c.14-28.09-1.56-56.41,2.92-84.23C875.81,420.11,858.65,398.2,841.52,387.19Z"/><path class="62b6d925-3d3b-4439-ad02-f69612ae77f1" d="M847.64,572.59c-15.08-41.94-53.35-75.33-98.61-78.69-1.53-.11-1.52,2-.34,2.46,8.08,3.34,16.06,7,21,14.59,4.22,6.46,6,14.2,7.53,21.64,3,14.27,6.64,27.67,14.9,39.9,16.54,24.48,45.26,38,74.64,33,1.59-.27.91-2.68-.66-2.42-33,5.55-64-13.29-78.09-42.84-6.36-13.32-7-28-11.89-41.68-4.71-13.21-14.28-19.46-26.77-24.63L749,496.4c44.08,3.27,81.52,36,96.2,76.85.54,1.5,3,.86,2.41-.66Z"/><path class="62b6d925-3d3b-4439-ad02-f69612ae77f1" d="M858.6,427.13c-19.77-40.33-81.12-38-94.79-82.84-.4-1.3-2.55-1.12-2.46.34.85,13.81,1.75,28,6.34,41.17,4.39,12.62,12.59,21.58,22.06,30.65,4.89,4.7,9.77,9.51,13.33,15.34,3.85,6.33,5.76,13.52,7,20.76,2.35,13.32,2.72,27.33,9.1,39.56a48.15,48.15,0,0,0,30,24.42,1.25,1.25,0,0,0,.66-2.41c-17.08-4.57-28.81-18.72-33-35.53-3.82-15.48-2.86-32.46-10.87-46.72C798.25,418,783.55,410,775.35,396.45c-9.34-15.41-10.42-34.3-11.5-51.82l-2.45.33c13.89,45.51,75.19,42.94,95.05,83.43.7,1.45,2.86.18,2.15-1.26Z"/><path class="62b6d925-3d3b-4439-ad02-f69612ae77f1" d="M856.72,276.14c-32.2-38.12-82.56-47.62-130.16-45.74-.8,0-.8,1.28,0,1.25,47.3-1.86,97.28,7.49,129.28,45.37.52.62,1.4-.27.88-.88Z"/><path class="62b6d925-3d3b-4439-ad02-f69612ae77f1" d="M727,230.14c-5-3.33-10.68-4.45-16.63-4.84-7.14-.46-14.45-.76-21.39,1.23a.63.63,0,0,0-.15,1.14c4,2.84,9.75,1.2,14.39,1.26a90.11,90.11,0,0,1,21.42,3,.62.62,0,0,0,.33-1.2,93.7,93.7,0,0,0-16.3-2.8q-4.08-.3-8.18-.23c-3.56.06-7.88,1.11-11-1.09l-.15,1.14c6.35-1.82,13-1.6,19.49-1.27,6.27.31,12.24,1.23,17.56,4.75.68.45,1.3-.63.64-1.08Z"/><path class="62b6d925-3d3b-4439-ad02-f69612ae77f1" d="M737.71,229.57c-4.9-7.66-13.06-11.07-21.71-12.72a.63.63,0,0,0-.77.76c.52,2.73,3.58,3.78,5.78,5s4.61,2.48,7,3.59c1.41.66,4.62,1.45,5.72,2.49,1.76,1.66-.08,2.5-1.82,4s-3.74,3-5.48,4.59a18.48,18.48,0,0,0-5.52,8.75.63.63,0,0,0,1,.61A93.21,93.21,0,0,0,736.66,232c.5-.62-.38-1.51-.88-.89A92.86,92.86,0,0,1,721,245.78l1,.6c2.12-7.78,9.9-11,14.65-16.9a.64.64,0,0,0-.28-1,113.92,113.92,0,0,1-11.73-5.24,46.37,46.37,0,0,1-5.35-3c-1.06-.74-4-1.82-1-1.63,7,.45,14.59,5.92,18.22,11.59.43.67,1.51.05,1.08-.63Z"/><path class="62b6d925-3d3b-4439-ad02-f69612ae77f1" d="M753,230.49A38.55,38.55,0,0,0,735,206.16a.64.64,0,0,0-.92.71,22.63,22.63,0,0,0,5.63,11c2,2.32,4.28,4.48,6.49,6.62,1,1,6,4.47,5.59,6.07-.16.68-5.76,2.57-6.4,2.89a60.91,60.91,0,0,0-6.57,3.88c-3.32,2.28-5.88,4.88-6.91,8.84a.63.63,0,0,0,.77.77c8.46-1.18,15.06-6.8,18.44-14.53.32-.73-.75-1.37-1.08-.63a24.43,24.43,0,0,1-6.1,8.69c-.87.77-8.67,6.54-10.23,5.08-2-1.89,6.74-7.82,7.8-8.48a71.69,71.69,0,0,1,12.22-5.91.63.63,0,0,0,.27-1c-7.08-6.59-16.79-13.62-18.71-23.61l-.92.7a37.32,37.32,0,0,1,17.51,23.58.62.62,0,0,0,1.2-.33Z"/><path class="62b6d925-3d3b-4439-ad02-f69612ae77f1" d="M768.59,232.57a62.34,62.34,0,0,0-8.23-22.88c-1.45-2.36-7-12.44-10.58-11-1.75.7-1.67,5-1.59,6.29a20.7,20.7,0,0,0,3.23,9.26c4.06,6.78,10.25,12.36,16.6,16.93l.15-1.14c-9.83,3.16-25.6,9.09-23.57,22.17.08.51.73.55,1,.28a178.3,178.3,0,0,0,19.56-20c.52-.61-.36-1.5-.88-.88-3,3.59-6.12,7.08-9.4,10.43q-2.45,2.49-5,4.89c-.84.79-1.7,1.58-2.56,2.35q-1.8,2.52-1.39-.31c-1.77-4.75,6.48-10.7,9.75-12.6a64.64,64.64,0,0,1,12.77-5.15.63.63,0,0,0,.15-1.14,64.37,64.37,0,0,1-14.35-13.8,28.21,28.21,0,0,1-4.11-7.64c-.47-1.44-1.23-3.64-.77-5.21l2.19-3c.56.56,1.1,1.13,1.62,1.72a59.73,59.73,0,0,1,14.16,30.72c.12.79,1.33.45,1.2-.33Z"/><path class="62b6d925-3d3b-4439-ad02-f69612ae77f1" d="M784.25,234.55c-2.76-10.37-4.67-23.83-12.89-31.53a.63.63,0,0,0-1,.13c-4.82,10.41,5.59,21,10.11,29.45,1.08,2,1.42,1.47-.65,2.84a30.27,30.27,0,0,1-3.09,1.37,46.42,46.42,0,0,0-8.27,5.14c-3.61,2.8-7,5.89-7.68,10.58-.06.37.16.83.6.79,10.32-.74,13.46-12.63,20.56-18.26.63-.5-.26-1.38-.89-.88a33.15,33.15,0,0,0-6.32,7c-1.66,2.33-7.7,12.2-11.58,10.33q-2.43.25,0-2.46a16.13,16.13,0,0,1,2.51-3.12,37.1,37.1,0,0,1,5.38-4.39,47.71,47.71,0,0,1,12.1-6c.34-.11.64-.57.38-.91a104.05,104.05,0,0,1-7.85-11.9c-2-3.63-7.61-12.32-4.76-16.49.26-1.71.74-1.8,1.47-.29a9.61,9.61,0,0,1,1.29,1.68,23,23,0,0,1,1.5,2.59,54.48,54.48,0,0,1,3,7.69c1.81,5.59,3.3,11.27,4.81,16.95a.63.63,0,0,0,1.21-.33Z"/><path class="62b6d925-3d3b-4439-ad02-f69612ae77f1" d="M799,237.42a89.5,89.5,0,0,0-8.85-35.95.63.63,0,0,0-1.08,0c-7.17,12,1.76,23.77,5.9,35,1.28,3.47-1.08,3-4,4.25a40.32,40.32,0,0,0-8,4.72c-4.22,3.19-8,7-9.77,12.11a.63.63,0,0,0,.92.7A109,109,0,0,0,797.79,239c.55-.59-.33-1.48-.88-.89a107.91,107.91,0,0,1-23.43,19l.92.71c3.21-9.37,13.83-15.51,22.86-18a.63.63,0,0,0,.37-.92c-2.63-5.17-5.23-10.43-7.34-15.84a34.08,34.08,0,0,1-2.63-10.4c-.08-1.46.64-9.68,1.94-9.09,1.64.74,2.86,6.27,3.48,8.05.86,2.49,1.61,5,2.24,7.59a89.44,89.44,0,0,1,2.45,18.21c0,.8,1.28.8,1.25,0Z"/><path class="62b6d925-3d3b-4439-ad02-f69612ae77f1" d="M809.62,242.23a50.77,50.77,0,0,0-5.56-34.66.63.63,0,0,0-1.15.14,41.31,41.31,0,0,0,.56,18c.74,3.3,1.72,6.54,2.64,9.78s3.41,8,.45,10.25c-2.25,1.71-5.39,2.62-7.79,4.23a36,36,0,0,0-6.27,5.22,28.33,28.33,0,0,0-7.15,13.67c-.1.49.44,1,.92.7a67.86,67.86,0,0,0,23.19-26.94c.35-.72-.73-1.36-1.08-.63a66.68,66.68,0,0,1-22.74,26.5l.92.7A28.52,28.52,0,0,1,798.07,252a52.86,52.86,0,0,1,8.39-4.82c1-.46,2.42-.79,2.93-1.88s-.12-2.85-.37-3.9c-.79-3.28-1.8-6.51-2.72-9.76-2.19-7.78-3.9-15.56-2.18-23.6l-1.14.15a49.37,49.37,0,0,1,5.43,33.7c-.15.78,1.06,1.12,1.21.33Z"/><path class="62b6d925-3d3b-4439-ad02-f69612ae77f1" d="M820.44,250.71a151.72,151.72,0,0,0,.91-21.31c-.17-5.53-.48-11-3.3-15.85a.63.63,0,0,0-1-.13c-2.87,2.49-2.24,7.74-2,11.1a75,75,0,0,0,3.81,16.78c1.3,4.07,1.09,6.34-2.32,9.17-2,1.69-4.15,3.29-6.07,5.11a22.77,22.77,0,0,0-7.06,11.66.63.63,0,0,0,.77.77c8.42-2.4,14.09-9.51,15.64-18,.14-.79-1.06-1.12-1.21-.33a22.54,22.54,0,0,1-6,12c-1.5,1.52-4.13,4.07-6.4,4.33-1.77.2-1.29.84-.73-1.37a11.73,11.73,0,0,1,1.76-3.45c2.85-4.22,7-7.13,10.82-10.37,1.88-1.58,3.53-2.67,3.42-5.21-.08-2.05-1.42-4.48-2-6.43-.75-2.43-1.46-4.87-2-7.35a48.71,48.71,0,0,1-1.28-9.15,16.79,16.79,0,0,1,.07-3.75l1.47-3.32,1.1,2.9c2.87,9.92,1.42,22.11.31,32.23-.09.8,1.16.8,1.25,0Z"/><path class="62b6d925-3d3b-4439-ad02-f69612ae77f1" d="M828.28,252.09c1.65-9.28,4.59-23-1.12-31.4a.63.63,0,0,0-1.08,0,26,26,0,0,0-2.5,12.69c.22,5.41,2.78,10.57,3,15.84.32,6.58-5.91,13.2-9.27,18.53-2.52,4-4.63,7.68-3.83,12.5a.63.63,0,0,0,.77.44c9.29-3.59,12.73-18,14-26.66.12-.79-1.09-1.13-1.2-.33a65.76,65.76,0,0,1-3.77,13.54,37.2,37.2,0,0,1-2.93,6.46c-1.06,1.75-5.61,8.59-5.52,1.55,0-2.31,2.83-5.72,4.06-7.65,1.32-2.1,2.66-4.19,4-6.28,1.7-2.68,4.67-5.84,5.24-9,.66-3.76-1.74-8.46-2.45-12.12-.82-4.19-2.29-12.15.26-16.09q1.24-3.56,2,1a19.8,19.8,0,0,1,.74,4.26,58.31,58.31,0,0,1,.07,6.61,105.76,105.76,0,0,1-1.69,15.87c-.14.78,1.07,1.12,1.21.33Z"/><path class="62b6d925-3d3b-4439-ad02-f69612ae77f1" d="M729.29,230.57c-9,2.66-19.34.74-26.53,8a.64.64,0,0,0,.28,1,25.05,25.05,0,0,0,12.94-.68,50.26,50.26,0,0,0,6.75-2.8c1.43-.7,4.25-1.48,5.12-2.82,2.93-4.52-7.33-12.28-10.56-14.27-3-1.81-12.64-7-12.74-.06,0,3.24,2.83,5.24,5.39,6.47,5.27,2.53,11,4.33,16.47,6.45.75.29,1.07-.91.33-1.2l-11.11-4.34c-2.06-.8-4.67-1.45-6.52-2.7-5.18-3.53-2.61-6.55,1.84-6.2,4.81.39,19.11,11.33,14.36,16-2.38,2.32-8.36,4-11.36,4.8a18.88,18.88,0,0,1-6.64.73c-4.4-.5-1.24-1.8,1.21-3,6.55-3.11,14.22-2.15,21.1-4.18a.62.62,0,0,0-.33-1.2Z"/><path class="62b6d925-3d3b-4439-ad02-f69612ae77f1" d="M776.71,379a46.48,46.48,0,0,0,14.45,15.46c6.36,4.15,13.67,6.44,20.35,10,16.23,8.62,23.4,28,29.57,44.29.28.75,1.49.43,1.21-.33C837,434.54,831,417.32,818.94,407.76c-6.4-5.08-14.27-7.56-21.5-11.16a46.49,46.49,0,0,1-19.65-18.19.63.63,0,0,0-1.08.63Z"/><path class="62b6d925-3d3b-4439-ad02-f69612ae77f1" d="M787.13,518a79.46,79.46,0,0,1,13.45,16.57c3.73,6,6.59,12.46,10.67,18.18,7.19,10.1,18.65,17.78,29.44,23.54.71.38,1.34-.7.63-1.08-12.36-6.6-24.69-15.37-31.89-27.65-6.39-10.88-12-21.77-21.41-30.44-.59-.54-1.48.34-.89.88Z"/><path class="62b6d925-3d3b-4439-ad02-f69612ae77f1" d="M777.77,378.59a36.74,36.74,0,0,0,0-9.77c-.1-.79-1.35-.8-1.25,0a36.74,36.74,0,0,1,0,9.77c-.1.8,1.15.79,1.25,0Z"/><path class="62b6d925-3d3b-4439-ad02-f69612ae77f1" d="M777.23,377.86c-4.26-.81-8.17-4.32-11.31-7.14-.59-.54-1.48.34-.88.88,3.33,3,7.34,6.61,11.86,7.47.79.15,1.12-1.06.33-1.21Z"/><path class="62b6d925-3d3b-4439-ad02-f69612ae77f1" d="M791.65,393.59a29.9,29.9,0,0,0,2.52-12.65.63.63,0,0,0-1.25,0,28.35,28.35,0,0,1-2.35,12c-.32.73.76,1.37,1.08.63Z"/><path class="62b6d925-3d3b-4439-ad02-f69612ae77f1" d="M791.19,392.73c-6.49.6-12.9,1-19.09-1.42-.75-.3-1.08.91-.33,1.2,6.28,2.45,12.82,2.09,19.42,1.47.79-.07.8-1.32,0-1.25Z"/><path class="62b6d925-3d3b-4439-ad02-f69612ae77f1" d="M809,402.25c.82-4.65,1.22-9.37-.44-13.89-.27-.75-1.48-.42-1.2.34,1.58,4.32,1.22,8.77.43,13.22-.13.79,1.07,1.12,1.21.33Z"/><path class="62b6d925-3d3b-4439-ad02-f69612ae77f1" d="M808,401.78c-5.46,6-14.11,8.46-22,8.07-.8,0-.8,1.21,0,1.25,8.22.41,17.22-2.2,22.9-8.43.54-.6-.35-1.48-.89-.89Z"/><path class="62b6d925-3d3b-4439-ad02-f69612ae77f1" d="M825.24,413.9c1.86-5.35,1.37-10.84.74-16.36-.09-.79-1.34-.8-1.25,0,.62,5.4,1.12,10.79-.7,16-.26.76,1,1.09,1.21.34Z"/><path class="62b6d925-3d3b-4439-ad02-f69612ae77f1" d="M824.11,414.28c-5.31,6.08-16.55,9.15-24.32,10-.79.08-.8,1.33,0,1.25,8.16-.84,19.58-3.87,25.2-10.32.53-.6-.35-1.49-.88-.88Z"/><path class="62b6d925-3d3b-4439-ad02-f69612ae77f1" d="M831.85,435.58c-5.38,4.81-15.5,6.12-22.27,4.93-.79-.14-1.13,1.07-.34,1.2,7.37,1.3,17.7-.07,23.49-5.24.6-.54-.28-1.42-.88-.89Z"/><path class="62b6d925-3d3b-4439-ad02-f69612ae77f1" d="M812.19,458.89c6.23,2.38,14,1,20.45,0,.79-.12.46-1.32-.33-1.2-6.07.94-13.89,2.28-19.78,0-.76-.29-1.08.92-.34,1.2Z"/><path class="62b6d925-3d3b-4439-ad02-f69612ae77f1" d="M815.77,480.33a70,70,0,0,0,22.38.33c.79-.12.45-1.32-.34-1.21a67.59,67.59,0,0,1-21.71-.33c-.78-.13-1.12,1.07-.33,1.21Z"/><path class="62b6d925-3d3b-4439-ad02-f69612ae77f1" d="M788,517.55a40.15,40.15,0,0,0-2.53-12.63c-.28-.75-1.49-.42-1.2.33a39.55,39.55,0,0,1,2.48,12.3c0,.8,1.29.81,1.25,0Z"/><path class="62b6d925-3d3b-4439-ad02-f69612ae77f1" d="M787.71,517.06a29.38,29.38,0,0,1-13.94-2.77c-.73-.34-1.36.74-.64,1.08a30.85,30.85,0,0,0,14.58,2.94c.8,0,.81-1.28,0-1.25Z"/><path class="62b6d925-3d3b-4439-ad02-f69612ae77f1" d="M802.22,535.29a52.8,52.8,0,0,0,2-19c-.07-.8-1.32-.8-1.25,0A52.06,52.06,0,0,1,801,535a.62.62,0,0,0,1.2.34Z"/><path class="62b6d925-3d3b-4439-ad02-f69612ae77f1" d="M801.53,534.85c-6.71.74-16.25,1.21-22-2.71-.67-.45-1.3.63-.63,1.08,6,4.06,15.83,3.64,22.68,2.88.79-.09.8-1.34,0-1.25Z"/><path class="62b6d925-3d3b-4439-ad02-f69612ae77f1" d="M813.94,554.94a43.27,43.27,0,0,0,6.6-24.24.63.63,0,0,0-1.25,0,42,42,0,0,1-6.43,23.61c-.42.68.66,1.31,1.08.63Z"/><path class="62b6d925-3d3b-4439-ad02-f69612ae77f1" d="M813.14,554a40.78,40.78,0,0,1-29.26-3.67c-.71-.37-1.35.71-.63,1.08a42.29,42.29,0,0,0,30.22,3.8c.78-.19.45-1.4-.33-1.21Z"/><path class="62b6d925-3d3b-4439-ad02-f69612ae77f1" d="M827.76,567c1.63-4.16,3.11-8.29,3.2-12.8a.63.63,0,0,0-1.25,0c-.09,4.39-1.58,8.43-3.16,12.46-.29.75.92,1.08,1.21.34Z"/><path class="62b6d925-3d3b-4439-ad02-f69612ae77f1" d="M826.84,566.71c-9.26,7.64-20.62,6.35-31.89,6.37a.63.63,0,0,0,0,1.25c11.79,0,23.14,1.21,32.77-6.74.62-.51-.27-1.39-.88-.88Z"/><path class="62b6d925-3d3b-4439-ad02-f69612ae77f1" d="M816.87,594.87a42.8,42.8,0,0,0,17.48-12.41c.52-.61-.36-1.5-.88-.88a41.82,41.82,0,0,1-16.94,12.09c-.74.28-.42,1.49.34,1.2Z"/><path class="62b6d925-3d3b-4439-ad02-f69612ae77f1" d="M843,298.19c-12.75-2.22-26-.55-38.83.63s-25.6,3.15-37.8,7.46a152.93,152.93,0,0,0-32.6,16.5c-10.18,6.65-20.9,14-29,23.16-.54.6.35,1.49.88.89,8.07-9.08,18.63-16.36,28.75-23a152.58,152.58,0,0,1,32.3-16.38c11.8-4.17,24.13-6.14,36.55-7.32,12.93-1.23,26.52-3,39.42-.77.78.14,1.12-1.07.33-1.2Z"/><path class="62b6d925-3d3b-4439-ad02-f69612ae77f1" d="M704.24,346.73a53.63,53.63,0,0,1-2.55,12.48c-.2.6-4,11.42-5.5,11.3-3.05-.26,1.74-9.91,2.34-11.35,1.76-4.23,3.28-8.39,6.29-11.92.52-.61-.36-1.5-.88-.88-3.49,4.08-5.1,9-7.2,13.82-1.75,4-4.1,7.85-1.82,12.11a.64.64,0,0,0,.86.23c3-1.88,4.61-6.62,5.91-9.77a54.3,54.3,0,0,0,3.8-16c.07-.8-1.18-.8-1.25,0Z"/><path class="62b6d925-3d3b-4439-ad02-f69612ae77f1" d="M712.67,339.22c1.23,9.55,2.35,19.52-3,28.07l1.14.15c-3-9.62,1.77-18.89,3-28.36.1-.78-1.1-1.13-1.21-.33-1.31,9.72-6.07,19.16-3.05,29a.64.64,0,0,0,1.15.15c5.5-8.71,4.49-18.92,3.22-28.7-.1-.78-1.35-.79-1.25,0Z"/><path class="62b6d925-3d3b-4439-ad02-f69612ae77f1" d="M713.11,338c-8.65,2.47-21,4.35-26.9,11.83a.63.63,0,0,0,.44,1.06c3.12.4,7.78-3.19,10.49-4.5L713,338.73c.72-.35.09-1.43-.63-1.08l-12.34,6-5.29,2.55c-1.92.92-6,3.76-8.1,3.48l.45,1.07c5.69-7.17,17.94-9.11,26.34-11.51a.62.62,0,0,0-.33-1.2Z"/><path class="62b6d925-3d3b-4439-ad02-f69612ae77f1" d="M723.71,329.8c-6.58-1.71-14.45-1.3-21.15-.32-4.94.72-13,2.49-15,7.71a.62.62,0,0,0,.6.79c11.61-1.45,22.44-7.15,34.3-6.58.81,0,.81-1.21,0-1.25A48.87,48.87,0,0,0,707.67,332c-2.57.67-5.11,1.45-7.66,2.18-.86.24-7.88,2.78-8.57,2.1-2.89-2.81,13.12-5.78,14.41-5.89,5.66-.47,12-.78,17.53.65a.63.63,0,0,0,.33-1.21Z"/><path class="62b6d925-3d3b-4439-ad02-f69612ae77f1" d="M722.05,330.53c-2.64,7.32-5.63,20.53.06,27.3a.63.63,0,0,0,.61.16c3.48-.83,3.66-5.81,3.56-8.55-.22-6.05-1-12.11-3.52-17.67-.33-.73-1.41-.09-1.08.63a40.13,40.13,0,0,1,3.06,12.82c.19,2,.85,13.94-2.89,9.22-1.93-2.45-1.54-8.49-1.35-11.38a44.45,44.45,0,0,1,2.76-12.2c.27-.76-.93-1.08-1.21-.33Z"/><path class="62b6d925-3d3b-4439-ad02-f69612ae77f1" d="M735,322.16c-3.87-5-13.83-4.2-19.37-4.36a87.14,87.14,0,0,0-12.41.34c-1.65.19-5.41.37-6.44,1.95-2,3.13,4,3.32,5.47,3.39a266.13,266.13,0,0,0,31.7-.57c.79-.05.8-1.3,0-1.25-5.94.43-11.88.7-17.82.77-3.31,0-6.61,0-9.91-.08a37.52,37.52,0,0,1-4-.12l-2-.09c-2.71-.88-3-1.5-1-1.87,2.18-1.4,6.5-1.1,9-1.19q4.13-.15,8.24,0c5.08.19,14.14-.45,17.58,4,.49.63,1.37-.26.88-.88Z"/><path class="62b6d925-3d3b-4439-ad02-f69612ae77f1" d="M733.62,322.37c-1.86,7.08-3.2,14.39-2.21,21.73.37,2.74,1.52,10.82,4.72,12a.65.65,0,0,0,.61-.16c.87-.77.75-1.93.89-3a61.86,61.86,0,0,0,.33-10.8A68.67,68.67,0,0,0,734,322.65c-.26-.76-1.47-.43-1.2.33a68.29,68.29,0,0,1,3.61,15.51,66.63,66.63,0,0,1,.36,7.2c0,1.92.48,6.5-.52,8.07.05,1.13-.12,1.18-.49.17a12.43,12.43,0,0,1-1-2.16,27.47,27.47,0,0,1-1.34-3.82,34.67,34.67,0,0,1-1.1-8.11,61.84,61.84,0,0,1,2.49-17.14.63.63,0,0,0-1.21-.33Z"/><path class="62b6d925-3d3b-4439-ad02-f69612ae77f1" d="M748.85,313.64a99.71,99.71,0,0,0-45.38-1.51c-.67.13-.51,1,0,1.2,13.55,5.42,29.68,3.84,44,3.29.8,0,.8-1.28,0-1.25-14.14.55-30.23,2.11-43.62-3.24v1.2a98.2,98.2,0,0,1,44.71,1.52.63.63,0,0,0,.33-1.21Z"/><path class="62b6d925-3d3b-4439-ad02-f69612ae77f1" d="M747.62,315.19a46.18,46.18,0,0,0-2.81,39.32.63.63,0,0,0,1.21,0c3.83-12,2.46-26.28,2.24-38.68a.63.63,0,0,0-1.25,0c.21,12.25,1.58,26.56-2.2,38.35H746a45,45,0,0,1,2.68-38.36.63.63,0,0,0-1.08-.63Z"/><path class="62b6d925-3d3b-4439-ad02-f69612ae77f1" d="M757.68,310c-6.69-5.27-14.64-7.23-22.93-8.48a75.91,75.91,0,0,0-12.49-1.2c-3.22.06-8.91.37-11.34,2.86-4,4.06,5.23,4.54,7.54,4.55a254.71,254.71,0,0,1,36.92,2.55c.79.12,1.13-1.09.33-1.21-7.16-1.07-14.36-1.86-21.59-2.27-3.59-.2-7.17-.31-10.76-.34-1.93,0-3.86.08-5.78,0a18.93,18.93,0,0,1-4.18-.34q-.51-3.12,1.76-3.5c5.38-3.17,15.94-.51,21.6.44,7.23,1.22,14.19,3.19,20,7.79.62.5,1.51-.38.88-.88Z"/><path class="62b6d925-3d3b-4439-ad02-f69612ae77f1" d="M755.71,310.23c-3.75,11.85-6.27,28-.53,39.66a.63.63,0,0,0,1.08,0c3-5.07,2.79-10.8,2.59-16.51a197.6,197.6,0,0,0-2.1-22.27c-.12-.8-1.32-.46-1.21.33,1,6.32,1.62,12.66,1.94,19,.15,3,.32,5.95.2,8.91a27.72,27.72,0,0,1-.42,4.46c-.3,1.48-.15,4.95-1.79,3.3-1.79-1.8-1.67-7.17-1.84-9.36a68.32,68.32,0,0,1-.14-8.34,71.68,71.68,0,0,1,3.43-18.88c.24-.77-1-1.1-1.21-.34Z"/><path class="62b6d925-3d3b-4439-ad02-f69612ae77f1" d="M769,305.73c-4.33-7.42-14.8-10.77-22.62-13-8.16-2.29-19-4.6-27-.91a.64.64,0,0,0-.13,1c2.68,2.22,6.26,2.79,9.54,3.79l13.09,4c8.28,2.51,16.54,5.46,25.3,5.31a.63.63,0,0,0,0-1.25c-8,.14-15.52-2.4-23.1-4.7l-11.22-3.41-5.61-1.71-3.74-1.13c-1.27-1.63-1-2.32.83-2.09,2.69-1.35,8.72-.07,11.55.29a70.12,70.12,0,0,1,11,2.29c7.16,2.1,17.05,5.31,21,12.14a.63.63,0,0,0,1.08-.63Z"/><path class="62b6d925-3d3b-4439-ad02-f69612ae77f1" d="M766.7,304.84c-6.72,10.51-6,26.8-3.65,38.5a.63.63,0,0,0,1.14.15c2.81-4.4,3.46-9.34,3.71-14.46a152.68,152.68,0,0,0-.63-21.6c-.08-.8-1.33-.8-1.25,0,1,10.7,3.17,25.93-2.91,35.42l1.15.15c-2.23-11.34-3-27.34,3.52-37.53.44-.68-.65-1.3-1.08-.63Z"/><path class="62b6d925-3d3b-4439-ad02-f69612ae77f1" d="M782,301.23c-3.12-6.61-9.15-10.28-15.31-13.75-7.53-4.24-15.35-8-24.16-5.92a.64.64,0,0,0-.14,1.15,196.26,196.26,0,0,0,38.16,18.85c.75.27,1.08-.93.33-1.21A194.39,194.39,0,0,1,743,281.63l-.15,1.14c9-2.12,17,2.24,24.62,6.6,5.49,3.14,10.65,6.59,13.43,12.49.34.73,1.42.1,1.08-.63Z"/><path class="62b6d925-3d3b-4439-ad02-f69612ae77f1" d="M780.56,301.18c-1.19,3.85-11.31,40.06-6.09,40.92s6.66-34.75,6.85-38.4c0-.8-1.21-.8-1.25,0-.33,6.21-.65,12.42-1.37,18.59-.39,3.32-.9,6.63-1.59,9.9a27.28,27.28,0,0,1-1.06,4.48l-.5,1.78c-1.06,1.51-1.43,1.57-1.1.2-.88-2.12.81-7.79,1.13-10,.45-3.07,1-6.12,1.58-9.16a179.1,179.1,0,0,1,4.61-18c.24-.77-1-1.1-1.21-.33Z"/><path class="62b6d925-3d3b-4439-ad02-f69612ae77f1" d="M798.48,299.22a153.58,153.58,0,0,0-24.25-23.29c-2.71-2-15.94-10.79-18.9-4.93-2.14,4.24,13.07,10.64,15.53,12.26,8.57,5.63,16,12.82,25.86,16.32.76.28,1.08-.93.33-1.2-7.62-2.73-13.83-7.71-20.26-12.45a93.79,93.79,0,0,0-9.41-6.27c-2.3-1.29-8.61-3.44-9.5-6-1.89-5.45,10-.38,11.81.7a63,63,0,0,1,9.93,7.75,193.33,193.33,0,0,1,18,18c.52.61,1.4-.28.89-.89Z"/><path class="62b6d925-3d3b-4439-ad02-f69612ae77f1" d="M796.44,298.87c-5,7.18-6.9,16.44-9.27,24.71-.58,2-5.52,16.69-2,17.83,4,1.3,7.32-11.17,8-13.19A84.58,84.58,0,0,0,797,300a.63.63,0,0,0-1.25,0,84.11,84.11,0,0,1-2,21.05,81.07,81.07,0,0,1-2.42,8.52c-.63,1.83-1.49,4.94-2.53,6.4-.9,1.25-2.49,3.83-3.31,1.46s1.22-7.64,1.88-10.13c.84-3.16,1.78-6.29,2.72-9.42,1.91-6.29,3.6-12.91,7.37-18.38.46-.66-.62-1.28-1.08-.63Z"/><path class="62b6d925-3d3b-4439-ad02-f69612ae77f1" d="M813.27,297.73c-5.07-8.39-10.43-16.86-17.8-23.45a44.2,44.2,0,0,0-10.64-7.17c-2.34-1.09-6-3.09-8.62-2.21-6.51,2.19,4,9.83,5.94,11.2q14.8,10.69,28.56,22.72c.61.52,1.49-.36.89-.89q-9.24-8-18.92-15.52-3.78-2.91-7.63-5.74c-1.51-1.11-3-2.17-4.56-3.29s-8-7-1.26-7c3.21,0,7.84,3.18,10.44,4.94a50.27,50.27,0,0,1,8.38,7.24c5.59,5.93,9.94,12.86,14.14,19.81a.63.63,0,0,0,1.08-.63Z"/><path class="62b6d925-3d3b-4439-ad02-f69612ae77f1" d="M810.94,297.68a150.2,150.2,0,0,0-10.07,28.9c-.54,2.31-4.72,18-.21,18.49s6.68-15.08,7.08-17.72c1.48-9.74,2.55-19.49,4.34-29.19.14-.79-1.06-1.12-1.21-.33-1.19,6.49-2.34,13-3.19,19.56-1,7.74-1.52,15.49-4.7,22.73a23,23,0,0,1-1.42,3c-1.26.11-1.7-.5-1.31-1.84-.76-2.24.14-6,.51-8.13.63-3.59,1.49-7.17,2.44-10.7a149.46,149.46,0,0,1,8.81-24.1c.34-.73-.74-1.36-1.07-.63Z"/><path class="62b6d925-3d3b-4439-ad02-f69612ae77f1" d="M823.24,297a58.85,58.85,0,0,0-10.62-20.26,52.72,52.72,0,0,0-8.21-8.08c-1-.82-3.78-3.81-5.42-2.95-3.9,2.05,1.38,9.59,3,11.19,3.3,3.16,7.14,5.71,10.44,8.91a69.27,69.27,0,0,1,10.09,12.36c.44.68,1.52.05,1.08-.63a71.16,71.16,0,0,0-10.9-13.21c-2.21-2.1-4.56-4-7-5.94a31.13,31.13,0,0,1-2.87-2.37c-.78-.78-7.14-8.81-2.89-9,1.84-.07,5.69,4.27,7,5.52a53.41,53.41,0,0,1,6.94,8,58.33,58.33,0,0,1,8,16.77.63.63,0,0,0,1.21-.34Z"/><path class="62b6d925-3d3b-4439-ad02-f69612ae77f1" d="M822.44,298.05c-2.38,9-4.41,18.06-6,27.22-.87,4.94-2.13,10.41,1.36,14.59a.64.64,0,0,0,1-.13c7.91-11.44,5.8-28,5.11-41.1,0-.8-1.3-.81-1.25,0,.35,6.65.7,13.31.41,20a66.41,66.41,0,0,1-1.07,10c-.26,1.33-2,9.22-3.42,9.21-5.18,0,4.11-35.71,5.1-39.47a.62.62,0,0,0-1.2-.33Z"/><path class="62b6d925-3d3b-4439-ad02-f69612ae77f1" d="M828.75,297.47c-1.34-6.48-3-12.88-5-19.19-1.32-4.27-2.77-8.25-7-10.27a.64.64,0,0,0-.92.38c-1.45,4.43,0,8.44,1.82,12.56a114,114,0,0,0,9.22,17.66c.44.67,1.52,0,1.08-.63a100.69,100.69,0,0,1-7-12.68c-1.41-3-6.7-11.53-4.07-14.68,2.16-2.58,4.55,4.66,5.18,6.47.77,2.19,1.36,4.47,2,6.7,1.32,4.63,2.48,9.29,3.46,14,.16.79,1.37.45,1.2-.33Z"/><path class="62b6d925-3d3b-4439-ad02-f69612ae77f1" d="M827.36,298.39a164.93,164.93,0,0,0-1.26,20.12c0,5.6-.33,11.9,1.71,17.22a.65.65,0,0,0,.77.43c3.82-.76,3.74-11.24,3.9-14.32A55.07,55.07,0,0,0,828.64,299c-.29-.74-1.5-.42-1.2.33a54.68,54.68,0,0,1,3.75,16.49,52.69,52.69,0,0,1-.15,8.61c-.16,1.65-.42,7.89-2.06,8.86-1.23.73-.94-1.26-1.1-2.63-.22-1.8-.31-3.61-.38-5.42-.13-2.88-.17-5.76-.14-8.65a167.55,167.55,0,0,1,1.25-18.19c.1-.8-1.15-.79-1.25,0Z"/><path class="62b6d925-3d3b-4439-ad02-f69612ae77f1" d="M704.66,345.41a34.19,34.19,0,0,0-12,4.9c-1.15.78-5.49,3.8-4.75,5.57,1.52,3.61,15-7.57,16.86-9,.63-.49-.26-1.37-.88-.88-2.49,1.92-5,3.77-7.66,5.5-1.16.77-2.33,1.52-3.52,2.24-.68.42-2.95,2.44-2.34.19.51-1.92,5.08-3.88,6.67-4.59a37.67,37.67,0,0,1,8-2.72c.78-.16.45-1.36-.34-1.21Z"/><path class="62b6d925-3d3b-4439-ad02-f69612ae77f1" d="M704.43,346.53c.22,3.11.41,6.24.65,9.35.12,1.45.23,2.73,1.48,3.61a.62.62,0,0,0,.91-.38c.92-4.5,1.2-9.24-1.56-13.18-.46-.65-1.54,0-1.08.63,2.58,3.67,2.3,8,1.44,12.22l.92-.37c-1.43-1-1-4.43-1.1-6l-.41-5.9c0-.8-1.3-.81-1.25,0Z"/><path class="62b6d925-3d3b-4439-ad02-f69612ae77f1" d="M744.12,6C732.89,21.78,711.9,19.8,697.45,30.41c-12.57,9.24-18.53,24.2-24.73,37.9-3.34,7.37-8.17,15.11-15.94,18.34-11.55,4.81-20.59-4-19.91-15.55.5-8.32,2.67-16.51,2.47-24.87-.18-7.49-3.17-13.38-6.58-19.87-6-11.42-17.06-29.74-5.24-41.08,6.69-6.42,17.13-7.24,25.21-3.14C663-12.64,666.49-2,663.23,8.86c-2.4,7.94-7.4,14.81-9.25,23-.89,3.93-2.31,11.49,1.12,14.78,2.89,2.78,6.64-1.7,8.47-3.89,4.88-5.83,6-12.83,9.12-19.51,2.92-6.29,7.36-10.74,14.65-11,4.32-.16,8.59.91,12.9.93,6.12,0,11.41-2.81,14.26-8.32,2.71-5.23,2.84-11.6,1.59-17.24-1.77-8.06-7.3-13.51-13.35-18.7-.37-.31-.9.22-.53.53,7.22,6.19,13.08,12.75,13.79,22.7.61,8.52-2.82,18.14-12.12,20-7.54,1.48-15.32-2.39-22.72.59-6.41,2.58-9.33,10-11.37,16-1.62,4.84-3.42,9.54-6.75,13.51-1,1.25-2.67,3.26-4.27,3.73-3.43,1-4.45-1.82-4.75-4.42-1.17-9.92,4.1-19.08,8-27.76,6-13.23,3-27.89-11.47-33.39C639.8-23.71,625.14-19.1,622.14-7c-3,12.32,5.79,25.65,11.18,36,2.33,4.51,4.51,8.83,5.07,14a57.78,57.78,0,0,1-.45,13.14c-.91,7.41-3.78,16.71-.73,23.89,5.57,13.1,21,9.54,28.68.77C671.61,74.27,674.34,66,678,58.25c4.16-8.84,9.14-17.49,16.36-24.2,14.47-13.48,38.29-10.63,50.42-27.63.28-.39-.37-.77-.64-.38Z"/><path class="62b6d925-3d3b-4439-ad02-f69612ae77f1" d="M781.61,20.11c9.41-19.24-.33-46.53-19.68-55.82-7.08-3.39-16.16-4.52-22,1.81-3,3.22-4.28,7-2.76,11.22,1.07,3,3.35,5.23,5,7.84a27.37,27.37,0,0,1,4.35,13.32c0,.48.78.48.75,0a28.15,28.15,0,0,0-3.28-11.69c-3.19-5.92-9-10.15-5.4-17.67,4.68-9.79,17.55-7.31,25-3.06C781.18-24,789.85,1.55,781,19.73c-.21.43.44.81.65.38Z"/><path class="62b6d925-3d3b-4439-ad02-f69612ae77f1" d="M585.15-19.68c4,5.2,8,10.56,10.78,16.56,3.16,6.8,3.7,13.56,3.78,21,.12,10.38-1.43,23.48,3.47,33.09,1.23,2.43,2.81,4.51,3.75,7.11,1.21,3.33,2.07,6.85,3.07,10.25,1.87,6.39,3.68,12.8,5.51,19.2,3,10.47,4.72,22.89,12.19,31.27,11.48,12.89,29,12.42,41.28,1,6.35-5.92,10.92-13.58,14.76-21.29,4.56-9.12,7.39-19.26,14.1-27.13,4.95-5.8,10.62-7.86,17.8-9.53,5.5-1.27,11.1-2.48,16-5.36,5.35-3.13,9.51-8.14,14.14-12.2a102.49,102.49,0,0,1,18.31-13c.42-.23,0-.88-.38-.65-9.73,5.31-18,12.46-26,20A36.37,36.37,0,0,1,721.3,59.7c-4.79,1.27-9.74,2-14.4,3.77-8.1,3-13.87,11.78-17,19.48-3.42,8.3-7,16.61-11.8,24.25s-10.79,14.8-19.13,18.43c-10.24,4.46-21.24,1.92-29.17-5.82-9.06-8.85-10.94-23.51-14.29-35.25-3.16-11.06-5.45-22.9-11-33-6.55-11.87-3.33-28.08-4.2-41.08-.79-11.85-7.48-21.59-14.55-30.71-.3-.38-.83.16-.54.53Z"/><path class="62b6d925-3d3b-4439-ad02-f69612ae77f1" d="M849.15,490c-16.35,5.59-32.84,12-42.92,26.84-.28.4.37.78.64.38,10-14.68,26.33-21,42.47-26.49.46-.16.26-.88-.19-.73Z"/><path class="62b6d925-3d3b-4439-ad02-f69612ae77f1" d="M766.32,507.08a76.63,76.63,0,0,0-10.4,26.42c-1.55,7.9-2.41,16.53.49,24.23,6.42,17.09,25.2,18.39,40.6,21.62.47.09.67-.63.2-.73-15.5-3.25-34.72-4.55-40.5-22.28-5.06-15.52,1.91-35.74,10.26-48.88.26-.41-.39-.78-.65-.38Z"/><path class="62b6d925-3d3b-4439-ad02-f69612ae77f1" d="M848.82,466.89c-14.83,5.2-29.58,10.82-44.56,15.53-11.47,3.61-22,7-30.15,16.42-.32.37.21.9.53.53,8.76-10.12,20.37-13,32.54-17.1,14-4.68,27.9-9.77,41.84-14.65.45-.16.26-.89-.2-.73Z"/><path class="62b6d925-3d3b-4439-ad02-f69612ae77f1" d="M810.71,450.75c-8.82.72-17.74.91-26.46,2.56-7.63,1.43-14,4.66-20.33,9.19-12.36,8.89-20.1,20.73-27.09,34-6.84,13-13.51,27.12-14.12,42A40.83,40.83,0,0,0,726.1,557c3,6.66,7,9.61,12.89,13.52,7.46,5,15.25,10,19.9,17.92,5.82,9.91,6.49,23.18,4.85,34.29-.07.47.65.68.72.2,2-13.4.6-29.45-8.69-40.05-4-4.58-9-8.1-14.07-11.46-2.69-1.79-5.49-3.47-8.06-5.43-3.57-2.72-5.76-6.58-7.42-10.69-6.22-15.29-1-32.3,5.41-46.61,6.15-13.66,13.21-27.66,24-38.25,6.5-6.38,14.73-12.66,23.59-15.24,10.15-3,21-2.88,31.51-3.73.48,0,.48-.79,0-.75Z"/><path class="62b6d925-3d3b-4439-ad02-f69612ae77f1" d="M718.56,610c6.93-11.19,4.38-24.57-3.15-34.82-4.24-5.76-10.13-10-14.51-15.67-6-7.79-8.82-17.55-9-27.32-.39-16.87,7.57-33.08,19.61-44.61,6-5.69,13.09-9.92,19.43-15.14,6.53-5.37,12.08-11.77,17.64-18.11,12.3-14.06,25.48-27.78,42.71-35.68.43-.2,0-.85-.38-.65-14.65,6.72-26.53,17.69-37.28,29.5-5.81,6.39-11.25,13.14-17.43,19.19-5.94,5.82-12.83,10.31-19.37,15.39C694.11,499.66,680.88,535,700.32,560c5.59,7.18,13.23,12.32,17.57,20.5,5,9.3,5.69,19.94,0,29.1-.26.41.39.79.64.38Z"/><path class="62b6d925-3d3b-4439-ad02-f69612ae77f1" d="M811.91,390.13c12.34,2.85,22.43,10.52,32.47,17.85.39.29.76-.36.38-.64-10.1-7.37-20.25-15.07-32.65-17.93-.47-.11-.67.61-.2.72Z"/><path class="62b6d925-3d3b-4439-ad02-f69612ae77f1" d="M663.4,597.48c6.74-16.79-3.1-34.05-3.94-51.08-.89-17.94,6-36.33,17.68-49.87,11.1-12.9,26.87-18.93,42.28-25a61.79,61.79,0,0,0,29.48-24.11c10-15.14,15.78-33,29.61-45.4.36-.32-.17-.85-.53-.53-11.62,10.43-17.76,24.8-25.26,38.15-4,7.15-8.61,14-14.63,19.63-6.18,5.79-13.3,9.35-21.11,12.41-14,5.46-28.2,11.26-38.67,22.43a74.51,74.51,0,0,0-19,40.54c-1.33,9.75-.07,19.25,2.06,28.78,2.56,11.44,5.94,22.43,1.35,33.85-.18.45.55.64.73.2Z"/><path class="62b6d925-3d3b-4439-ad02-f69612ae77f1" d="M845,73.43c-3-12.69-6.9-25.74-15.44-35.92-8.41-10-18.78-12.89-31.35-14-8.06-.72-15.22-2.05-21.76-7.12-5.12-4-9.61-8.55-15.18-11.93a58,58,0,0,0-36-8.1c-1.29.12-1.83,2.16-.33,2.45a44.09,44.09,0,0,1,20.58,10c6.3,5.47,9.86,12.74,14.85,19.26A52.53,52.53,0,0,0,773.7,40.32c5.76,3.7,13.95,4.82,18.82,9.6s5.94,12.11,8.67,18a45.9,45.9,0,0,0,10.34,14.27,42.5,42.5,0,0,0,31.4,11.68c1.6-.09,1.61-2.59,0-2.5-13.83.82-27-6-35.15-17.15-6.89-9.44-7.2-24.17-18.75-29.6-6.68-3.15-13.12-5.2-18.9-10-6.19-5.2-10-11.81-14.6-18.34A47.55,47.55,0,0,0,725.64-3.6l-.33,2.46A56,56,0,0,1,762.15,8c4.88,3.25,8.91,7.51,13.59,11a33.18,33.18,0,0,0,15.48,6.26c5.82.88,11.78.83,17.55,2.08a33,33,0,0,1,16.94,9.61c9.7,10,13.73,23.95,16.91,37.17.37,1.57,2.78.9,2.41-.66Z"/><path class="62b6d925-3d3b-4439-ad02-f69612ae77f1" d="M798.77,57.79c-9.89,1.09-19.27,3.43-27,10-10,8.57-22.58,17.29-35.75,9.46a1.26,1.26,0,0,0-1.52,2,38.08,38.08,0,0,0,17.13,11.35c8.32,2.58,16.31.74,24.76.16,14.84-1,33.91,10.52,47.6.08,1.26-1,0-3.14-1.26-2.16-6.2,4.73-14.65,3.85-22,3.14-7.63-.75-14.79-3.9-22.52-3.66s-15.26,2.45-23,.8a35.29,35.29,0,0,1-19-11.48l-1.51,2c9.39,5.58,20.25,3.6,29.11-2.1,5.26-3.38,9.36-8.31,14.77-11.44,6.12-3.54,13.16-4.86,20.1-5.62,1.59-.18,1.6-2.68,0-2.5Z"/><path class="62b6d925-3d3b-4439-ad02-f69612ae77f1" d="M793.45,90.7a22.24,22.24,0,0,0-10.67,30.58l.74-1.83c-5.76,2.34-11,5.07-13.64,11a18.65,18.65,0,0,0,2.37,18.92c.79,1,2.76.5,2.29-1-2.28-7,1.65-12.65,8.9-12.72,3.63,0,7.08,1.39,10.74.65,5.52-1.13,8.49-6,9.58-11.2.34-1.57-2.07-2.24-2.41-.67-1.31,6.19-5.26,10.05-11.82,9.46-3.67-.33-7.4-1.42-11-.13-6.34,2.27-8.3,9.33-6.38,15.27l2.28-1c-3.38-4.51-4.67-10.11-2.72-15.53,2.12-5.89,7.08-8.52,12.5-10.72a1.28,1.28,0,0,0,.74-1.84,19.8,19.8,0,0,1,9.79-27.16c1.47-.64.19-2.8-1.27-2.16Z"/><path class="62b6d925-3d3b-4439-ad02-f69612ae77f1" d="M802.56,125.57c6.37-.84,13-1.7,18.67-4.86,3.11-1.72,5.47-4.35,7.81-7,5.36-6,11.66-13,15-20.43.64-1.46-1.51-2.73-2.16-1.26-3,6.68-8.42,12.74-13.12,18.24a47.3,47.3,0,0,1-6.67,7c-5.39,4.13-13,5-19.5,5.83-1.57.21-1.6,2.71,0,2.5Z"/><path class="62b6d925-3d3b-4439-ad02-f69612ae77f1" d="M779.24,130A20.92,20.92,0,0,1,789.72,125c.79-.13.45-1.33-.34-1.2a22.1,22.1,0,0,0-11,5.27c-.6.53.28,1.41.89.88Z"/><path class="62b6d925-3d3b-4439-ad02-f69612ae77f1" d="M790.39,124c-1.84-11.52,6.45-24.19,16.36-29.36.72-.37.09-1.45-.63-1.07-10.48,5.46-18.86,18.67-16.94,30.76.13.79,1.33.45,1.21-.33Z"/><path class="62b6d925-3d3b-4439-ad02-f69612ae77f1" d="M756.7,85.46c7.62,1.05,14.4-1.45,20.57-5.85,3.33-2.38,6.44-5.17,10.17-6.92,5-2.38,10.74-2.59,16.18-1.92.8.1.79-1.15,0-1.25-7.48-.93-14.45.18-20.74,4.41-8.19,5.5-15.12,11.81-25.85,10.33-.79-.11-1.13,1.09-.33,1.2Z"/><path class="62b6d925-3d3b-4439-ad02-f69612ae77f1" d="M758.62,13.15c5,5.92,10.26,12,17.22,15.77s15.32,4.7,22.56,8.21C814.6,45,825,60.6,832.24,76.54c.33.73,1.41.1,1.08-.63-6.65-14.72-15.92-28.9-30-37.49-6.8-4.16-14.28-5.68-21.69-8.35-9.4-3.38-15.86-10.37-22.16-17.8-.52-.62-1.4.27-.88.88Z"/><path class="62b6d925-3d3b-4439-ad02-f69612ae77f1" d="M751.36,81.62c1.14,2.17,3.32,3.08,5.52,3.83.77.26,1.09-1,.33-1.2-1.9-.65-3.79-1.38-4.77-3.26-.37-.72-1.45-.08-1.08.63Z"/><path class="62b6d925-3d3b-4439-ad02-f69612ae77f1" d="M756.62,84.4a9.85,9.85,0,0,0-3.23,4.9.62.62,0,0,0,1.2.34,8.73,8.73,0,0,1,2.91-4.36c.63-.5-.26-1.38-.88-.88Z"/><path class="62b6d925-3d3b-4439-ad02-f69612ae77f1" d="M765.24,74.79c3.3,3.75,9,3.83,13.64,3.45.8-.07.81-1.32,0-1.25-4.28.36-9.68.41-12.76-3.09-.53-.6-1.41.29-.88.89Z"/><path class="62b6d925-3d3b-4439-ad02-f69612ae77f1" d="M778.47,77.22c-2.07,3.66-4,7.41-3.6,11.74.06.79,1.32.8,1.25,0-.37-4.12,1.46-7.63,3.43-11.11a.63.63,0,0,0-1.08-.63Z"/><path class="62b6d925-3d3b-4439-ad02-f69612ae77f1" d="M783.36,63c4.23,1.18,8.35,2.89,10.34,7.07.35.72,1.43.09,1.08-.63-2.13-4.47-6.55-6.38-11.09-7.64a.62.62,0,0,0-.33,1.2Z"/><path class="62b6d925-3d3b-4439-ad02-f69612ae77f1" d="M793.89,69.25C789,74.51,788,83,788.16,89.84a.63.63,0,0,0,1.25,0c-.18-6.48.76-14.72,5.36-19.71.54-.59-.34-1.48-.88-.88Z"/><path class="62b6d925-3d3b-4439-ad02-f69612ae77f1" d="M812.06,81.26a16.85,16.85,0,0,0-2.46,12c.13.79,1.33.46,1.21-.33a15.52,15.52,0,0,1,2.33-11.08c.44-.68-.64-1.3-1.08-.63Z"/><path class="62b6d925-3d3b-4439-ad02-f69612ae77f1" d="M817.85,85.39A21.9,21.9,0,0,1,833,81.29c.8.08.8-1.17,0-1.25a23,23,0,0,0-15.81,4.27c-.65.46,0,1.55.63,1.08Z"/><path class="62b6d925-3d3b-4439-ad02-f69612ae77f1" d="M802.8,66.64c4.45-4.85,16.51-5.67,22.59-3.14.74.31,1.06-.9.33-1.21-4.13-1.72-9.11-1.15-13.49-.85-4,.29-7.52,1.27-10.31,4.32-.55.59.34,1.48.88.88Z"/><path class="62b6d925-3d3b-4439-ad02-f69612ae77f1" d="M826.13,63.1c.75-5.27,1.75-10.84,6.18-14.34.63-.49-.26-1.37-.88-.88-4.58,3.61-5.72,9.41-6.5,14.89-.11.79,1.09,1.13,1.2.33Z"/><path class="62b6d925-3d3b-4439-ad02-f69612ae77f1" d="M794.24,50.13c6.22-4.32,15.66-1.8,21.83,1.18.72.35,1.35-.73.63-1.08-6.65-3.21-16.44-5.8-23.09-1.18-.66.46,0,1.54.63,1.08Z"/><path class="62b6d925-3d3b-4439-ad02-f69612ae77f1" d="M817,50.57a26.33,26.33,0,0,1,3-18.7.63.63,0,0,0-1.08-.63,27.73,27.73,0,0,0-3.17,19.66c.16.79,1.36.46,1.21-.33Z"/><path class="62b6d925-3d3b-4439-ad02-f69612ae77f1" d="M775,39.72c5.86-4.59,13.06-4.45,20.13-4.07.8,0,.8-1.21,0-1.25-7.51-.4-14.85-.38-21,4.44-.63.49.26,1.37.89.88Z"/><path class="62b6d925-3d3b-4439-ad02-f69612ae77f1" d="M795.74,34.83a12.2,12.2,0,0,1,.51-9.06c.33-.72-.74-1.36-1.08-.63a13.53,13.53,0,0,0-.63,10c.24.76,1.45.44,1.2-.33Z"/><path class="62b6d925-3d3b-4439-ad02-f69612ae77f1" d="M756.78,20.39c2.34-1.38,6.59-.42,8.79.83a.63.63,0,0,0,.63-1.08c-2.63-1.49-7.29-2.46-10.05-.83a.63.63,0,0,0,.63,1.08Z"/><path class="62b6d925-3d3b-4439-ad02-f69612ae77f1" d="M766.52,20.51a11.16,11.16,0,0,1,1.32-8.66.63.63,0,0,0-1.08-.63,12.46,12.46,0,0,0-1.44,9.63c.19.78,1.39.45,1.2-.34Z"/><path class="62b6d925-3d3b-4439-ad02-f69612ae77f1" d="M759.1,12.07a19.38,19.38,0,0,1-1.93-8.29.63.63,0,0,0-1.25,0A20.9,20.9,0,0,0,758,12.7c.35.72,1.42.09,1.08-.63Z"/><path class="62b6d925-3d3b-4439-ad02-f69612ae77f1" d="M748.24,10.06c3.88-.73,7.09.65,10,3.15.61.53,1.5-.35.89-.88C755.86,9.52,752.26,8,747.9,8.85c-.79.15-.45,1.35.34,1.21Z"/><path class="62b6d925-3d3b-4439-ad02-f69612ae77f1" d="M778.65,129a6.3,6.3,0,0,0-1.64,2.5,7.44,7.44,0,0,0,0,3.51c.19.78,1.39.45,1.21-.33a6.11,6.11,0,0,1,0-2.85,4.94,4.94,0,0,1,1.32-1.94c.55-.59-.34-1.48-.89-.89Z"/><path class="62b6d925-3d3b-4439-ad02-f69612ae77f1" d="M778.47,129a7.37,7.37,0,0,1-5.85.47c-.72-.35-1.36.73-.63,1.08a8.4,8.4,0,0,0,7.11-.48.62.62,0,0,0-.63-1.07Z"/><path class="62b6d925-3d3b-4439-ad02-f69612ae77f1" d="M789.84,123.36a9.3,9.3,0,0,0-8.19-2.64c-.79.14-.46,1.34.33,1.21a7.92,7.92,0,0,1,7,2.32c.57.56,1.46-.32.89-.89Z"/><path class="62b6d925-3d3b-4439-ad02-f69612ae77f1" d="M789,124.23a14,14,0,0,0,1.12,11c.39.7,1.47.07,1.08-.63a12.71,12.71,0,0,1-1-10.09c.24-.77-1-1.1-1.2-.33Z"/><path class="62b6d925-3d3b-4439-ad02-f69612ae77f1" d="M793.52,106.14c-1.82,7.59,2,14.49,8.54,18.33a.63.63,0,0,0,.63-1.08c-6-3.55-9.66-9.84-8-16.92.19-.78-1-1.11-1.2-.33Z"/><path class="62b6d925-3d3b-4439-ad02-f69612ae77f1" d="M794,105.81a12.86,12.86,0,0,0-12-.29c-.73.35-.09,1.43.63,1.08a11.52,11.52,0,0,1,10.72.29c.7.38,1.34-.7.63-1.08Z"/><path class="62b6d925-3d3b-4439-ad02-f69612ae77f1" d="M801.65,96.76a18,18,0,0,0-12-2.89c-.79.1-.8,1.35,0,1.25A16.88,16.88,0,0,1,801,97.84c.68.44,1.31-.64.63-1.08Z"/><path class="62b6d925-3d3b-4439-ad02-f69612ae77f1" d="M801.1,97.34c-.59,10,6.1,20.87,16.14,23.41a.63.63,0,0,0,.33-1.21c-9.51-2.4-15.77-12.81-15.22-22.2,0-.8-1.21-.8-1.25,0Z"/><path class="62b6d925-3d3b-4439-ad02-f69612ae77f1" d="M815.05,93.41c-.15,8.81,4.66,15.87,11.66,20.84.66.47,1.28-.62.63-1.08-6.62-4.7-11.18-11.4-11-19.76a.63.63,0,0,0-1.25,0Z"/><path class="62b6d925-3d3b-4439-ad02-f69612ae77f1" d="M826.56,90.59c-.27,5.23,4.45,11,7.81,14.6.55.59,1.44-.29.89-.88-3.09-3.32-7.7-8.9-7.45-13.72,0-.8-1.21-.8-1.25,0Z"/><path class="62b6d925-3d3b-4439-ad02-f69612ae77f1" d="M801.26,384.11c3.58-2.61,10.68-2,15-1.74a32.31,32.31,0,0,1,15,4.47.38.38,0,0,0,.38-.65,33.29,33.29,0,0,0-15.43-4.57c-4.47-.28-11.52-.95-15.35,1.84-.39.28,0,.93.37.65Z"/><polygon class="a2a4382c-9a7a-4d53-b033-a9d86ae32be7" points="833.28 639.49 318.4 637.13 318.4 -48 833.28 -45.64 833.28 639.49"/></g></svg>