<svg id="7fb674e0-4aa5-460c-b2ad-1dd4c7605b4d" data-name="Calque 1" xmlns="http://www.w3.org/2000/svg" viewBox="0 0 841.89 595.28"><defs><style>.dc187ad1-e7b4-479a-b813-20d1d306105f{fill:#11b3b5;}</style></defs><title>Plan de travail 1</title><path class="dc187ad1-e7b4-479a-b813-20d1d306105f" d="M741.62,424.94c30.92-17.88,65.3-28.44,100.38-34.39V388c-55.52,9.42-109,31-149.53,71.27a221.79,221.79,0,0,0-29.86,36.85c-.75,1.16.68,2.15,1.71,1.71a185,185,0,0,1,62-14.56c1.6-.09,1.61-2.59,0-2.5A188.2,188.2,0,0,0,667,494.08,226.81,226.81,0,0,1,741.62,424.94Z"/><path class="dc187ad1-e7b4-479a-b813-20d1d306105f" d="M727.1,482.85l13.62-17.18c1-1.25,2-2.5,3-3.74,1.88-2.31,2.32-4.25,5.44-.29,2,2.55,3,7.48,4.23,10.52.6,1.48,3,.83,2.42-.66-1.7-4.21-2.95-10-5.58-13.7a3.43,3.43,0,0,0-4.76-1.27c-3.63,1.87-6.35,7.21-8.85,10.36l-11.24,14.19c-1,1.25.76,3,1.76,1.77Z"/><path class="dc187ad1-e7b4-479a-b813-20d1d306105f" d="M842,461.15A247.8,247.8,0,0,0,755.4,472c-1.54.47-.88,2.89.66,2.41A246,246,0,0,1,842,463.65Z"/><path class="dc187ad1-e7b4-479a-b813-20d1d306105f" d="M842,593.06a331.06,331.06,0,0,0-104.73-9.2c20.57-6.18,42.21-7.11,63.67-7.43q20.53-.31,41.06-.58v-2.51q-21.43.27-42.86.61c-24.48.41-49.2,1.76-72.23,10.84-1.19.47-1.19,2.61.33,2.45A329,329,0,0,1,842,595.63Z"/><path class="dc187ad1-e7b4-479a-b813-20d1d306105f" d="M842,557.9a347.78,347.78,0,0,0-134-15.27A479.71,479.71,0,0,1,842,530v-2.51a482.35,482.35,0,0,0-151.42,17c-1.6.44-.88,2.62.66,2.41A343.68,343.68,0,0,1,842,560.48Z"/><path class="dc187ad1-e7b4-479a-b813-20d1d306105f" d="M842,325.22c-34.72-4.85-52.73-42.39-70-68.45-16.51-24.91-38.33-46.76-66.81-57.36a87.71,87.71,0,0,0-45.67-4.52c-1.34.24-1,2,0,2.42C695,210.78,704.77,250,705.19,284.24c.45,35.8-7.64,72.86,2.9,107.91,4.23,14.08,12.64,29.49,27.7,33.87a1.25,1.25,0,0,0,.67-2.41c-16.61-4.83-24.28-23.69-27.78-39.05-4.29-18.87-3.75-38.44-2.71-57.65,1.79-32.9,5.84-69.1-10-99.47A68.83,68.83,0,0,0,664.4,196.7c28.93-3.39,57,9.64,78.22,28.82,24.74,22.34,36.93,53.8,59,78.2,10.59,11.7,23.91,21.78,39.93,23.95a1.28,1.28,0,0,0,.44,0Z"/><path class="dc187ad1-e7b4-479a-b813-20d1d306105f" d="M159.55,333.89c-33.2,1.53-67,4.12-98.35,15.93-23.88,9-45.45,23.11-62.2,42.27v3.77c17.29-20.69,40.4-35.64,65.77-44.69,28.68-10.24,59.2-13,89.44-14.52-13.75,7.6-27.35,15.88-38.17,27.39-13.88,14.77-18.91,32.85-23.35,52.15-4.72,20.55-9.5,41.44-18.62,60.57a118.74,118.74,0,0,1-37.9,45.12C24.58,530.29,11.94,537-1,543.08v2.69c27.24-12.85,53.41-28.53,70-54.59,10.76-16.91,16.8-36.37,21.67-55.67,5.14-20.36,7.54-42.86,19.72-60.54s31.31-28.68,49.8-38.75A1.26,1.26,0,0,0,159.55,333.89Z"/><path class="dc187ad1-e7b4-479a-b813-20d1d306105f" d="M267.3,469.32c-29.53-4.68-55.88-19.58-84.27-28.14a139.59,139.59,0,0,0-44.58-6.05c-16.53.47-32.88,3.32-49.13,6.16-1.59.28-.91,2.69.66,2.41,16.68-2.91,33.46-5.84,50.43-6.11a140.13,140.13,0,0,1,45.24,7c23.62,7.56,46,19.1,70.1,24.92-20.09.5-40.41,1.29-60.24,4.05-10,1.38-19.2,4.43-27.51,10.17-7.59,5.24-14.15,11.79-20.6,18.33-7,7.07-13.91,14.33-22,20.15a106.81,106.81,0,0,1-29.56,14.5C76.51,543,56.24,545.3,36.6,550.27c-13.24,3.35-26.13,8.05-37.6,15.11v3C26.21,551,60.81,549.65,91.74,540.61a114.26,114.26,0,0,0,48.68-28c13.87-13.46,26.74-29.7,46.26-34.8,12.62-3.3,26.24-3.48,39.2-4.3q20.52-1.31,41.09-1.75C268.31,471.74,268.75,469.55,267.3,469.32Z"/><path class="dc187ad1-e7b4-479a-b813-20d1d306105f" d="M76.82,597A141.91,141.91,0,0,1,92.2,582.47a380.59,380.59,0,0,1,31.34-24.06A372.53,372.53,0,0,1,156.4,538.2,140.76,140.76,0,0,0,109.84,597h2.7c14-33,41.2-59,74.06-73.5q2.15-.93,4.31-1.83c1.46-.6.84-3-.66-2.41s-3,1.24-4.47,1.89a370.74,370.74,0,0,0-66.39,37.11A391.84,391.84,0,0,0,87.72,583a117.17,117.17,0,0,0-14.11,14Z"/><path class="dc187ad1-e7b4-479a-b813-20d1d306105f" d="M122.13,597c23-15.58,47.21-30.45,74.55-36.18-14.19,10.41-27.49,22.29-37.94,36.18h3.13c11.21-14.48,25.58-26.71,40.7-37.35a1.26,1.26,0,0,0-1-2.29c-31.14,5-58.21,22.13-83.92,39.64Z"/><path class="dc187ad1-e7b4-479a-b813-20d1d306105f" d="M91.74,425.71a76.07,76.07,0,0,0,37.48-21.28c9.67-9.84,17.28-21.43,26.12-32,9.46-11.3,20.07-20.45,34.85-23.51,7.17-1.48,14.59-2.22,21.27-5.43a37.78,37.78,0,0,0,14.33-12.67c10.25-14.66,11.66-33.47,10.15-50.76-.13-1.59-2.64-1.61-2.5,0,1.39,15.92.39,32.92-8.12,46.91-4.22,6.94-10.19,12.69-17.91,15.52-7.08,2.6-14.7,3-21.95,5-24.22,6.45-37.06,31.11-52.23,48.85-11.25,13.16-25.07,23.1-42.16,27-1.57.36-.9,2.77.67,2.42Z"/><path class="dc187ad1-e7b4-479a-b813-20d1d306105f" d="M235.5,280.33c2.94-8.64,3.87-16.44.49-25.1-1.68-4.28-7.61-14.06-13.86-11.4-4.78,2-1.94,14.47-.95,18.17,2.22,8.35,7,15.59,12.24,22.33,1,1.27,2.74-.51,1.77-1.77A75.68,75.68,0,0,1,226.43,269a42.91,42.91,0,0,1-3.25-9.34c-.53-2.43-1.64-6.65-.83-9.11-.18-1.26.54-2,2.17-2.19q1.71-2.42,3.3-.5c1.69.84,3.17,3,4.05,4.46a30,30,0,0,1,3.23,8.44c1.54,6.67.15,12.57-2,18.9-.52,1.53,1.9,2.18,2.41.67Z"/><path class="dc187ad1-e7b4-479a-b813-20d1d306105f" d="M235.05,310.76a79.27,79.27,0,0,0,18.67-20.49c2.32-3.78,8.45-15.66,3.39-19.46-4.57-3.43-11.53,7.79-13.56,10.7a70.81,70.81,0,0,0-10.74,25.07c-.35,1.57,2.06,2.24,2.41.67a70.18,70.18,0,0,1,7.17-19.17c1.77-3.15,8.57-15.28,12.39-13.81,5.29,2-4.23,16.49-6.5,19.51a82.14,82.14,0,0,1-15,15.21c-1.26,1,.52,2.76,1.77,1.77Z"/><path class="dc187ad1-e7b4-479a-b813-20d1d306105f" d="M235,306.76a78.18,78.18,0,0,0-12.65-26c-3.1-4.07-9.36-10.64-14.88-6.32S202.91,289,206.79,294c5.54,7.17,15,13.72,23.19,17.4,1.46.66,2.73-1.5,1.27-2.16-6.51-2.93-12.06-7.32-17.48-11.9-2.22-1.87-4.53-3.8-6-6.33-1.78-3-2.64-8.57-.55-11.74l5.52-3.5a7.35,7.35,0,0,1,3.18,1.74,18.39,18.39,0,0,1,3,3,59.93,59.93,0,0,1,6.14,8.93,78.89,78.89,0,0,1,7.49,18,1.25,1.25,0,0,0,2.41-.66Z"/><path class="dc187ad1-e7b4-479a-b813-20d1d306105f" d="M222.59,335.82c8.79-.95,17.95-2.56,26.11-6.08,3.84-1.66,11.83-7.26,10-12.62-1.47-4.4-11.45.08-13.94,1.09-8.07,3.26-15.19,8.4-22.19,13.46-1.3.93-.05,3.1,1.26,2.16,4.2-3,8.42-6.07,12.87-8.74s10.59-6.69,15.78-6.69a1.67,1.67,0,0,1,2.08.51c1.49.23,1.71.88.67,1.94-.43,2-3.22,4.22-4.73,5.17a35.65,35.65,0,0,1-8.76,3.47,107.1,107.1,0,0,1-19.19,3.83c-1.58.17-1.6,2.67,0,2.5Z"/><path class="dc187ad1-e7b4-479a-b813-20d1d306105f" d="M224.31,332.8c.47-7.47-.08-15.63-4.82-21.79-2.58-3.35-7.91-7.46-12.41-5.23-3.75,1.86-4.24,6.93-3.08,10.52,2.29,7.07,11.12,12.6,16.3,17.33,1.18,1.09,3-.68,1.77-1.76-3.37-3.08-6.77-6.12-10.11-9.24a22.9,22.9,0,0,1-4.59-5.09c-1.59-2.8-3.36-10.55,3.83-9.6,4.93.65,8.29,7,9.53,11.09,1.37,4.46,1.37,9.16,1.08,13.77-.1,1.6,2.4,1.6,2.5,0Z"/><path class="dc187ad1-e7b4-479a-b813-20d1d306105f" d="M211.39,343.82c6.55-.43,12.75,0,17.74,4.63,3.53,3.29,7.78,10,7.24,15.08l.09,1.49-4.12,2.3c-.71,0-3-2.5-3.79-3.21a59,59,0,0,1-5.08-5.29,70.16,70.16,0,0,1-9.72-15.28c-.69-1.46-2.85-.19-2.16,1.26a69,69,0,0,0,15.78,21.63c3,2.72,10,7.58,11.48.59,1.27-6.1-2.27-13.79-6.06-18.32-5.61-6.72-13-7.93-21.4-7.38-1.6.11-1.61,2.61,0,2.5Z"/><path class="dc187ad1-e7b4-479a-b813-20d1d306105f" d="M213.18,343.38c-4.13-7.83-7-15.8-13.73-21.91-3.44-3.13-10.3-8.84-15.41-6.44s-2.92,9.61.08,12.82,7.56,4.81,11.49,6.65l14.71,6.91c1.45.68,2.72-1.47,1.27-2.16q-8.67-4.06-17.32-8.13c-2.54-1.2-5.17-2.27-7.31-4.13-1.22-1.05-4.41-4.69-3.51-6.66l4.36-3.12a7.63,7.63,0,0,1,2.27.87c11.47,5.15,15.52,16.27,20.94,26.56.75,1.43,2.91.17,2.16-1.26Z"/><path class="dc187ad1-e7b4-479a-b813-20d1d306105f" d="M181,350.79c6.17,7,10.43,14.42,18.76,19.36,4,2.37,15.13,8.46,19.11,3.76,5-5.86-4.23-12.37-8.22-15.15a61.86,61.86,0,0,0-27.07-10.52c-1.58-.22-2.26,2.19-.67,2.41a59.54,59.54,0,0,1,19.26,5.93,62.61,62.61,0,0,1,7.91,4.83,39.5,39.5,0,0,1,4.93,3.95q3.57,2.2-.1,4.68-.72,3.54-3.28,2.29c-5.33.07-12.72-5.31-16.51-8.57-5-4.28-8.08-9.87-12.36-14.74-1.06-1.21-2.82.56-1.76,1.77Z"/><path class="dc187ad1-e7b4-479a-b813-20d1d306105f" d="M182.09,348.42c-.49-3.53-5.54-28.93-12.32-21.1-7.28,8.42,1.78,21.69,11.09,23.09,1.57.24,2.25-2.17.66-2.41a13.16,13.16,0,0,1-9.51-6.38,13.75,13.75,0,0,1-2-6c-.13-1.48,0-7.35,2.66-7.24,1.47.06,4.43,9.56,4.71,10.44a60.11,60.11,0,0,1,2.28,10.28c.21,1.59,2.62.91,2.41-.66Z"/><path class="dc187ad1-e7b4-479a-b813-20d1d306105f" d="M151.9,375.92a73.82,73.82,0,0,0,23.86,8.76c4.49.76,11.86,2.8,13-3.46C191.46,366.59,160,370.16,153,372a1.25,1.25,0,0,0,.67,2.41,52.61,52.61,0,0,1,16.44-1.54,51.47,51.47,0,0,1,9,1.19,15,15,0,0,1,4.68,1.56q5.85,5.66-.64,7.45c-4.29,1-11.21-1.56-15.38-2.85a73.21,73.21,0,0,1-14.58-6.43,1.25,1.25,0,0,0-1.27,2.16Z"/><path class="dc187ad1-e7b4-479a-b813-20d1d306105f" d="M154.34,374.05a67.44,67.44,0,0,0,3.29-21.42c-.06-5-.17-11-4.27-14.53-1.21-1.05-3,.71-1.76,1.76,4.29,3.69,3.71,11.38,3.47,16.52a65.57,65.57,0,0,1-3.14,17c-.49,1.54,1.92,2.2,2.41.67Z"/><path class="dc187ad1-e7b4-479a-b813-20d1d306105f" d="M139.8,347a65.35,65.35,0,0,0,12.77,27.41c1,1.25,2.76-.52,1.77-1.77a62.72,62.72,0,0,1-12.13-26.3c-.33-1.58-2.74-.91-2.41.66Z"/><path class="dc187ad1-e7b4-479a-b813-20d1d306105f" d="M130.35,401a56.69,56.69,0,0,0,26.3,5.33c4.7-.22,16.43-.37,17.31-6.76,2.11-15.55-35.51-3.47-41.21-1.06-1.48.62-.21,2.78,1.26,2.16a74.92,74.92,0,0,1,18.9-5.32,69.58,69.58,0,0,1,8.89-.67c1.48,0,3.48-.34,4.87.19,1.76-.18,2.55.88,2.38,3.2,2,2.24,1.78,3.5-.63,3.78-4.47,2.44-12,2.23-17,2a54.14,54.14,0,0,1-19.79-5c-1.46-.66-2.73,1.5-1.26,2.16Z"/><path class="dc187ad1-e7b4-479a-b813-20d1d306105f" d="M132.69,398.73c3.38-9.35,5-20.09.57-29.39-1.86-3.89-8.52-13.23-13.55-8.85-5.65,4.92-6,14.82-3.38,21.23a70.87,70.87,0,0,0,8.35,14.47c1.89,2.55,4,4.5,7.33,4.24,1.59-.12,1.61-2.62,0-2.5-5.58.44-10.48-11.29-12.51-15.34a19,19,0,0,1-2.23-9.55c.12-2.71,1.11-8.86,3.84-10.42,5.82-3.33,11,9.92,11.8,13.48,1.54,7.4-.11,15-2.63,22-.55,1.52,1.86,2.17,2.41.67Z"/><path class="dc187ad1-e7b4-479a-b813-20d1d306105f" d="M100.75,421.44c4.85,7.26,14.64,10.25,23,10.65,6.73.32,19.48-1.17,22.77-8.24,3.68-7.89-8.21-10.06-13.45-10.75-4.62-.61-9.25.55-13.78,1.31l-18.76,3.12c-1.58.27-.91,2.68.66,2.41l21.57-3.59c3.82-.63,7.45-1.28,11.31-.58,3,.56,12.17,2.08,10,7.46-1.21,3-7.42,4.59-10.14,5.3a33.43,33.43,0,0,1-10.2,1.06c-7.39-.4-16.52-2.95-20.84-9.41-.89-1.33-3.06-.08-2.16,1.26Z"/><path class="dc187ad1-e7b4-479a-b813-20d1d306105f" d="M101.08,419.05c3.65-2.17,3.92-6.55,4.28-10.41a191.15,191.15,0,0,0,.69-22.19,1.25,1.25,0,0,0-2.5,0c.12,4.94.09,9.87-.16,14.8-.21,4.13.61,13.15-3.57,15.65a1.25,1.25,0,0,0,1.26,2.15Z"/><path class="dc187ad1-e7b4-479a-b813-20d1d306105f" d="M101.41,418.25A29.66,29.66,0,0,1,97.27,409a1.25,1.25,0,0,0-2.41.66,31.91,31.91,0,0,0,4.39,9.82c.9,1.32,3.07.07,2.16-1.27Z"/><path class="dc187ad1-e7b4-479a-b813-20d1d306105f" d="M90.28,435.64a16,16,0,0,1,10.16,3.83c1.23,1,3-.74,1.76-1.77a18.75,18.75,0,0,0-11.92-4.56,1.25,1.25,0,0,0,0,2.5Z"/><path class="dc187ad1-e7b4-479a-b813-20d1d306105f" d="M842,500.06a29.73,29.73,0,0,1-11.59,5.57c-10.92,2.57-22.17-.3-33-1.71-8.7-1.12-17.67-1.39-25.94,1.94-6.95,2.8-12.83,7.59-18.25,12.71,6.35-19,16.91-36.37,31.72-50,1.19-1.09-.58-2.86-1.77-1.77-16.31,15-27.6,34.58-33.84,55.8a1.26,1.26,0,0,0,2.09,1.21c7.64-7.54,16-15.15,26.84-17.37,11.3-2.3,22.75.82,34,2.12,10.58,1.23,21.56,0,29.82-5.5Z"/><path class="dc187ad1-e7b4-479a-b813-20d1d306105f" d="M842,273.3c-8.53,4-18.93.44-23.7-8.62-5.51-10.47-4.54-23.09-7.29-34.35-4.58-18.78-17.49-35.86-35.82-42.86-1.5-.57-2.15,1.85-.66,2.42,11.58,4.41,20.87,13.2,27.08,23.82,6.68,11.43,8,23.5,10,36.32,1.46,9.7,4.41,20.7,13.95,25.42A19.89,19.89,0,0,0,842,276Z"/><path class="dc187ad1-e7b4-479a-b813-20d1d306105f" d="M775.22,188.41c-1.7-6.51-4.94-16.5-11.06-20.28-5.69-3.51-13,2-16.2,6.73-3.79,5.65,1.07,11.12,5.26,15,6.41,5.9,12.74,3.52,19.2-1.05,1.3-.92.06-3.09-1.26-2.16-5.63,4-11,6.46-16.75.9a38.08,38.08,0,0,1-3.21-3.62c-2.7-3.45-1.9-7.34,1.18-10.16s6.87-6.09,11.49-2.64c1.49,1.11,2.69,3.39,3.63,4.94a49.41,49.41,0,0,1,5.31,13,1.25,1.25,0,0,0,2.41-.66Z"/><path class="dc187ad1-e7b4-479a-b813-20d1d306105f" d="M796.27,200.06c4.32-3.57,6.51-9.51,6.45-15.05,0-4.18-1.73-9.84-6.76-9.76s-8.12,4-8.39,8.73c-.33,5.91,3,11,6.78,15.16,1.08,1.19,2.85-.58,1.77-1.77a23.46,23.46,0,0,1-5.34-8.27c-1.43-4.4-.34-12.9,6.14-10.5,7.39,2.74,1.83,16.18-2.41,19.69-1.25,1,.53,2.78,1.76,1.77Z"/><path class="dc187ad1-e7b4-479a-b813-20d1d306105f" d="M794.43,198.08c-6.58.73-14.22-1.87-19.94,2.59-3.31,2.59-5.78,7.69-3.92,11.78,5.17,11.33,20.88-1.68,22.28-9.27.29-1.58-2.12-2.25-2.41-.67-.63,3.43-2.62,5.89-5.25,8.09a14.54,14.54,0,0,1-5.79,3.26c-5,1.07-7.91-2.39-6.31-7.1,3.07-9,14.34-5.4,21.34-6.18,1.58-.18,1.59-2.68,0-2.5Z"/><path class="dc187ad1-e7b4-479a-b813-20d1d306105f" d="M809.13,230a18,18,0,0,0,11-10.64c1.44-4,.77-11-3.23-13.4s-9.1-2.23-11.13,2.38c-2.45,5.57.94,12.71,2.49,18.08a1.25,1.25,0,0,0,2.41-.67c-1.27-4.42-7.58-22.43,3.52-18.26,4.48,1.69,4.9,8.31,3.15,12.08a15.61,15.61,0,0,1-8.9,8c-1.5.54-.85,3,.67,2.41Z"/><path class="dc187ad1-e7b4-479a-b813-20d1d306105f" d="M810.29,225.5c-6-7.72-25.75-1.81-24.81,8.71.5,5.52,7.1,7.32,11.8,6.74,6.23-.77,9.53-6.1,11.16-11.66a1.25,1.25,0,0,0-2.41-.66c-1,3.28-2.51,6.85-5.59,8.7-4.38,2.62-15.27.5-11.82-6.47,2.8-5.65,15.73-9,19.9-3.59,1,1.27,2.74-.51,1.77-1.77Z"/><path class="dc187ad1-e7b4-479a-b813-20d1d306105f" d="M820.4,267.73c4.62-4.21,9.57-9.87,11.15-16.1.74-2.93,1-10.15-2.58-11.36-4.33-1.46-11.14,4.79-12.57,8.37-2.18,5.44-.86,12,1.47,17.12.66,1.46,2.81.19,2.15-1.26-1.87-4.13-2.82-9.06-1.72-13.55.81-3.28,7.86-11,10.72-6.12,4,6.75-6.11,17.22-10.39,21.13-1.19,1.09.58,2.85,1.77,1.77Z"/><path class="dc187ad1-e7b4-479a-b813-20d1d306105f" d="M818.88,266.6c-3.27-8.25-20.87-9.76-22.37.44-.7,4.8,1.59,8.88,6.6,9.3,6.89.57,11.12-3.42,15.21-8.38,1-1.24-.75-3-1.77-1.77-1.8,2.19-3.67,4.59-6.11,6.11-3.41,2.13-11.21,3-11.53-2.88-.49-8.75,14.73-9.29,17.56-2.15.59,1.48,3,.83,2.41-.67Z"/><path class="dc187ad1-e7b4-479a-b813-20d1d306105f" d="M842,256.78a11.86,11.86,0,0,0-6.64,4.48c-3.15,4.34-2.68,10-1.23,14.88a1.25,1.25,0,0,0,2.41-.67c-1.15-3.86-1.79-8.39.38-12.05a9.16,9.16,0,0,1,5.08-4Z"/><path class="dc187ad1-e7b4-479a-b813-20d1d306105f" d="M842,279.51c0-.11-.09-.23-.14-.34-.62-1.46-3-.82-2.41.67,1.39,3.32,2.94,6.87,2.39,10.56a7.05,7.05,0,0,1-4.62,6c-1.22.47-3.88,1.42-5,.87-3.2-1.59-1.29-7.28-.44-9.61a25.93,25.93,0,0,1,5.91-9c1.11-1.16-.65-2.93-1.77-1.77a26.74,26.74,0,0,0-7.55,13.91c-.48,2.81-1,7.71,2.4,8.86s8.55-.74,11.22-3.51Z"/><path class="dc187ad1-e7b4-479a-b813-20d1d306105f" d="M59.61,271.57a64.74,64.74,0,0,0,7.21-32.4c0-1.35-2.16-1.77-2.45-.33C62.19,249.4,55,254.72,44.52,255.61c-6.38.55-13.05.14-18.91,3.2-12.29,6.42-15.51,22.36-16.54,34.88-.36,4.5-.37,9-.73,13.52-.42,5.28-4.71,6.11-8.54,8.39l-.8.5v3c.67-.46,1.36-.9,2.06-1.32,2.26-1.34,5.12-2.1,7.12-3.83,4.55-3.93,2.89-13.18,3.26-18.44.6-8.69,1.89-17.62,6.34-25.27,4.86-8.36,11.9-11.27,21.28-11.8,6.34-.37,13-.41,18.47-4.08a20.37,20.37,0,0,0,6.59-7.44,59.7,59.7,0,0,1-8.29,26.25c-4.28,7.05-11.68,13.53-10.19,22.58.82,4.95,3.87,9.45,5.69,14a59.21,59.21,0,0,1,4.19,17.28c.74,10-1.6,22.13-9.18,29.25-1.17,1.1.6,2.87,1.77,1.76,14.85-13.95,10.78-38.4,3.11-54.72-3.07-6.54-4.5-11.88-.54-18.41C53.47,280.34,57.07,276.35,59.61,271.57Z"/><path class="dc187ad1-e7b4-479a-b813-20d1d306105f" d="M62.69,547.94c15.3,2.19,24.53,15.84,30.8,28.72.71,1.45,2.86.18,2.16-1.26-6.53-13.41-16.38-27.6-32.3-29.87-1.57-.23-2.25,2.18-.66,2.41Z"/><path class="dc187ad1-e7b4-479a-b813-20d1d306105f" d="M842,373.1c-30.22-4.19-61.7-12.28-79.12-39.72-8.66-13.65-11.4-30.41-15.8-45.75-2.23-7.77-4.45-15.55-6.93-23.24-2-6.25-4.48-12.31-9.14-17.07-.56-.58-1.45.31-.88.88,6.18,6.32,8.42,15.1,10.9,23.33q3.86,12.75,7.44,25.6c4.2,15.1,7.54,30.09,17.43,42.67,18.59,23.64,47.73,30.64,76.1,34.55Z"/><path class="dc187ad1-e7b4-479a-b813-20d1d306105f" d="M842,468.34c-16.5-2.28-35,4.32-49.12,11.88-15.3,8.18-32.37,20.72-38.93,37.38-.29.74.91,1.07,1.21.33,6.41-16.31,23.38-28.63,38.35-36.63,13.89-7.42,32.28-14,48.49-11.69Z"/><path class="dc187ad1-e7b4-479a-b813-20d1d306105f" d="M831.59,542a.63.63,0,0,0,0-1.25.63.63,0,0,0,0,1.25Z"/><path class="dc187ad1-e7b4-479a-b813-20d1d306105f" d="M827.6,547.22a.63.63,0,0,0,0-1.25.63.63,0,0,0,0,1.25Z"/><path class="dc187ad1-e7b4-479a-b813-20d1d306105f" d="M832.7,548a.63.63,0,0,0,0-1.25.63.63,0,0,0,0,1.25Z"/><path class="dc187ad1-e7b4-479a-b813-20d1d306105f" d="M834.48,584.13a.63.63,0,0,0,0-1.25.63.63,0,0,0,0,1.25Z"/><path class="dc187ad1-e7b4-479a-b813-20d1d306105f" d="M829.6,586.73a.63.63,0,0,0,0-1.25.63.63,0,0,0,0,1.25Z"/><path class="dc187ad1-e7b4-479a-b813-20d1d306105f" d="M153.8,588.29a.63.63,0,0,0,0-1.25.63.63,0,0,0,0,1.25Z"/><path class="dc187ad1-e7b4-479a-b813-20d1d306105f" d="M105.83,586.73a.63.63,0,0,0,0-1.25.63.63,0,0,0,0,1.25Z"/><path class="dc187ad1-e7b4-479a-b813-20d1d306105f" d="M12.4,560c25.86.5,49.84,11.85,68.11,29.89a.62.62,0,0,0,.88-.88c-18.5-18.27-42.81-29.75-69-30.26a.63.63,0,0,0,0,1.25Z"/><path class="dc187ad1-e7b4-479a-b813-20d1d306105f" d="M248,468.63A357.67,357.67,0,0,0,192.92,458q-14.32-1.59-28.75-2c-8.78-.24-17.51-.31-25.88,2.69-33.24,11.88-53.58,47.05-89.49,53.43-.8.14-.46,1.35.33,1.21C83,507.33,103.67,476,133.62,462c9.2-4.3,18.61-5,28.63-4.78q14.42.31,28.75,1.83a357.28,357.28,0,0,1,56.64,10.78.62.62,0,0,0,.33-1.2Z"/><path class="dc187ad1-e7b4-479a-b813-20d1d306105f" d="M85.71,367.57a66.85,66.85,0,0,0-30.37,22.18c-8.41,10.8-13.23,23.74-18.12,36.37-5.45,14.09-11.23,28-21.79,39.11A99.71,99.71,0,0,1-1,478.87v1.48a111.42,111.42,0,0,0,13.87-10.83c9.73-9.07,16.2-20.25,21.31-32.42,5.64-13.4,9.9-27.56,17.58-40,8-12.95,19.88-23.22,34.28-28.32C86.8,368.5,86.47,367.3,85.71,367.57Z"/><path class="dc187ad1-e7b4-479a-b813-20d1d306105f" d="M41.72,269.22C26.83,279.28,22.24,297,24.17,314c1.29,11.35,2.14,22.28-7,30.68C11.83,349.55,5.39,353.41-1,357.1v1.36a159.64,159.64,0,0,0,16.29-10.6c6.59-5.07,10.67-11.59,11.09-20,.54-10.67-2.88-20.92-.68-31.61,2.14-10.36,7.8-20,16.65-25.93C43,269.85,42.38,268.77,41.72,269.22Z"/><path class="dc187ad1-e7b4-479a-b813-20d1d306105f" d="M42.22,270.08q1.23-6.19,2.8-12.3a.62.62,0,0,0-1.2-.34q-1.57,6.12-2.81,12.3c-.16.79,1.05,1.13,1.21.34Z"/><path class="dc187ad1-e7b4-479a-b813-20d1d306105f" d="M42,270.5a146.83,146.83,0,0,0,15.7,0c.8,0,.8-1.29,0-1.25a146.83,146.83,0,0,1-15.7,0c-.8,0-.8,1.21,0,1.25Z"/><path class="dc187ad1-e7b4-479a-b813-20d1d306105f" d="M14.94,273.32c-1.15,10.85,2.67,20.73,8.45,29.75.43.67,1.51.05,1.08-.63-5.67-8.84-9.41-18.47-8.28-29.12.08-.8-1.17-.8-1.25,0Z"/><path class="dc187ad1-e7b4-479a-b813-20d1d306105f" d="M24.25,303.18c5.54-6.85,13.51-8.6,21.78-9.92.8-.13.46-1.33-.33-1.21-8.5,1.36-16.68,3.26-22.33,10.24-.51.62.37,1.51.88.89Z"/><path class="dc187ad1-e7b4-479a-b813-20d1d306105f" d="M7.86,310.47c-5.14,13.34-3.15,27.59,2.53,40.42.32.73,1.4.09,1.08-.64-5.55-12.51-7.42-26.43-2.41-39.45.29-.75-.91-1.08-1.2-.33Z"/><path class="dc187ad1-e7b4-479a-b813-20d1d306105f" d="M10.5,351.74c8.76,7.42,19.81,10.53,31.05,7.81.78-.19.45-1.4-.33-1.21C30.44,361,19.78,358,11.39,350.85c-.61-.51-1.5.37-.89.89Z"/><path class="dc187ad1-e7b4-479a-b813-20d1d306105f" d="M2.68,389.21A16.29,16.29,0,0,1-1,387.49V389a18.25,18.25,0,0,0,3.35,1.46C3.12,390.67,3.45,389.46,2.68,389.21Z"/><path class="dc187ad1-e7b4-479a-b813-20d1d306105f" d="M86.64,368.31a58,58,0,0,1,9.83-24.93c.46-.66-.62-1.28-1.08-.63a58.92,58.92,0,0,0-10,25.23c-.12.79,1.08,1.13,1.21.33Z"/><path class="dc187ad1-e7b4-479a-b813-20d1d306105f" d="M85.28,368.64C92.05,374.44,100.4,375,109,375a.63.63,0,0,0,0-1.25c-8.19,0-16.32-.39-22.81-6-.61-.52-1.5.36-.88.89Z"/><path class="dc187ad1-e7b4-479a-b813-20d1d306105f" d="M86.42,368.11c8.5-7.5,19-12.53,29.34-17.07A222.1,222.1,0,0,1,149,339.51a.62.62,0,0,0-.33-1.2A222.42,222.42,0,0,0,115.13,350c-10.42,4.6-21,9.68-29.6,17.27-.6.53.29,1.41.89.88Z"/><path class="dc187ad1-e7b4-479a-b813-20d1d306105f" d="M60.28,351.47a70,70,0,0,0-3.74,37c.13.79,1.33.46,1.2-.33a69,69,0,0,1,3.74-36.37c.3-.75-.91-1.08-1.2-.33Z"/><path class="dc187ad1-e7b4-479a-b813-20d1d306105f" d="M56.71,389c10.41,11.23,25.1,13,39.61,11,.79-.1.8-1.35,0-1.25-14.16,1.91-28.54.36-38.73-10.63-.54-.59-1.43.29-.88.88Z"/><path class="dc187ad1-e7b4-479a-b813-20d1d306105f" d="M23.4,370.74C17,393.48,17.89,419,31.7,439c.46.65,1.54,0,1.08-.63-13.63-19.67-14.51-44.81-8.18-67.25a.62.62,0,0,0-1.2-.34Z"/><path class="dc187ad1-e7b4-479a-b813-20d1d306105f" d="M32.3,439.7c10.4.92,20.84,1.85,31.29,1.39,8.32-.36,18-1,25.19-5.51.68-.43,0-1.51-.63-1.08-8,5-19.21,5.32-28.35,5.45a271.65,271.65,0,0,1-27.5-1.5c-.81-.07-.8,1.18,0,1.25Z"/><path class="dc187ad1-e7b4-479a-b813-20d1d306105f" d="M6.53,472.33a60.92,60.92,0,0,1-7.53-15V461a61.61,61.61,0,0,0,6.45,12C5.91,473.62,7,473,6.53,472.33Z"/><path class="dc187ad1-e7b4-479a-b813-20d1d306105f" d="M6.33,474.57c8.44,7.72,19.66,10.88,30.85,11.79,10.73.87,24.18,1.8,33.82-3.79a.63.63,0,0,0-.63-1.08c-9,5.22-21.43,4.38-31.51,3.74-11.41-.73-23-3.66-31.65-11.55-.59-.54-1.48.34-.88.89Z"/><path class="dc187ad1-e7b4-479a-b813-20d1d306105f" d="M10.08,538.08C6.14,537,2.26,535.73-1,533.47V535a39.74,39.74,0,0,0,10.75,4.31A.62.62,0,0,0,10.08,538.08Z"/><path class="dc187ad1-e7b4-479a-b813-20d1d306105f" d="M171.81,456.71c7-4.56,14.14-9.16,22.67-9.8.8-.05.8-1.31,0-1.25-8.77.66-16.1,5.27-23.3,10-.67.44,0,1.52.63,1.08Z"/><path class="dc187ad1-e7b4-479a-b813-20d1d306105f" d="M171.08,456.76c4.08,9.19,12,14.52,21,18.33.73.31,1.37-.77.63-1.08-8.79-3.73-16.58-8.88-20.58-17.88-.33-.73-1.4-.1-1.08.63Z"/><path class="dc187ad1-e7b4-479a-b813-20d1d306105f" d="M129.32,463.33c3.61-10.53,8.5-20.09,19.3-24.59.73-.3.41-1.51-.33-1.2C137,442.24,131.89,452,128.12,463c-.27.76.94,1.09,1.2.33Z"/><path class="dc187ad1-e7b4-479a-b813-20d1d306105f" d="M128.76,463.53c9.37,11.7,22.24,19.76,37.22,21.67.8.1.79-1.15,0-1.25-14.64-1.86-27.2-9.9-36.33-21.31-.51-.62-1.39.26-.89.89Z"/><path class="dc187ad1-e7b4-479a-b813-20d1d306105f" d="M209.22,461.68a28.55,28.55,0,0,1,10-4.9.62.62,0,0,0-.33-1.2,29.42,29.42,0,0,0-10.34,5c-.64.48,0,1.57.63,1.08Z"/><path class="dc187ad1-e7b4-479a-b813-20d1d306105f" d="M208,461.72a18.2,18.2,0,0,0,8.33,10.42c.7.39,1.33-.69.63-1.08a16.94,16.94,0,0,1-7.76-9.67c-.25-.76-1.46-.43-1.2.33Z"/><path class="dc187ad1-e7b4-479a-b813-20d1d306105f" d="M99.18,442a125,125,0,0,0-13.36,50.27c0,.81,1.21.8,1.25,0a123.41,123.41,0,0,1,13.19-49.64c.36-.72-.72-1.35-1.08-.63Z"/><path class="dc187ad1-e7b4-479a-b813-20d1d306105f" d="M86.25,494.45c16.9,11.48,37.2,13.49,57.11,12.25.8-.05.81-1.3,0-1.25-19.7,1.23-39.75-.72-56.48-12.07-.67-.46-1.29.62-.63,1.07Z"/><path class="dc187ad1-e7b4-479a-b813-20d1d306105f" d="M58.92,501.61a18.13,18.13,0,0,0-1.48,7.82c0,.81,1.28.81,1.25,0A16.59,16.59,0,0,1,60,502.24c.31-.73-.77-1.37-1.08-.63Z"/><path class="dc187ad1-e7b4-479a-b813-20d1d306105f" d="M57.37,510.07c8.84,15.27,24,23.66,41,26.93.78.16,1.12-1,.33-1.2C82,532.58,67.14,524.46,58.45,509.44a.63.63,0,0,0-1.08.63Z"/><path class="dc187ad1-e7b4-479a-b813-20d1d306105f" d="M22.77,532.21c3.28,9.4,14.09,15.16,23.24,17.32.78.19,1.12-1,.33-1.2-8.68-2.05-19.24-7.49-22.37-16.45-.26-.76-1.47-.43-1.2.33Z"/><path class="dc187ad1-e7b4-479a-b813-20d1d306105f" d="M12.83,558.25A42.81,42.81,0,0,1-1,550.07v1.65a44.23,44.23,0,0,0,13.5,7.73C13.26,559.72,13.59,558.52,12.83,558.25Z"/><path class="dc187ad1-e7b4-479a-b813-20d1d306105f" d="M71.74,580.64a22.42,22.42,0,0,1,15.71-3.31c.79.13,1.13-1.07.33-1.2a23.7,23.7,0,0,0-16.67,3.44c-.68.42,0,1.5.63,1.07Z"/><path class="dc187ad1-e7b4-479a-b813-20d1d306105f" d="M53.46,569.89a31.36,31.36,0,0,1,21.39-4.4c.79.12,1.13-1.08.33-1.21a32.73,32.73,0,0,0-22.35,4.53.63.63,0,0,0,.63,1.08Z"/><path class="dc187ad1-e7b4-479a-b813-20d1d306105f" d="M36.06,563.1a37.32,37.32,0,0,1,21.64-8.69c.8,0,.81-1.3,0-1.25a38.75,38.75,0,0,0-22.53,9.06c-.62.51.27,1.39.89.88Z"/><path class="dc187ad1-e7b4-479a-b813-20d1d306105f" d="M35.29,563.35a69.15,69.15,0,0,1,7.33,26.21c.06.8,1.31.81,1.25,0a71.07,71.07,0,0,0-7.5-26.84c-.37-.72-1.45-.08-1.08.63Z"/><path class="dc187ad1-e7b4-479a-b813-20d1d306105f" d="M53.22,570.62a76.82,76.82,0,0,1,7.32,24.66c.1.78,1.35.79,1.25,0A78.78,78.78,0,0,0,54.3,570c-.36-.73-1.44-.09-1.08.63Z"/><path class="dc187ad1-e7b4-479a-b813-20d1d306105f" d="M69.76,580.87a48.78,48.78,0,0,1,3.73,14.4c.08.79,1.33.8,1.25,0a50.81,50.81,0,0,0-3.9-15c-.32-.74-1.4-.1-1.08.63Z"/><path class="dc187ad1-e7b4-479a-b813-20d1d306105f" d="M24.89,597h4.39a34.55,34.55,0,0,1-8.41-6.89C14.55,582.76,11,573.5,8.09,564.37c-.48-1.53-2.9-.88-2.41.66,2.85,9.07,6.39,18.22,12.45,25.68A34.59,34.59,0,0,0,24.89,597Z"/><path class="dc187ad1-e7b4-479a-b813-20d1d306105f" d="M771.1,493.92a18.83,18.83,0,0,0-9.43.23.63.63,0,0,0,.33,1.21,17.38,17.38,0,0,1,8.77-.23c.78.18,1.12-1,.33-1.21Z"/><path class="dc187ad1-e7b4-479a-b813-20d1d306105f" d="M771.07,495a79,79,0,0,0-2.35,13.66c-.07.8,1.18.79,1.25,0a76.19,76.19,0,0,1,2.31-13.33.63.63,0,0,0-1.21-.33Z"/><path class="dc187ad1-e7b4-479a-b813-20d1d306105f" d="M788.47,482A42.14,42.14,0,0,0,773,480.36c-.8.07-.81,1.32,0,1.25a41.23,41.23,0,0,1,15.18,1.57.63.63,0,0,0,.33-1.21Z"/><path class="dc187ad1-e7b4-479a-b813-20d1d306105f" d="M787.61,483.19a49.16,49.16,0,0,1-3.24,20.89c-.29.75.92,1.07,1.2.33a49.92,49.92,0,0,0,3.29-21.22c-.05-.8-1.3-.81-1.25,0Z"/><path class="dc187ad1-e7b4-479a-b813-20d1d306105f" d="M809.19,473.61c-5.26-5.05-14.14-7-21.13-7.91-.79-.1-.78,1.15,0,1.25,6.69.86,15.23,2.72,20.25,7.55.58.55,1.46-.33.88-.89Z"/><path class="dc187ad1-e7b4-479a-b813-20d1d306105f" d="M807.54,474.89c.92,10.6-3.3,21.18-6.14,31.24a.63.63,0,0,0,1.21.33c2.87-10.18,7.12-20.83,6.18-31.57-.07-.8-1.32-.8-1.25,0Z"/><path class="dc187ad1-e7b4-479a-b813-20d1d306105f" d="M831,469.3A44.37,44.37,0,0,1,833,486.39c-.51,5.73-2.05,15.31-7,19-.64.47,0,1.56.63,1.08,4.61-3.43,6.37-11.29,7.2-16.59a46,46,0,0,0-1.56-20.9.63.63,0,0,0-1.21.33Z"/><path class="dc187ad1-e7b4-479a-b813-20d1d306105f" d="M831.25,468.48a9.69,9.69,0,0,0-5.92-6.75c-.76-.27-1.08.94-.33,1.21a8.38,8.38,0,0,1,5,5.88.63.63,0,0,0,1.21-.34Z"/><path class="dc187ad1-e7b4-479a-b813-20d1d306105f" d="M712.62,237.43a48.23,48.23,0,0,0,18.24,11.25c.77.26,1.09-1,.33-1.2a46.79,46.79,0,0,1-17.69-10.93c-.58-.56-1.46.32-.88.88Z"/><path class="dc187ad1-e7b4-479a-b813-20d1d306105f" d="M731.86,248.42a44.19,44.19,0,0,0-2.07-21.12c-.27-.76-1.48-.43-1.21.33a43,43,0,0,1,2.08,20.45c-.11.79,1.09,1.13,1.2.34Z"/><path class="dc187ad1-e7b4-479a-b813-20d1d306105f" d="M715.85,278.65c9.14,12.49,21,22.39,35.37,28.27.75.3,1.07-.91.33-1.21-14-5.74-25.7-15.51-34.62-27.7-.47-.64-1.55,0-1.08.64Z"/><path class="dc187ad1-e7b4-479a-b813-20d1d306105f" d="M751.86,306.43a100.7,100.7,0,0,0,12.66-45.18c0-.81-1.21-.8-1.25,0a99.2,99.2,0,0,1-12.49,44.55c-.39.7.69,1.34,1.08.63Z"/><path class="dc187ad1-e7b4-479a-b813-20d1d306105f" d="M721.84,351.62c20,14.53,45.67,18.61,68.91,9.77.75-.28.43-1.49-.33-1.2-23,8.73-48.18,4.71-67.95-9.65-.66-.47-1.28.61-.63,1.08Z"/><path class="dc187ad1-e7b4-479a-b813-20d1d306105f" d="M791.34,360.54c1.29-15.35,3-33.23-3-47.81-.31-.73-1.52-.41-1.21.33,6,14.44,4.26,32.24,3,47.48-.07.8,1.18.79,1.25,0Z"/><path class="dc187ad1-e7b4-479a-b813-20d1d306105f" d="M757.92,402.68c15.54,3.63,30.51-.3,45.19-5.65,12-4.38,22.6-11.7,27.78-23.79.32-.73-.76-1.37-1.08-.63-5.33,12.44-16.34,19.55-28.76,23.82-14,4.83-28,8.49-42.8,5-.78-.18-1.11,1-.33,1.21Z"/><path class="dc187ad1-e7b4-479a-b813-20d1d306105f" d="M831,372.71a61.67,61.67,0,0,0-7.54-36.9.63.63,0,0,0-1.08.63,60.53,60.53,0,0,1,7.37,36.27c-.08.8,1.17.79,1.25,0Z"/><path class="dc187ad1-e7b4-479a-b813-20d1d306105f" d="M730.63,247c-4.86-12.75-11.22-25.77-23.42-32.94a.63.63,0,0,0-.63,1.08c11.9,7,18.11,19.76,22.84,32.19.29.75,1.5.43,1.21-.33Z"/><path class="dc187ad1-e7b4-479a-b813-20d1d306105f" d="M804.32,226.12c-3.11.79-6.82,1.19-9.43,3.19-.62.47-.07,1.52.63,1.08,2.77-1.78,6.59-2.64,9.79-3.29l-.7-.92c-1.62,2.73-4.3,4.49-6.75,6.42l1,.76a22.06,22.06,0,0,1,6.14-6.55c.66-.46,0-1.54-.63-1.08a23.54,23.54,0,0,0-6.59,7c-.4.65.46,1.17,1,.76,2.56-2,5.26-3.83,7-6.68a.64.64,0,0,0-.71-.92c-3.36.69-7.17,1.55-10.09,3.42l.63,1.08c2.5-1.91,6.16-2.31,9.14-3.06a.63.63,0,0,0-.34-1.21Z"/><path class="dc187ad1-e7b4-479a-b813-20d1d306105f" d="M811.07,224.85c-.18-3.2-.22-6.39-.14-9.59l-1.16.31c.6,1.3.47,3.18.57,4.59l.29,3.9a.62.62,0,0,0,1.22.17l2.61-8.27c.24-.77-1-1.1-1.21-.33l-2.6,8.27,1.23.16-.39-5.31a10.63,10.63,0,0,0-.64-3.81c-.28-.59-1.15-.26-1.17.32-.08,3.2,0,6.39.14,9.59,0,.8,1.3.8,1.25,0Z"/><path class="dc187ad1-e7b4-479a-b813-20d1d306105f" d="M790.28,201.77l-9.76,2.7.34,1.21a24.61,24.61,0,0,1,9.21-2.3l-.44-1.06a51.65,51.65,0,0,1-6.18,4.64c-.68.43-.05,1.51.63,1.08a52.23,52.23,0,0,0,6.43-4.84.63.63,0,0,0-.44-1.07,25.59,25.59,0,0,0-9.55,2.34c-.72.3-.46,1.43.34,1.21l9.75-2.71a.62.62,0,0,0-.33-1.2Z"/><path class="dc187ad1-e7b4-479a-b813-20d1d306105f" d="M796,196.76a29.76,29.76,0,0,1-1.8-9.19l-1.22.17,1.74,7.8a.63.63,0,0,0,.77.44c1.13-.33,1-2.06,1.15-3,.29-2,.46-4,.55-6.07,0-.81-1.21-.8-1.25,0-.06,1.36-.14,2.71-.3,4.07a38,38,0,0,1-.49,3.79l.77.44-1.74-7.8a.63.63,0,0,0-1.23.16,31.22,31.22,0,0,0,1.84,9.52c.28.75,1.48.42,1.21-.33Z"/><path class="dc187ad1-e7b4-479a-b813-20d1d306105f" d="M771.18,184c-.94,1.06-2.46.83-3.76.84l-4,0a.63.63,0,0,0,0,1.25,13.35,13.35,0,0,0,5.59-.92.63.63,0,0,0,.15-1.14c-2-1.35-4.08-2.65-6.16-3.92l-.63,1.08c1.72.86,3.44,1.7,5.24,2.39.55.22.92-.47.7-.91q-1.2-2.46-2.42-4.92l-1.08.63c1.25,2.37,3.08,4.29,4.65,6.43.48.64,1.56,0,1.08-.63-1.56-2.14-3.4-4.07-4.65-6.43-.38-.71-1.43-.08-1.08.63q1.22,2.46,2.42,4.92l.71-.92c-1.69-.65-3.31-1.46-4.94-2.27a.63.63,0,0,0-.63,1.08c2.08,1.27,4.13,2.57,6.16,3.92l.15-1.14a12.59,12.59,0,0,1-5.26.87v1.25c1.94,0,3.91.07,5.85,0a3.84,3.84,0,0,0,2.85-1.19c.53-.6-.35-1.49-.89-.88Z"/><path class="dc187ad1-e7b4-479a-b813-20d1d306105f" d="M813.1,265a21,21,0,0,0-6.79.46.62.62,0,0,0,.16,1.22c2.71-.13,6.18-.88,8.8-.05l-.28-1c-1.08,1.09-2.56,1.54-3.88,2.27a25.46,25.46,0,0,0-3.3,2.23c-.63.5.26,1.38.88.89a23.13,23.13,0,0,1,4.08-2.57,10.59,10.59,0,0,0,3.1-1.94.63.63,0,0,0-.27-1c-2.76-.88-6.29-.14-9.13,0l.17,1.23a20,20,0,0,1,6.46-.41c.8.08.79-1.17,0-1.25Z"/><path class="dc187ad1-e7b4-479a-b813-20d1d306105f" d="M819.57,263.52a74.28,74.28,0,0,0,2-10.67h-1.25a61.92,61.92,0,0,1-1.09,9.2.62.62,0,0,0,1.2.33q1.62-4.54,3.58-9c.33-.73-.75-1.36-1.08-.63q-2,4.56-3.7,9.26l1.2.33a62.44,62.44,0,0,0,1.14-9.53c0-.83-1.16-.78-1.25,0a72.74,72.74,0,0,1-2,10.34.62.62,0,0,0,1.2.33Z"/><path class="dc187ad1-e7b4-479a-b813-20d1d306105f" d="M837.7,279.45a96.52,96.52,0,0,1-2.51,10.73.62.62,0,0,0,1.2.34c.59-2,1.26-3.9,2-5.81l-1.22-.16q-.06,3.24.18,6.48c.06.8,1.31.81,1.25,0q-.24-3.24-.18-6.48c0-.76-1-.79-1.23-.17-.77,1.91-1.45,3.83-2,5.8l1.2.34a99,99,0,0,0,2.52-10.74c.14-.79-1.07-1.13-1.21-.33Z"/><path class="dc187ad1-e7b4-479a-b813-20d1d306105f" d="M837.85,275.44v-5.32l-1.23.17a6.21,6.21,0,0,1,.37,1.86c0,.8,1.28.81,1.25,0a7.57,7.57,0,0,0-.41-2.2.63.63,0,0,0-1.23.17v5.32a.63.63,0,0,0,1.25,0Z"/><path class="dc187ad1-e7b4-479a-b813-20d1d306105f" d="M813.11,597h2.66a30.79,30.79,0,0,0-4.79-8.28c-1-1.25-2.77.53-1.77,1.77A27.37,27.37,0,0,1,813.11,597Z"/><path class="dc187ad1-e7b4-479a-b813-20d1d306105f" d="M767.72,597c-.06-.09-.13-.17-.19-.25-2.09-2.8-4.15-7.71-5.86-10.82-.37.05-.44,1.9-.85,1.9a7.81,7.81,0,0,1-4.26-1.2c2,3.41,3.89,7,5.94,10.37Z"/><path class="dc187ad1-e7b4-479a-b813-20d1d306105f" d="M803.76,572.06c-25.68-26-61.83-11.65-90.74-27.68-1.88-1-4.28,1.18-3,3.56,9.09,17.3,28.07,16.74,40.07,29.63a40,40,0,0,1,2.58,3.1c-.56-2.29,1.9-2,2.57-4.27-.43-.46-3.23-3.74-3.69-4.18-9.3-8.9-22.89-10.77-32.08-19.5,26.81,9.45,58.84.42,81.19,23C802.77,577.92,805.93,574.26,803.76,572.06Z"/><path class="dc187ad1-e7b4-479a-b813-20d1d306105f" d="M792.11,597h1.28c-.93-4-2.33-7.93-5.56-10.57-.61-.51-1.5.37-.88.88C789.91,589.74,791.24,593.34,792.11,597Z"/><path class="dc187ad1-e7b4-479a-b813-20d1d306105f" d="M779.24,575c-5.61-8.33-12.82-11-22.47-12.08a96.11,96.11,0,0,1-36.35-11.61c-.71-.39-1.34.69-.63,1.08A97.4,97.4,0,0,0,748,562.84c5.06,1,10.27,1.06,15.3,2.09,6.34,1.29,11.32,5.38,14.87,10.66.45.66,1.53,0,1.08-.63Z"/><path class="dc187ad1-e7b4-479a-b813-20d1d306105f" d="M754.17,558a9.69,9.69,0,0,1,4.11,4.9c.3.73,1.5.41,1.21-.34a11,11,0,0,0-4.69-5.63.62.62,0,0,0-.63,1.07Z"/><path class="dc187ad1-e7b4-479a-b813-20d1d306105f" d="M742.47,569.25c6.5,1.4,11.25-.53,16.67-4.13.67-.44,0-1.53-.63-1.08-5.09,3.38-9.55,5.33-15.71,4-.79-.17-1.12,1-.33,1.2Z"/><path class="dc187ad1-e7b4-479a-b813-20d1d306105f" d="M779.06,561.48A19.43,19.43,0,0,1,777,574.15c-.38.71.7,1.34,1.08.63a20.88,20.88,0,0,0,2.21-13.63c-.13-.79-1.34-.46-1.21.33Z"/><path class="dc187ad1-e7b4-479a-b813-20d1d306105f" d="M761.51,590.64a64,64,0,0,0,30.4,4.51c.79-.07.8-1.32,0-1.25a63.49,63.49,0,0,1-30.07-4.46c-.75-.3-1.07.91-.33,1.2Z"/><path class="dc187ad1-e7b4-479a-b813-20d1d306105f" d="M792.36,595.09a15.78,15.78,0,0,0,5.62-8c.25-.77-1-1.1-1.21-.34a14.33,14.33,0,0,1-5,7.22c-.64.48,0,1.56.63,1.08Z"/><path class="dc187ad1-e7b4-479a-b813-20d1d306105f" d="M772.52,453.66a.63.63,0,0,0,0-1.25.63.63,0,0,0,0,1.25Z"/><path class="dc187ad1-e7b4-479a-b813-20d1d306105f" d="M764.08,457.82a.63.63,0,0,0,0-1.25.63.63,0,0,0,0,1.25Z"/><path class="dc187ad1-e7b4-479a-b813-20d1d306105f" d="M770.3,460.42a.63.63,0,0,0,0-1.25.63.63,0,0,0,0,1.25Z"/></svg>