<?xml version="1.0" encoding="utf-8"?>
<!-- Generator: Adobe Illustrator 22.1.0, SVG Export Plug-In . SVG Version: 6.00 Build 0)  -->
<svg version="1.1" id="Layer_1" xmlns="http://www.w3.org/2000/svg" xmlns:xlink="http://www.w3.org/1999/xlink" x="0px" y="0px"
	 viewBox="0 0 408.8 408.8" style="enable-background:new 0 0 408.8 408.8;" xml:space="preserve">
<style type="text/css">
	.st0{fill:#FFFFFF;}
</style>
<path class="st0" d="M55.1,408.8h147.3l0-0.1H51.8C52.9,408.8,54,408.8,55.1,408.8z"/>
<path class="st0" d="M265.9,408.8h87.6c1.1,0,2.2,0,3.3-0.1h-90.9L265.9,408.8z"/>
<path class="st0" d="M0,353.7v18.1c0,20.3,16.6,36.9,37,36.9h14.8C22.9,407,0,383,0,353.7z"/>
<path class="st0" d="M55.1,0H37C16.6,0,0,16.6,0,37v18.1C0,24.7,24.7,0,55.1,0z"/>
<path class="st0" d="M371.7,0h-18c30.4,0,55.1,24.7,54.9,55.1v298.6c0,29.3-22.9,53.3-51.8,55h15c20.4,0,37-16.6,37-37V37
	C408.7,16.6,392.1,0,371.7,0z"/>
<path class="st0" d="M408.6,353.7V55.1C408.8,24.7,384.1,0,353.7,0H55.1C24.7,0,0,24.7,0,55.1v298.6c0,29.3,22.9,53.3,51.8,55h150.6
	l0.3-146h-38c-4.9,0-8.9-4-9-8.9l-0.2-47.1c0-5,4-9,9-9h37.9v-45.5c0-52.8,32.2-81.6,79.3-81.6h38.6c4.9,0,9,4,9,9v39.7
	c0,4.9-4,9-9,9h-23.7c-25.6,0-30.6,12.2-30.6,30v39.4h56.3c5.4,0,9.5,4.7,8.9,10l-5.6,47.1c-0.5,4.5-4.4,7.9-8.9,7.9h-50.5l-0.3,146
	h90.9C385.7,407,408.6,383,408.6,353.7z"/>
</svg>
