<?xml version="1.0" encoding="utf-8"?>
<!-- Generator: Adobe Illustrator 22.1.0, SVG Export Plug-In . SVG Version: 6.00 Build 0)  -->
<svg version="1.1" id="Calque_1" xmlns="http://www.w3.org/2000/svg" xmlns:xlink="http://www.w3.org/1999/xlink" x="0px" y="0px"
	 viewBox="0 0 116.2 116.4" style="enable-background:new 0 0 116.2 116.4;" xml:space="preserve">
<style type="text/css">
	.st0{fill:#FFFFFF;}
	.st1{fill:#FFFFFF;stroke:#FFFFFF;stroke-miterlimit:10;}
</style>
<title>Fichier 1</title>
<g>
	<g>
		<path class="st0" d="M4.1,66.8C10.2,56.6,17,49.4,27.8,44.3c9.8-4.6,20.6-7.4,31.4-7.4c22.2,0,38.8,13.3,53.2,28.8
			c1.9,2.1,5-1,3.1-3.1c-15.9-17.1-34.7-31.1-59.2-30c-11.2,0.5-22,3.7-32,8.6c-11.1,5.5-17.7,13-24,23.4C-1.1,67,2.6,69.2,4.1,66.8
			L4.1,66.8z"/>
	</g>
	<g>
		<path class="st0" d="M112.1,63.3C106,73.5,99.2,80.7,88.4,85.8c-9.8,4.6-20.6,7.4-31.4,7.4c-22.2,0-38.8-13.3-53.2-28.8
			c-1.9-2.1-5,1-3.1,3.1c15.9,17.1,34.7,31.1,59.2,30c11.2-0.5,22-3.7,32-8.6c11.1-5.5,17.7-13,24-23.4
			C117.3,63.1,113.6,60.9,112.1,63.3L112.1,63.3z"/>
	</g>
	<g>
		<path class="st0" d="M10.8,34.6c2.6,3.6,5.2,7.2,7.8,10.9c1.6,2.3,5.4,0.1,3.8-2.2c-2.6-3.6-5.2-7.2-7.8-10.9
			C12.9,30.2,9.2,32.3,10.8,34.6L10.8,34.6z"/>
	</g>
	<g>
		<path class="st0" d="M57.3,16.5c-0.2,6.1-0.5,12.1-0.7,18.2c-0.1,2.8,4.2,2.8,4.3,0c0.2-6.1,0.5-12.1,0.7-18.2
			C61.8,13.7,57.4,13.7,57.3,16.5L57.3,16.5z"/>
	</g>
	<g>
		<path class="st0" d="M98.8,49.2c3.7-4.3,7.3-8.6,11-13c1.8-2.1-1.3-5.2-3.1-3.1c-3.7,4.3-7.3,8.6-11,13
			C93.9,48.2,97,51.3,98.8,49.2L98.8,49.2z"/>
	</g>
	<g>
		<path class="st1" d="M52.2,43.7c-17.4,4.9-22.5,32-4.7,39.9c9.4,4.2,19.7,2,26.9-5.2c3.7-3.6,5.6-7.5,5.5-12.8
			c-0.1-4.2-0.8-8.6-2.5-12.4C72.9,43.6,61.5,42.1,52.2,43.7c-0.6,0.1-0.4,1.1,0.3,1c10.2-1.7,21.5,0.6,25,11.6
			c1.5,4.9,2.5,11.9,0.1,16.6c-2.6,5-8.2,9.2-13.5,10.9c-11.6,3.8-25.2-2.9-26.6-15.4c-1.2-10.1,5.1-20.9,15.1-23.7
			C53,44.5,52.8,43.5,52.2,43.7L52.2,43.7z"/>
	</g>
	<g>
		<path class="st1" d="M56.1,57.6c-5.7,1.6-7.4,10.5-1.6,13.1c3.1,1.4,6.5,0.7,8.9-1.7c1.2-1.2,1.8-2.5,1.8-4.2
			c0-1.4-0.3-2.8-0.8-4.1C63,57.6,59.2,57.1,56.1,57.6c-0.2,0-0.1,0.4,0.1,0.3c3.3-0.6,7.1,0.2,8.2,3.8c0.5,1.6,0.8,3.9,0,5.5
			c-0.9,1.7-2.7,3-4.4,3.6c-3.8,1.3-8.3-1-8.8-5.1c-0.4-3.3,1.7-6.9,5-7.8C56.4,57.8,56.3,57.5,56.1,57.6L56.1,57.6z"/>
	</g>
	<g>
		<path class="st0" d="M57.2,58.6c-2.3,1.1-4.4,3.2-4.4,6c0,3.1,2.2,5.6,5.4,5.8c2.9,0.2,5.3-2.5,6.2-5c0.9-2.6,0-5.8-2.5-7.2
			C57.4,55.6,51,60.3,51,65.1c0,2.7,1.7,5.2,4.3,5.9c2.7,0.7,5.2-0.6,6.9-2.7c1.5-1.7,1.8-4.5,0-6.1c-1.6-1.5-4.6-1.9-6.1,0
			c-0.2,0.2-0.4,0.5-0.6,0.7c-0.5,0.5,0.1-0.1,0.4-0.2c0.3-0.1,0.6-0.2,0.9-0.2c0.7,0.3,1.4,0.6,2.2,0.9c0.5,0.5,0.7,1.2,0.8,1.8
			c0-0.7-0.2,0.5-0.2,0.8c-0.2,0.4-0.2,0.4,0,0c-0.1,0.1-0.2,0.3-0.3,0.4c0.3-0.3,0.3-0.3,0-0.1c-0.3,0.2-0.3,0.2,0.1,0
			c0.2-0.1,0.4-0.3,0.7-0.4c1.2-0.7-0.4,0.6-1.8,0c-0.6-0.5-1.2-0.9-1.8-1.4c-0.3-0.4-0.3-0.8-0.2-1.3c0.1-0.8,0-1-0.1-0.5
			c0.1-0.2,0.1-0.3,0.2-0.5c-0.1,0.1-0.2,0.3-0.2,0.4c-0.2,0.3-0.1,0.2,0.2-0.3c-0.1,0.1-0.1,0.2-0.2,0.2c2.9-1.4,4.5-1,5,1.2
			c0.3,0.9,0.6,1.4,0.1,2.2c-0.1,0.2-0.3,0.4-0.5,0.6c-0.3,0.2-0.2,0.2,0.1,0c0.3-0.1,0.6-0.3,0.9-0.4c2.1-1,2.8-4.1,1.6-5.9
			C61.8,58.1,59.4,57.6,57.2,58.6L57.2,58.6z"/>
	</g>
</g>
</svg>
