<?xml version="1.0" encoding="utf-8"?>
<!-- Generator: Adobe Illustrator 22.1.0, SVG Export Plug-In . SVG Version: 6.00 Build 0)  -->
<svg version="1.1" id="Calque_1" xmlns="http://www.w3.org/2000/svg" xmlns:xlink="http://www.w3.org/1999/xlink" x="0px" y="0px"
	 viewBox="0 0 512 512" style="enable-background:new 0 0 512 512;" xml:space="preserve">
<style type="text/css">
	.st0{fill:#FFFFFF;}
</style>
<g>
	<path class="st0" d="M343.6,95.8c-58-1.2-116.1-1.2-174.1,0c-45.4,1-73.6,28.3-74.8,73.5c-1.6,57.6-1.6,115.4,0,173
		c1.2,45.1,29.4,71.9,74.8,73.6c28.9,1.2,57.8,0.4,86.6,0.4c29.2,0,58.5,0.9,87.6-0.2c45.8-1.7,73.8-28.9,74.9-74.7
		c1.4-56.9,1.4-113.9,0-170.9C417.4,124.8,389.3,96.8,343.6,95.8z M256,357.4c-56,0-101.4-45.4-101.4-101.4S200,154.6,256,154.6
		S357.4,200,357.4,256S312,357.4,256,357.4z M363.4,174.1c-13.4,0-24.1-10.8-24.1-24.1s10.8-24.1,24.1-24.1s24.1,10.8,24.1,24.1
		S376.7,174.1,363.4,174.1z"/>
	
		<ellipse transform="matrix(0.7071 -0.7071 0.7071 0.7071 -106.0356 255.9987)" class="st0" cx="256" cy="256" rx="66.5" ry="66.5"/>
	<path class="st0" d="M465.7,0H46.3C20.7,0,0,20.7,0,46.3v419.4C0,491.3,20.7,512,46.3,512h419.4c25.6,0,46.3-20.7,46.3-46.3V46.3
		C512,20.7,491.3,0,465.7,0z M453.5,348c-1.9,57.8-43.5,100.4-101.3,102.5c-63.8,2.3-127.9,2.3-191.7,0
		c-57.8-2.2-97.6-45-101.4-102.8c-0.4-4.9-1.4-10-2.1-15c0-51.2,0-102.4,0-153.6c1.4-9.3,2.3-18.7,4-28
		c9.5-52.3,46.6-88.1,99.6-89.8c63.8-2.2,127.9-2.3,191.7,0c57.8,2.1,99.4,44.8,101.3,102.5C455.5,225.3,455.5,286.7,453.5,348z"/>
</g>
</svg>
