<?xml version="1.0" encoding="utf-8"?>
<!-- Generator: Adobe Illustrator 22.1.0, SVG Export Plug-In . SVG Version: 6.00 Build 0)  -->
<svg version="1.1" id="Calque_1" xmlns="http://www.w3.org/2000/svg" xmlns:xlink="http://www.w3.org/1999/xlink" x="0px" y="0px"
	 viewBox="0 0 295.1 279.8" style="enable-background:new 0 0 295.1 279.8;" xml:space="preserve">
<style type="text/css">
	.st0{fill:#FFFFFF;}
</style>
<title>Fichier 4</title>
<g id="_x39_95d0713-f423-438c-98b6-c21c462d2419">
	<g id="_x32_d9529c3-b0b3-4253-902a-b84e56760c88">
		<path class="st0" d="M76.6,157.8c34.6,3.3,69.3,6.1,104,8.4c2.4,0.2,2.4-3.6,0-3.8c-34.7-2.3-69.4-5.1-104-8.4
			C74.2,153.8,74.2,157.5,76.6,157.8z"/>
		<path class="st0" d="M181.4,166.2c15.3-4.2,30.1-9.9,44.2-17c2.2-1.1,0.3-4.3-1.9-3.2c-13.9,6.9-28.4,12.5-43.3,16.6
			C178.1,163.2,179.1,166.8,181.4,166.2L181.4,166.2z"/>
		<path class="st0" d="M73.5,156.4l4.2,99.6c0.1,2.4,3.8,2.4,3.8,0l-4.1-99.7C77.2,154,73.5,153.9,73.5,156.4L73.5,156.4z"/>
		<path class="st0" d="M180.2,165l1.9,110.3c0,2.4,3.8,2.4,3.8,0L183.9,165C183.9,162.6,180.1,162.6,180.2,165z"/>
		<path class="st0" d="M79.8,258.4c33.3,11.2,67.8,18.4,102.8,21.4c2.4,0.2,2.4-3.5,0-3.8c-34.7-3-68.8-10.1-101.8-21.3
			C78.5,254,77.5,257.6,79.8,258.4z"/>
		<path class="st0" d="M184.2,279.3c14.9-9.6,28.7-20.6,42.5-31.6c1.9-1.5-0.8-4.1-2.6-2.6c-13.6,10.8-27.2,21.6-41.8,31
			C180.3,277.4,182.2,280.6,184.2,279.3z"/>
		<path class="st0" d="M223.5,147.6c0.8,32.9,0,65.8,0,98.8c0.1,1,1,1.8,2,1.7c0.9-0.1,1.7-0.8,1.7-1.7c0-32.9,0.8-65.8,0-98.8
			C227.2,145.2,223.5,145.2,223.5,147.6L223.5,147.6z"/>
		<path class="st0" d="M160.1,162.7c-1.7-12.6-2.3-25.3-1.9-38c0.1-2.7-0.4-6.9,0.5-9.5c1.2-3.6,6.3-4.7,9.5-6
			c5.7-2.3,11.5-4.4,17.3-6.4c5.8-2,12.2-4.7,18.4-5.1c0.7,0,2.8-0.4,3.4,0.2s1.1,6,1.1,6.3c0.3,2.6,0.3,5.2,0.4,7.8
			c0.3,13.2,0.6,26.4,0.9,39.6c0.1,2.4,3.8,2.4,3.8,0c-0.4-16,0.4-32.4-1.4-48.3c-0.4-3.6-0.3-8.7-4.7-9.4c-6.8-1-14.8,2.6-21,4.6
			c-7.3,2.4-14.5,5.1-21.6,8c-3.9,1.6-8.6,2.7-9.6,7.4c-1.5,7.6-0.9,16.3-0.7,24c0.2,8.3,0.9,16.5,2,24.7
			C156.7,165,160.5,165,160.1,162.7L160.1,162.7z"/>
		<path class="st0" d="M168.8,163.2c0-10.5-0.1-21-1.1-31.5c-0.5-5.1-2.6-12.3,3.7-14.6c4.4-1.7,9.1-2.8,13.7-4.2
			c4.3-1.3,9.6-3.7,14.2-3.7c3.3,0,2.6,3.1,2.7,5.9l0.4,7.9l1.7,32.4c0.1,1.6,2.6,1.6,2.5,0l-2.2-42.3c-0.1-2.6,0.3-5.6-2.7-6.5
			c-2.1-0.6-5.1,0.5-7,1c-3.2,0.8-6.3,1.7-9.4,2.6c-5.2,1.6-10.9,2.7-15.9,4.9c-3,1.3-4.7,3.3-4.9,6.6c-0.5,6.4,1.1,13.3,1.4,19.7
			c0.4,7.2,0.4,14.4,0.4,21.7c0,0.7,0.6,1.2,1.2,1.2S168.8,163.9,168.8,163.2L168.8,163.2z"/>
		<path class="st0" d="M86.4,154.1c-4.8-9-5.6-17.1-0.7-26.2c4.1-7.8,9.8-14.6,18.8-16.6c8.9-1.7,18.1,0.3,25.4,5.6
			c7.7,5.6,9.7,14.7,8.9,23.8c-0.3,3.7-0.8,8.3-3.5,11.1c-4.4,4.5-12.1,1.7-14-3.9c-2.4-7,5.1-13,4.5-20.2
			c-1.1-12.6-20.4-9.5-26.8-3.2c-4.9,4.8-4.6,11.6-0.3,16.8c4.6,5.4,12.2,7.2,18.7,4.3c2.9-1.2,1.6-6.1-1.3-4.8
			c-4.7,2-9.8,1.5-13.4-2.5c-4.6-5.2-1.1-10.9,4.6-12.9c3.4-1.2,11.6-2.6,13.4,1.8c1.6,3.9-2.5,8.8-3.7,12.3
			c-2.2,6.1-0.7,13.2,4.8,17.1c5.2,3.6,12.8,3.6,17.4-1.1c4.6-4.7,5-13.4,4.9-19.6c-0.2-7.4-2.4-14.7-7.7-20
			c-10.5-10.6-29.6-13.6-42.3-5.5c-7,4.5-12.2,12.7-15,20.3c-3.4,9.3-1.4,17.6,3.1,26C83.7,159.5,88,157,86.4,154.1L86.4,154.1z"/>
		<path class="st0" d="M125.6,132.1l2.5-5.9l-4.6-1.9c-1.4,3.4-2.2,7-3.5,10.4s-3.5,6-4.4,9.4c-0.9,3.1,4,4.4,4.8,1.3
			c0.9-3.3,3.2-6.2,4.4-9.4c1.3-3.4,2.2-7,3.5-10.4c1.1-2.6-3.5-4.5-4.6-1.9l-2.5,5.9C120,132.5,124.3,135.1,125.6,132.1z"/>
		<path class="st0" d="M79.9,132.7c-6.6-2-13.1-4.1-19.5-6.3c-1.5-0.5-2.2,1.9-0.7,2.4c6.5,2.2,13,4.3,19.5,6.3
			c0.7,0.2,1.4-0.2,1.5-0.9C81,133.6,80.6,132.9,79.9,132.7L79.9,132.7z"/>
		<path class="st0" d="M60.9,126.6c-4.1-3.4,0.6-15.7,1.6-20.2c1.3-5.9,2.8-11.8,4.4-17.6c3.2-11.7,6.8-23.2,10.9-34.6
			c0.5-1.5-1.9-2.2-2.4-0.7c-4.9,13.8-9.2,27.8-12.8,42c-1.7,6.8-3.3,13.7-4.7,20.5c-0.9,4.2-2.6,9.1,1.3,12.4
			C60.3,129.4,62.1,127.6,60.9,126.6z"/>
		<path class="st0" d="M77.5,54.4c2.7-5.7,8.5-2.3,12.9-0.8c5.2,1.9,10.4,3.6,15.6,5.4c10.5,3.6,21.1,7.2,31.7,10.6
			c10.3,3.4,20.6,6.7,30.9,9.9c10.1,3.2,21.8,5.4,30.8,11.3c1.4,0.9,2.6-1.3,1.3-2.2c-9.5-6.2-21.7-8.4-32.4-11.8
			c-12.5-4-24.9-8-37.4-12.1c-12.1-4-24.2-8.1-36.3-12.3c-6.5-2.3-15.2-7.7-19.2,0.7C74.7,54.6,76.8,55.9,77.5,54.4z"/>
		<path class="st0" d="M199.3,90.9c1.2,1.2,1.6,3,1,4.6c-0.5,1.5,1.9,2.2,2.4,0.7c0.8-2.5,0.2-5.2-1.7-7.1c-0.5-0.5-1.3-0.5-1.8,0
			C198.8,89.6,198.8,90.4,199.3,90.9L199.3,90.9z"/>
		<path class="st0" d="M81.8,125.7c-2.9-1-5.7-2.2-8.5-3.6c-3.5-2.1-3.2-4.2-2.4-8c1-5.1,2.9-10.2,4.5-15.2l9.9-32.4
			c0.5-1.5-1.9-2.2-2.4-0.7c-4.4,14.2-8.8,28.4-13.1,42.7c-1,3.3-3.4,9.8-1.4,13.2s9.2,5,12.8,6.4C82.6,128.7,83.3,126.3,81.8,125.7
			z"/>
		<path class="st0" d="M85.4,66.3c1.3-5.1,13.2,1.3,16,2.3c4,1.6,8,3,12.1,4.4c8.1,2.7,16.4,5.1,24.7,7.4s16.6,4.4,25,6.6
			c3.8,1,26.9,5,26.1,10.4c-0.2,1.6,2.2,2.2,2.4,0.7c1.3-8.3-12.6-9.3-18-10.8c-11.6-3.2-23.2-6.1-34.8-9.3
			c-11.2-3-22.4-6.4-33.3-10.4c-5-1.9-10.4-5.2-15.8-6.1c-3.2-0.5-5.9,1-6.7,4.2C82.6,67.2,85,67.9,85.4,66.3z"/>
		<path class="st0" d="M139.1,153.6l17.1,5.6c1.5,0.5,2.2-1.9,0.7-2.4l-17.1-5.6C138.3,150.7,137.6,153.1,139.1,153.6z"/>
		<path class="st0" d="M142,146.6c4.9,1.8,9.8,3.3,14.8,4.5c1.6,0.4,2.2-2,0.7-2.4c-5-1.2-10-2.7-14.8-4.5
			C141.1,143.6,140.5,146,142,146.6z"/>
		<path class="st0" d="M83.1,129c19.5,5.6,39,11.5,58.4,17.5c1.5,0.5,2.2-1.9,0.7-2.4c-19.4-6-38.9-11.9-58.4-17.5
			c-0.7-0.2-1.3,0.3-1.5,0.9C82,128.1,82.4,128.8,83.1,129L83.1,129z"/>
		<path class="st0" d="M80.7,136.4c19.2,5.3,38.3,11,57.3,17c1.5,0.5,2.2-1.9,0.7-2.4c-19-6-38.1-11.7-57.3-17
			c-0.7-0.2-1.4,0.2-1.5,0.9C79.6,135.6,80,136.2,80.7,136.4z"/>
		<path class="st0" d="M96.9,88.4c-1.7,5.3-2,10.9-0.9,16.4c0.2,0.7,0.9,1.1,1.6,0.9c0.1,0,0.2-0.1,0.3-0.1c2.7-1.6,5.2-3.5,7.3-5.7
			l-2.1-0.6c0.7,2.6,1.6,5.2,2.9,7.6c0.4,0.6,1.1,0.8,1.7,0.4c5.2-2.8,7.2-8.1,8.6-13.5c0.2-0.7-0.3-1.3-0.9-1.5
			c-0.6-0.2-1.3,0.2-1.5,0.8c-1.2,4.8-2.8,9.5-7.4,12l1.7,0.4c-1.2-2.2-2.1-4.6-2.7-7c-0.2-0.7-0.9-1-1.6-0.8
			c-0.2,0.1-0.4,0.2-0.5,0.3c-2,2.1-4.3,3.9-6.8,5.3l1.8,0.8c-1-5-0.7-10.2,0.9-15C99.8,87.6,97.4,86.9,96.9,88.4z"/>
		<path class="st0" d="M118.7,93.9c-1.7,5.3-2,10.9-0.9,16.4c0.2,0.7,0.9,1.1,1.6,0.9c0.1,0,0.3-0.1,0.4-0.2
			c2.7-1.6,5.2-3.5,7.3-5.7l-2.1-0.6c0.7,2.6,1.6,5.2,2.9,7.6c0.4,0.6,1.1,0.8,1.7,0.4c5.1-2.8,7.1-8,8.5-13.5
			c0.1-0.7-0.4-1.3-1.1-1.4c-0.5-0.1-1.1,0.2-1.3,0.7c-1.2,4.8-2.8,9.5-7.4,12l1.7,0.4c-1.2-2.2-2.1-4.6-2.7-7
			c-0.2-0.7-0.9-1.1-1.6-0.9c-0.2,0.1-0.4,0.2-0.5,0.3c-2,2.1-4.3,3.9-6.8,5.3l1.8,0.8c-1-5-0.7-10.2,0.9-15
			C121.6,93.1,119.2,92.4,118.7,93.9L118.7,93.9z"/>
		<path class="st0" d="M140.4,100.4c-1.7,5.3-2,10.9-0.9,16.4c0.2,0.7,0.9,1,1.5,0.9c0.1,0,0.2-0.1,0.3-0.1c2.7-1.5,5.2-3.5,7.4-5.7
			l-2.1-0.6c0.7,2.6,1.6,5.2,2.9,7.6c0.4,0.6,1.1,0.8,1.7,0.4c5.2-2.8,7.2-8.1,8.6-13.5c0.2-0.7-0.3-1.3-0.9-1.5
			c-0.6-0.2-1.3,0.2-1.5,0.8c-1.2,4.8-2.8,9.5-7.4,12l1.7,0.4c-1.2-2.2-2.1-4.6-2.7-7c-0.2-0.7-0.9-1.1-1.6-0.9
			c-0.2,0.1-0.4,0.2-0.5,0.3c-2,2.1-4.3,3.9-6.8,5.3l1.8,0.7c-1-5-0.7-10.2,0.9-15C143.3,99.6,140.9,98.9,140.4,100.4L140.4,100.4z"
			/>
		<path class="st0" d="M127.5,150.2c-1,1.7-1.8,3.5-2.4,5.3c-0.5,1.5,1.9,2.2,2.4,0.7c0.5-1.7,1.3-3.2,2.2-4.7
			C130.5,150.1,128.3,148.9,127.5,150.2z"/>
		<path class="st0" d="M105.3,144.8c-1.5,4-2.8,8-4,12.1c-0.2,0.7,0.2,1.4,0.9,1.5c0.7,0.2,1.4-0.2,1.5-0.9c1.2-4.1,2.5-8.1,4-12.1
			C108.3,144,105.8,143.3,105.3,144.8L105.3,144.8z"/>
		<path class="st0" d="M212.6,120l23.2-16.9l-1.9-1.1c0.8,13.6,1.5,27.2,2.1,40.8c0.1,1.6,2.6,1.6,2.5,0
			c-0.6-13.6-1.2-27.2-2.1-40.8c0-0.9-1-1.7-1.9-1.1l-23.2,16.9C210,118.8,211.3,121,212.6,120L212.6,120z"/>
		<path class="st0" d="M237.4,142c-4.5-1.6-9-3.2-13.4-4.8c-1.5-0.6-2.2,1.9-0.7,2.4c4.5,1.7,8.9,3.3,13.4,4.8
			C238.3,144.9,238.9,142.5,237.4,142z"/>
		<path class="st0" d="M222.2,137.7c-1.8,3.4-3.4,6.9-4.9,10.5c-0.6,1.5,1.8,2.1,2.4,0.7c1.4-3.4,2.9-6.7,4.6-9.9
			C225.1,137.6,222.9,136.3,222.2,137.7z"/>
		<path class="st0" d="M218.8,147.4c-1.6-0.4-3.2-0.9-4.8-1.6c-1.5-0.6-2.1,1.8-0.7,2.4c1.6,0.6,3.2,1.1,4.8,1.6
			c0.7,0.2,1.3-0.3,1.5-0.9C219.8,148.2,219.4,147.6,218.8,147.4z"/>
		<path class="st0" d="M213.1,136.8c0.4,0,0.7,0.2,1,0.4c0.6,0.3,1.4,0,1.7-0.6c0.3-0.6,0.1-1.2-0.4-1.6c-0.7-0.4-1.5-0.6-2.3-0.7
			c-0.7,0-1.2,0.6-1.2,1.2S212.4,136.8,213.1,136.8L213.1,136.8z"/>
		<path class="st0" d="M213.9,135.4c-1.3,2.5-2.5,5.1-3.5,7.8c-0.6,1.5,1.9,2.2,2.4,0.7c0.9-2.5,2-4.9,3.2-7.2
			C216.8,135.3,214.7,134,213.9,135.4z"/>
		<path class="st0" d="M89.4,174.5c-0.5,11.4-0.7,22.8-0.7,34.2c0,0.7,0.6,1.2,1.2,1.2c0.7,0,1.2-0.6,1.2-1.2
			c-0.1-11.4,0.2-22.8,0.7-34.2C91.9,172.9,89.4,172.9,89.4,174.5z"/>
		<path class="st0" d="M90.4,175c5.4-0.1,15-0.2,18.4,4.9c5.7,8.4-8.7,10.2-13.7,8.7c-1.5-0.5-2.2,1.9-0.7,2.4
			c6.2,1.9,19.2,0.4,17.9-8.7c-1.4-9.4-14.7-9.9-22-9.8c-0.7,0-1.2,0.6-1.2,1.2S89.6,175,90.4,175L90.4,175z"/>
		<path class="st0" d="M111.5,211.5c3.5-11.1,6.5-22.4,9-33.8h-2.4c1.9,11.8,3.6,23.6,5.1,35.5c0.2,1.6,2.7,1.6,2.5,0
			c-1.5-12.1-3.2-24.1-5.2-36.2c-0.2-1.2-2.2-1.1-2.4,0c-2.5,11.4-5.5,22.7-9,33.8C108.6,212.3,111,213,111.5,211.5L111.5,211.5z"/>
		<path class="st0" d="M114.7,199.1c2-0.2,4.1-0.1,6.1,0.2c1.6,0.2,2.3-2.2,0.7-2.4c-2.2-0.4-4.5-0.5-6.8-0.3
			C113.1,196.8,113.1,199.3,114.7,199.1z"/>
		<path class="st0" d="M144.8,180.5c-4-0.9-8.6-1.6-11.8,1.6c-3.3,3.1-4.8,9.2-5.3,13.7s-0.3,10.4,2.4,14.2
			c2.9,4.1,8.3,4.7,12.9,5.1c1.6,0.1,1.6-2.4,0-2.5c-4.2-0.3-8.7-0.7-11.1-4.6c-1.8-3-2-7-1.8-10.5c0.2-3.7,1.1-7.4,2.8-10.7
			c2.5-4.7,6.6-4.8,11.3-3.8C145.7,183.2,146.4,180.8,144.8,180.5L144.8,180.5z"/>
		<path class="st0" d="M153.9,181.1c-1.3,11.3-2.1,22.7-2.3,34.1c0,0.7,0.6,1.2,1.2,1.2s1.2-0.6,1.2-1.2c0.2-11.4,0.9-22.8,2.3-34.1
			C156.5,179.6,154,179.6,153.9,181.1L153.9,181.1z"/>
		<path class="st0" d="M153.6,197.1c3.7,7.3,8.5,13.9,13.1,20.7c0.9,1.3,3.1,0.1,2.1-1.3c-4.5-6.8-9.4-13.4-13.1-20.7
			C155,194.4,152.8,195.7,153.6,197.1L153.6,197.1z"/>
		<path class="st0" d="M155.7,196.7c4.7-3.8,9.2-7.9,13.4-12.3c1.1-1.2-0.7-2.9-1.8-1.8c-4.2,4.4-8.7,8.5-13.4,12.3
			C152.7,195.9,154.5,197.7,155.7,196.7z"/>
		<path class="st0" d="M87.2,217.9c2,12,4.8,23.7,9.7,34.8c0.5,1.1,2,0.6,2.3-0.3l6.3-17.6h-2.4c2,6.7,4.4,13.2,7.1,19.7
			c0.2,0.7,0.9,1,1.6,0.8c0.4-0.1,0.7-0.4,0.8-0.8l9.3-33.5c0.2-0.7-0.3-1.3-0.9-1.5c-0.6-0.2-1.3,0.2-1.5,0.8l-9.3,33.5h2.4
			c-2.7-6.4-5.1-13-7.1-19.7c-0.2-0.7-0.9-1-1.6-0.8c-0.4,0.1-0.7,0.4-0.8,0.8l-6.3,17.6l2.3-0.3c-4.8-10.9-7.5-22.5-9.4-34.2
			C89.4,215.6,86.9,216.3,87.2,217.9z"/>
		<path class="st0" d="M141.9,220.1l-8-0.1c-2.4,0-5.8-0.7-8.1-0.1c-2.1,0.6-2,1.8-2.3,4c-1,10.7-0.9,21.4,0.3,32.1
			c0,0.7,0.6,1.2,1.2,1.2c5.2,0.4,10.3,1.1,15.3,2.3c1.6,0.4,2.2-2,0.7-2.4c-5.3-1.2-10.6-2-16-2.4l1.3,1.3
			c-0.9-7.8-1.1-15.7-0.9-23.6c0.1-1.9,0.2-3.8,0.3-5.7c0.2-2.6,0.3-3.7,3.1-4.3c3.8-0.8,9.1,0.1,13,0.1c0.7,0,1.2-0.6,1.2-1.2
			S142.7,220.1,141.9,220.1L141.9,220.1z"/>
		<path class="st0" d="M125.3,238.9c5.4,0.3,10.8,0.8,16.2,1.5c1.6,0.2,1.6-2.3,0-2.5c-5.4-0.7-10.8-1.2-16.2-1.5
			C123.7,236.3,123.7,238.8,125.3,238.9z"/>
		<path class="st0" d="M149.7,221.2c-0.2,13.2-0.7,26.3-1.4,39.5c-0.1,1.6,2.4,1.6,2.5,0c0.7-13.2,1.2-26.3,1.4-39.5
			c0-0.7-0.6-1.2-1.2-1.2S149.7,220.5,149.7,221.2z"/>
		<path class="st0" d="M148.9,261.7c5.6,5,19.4,6.8,23.5-1.1c4.8-9.2-5.1-16.5-12.8-18.9c-1.5-0.5-2.2,1.9-0.7,2.4
			c6,1.9,15.1,7.5,11.3,15.2c-3,6.1-15.3,4.3-19.6,0.6C149.5,258.9,147.7,260.6,148.9,261.7L148.9,261.7z"/>
		<path class="st0" d="M159.4,243.8c6.7-1.4,11.7-7.1,9.2-14.1c-2.6-7.2-8.4-10.6-15.8-10.9c-1.6-0.1-1.6,2.4,0,2.5
			c5.1,0.3,9.1,1.7,11.9,6.2c4,6.3,1.2,12.4-5.9,13.9C157.2,241.7,157.9,244.1,159.4,243.8z"/>
		<path class="st0" d="M172.1,124.1c6.4-2.2,13.2-3.6,19.8-5.3c0.7-0.2,1-0.9,0.8-1.6c-0.2-0.6-0.8-1-1.5-0.8
			c-6.6,1.7-13.4,3.1-19.8,5.3C169.9,122.2,170.5,124.6,172.1,124.1z"/>
		<path class="st0" d="M172.9,129.5c3.8-1.1,7.6-2.1,11.4-3.1c0.6-0.3,0.9-1,0.6-1.7c-0.2-0.5-0.7-0.8-1.3-0.7
			c-3.8,1-7.6,2-11.4,3.1c-0.7,0.2-1.1,0.9-0.9,1.5C171.6,129.3,172.3,129.7,172.9,129.5L172.9,129.5z"/>
		<path class="st0" d="M172.4,134c4.2-1.4,8.5-2.4,12.9-3.2c1.6-0.3,0.9-2.7-0.7-2.4c-4.4,0.8-8.7,1.8-12.9,3.2
			C170.2,132.1,170.8,134.5,172.4,134L172.4,134z"/>
		<path class="st0" d="M189.1,122.7c0,2.8,0.5,5.6,1.3,8.2c0.2,0.7,0.9,1,1.5,0.9l5.8-1c1.2-0.2,2.5-0.2,3.1-1.4s0.2-2.8,0.1-4.1
			c0-1.6-0.2-3.1-0.6-4.7c-0.2-0.5-0.6-0.9-1.2-0.9c-1.4,0.1-2.7,0.3-4,0.8l-4.7,1.1c-1.6,0.4-0.9,2.8,0.7,2.4l4-1
			c1.2-0.3,2.8-1,4-0.9l-1.2-0.9c0.3,1.1,0.5,2.2,0.5,3.3c0.1,0.6,0.6,3.1,0.2,3.5c-0.4,0.4-2.6,0.5-3.3,0.6l-4,0.7l1.5,0.9
			c-0.8-2.5-1.2-5-1.2-7.6c0-0.7-0.6-1.2-1.2-1.2S189.1,122,189.1,122.7L189.1,122.7z"/>
		<path class="st0" d="M173.7,143.8c8.8-2.5,17.4-5.9,26.3-8.1c1.6-0.4,0.9-2.8-0.7-2.4c-8.9,2.2-17.5,5.6-26.3,8.1
			c-0.7,0.2-1,0.9-0.8,1.6C172.4,143.6,173,143.9,173.7,143.8L173.7,143.8z"/>
		<path class="st0" d="M198.6,134.6c0.2,2,0.4,4,0.5,6c0.1,1.6,2.6,1.6,2.5,0c-0.1-2-0.3-4-0.5-6C200.9,133,198.4,133,198.6,134.6z"
			/>
		<path class="st0" d="M171.4,143.5l0.7,5.2c0.2,0.7,0.9,1.1,1.5,0.9c0,0,0,0,0,0c0.7-0.2,1-0.9,0.9-1.5l-0.7-5.2
			c-0.2-0.7-0.9-1-1.5-0.9C171.6,142.1,171.2,142.8,171.4,143.5z"/>
		<path class="st0" d="M173.9,150.1c8.6-3.1,17.3-5.8,26.2-8.1c0.7-0.2,1.1-0.9,0.9-1.5c-0.2-0.7-0.9-1.1-1.5-0.9
			c-8.8,2.3-17.6,5-26.2,8.1C171.7,148.2,172.3,150.7,173.9,150.1z"/>
		<path class="st0" d="M174.2,155c5.4-1.3,10.7-2.9,15.9-4.7c1.5-0.5,0.9-2.9-0.7-2.4c-5.2,1.8-10.5,3.4-15.9,4.7
			c-0.7,0.2-1,0.9-0.8,1.6C172.9,154.8,173.5,155.2,174.2,155z"/>
		<path class="st0" d="M175.7,159.3c8.3-2.1,16.3-4.9,24.3-7.9c1.5-0.5,0.9-3-0.7-2.4c-8,2.9-16,5.8-24.3,7.9
			c-0.7,0.2-1,0.9-0.8,1.6C174.4,159.1,175,159.5,175.7,159.3z"/>
		<path class="st0" d="M191.9,236.7c0.2,11.2,0.6,22.3,1.4,33.5c0.1,1.6,2.6,1.6,2.5,0c-0.8-11.2-1.2-22.3-1.4-33.5
			c0-0.7-0.6-1.2-1.2-1.2S191.9,236,191.9,236.7z"/>
		<path class="st0" d="M198.4,244.2c0,7.3,0.4,14.7,1.2,22c0.2,1.6,2.7,1.6,2.5,0c-0.8-7.3-1.2-14.7-1.2-22c0-0.7-0.6-1.2-1.2-1.2
			S198.4,243.5,198.4,244.2L198.4,244.2z"/>
		<path class="st0" d="M204.7,247.4c0.2,4.4,0.5,8.8,0.9,13.2c0.1,1.6,2.6,1.6,2.5,0c-0.4-4.4-0.7-8.8-0.9-13.2
			C207.1,245.8,204.6,245.8,204.7,247.4L204.7,247.4z"/>
		<path class="st0" d="M210.2,154.9c0,8.1,0.3,16.2,0.8,24.3c0.1,1.6,2.6,1.6,2.5,0c-0.5-8.1-0.7-16.2-0.8-24.3
			c0-0.7-0.6-1.2-1.2-1.2S210.2,154.2,210.2,154.9z"/>
		<path class="st0" d="M216.1,152.5l0.2,36.8c0,0.7,0.6,1.2,1.2,1.2s1.2-0.6,1.2-1.2l-0.1-36.8c0-0.7-0.6-1.2-1.2-1.2
			S216.2,151.8,216.1,152.5L216.1,152.5z"/>
		<path class="st0" d="M205,157.2l0.5,11c0.1,1.6,2.6,1.6,2.5,0l-0.5-11C207.4,155.6,204.9,155.6,205,157.2z"/>
		<path class="st0" d="M176.2,265.4v11.3c0,0.3,0.4,0.6,0.7,0.5c0.3,0,0.5-0.3,0.5-0.5v-11.3c0-0.3-0.4-0.6-0.7-0.5
			C176.4,264.9,176.2,265.1,176.2,265.4z"/>
		<path class="st0" d="M171.6,269l-0.2,6.3c0,0.8,1.2,0.8,1.2,0l0.2-6.3C172.9,268.2,171.6,268.2,171.6,269z"/>
		<path class="st0" d="M219.9,244.8c0.3,0,0.6-0.4,0.5-0.7c0-0.3-0.3-0.5-0.5-0.5c-0.3,0-0.6,0.4-0.5,0.7
			C219.4,244.5,219.7,244.7,219.9,244.8z"/>
		<path class="st0" d="M220.7,238.8c0.3,0,0.6-0.4,0.5-0.7c0-0.3-0.3-0.5-0.5-0.5c-0.3,0-0.6,0.4-0.5,0.7
			C220.2,238.5,220.4,238.7,220.7,238.8z"/>
		<path class="st0" d="M217.7,241.3c0.3,0,0.6-0.4,0.5-0.7c0-0.3-0.3-0.5-0.5-0.5c-0.3,0-0.6,0.4-0.5,0.7
			C217.2,241,217.4,241.2,217.7,241.3z"/>
		<path class="st0" d="M83.7,251c0.3,0,0.6-0.4,0.5-0.7c0-0.3-0.3-0.5-0.5-0.5c-0.3,0-0.6,0.4-0.5,0.7C83.2,250.7,83.4,251,83.7,251
			z"/>
		<path class="st0" d="M85.4,254.3c0.3,0,0.6-0.4,0.5-0.7c0-0.3-0.3-0.5-0.5-0.5c-0.3,0-0.6,0.4-0.5,0.7
			C84.9,254,85.2,254.2,85.4,254.3z"/>
		<path class="st0" d="M197,78.3c5.8,1,10.3,5.5,11.2,11.3c0.4,2.4,4,1.4,3.6-1C210.6,81.5,205,76,198,74.7
			C195.6,74.3,194.6,77.9,197,78.3L197,78.3z"/>
		<path class="st0" d="M199.6,66.7c10.7,1.9,19.1,10.3,20.9,21.1c0.4,2.4,4,1.4,3.6-1c-2.1-12-11.5-21.5-23.5-23.7
			C198.2,62.7,197.2,66.3,199.6,66.7L199.6,66.7z"/>
		<path class="st0" d="M202.8,54.7c14.3,2.5,25.5,13.8,27.9,28.1c0.4,2.4,4,1.4,3.6-1c-2.7-15.7-14.9-28-30.5-30.8
			C201.4,50.6,200.4,54.2,202.8,54.7L202.8,54.7z"/>
		<path class="st0" d="M131.8,65.1c-1.4-5.2-3.9-10-5.2-15.2c-0.2-0.7-0.9-1-1.6-0.8c-0.6,0.2-1,0.8-0.8,1.5
			c1.3,5.2,3.9,10,5.2,15.2c0.2,0.7,0.9,1.1,1.5,0.9C131.6,66.4,132,65.7,131.8,65.1L131.8,65.1z"/>
		<path class="st0" d="M124.2,49.1c-1.3,0.6-2.6,1.1-4,1.4c-1.6,0.4-0.9,2.8,0.7,2.4c1.6-0.4,3.1-0.9,4.6-1.7
			C126.9,50.5,125.6,48.4,124.2,49.1z"/>
		<path class="st0" d="M121.7,51.4l-1.8-5.1c-0.5-1.5-2.9-0.9-2.4,0.7l1.7,5.1C119.7,53.6,122.2,53,121.7,51.4L121.7,51.4z"/>
		<path class="st0" d="M119,47.7l4.2-1.5c1.5-0.5,0.9-3-0.7-2.4l-4.2,1.5C116.9,45.8,117.5,48.3,119,47.7z"/>
		<path class="st0" d="M124,43.9c-1.6-3.5-2.7-8,0.4-11c2.5-2.4,6.3-2.8,9.5-3.1c1.6-0.1,1.6-2.6,0-2.5c-4.4,0.4-9.3,1-12.1,4.8
			c-3,4-1.8,9,0.1,13.1C122.5,46.6,124.7,45.3,124,43.9L124,43.9z"/>
		<path class="st0" d="M132.8,29.6c0.5,1.4,0.9,2.8,1.1,4.3c0.2,0.7,0.9,1.1,1.5,0.9c0.7-0.2,1.1-0.9,0.9-1.5
			c-0.2-1.5-0.6-2.9-1.1-4.3C134.6,27.4,132.2,28.1,132.8,29.6z"/>
		<path class="st0" d="M134.9,32.9c-2.4,0-5.1-0.2-6.7,2c-1.6,2.2-1.1,4.9-0.5,7.4c0.2,0.7,0.9,1.1,1.5,0.9c0.7-0.2,1.1-0.9,0.9-1.5
			c-0.4-1.6-1-3.6,0-5.1s3.2-1.1,4.8-1.1c0.7,0,1.2-0.6,1.2-1.2S135.6,32.9,134.9,32.9L134.9,32.9z"/>
		<path class="st0" d="M129.3,43.3c2.8-0.7,5.5-1.9,8.4-2.3c1.6-0.2,0.9-2.7-0.7-2.4c-2.9,0.4-5.6,1.6-8.4,2.3
			c-0.7,0.2-1,0.9-0.8,1.6C128,43.1,128.6,43.5,129.3,43.3L129.3,43.3z"/>
		<path class="st0" d="M136.2,40.1c0.3,1.6,0.7,3.1,1.1,4.6c0.2,0.7,0.9,1,1.6,0.9c0.7-0.2,1-0.9,0.9-1.6c-0.4-1.5-0.8-3.1-1.1-4.6
			C138.3,37.8,135.9,38.5,136.2,40.1L136.2,40.1z"/>
		<path class="st0" d="M138.4,44.2c-2.3,0.6-4.7,1.2-7,1.8c-0.7,0.2-1,0.9-0.8,1.6c0.2,0.6,0.8,1,1.5,0.8c2.4-0.6,4.7-1.2,7-1.8
			c0.7-0.2,1-0.9,0.8-1.6C139.7,44.4,139,44,138.4,44.2z"/>
		<path class="st0" d="M130.4,47.9c2.7,6.2,5.1,12.5,7.2,18.8c0.5,1.5,2.9,0.9,2.4-0.7c-2.2-6.6-4.7-13.1-7.5-19.4
			C132,45.2,129.8,46.4,130.4,47.9z"/>
		<path class="st0" d="M138.7,65.3l-1.7,0.6c-0.7,0.2-1,0.9-0.9,1.5c0.2,0.7,0.9,1,1.5,0.9l1.8-0.6c0.7-0.2,1.1-0.9,0.9-1.5
			S139.4,65.1,138.7,65.3z"/>
		<path class="st0" d="M110.4,57.9c-2.4-6.2-5.7-13.1-4.9-19.9c1.1-9.2,15.5-12.4,23-14.4c4.3-1.1,9.6-2.5,13.7,0
			c4.3,2.5,6.6,7.7,8.3,12.1c1.7,5,3,10.2,3.8,15.5c1,6.1,4.6,17.3-3.3,20.1c-1.5,0.5-0.9,2.9,0.7,2.4c4.9-1.7,7.1-5.5,6.8-10.6
			c-0.5-7.3-1.7-14.6-3.6-21.7c-2.6-10-7.4-22.4-19.6-21.5c-5.6,0.4-11.5,2.3-16.7,4.3c-4.6,1.7-10.5,4-13.5,8.1
			c-5.4,7.4,0.2,19,3,26.3C108.6,60.1,111,59.4,110.4,57.9L110.4,57.9z"/>
		<path class="st0" d="M121.3,23.6c-3.5-4.3-8.3-7.6-12.6-11c-4-3.3-8-6.7-12.3-9.5c-3.3-2.3-6.1-4.4-9.9-2.1
			c-3.5,2-5.9,6.3-8.3,9.5c-3.4,4.5-6.7,9.1-9.7,13.9c-2.2,3.5-6.1,8.1-6.9,12.2c-1.6,7.8,9.7,13.1,15.2,15.7
			c1.4,0.7,2.7-1.5,1.3-2.2c-3.6-1.7-7.3-3.4-10.2-6c-2.2-2.2-4.7-4.8-3.2-8.4c0.7-1.3,1.5-2.6,2.4-3.9c3.9-6.7,8.2-13.2,12.9-19.4
			c2-2.6,4.2-7,7.1-8.7c4.9-3,11.5,3.8,14.9,6.4c5.9,4.7,12.9,9.3,17.7,15.2C120.5,26.6,122.3,24.9,121.3,23.6z"/>
		<path class="st0" d="M151.9,33.8c8.1-1.6,16.4-2.4,24.7-2.4c2,0,4.5-0.3,6.5,0.1c2.7,0.6,3.8,1.7,4.9,4.6
			c1.2,3.3,1.6,7.3,2.2,10.8c0.7,4.3,1.3,8.6,1.6,12.9c0.3,4,1.3,10.7-2.2,13.5c-3.1,2.5-8.8,2.1-12.6,2.2c-4.3,0-8.6-0.1-12.9-0.3
			c-1.6-0.1-1.6,2.4,0,2.5c5.7,0.4,11.5,0.5,17.2,0.2c3.4-0.2,7.7-0.7,10.4-3.1c2.5-2.2,2.5-6.3,2.6-9.3c0-5.5-0.5-11-1.5-16.4
			c-0.8-5.1-1.4-10.8-3.3-15.6c-1-2.5-2-3.9-4.8-4.3c-10.9-1.5-23,0.3-33.7,2.3C149.6,31.7,150.3,34.1,151.9,33.8L151.9,33.8z"/>
		<path class="st0" d="M154,41c5.9-1.2,12-1.7,18-1.7c4.2-0.1,7.2,2,8.5,6.2c0.8,2.7,1.5,5.5,2,8.3c0.4,2.5,1.3,6.5,0.8,9.1
			c-1,4.4-5.4,4.9-8.9,5.7c-5.9,1.2-12,1.4-18,0.6c-1.6-0.2-1.6,2.3,0,2.5c8.3,1.1,16.7,0.4,24.6-2.3c2.5-0.9,4.2-1.4,4.7-4.2
			c0.6-3.5,0-7.6-0.6-11c-0.8-5-1.6-15.2-7.5-17c-3.3-1-7.6-0.3-11-0.2c-4.4,0.2-8.8,0.7-13.2,1.6C151.8,39,152.5,41.4,154,41
			L154,41z"/>
		<path class="st0" d="M176.4,45.6c0.6-0.6,0.6-1.6,0-2.3c-0.3-0.3-0.7-0.4-1.1-0.4c-1,0-1.7,0.8-1.7,1.8c0,0.3,0.1,0.5,0.2,0.8
			c0.5,0.9,1.6,1.2,2.5,0.8c0.9-0.5,1.2-1.6,0.8-2.5c-0.1-0.3-0.3-0.5-0.6-0.7c-0.8-0.6-2-0.3-2.6,0.5c-0.6,0.8-0.3,2,0.5,2.6
			c0.8,0.6,2,0.3,2.6-0.5c0.2-0.3,0.3-0.7,0.3-1.1c-0.1-1.1-1-1.9-2-1.8c-0.1,0-0.3,0-0.4,0.1c-0.7,0.2-1.1,0.8-0.9,1.5
			s0.8,1.1,1.5,0.9c0,0,0.1,0,0.1,0c-1,0.2-1-1.5,0-1.3c0.3,0.1,0.6,0.4,0.5,0.8c-0.1,0.2-0.2,0.4-0.5,0.5c-0.4,0.1-0.7-0.1-0.8-0.5
			c0-0.1,0-0.2,0-0.3c0.1-0.4,0.5-0.6,0.9-0.5c0,0,0.1,0,0.1,0c0.4,0.5,0.4,0.8,0.1,1.2l-0.6,0.2l-0.3-0.1l-0.4-0.5v-0.6l0.3-0.5
			l-0.1,0.1c-0.5,0.5-0.5,1.3,0,1.8C175.2,46.1,176,46.1,176.4,45.6L176.4,45.6z"/>
		<path class="st0" d="M157.4,55c0.9-3,2.1-6.1,5.4-7.1c3.6-1.1,7.5,0.3,9.6,3.5c1.9,3.1,1.8,7.7-1.3,10c-3.5,2.5-8.7,1.9-12.4,0.2
			c-1.4-0.7-2.7,1.5-1.3,2.2c4.7,2.2,11.4,2.8,15.7-0.8c3.4-2.8,3.8-8.1,2-11.9c-2.1-4.2-6.7-6.6-11.4-5.9c-5,0.8-7.3,4.7-8.7,9.2
			C154.5,55.9,157,56.6,157.4,55L157.4,55z"/>
		<path class="st0" d="M95,12.3c-0.4-1.3-1.8-2-3.1-1.7c-0.3,0.1-0.6,0.2-0.8,0.4c-1.2,1.1-1.3,2.9-0.2,4.1c0.1,0.1,0.2,0.2,0.2,0.2
			c1.2,1.2,3,1.5,4.2,0.2c0.9-1.1,1-2.6,0.3-3.8c-1.8-2.9-6.4-0.9-5.7,2.3c0.6,2.1,2.9,3.3,5,2.7c0.6-0.2,1.1-0.5,1.6-0.9
			c1.1-1.2,1.2-3,0.4-4.4c-1-1.4-2.6-2-4.2-1.6c-1,0.3-1.6,1.3-1.3,2.3c0.3,1,1.3,1.6,2.3,1.3c-0.3,0.1,0.3,0,0,0
			c0.2,0,0.2,0.1,0.2,0.1c0,0-0.3-0.3-0.1-0.1c0.2,0.1,0,0.1,0-0.1v0.1c0-0.1,0-0.1,0.1-0.2c-0.1,0.2-0.1,0.2,0,0
			c0.1-0.2,0.2-0.1,0.2-0.1h-0.4c0.2,0,0.2,0-0.1,0c0.3,0.1-0.3-0.1,0,0c-0.3-0.1,0-0.1,0,0.1s0,0.3-0.2,0.7c0.2-0.2,0,0-0.1,0.1
			c-0.2,0-0.3,0-0.5-0.1c-0.2-0.1-0.3-0.3-0.4-0.5v0.2c0-0.2,0-0.3,0-0.5c0.2-0.5,1.7,0,1.3-0.4c-0.2-0.2-0.1-0.1,0.1,0.2
			c-0.6,1.3-1.2,1.7-2,1.1l-0.5-0.8v0.1c0.3,1,1.3,1.6,2.4,1.4c0,0,0,0,0.1,0C94.7,14.3,95.3,13.3,95,12.3L95,12.3z"/>
		<path class="st0" d="M87,19.1c-4.3,5.7-8.4,11.6-12.3,17.5c-1.8,2.7,2.6,5.2,4.3,2.5c3.9-6,8-11.8,12.3-17.5
			C93.2,19,88.9,16.5,87,19.1L87,19.1z"/>
		<path class="st0" d="M104.6,44.2c-1.7-4.3-1.7-9.9,1.6-13.2c-1.4-1.6-3.3-2.8-5.5-3.2c0.2-0.3,0.4-0.6,0.6-0.9
			c1.7-2.8-2.5-5.2-4.3-2.5l-4.1,6.1c-3,4.3-6.3,8.4-9.8,12.3c-2.1,2.4,1.4,5.9,3.5,3.5c3.5-3.9,6.9-8.1,9.9-12.4
			c0.1-0.1,0.1-0.1,0.2-0.2c1.4-2.2,4.4-1.2,5.6,0.6c1.6,2.5-0.1,5.2-1.4,7.3c-2,3.3-4.7,6.2-6.9,9.4c-1.8,2.7,2.5,5.2,4.3,2.5
			c1.6-2.3,4.4-5.4,6.6-8.7C104.8,44.7,104.7,44.4,104.6,44.2z"/>
		<path class="st0" d="M105.4,51.6l-2.5,3.2c-0.5,0.5-0.5,1.3,0,1.8c0.5,0.5,1.3,0.5,1.8,0l2.5-3.2c0.5-0.5,0.5-1.3,0-1.8
			C106.7,51.2,105.9,51.2,105.4,51.6z"/>
		<path class="st0" d="M96.9,88.4c-1.7,5.3-2,10.9-0.9,16.4c0.2,0.7,0.9,1.1,1.6,0.9c0.1,0,0.2-0.1,0.3-0.1c2.7-1.6,5.2-3.5,7.3-5.7
			l-2.1-0.6c0.7,2.6,1.6,5.2,2.9,7.6c0.4,0.6,1.1,0.8,1.7,0.4c5.2-2.8,7.2-8.1,8.6-13.5c0.2-0.7-0.3-1.3-0.9-1.5
			c-0.6-0.2-1.3,0.2-1.5,0.8c-1.2,4.8-2.8,9.5-7.4,12l1.7,0.4c-1.2-2.2-2.1-4.6-2.7-7c-0.2-0.7-0.9-1-1.6-0.8
			c-0.2,0.1-0.4,0.2-0.5,0.3c-2,2.1-4.3,3.9-6.8,5.3l1.8,0.8c-1-5-0.7-10.2,0.9-15C99.8,87.6,97.4,86.9,96.9,88.4z"/>
		<path class="st0" d="M118.7,93.9c-1.7,5.3-2,10.9-0.9,16.4c0.2,0.7,0.9,1.1,1.6,0.9c0.1,0,0.3-0.1,0.4-0.2
			c2.7-1.6,5.2-3.5,7.3-5.7l-2.1-0.6c0.7,2.6,1.6,5.2,2.9,7.6c0.4,0.6,1.1,0.8,1.7,0.4c5.1-2.8,7.1-8,8.5-13.5
			c0.1-0.7-0.4-1.3-1.1-1.4c-0.5-0.1-1.1,0.2-1.3,0.7c-1.2,4.8-2.8,9.5-7.4,12l1.7,0.4c-1.2-2.2-2.1-4.6-2.7-7
			c-0.2-0.7-0.9-1.1-1.6-0.9c-0.2,0.1-0.4,0.2-0.5,0.3c-2,2.1-4.3,3.9-6.8,5.3l1.8,0.8c-1-5-0.7-10.2,0.9-15
			C121.6,93.1,119.2,92.4,118.7,93.9L118.7,93.9z"/>
		<path class="st0" d="M140.4,100.4c-1.7,5.3-2,10.9-0.9,16.4c0.2,0.7,0.9,1,1.5,0.9c0.1,0,0.2-0.1,0.3-0.1c2.7-1.5,5.2-3.5,7.4-5.7
			l-2.1-0.6c0.7,2.6,1.6,5.2,2.9,7.6c0.4,0.6,1.1,0.8,1.7,0.4c5.2-2.8,7.2-8.1,8.6-13.5c0.2-0.7-0.3-1.3-0.9-1.5
			c-0.6-0.2-1.3,0.2-1.5,0.8c-1.2,4.8-2.8,9.5-7.4,12l1.7,0.4c-1.2-2.2-2.1-4.6-2.7-7c-0.2-0.7-0.9-1.1-1.6-0.9
			c-0.2,0.1-0.4,0.2-0.5,0.3c-2,2.1-4.3,3.9-6.8,5.3l1.8,0.7c-1-5-0.7-10.2,0.9-15C143.3,99.6,140.9,98.9,140.4,100.4L140.4,100.4z"
			/>
	</g>
</g>
</svg>
