<?xml version="1.0" encoding="utf-8"?>
<!-- Generator: Adobe Illustrator 22.1.0, SVG Export Plug-In . SVG Version: 6.00 Build 0)  -->
<svg version="1.1" id="Calque_1" xmlns="http://www.w3.org/2000/svg" xmlns:xlink="http://www.w3.org/1999/xlink" x="0px" y="0px"
	 viewBox="0 0 295.1 279.8" style="enable-background:new 0 0 295.1 279.8;" xml:space="preserve">
<style type="text/css">
	.st0{fill:#FFFFFF;}
</style>
<title>Fichier 4</title>
<g id="_x30_e209661-aac0-4735-a534-95d39220e1aa">
	<g id="c76a6547-5597-4118-91a4-00eb3a1e65bd">
		<path class="st0" d="M75.4,168c-0.5,11.4-0.7,22.8-0.6,34.2c0,0.7,0.6,1.2,1.2,1.2c0.7,0,1.2-0.6,1.2-1.2
			c-0.1-11.4,0.1-22.8,0.6-34.2C77.9,166.4,75.4,166.4,75.4,168z"/>
		<path class="st0" d="M76.3,168.5c5.9-0.1,16.1-0.3,20.5,4.4c8.5,9-10.5,10.5-15.1,9.2c-0.7-0.2-1.3,0.3-1.5,0.9
			c-0.2,0.6,0.2,1.3,0.8,1.5c6,1.6,20.8,1.2,20.1-8c-0.8-10.5-17.3-10.6-24.8-10.5c-0.7,0-1.2,0.6-1.2,1.2S75.6,168.6,76.3,168.5
			L76.3,168.5z"/>
		<path class="st0" d="M100.3,205.1c3.9-11.1,7.2-22.3,10-33.8h-2.4c2.3,11.9,4.3,23.9,6,35.9c0.2,1.6,2.6,0.9,2.4-0.7
			c-1.7-12-3.7-23.9-6-35.8c-0.2-0.7-0.9-1-1.6-0.8c-0.4,0.1-0.7,0.4-0.8,0.8c-2.8,11.4-6.1,22.7-10,33.7
			C97.4,206,99.8,206.6,100.3,205.1L100.3,205.1z"/>
		<path class="st0" d="M103.9,192.8c2.3-0.2,4.7-0.1,7,0.2c1.6,0.2,2.2-2.2,0.7-2.4c-2.5-0.4-5.1-0.5-7.6-0.3
			C102.4,190.4,102.3,192.9,103.9,192.8L103.9,192.8z"/>
		<path class="st0" d="M137.9,174.2c-4.4-0.9-9.5-1.7-13.2,1.5s-5.3,9.1-5.8,13.6s-0.2,10.5,2.7,14.3c3.3,4.3,9.5,4.8,14.5,5.1
			c1.6,0.1,1.6-2.4,0-2.5c-4.3-0.3-9.7-0.6-12.5-4.3c-2.2-2.9-2.5-7.4-2.3-10.9c0.1-3.8,1.2-7.4,3.1-10.7c3.2-4.9,7.7-4.7,13-3.7
			C138.9,176.9,139.5,174.5,137.9,174.2L137.9,174.2z"/>
		<path class="st0" d="M148.1,190.9c4.2,7.4,9.7,14,14.9,20.8c1,1.3,3.1,0,2.2-1.3c-5.1-6.8-10.7-13.4-14.9-20.8
			c-0.3-0.6-1.1-0.8-1.7-0.5C147.9,189.5,147.7,190.3,148.1,190.9z"/>
		<path class="st0" d="M150,190.7c5.4-3.8,10.5-8,15.4-12.4c1.2-1.1-0.6-2.9-1.8-1.8c-4.7,4.3-9.7,8.3-14.9,12
			C147.5,189.5,148.8,191.6,150,190.7L150,190.7z"/>
		<path class="st0" d="M65.5,157c34.6,3.3,69.3,6.1,104,8.4c2.4,0.2,2.4-3.6,0-3.8c-34.7-2.2-69.4-5-104-8.4
			C63.1,153,63.1,156.8,65.5,157z"/>
		<path class="st0" d="M170.3,165.5c15.2-4.2,30.1-9.9,44.2-17c2.2-1.1,0.3-4.3-1.9-3.2c-13.9,6.9-28.4,12.5-43.3,16.6
			C167,162.5,168,166.1,170.3,165.5L170.3,165.5z"/>
		<path class="st0" d="M62.4,155.6l4.1,99.6c0.1,2.4,3.8,2.4,3.8,0l-4.1-99.6C66.1,153.2,62.3,153.2,62.4,155.6z"/>
		<path class="st0" d="M169.1,164.3l1.9,110.3c0,2.4,3.8,2.4,3.8,0l-1.9-110.3C172.8,161.9,169,161.9,169.1,164.3L169.1,164.3z"/>
		<path class="st0" d="M68.7,257.6C102,268.9,136.5,276,171.5,279c2.4,0.2,2.4-3.5,0-3.8c-34.7-3-68.8-10.1-101.8-21.3
			C67.4,253.3,66.4,256.9,68.7,257.6z"/>
		<path class="st0" d="M173.1,278.5C188,269,201.8,258,215.6,247c1.9-1.5-0.8-4.1-2.6-2.6c-13.6,10.8-27.2,21.6-41.8,31
			C169.2,276.6,171.1,279.9,173.1,278.5L173.1,278.5z"/>
		<path class="st0" d="M212.4,146.9c0.8,32.9,0,65.8,0,98.8c0.1,1,1,1.8,2,1.7c0.9-0.1,1.7-0.8,1.7-1.7c0-32.9,0.8-65.8,0-98.8
			C216.1,144.5,212.4,144.4,212.4,146.9L212.4,146.9z"/>
		<path class="st0" d="M143.8,177.7c-1.5,11.3-2.3,22.7-2.4,34.1c0,0.7,0.6,1.2,1.2,1.2s1.2-0.6,1.2-1.2c0.1-11.4,0.9-22.8,2.4-34.1
			C146.5,176.1,144,176.1,143.8,177.7z"/>
		<path class="st0" d="M74.1,214c0.2,11.7,0.2,23.3,0.1,35c0,0.7,0.6,1.2,1.2,1.2c0.7,0,1.2-0.6,1.2-1.2c0.1-11.7,0.1-23.3-0.1-35
			c0-0.7-0.6-1.2-1.2-1.2C74.7,212.7,74.1,213.3,74.1,214z"/>
		<path class="st0" d="M73,250.9c1.7,0.6,3.5,0.9,5.3,1c1.6,0.1,1.6-2.4,0-2.5c-1.6-0.1-3.2-0.4-4.7-0.9
			C72.1,247.9,71.4,250.4,73,250.9L73,250.9z"/>
		<path class="st0" d="M78.5,212.7c-1.7-0.6-3.5-0.9-5.3-0.9c-1.6-0.1-1.6,2.4,0,2.5c1.6,0.1,3.2,0.4,4.7,0.9
			C79.4,215.6,80,213.2,78.5,212.7z"/>
		<path class="st0" d="M82.2,213.6c0.6,12.8,0.6,25.7,0,38.5c-0.1,1.6,2.4,1.6,2.5,0c0.6-12.8,0.6-25.7,0-38.5
			C84.6,212,82.1,212,82.2,213.6z"/>
		<path class="st0" d="M83.6,214.8c8.9-0.2,11.2,12.3,10.9,19.1c-0.3,7.5-3.7,14.2-10.5,17.8c-1.4,0.7-0.2,2.9,1.3,2.2
			c8.8-4.5,12.5-14.1,11.5-23.6c-0.7-7.6-4-18.1-13.3-17.9c-0.7,0-1.2,0.6-1.2,1.2S82.9,214.8,83.6,214.8L83.6,214.8z"/>
		<path class="st0" d="M98.6,214.9c0.3,9.4,0.6,18.9-0.3,28.3c-0.3,2.9-1.5,6.4-1.3,9.3c0,0.4-0.2,1,0.1,1.4c0.9,1.8,4,2.4,5.7,2.9
			c1.5,0.5,2.2-1.9,0.7-2.4c-4.3-1.3-3.4-4.8-3-8.3s0.7-6.9,0.9-10.4c0.3-6.9,0-13.9-0.2-20.8C101,213.3,98.5,213.3,98.6,214.9
			L98.6,214.9z"/>
		<path class="st0" d="M100.4,234.6c1.7,0.5,3.4,0.8,5.2,1c1.6,0.1,1.6-2.4,0-2.5c-1.5-0.2-3-0.5-4.5-0.9
			C99.5,231.9,98.8,234.3,100.4,234.6L100.4,234.6z"/>
		<path class="st0" d="M100,216.1c2.2,0.3,4.5,0.7,6.7,1.3c1.6,0.4,2.2-2,0.7-2.4c-2.4-0.6-4.9-1-7.3-1.4
			C98.5,213.4,98.5,215.9,100,216.1L100,216.1z"/>
		<path class="st0" d="M157.7,223c0.3,9.4,0.6,18.9-0.3,28.3c-0.3,2.9-1.5,6.4-1.2,9.3c0,0.4-0.1,1,0,1.4c0.9,1.8,4,2.4,5.7,2.9
			c1.5,0.5,2.2-1.9,0.7-2.4c-4.3-1.3-3.4-4.8-3-8.4s0.7-6.9,0.9-10.4c0.3-6.9,0-13.9-0.2-20.8C160.1,221.4,157.6,221.4,157.7,223
			L157.7,223z"/>
		<path class="st0" d="M159.6,242.7c1.7,0.5,3.4,0.8,5.2,1c1.6,0.1,1.6-2.4,0-2.5c-1.5-0.2-3-0.5-4.5-0.9
			C158.7,240,158,242.4,159.6,242.7L159.6,242.7z"/>
		<path class="st0" d="M159.2,224.2c2.2,0.3,4.5,0.7,6.7,1.3c1.6,0.4,2.2-2,0.7-2.4c-2.4-0.6-4.9-1-7.3-1.4
			C157.6,221.5,157.6,224,159.2,224.2L159.2,224.2z"/>
		<path class="st0" d="M110.6,258.6c1-13.9,1.7-27.8,2.3-41.8l-2.4,0.3c4.9,13.5,5.8,27.7,6.4,41.9c0.1,1.3,2.2,1.8,2.5,0.3
			c2.1-13.6,3.3-27.4,3.7-41.2c0-0.7-0.6-1.2-1.2-1.2s-1.2,0.6-1.2,1.2c-0.3,13.6-1.5,27.1-3.6,40.5l2.4,0.3
			c-0.7-14.4-1.6-28.9-6.5-42.6c-0.2-0.7-0.9-1-1.6-0.8c-0.5,0.2-0.9,0.6-0.9,1.2c-0.6,13.9-1.3,27.9-2.3,41.7
			C108,260.2,110.5,260.2,110.6,258.6L110.6,258.6z"/>
		<path class="st0" d="M126.7,219.4c3.4,0.2,6.9,0.7,10.2,1.3c1.6,0.3,2.2-2.1,0.7-2.4c-3.6-0.6-7.3-1.1-10.9-1.4
			C125,216.7,125,219.2,126.7,219.4L126.7,219.4z"/>
		<path class="st0" d="M131.1,219.5c-0.3,13.6-2.1,27.2-3.4,40.8c-0.2,1.6,2.4,1.6,2.5,0c1.3-13.5,3.1-27.1,3.4-40.8
			c0-0.7-0.6-1.2-1.2-1.2S131.1,218.8,131.1,219.5z"/>
		<path class="st0" d="M145,221.9c3.4,0.2,6.9,0.7,10.3,1.3c1.6,0.3,2.2-2.1,0.7-2.4c-3.6-0.6-7.3-1.1-11-1.4
			C143.4,219.3,143.4,221.8,145,221.9L145,221.9z"/>
		<path class="st0" d="M149.4,222c-0.3,13.6-2.1,27.2-3.4,40.8c-0.1,1.6,2.4,1.6,2.5,0c1.3-13.5,3.1-27.1,3.4-40.8
			c0-0.7-0.6-1.2-1.2-1.2S149.4,221.3,149.4,222z"/>
		<path class="st0" d="M139.6,224c-0.6,12.9-1.8,25.7-3.7,38.4c-0.2,1.6,2.2,2.3,2.4,0.7c2-13,3.2-26,3.8-39.1
			C142.1,222.4,139.6,222.4,139.6,224L139.6,224z"/>
		<path class="st0" d="M141.4,221.1c0.7,0,1.2-0.6,1.2-1.2s-0.6-1.2-1.2-1.2s-1.2,0.6-1.2,1.2S140.7,221.1,141.4,221.1z"/>
		<path class="st0" d="M161.8,220.9l4.5-4.2c1.2-1.1-0.6-2.9-1.8-1.8l-4.5,4.2C158.9,220.2,160.6,222,161.8,220.9L161.8,220.9z"/>
		<path class="st0" d="M144,160.5c6.5-18.2,15.2-35.4,22-53.5c6.6-17.5,12.4-35.4,21.8-51.7c1.2-2.1-2-4-3.2-1.9
			c-9.2,16.1-15.1,33.7-21.5,51c-6.9,18.6-15.9,36.5-22.6,55.2C139.6,161.8,143.2,162.8,144,160.5L144,160.5z"/>
		<path class="st0" d="M218.2,65.4c-5.6,15.5-13,30.3-18.8,45.8c-6.2,16.2-11.6,32.8-20.3,47.9c-1.2,2.1,2,4,3.2,1.9
			c8.6-14.9,14-31.1,20.1-47.1s13.6-31.3,19.5-47.4C222.6,64.1,219,63.2,218.2,65.4L218.2,65.4z"/>
		<path class="st0" d="M187.6,55.2c9.2-8.2,18.9-15.8,29-22.8c2-1.4,0.1-4.6-1.9-3.2c-10.4,7.1-20.4,15-29.8,23.4
			C183.1,54.2,185.8,56.8,187.6,55.2L187.6,55.2z"/>
		<path class="st0" d="M213.8,31c1.3,11.6,3.3,23.2,4.4,34.9c0.2,2.4,4,2.4,3.8,0c-1.1-11.7-3.1-23.2-4.4-34.9
			C217.2,28.7,213.5,28.6,213.8,31z"/>
		<path class="st0" d="M202.3,41.6c3.4,3,9.1,5.9,13.7,5.8c2.4,0,2.4-3.8,0-3.8c-3.6,0-8.4-2.4-11-4.7
			C203.2,37.4,200.5,40,202.3,41.6L202.3,41.6z"/>
		<path class="st0" d="M209.4,40.9L209.4,40.9l-2.6,0.6l0.1,0l-0.9-2.1c-0.8,2,0.9,3.4,2.8,3.4c0.6-0.1,1.2-0.1,1.8-0.1
			c0.3,0.2,0.6,0.4,0.9,0.7c0.9,0.7,1.9,1.2,2.9,1.6c1.4,0.5,2.6-1,2.3-2.3s-1.4-1.7-2.1-2.7c-0.7-1-1.1-2.2-1-3.5
			c0-1-0.8-1.8-1.8-1.9c-3.1,0.3-4.3,4.2-1.3,5.7c1.2,0.6,2.7,0.3,3.6-0.7c1-1.1,1.4-2.6,1.1-4.1c-0.2-1.9-3.3-2.8-3.7-0.5
			c-0.3,1.7-0.3,3.4,0,5.1c0.4,2.4,4,1.4,3.6-1c-0.2-1-0.2-2.1,0-3.2l-3.7-0.5c0,0.4,0,2.9,0.3,2.8l-1.9-1.9c0,1.5,0.3,3,0.9,4.3
			c0.3,0.6,0.7,1.2,1.1,1.8c0.2,0.2,0.4,0.5,0.6,0.7c0.2,0.2,0.7,0.9,0.6,0.3l2.3-2.3c-1.2-0.5-1.9-1.5-3-2.1
			c-0.6-0.3-1.2-0.4-1.8-0.3l-1.2,0c-0.8-0.1-0.8,0-0.1,0.4l0.2,1.5c0-0.2,0.1-0.4,0.1-0.5c0.2-0.8-0.1-1.7-0.9-2.1h-0.1
			c-0.9-0.5-2-0.2-2.6,0.7V39c-0.5,0.9-0.1,2.1,0.9,2.5C207.9,42,208.9,41.7,209.4,40.9L209.4,40.9z"/>
		<path class="st0" d="M188.3,67c-8.4,23-17.1,45.8-26.2,68.5c-0.6,1.5,1.8,2.1,2.4,0.7c9.1-22.7,17.8-45.6,26.2-68.5
			C191.3,66.1,188.9,65.5,188.3,67z"/>
		<path class="st0" d="M158.5,142.3l-8.3,18.9c-0.6,1.5,1.5,2.7,2.2,1.3l8.3-18.8C161.3,142.2,159.2,140.9,158.5,142.3L158.5,142.3z
			"/>
		<path class="st0" d="M186.8,116.2c-7.1,15.2-13.7,30.7-20,46.2c-0.6,1.5,1.8,2.1,2.4,0.7c6.2-15.4,12.8-30.6,19.8-45.6
			C189.6,116,187.5,114.8,186.8,116.2L186.8,116.2z"/>
		<path class="st0" d="M205.9,69l-16.6,40.8c-0.6,1.5,1.8,2.1,2.4,0.7l16.6-40.9C208.9,68.2,206.5,67.5,205.9,69L205.9,69z"/>
		<path class="st0" d="M185.1,56.2c9.2,8.9,21.8,13.3,34.5,11.9c1.6-0.2,1.6-2.7,0-2.5c-12,1.4-24-2.7-32.7-11.1
			C185.7,53.3,183.9,55.1,185.1,56.2z"/>
		<path class="st0" d="M102.8,157.5l-8-22.2c-0.5-1.5-3-0.9-2.4,0.7l8,22.3C101,159.7,103.4,159,102.8,157.5z"/>
		<path class="st0" d="M94.1,136.2c6.5-2.9,13.4-4.7,20.4-5.6c1.6-0.2,1.6-2.7,0-2.5c-7.5,0.9-14.8,2.9-21.7,5.9
			C91.3,134.7,92.6,136.9,94.1,136.2z"/>
		<path class="st0" d="M113.7,129.6l9,29c0.5,1.5,2.9,0.9,2.4-0.7l-9-29C115.6,127.4,113.2,128.1,113.7,129.6L113.7,129.6z"/>
		<path class="st0" d="M117.5,134.7c6.2-0.7,12.5-1.1,18.8-1.1c0.7,0,1.2-0.6,1.2-1.2s-0.6-1.2-1.2-1.2c-6.3,0-12.5,0.4-18.8,1.2
			C115.9,132.4,115.9,134.9,117.5,134.7L117.5,134.7z"/>
		<path class="st0" d="M135,132.2c0,9-2.2,17.9-2,26.9c0,0.7,0.6,1.2,1.2,1.2s1.2-0.6,1.2-1.2c-0.2-9,2-17.9,2-26.9
			c0-0.7-0.6-1.2-1.2-1.2S135,131.5,135,132.2z"/>
		<path class="st0" d="M136,140.4l10.5,2.9c0.7,0.2,1.4-0.2,1.5-0.9c0.2-0.7-0.2-1.4-0.9-1.5l-10.5-2.9c-0.7-0.2-1.3,0.3-1.5,0.9
			C135,139.6,135.3,140.2,136,140.4z"/>
		<path class="st0" d="M168.6,90c-13-3.7-26.2-6.8-39.5-9.4c-1.6-0.3-2.2,2.1-0.7,2.4c13.3,2.6,26.5,5.7,39.5,9.4
			c0.7,0.2,1.4-0.2,1.5-0.9C169.7,90.9,169.3,90.2,168.6,90z"/>
		<path class="st0" d="M127.3,81.5c-4.6,16.8-8.4,33.8-11.5,51c-0.3,1.6,2.1,2.2,2.4,0.7c3-17.2,6.9-34.2,11.5-51
			c0.2-0.7-0.2-1.4-0.9-1.5C128.2,80.4,127.5,80.8,127.3,81.5L127.3,81.5z"/>
		<path class="st0" d="M127,87c0.8,2.5,3,4.3,5.6,4.7c1.9,0.2,3.8,0.3,5.7,0.2c4.8,0,7.4,1.7,9.9,5.6c4,6,9.2,8.5,16.2,5.5
			c0.7-0.3,0.1-1.4-0.6-1.1c-5.5,2.3-10.4,1-13.8-3.9c-1.2-1.8-2.3-4-4.1-5.4c-4.8-3.8-15.3,1-17.6-5.9C128,86,126.8,86.3,127,87z"
			/>
		<path class="st0" d="M136.1,101.8c6.8,2,13.8,3.6,20.9,4.6c0.8,0.1,1.1-1.1,0.3-1.2c-7.1-1-14.1-2.6-20.9-4.6
			C135.6,100.3,135.3,101.6,136.1,101.8z"/>
		<path class="st0" d="M135.6,105.6l20.3,4.2c0.8,0.2,1.1-1,0.3-1.2l-20.3-4.2C135.1,104.2,134.8,105.4,135.6,105.6L135.6,105.6z"/>
		<path class="st0" d="M133.5,109.5c7,1.5,14.1,2.8,21.1,3.9c0.8,0.1,1.1-1.1,0.3-1.2c-7.1-1.1-14.1-2.4-21.1-3.9
			C133,108.1,132.7,109.3,133.5,109.5z"/>
		<path class="st0" d="M132.2,116.2c3.4,0.9,6.8,1.6,10.3,2.2c0.8,0.1,1.1-1.1,0.3-1.2c-3.5-0.5-6.9-1.2-10.3-2.2
			c-0.3-0.1-0.7,0.1-0.8,0.4S131.9,116.1,132.2,116.2z"/>
		<path class="st0" d="M132.6,119c3.2,1,6.5,1.7,9.8,2.2c0.8,0.1,1.1-1.1,0.3-1.2c-3.3-0.5-6.6-1.2-9.8-2.2
			c-0.3-0.1-0.7,0.2-0.7,0.5C132.1,118.6,132.3,118.9,132.6,119z"/>
		<path class="st0" d="M111.9,137.2c1.1,2.6,2.2,5.1,3.3,7.7c0.3,0.7,1.5,0.4,1.2-0.3c-1.1-2.7-2.2-5.4-3.4-8
			C112.7,135.9,111.6,136.5,111.9,137.2L111.9,137.2z"/>
		<path class="st0" d="M108.6,137.8c1.5,3.9,3.1,7.8,4.8,11.7c0.3,0.7,1.4,0.1,1.1-0.6c-1.7-3.7-3.2-7.5-4.7-11.4
			C109.6,136.8,108.3,137.1,108.6,137.8z"/>
		<path class="st0" d="M104.5,140.1v0.4c-0.2,0.1-0.4,0.4-0.3,0.7c0,0.3,0.5,0.8,0.5,0.9c0,0.3-0.3,0.4-0.3,0.8
			c0,1.1,0.6,1.2,0.9,2.3c0.1,0.4-0.2,0.7-0.1,1.1c0.2,0.6,0.5,0.5,0.9,0.9c1.5,1.5,2.2,3.7,3.2,5.6c0.4,0.7,1.4,0.1,1.1-0.6
			c-0.8-1.4-1.5-2.9-2.2-4.4c-0.4-0.9-1-1-1.4-1.6s0-1.1-0.2-1.7c0.1,0.2-0.8-1.2-0.8-0.9c0-0.3,0.3-0.5,0.3-0.7c0-0.3,0-0.7,0-1
			c0-0.2-0.3-0.3-0.3-0.4s0.1-0.1,0-0.3c-0.1-1.3,0.3-2-1.4-2.1C103.7,138.8,103.7,140,104.5,140.1L104.5,140.1z"/>
		<path class="st0" d="M130.6,137.5l-1.2,12.4c-0.1,0.8,1.2,0.8,1.2,0l1.2-12.4C131.9,136.7,130.6,136.8,130.6,137.5z"/>
		<path class="st0" d="M126.7,137.7c-0.5,4-0.7,8.1-0.6,12.1c0,0.3,0.4,0.6,0.7,0.5c0.3,0,0.5-0.3,0.5-0.5c-0.1-4,0.1-8.1,0.6-12.1
			C128,136.9,126.7,136.9,126.7,137.7L126.7,137.7z"/>
		<path class="st0" d="M122.5,139.2c0.5,1.1-0.5,2.4-0.4,3.5c0,0.7,0.2,1.2,0.2,1.9c0,1-0.4,1.8-0.3,2.8s0.6,2.2,0.1,3.3
			c-0.3,0.7,0.8,1.4,1.1,0.6c0.4-0.9,0.5-1.8,0.2-2.7c-0.1-1.1,0-2.3,0.4-3.4c0.1-0.3,0.1-0.7,0.1-1c-0.1-1.2-0.6,0.1-0.2-1.9
			c0.1-0.2,0.4-0.4,0.4-0.7c0.2-1.1,0-2.2-0.5-3.1C123.3,137.9,122.2,138.5,122.5,139.2z"/>
		<path class="st0" d="M100.6,141.6c0.3,0.2,0.8,0.6,0.8,1s-0.2,0.7-0.3,1.1c0,0.3,0,0.6,0.1,0.8c0.1,0.1,0.5,0.8,0.4,0.9
			c-0.5,0.6,0.4,1.5,0.9,0.9c0.3-0.3,0.4-0.8,0.3-1.2c-0.1-0.6-0.6-1-0.4-1.6c0.3-1.1-0.1-2.2-1-2.8
			C100.8,140.3,100,141.1,100.6,141.6L100.6,141.6z"/>
		<path class="st0" d="M119.5,139.9c0.4,0.7,0.1,1.2,0.1,1.9c0,0.2,0.1,0.4,0.1,0.6c0.2,0.4,0.1,0.9-0.1,1.3
			c-0.3,0.7,0.8,1.4,1.1,0.6c0.2-0.4,0.3-0.8,0.4-1.2c0-0.4-0.1-0.8-0.2-1.2c0-0.4,0.1-0.9,0.1-1.3c0-0.4-0.2-0.9-0.4-1.2
			C120.3,138.5,119.2,139.2,119.5,139.9z"/>
		<path class="st0" d="M122.9,62.7c-3.7-4.7-6.9-9.7-9.5-15.1c-0.9-1.8-1.7-3.7-2.2-5.7c-0.7-2.9-0.6-4.2,2.3-2.7
			c3.5,1.8,5.1,7.1,6.2,10.5c0.2,0.5,1.1,0.7,1.2,0c0.4-3.7,1.5-7.4,3-10.8c0.6-1.2,1.5-4.4,3.6-2.9c1,0.7,0.6,4.9,0.5,5.9
			c-0.5,7.2-3.7,14.4-6.1,21.1c-0.3,0.8,0.9,1.1,1.2,0.3c2.3-6.4,5-13.1,6-19.9c0.4-2.9,1-9.1-2.4-10.5c-0.2-0.1-0.4,0-0.6,0.2
			c-4.2,3.4-5.8,11.2-6.5,16.2h1.2c-1.8-5.9-4.4-11.2-10.6-13.2c-0.3-0.1-0.7,0.1-0.8,0.4c0,0,0,0.1,0,0.2
			c-0.4,9.7,6.8,19.2,12.3,26.5C122.3,63.9,123.4,63.3,122.9,62.7L122.9,62.7z"/>
		<path class="st0" d="M153.6,32.2c-0.3-3.8,0.4-7.6,2-11c0.4-0.8,2.1-4.1,2.7-4.2c3.6-0.5,2.1,6.5,1.5,7.7
			c-0.2,0.3-0.1,0.7,0.2,0.9c0.3,0.2,0.6,0.1,0.8-0.1c2.6-2.1,5.6-3.6,8.8-4.5L169,20c-3.9,6.9-11.9,9.6-17.2,15.2
			c-0.6,0.6,0.3,1.5,0.9,0.9c5.4-5.7,13.4-8.4,17.4-15.4c0.2-0.3,0.1-0.7-0.2-0.9c-0.1-0.1-0.3-0.1-0.5-0.1c-3.4,1-6.6,2.6-9.4,4.8
			l1,0.8c0.8-2,1.8-11.4-2.6-9.9c-2,0.6-3.6,4.8-4.3,6.4c-1.3,3.3-1.9,6.9-1.7,10.4C152.4,33,153.7,33,153.6,32.2z"/>
		<path class="st0" d="M72.1,141.4c6.6,2.7,15.7-0.2,21.8-3c0.7-0.3,0.1-1.4-0.6-1.1c-5.9,2.7-14.6,5.4-20.8,2.9
			C71.7,139.9,71.4,141.1,72.1,141.4z"/>
		<path class="st0" d="M75.1,145.8c7,0.1,13.9-1.4,20.1-4.5c0.7-0.4,0.1-1.4-0.6-1.1c-6,3-12.7,4.5-19.4,4.4c-0.3,0-0.6,0.4-0.5,0.7
			C74.6,145.5,74.8,145.7,75.1,145.8L75.1,145.8z"/>
		<path class="st0" d="M76.4,149.8c7.1,0.7,13.8-1.3,20.5-3.6c0.8-0.2,0.4-1.5-0.3-1.2c-6.6,2.2-13.2,4.2-20.2,3.5
			C75.6,148.5,75.6,149.7,76.4,149.8z"/>
		<path class="st0" d="M77.7,153.9c7.1,0.1,14.2-0.1,20.8-3c0.7-0.3,0.1-1.4-0.6-1.1c-6.4,2.9-13.3,2.9-20.2,2.9
			c-0.3,0-0.6,0.4-0.5,0.7C77.1,153.7,77.4,153.9,77.7,153.9L77.7,153.9z"/>
		<path class="st0" d="M87.2,157.1c4.5,0,8.9-0.2,13.1-2c0.7-0.3,0.1-1.4-0.6-1.1c-4,1.7-8.2,1.8-12.4,1.8c-0.3,0-0.6,0.4-0.5,0.7
			C86.7,156.8,86.9,157,87.2,157.1L87.2,157.1z"/>
		<path class="st0" d="M71,140.6c2,4.8,3.7,9.7,5.4,14.6c0.5,1.5,2.9,0.9,2.4-0.7c-1.6-4.9-3.4-9.8-5.4-14.6
			C72.8,138.4,70.4,139.1,71,140.6L71,140.6z"/>
		<path class="st0" d="M73.5,138.1c-1.3,0-2.5,0.6-3.5-0.4c-0.8-0.8-1.3-2.4-1.7-3.4l-3.6-8.3c-0.6-1.5-2.8-0.2-2.2,1.3
			c1.5,3.6,2.8,7.6,4.8,11c0.5,1,1.2,1.8,2.2,2.3c1.4,0.7,2.5,0,4,0c0.7,0,1.2-0.6,1.2-1.2S74.2,138.1,73.5,138.1L73.5,138.1z"/>
		<path class="st0" d="M63.8,127.7c12.4-0.8,24.7-3.4,36.3-7.7c1.5-0.6,0.8-3-0.7-2.4c-11.5,4.2-23.5,6.8-35.7,7.7
			C62.2,125.3,62.1,127.8,63.8,127.7L63.8,127.7z"/>
		<path class="st0" d="M98.7,119.1c0.9,4,1.7,8.1,2.2,12.2c0.2,1.6,2.7,1.6,2.5,0c-0.5-4.3-1.2-8.6-2.2-12.8
			C100.8,116.9,98.4,117.6,98.7,119.1L98.7,119.1z"/>
		<path class="st0" d="M64.5,126.2c-1.5-4.9-3.2-9.8-7.7-12.9c-2.8-2-5.9-3.2-8.4-5.7c-2.8-2.8-5.1-6-6.9-9.4
			c-7.2-13-10-34.7,0.1-47c4.8-5.8,10-11.2,17.6-12.9c8.2-1.8,16.9-2.4,25.1-0.8c3.7,0.7,7.3,2,10.5,3.9c4,2.4,6,6.1,7.9,10.3
			c3.6,7.9,6.6,16.5,6.8,25.3c0.4,8.7-2.6,17.3-8.4,23.8c-1.7,1.9-3.5,3.7-4.1,6.3c-0.8,3.8,1.4,7.6,1.6,11.4c0.1,1.6,2.6,1.6,2.5,0
			c-0.2-5-3.2-9.3,0-13.9c2.2-3.2,5-5.6,6.9-9.1c3.2-6.5,4.6-13.8,3.8-21c-0.7-8.4-3.5-16.4-7-24c-3.2-6.9-7-11-14.2-13.7
			c-8-3-16.7-3.1-25.1-2.1c-7.3,0.9-13.9,2.4-19.3,7.6s-10.1,10.7-12,18S32.6,75.7,33.8,83c1.4,8.6,4.9,16.7,10.3,23.5
			c2.5,3.1,5.6,5.7,9.1,7.6c5.3,3,7.3,7.2,9,12.8C62.6,128.5,65,127.8,64.5,126.2L64.5,126.2z"/>
		<path class="st0" d="M73.7,124.3c-1.6-8.7-3.4-17.3-5.6-25.9c-0.1-0.3-0.5-0.5-0.8-0.4c-0.3,0.1-0.4,0.4-0.4,0.7
			c2.2,8.6,4,17.2,5.6,25.9C72.7,125.4,73.9,125.1,73.7,124.3z"/>
		<path class="st0" d="M89.9,121.3c-1.5-8.4-3.4-16.8-5.5-25.1c-0.1-0.3-0.5-0.5-0.8-0.4c-0.3,0.1-0.5,0.4-0.4,0.7
			c2.1,8.3,4,16.7,5.5,25.1C88.8,122.4,90.1,122.1,89.9,121.3z"/>
		<path class="st0" d="M68,98.8c3.2-3.8,2.5-9.3,1.7-13.9c-0.4-2.1-1-9.7-4.3-9.3c-3.3,0.4-2.8,6-2.1,8c1.1,2.8,2.4,5.4,4.1,7.8
			c0.6,1,2.1,4.4,3.6,4.7c3.4,0.5,3.4-6.6,3.6-8.5c0.2-2.2,2-12.8-1.6-13.9c-3.1-0.9-2.9,3.7-2.8,5.4c0.5,4.8,2.7,12,6.8,15
			c0.2,0.1,0.4,0.1,0.6,0c3.3-2.4,5.2-8.6,5.1-12.5c0-2.2-0.9-7.5-3.9-7.7c-7.3-0.3,1.7,20.4,4.5,22.8c0.6,0.5,1.5-0.4,0.9-0.9
			c-3.3-2.8-4.6-8.8-5.9-12.8l-0.4-1.4c-0.9-2-0.1-3.6,2.4-4.9c1.6,1,1.3,6.1,1,7.6c-0.3,1.7-0.9,4.7-2.2,5.8
			c-0.5,2-1.7,2.1-3.5,0.4c-0.4-0.6-0.8-1.3-1.2-2c-1.1-2.1-1.9-4.3-2.5-6.5c-0.3-1.4-1.5-7.8,1.6-3.5c0.5,0.7,0.1,4.7,0.1,5.5
			c-0.1,2,0.1,5.3-0.8,7.2c0.2,1.8-0.7,2.6-2.6,2.3c-0.4-0.6-0.9-1.3-1.3-1.9c-1-1.5-1.9-3.1-2.8-4.7l-0.7-1.4
			c-2-2.4-1.5-4.6,1.5-6.4c0.6,0.5,1.1,4,1.3,4.7c0.9,4.2,2,10.6-1.1,14.3C66.6,98.6,67.5,99.5,68,98.8L68,98.8z"/>
		<path class="st0" d="M203.5,110.5c1.6-3.1,3.7-6,6.2-8.4c1.9-1.8,5.8-5.9,8.6-6c1.6,0,3.8,2.3,5.3,2.9c1.3,0.6,2.6,0.5,3.2,1.8
			c0.6,1.1-0.7,5.4-0.9,6.6c-2.2,14-7.4,27.2-14.1,39.6c-0.8,1.4,1.4,2.7,2.2,1.3c8.4-15.4,13.9-31.8,15.5-49.3c0-0.6-0.4-1-0.9-1.2
			c-3.3-0.5-6.3-2-8.6-4.3c-0.4-0.4-1-0.5-1.5-0.2c-7.3,3.3-13.3,8.9-17.1,16C200.5,110.7,202.7,111.9,203.5,110.5L203.5,110.5z"/>
		<path class="st0" d="M218.9,94.8c-1.5-3.8-1.4-8.1,0.3-11.9c1.7-3.6,5-6.3,8.9-7.3c2.3-0.6,4.7-0.5,7-1.1c4.2-1.4,7.4-4.9,8.2-9.2
			c2.2,5.9,2.8,12.3,1.7,18.4c-0.8,4.4-2.5,8.8-5.6,12s-7.7,4.8-11.8,3.5"/>
		<path class="st0" d="M219.5,94.7c-1.8-5.2-1.2-10.9,2.8-14.9c3.4-3.5,7.6-3.4,12.1-4.4c5-1.2,8.2-5,9.6-9.9h-1.2
			c2.4,6.5,2.8,13.6,1.3,20.3c-1.9,7.4-7.6,14.8-16.1,12.8c-0.8-0.2-1.1,1-0.3,1.2c7.2,1.7,13.3-2.9,16.1-9.3
			c3.6-8,3.1-17.3,0.2-25.4c-0.1-0.3-0.5-0.5-0.8-0.4c-0.2,0.1-0.3,0.2-0.4,0.4c-1.9,7.1-6.6,8.3-13.1,9.6c-2.9,0.4-5.6,1.7-7.7,3.6
			c-4.7,4.3-5.6,10.8-3.6,16.7C218.5,95.8,219.8,95.4,219.5,94.7z"/>
		<path class="st0" d="M197.3,122.5c3.6,8.6,14.8,10.4,23.1,9.9c0.8,0,0.8-1.3,0-1.2c-7.6,0.5-18.5-0.9-21.9-9
			C198.2,121.4,197,121.8,197.3,122.5L197.3,122.5z"/>
		<path class="st0" d="M199,118.8c2.7,8.9,14.1,11.5,22.3,10.1c0.8-0.1,0.5-1.3-0.3-1.2c-7.5,1.3-18.3-1.1-20.8-9.2
			c-0.1-0.3-0.4-0.5-0.8-0.4S198.9,118.5,199,118.8L199,118.8z"/>
		<path class="st0" d="M206.8,241.2c0.3,0,0.6-0.4,0.5-0.7c0-0.3-0.3-0.5-0.5-0.5c-0.3,0-0.6,0.4-0.5,0.7
			C206.3,241,206.5,241.2,206.8,241.2z"/>
		<path class="st0" d="M207,245.1c0.3,0,0.6-0.4,0.5-0.7c0-0.3-0.3-0.5-0.5-0.5c-0.3,0-0.6,0.4-0.5,0.7
			C206.5,244.8,206.7,245,207,245.1z"/>
		<path class="st0" d="M210.2,243.2c0.3,0,0.6-0.4,0.5-0.7c0-0.3-0.3-0.5-0.5-0.5c-0.3,0-0.6,0.4-0.5,0.7
			C209.7,243,209.9,243.2,210.2,243.2z"/>
		<path class="st0" d="M166.8,270.8c0.3,0,0.6-0.4,0.5-0.7c0-0.3-0.3-0.5-0.5-0.5c-0.3,0-0.6,0.4-0.5,0.7
			C166.3,270.5,166.6,270.7,166.8,270.8z"/>
		<path class="st0" d="M162.8,272.2c0.3,0,0.6-0.4,0.5-0.7c0-0.3-0.3-0.5-0.5-0.5c-0.3,0-0.6,0.4-0.5,0.7
			C162.3,272,162.6,272.2,162.8,272.2z"/>
		<path class="st0" d="M177.5,168.4c0.3,0,0.6-0.4,0.5-0.7c0-0.3-0.3-0.5-0.5-0.5c-0.3,0-0.6,0.4-0.5,0.7
			C177,168.2,177.2,168.4,177.5,168.4z"/>
		<path class="st0" d="M176.8,172.1c0.3,0,0.6-0.4,0.5-0.7c0-0.3-0.3-0.5-0.5-0.5c-0.3,0-0.6,0.4-0.5,0.7
			C176.3,171.8,176.6,172,176.8,172.1z"/>
		<path class="st0" d="M178.8,171.1c0.3,0,0.6-0.4,0.5-0.7c0-0.3-0.3-0.5-0.5-0.5c-0.3,0-0.6,0.4-0.5,0.7
			C178.3,170.8,178.6,171,178.8,171.1z"/>
		<path class="st0" d="M178.5,251.8l0.9,20.7c0,0.8,1.3,0.8,1.2,0l-0.9-20.7C179.7,251,178.4,251,178.5,251.8L178.5,251.8z"/>
		<path class="st0" d="M182.3,252.6l0.7,17.2c0,0.8,1.3,0.8,1.2,0l-0.7-17.2C183.5,251.8,182.2,251.8,182.3,252.6z"/>
		<path class="st0" d="M187.3,256.5l0.4,10.7c0,0.8,1.3,0.8,1.2,0l-0.4-10.7C188.6,255.7,187.3,255.7,187.3,256.5L187.3,256.5z"/>
		<path class="st0" d="M202.2,153v8.8c0,0.3,0.4,0.6,0.7,0.5c0.3,0,0.5-0.3,0.5-0.5V153c0-0.3-0.4-0.6-0.7-0.5
			C202.5,152.5,202.3,152.7,202.2,153z"/>
		<path class="st0" d="M205.8,151.3l0.1,17.3c0,0.3,0.4,0.6,0.7,0.5c0.3,0,0.5-0.3,0.5-0.5l-0.1-17.3c0-0.3-0.4-0.6-0.7-0.5
			C206.1,150.8,205.9,151,205.8,151.3z"/>
		<path class="st0" d="M209.6,149.2l0.1,24.3c0,0.3,0.4,0.6,0.7,0.5c0.3,0,0.5-0.3,0.5-0.5l-0.1-24.3c0-0.3-0.4-0.6-0.7-0.5
			C209.8,148.7,209.6,148.9,209.6,149.2z"/>
	</g>
</g>
</svg>
