<?xml version="1.0" encoding="utf-8"?>
<!-- Generator: Adobe Illustrator 22.1.0, SVG Export Plug-In . SVG Version: 6.00 Build 0)  -->
<svg version="1.1" id="Calque_1" xmlns="http://www.w3.org/2000/svg" xmlns:xlink="http://www.w3.org/1999/xlink" x="0px" y="0px"
	 viewBox="0 0 116.2 116.4" style="enable-background:new 0 0 116.2 116.4;" xml:space="preserve">
<style type="text/css">
	.st0{fill:#FFFFFF;}
</style>
<title>Fichier 1</title>
<g>
	<g>
		<path class="st0" d="M105.6,57c-0.3,20-12.8,38.3-31.9,44.9c-18.4,6.4-39.3,0.7-51.9-14.2C8.7,72.3,7,49.5,17.5,32.2
			C27.8,15.4,47.9,6.6,67.2,10.3C89.5,14.6,105.3,34.5,105.6,57c0,2.4,3.8,2.4,3.8,0C109.1,35.7,96,16.4,76,8.9
			C55.6,1.3,32,7.8,18.3,24.6c-13.5,16.6-15.2,40.7-4.1,59c11.1,18.3,33,27.8,53.9,23.6C92.1,102.5,109,81,109.4,57
			C109.4,54.5,105.7,54.5,105.6,57z"/>
	</g>
</g>
<g>
	<g>
		<path class="st0" d="M42.9,34.2c-0.7,16.3,0.2,32.6,2.7,48.8c0.2,1.6,2.7,0.9,2.4-0.7c-2.5-15.9-3.3-32-2.6-48.1
			C45.5,32.6,43,32.6,42.9,34.2L42.9,34.2z"/>
	</g>
</g>
<g>
	<g>
		<path class="st0" d="M48,83.7C61.2,76.4,72.6,66.5,84.3,57c1.3-1-0.5-2.8-1.8-1.8C71,64.6,59.7,74.4,46.7,81.6
			C45.3,82.3,46.6,84.5,48,83.7L48,83.7z"/>
	</g>
</g>
<g>
	<g>
		<path class="st0" d="M43.1,34.4c14.2,6.4,27.8,13.7,41,22.1c1.4,0.9,2.6-1.3,1.3-2.2c-13.1-8.3-26.8-15.7-41-22.1
			C42.9,31.6,41.6,33.8,43.1,34.4L43.1,34.4z"/>
	</g>
</g>
<g>
	<g>
		<path class="st0" d="M46.6,35.9c-1.1,1.2-2,2.4-2.8,3.8c-0.3,0.5,0.3,1.2,0.9,0.9c2.4-1.6,4.9-2.8,7.6-3.9
			c-0.2-0.4-0.3-0.8-0.5-1.1c-3.2,2.2-6.3,4.7-9.1,7.4c-0.4,0.4,0,1.3,0.6,1c4-1.6,8-3.1,12-4.7c-0.2-0.3-0.4-0.7-0.6-1
			c-3.2,3.6-8.3,5.5-10.5,9.9c-0.3,0.6,0.3,1.1,0.9,0.9c4-2.1,8.1-4.1,12.1-6.2c-0.3-0.3-0.5-0.7-0.8-1c-4.3,3.5-8.6,7-12.9,10.6
			c-0.6,0.5,0.2,1.3,0.8,1c5.5-3.3,11-6.6,16.7-9.7c-0.3-0.3-0.5-0.7-0.8-1c-5.4,4.8-10.8,9.7-16.3,14.5c0.3,0.3,0.6,0.6,0.9,0.9
			c5.6-5,12-8.9,18.7-12.4c-0.3-0.3-0.5-0.7-0.8-1c-5.9,5.4-11.7,11-17.3,16.8c-0.6,0.6,0.3,1.4,0.9,0.9c6.8-5.9,14-11.3,21.6-16.2
			c-0.3-0.3-0.5-0.7-0.8-1c-3.7,3.5-7.5,6.9-11.4,10.2c-3.5,2.9-8,5.3-10.9,9c-0.4,0.6,0.1,1.3,0.8,1c4.2-2,8.3-4.3,12-7.1
			c4.3-3.2,7.8-7.3,12.7-9.6c-0.3-0.3-0.5-0.7-0.8-1C61.1,54.3,53,61.2,45.1,68.3c-0.5,0.5,0.2,1.4,0.8,1c8.9-6.8,18.2-13,27.9-18.7
			c-0.2-0.4-0.4-0.7-0.6-1.1c-9.4,6.8-18.7,13.7-28.1,20.5c-0.6,0.5-0.1,1.5,0.6,1.1c10-6.5,20.2-12.6,30.6-18.3
			c-0.2-0.4-0.4-0.7-0.6-1.1c-10.2,7-20.4,13.9-30.1,21.5c-0.6,0.5-0.1,1.5,0.6,1.1c11.2-6.2,21.2-14,31.7-21.2
			c-0.3-0.3-0.6-0.6-0.9-0.9c-4.1,5.9-10.4,9.9-16.2,13.9c-5.3,3.7-10.6,7.2-16.1,10.7c0.2,0.4,0.4,0.7,0.6,1.1
			c11.3-7.5,22.7-15,34-22.5c-0.3-0.3-0.5-0.7-0.8-1c-9.6,9.8-22,16.3-31.9,25.8c-0.6,0.6,0.3,1.4,0.9,0.9
			c9.9-9.5,22.3-16,31.9-25.8c0.5-0.5-0.1-1.4-0.8-1c-11.3,7.5-22.7,15-34,22.5c-0.7,0.4-0.1,1.5,0.6,1.1
			c6.5-4.1,12.9-8.3,19.1-12.8c5-3.6,10.1-7.2,13.6-12.2c0.4-0.5-0.3-1.2-0.9-0.9c-10.5,7.2-20.5,15-31.7,21.2
			c0.2,0.4,0.4,0.7,0.6,1.1c9.8-7.5,19.9-14.5,30.1-21.5c0.7-0.4,0.1-1.5-0.6-1.1c-10.4,5.7-20.6,11.8-30.6,18.3
			c0.2,0.4,0.4,0.7,0.6,1.1c9.4-6.8,18.7-13.7,28.1-20.5c0.6-0.5,0.1-1.5-0.6-1.1c-9.7,5.6-19,11.9-27.9,18.7c0.3,0.3,0.5,0.7,0.8,1
			c7.9-7.1,16-14.1,24.2-20.8c0.6-0.5-0.2-1.3-0.8-1c-4,1.9-6.9,4.9-10.3,7.7c-4.4,3.7-9.2,6.7-14.4,9.1c0.3,0.3,0.5,0.7,0.8,1
			c2.7-3.5,7.4-6.1,10.9-9c3.9-3.2,7.7-6.6,11.4-10.2c0.5-0.5-0.2-1.4-0.8-1c-7.7,5-15,10.4-21.9,16.4c0.3,0.3,0.6,0.6,0.9,0.9
			c5.6-5.8,11.4-11.3,17.3-16.8c0.5-0.5-0.1-1.3-0.8-1c-6.7,3.6-13.2,7.5-18.9,12.6c-0.6,0.5,0.3,1.4,0.9,0.9
			c5.4-4.8,10.8-9.7,16.3-14.5c0.5-0.5-0.2-1.3-0.8-1c-5.6,3.1-11.2,6.3-16.7,9.7c0.3,0.3,0.5,0.7,0.8,1c4.3-3.5,8.6-7,12.9-10.6
			c0.6-0.5-0.2-1.3-0.8-1c-4,2.1-8.1,4.1-12.1,6.2c0.3,0.3,0.6,0.6,0.9,0.9c2.1-4.1,7.3-6.1,10.3-9.6c0.4-0.4,0-1.3-0.6-1
			c-4,1.6-8,3.1-12,4.7c0.2,0.3,0.4,0.7,0.6,1c2.8-2.6,5.7-5,8.9-7.2c0.5-0.4,0.2-1.4-0.5-1.1c-2.8,1.1-5.4,2.4-7.9,4
			c0.3,0.3,0.6,0.6,0.9,0.9c0.7-1.3,1.6-2.5,2.6-3.6C48,36.2,47.1,35.3,46.6,35.9L46.6,35.9z"/>
	</g>
</g>
</svg>
