<?xml version="1.0" encoding="utf-8"?>
<!-- Generator: Adobe Illustrator 22.1.0, SVG Export Plug-In . SVG Version: 6.00 Build 0)  -->
<svg version="1.1" id="Calque_1" xmlns="http://www.w3.org/2000/svg" xmlns:xlink="http://www.w3.org/1999/xlink" x="0px" y="0px"
	 viewBox="0 0 73.6 73.8" style="enable-background:new 0 0 73.6 73.8;" xml:space="preserve">
<style type="text/css">
	.st0{fill:#FFFFFF;}
</style>
<title>Fichier 1</title>
<g id="_x36_878f127-37b6-4daa-b156-373ed33dad23">
	<g id="d976cc9a-271b-4ed2-90c1-3a32d02b4537">
		<path class="st0" d="M35.6,9.7C30.4,18.6,24.5,28.4,25,39.1c0.3,8.6,4.3,19,10.4,25.2c0.3,0.2,0.8,0.1,1-0.3
			c0.1-0.2,0.1-0.5,0-0.7c-6.2-6.2-10.3-17.3-10.1-26.1c0.3-9.8,5.6-18.6,10.4-26.9c0.1-0.4-0.1-0.8-0.5-0.9
			C36.1,9.4,35.8,9.5,35.6,9.7L35.6,9.7z"/>
		<path class="st0" d="M36.9,10.4c4.8,8.2,10.1,17.1,10.4,26.9c0.2,8.7-3.8,19.8-10.1,26.1c-0.2,0.3-0.1,0.8,0.3,1
			c0.2,0.1,0.5,0.1,0.7,0c6.1-6.1,10.1-16.6,10.4-25.2C49,28.4,43.2,18.6,38,9.7c-0.3-0.3-0.7-0.3-1,0C36.8,9.9,36.8,10.2,36.9,10.4
			L36.9,10.4z"/>
		<path class="st0" d="M11.8,24.8c15.2,6.5,34.7,6.6,49.9,0.1c0.8-0.3,0.1-1.4-0.7-1.2c-14.7,6.3-33.9,6.2-48.5-0.1
			C11.6,23.3,11,24.4,11.8,24.8L11.8,24.8z"/>
		<path class="st0" d="M59.8,50.9c-14.6-6.4-33.5-6.5-48.1-0.1c-0.8,0.3-0.1,1.5,0.7,1.2c14.1-6.2,32.6-6.2,46.8,0.1
			C60,52.4,60.6,51.2,59.8,50.9L59.8,50.9z"/>
		<path class="st0" d="M64.3,36.9C64,51.9,52,64.5,36.7,64.5c-15,0-27.6-12.6-27.6-27.6C9.3,21.7,21.6,9.5,36.7,9.3
			C52,9.3,64,21.9,64.3,36.9c0.1,1.7,2.7,1.7,2.6,0c-0.3-12.5-7.7-23.8-19.5-28.2c-12.2-4.5-26-0.8-34.2,9.4
			c-17,21.3,2.1,53.3,28.9,48.5C56.6,64,66.6,51.4,66.9,36.9C67,35.2,64.4,35.2,64.3,36.9z"/>
	</g>
</g>
</svg>
