<?xml version="1.0" encoding="utf-8"?>
<!-- Generator: Adobe Illustrator 22.1.0, SVG Export Plug-In . SVG Version: 6.00 Build 0)  -->
<svg version="1.1" id="_x38_3143079-3845-491e-8f52-f03027bb8866"
	 xmlns="http://www.w3.org/2000/svg" xmlns:xlink="http://www.w3.org/1999/xlink" x="0px" y="0px" viewBox="0 0 470.4 627.7"
	 style="enable-background:new 0 0 470.4 627.7;" xml:space="preserve">
<style type="text/css">
	.st0{fill:#2C3880;}
	.st1{fill:#F08A64;}
	.st2{fill:#D83C49;}
	.st3{fill:#EFA68D;}
	.st4{fill:#D98470;}
	.st5{fill:#374092;}
	.st6{fill:none;}
	.st7{fill:#E8464D;}
	.st8{fill:#FFFFFF;}
	.st9{fill:#FFFFFF;stroke:#FFFFFF;stroke-width:0.5;stroke-miterlimit:10;}
	.st10{enable-background:new    ;}
</style>
<title>1-1</title>
<g>
	<path class="st0" d="M244.2,70.3c0,0,4.1,8.4,2.7,8.5s-6.7-1.7-6.7-1.7L244.2,70.3z"/>
	<path class="st1" d="M469.9,299.5v-0.4c0-0.3,0-0.7,0-1c-0.1-1.7-0.1-3.2-0.2-4.6c-1.4-21.8-7.7-43-18.2-61.5
		c-11.3-19.8-27-35.4-45.4-45.1c-9.2-4.8-19-8.1-28.8-10.7c0.6,6.1-8.9,6-9.6,0c-0.5-4-0.4-7.8,0.7-11.7c0.1-0.4,0.2-0.8,0.4-1.2
		c-4.5,3.5-8.7,7.4-13.1,11c-4.2,3.5-9.4-0.8-7.7-5.1c-1.5,0.7-3,1.3-4.6,1.9c-0.3,0.1-0.7,0.2-1,0.2c-0.8,1.2-1.6,2.4-2.5,3.4
		c-1.8,2-4.9,1.7-6.8,0c-1.6-1.4-2.9-3-4.2-4.6c-0.8,0.7-1.6,1.4-2.5,2.1c-2,1.5-4.8,2.1-6.8,0c-3.5-3.8-4.7-7.7-10-9.4
		c-4.4-1.4-9.3-2-13.9-1.5c-0.5,1.2-1.4,2.3-3,2.8c-5.4,1.7-9,4.8-12.3,9.4c-3,4.1-7.8,4.1-11.5,7.4c-3,2.6-8.3,1-8.2-3.4
		c0.1-3.8,0.7-7.3,1.3-10.9c-1.1,0.2-2.1,0.3-3.2,0.4c-1.1,0.1-2.2-0.3-3-1c-3.9-0.6-6.2,0-4-2.6l0.4-5.5c0-0.3,0-0.5,0-0.8l0.3-0.9
		c0.4,0,0.8,0,1.2-0.1c6.2-0.6,12.2-5.5,14.9-10.1c0.2-0.3,0.4-0.6,0.5-0.9c0.6,0.8,2.9-7.7,3.5-6.9c1.1-1.1,1,7.7,2.6,8
		c0-0.2-0.1-0.5-0.1-0.7c-0.2-8.5-3.3-18.4-8.9-25.1c-4.6-5.5-11.3-8.7-16.2-14c-2.9-3.2-0.8-7.9,3.4-8.2
		c14.6-1.1,29.2,4.4,42.2,10.3c0.9,0.4,1.8,0.8,2.7,1.2c-3-4.9-6.2-9.8-10.4-13.7c-12.7-12-32.8-15-49.4-14.1
		c-6.2,0.3-6.1-9.3,0-9.6c0.3,0,0.5,0,0.8,0c0.1-0.4,0.3-0.7,0.5-1.1c6.5-10.7,16.8-16.5,27.7-21.3c-2.9,0.6-5.8,1.3-8.6,2.2
		c-1.5,0.5-3.6,0-4.7-1.2c-0.3-0.5-0.8-0.9-1.3-1.3l0,0c-0.4,0.1-0.8,0.2-1.3,0.2c-4.7,0-5.8-5.6-3.3-8.2c-10.9-10.8-25-18-40-20.1
		c2.7-4.6,5.9-9.2,9.4-13.6l3.7-4.6h-5.9c-0.1,0-0.1,0-0.2,0c-15.3,0-30.1,4.4-42.9,12.8c-5.5-6.5-12.6-11-20.8-13L142,0.7l6.9,7.2
		c1.3,1.4,2.4,2.9,3.4,4.5C119,2.1,82,6.7,52.4,24.8l-8.9,5.5l36.1-0.5c-26.6,9.7-47.4,30-68,51.8l-6.8,7.2l9.6-2.4
		c14.7-3.7,30.2-4,45-1c-5.6,2.7-10.8,6-15.6,9.8l-8.1,6.4l10.2-1.3c15.3-1.9,30.7-1.6,45.8,1c-6,8.3-10.5,17.4-13.4,26.9
		c0,0.3,0,0.6-0.1,0.9c-0.1,0.5-0.2,1-0.2,1.4c0,0.1,0,0.3-0.1,0.4c-0.1,0.8-0.2,1.6-0.2,2.4c0,2.4-1.7,4.2-3.9,4.7
		c-0.2,1.7-0.5,3.4-0.8,5c1.4,0.9,2.5,2.4,2.3,4c-0.3,2.2-0.5,4.4-0.7,6.6c0.5,0.8,0.8,1.7,0.8,2.6c0,0.5,0,1,0,1.5
		c0.5,0.8,0.8,1.7,0.8,2.6c0,1.3,0.3,2,0.2,3.3l1.4,7.9l0.1,0.1c2.6,9.6,6.4,19.1,11.7,29c4.5,8.5,9.5,17.3,16.4,24.6
		c1.7,1.8,3.5,3.4,5.3,5c-14.8,3.2-27.6,7.3-39,12.4c-24.7,11.1-44,27.7-55.9,48.1c-8.2,14-13.2,26.2-15.3,37.3
		c-2.7,13.9-0.3,28.1,2.7,40.4c0.2,0,0.4,0,0.6,0c3.3,0,4.8,2.7,4.6,5.3h8.8c0.2,3.8,1.1,7.3,1.9,9.8c1.7,5.4,4.9,10.9,9,15.4
		c0.1,0.1,8.6,9.2,15.7,8.6c2.1-0.2,3.8-1.1,5-2.7c1.4,0.6,3.1,0.8,4.9,0.3c1-0.2,1.9-0.6,2.8-1.2l0.7,0.2c3.4,3.5,9.1,5.1,13.7,3.7
		c3.4-1,6.3-3.4,8.5-6.9c0.7,1.5,1.9,2.7,3.4,3.5c2.5,1.3,5.6,1.2,8.2-0.1c2.7-1.4,4.9-3.8,6.4-7.2c2.4-5.2,3.9-11.8,4-18.1
		c0-1.8,0-3.5-0.2-5.3h92.3c-5.9,2.7-11.5,5.4-16.9,8.3l-0.2,0.1c-1.7,0.9-3.4,1.8-5.1,2.8l-0.7,0.4c-1.6,0.9-3.1,1.8-4.7,2.7
		l-0.5,0.3c-0.2,0.1-0.4,0.2-0.6,0.3c-1.9,1.1-3.8,2.3-5.6,3.4c-18.7,11.7-35.6,25.4-50.3,40.9c-1.9,2-3.7,4.1-5.6,6.3l-0.8,0.9
		l-0.1,0.1c-1.3,1.6-2.7,3.2-3.9,4.8c-0.4,0.5-0.8,1-1.1,1.5l-0.1,0.1c-1.1,1.4-2.2,3-3.3,4.5l-0.4,0.6c-0.3,0.4-0.6,0.9-0.9,1.3
		s-0.5,0.8-0.8,1.2l-0.6,1c-0.3,0.4-0.5,0.8-0.8,1.2l-3.5,5.5h0.2l-0.1,0.2c-1,1.8-2.1,3.5-3.1,5.3l-1.6,2.8c-0.7,1.1-1.4,2.3-2,3.4
		l-1.1,1.7c-0.4,0.6-0.7,1.2-1.1,1.8l-1,1.6c-0.4,0.7-0.9,1.4-1.3,2.1l-0.8,1.2c-0.9,1.3-1.6,2.3-2.3,3.3
		c-7,9.7-12.1,18.7-16.2,28.4c-4,9.7-7.3,20.1-9.7,30.8c-3.9,17.3-7.6,39.7-2.2,59.8c0.1,0.2,6.5,21.4,15.9,23
		c0.4,0.1,0.7,0.1,1.1,0.1c2.1,0,4.7-0.9,7.1-4.6c2.5-3.8,3.3-8.6,4-12.8l0.2-0.9c0.8-4.6,1.2-9.3,1.6-12.8c0.3-2.9,0.4-5.9,0.6-8.8
		c8.5,7.1,18.9,4.1,28.1,1.5l0.5-0.1c0.4,0.9,1,1.7,1.7,2.4c2.1,2.1,5.2,2.6,7.7,3c0.4,0.1,0.7,0.1,1.1,0.2c8.4,1.5,14.3,0,17.4-4.5
		c1.5,2.1,3.4,3.5,5.7,4.1c4.9,1.2,10.7-0.3,15.4-1.4l1.1-0.3c6.4-1.6,11.2-4.2,14.6-8.1c3.3-3.7,5.4-8.2,7.3-12.5
		c0.4-0.9,0.8-1.7,1.2-2.6c0.5-1.1,1.2-2.3,1.8-3.6c4.3-8.4,10.8-21.1,0.8-29.2c2.7-3.7,5.5-7.4,7.7-11.6c0.6-1.1,1.2-2.3,1.8-3.4
		c0.2-0.3,0.3-0.6,0.5-0.9l0.2-0.4c0.4-0.7,0.7-1.3,1.1-2c0.3-0.5,0.6-1,1-1.6c0.3-0.5,0.6-1,0.9-1.5c0.4-0.6,0.8-1.2,1.2-1.8
		c0.2-0.4,0.5-0.7,0.7-1.1l0.1-0.1c0.4-0.7,0.9-1.3,1.4-2l0.6-0.8c2-2.8,4-5.2,6.1-7.6c1.2-1.4,2.3-2.5,3.4-3.6l0.2-0.2
		c0.1-0.1,0.2-0.2,0.3-0.3l0.4-0.4c1.7-1.6,3.4-3.2,5.3-4.8c0.6-0.5,1.2-1,1.8-1.5c0.7-0.5,1.4-1.1,2.1-1.7c0.4-0.3,0.7-0.5,1.1-0.8
		l0.9-0.7c0.4-0.3,0.9-0.6,1.3-1l0.7-0.5c0.7-0.5,1.4-1,2.1-1.4l1.2-0.8c0.9-0.6,1.9-1.2,2.8-1.8l0.1-0.1l-1.6-2.4l0,0l1.7,2.3
		l0.3-0.2c1.1-0.7,2.2-1.3,3.2-2l0.2-0.1c5.5-3.2,11.5-6.3,18.4-9.4l0.7-0.3c1.3-0.6,2.6-1.1,3.9-1.7l1.1-0.5c1.2-0.5,2.4-1,3.6-1.5
		l1.2-0.5c1.2-0.5,2.4-1,3.6-1.4l1.4-0.6c1.5-0.6,2.9-1.2,4.4-1.7c25.1-9.7,51.4-18.7,78-26.6c5.3-1.6,10.8-3.1,16.1-4.5
		c19.5-5.2,39.6-10.6,56.5-22.6c0.9-0.6,1.8-1.3,2.6-1.9c0.2-0.1,0.4-0.3,0.6-0.4l0.3-0.2c0.6-0.4,1.1-0.9,1.7-1.3
		c0.2-0.2,0.5-0.4,0.7-0.6l0.3-0.2c0.5-0.4,1-0.8,1.5-1.3c0.3-0.2,0.6-0.5,0.9-0.8l0.1-0.1c0.5-0.4,0.9-0.8,1.4-1.3
		c0.3-0.3,0.7-0.6,1-0.9c0.5-0.4,0.9-0.9,1.3-1.3c0.3-0.3,0.7-0.6,1-1c0.4-0.4,0.9-0.9,1.3-1.3c0.3-0.3,0.6-0.7,0.9-1
		c0.4-0.5,0.9-0.9,1.3-1.4l0.2-0.2c0.2-0.3,0.5-0.5,0.7-0.8c0.4-0.5,0.9-1,1.3-1.5l0.3-0.3c0.2-0.2,0.3-0.4,0.5-0.6
		c0.5-0.6,1-1.2,1.5-1.8l0.5-0.6c0.7-0.8,1.3-1.7,2-2.5l0.4-0.6c0.5-0.7,1-1.3,1.5-2c0.1-0.2,0.3-0.4,0.4-0.6l0.2-0.3
		c0.4-0.6,0.8-1.1,1.2-1.7c0.2-0.2,0.3-0.5,0.5-0.7l0.2-0.3c0.4-0.5,0.7-1.1,1.1-1.6c0.2-0.3,0.4-0.7,0.6-1l0.1-0.1
		c0.3-0.6,0.7-1.1,1-1.7c0.2-0.4,0.4-0.7,0.7-1.1l0.2-0.3c0.1-0.2,0.2-0.3,0.3-0.5c0.1-0.1,0.1-0.2,0.2-0.3l0.1-0.2
		c0.9-1.5,1.5-2.8,2.2-3.9l0.1-0.2c0.7-1.3,1.3-2.6,2-4.1l0.4-0.9c0.6-1.2,1.1-2.5,1.7-3.7l0.4-0.8c1.3-3,2.5-6.1,3.5-9.2l0.2-0.5
		c0.4-1.3,0.9-2.7,1.3-4.1l0.3-1.1c0.4-1.2,0.7-2.5,1-3.7l0.3-1c0.4-1.7,0.8-3.2,1.1-4.6c0.3-1.5,0.7-3.1,1-4.8l0.2-1
		c0.2-1.2,0.4-2.5,0.6-3.7c0.1-0.5,0.1-0.9,0.2-1.4c0.2-1.2,0.3-2.3,0.5-3.5v-0.4c0-0.3,0.1-0.6,0.1-0.9c0.2-1.6,0.3-3.1,0.4-4.5
		v-0.1c0.1-1.5,0.2-3,0.3-4.7c0-0.3,0-0.6,0-0.9v-0.4c0-1.1,0.1-2.3,0.1-3.4c0-0.5,0-1.1,0-1.6C469.9,301.7,469.9,300.6,469.9,299.5
		z"/>
	<path class="st1" d="M23.2,359.6L23.2,359.6L23.2,359.6z"/>
	<path class="st0" d="M243.1,85.7c-1.9-0.7-3.2-2.1-3.4-4.4c0-0.2,0-0.3,0-0.5c0-0.1,0-0.1,0-0.2c0-1.1,0.5-2.2,1.2-3.1
		c-0.8-1.3-1-3-0.1-4.7c4.2-8,10.5-13.3,17.6-17.7c-1.1-0.4-2-1.1-2.5-2.1c-1.2-2.6-2.6-5.2-4.3-7.5c-0.1-0.2-0.2-0.3-0.3-0.5
		c-11.2-12.6-26.7-21-43.1-23.4c2.7-4.6,5.9-9.2,9.4-13.6l3.7-4.6h-5.9c-0.1,0-0.1,0-0.2,0c-15.3,0-30.1,4.4-42.9,12.8
		c-5.5-6.5-12.6-11-20.8-13l-9.6-2.4l6.9,7.2c1.3,1.4,2.4,2.9,3.4,4.5C119,2.1,82,6.7,52.4,24.8l-8.9,5.5l36.1-0.5
		c-26.6,9.7-47.4,30-68,51.8l-6.8,7.2l9.6-2.4c14.7-3.7,30.2-4,45-1c-5.6,2.7-10.8,6-15.6,9.8l-8.1,6.4l10.2-1.3
		c15.3-1.9,30.7-1.6,45.8,1c-6.1,8.5-10.8,17.9-13.6,27.5c0,0.4-0.1,0.8-0.2,1.2c-1.1,3.3-1.8,6.7-2.7,10c0,0.1,0,0.1-0.1,0.2
		c-0.6,3.6-1.7,7-2.2,10.6c2.8,0.1,4,1.9,3.1,5.5c-1.1,4.2,0.2,10.5,1.7,14.5c0.3,0.9,0.5,3.2,1.2,4c0-0.1,1.1-5.5,1.1-5.6
		c0.1-0.5,0.3-0.9,0.6-1.3c1.5-4.6,8-3.7,9.1,0.2c6.1-1.4,12.1-3.4,17.8-4.9c14.6-3.8,29.3-7.2,43.8-11.4c15.1-4.5,30.1-9.5,44.8-15
		c11-4.1,24.4-7.3,33.8-14.9c-0.5-2.7,1-5.9,4.5-5.9c1,0,1.9,0.3,2.5,0.7c4.9-2.9,10.2-5.5,14-9.6c2.7-3,0.7-6-0.9-9.3
		C247.9,93.6,245.3,89.7,243.1,85.7z"/>
	<path class="st1" d="M204.7,494.9c-1.8-3.5-3.9-6.6-6.4-9.6c-1.2-1.4-1.7-3.3-1.1-5c-8.2-11-20.3-17.2-34.6-20
		c-9.4-1.8-19-3.1-28.5-3.7c-8.7-0.6-17.7-0.5-26,2.3c0,0.4,0,0.8-0.1,1.1c-0.3,1.2-1.2,2.2-2.2,2.9c-0.9,0.6-1.9,1.1-2.9,1.6
		c-0.4,0.2-0.8,0.3-1.2,0.4l-0.1,0.1c-0.5,0.5-1.1,0.8-1.7,1.1c-0.5,0.3-1.2,0.5-1.8,0.5c-0.7,0.5-1.6,0.8-2.7,0.8H84.6
		c0,0.1-0.1,0.2-0.1,0.3l-1.6,2.8c-0.7,1.1-1.4,2.3-2,3.4l-1.1,1.7c-0.4,0.6-0.7,1.2-1.1,1.8l-1,1.6c-0.4,0.7-0.9,1.4-1.3,2.1
		l-0.8,1.2c-0.9,1.3-1.6,2.3-2.3,3.3c-7,9.7-12.1,18.7-16.2,28.4c-4,9.7-7.3,20.1-9.7,30.8c-3.9,17.3-7.6,39.7-2.2,59.8
		c0.1,0.2,6.5,21.4,15.9,23c0.4,0.1,0.7,0.1,1.1,0.1c2.1,0,4.7-0.9,7.1-4.6c2.5-3.8,3.3-8.6,4-12.8l0.2-0.9
		c0.8-4.6,1.2-9.3,1.6-12.8c0.3-2.9,0.4-5.9,0.6-8.8c8.5,7.1,18.9,4.1,28.1,1.5l0.5-0.1c0.4,0.9,1,1.7,1.7,2.4
		c2.1,2.1,5.2,2.6,7.7,3c0.4,0.1,0.7,0.1,1.1,0.2c8.4,1.5,14.3,0,17.4-4.5c1.5,2.1,3.4,3.5,5.7,4.1c4.9,1.2,10.7-0.3,15.4-1.4
		l1.1-0.3c6.4-1.6,11.2-4.2,14.6-8.1c3.3-3.7,5.4-8.2,7.3-12.5c0.4-0.9,0.8-1.7,1.2-2.6c0.5-1.1,1.2-2.3,1.8-3.6
		c4.3-8.4,10.8-21.1,0.8-29.2c2.7-3.7,5.5-7.4,7.7-11.6c0.6-1.1,1.2-2.3,1.8-3.4c0.2-0.3,0.3-0.6,0.5-0.9l0.2-0.4
		c0.4-0.7,0.7-1.3,1.1-2c0.3-0.5,0.6-1,1-1.6c0.3-0.5,0.6-1,0.9-1.5c0.4-0.6,0.8-1.2,1.2-1.8c0.2-0.4,0.5-0.7,0.7-1.1l0.1-0.1
		c0.4-0.7,0.9-1.3,1.4-2l0.6-0.8c2-2.8,4-5.2,6.1-7.6c1.2-1.4,2.3-2.5,3.4-3.6l0.2-0.2c0.1-0.1,0.2-0.2,0.3-0.3l0.4-0.4l0.1-0.1
		C206.5,497,205.4,496.3,204.7,494.9z"/>
	<path class="st2" d="M34.3,380.9c-1.7-6.1-1.7-12.5-2.6-18.7c-0.3,0.3-0.6,0.5-0.9,0.8c-1.2,1-2.6,2-3.9,2.9l-0.4,0.3
		c0.4,0.7,0.5,1.6,0.5,2.4c0.8,1.3,0.8,2.9,0.4,4.3c0,0,0,0.1,0,0.2c0,0,0,0,0,0.2c0,0.3,0,0.6,0,1c0,1.1,0,2.2,0,3.3
		c0,2.1-1.3,3.7-3.1,4.4c2.9,5.9,6.4,12.1,11.9,15.8c0.7,0.5,1.7,1,2.9,1.6c0.2-0.9,0.3-1.9,0.4-2.8c-0.2-0.7-0.4-1.4-0.7-2.1
		C37.3,389.9,35.6,385.5,34.3,380.9z"/>
	<path class="st2" d="M93,380.4c-0.4-2.5-0.7-5-1.2-7.5c-1.9-0.7-3.4-2.1-4.7-3.7c-0.9,2.9-1.2,6.1-1.4,8.8
		c-0.4,5.6-0.5,11.2-1.5,16.7c-0.2,1.1-0.4,2.3-0.7,3.6c5.6-3.9,9.5-9.6,9.8-16.9C93.2,381.2,93.1,380.8,93,380.4z"/>
	<path class="st2" d="M295.5,100.6c-8-8.6-20.8-16.4-32.5-17.7c-0.6,1.7-2,3.1-4.4,3.1c-1.4,0-2.8,0-4.2-0.1
		c3.3,5.3,7.1,11.6,7.5,17.5c1.3-0.6,2.9-0.8,4.4,0c9.4,4.9,19.8,7,29,12.4c4.3,2.5,8.8,5,12.8,7.9
		C306.2,115.1,301,106.5,295.5,100.6z"/>
	<path class="st2" d="M273.3,139.7c0.7-1.4,1.3-2.8,1.8-4.2c0.1-0.2,0.2-0.4,0.3-0.6c-2.3-3.6-4.8-6.9-6.7-10.8
		c-2.3-4.6-4.2-9.5-8.1-13.1c-0.1-0.1-0.2-0.2-0.3-0.3c0,0,0,0,0,0.1c-4.8,7.9-14.6,11.3-21.9,16.5c-9.6,8.9-22.7,12.4-34.6,16.9
		c-15.8,6.1-31.9,11.5-48.1,16.4c-15.4,4.6-31.1,8.1-46.6,12.2c-6.6,1.8-13.7,4.1-20.7,5.4c0.2,0.3,0.4,0.6,0.6,1
		c3.5,8.1,8.3,15.4,13.8,22.3c2.7,3.4,0,7.9-3.1,8.4c2.6,4.9,6.6,9.2,10.9,11.2c0.4,0.2,0.7,0.4,0.9,0.6c0.6-0.3,1.3-0.5,2.1-0.5
		c1.2,0,2.2,0.4,2.9,1c0.1,0.1,0.3,0.2,0.4,0.3c0.6,0.3,1.2,0.7,1.6,1.2c0.4,0.3,0.8,0.6,1.2,0.9c0.4,0.4,0.8,0.8,1.3,1.1
		c0.1,0.1,0.3,0.2,0.4,0.4c0,0,0.1,0,0.3,0.2c0.9,0.6,1.6,1.5,2,2.4c0.3,0.3,0.6,0.6,0.8,1c0.3,0.3,0.6,0.7,0.8,1.1
		c4.4,8.4,18.3,8.9,26.5,9.5c4.6,0.3,9.2,0.4,13.8,0.8c7.2,0.5,14.5,1.7,21.5-0.5c0.1-1.3,0.8-2.6,2.5-3.3c2.9-1.3,6-2.7,9.2-3
		c0-1.8,0.4-3.4,1.7-4.7c3.6-3.6,9.6-3.3,14.5-4.6c8.3-5.4,15.3-12.6,20.6-21c3.4-5.4,6.2-11.1,8.1-17.2c2.5-8.1,2.6-16.5,3.1-24.8
		c0-0.4,0.1-0.7,0.2-1.1c-1.6-0.2-3.1-1.2-3.6-3.4c-0.3-1.6-0.9-2.7-1.7-4.1c-2.4-4.3,2.4-8.7,6.5-6.5c2.8,1.4,7.6,5.6,10.4,3.8
		c3.5-2.2,5.2-5.1,5.6-9C264.4,136.1,272,135.5,273.3,139.7z"/>
	<path class="st2" d="M469.9,299.5v-0.4c0-0.3,0-0.7,0-1c-0.1-1.7-0.1-3.2-0.2-4.6c-1.4-21.8-7.7-43-18.2-61.5
		c-11.3-19.8-27-35.4-45.4-45.1c-9.7-5.1-20.3-8.5-30.6-11.1c-0.7-0.1-1.3-0.1-2-0.1c-2.7-0.2-4.7-2.1-4.8-4.8c0-0.3,0-0.7,0.1-1
		c0-0.3,0.1-0.7,0.2-1.1c0.6-2.1,1-4,1-5.9c-3.6,0.9-7,2.2-10.1,4.2c-2.5,1.5-4.7,4-7.6,4.6c-2.5,0.6-4.7-0.3-6-2.1
		c-0.8,0.4-1.7,0.5-2.7,0.5c-1,0.4-2.1,0.5-3.2,0.3c-1.9-0.4-3.7-1-5.5-1.6c-0.7-0.1-1.5-0.3-2.2-0.4c-0.4-0.1-0.8-0.3-1.2-0.5
		c-0.1,0-0.3,0-0.4,0c-1.4-0.1-2.7-0.2-4.1-0.3c-0.3,0-0.6,0-0.9,0h-0.5c-0.9,0-1.8-0.1-2.7-0.1l0,0l0,0c-0.2,0-0.4,0.1-0.7,0.1
		c-2.4,1.4-6.2,0.9-7.4-2.5c-1.5-4.4-10.4-2.6-13.6-2.1c-4.6,0.8-9.4,1.8-13.6,4c0.1,2.2-1.3,4.4-3.5,5c-2.6,0.7-5,1.5-7.3,2.7
		c-0.5,0.3-1.1,0.4-1.7,0.5l0,0l-0.2,0.1c-1.9,0.8-3.8,1.7-5.6,2.6c-0.6,0.6-1.3,1-2.1,1.2c-0.6,0.2-1.3,0.5-1.9,0.7
		c-0.3,0.1-0.6,0.2-0.8,0.3c-0.2,0.1-0.4,0.1-0.5,0.2c0.1,0,0.1,0,0.1-0.1c-1.2,0.5-2.2,0.7-3.5,0.4c-1.2-0.3-2.2-1.2-2.9-2.2
		c-0.7-1-0.8-2.5-0.5-3.7c0.3-1,1.2-2.4,2.2-2.9c0.2-0.1,0.4-0.2,0.6-0.3c-0.2-0.7-0.2-1.4,0.1-2.3c0.3-1.3,0.6-2.7,0.7-4
		c-0.7,0.4-1.5,0.6-2.4,0.6c-1,0-1.8-0.3-2.5-0.7c-0.4,8.1-0.9,16.3-3.3,24.1c-2.1,6.9-5.2,13.5-9,19.5c-5,7.9-11.4,15.1-18.8,20.8
		c-0.3,1-1,1.8-2.2,2.5c-1.9,1-3.8,1.9-5.7,2.8c-2,1.2-4.1,2.2-6.3,3.2c-0.5,0.2-1,0.4-1.5,0.4c0.8,2.9,1.7,5.5,1.9,8.6
		c0.4,4.9-6.6,6.3-8.9,2.4c-0.8-1.3-1.5-4.5-2.7-5.3c-1.2-0.9-3.9,0.7-5.4,1.3c-0.1,0.1-0.3,0.1-0.4,0.2c-0.3,1.5-1.3,3-3.1,3.7
		c-8.3,3.2-17,1.8-25.6,1.3c-5.6-0.4-11.2-0.5-16.8-1c-10.9-1-24.9-3.3-30.6-14c-2.2-1.3-4.7-2.8-6.1-5
		c-14.7,3.2-27.5,7.2-38.9,12.4c-24.7,11.1-44,27.7-55.9,48.1c-8.2,14-13.2,26.2-15.3,37.3c-2.8,14.6,0,29.6,3.1,42.4l1,3.3h12.4
		c0.1-1.1,0.2-2.1,0.5-3.2c-0.1-0.3-0.2-0.6-0.3-0.9c-0.4-0.4-0.8-1-1-1.6c-1.8-4.5,1-7.5,4.4-9.9c2.1-1.5,4.2-3,5.8-5.1
		c1.4-2,2.6-3.6,4.6-5c2.8-1.9,5.9,0.3,7,2.9c0.6,1.4,1,2.8,1.4,4.2c2.9-3.3,6.6-5.9,10.8-6.7c2.5-0.5,4.5,0.8,5.4,2.7
		c1.1-3.9,2.8-7.3,7.7-8.7c7.1-2,12,2,15.8,7.1c0.8-0.8,1.9-1.3,3.3-1.3c1.9,0,3.2,0.9,4,2.2c1.5-0.5,3.1-0.6,5.1,0.1
		c2.9,1.1,5.1,3.6,6.8,6.1c0.3,0.4,0.6,0.9,0.9,1.4c1.7,0.3,3.4,0.2,5.2,0.7c1.9,0.5,2.9,1.8,3.2,3.3c0.9,6.5,1.3,6.7,0.7,8.7
		c-0.4,1.3-2.1-0.3-3.9-0.3c-1.4,0-2.6-0.5-3.3-1.3c-0.1,0.6-0.2,1.2-0.5,1.7c0.2,1,0.3,1.9,0.4,2.9c0.2,0,0.4,0.1,0.6,0.2h91.9
		c-5.9,2.7-11.5,5.4-16.9,8.3l-0.2,0.1c-1.7,0.9-3.4,1.8-5.1,2.8l-0.7,0.4c-1.6,0.9-3.1,1.8-4.7,2.7l-0.5,0.3
		c-0.2,0.1-0.4,0.2-0.6,0.3c-1.9,1.1-3.8,2.3-5.6,3.4c-18.7,11.7-35.6,25.4-50.3,40.9c-1.9,2-3.7,4.1-5.6,6.3l-0.8,0.9l-0.1,0.1
		c-1.3,1.6-2.7,3.2-3.9,4.8c-0.4,0.5-0.8,1-1.1,1.5l-0.1,0.1c-1.1,1.4-2.2,3-3.3,4.5l-0.4,0.6c-0.3,0.4-0.6,0.9-0.9,1.3
		s-0.5,0.8-0.8,1.2l-0.6,1c-0.3,0.4-0.5,0.8-0.8,1.2l-0.7,1.1h4.8c0.1,0,0.1-0.1,0.2-0.1c0.5-0.4,1.1-0.6,1.7-0.7
		c0.3-0.3,0.6-0.6,1-0.8c0.7-0.4,1.4-0.7,2.1-1.1c0.1-1.9,1-3.7,3.2-4.6c10.1-4.1,21.5-4.2,32.3-3.4c10.3,0.8,20.8,2.1,30.9,4.2
		c19.7,4.1,36.5,15,44.6,33.9c0.1,0.2,0.1,0.4,0.2,0.6c0.6-0.1,1.3,0,1.8,0.1c1.1,0.3,2.3,1.2,2.9,2.2c0.2,0.4,0.5,0.8,0.7,1.2l0,0
		c0.4-0.3,0.7-0.5,1.1-0.8l0.9-0.7c0.4-0.3,0.9-0.6,1.3-1l0.7-0.5c0.7-0.5,1.4-1,2.1-1.4l1.2-0.8c0.9-0.6,1.9-1.2,2.8-1.8l0.1-0.1
		l-1.6-2.4l0,0l1.7,2.3l0.3-0.2c1.1-0.7,2.2-1.3,3.2-2l0.2-0.1c5.5-3.2,11.5-6.3,18.4-9.4l0.7-0.3c1.3-0.6,2.6-1.1,3.9-1.7l1.1-0.5
		c1.2-0.5,2.4-1,3.6-1.5l1.2-0.5c1.2-0.5,2.4-1,3.6-1.4l1.4-0.6c1.5-0.6,2.9-1.2,4.4-1.7c25.1-9.7,51.4-18.7,78-26.6
		c5.3-1.6,10.8-3.1,16.1-4.5c19.5-5.2,39.6-10.6,56.5-22.6c0.9-0.6,1.8-1.3,2.6-1.9c0.2-0.1,0.4-0.3,0.6-0.4l0.3-0.2
		c0.6-0.4,1.1-0.9,1.7-1.3c0.2-0.2,0.5-0.4,0.7-0.6l0.3-0.2c0.5-0.4,1-0.8,1.5-1.3c0.3-0.2,0.6-0.5,0.9-0.8l0.1-0.1
		c0.5-0.4,0.9-0.8,1.4-1.3c0.3-0.3,0.7-0.6,1-0.9c0.5-0.4,0.9-0.9,1.3-1.3c0.3-0.3,0.7-0.6,1-1c0.4-0.4,0.9-0.9,1.3-1.3
		c0.3-0.3,0.6-0.7,0.9-1c0.4-0.5,0.9-0.9,1.3-1.4l0.2-0.2c0.2-0.3,0.5-0.5,0.7-0.8c0.4-0.5,0.9-1,1.3-1.5l0.3-0.3
		c0.2-0.2,0.3-0.4,0.5-0.6c0.5-0.6,1-1.2,1.5-1.8l0.5-0.6c0.7-0.8,1.3-1.7,2-2.5l0.4-0.6c0.5-0.7,1-1.3,1.5-2
		c0.1-0.2,0.3-0.4,0.4-0.6l0.2-0.3c0.4-0.6,0.8-1.1,1.2-1.7c0.2-0.2,0.3-0.5,0.5-0.7l0.2-0.3c0.4-0.5,0.7-1.1,1.1-1.6
		c0.2-0.3,0.4-0.7,0.6-1l0.1-0.1c0.3-0.6,0.7-1.1,1-1.7c0.2-0.4,0.4-0.7,0.7-1.1l0.2-0.3c0.1-0.2,0.2-0.3,0.3-0.5
		c0.1-0.1,0.1-0.2,0.2-0.3l0.1-0.2c0.9-1.5,1.5-2.8,2.2-3.9l0.1-0.2c0.7-1.3,1.3-2.6,2-4.1l0.4-0.9c0.6-1.2,1.1-2.5,1.7-3.7l0.4-0.8
		c1.3-3,2.5-6.1,3.5-9.2l0.2-0.5c0.4-1.3,0.9-2.7,1.3-4.1l0.3-1.1c0.4-1.2,0.7-2.5,1-3.7l0.3-1c0.4-1.7,0.8-3.2,1.1-4.6
		c0.3-1.5,0.7-3.1,1-4.8l0.2-1c0.2-1.2,0.4-2.5,0.6-3.7c0.1-0.5,0.1-0.9,0.2-1.4c0.2-1.2,0.3-2.3,0.5-3.5v-0.4
		c0-0.3,0.1-0.6,0.1-0.9c0.2-1.6,0.3-3.1,0.4-4.5v-0.1c0.1-1.5,0.2-3,0.3-4.7c0-0.3,0-0.6,0-0.9v-0.4c0-1.1,0.1-2.3,0.1-3.4
		c0-0.5,0-1.1,0-1.6C469.9,301.7,469.9,300.6,469.9,299.5z"/>
	<path class="st2" d="M44.8,365.3c-2,4.1-1.4,7.5-0.1,11.7c1.5,4.7,3.2,9.5,4,14.4c0.2,1.3,0.3,2.6,0.3,3.9c0,0.1,0,0.1,0.1,0.2
		c0.4-1.1,0.7-2.1,1-2.9c1.5-4.3,1.9-8.7,2.3-13.2c0.3-4.3,0.4-8.9,0.9-13.3c-1.6-2.1-3-4.2-4.3-6.4
		C47.2,361.3,45.8,363.2,44.8,365.3z"/>
	<path class="st1" d="M23.2,359.6L23.2,359.6L23.2,359.6z"/>
	<g>
		<path class="st3" d="M50.4,355.4c-2.9-0.5-5.5,1.5-7.3,3.5c-3.3,3.7-4.4,8.5-4.9,13.4c-0.3,7.5,2.8,13.5,5.6,20.3
			c1.6,3.8,4.4,11.4,9.9,10.1c5.1-1.2,6.2-8.1,6.5-12.4c0.7-9.6-0.6-19.3-4.1-28.3C55,359.1,53.7,355.9,50.4,355.4z"/>
		<path class="st3" d="M47.3,403.1c-2.2-1.9-3.9-4.8-5.2-7.6c-3.3-7.6-7-14.7-6.7-23.2c0.3-2.9,1.2-6.8,2.7-10.3
			c-0.1-0.1-0.2-0.2-0.2-0.3c-3.2-6.9-14.4-0.6-16.2,4.3c-1.9,5.1-0.8,11.8,0.8,16.9c1.6,5.2,4.7,10.3,8.4,14.3
			C33.6,400.3,43.6,408.6,47.3,403.1z"/>
		<path class="st3" d="M82.1,398.3c0.6,4.1,4.9,5.5,8.3,3.7c2.4-1.2,4-3.5,5.1-5.8c2.4-5.1,3.6-11.4,3.7-17s-1-11.3-3.3-16.5
			c-1-2.3-2.2-4.9-3.9-6.7c-3.1-3.3-9.3-1.7-11.2,2.3c0,0,0,0.1-0.1,0.1c2.4,4.6,3.2,10.2,3.6,15.2c0.6,7.7,0.6,16.6-2.6,24
			C81.9,397.8,82,398,82.1,398.3z"/>
		<path class="st3" d="M64.8,352.4c-3.7,1-5.5,4.3-6.4,7.7c0,0.1-0.1,0.2-0.1,0.3c2.1,5.1,3.4,10.4,4.1,15.9
			c1,7.4,2.2,19.3-3.3,25.5c0.2,0.1,0.4,0.2,0.6,0.4c2.6,2.9,7.3,4.3,11,3.2c3.8-1.1,6.4-4.4,8.1-7.9c3.1-6.6,3.4-14.2,3-21.3
			c-0.3-7.1-1-15.6-6.6-20.8C72.4,352.8,68.6,351.3,64.8,352.4z"/>
		<path class="st3" d="M92.2,199.5c4.5,8.4,9.3,17,16,24c2.2,2.3,4.6,4.5,7.1,6.5c0.7,0,1.1,0.4,1.3,1c24.2,18.1,58.8,19.1,85.9,6.8
			c13.4-6.1,25.3-15.5,33.4-28c4.8-7.4,7.3-15.4,9.3-23.9c2.3-9.5,4.7-19,4.1-28.8c0-0.2,0-0.4,0.1-0.6c-2-0.5-4-1.5-5.6-3.2
			c-1.5-1.7,0.9-4.2,2.5-2.5c5.9,6.4,16.2-0.3,19.8-6.1c4.9-8.2,1.7-18-1.8-26.1c-3.7-8.4-10.1-15.1-19.9-14.9
			c-4.6,0.1-9.5,2.3-10.3,7.2c-0.6,3.8,1.2,7.7,3.5,10.6c1.4,1.8-1.1,4.3-2.5,2.5c-2-2.6-3.6-5.7-4.3-8.9
			c-11.6,5.4-25.5,5.5-36.6-1.3c-6.8-4.1-11.9-10.4-14.7-17.7c-0.5,2.1-1.1,4.1-1.7,6.2c-1.8,5.6-3.8,11.3-6.6,16.5
			c-5.6,10.5-14.7,16.4-25.5,20.8c-5.9,2.4-11.8,4.6-18.2,5c-7.2,0.5-14.3-0.5-21.4,0.8c-12.7,2.3-25.1,11.1-25.5,25.1
			c0.1,0.2,0,0.3,0.1,0.6C83.3,180.9,87.3,190.4,92.2,199.5z"/>
		<path class="st4" d="M258.8,180.8c-2-3.6-4.1-7.1-6.2-10.7c-0.2,0.1-0.3,0.2-0.5,0.3c-1,6.8-2.8,13.5-4.4,20
			c-2.5,9.6-6.3,18.3-12.4,26.2c-0.9,1.2-1.8,2.3-2.8,3.4c-0.3,0.4-0.7,0.8-1.1,1.2c-0.6,0.7-1.2,1.4-1.9,2
			c-0.5,0.5-0.9,0.9-1.4,1.4s-1.1,1-1.6,1.5c-0.6,0.5-1.1,1.1-1.7,1.6c-0.3,0.3-0.6,0.5-0.9,0.7c-2.6,2.2-5.4,4.3-8.3,6.2
			c-0.1,0.1-0.2,0.1-0.3,0.2c-1,0.7-2.1,1.3-3.2,1.9c-2.3,1.3-4.6,2.6-7.1,3.8c1.5,2.6,3.1,5.2,4.8,7.7c13-3.8,25.1-11.9,33.2-22.8
			c5.1-6.9,10.2-15,13-23.1c2.2-6.4,2.9-13.3,3.6-20.1C259.4,181.8,259.1,181.3,258.8,180.8z"/>
		<path class="st3" d="M50.4,355.4c-2.9-0.5-5.5,1.5-7.3,3.5c-3.3,3.7-4.4,8.5-4.9,13.4c-0.3,7.5,2.8,13.5,5.6,20.3
			c1.6,3.8,4.4,11.4,9.9,10.1c5.1-1.2,6.2-8.1,6.5-12.4c0.7-9.6-0.6-19.3-4.1-28.3C55,359.1,53.7,355.9,50.4,355.4z"/>
		<path class="st3" d="M47.3,403.1c-2.2-1.9-3.9-4.8-5.2-7.6c-3.3-7.6-7-14.7-6.7-23.2c0.3-2.9,1.2-6.8,2.7-10.3
			c-0.1-0.1-0.2-0.2-0.2-0.3c-3.2-6.9-14.4-0.6-16.2,4.3c-1.9,5.1-0.8,11.8,0.8,16.9c1.6,5.2,4.7,10.3,8.4,14.3
			C33.6,400.3,43.6,408.6,47.3,403.1z"/>
		<path class="st3" d="M82.1,398.3c0.6,4.1,4.9,5.5,8.3,3.7c2.4-1.2,4-3.5,5.1-5.8c2.4-5.1,3.6-11.4,3.7-17s-1-11.3-3.3-16.5
			c-1-2.3-2.2-4.9-3.9-6.7c-3.1-3.3-9.3-1.7-11.2,2.3c0,0,0,0.1-0.1,0.1c2.4,4.6,3.2,10.2,3.6,15.2c0.6,7.7,0.6,16.6-2.6,24
			C81.9,397.8,82,398,82.1,398.3z"/>
		<path class="st3" d="M64.8,352.4c-3.7,1-5.5,4.3-6.4,7.7c0,0.1-0.1,0.2-0.1,0.3c2.1,5.1,3.4,10.4,4.1,15.9
			c1,7.4,2.2,19.3-3.3,25.5c0.2,0.1,0.4,0.2,0.6,0.4c2.6,2.9,7.3,4.3,11,3.2c3.8-1.1,6.4-4.4,8.1-7.9c3.1-6.6,3.4-14.2,3-21.3
			c-0.3-7.1-1-15.6-6.6-20.8C72.4,352.8,68.6,351.3,64.8,352.4z"/>
		<path class="st3" d="M264.2,118.5c-3.7-8.4-10.1-15.1-19.9-14.9c-4.6,0.1-9.5,2.3-10.3,7.2c-0.6,3.8,1.2,7.7,3.5,10.6
			c1.4,1.8-1.1,4.3-2.5,2.5c-2-2.6-3.6-5.7-4.3-8.9c-11.6,5.4-25.5,5.5-36.6-1.3c-6.8-4.1-11.9-10.4-14.7-17.7
			c-0.5,2.1-1.1,4.1-1.7,6.2c-1.8,5.6-3.8,11.3-6.6,16.5c-5.6,10.5-14.7,16.4-25.5,20.8c-5.9,2.4-11.8,4.6-18.2,5
			c-7.2,0.5-14.3-0.5-21.4,0.8c-12.7,2.3-25.2,10.6-25.6,24.6c0.1,0.2,0.1,0.8,0.2,1.1c2.7,10,6.7,19.5,11.5,28.6
			c4.5,8.4,9.3,17,16,24c2.2,2.3,4.6,4.5,7.1,6.5c0.7,0,1.1,0.4,1.3,1c20.9,15.6,49.6,18.5,74.5,11.1c0.3-0.9,0.8-1.7,1.4-2.4
			c-2.4-2.2-3.1-5.8,0.1-8.4c7.6-6.1,14-13.4,21.9-19.1c2.2-1.6,4.2-1.5,5.8-0.5c0.8-1,1.6-1.9,2.4-2.7c3.2-3.4,6.5-6.7,8-11.3
			c1.3-3.9,1.7-8.1,2.3-12.2c1.3-8.1,4.9-28.1,16.4-26.9c0-0.5,0-1-0.1-1.5c0-0.2,0-0.4,0.1-0.6c-2-0.5-4-1.5-5.6-3.2
			c-1.5-1.7,0.9-4.2,2.5-2.5c5.9,6.4,16.2-0.3,19.8-6.1C271,136.4,267.8,126.5,264.2,118.5z"/>
		<path class="st3" d="M85.3,471.9c-3.1,5.2-6.2,10.4-9.8,15.3C69.1,496,63.8,505,59.7,515c-4.1,9.8-7.2,20-9.5,30.4
			C46,564,42.9,585,47.9,603.8c1.6,5.9,11.2,29.5,19,17.6c2.3-3.5,3-8.5,3.7-12.6c0.7-4.2,1.2-8.4,1.5-12.6
			c1.4-16.6,0.8-34.1,5.6-50.2c0.5-1.6,3-0.9,2.6,0.7c-1.1,3.8-1.9,7.7-2.5,11.6c-1.2,8.4-1.7,17-2.2,25.5c7.8,8.3,18,5.2,27.7,2.4
			c0.1,0,0.1,0,0.2,0c-0.4-1.8-0.5-3.6-0.7-5.3c-0.4-4.1-0.6-8.2-0.4-12.3c0.3-7.7,1.5-15.2,3.6-22.6c0.5-1.6,3-0.9,2.6,0.7
			c-3.1,10.9-4.2,22.2-3.2,33.5c0.3,2.6,0.3,7.1,2.4,9.2c1.7,1.7,4.9,1.9,7.2,2.4c5.9,1.1,12.9,1.1,15.5-5.1
			c-1.4-3.6-1.9-7.9-2.4-11.4c-1.5-11.3-0.8-22.8,1.7-34c0.4-1.7,2.9-1,2.6,0.7c-2.7,11.6-3.2,23.7-1.3,35.5
			c0.4,2.2,0.7,5.1,1.6,7.7c0.5,0.2,0.9,0.8,0.7,1.5v0.1c1,2.2,2.5,4,5,4.6c4.5,1.1,10.6-0.6,15.1-1.7c5-1.2,9.7-3.3,13.1-7.2
			c3.6-4.1,5.8-9.5,8.1-14.4c4.1-8.6,12.9-21.7,3.4-29.4c-7.3,10.3-12.5,21.8-15.7,34c-0.4,1.7-3,0.9-2.6-0.7
			c1.5-5.8,3.5-11.4,5.8-16.9c2.5-5.8,5.5-11.4,9.2-16.6c0.5-0.8,1.1-1.5,1.6-2.3c0.1-0.3,0.3-0.5,0.5-0.7c2.9-3.9,5.8-7.8,8.1-12.1
			c5.3-10.1,11.3-19.4,19.4-27.5c0.2-0.2,0.3-0.3,0.5-0.4C170.3,473.1,126.6,465.1,85.3,471.9z"/>
		<g>
			<path class="st5" d="M113,78.7c13.4-10.1,28.7-17.6,45.6-19c17.3-1.4,35.5,2.4,51.4,9.1c7.4,3.1,14.3,7.3,20.1,12.7
				c0-1.1-3-4.1-3.4-4.4c-1-0.7-0.7-2.5,0.7-2.5c5.8,0,11.6,0.6,17.3,1.7c-2.9-7.3-7.1-14-12.6-19.7c-0.8-0.8-0.2-2.3,0.9-2.3
				c7.7,0.1,15.4,0.8,23.1,2c-10.8-17.8-29.7-30-50.5-32.3c-1-0.1-1.7-1-1.1-2c3.2-5.6,6.8-10.9,10.8-16c-15.3,0-30.1,4.5-42.8,13.1
				c-0.4,0.3-1.3,0.2-1.6-0.2c-5.2-6.6-12.2-11.2-20.2-13.2c2.4,2.5,4.3,5.4,5.6,8.7c0.4,0.9-0.7,1.9-1.6,1.6
				C121.4,4.7,83.9,8.9,53.9,27.3c12.2-0.2,24.4-0.3,36.5-0.5c1.5,0,1.8,2.3,0.4,2.6c-31.6,7.7-55.4,31.2-77.2,54.2
				c16.7-4.2,34.2-4.2,50.9,0.1c1,0.3,1.4,2,0.3,2.4c-7,2.9-13.4,6.8-19.3,11.4c15.7-2,31.5-1.6,47.2,1.1
				C98.5,91.1,105.5,84.4,113,78.7z"/>
			<path class="st5" d="M94.1,145.3c5.1-2.5,10.6-3.7,16.3-4.2c7.1-0.6,14.3,0.6,21.4-0.8c6.3-1.2,12.6-3.9,18.4-6.7
				c5.9-2.9,11.2-6.6,15.1-12c3.4-4.9,5.7-10.4,7.7-16c2.4-6.7,5.1-13.9,3.6-21.1c-0.3-1.3,0.8-2.2,1.8-2.2c1-0.3,2.4,0.2,2.4,1.6
				c0.2,10.8,6.1,21,15.3,26.7c10.5,6.4,23.8,6.1,34.6,0.5c0.2-3.1,1.5-6,4.5-8.2c1.3-1,2.8-1.7,4.4-2.2
				c-6.6-16.9-23-26.6-39.5-31.9c-15.6-5.1-32.7-7.7-49-4.5c-15.2,3-29.4,11.4-41,21.4C88,104.6,74.1,133,78.5,162
				C81.2,154.7,86.9,148.8,94.1,145.3z"/>
		</g>
		<path class="st1" d="M261.5,132.5c-2.3-2.5-4.7-5-7-7.6c0.5-2.2,1.1-4.3,1.6-6.5c0.7-2.9-3.8-4.2-4.5-1.2
			c-0.3,1.2-0.6,2.4-0.9,3.6c-1.3-1.3-2.5-2.7-3.8-4c-2.1-2.2-5.4,1.1-3.3,3.3c1.9,2,3.8,4.1,5.7,6.1c-0.8,3-1.5,6.1-2.3,9.1
			c-0.7,2.9,3.8,4.2,4.5,1.2c0.5-2.1,1.1-4.2,1.6-6.3c1.7,1.8,3.4,3.6,5.1,5.5C260.3,138,263.6,134.7,261.5,132.5z"/>
		<path class="st3" d="M107.1,371.1c-0.4-0.2-0.6-0.5-0.6-1.1c0-1.9-0.1-4.1-1.5-5.6c-1.5-1.6-3.9-1.4-5.1,0.4
			c-0.1,0.1-0.2,0.2-0.3,0.3c0.7,1.9,1.2,3.9,1.5,6L107.1,371.1L107.1,371.1z"/>
		<path class="st6" d="M119.3,342.4c-4.1,8.2-7.5,16.6-10.3,25.3c-0.3-2.6-1.2-5.1-3.6-6.4s-5-0.7-6.8,1c-0.9-2.2-2-4.2-3.2-6.2
			c-2.1-3.2-4.7-5.3-8.7-4.7c-2.9,0.4-5.8,1.8-7.5,4.3c-1.6-2.2-3.6-4-6.3-5.2c-7-3.2-13.4,0.2-16.2,6.5c-1.3-2.2-3.1-4-5.8-4.4
			c-5.2-0.9-8.9,2.2-11.4,6.5c-3.5-4.9-12.2-2.8-16.3,0.4c-3.5,2.8-4.9,7-5.1,11.5h92.7c2.8-9.4,6.4-18.5,10.8-27.3
			C122.4,342.2,120.1,340.9,119.3,342.4z"/>
		<path class="st6" d="M299.4,340.2c5.3-1.7,10.4-4.1,15.7-5.8c5.1-1.7,10-5.1,14.5-8c4.3-2.9,8.5-6.1,12.3-9.7
			c15.8-14.9,23.9-37.7,21.1-59.3c-0.2-1.7-2.9-1.7-2.7,0c2.8,21.7-5.4,44-21.6,58.6c-4.1,3.7-8.5,6.9-13.1,9.8
			c-2.3,1.5-4.7,2.8-7.1,4.1c-2.6,1.4-5.3,2.1-8.1,3.1c-2.4,0.9-4.6,2.2-7,3.1c-2.6,1-5.3,1.7-8,2.6c-5.7,1.8-11.3,3.6-17,5.3
			c-26,8.1-52.2,16.3-77.2,27.1h6.7c24.2-10,49.5-17.8,74.5-25.6C288.1,343.7,293.8,342,299.4,340.2z"/>
		<path class="st7" d="M214.9,487.1c4.5-3.5,9.3-6.7,14.3-9.6H199C204.5,480.4,209.8,483.6,214.9,487.1z"/>
		<path class="st3" d="M209.2,250.7L209.2,250.7L209.2,250.7z"/>
		<path class="st3" d="M269.1,194.9L269.1,194.9L269.1,194.9z"/>
		<path class="st3" d="M208.3,250.6C208.3,250.5,208.3,250.5,208.3,250.6C208.3,250.5,208.3,250.5,208.3,250.6z"/>
		<path class="st3" d="M209.7,250.6L209.7,250.6L209.7,250.6z"/>
		<path class="st3" d="M269.2,194.2C269.2,194.1,269.2,194.1,269.2,194.2C269.2,194.1,269.2,194.1,269.2,194.2z"/>
		<path class="st3" d="M210.1,250.3L210.1,250.3L210.1,250.3z"/>
		<path class="st3" d="M208.7,250.7L208.7,250.7L208.7,250.7z"/>
		<path class="st3" d="M269.2,194.5L269.2,194.5L269.2,194.5z"/>
		<path class="st3" d="M213.7,249.2c12.4-2.2,24.3-9.9,34-17.7c10.3-8.2,18.3-19.2,21.5-32.1c0.4-1.6,0.2-3.1-0.4-4.3
			c-0.6,0.6-1.6,0.8-2.1-0.2s-1.1-2-1.7-3l0,0c-2.1-3.8-4.1-7.5-6.3-11.2c-2.1-3.8-4.3-7.5-6.5-11.2c-1,7.1-2.8,14.1-4.6,20.9
			c-2.5,9.6-6.3,18.3-12.4,26.2c-0.9,1.2-1.8,2.3-2.8,3.4c-0.3,0.4-0.7,0.8-1.1,1.2c-0.6,0.7-1.2,1.4-1.9,2
			c-0.5,0.5-0.9,0.9-1.4,1.4s-1.1,1-1.6,1.5c-0.6,0.5-1.1,1.1-1.7,1.6c-0.3,0.3-0.6,0.5-0.9,0.7c-2.6,2.2-5.4,4.3-8.3,6.2
			c-0.1,0.1-0.2,0.1-0.3,0.2c-1,0.7-2.1,1.3-3.2,1.9c-2.3,1.3-4.6,2.6-7.1,3.8c1.6,2.8,3.3,5.6,5.1,8.3l0.1,0.1l0,0
			C211.3,249.3,212.4,249.5,213.7,249.2z"/>
		<path class="st1" d="M223.7,234.9c6.2-4.4,12.1-9.5,17.4-14.8c9.8-9.8,15.9-21.4,20.6-34.1c-1-1.7-1.9-3.5-2.9-5.2
			c-2.1-3.8-4.3-7.5-6.5-11.2c-1,7.1-2.8,14.1-4.6,20.9c-2.5,9.6-6.3,18.3-12.4,26.2c-0.9,1.2-1.8,2.3-2.8,3.4
			c-0.3,0.4-0.7,0.8-1.1,1.2c-0.6,0.7-1.2,1.4-1.9,2c-0.5,0.5-0.9,0.9-1.4,1.4s-1.1,1-1.6,1.5c-0.6,0.5-1.1,1.1-1.7,1.6
			c-0.3,0.3-0.6,0.5-0.9,0.7c-2.6,2.2-5.4,4.3-8.3,6.2c-0.1,0.1-0.2,0.1-0.3,0.2c-1,0.7-2.1,1.3-3.2,1.9c-2.3,1.3-4.6,2.6-7.1,3.8
			c0.6,1,1.1,1.9,1.7,2.9C212.5,240.8,218.5,238.6,223.7,234.9z"/>
		<path class="st3" d="M251.5,227.3c-2.2,2.3-4.5,4.5-6.8,6.6c1-0.8,2-1.6,3-2.3c9.6-7.7,17.2-17.8,20.8-29.6
			C264.2,211.2,258.8,219.8,251.5,227.3z"/>
		<path class="st3" d="M167.4,249.6c0.6,0,1.2,0,1.8-0.1C168.6,249.5,168,249.5,167.4,249.6z"/>
		<path class="st3" d="M170.2,249.4c2.4-0.1,4.7-0.4,7.1-0.7C174.9,249.1,172.5,249.3,170.2,249.4z"/>
		<path class="st3" d="M177.8,248.7c0.8-0.1,1.6-0.2,2.4-0.4C179.4,248.4,178.6,248.6,177.8,248.7z"/>
		<path class="st3" d="M154,249c0.4,0,0.8,0.1,1.1,0.1C154.8,249.1,154.4,249,154,249z"/>
		<path class="st3" d="M157.3,249.3c0.4,0,0.7,0.1,1.1,0.1C158,249.4,157.7,249.3,157.3,249.3z"/>
		<path class="st3" d="M161.3,249.5c0.5,0,0.9,0,1.4,0C162.2,249.6,161.8,249.6,161.3,249.5z"/>
		<path class="st3" d="M307.7,170.4c0.3,0,0.5,0,0.8-0.1C308.2,170.4,307.9,170.4,307.7,170.4z"/>
		<path class="st3" d="M150.9,248.5c0.3,0.1,0.7,0.1,1,0.1C151.6,248.6,151.2,248.6,150.9,248.5z"/>
		<path class="st3" d="M286.4,174L286.4,174L286.4,174z"/>
		<path class="st3" d="M191,245.8c-3.5,1-7,1.8-10.6,2.4C184,247.7,187.5,246.9,191,245.8L191,245.8z"/>
		<path class="st3" d="M297.1,171.7c0.2,0,0.4-0.1,0.6-0.1C297.5,171.6,297.3,171.6,297.1,171.7z"/>
		<path class="st3" d="M310.9,170.2c0.6,0,1.1-0.1,1.7-0.1C312,170.1,311.4,170.2,310.9,170.2z"/>
		<path class="st3" d="M289.7,173.2c0.2,0,0.4-0.1,0.6-0.1C290.1,173.1,289.9,173.1,289.7,173.2z"/>
		<path class="st3" d="M314.7,170.1c0.7,0,1.3,0,2,0C316.1,170,315.4,170.1,314.7,170.1z"/>
		<path class="st3" d="M322.7,170.1c0.9,0,1.7,0.1,2.6,0.1C324.5,170.2,323.6,170.1,322.7,170.1z"/>
		<path class="st3" d="M293.3,172.4c0.2,0,0.5-0.1,0.7-0.1C293.8,172.3,293.6,172.3,293.3,172.4z"/>
		<path class="st3" d="M318.7,170c0.7,0,1.5,0,2.2,0C320.2,170.1,319.4,170,318.7,170z"/>
		<path class="st3" d="M326.8,170.3c1.4,0.1,2.7,0.2,4.1,0.3C329.5,170.5,328.1,170.4,326.8,170.3z"/>
		<path class="st3" d="M166,249.6c-0.5,0-1.1,0-1.6,0C164.9,249.6,165.5,249.6,166,249.6z"/>
		<path class="st4" d="M105.1,442.2c0.4-0.4,0.7-0.8,1.1-1.3C105.9,441.4,105.5,441.8,105.1,442.2z"/>
		<path class="st4" d="M241.6,470.9c-0.8,0.4-1.6,0.8-2.4,1.2C240,471.6,240.8,471.2,241.6,470.9z"/>
		<path class="st4" d="M225.4,479.8c-0.7,0.5-1.5,0.9-2.2,1.4C223.9,480.7,224.7,480.3,225.4,479.8z"/>
		<path class="st4" d="M245.7,468.9c-0.9,0.4-1.8,0.8-2.7,1.3C243.9,469.7,244.8,469.3,245.7,468.9z"/>
		<path class="st4" d="M234,474.8c-1.2,0.7-2.4,1.3-3.6,2C231.6,476.1,232.8,475.4,234,474.8z"/>
		<path class="st4" d="M229.5,477.3c-0.9,0.5-1.8,1.1-2.7,1.6C227.7,478.4,228.6,477.8,229.5,477.3z"/>
		<path class="st4" d="M237.7,472.8c-0.8,0.4-1.7,0.9-2.5,1.3C236.1,473.7,236.9,473.2,237.7,472.8z"/>
		<path class="st4" d="M262.7,461.6c-0.9,0.4-1.8,0.7-2.7,1.1C260.9,462.4,261.8,462,262.7,461.6z"/>
		<path class="st4" d="M267.8,459.6c-1.3,0.5-2.6,1-3.9,1.5C265.2,460.6,266.5,460.1,267.8,459.6z"/>
		<path class="st3" d="M93.4,458.2c0.4-0.6,0.7-1.1,1.1-1.7c-1.1,1.7-2.2,3.3-3.2,5.1c-5.2,8.6-9.9,17.5-15.8,25.7
			c-6.4,8.8-11.7,17.8-15.8,27.8c-4.1,9.8-7.2,20-9.5,30.4c-4.2,18.6-7.3,39.6-2.3,58.4c1.6,5.9,11.2,29.5,19,17.6
			c2.3-3.5,3-8.5,3.7-12.6c0.7-4.2,1.2-8.4,1.5-12.6c1.4-16.6,0.8-34.1,5.6-50.2c0.5-1.6,3-0.9,2.6,0.7c-1.1,3.8-1.9,7.7-2.5,11.6
			c-1.2,8.4-1.7,17-2.2,25.5c7.8,8.3,18,5.2,27.7,2.4c0.1,0,0.1,0,0.2,0c-0.4-1.8-0.5-3.6-0.7-5.3c-0.4-4.1-0.6-8.2-0.4-12.3
			c0.3-7.7,1.5-15.2,3.6-22.6c0.5-1.6,3-0.9,2.6,0.7c-3.1,10.9-4.2,22.2-3.2,33.5c0.3,2.6,0.3,7.1,2.4,9.2c1.7,1.7,4.9,1.9,7.2,2.4
			c5.9,1.1,12.9,1.1,15.5-5.1c-1.4-3.6-1.9-7.9-2.4-11.4c-1.5-11.3-0.8-22.8,1.7-34c0.4-1.7,2.9-1,2.6,0.7
			c-2.7,11.6-3.2,23.7-1.3,35.5c0.4,2.2,0.7,5.1,1.6,7.7c0.5,0.2,0.9,0.8,0.7,1.5v0.1c1,2.2,2.5,4,5,4.6c4.5,1.1,10.6-0.6,15.1-1.7
			c5-1.2,9.7-3.3,13.1-7.2c3.6-4.1,5.8-9.5,8.1-14.4c4.1-8.6,12.9-21.7,3.4-29.4c-7.3,10.3-12.5,21.8-15.7,34
			c-0.4,1.7-3,0.9-2.6-0.7c1.5-5.8,3.5-11.4,5.8-16.9c2.5-5.8,5.5-11.4,9.2-16.6c0.5-0.8,1.1-1.5,1.6-2.3c0.1-0.3,0.3-0.5,0.5-0.7
			c2.9-3.9,5.8-7.8,8.1-12.1c5.3-10.1,11.3-19.4,19.4-27.5c3.3-3.3,6.7-6.3,10.3-9l0,0C179.9,463.2,135.8,453.7,93.4,458.2z"/>
		<path class="st1" d="M90,463.9c6.9,0.4,13.8,1.2,20.4,1.5c14.8,0.8,29.7,2.2,44.1,5.9c19.1,4.9,38.3,10.9,56.4,19.1
			c1.3-1.1,2.7-2.2,4-3.3c-35-23.8-79.1-33.4-121.5-28.8c-0.7,1.1-1.4,2.2-2.1,3.4C90.9,462.3,90.4,463.1,90,463.9z"/>
		<path class="st3" d="M165.8,555.2c2.5-5.8,5.5-11.4,9.2-16.6c0.5-0.8,1.1-1.5,1.6-2.3c0.1-0.3,0.3-0.5,0.5-0.7
			c2.9-3.9,5.8-7.8,8.1-12.1c4.5-8.6,9.5-16.6,16-23.8c-15.5-6.6-31.7-11.6-47.9-15.9c-14-3.7-28.4-5.2-42.8-6
			c-8.7-0.5-18.4-2.1-27.6-1.8c-2.3,3.8-4.7,7.5-7.3,11.2C69.2,496,63.9,505,59.8,515c-4.1,9.8-7.2,20-9.5,30.4
			C46.1,564,43,585,48,603.8c1.6,5.9,11.2,29.5,19,17.6c2.3-3.5,3-8.5,3.7-12.6c0.7-4.2,1.2-8.4,1.5-12.6
			c1.4-16.6,0.8-34.1,5.6-50.2c0.5-1.6,3-0.9,2.6,0.7c-1.1,3.8-1.9,7.7-2.5,11.6c-1.2,8.4-1.7,17-2.2,25.5c7.8,8.3,18,5.2,27.7,2.4
			c0.1,0,0.1,0,0.2,0c-0.4-1.8-0.5-3.6-0.7-5.3c-0.4-4.1-0.6-8.2-0.4-12.3c0.3-7.7,1.5-15.2,3.6-22.6c0.5-1.6,3-0.9,2.6,0.7
			c-3.1,10.9-4.2,22.2-3.2,33.5c0.3,2.6,0.3,7.1,2.4,9.2c1.7,1.7,4.9,1.9,7.2,2.4c5.9,1.1,12.9,1.1,15.5-5.1
			c-1.4-3.6-1.9-7.9-2.4-11.4c-1.5-11.3-0.8-22.8,1.7-34c0.4-1.7,2.9-1,2.6,0.7c-2.7,11.6-3.2,23.7-1.3,35.5
			c0.4,2.2,0.7,5.1,1.6,7.7c0.5,0.2,0.9,0.8,0.7,1.5v0.1c1,2.2,2.5,4,5,4.6c4.5,1.1,10.6-0.6,15.1-1.7c5-1.2,9.7-3.3,13.1-7.2
			c3.6-4.1,5.8-9.5,8.1-14.4c4.1-8.6,12.9-21.7,3.4-29.4c-7.3,10.3-12.5,21.8-15.7,34c-0.4,1.7-3,0.9-2.6-0.7
			C161.5,566.3,163.4,560.6,165.8,555.2z"/>
		<path class="st4" d="M258.6,463.3c-0.8,0.3-1.7,0.7-2.5,1.1C256.9,464,257.7,463.7,258.6,463.3z"/>
		<path class="st4" d="M250.7,466.6c-1.3,0.6-2.5,1.1-3.8,1.7C248.2,467.8,249.4,467.2,250.7,466.6z"/>
		<path class="st4" d="M254.6,465c-1,0.4-2,0.8-2.9,1.3C252.6,465.8,253.6,465.4,254.6,465z"/>
		<path class="st4" d="M107.9,439c0.3-0.3,0.6-0.7,0.9-1C108.5,438.3,108.2,438.7,107.9,439z"/>
		<path class="st4" d="M97.8,451.7c0.4-0.5,0.8-1.1,1.1-1.6C98.6,450.7,98.2,451.2,97.8,451.7z"/>
		<path class="st4" d="M221.8,482.1c-0.7,0.5-1.5,1-2.2,1.5C220.3,483.1,221.1,482.6,221.8,482.1z"/>
		<path class="st4" d="M218.3,484.6c-0.9,0.7-1.9,1.4-2.8,2.1C216.5,485.9,217.4,485.2,218.3,484.6z"/>
		<path class="st4" d="M100.2,448.5c0.4-0.5,0.8-1,1.1-1.5C100.9,447.5,100.5,448,100.2,448.5z"/>
		<path class="st4" d="M102.6,445.4c0.4-0.5,0.7-0.9,1.1-1.4C103.3,444.4,103,444.9,102.6,445.4z"/>
		<path class="st4" d="M95.6,455c0.4-0.6,0.8-1.1,1.1-1.7C96.3,453.8,96,454.4,95.6,455z"/>
		<path class="st7" d="M256,464.4c-0.5,0.2-1,0.4-1.4,0.6C255.1,464.8,255.5,464.6,256,464.4z"/>
		<path class="st7" d="M215.5,486.6c-0.2,0.1-0.4,0.3-0.6,0.4C215.1,486.9,215.3,486.8,215.5,486.6z"/>
		<path class="st7" d="M251.7,466.2c-0.3,0.1-0.6,0.3-1,0.4C251,466.5,251.3,466.4,251.7,466.2z"/>
		<path class="st7" d="M94.5,456.5c0.3-0.5,0.7-1.1,1-1.6C95.2,455.5,94.9,456,94.5,456.5z"/>
		<path class="st7" d="M260,462.7c-0.5,0.2-1,0.4-1.5,0.6C259.1,463.1,259.5,462.9,260,462.7z"/>
		<path class="st7" d="M223.2,481.2c-0.5,0.3-0.9,0.6-1.4,0.9C222.3,481.8,222.7,481.5,223.2,481.2z"/>
		<path class="st7" d="M263.9,461.1c-0.4,0.2-0.8,0.3-1.2,0.5C263.1,461.5,263.5,461.3,263.9,461.1z"/>
		<path class="st7" d="M219.6,483.6c-0.4,0.3-0.9,0.6-1.3,0.9C218.7,484.2,219.2,483.9,219.6,483.6z"/>
		<path class="st7" d="M243.1,470.1c-0.5,0.2-1,0.5-1.5,0.7C242.1,470.6,242.6,470.4,243.1,470.1z"/>
		<path class="st7" d="M246.9,468.4c-0.4,0.2-0.8,0.4-1.2,0.5C246.1,468.7,246.5,468.5,246.9,468.4z"/>
		<path class="st7" d="M226.8,478.9c-0.5,0.3-0.9,0.6-1.4,0.8C225.9,479.5,226.3,479.2,226.8,478.9z"/>
		<path class="st7" d="M101.3,447c0.4-0.6,0.9-1.1,1.3-1.7C102.2,445.9,101.7,446.5,101.3,447z"/>
		<path class="st7" d="M106.2,441c0.6-0.6,1.1-1.3,1.7-1.9C107.3,439.7,106.8,440.3,106.2,441z"/>
		<path class="st7" d="M108.8,438c0.9-1,1.8-1.9,2.7-2.9C110.6,436.1,109.7,437,108.8,438z"/>
		<path class="st7" d="M230.4,476.8c-0.3,0.2-0.6,0.4-0.9,0.5C229.8,477.1,230.1,477,230.4,476.8z"/>
		<path class="st7" d="M235.3,474.1c-0.4,0.2-0.9,0.4-1.3,0.7C234.4,474.5,234.8,474.3,235.3,474.1z"/>
		<path class="st7" d="M96.7,453.3c0.4-0.5,0.7-1.1,1.1-1.6C97.5,452.2,97.1,452.8,96.7,453.3z"/>
		<path class="st7" d="M103.7,444c0.5-0.6,1-1.2,1.4-1.7C104.7,442.8,104.2,443.4,103.7,444z"/>
		<path class="st7" d="M99,450.1c0.4-0.5,0.8-1.1,1.2-1.6C99.8,449.1,99.4,449.6,99,450.1z"/>
		<path class="st7" d="M239.2,472c-0.5,0.2-1,0.5-1.5,0.8C238.2,472.5,238.7,472.3,239.2,472z"/>
		<path class="st7" d="M230.3,359.7c-0.2,0.1-0.4,0.2-0.7,0.2C229.9,359.9,230.1,359.8,230.3,359.7z"/>
		<path class="st7" d="M264.2,351.2c2.8-0.9,5.5-1.7,8.3-2.6C269.7,349.5,267,350.4,264.2,351.2z"/>
		<path class="st7" d="M273.6,348.3c3-0.9,5.9-1.8,8.9-2.8C279.5,346.4,276.5,347.4,273.6,348.3z"/>
		<path class="st7" d="M254.4,354.3c2.9-0.9,5.9-1.9,8.8-2.8C260.3,352.5,257.4,353.4,254.4,354.3z"/>
		<path class="st7" d="M117.4,352.9c0.3-0.6,0.5-1.2,0.8-1.8C117.9,351.7,117.6,352.3,117.4,352.9z"/>
		<path class="st7" d="M260.3,349.7c-0.6,0.2-1.2,0.4-1.8,0.6C259.1,350.1,259.7,349.9,260.3,349.7z"/>
		<path class="st7" d="M119.2,348.9c0.2-0.5,0.4-0.9,0.6-1.4C119.6,347.9,119.4,348.4,119.2,348.9z"/>
		<path class="st7" d="M240.3,356.3c-0.5,0.2-1.1,0.4-1.6,0.5C239.2,356.6,239.8,356.4,240.3,356.3z"/>
		<path class="st7" d="M269.9,346.7c-0.8,0.2-1.5,0.5-2.3,0.7C268.4,347.1,269.2,346.9,269.9,346.7z"/>
		<path class="st7" d="M220.3,363.4c-0.1,0.1-0.3,0.1-0.4,0.2C220.1,363.5,220.2,363.5,220.3,363.4z"/>
		<path class="st7" d="M21.9,360.8c0.1-0.1,0.1-0.1,0.2-0.2C22,360.7,21.9,360.8,21.9,360.8z"/>
		<path class="st7" d="M208,371.1c15.1-6.2,30.6-11.6,46.2-16.7c-32.3,10.4-64.1,22.2-93,40.2c-18.2,11.3-35,24.9-49.7,40.4
			c-0.9,1-1.8,1.9-2.7,2.9c-0.3,0.3-0.6,0.7-0.9,1c-0.6,0.6-1.1,1.3-1.7,1.9c-0.4,0.4-0.7,0.8-1.1,1.3c-0.5,0.6-1,1.2-1.4,1.7
			s-0.8,0.9-1.1,1.4c-0.4,0.5-0.9,1.1-1.3,1.7c-0.4,0.5-0.8,1-1.1,1.5c-0.4,0.5-0.8,1.1-1.2,1.6c-0.4,0.5-0.8,1.1-1.1,1.6
			c-0.4,0.5-0.7,1.1-1.1,1.6c-0.4,0.6-0.8,1.1-1.1,1.7c-0.4,0.5-0.7,1-1,1.6c-0.4,0.6-0.8,1.1-1.1,1.7c42.4-4.5,86.5,5,121.5,28.8
			l0,0c0.2-0.1,0.4-0.3,0.6-0.4c0.9-0.7,1.8-1.4,2.8-2.1c0.4-0.3,0.9-0.6,1.3-0.9c0.7-0.5,1.5-1,2.2-1.5c0.5-0.3,0.9-0.6,1.4-0.9
			c0.7-0.5,1.5-1,2.2-1.4c0.5-0.3,0.9-0.6,1.4-0.8c0.9-0.5,1.8-1.1,2.7-1.6c0.3-0.2,0.6-0.4,0.9-0.5c1.2-0.7,2.4-1.4,3.6-2
			c0.4-0.2,0.9-0.5,1.3-0.7c0.8-0.4,1.6-0.9,2.5-1.3c0.5-0.3,1-0.5,1.5-0.8c0.8-0.4,1.6-0.8,2.4-1.2c0.5-0.2,1-0.5,1.5-0.7
			c0.9-0.4,1.8-0.8,2.7-1.3c0.4-0.2,0.8-0.4,1.2-0.5c1.3-0.6,2.5-1.1,3.8-1.7c0.3-0.1,0.6-0.3,1-0.4c1-0.4,2-0.8,2.9-1.3
			c0.5-0.2,1-0.4,1.4-0.6c0.8-0.4,1.7-0.7,2.5-1.1c0.5-0.2,1-0.4,1.5-0.6c0.9-0.4,1.8-0.7,2.7-1.1c0.4-0.2,0.8-0.3,1.2-0.5
			c1.3-0.5,2.6-1,3.9-1.5c25.7-9.9,51.8-18.8,78.2-26.7c24.3-7.3,50.7-11.7,71.8-26.7c14.4-10.2,25.6-24,33.8-39.5
			c-0.8,1.5-1.6,2.9-2.4,4.4H208z"/>
		<path class="st7" d="M211.5,366.8c-0.5,0.2-1,0.4-1.5,0.6C210.5,367.2,211,367,211.5,366.8z"/>
		<path class="st7" d="M115.8,356.9c0.3-0.7,0.6-1.5,0.9-2.2C116.3,355.4,116,356.1,115.8,356.9z"/>
		<path class="st7" d="M219.9,363.6c-2.8,1.1-5.6,2.2-8.4,3.3C214.3,365.7,217.1,364.6,219.9,363.6z"/>
		<path class="st7" d="M238.7,356.8c-2.8,1-5.6,1.9-8.4,2.9C233.1,358.7,235.9,357.8,238.7,356.8z"/>
		<path class="st7" d="M254.2,354.4c0.1,0,0.2-0.1,0.2-0.1C254.4,354.4,254.3,354.4,254.2,354.4z"/>
		<path class="st7" d="M272.5,348.6c0.4-0.1,0.7-0.2,1.1-0.3C273.2,348.4,272.9,348.5,272.5,348.6z"/>
		<path class="st7" d="M278.5,344c-2.9,0.9-5.7,1.8-8.6,2.7C272.8,345.8,275.6,344.9,278.5,344z"/>
		<path class="st7" d="M267.7,347.4c-2.5,0.8-4.9,1.6-7.4,2.3C262.7,348.9,265.2,348.1,267.7,347.4z"/>
		<path class="st7" d="M263.2,351.5c0.3-0.1,0.7-0.2,1-0.3C263.9,351.3,263.6,351.4,263.2,351.5z"/>
		<path class="st7" d="M258.5,350.3c-6.1,1.9-12.1,3.9-18.2,6C246.3,354.2,252.4,352.2,258.5,350.3z"/>
		<path class="st7" d="M229.7,360c-3.1,1.1-6.2,2.3-9.3,3.4C223.4,362.2,226.5,361.1,229.7,360z"/>
		<path class="st7" d="M22,360.6c0.3-0.4,0.7-0.7,1.1-1C22.8,359.9,22.4,360.3,22,360.6z"/>
		<path class="st7" d="M210,367.4c-2.9,1.2-5.9,2.4-8.8,3.6C204.2,369.8,207.1,368.6,210,367.4z"/>
		<path class="st7" d="M119.8,347.4c0.6-1.2,1.2-2.5,1.8-3.7C121,345,120.4,346.2,119.8,347.4z"/>
		<path class="st7" d="M118.2,351.1c0.3-0.7,0.7-1.5,1-2.2C118.8,349.6,118.5,350.3,118.2,351.1z"/>
		<path class="st7" d="M115.3,358c0.1-0.4,0.3-0.8,0.4-1.1C115.6,357.2,115.5,357.6,115.3,358z"/>
		<path class="st7" d="M21.9,360.8c-0.3,0.3-0.6,0.7-0.9,1.1C21.2,361.5,21.5,361.2,21.9,360.8z"/>
		<path class="st7" d="M116.7,354.7c0.2-0.6,0.5-1.2,0.7-1.7C117.1,353.5,116.9,354.1,116.7,354.7z"/>
		<path class="st7" d="M269.1,194.9c-0.1,0.1-0.1,0.2-0.2,0.3l0,0C269,195.1,269,195,269.1,194.9z"/>
		<path class="st7" d="M208.3,250.5c-0.1-0.1-0.3-0.2-0.4-0.4C208,250.3,208.1,250.4,208.3,250.5z"/>
		<path class="st7" d="M269.2,194.2c0,0.1,0,0.2,0,0.4C269.2,194.4,269.2,194.3,269.2,194.2z"/>
		<path class="st7" d="M209.2,250.7c-0.1,0-0.3,0-0.4,0C208.9,250.8,209.1,250.8,209.2,250.7z"/>
		<path class="st7" d="M210.3,249c0.3,0.5,0.1,1-0.2,1.3C210.4,250,210.5,249.5,210.3,249z"/>
		<path class="st7" d="M208.3,250.6c0.1,0.1,0.3,0.1,0.4,0.2C208.6,250.7,208.4,250.6,208.3,250.6z"/>
		<path class="st7" d="M269.1,194.9c0-0.1,0.1-0.2,0.1-0.3C269.2,194.6,269.1,194.7,269.1,194.9z"/>
		<path class="st7" d="M209.7,250.6c0.1-0.1,0.3-0.2,0.4-0.3C210,250.4,209.8,250.5,209.7,250.6z"/>
		<path class="st7" d="M269.2,194.1c0-0.1-0.1-0.3-0.1-0.4C269.1,193.8,269.2,193.9,269.2,194.1z"/>
		<path class="st7" d="M209.2,250.7c0.1,0,0.3-0.1,0.4-0.1C209.5,250.7,209.4,250.7,209.2,250.7z"/>
		<path class="st7" d="M312.6,170.1c0.7,0,1.4,0,2.1-0.1C314,170.1,313.3,170.1,312.6,170.1z"/>
		<path class="st7" d="M151.9,248.7c0.7,0.1,1.4,0.2,2.1,0.3C153.3,248.9,152.6,248.8,151.9,248.7z"/>
		<path class="st7" d="M316.7,170c0.7,0,1.3,0,2,0C318,170,317.4,170,316.7,170z"/>
		<path class="st7" d="M166,249.6c0.5,0,0.9,0,1.4,0C166.9,249.6,166.5,249.6,166,249.6z"/>
		<path class="st7" d="M147.8,248c1,0.2,2,0.4,3.1,0.5C149.9,248.4,148.8,248.2,147.8,248z"/>
		<path class="st7" d="M308.5,170.3c0.8-0.1,1.6-0.1,2.4-0.1C310.1,170.2,309.3,170.3,308.5,170.3z"/>
		<path class="st7" d="M164.4,249.6c-0.6,0-1.1,0-1.7,0C163.2,249.6,163.8,249.6,164.4,249.6z"/>
		<path class="st7" d="M297.8,171.6c3.3-0.5,6.6-0.9,9.9-1.2C304.3,170.7,301,171,297.8,171.6z"/>
		<path class="st7" d="M290.2,173c1-0.2,2.1-0.5,3.1-0.7C292.3,172.6,291.3,172.8,290.2,173z"/>
		<path class="st7" d="M286.4,174c1.1-0.3,2.2-0.6,3.3-0.8C288.6,173.4,287.5,173.7,286.4,174z"/>
		<path class="st7" d="M155.2,249.1c0.7,0.1,1.4,0.1,2.1,0.2C156.6,249.2,155.9,249.2,155.2,249.1z"/>
		<path class="st7" d="M177.2,248.7c0.2,0,0.4,0,0.5-0.1C177.6,248.7,177.4,248.7,177.2,248.7z"/>
		<path class="st7" d="M294.1,172.2c1-0.2,2-0.4,3.1-0.6C296.1,171.8,295.1,172,294.1,172.2z"/>
		<path class="st7" d="M158.4,249.4c1,0.1,2,0.1,2.9,0.2C160.3,249.5,159.3,249.5,158.4,249.4z"/>
		<path class="st7" d="M325.3,170.2c0.5,0,1,0,1.4,0.1C326.3,170.3,325.8,170.3,325.3,170.2z"/>
		<path class="st7" d="M180.2,248.3c0.1,0,0.1,0,0.2,0C180.3,248.3,180.3,248.3,180.2,248.3z"/>
		<path class="st7" d="M199.1,255.7c0.4,3.5,3.4,6.9,7.8,6.1c18-3.3,34.7-14.1,45.8-28.6c5.9-7.7,11.2-16.5,14.6-25.5
			c3.5-9.1,4.1-18.9,5.1-28.5c4.5-2.1,9.1-3.8,13.9-5.1c-7.9,2.2-15.5,5.4-22.7,9.9c1.8,3.2,3.6,6.4,5.4,9.7
			c0.1,0.1,0.1,0.3,0.1,0.4v0.1c0,0.1,0,0.2,0,0.4l0,0c0,0.1-0.1,0.2-0.1,0.3l0,0c-0.1,0.1-0.1,0.2-0.2,0.3c0.6,1.2,0.8,2.6,0.4,4.3
			c-3.3,12.9-11.2,23.9-21.5,32.1c-9.7,7.8-21.6,15.4-34,17.7c-1.3,0.2-2.4,0.1-3.4-0.3l0,0c0.3,0.5,0.1,1-0.2,1.3l0,0
			c-0.1,0.1-0.2,0.2-0.4,0.3l0,0c-0.1,0.1-0.3,0.1-0.4,0.1l0,0c-0.1,0-0.3,0-0.4,0l0,0c-0.1,0-0.3-0.1-0.4-0.2l0,0
			c-0.1-0.1-0.3-0.2-0.4-0.4c-1.9-2.8-3.6-5.6-5.3-8.5c-3.8,1.7-7.7,3-11.7,4.2c0.1,0.4,0.4,0.8,0.6,1.1
			C193.9,250.2,196.1,253.3,199.1,255.7z"/>
		<path class="st7" d="M320.9,170.1c0.6,0,1.2,0,1.8,0C322.1,170.1,321.5,170.1,320.9,170.1z"/>
		<path class="st7" d="M169.2,249.5c0.3,0,0.6,0,0.9-0.1C169.8,249.5,169.5,249.5,169.2,249.5z"/>
		<path class="st7" d="M110.9,370.9c0.6-1.9,1.2-3.8,1.8-5.7C112.1,367,111.5,368.9,110.9,370.9z"/>
		<path class="st7" d="M113.1,364c0.7-2,1.4-4,2.2-6C114.5,360,113.8,362,113.1,364z"/>
		<path class="st7" d="M467,299.5c0-0.5,0-0.9,0-1.4c0-1.5-0.1-3-0.2-4.5c-2.7-41.6-24.2-84.3-62.1-104.2
			c-11.8-6.2-24.7-9.7-37.5-12.8c-12-2.8-24.1-5.1-36.4-6.1c-1.3-0.1-2.7-0.2-4.1-0.3c-0.5,0-1,0-1.4-0.1c-0.9,0-1.7-0.1-2.6-0.1
			c-0.6,0-1.2,0-1.8,0c-0.7,0-1.5,0-2.2,0s-1.3,0-2,0s-1.3,0-2,0s-1.4,0-2.1,0.1c-0.6,0-1.1,0.1-1.7,0.1c-0.8,0-1.6,0.1-2.4,0.1
			c-0.3,0-0.5,0-0.8,0.1c-3.3,0.2-6.6,0.6-9.9,1.2c-0.2,0-0.4,0.1-0.6,0.1c-1,0.2-2.1,0.4-3.1,0.6c-0.2,0-0.5,0.1-0.7,0.1
			c-1,0.2-2.1,0.4-3.1,0.7c-0.2,0-0.4,0.1-0.6,0.1c-1.1,0.3-2.2,0.5-3.3,0.8c0,0,0,0-0.1,0c-4.7,1.3-9.4,3-13.9,5.1
			c-1,9.6-1.7,19.5-5.1,28.5c-3.5,9.1-8.8,17.8-14.6,25.5c-11.1,14.5-27.8,25.3-45.8,28.6c-4.5,0.8-7.5-2.7-7.8-6.1
			c-3-2.5-5.1-5.6-7.5-8.8c-0.3-0.4-0.5-0.7-0.6-1.1c-3.5,1-7,1.8-10.6,2.4c-0.1,0-0.1,0-0.2,0c-0.8,0.1-1.6,0.3-2.4,0.4
			c-0.2,0-0.3,0-0.5,0.1c-2.4,0.3-4.7,0.5-7.1,0.7c-0.3,0-0.6,0-0.9,0.1c-0.6,0-1.2,0-1.8,0.1c-0.5,0-0.9,0-1.4,0s-1.1,0-1.6,0
			c-0.6,0-1.1,0-1.7,0c-0.5,0-0.9,0-1.4,0c-1,0-2-0.1-2.9-0.2c-0.4,0-0.7-0.1-1.1-0.1c-0.7-0.1-1.4-0.1-2.1-0.2
			c-0.4,0-0.8-0.1-1.1-0.1c-0.7-0.1-1.4-0.2-2.1-0.3c-0.3,0-0.7-0.1-1-0.1c-1-0.2-2.1-0.3-3.1-0.5c-12.2-2.4-24.3-7.4-34.3-15
			c-13.7,2.9-27.2,6.8-40,12.5c-22.3,10-42.2,25.6-54.6,46.9c-6.5,11.1-12.5,23.7-15,36.4c-2.7,13.9-0.1,28.1,3.2,41.6
			c0,0.1,0,0.3,0,0.4s0,0.2-0.1,0.3h10.9c0-0.5,0.1-1.1,0.1-1.6v-0.1c0.1-1,0.3-2,0.6-3v-0.1c0.1-0.5,0.3-0.9,0.5-1.4
			c0-0.1,0.1-0.1,0.1-0.2c0.2-0.4,0.4-0.9,0.6-1.3l0,0c0.2-0.4,0.5-0.8,0.7-1.2c0-0.1,0.1-0.1,0.1-0.2c0.3-0.4,0.6-0.7,0.9-1.1
			c0.1-0.1,0.1-0.1,0.2-0.2c0.3-0.4,0.7-0.7,1.1-1c4.1-3.2,12.8-5.3,16.3-0.4c2.5-4.3,6.2-7.4,11.4-6.5c2.7,0.5,4.5,2.2,5.8,4.4
			c2.8-6.3,9.2-9.8,16.2-6.5c2.7,1.2,4.7,3,6.3,5.2c1.7-2.4,4.6-3.8,7.5-4.3c4-0.6,6.6,1.5,8.7,4.7c1.3,1.9,2.3,4,3.2,6.2
			c1.8-1.7,4.5-2.3,6.8-1c2.4,1.3,3.3,3.8,3.6,6.4c2.8-8.7,6.2-17.2,10.3-25.3c0.8-1.5,3.1-0.2,2.3,1.3c-0.6,1.2-1.2,2.4-1.8,3.7
			c-0.2,0.5-0.4,0.9-0.6,1.4c-0.3,0.7-0.7,1.5-1,2.2c-0.3,0.6-0.5,1.2-0.8,1.8c-0.2,0.6-0.5,1.2-0.7,1.7c-0.3,0.7-0.6,1.5-0.9,2.2
			c-0.1,0.4-0.3,0.8-0.4,1.1c-0.8,2-1.5,4-2.2,6c-0.1,0.4-0.3,0.8-0.4,1.2c-0.6,1.9-1.3,3.8-1.8,5.7c0,0.1,0,0.1-0.1,0.2h90.4l0,0
			c2.9-1.3,5.8-2.5,8.8-3.6c0.5-0.2,1-0.4,1.5-0.6c2.8-1.1,5.6-2.2,8.4-3.3c0.1-0.1,0.3-0.1,0.4-0.2c3.1-1.2,6.2-2.3,9.3-3.4
			c0.2-0.1,0.4-0.2,0.7-0.2c2.8-1,5.6-2,8.4-2.9c0.5-0.2,1.1-0.4,1.6-0.5c6-2.1,12.1-4,18.2-6c0.6-0.2,1.2-0.4,1.8-0.6
			c2.5-0.8,4.9-1.6,7.4-2.3c0.8-0.2,1.5-0.5,2.3-0.7c2.9-0.9,5.7-1.8,8.6-2.7c5.7-1.8,11.3-3.5,17-5.3c2.7-0.8,5.3-1.6,8-2.6
			c2.4-0.9,4.6-2.2,7-3.1c2.7-1,5.4-1.7,8.1-3.1c2.4-1.3,4.8-2.7,7.1-4.1c4.6-2.9,9.1-6.1,13.1-9.8c16.2-14.6,24.4-36.9,21.6-58.6
			c-0.2-1.7,2.4-1.7,2.7,0c2.8,21.6-5.3,44.4-21.1,59.3c-3.8,3.6-7.9,6.8-12.3,9.7c-4.5,3-9.4,6.3-14.5,8
			c-5.3,1.7-10.3,4.1-15.7,5.8c-5.7,1.8-11.3,3.6-17,5.3c-3,0.9-5.9,1.8-8.9,2.8c-0.4,0.1-0.7,0.2-1.1,0.3c-2.8,0.9-5.5,1.7-8.3,2.6
			c-0.3,0.1-0.7,0.2-1,0.3c-2.9,0.9-5.9,1.9-8.8,2.8c-0.1,0-0.2,0.1-0.2,0.1c-15.6,5.1-31.1,10.4-46.2,16.7h241.2
			c0.8-1.4,1.6-2.9,2.4-4.4c0-0.1,0.1-0.1,0.1-0.2c0.7-1.3,1.4-2.7,2-4c0.1-0.3,0.3-0.6,0.4-0.8c0.6-1.2,1.1-2.4,1.6-3.6
			c0.1-0.3,0.2-0.5,0.3-0.8c1.3-3,2.4-6,3.4-9c0.1-0.2,0.1-0.3,0.2-0.5c0.4-1.3,0.9-2.6,1.3-4c0.1-0.4,0.2-0.7,0.3-1.1
			c0.4-1.2,0.7-2.4,1-3.6c0.1-0.3,0.2-0.7,0.3-1c0.4-1.5,0.8-3,1.1-4.5l0,0c0.3-1.6,0.7-3.1,1-4.7c0.1-0.3,0.1-0.6,0.2-1
			c0.2-1.2,0.4-2.4,0.6-3.6c0.1-0.5,0.1-0.9,0.2-1.4c0.2-1.1,0.3-2.3,0.5-3.4c0.1-0.4,0.1-0.9,0.2-1.3c0.2-1.5,0.3-3,0.4-4.4
			c0-0.1,0-0.1,0-0.2c0.1-1.5,0.2-3.1,0.3-4.6c0-0.4,0-0.9,0-1.3c0-1.1,0.1-2.2,0.1-3.3c0-0.5,0-1,0-1.6
			C467.1,301.7,467,300.6,467,299.5z"/>
		<path class="st7" d="M110.9,370.9c0,0.1,0,0.1-0.1,0.2l0,0C110.8,371,110.9,370.9,110.9,370.9z"/>
		<path class="st7" d="M112.7,365.2c0.1-0.4,0.3-0.8,0.4-1.2C113,364.4,112.9,364.8,112.7,365.2z"/>
		<path class="st7" d="M346.1,432.9c24.3-7.3,50.7-11.7,71.8-26.7c13-9.2,23.5-21.4,31.4-35.1H208c-16.2,6.7-31.9,14.3-46.8,23.6
			c-18.2,11.3-35,24.9-49.7,40.4c-6.8,7.2-12.8,14.9-18.1,23.1c36.2-3.9,73.6,2.5,105.5,19.2h30.3c12.2-7.2,25.5-12.8,38.6-17.9
			C293.5,449.7,319.7,440.8,346.1,432.9z"/>
		<g>
			<path class="st0" d="M166.4,154.1c11.5-8.9,26.6-10.5,40-5c3.7,1.5,5.3-4.5,1.7-6c-15.5-6.4-32.9-3.6-46.1,6.6
				C158.8,152.2,163.3,156.6,166.4,154.1L166.4,154.1z"/>
		</g>
		<g>
			<path class="st0" d="M101.7,160.4c5.6-4.8,13.1-6.2,20-3.2c2.7,1.2,5.1-2.8,2.4-4.1c-8.9-3.9-18.3-2.3-25.7,4
				C96.1,159,99.4,162.3,101.7,160.4L101.7,160.4z"/>
		</g>
		<path class="st8" d="M88.8,207.5v6.8c0,3.4-0.6,6.6-1.9,9.6s-3.1,5.7-5.3,8.1c-2.3,2.4-4.9,4.2-7.9,5.6c-3,1.4-6.3,2.1-9.8,2.1
			c-3,0-6-0.4-9.1-1.2c-3.1-0.8-5.8-2.3-8.3-4.3c-2.5-2.1-4.5-4.7-6.1-7.9s-2.4-7.4-2.4-12.4v-60.3c0-3.6,0.6-6.9,1.8-10
			s3-5.7,5.2-8c2.3-2.3,4.9-4,8.1-5.3c3.1-1.3,6.6-1.9,10.4-1.9c7.4,0,13.4,2.4,18,7.2c2.3,2.4,4,5.2,5.3,8.4s1.9,6.7,1.9,10.5v6.2
			H73.1v-5.2c0-3.1-0.9-5.7-2.6-8s-4.1-3.4-7.1-3.4c-3.9,0-6.5,1.2-7.8,3.6c-1.3,2.4-1.9,5.5-1.9,9.2v56c0,3.2,0.7,5.8,2.1,8
			c1.4,2.2,3.9,3.2,7.5,3.2c1,0,2.1-0.2,3.3-0.5c1.2-0.4,2.3-0.9,3.3-1.8c0.9-0.8,1.7-1.9,2.3-3.4c0.6-1.4,0.9-3.2,0.9-5.4v-5.4
			h15.7V207.5z"/>
		<path class="st8" d="M234.5,159.8v56.5c0,1.8,0.2,3.3,0.5,4.3c0.4,1,0.9,1.8,1.8,2.3c0.8,0.5,1.8,0.8,3,0.9
			c1.2,0.1,103.7,0.2,105.4,0.2l6.2,14.8H237.7c-3.6,0-6.6-0.6-9-1.7c-2.4-1.1-4.3-2.6-5.8-4.3c-1.4-1.7-2.5-3.7-3.2-5.9
			s-1-4.3-1-6.4v-62.9 M218.8,160.8v-58.6h15.7v58.6"/>
		<path class="st8" d="M250.2,238.7v-78h15.7v78H250.2z"/>
		<path class="st8" d="M324.2,204.5h-31.1v10.6c0,2.5,0.7,4.4,2.1,5.7s3.3,2,5.6,2c3,0,4.9-0.9,5.9-2.6c1-1.7,1.6-3.5,1.8-5.2h15.7
			c0,6.9-2.1,12.4-6.3,16.6c-2.1,2.2-4.5,3.8-7.4,5.1c-2.9,1.2-6.1,1.8-9.7,1.8c-4.9,0-9.1-1-12.5-3.1s-6.1-4.8-7.9-8.2
			c-1.1-2.1-1.9-4.4-2.3-7.1c-0.4-2.7-0.6-5.6-0.6-8.8v-25.7c0-3.2,0.2-6.1,0.6-8.8s1.2-5,2.3-7.1c1.8-3.4,4.5-6.1,7.9-8.2
			c3.4-2.1,7.6-3.1,12.5-3.1c3.6,0,6.8,0.6,9.8,1.8c2.9,1.2,5.4,2.9,7.5,5.1c4.1,4.6,6.2,10.4,6.2,17.4v21.8H324.2z M293.1,192.2
			h15.4v-8.9c0-3-0.7-5.2-2.1-6.7s-3.3-2.2-5.6-2.2c-2.4,0-4.2,0.7-5.6,2.2s-2.1,3.7-2.1,6.7L293.1,192.2L293.1,192.2z"/>
		<path class="st8" d="M335.7,238.7v-78h15.7v8.3c3.2-2.9,6.3-5.1,9.4-6.8c3.1-1.6,6.9-2.5,11.4-2.5v16.6c-1.5-0.6-3.1-0.9-4.8-0.9
			c-1.6,0-3.4,0.3-5.3,0.8c-1.9,0.6-3.6,1.5-5.2,2.8s-3,3.1-4,5.2c-1,2.2-1.5,4.8-1.5,8v46.3h-15.7V238.7z"/>
		<rect x="249.5" y="223.9" class="st8" width="23.4" height="15"/>
		<path class="st8" d="M296.4,238.7V223h15.7v15.7H296.4z"/>
		<g>
			<path class="st8" d="M221.1,80.2c0,0,10.9-39.7,56.3-31.8c0,0-37,4.5-38.5,34.5c0,0,50.7-15.7,72.7,50.3c0,0-22.5-30.2-67.9-31.9
				c0,0,30.9,11,33.6,49.1c0,0-17.8-33.4-46-38c0,0-37.3,4.5-49.6,23.1c0,0,6.2-23.4,27.6-31.3c0,0-49.2-7.3-77.4,9.3
				c0,0,26.2-29.3,71.8-26.5c0,0-5.4-17.8-36.6-33.3C167.1,53.7,208.3,56.8,221.1,80.2z"/>
			<g>
				<path class="st8" d="M222.6,80.6c1.8-6.4,5.7-12.5,10-17.4c11.4-12.7,27.9-15.9,44.3-13.3c0.1-1,0.3-2.1,0.4-3.1
					c-19.5,2.5-38.6,15.1-40,36.1c-0.1,1,1.1,1.8,2,1.5c8.3-2.5,18-2,26.3,0.1c23.4,6.1,37,27.4,44.4,49c1-0.4,1.9-0.8,2.9-1.2
					c-15.7-20.9-43.9-31.5-69.2-32.7c-1.9-0.1-2,2.5-0.4,3.1c19.5,7.1,30.8,28,32.5,47.6c1-0.3,1.9-0.5,2.9-0.8
					c-3.5-6.5-8.2-12.6-13.1-18.1c-8.1-9-20.4-19.4-33-20.5c-7-0.6-15.2,2.3-21.8,4.4c-11.5,3.6-23.3,9.1-30.3,19.2
					c1,0.4,1.9,0.8,2.9,1.2c3.6-13.3,13.7-25.1,26.5-30.2c1.2-0.5,1.7-2.8,0-3c-25.4-3.7-55.9-3.5-78.6,9.5c0.6,0.8,1.3,1.6,1.9,2.5
					c17.2-19.1,45.8-27.3,70.7-26c1,0.1,1.8-1,1.5-2c-5-15.9-23.6-27.2-37.4-34.2c-0.3,1-0.5,1.9-0.8,2.9
					c18.8,1.5,42.7,8.4,52.7,25.7c1,1.7,3.7,0.2,2.7-1.6C212,60.9,187.2,53.6,167.2,52c-1.5-0.1-2.1,2.2-0.8,2.9
					c12.9,6.5,31.2,17.2,35.9,32.3c0.5-0.7,1-1.3,1.5-2c-25.7-1.3-55.1,7.2-72.9,26.9c-1.2,1.3,0.3,3.4,1.9,2.5
					c22-12.5,51.7-12.7,76.2-9.1c0-1,0-2,0-3c-13.8,5.5-24.8,18-28.7,32.4c-0.5,1.8,1.9,2.6,2.9,1.2c7.1-10.1,19.6-15.2,31-18.6
					c6.4-1.9,14.1-4.7,20.7-2.9c17.8,4.7,32.7,20.6,41.2,36.5c0.7,1.3,3.1,0.8,2.9-0.8c-1.8-21.1-13.9-43-34.8-50.6
					c-0.1,1-0.3,2.1-0.4,3.1c24.1,1.1,51.9,11.7,66.5,31.1c1,1.3,3.5,0.6,2.9-1.2c-7.6-22.1-21.3-43.6-44.8-50.7
					c-9.3-2.8-20.4-3.5-29.8-0.7c0.7,0.5,1.3,1,2,1.5c1.4-19.3,19.7-30.8,36.9-32.9c1.6-0.2,2.3-2.8,0.4-3.1
					c-16.7-2.7-33.7,0.2-46,12.6c-5.4,5.5-10.1,12.7-12.2,20.3C219,81.7,222.1,82.5,222.6,80.6z"/>
			</g>
		</g>
		<g>
			<path class="st8" d="M148.8,267.3l2.6,2.8h-1.9l-1.7-1.9c-1.5,1.1-3.3,1.6-5.4,1.6c-2.2,0-3.9-0.7-5.3-2c-1.3-1.3-2-3-2-5.1
				c0-1.6,0.4-3.1,1.2-4.5s1.9-2.4,3.3-3.2c1.4-0.8,2.9-1.2,4.6-1.2c2.1,0,3.9,0.7,5.2,2c1.4,1.3,2,3,2,5.1
				C151.4,263.5,150.5,265.6,148.8,267.3z M147.8,266.2c0.7-0.7,1.2-1.5,1.6-2.4c0.4-0.9,0.6-1.9,0.6-2.9c0-1.6-0.5-3-1.6-4
				c-1.1-1-2.5-1.6-4.2-1.6c-1.4,0-2.6,0.3-3.8,1s-2,1.5-2.7,2.7s-1,2.4-1,3.7c0,1.1,0.2,2.1,0.7,3s1.1,1.6,2,2
				c0.9,0.5,1.8,0.7,3,0.7c1.6,0,3-0.4,4.3-1.3l-2.5-2.7h1.9L147.8,266.2z"/>
			<path class="st8" d="M155.4,258.2h1.4l-0.7,4.7c-0.2,1.4-0.3,2.3-0.3,2.6c0,0.8,0.3,1.5,0.8,2.1c0.5,0.5,1.2,0.8,2.1,0.8
				c0.7,0,1.3-0.2,1.9-0.6c0.5-0.4,0.9-1,1.1-1.6c0.1-0.3,0.2-1.1,0.4-2.3l0.8-5.6h1.4l-0.5,4.3c-0.3,2-0.5,3.5-0.8,4.3
				c-0.3,0.9-0.8,1.6-1.6,2.1c-0.7,0.5-1.7,0.8-2.7,0.8c-1.2,0-2.2-0.4-3-1.2c-0.8-0.8-1.2-1.8-1.2-3c0-0.5,0-1,0.1-1.7l0.1-1
				l0.1-0.4L155.4,258.2z"/>
			<path class="st8" d="M177.2,269.5h-1.5l0.2-1.7c-1.3,1.3-2.8,2-4.5,2c-1.5,0-2.8-0.5-3.8-1.5s-1.5-2.3-1.5-3.8
				c0-1.8,0.6-3.3,1.9-4.6c1.3-1.3,2.8-1.9,4.5-1.9c0.9,0,1.8,0.2,2.5,0.6s1.3,1,1.8,1.8l0.3-2.1h1.5L177.2,269.5z M171.6,268.4
				c0.9,0,1.8-0.2,2.5-0.7c0.8-0.4,1.4-1.1,1.8-1.9c0.4-0.8,0.7-1.7,0.7-2.7c0-1.2-0.4-2.1-1.1-2.8c-0.7-0.7-1.7-1.1-2.9-1.1
				c-1.4,0-2.6,0.5-3.5,1.5c-1,1-1.5,2.2-1.5,3.7c0,1.2,0.4,2.2,1.1,2.9C169.5,268.1,170.5,268.4,171.6,268.4z"/>
			<path class="st8" d="M182,258.2h1.4l-0.2,1.7c1.1-1.4,2.5-2,4-2c1.2,0,2.1,0.4,2.8,1.1s1.1,1.7,1.1,2.9c0,0.5-0.1,1.3-0.2,2.4
				l-0.7,5.2h-1.4l0.7-5.2c0.1-1.1,0.2-1.9,0.2-2.4c0-0.8-0.2-1.4-0.7-1.9s-1.1-0.7-1.9-0.7c-0.8,0-1.5,0.2-2.1,0.6
				s-1.2,0.9-1.5,1.6c-0.4,0.7-0.6,1.7-0.8,3.2l-0.6,4.9h-1.4L182,258.2z"/>
			<path class="st8" d="M204.6,269.5h-1.5l0.2-1.7c-1.3,1.4-2.8,2-4.5,2c-1.5,0-2.8-0.5-3.7-1.5s-1.5-2.3-1.5-3.8
				c0-1.8,0.6-3.3,1.9-4.6c1.3-1.3,2.8-1.9,4.5-1.9c0.9,0,1.8,0.2,2.5,0.6s1.3,1,1.8,1.8l0.9-6.5h1.5L204.6,269.5z M199,268.4
				c0.9,0,1.8-0.2,2.5-0.7c0.8-0.4,1.4-1.1,1.8-1.9c0.4-0.8,0.7-1.7,0.7-2.7c0-1.2-0.4-2.1-1.1-2.8c-0.7-0.7-1.7-1.1-2.9-1.1
				c-1.4,0-2.6,0.5-3.5,1.5c-1,1-1.5,2.2-1.5,3.7c0,1.2,0.4,2.2,1.1,2.9C196.9,268.1,197.8,268.4,199,268.4z"/>
			<path class="st8" d="M215.6,253.9h1.4l-2.1,15.6h-1.4L215.6,253.9z"/>
			<path class="st8" d="M229.1,269.5h-1.5l0.2-1.7c-1.3,1.3-2.8,2-4.5,2c-1.5,0-2.8-0.5-3.8-1.5s-1.5-2.3-1.5-3.8
				c0-1.8,0.6-3.3,1.9-4.6c1.3-1.3,2.8-1.9,4.5-1.9c0.9,0,1.8,0.2,2.5,0.6s1.3,1,1.8,1.8l0.3-2.1h1.5L229.1,269.5z M223.6,268.4
				c0.9,0,1.8-0.2,2.5-0.7c0.8-0.4,1.4-1.1,1.8-1.9c0.4-0.8,0.7-1.7,0.7-2.7c0-1.2-0.4-2.1-1.1-2.8c-0.7-0.7-1.7-1.1-2.9-1.1
				c-1.4,0-2.6,0.5-3.5,1.5c-1,1-1.5,2.2-1.5,3.7c0,1.2,0.4,2.2,1.1,2.9C221.4,268.1,222.4,268.4,223.6,268.4z"/>
			<path class="st9" d="M250.3,260.5l-2.3,1.3c-0.4-0.5-0.9-0.8-1.3-1c-0.4-0.2-0.9-0.3-1.5-0.3c-1.1,0-1.9,0.3-2.6,0.9
				c-0.7,0.6-1,1.4-1,2.4s0.3,1.7,0.9,2.3c0.6,0.6,1.5,0.9,2.5,0.9c1.3,0,2.2-0.4,2.9-1.3l2.2,1.5c-1.2,1.6-2.9,2.4-5.1,2.4
				c-2,0-3.5-0.6-4.6-1.8c-1.1-1.2-1.7-2.5-1.7-4.1c0-1.1,0.3-2.1,0.8-3s1.3-1.6,2.3-2.2c1-0.5,2.1-0.8,3.3-0.8c1.1,0,2.1,0.2,3,0.7
				C249,259.1,249.7,259.7,250.3,260.5z"/>
			<path class="st9" d="M258.1,257.9c1.1,0,2.1,0.3,3,0.8s1.7,1.2,2.2,2.2c0.5,0.9,0.8,1.9,0.8,2.9c0,1.1-0.3,2.1-0.8,3
				s-1.2,1.6-2.2,2.2s-1.9,0.8-3,0.8c-1.6,0-3-0.6-4.1-1.7s-1.7-2.5-1.7-4.2c0-1.8,0.6-3.2,1.9-4.4
				C255.4,258.5,256.7,257.9,258.1,257.9z M258.2,260.6c-0.9,0-1.6,0.3-2.2,0.9s-0.9,1.4-0.9,2.3c0,1,0.3,1.8,0.9,2.4
				c0.6,0.6,1.3,0.9,2.2,0.9c0.9,0,1.6-0.3,2.2-0.9s0.9-1.4,0.9-2.4s-0.3-1.7-0.9-2.3C259.8,260.9,259.1,260.6,258.2,260.6z"/>
			<path class="st9" d="M266.4,258.2h2.8v1.3c0.5-0.5,1-0.9,1.6-1.2c0.6-0.3,1.2-0.4,1.9-0.4c0.7,0,1.3,0.2,1.9,0.5s1,0.8,1.4,1.5
				c0.4-0.7,1-1.2,1.6-1.5c0.7-0.3,1.4-0.5,2.1-0.5c0.8,0,1.5,0.2,2.1,0.6s1,0.9,1.3,1.5s0.4,1.6,0.4,2.9v6.6h-2.8v-5.7
				c0-1.3-0.2-2.1-0.5-2.6s-0.8-0.7-1.4-0.7c-0.5,0-0.9,0.1-1.3,0.4s-0.7,0.7-0.9,1.1s-0.3,1.3-0.3,2.3v5.1h-2.8V264
				c0-1-0.1-1.7-0.2-2.2s-0.4-0.8-0.7-1c-0.3-0.2-0.7-0.3-1.1-0.3c-0.5,0-0.9,0.1-1.3,0.4s-0.7,0.7-0.9,1.2
				c-0.2,0.5-0.3,1.3-0.3,2.4v5h-2.8v-11.3H266.4z"/>
			<path class="st8" d="M292.9,258.2h1.5l-0.2,1.7c1.3-1.3,2.8-2,4.4-2c1.5,0,2.8,0.5,3.8,1.5s1.5,2.3,1.5,3.8
				c0,1.8-0.6,3.3-1.9,4.6c-1.3,1.3-2.8,1.9-4.5,1.9c-0.9,0-1.8-0.2-2.5-0.6s-1.3-1-1.8-1.8l-0.8,6.3h-1.5L292.9,258.2z
				 M298.4,259.3c-0.9,0-1.8,0.2-2.5,0.7c-0.8,0.4-1.4,1.1-1.8,1.9s-0.7,1.7-0.7,2.7c0,1.2,0.4,2.1,1.1,2.8c0.7,0.7,1.7,1.1,2.9,1.1
				c1.4,0,2.6-0.5,3.5-1.5c1-1,1.5-2.2,1.5-3.7c0-1.2-0.4-2.2-1.1-2.9C300.6,259.6,299.6,259.3,298.4,259.3z"/>
			<path class="st8" d="M312.2,257.9c1,0,1.8,0.2,2.6,0.7c0.8,0.5,1.4,1.1,1.9,1.9s0.7,1.7,0.7,2.8c0,1.2-0.3,2.3-0.9,3.3
				s-1.3,1.8-2.3,2.3c-1,0.6-2.1,0.8-3.3,0.8c-1.5,0-2.7-0.5-3.7-1.5s-1.5-2.2-1.5-3.8c0-1.2,0.3-2.3,0.9-3.3s1.4-1.8,2.3-2.4
				C310,258.2,311,257.9,312.2,257.9z M312.2,259.3c-0.9,0-1.7,0.2-2.5,0.7c-0.8,0.4-1.4,1.1-1.8,1.8c-0.4,0.8-0.6,1.6-0.6,2.6
				c0,1.2,0.4,2.1,1.1,2.9c0.7,0.7,1.7,1.1,2.8,1.1c0.9,0,1.7-0.2,2.5-0.6c0.7-0.4,1.3-1.1,1.8-1.9c0.4-0.8,0.7-1.7,0.7-2.6
				c0-0.8-0.2-1.5-0.5-2.1s-0.8-1.1-1.4-1.4C313.5,259.5,312.9,259.3,312.2,259.3z"/>
			<path class="st8" d="M320.4,258.2h1.4l-0.2,1.4c0.4-0.5,0.9-1,1.4-1.3s1.1-0.4,1.7-0.4c0.4,0,0.8,0.1,1.3,0.3l-0.7,1.3
				c-0.4-0.1-0.7-0.2-0.9-0.2c-0.5,0-1,0.2-1.5,0.5s-0.9,0.9-1.2,1.5c-0.3,0.7-0.6,1.8-0.8,3.3l-0.7,4.8h-1.4L320.4,258.2z"/>
			<path class="st8" d="M329.1,254h1.4l-0.6,4.2h2.3l-0.2,1.3h-2.3l-1.3,10H327l1.3-10h-1.9l0.2-1.3h1.9L329.1,254z"/>
			<path class="st8" d="M344.6,264.1h-10c0,1.3,0.3,2.4,1,3.2c0.7,0.8,1.7,1.1,2.9,1.1c0.8,0,1.5-0.2,2.2-0.5s1.2-0.8,1.7-1.4
				l1.1,0.9c-0.5,0.7-1.3,1.3-2.1,1.7c-0.9,0.4-1.8,0.6-2.8,0.6c-1.8,0-3.1-0.5-4-1.6s-1.3-2.3-1.3-3.7c0-1.1,0.3-2.2,0.9-3.2
				s1.4-1.8,2.4-2.4s2.1-0.9,3.2-0.9c1.4,0,2.6,0.5,3.6,1.5c0.9,1,1.4,2.2,1.4,3.7C344.7,263.4,344.6,263.7,344.6,264.1z
				 M343.3,262.9c0-1.1-0.4-1.9-1.1-2.6s-1.5-1-2.6-1s-2.1,0.3-3,0.9s-1.5,1.5-1.8,2.6h8.5V262.9z"/>
			<path class="st8" d="M359.3,259.5l-0.8,1.2c-0.6-0.9-1.4-1.4-2.3-1.4c-0.5,0-0.9,0.2-1.3,0.5s-0.5,0.7-0.5,1.1
				c0,0.3,0.1,0.6,0.3,0.9c0.2,0.3,0.7,0.7,1.4,1.1c1.1,0.7,1.8,1.3,2.1,1.8c0.3,0.5,0.5,1.1,0.5,1.8c0,0.9-0.3,1.7-1,2.3
				c-0.7,0.6-1.5,0.9-2.6,0.9c-1.4,0-2.6-0.6-3.5-1.8l0.9-1c0.8,1,1.7,1.5,2.7,1.5c0.6,0,1-0.2,1.5-0.6c0.4-0.4,0.6-0.8,0.6-1.4
				c0-0.4-0.2-0.8-0.5-1.2c-0.2-0.2-0.7-0.7-1.6-1.3c-0.9-0.6-1.6-1.2-1.9-1.6s-0.4-0.9-0.4-1.4c0-0.8,0.3-1.5,0.9-2.1
				s1.4-0.9,2.4-0.9c0.6,0,1.1,0.1,1.5,0.3C358.4,258.5,358.9,258.9,359.3,259.5z"/>
			<path class="st8" d="M372.4,264.1h-10c0,1.3,0.3,2.4,1,3.2c0.7,0.8,1.7,1.1,2.9,1.1c0.8,0,1.5-0.2,2.2-0.5s1.2-0.8,1.7-1.4
				l1.1,0.9c-0.5,0.7-1.3,1.3-2.1,1.7c-0.9,0.4-1.8,0.6-2.8,0.6c-1.8,0-3.1-0.5-4-1.6s-1.3-2.3-1.3-3.7c0-1.1,0.3-2.2,0.9-3.2
				s1.4-1.8,2.4-2.4s2.1-0.9,3.2-0.9c1.4,0,2.6,0.5,3.6,1.5c0.9,1,1.4,2.2,1.4,3.7C372.5,263.4,372.5,263.7,372.4,264.1z
				 M371.1,262.9c0-1.1-0.4-1.9-1.1-2.6s-1.5-1-2.6-1s-2.1,0.3-3,0.9s-1.5,1.5-1.8,2.6h8.5V262.9z"/>
			<path class="st8" d="M381.3,259.5l-0.8,1.2c-0.6-0.9-1.4-1.4-2.3-1.4c-0.5,0-0.9,0.2-1.3,0.5s-0.5,0.7-0.5,1.1
				c0,0.3,0.1,0.6,0.3,0.9c0.2,0.3,0.7,0.7,1.4,1.1c1.1,0.7,1.8,1.3,2.1,1.8c0.3,0.5,0.5,1.1,0.5,1.8c0,0.9-0.3,1.7-1,2.3
				c-0.7,0.6-1.5,0.9-2.6,0.9c-1.4,0-2.6-0.6-3.5-1.8l0.9-1c0.8,1,1.7,1.5,2.7,1.5c0.6,0,1-0.2,1.5-0.6c0.4-0.4,0.6-0.8,0.6-1.4
				c0-0.4-0.2-0.8-0.5-1.2c-0.2-0.2-0.7-0.7-1.6-1.3c-0.9-0.6-1.6-1.2-1.9-1.6s-0.4-0.9-0.4-1.4c0-0.8,0.3-1.5,0.9-2.1
				s1.4-0.9,2.4-0.9c0.6,0,1.1,0.1,1.5,0.3C380.4,258.5,380.8,258.9,381.3,259.5z"/>
			<path class="st8" d="M395.1,254.3l-0.2,1.4c-0.5-0.5-1-0.7-1.5-0.7c-0.3,0-0.5,0.1-0.8,0.4c-0.2,0.3-0.4,0.8-0.5,1.7l-0.2,1.2
				h2.4l-0.2,1.3h-2.4l-1.3,10H389l1.4-10H389l0.2-1.3h1.4l0.1-1c0.2-1.2,0.3-1.9,0.5-2.3c0.2-0.4,0.5-0.7,0.8-0.9
				c0.4-0.2,0.8-0.4,1.2-0.4C393.9,253.6,394.5,253.8,395.1,254.3z"/>
			<path class="st8" d="M396.2,258.2h1.4l-0.2,1.4c0.4-0.5,0.9-1,1.4-1.3s1.1-0.4,1.7-0.4c0.4,0,0.8,0.1,1.3,0.3l-0.7,1.3
				c-0.4-0.1-0.7-0.2-0.9-0.2c-0.5,0-1,0.2-1.5,0.5s-0.9,0.9-1.2,1.5c-0.3,0.7-0.6,1.8-0.8,3.3l-0.7,4.8h-1.4L396.2,258.2z"/>
			<path class="st8" d="M403.8,258.2h1.4l-0.7,4.7c-0.2,1.4-0.3,2.3-0.3,2.6c0,0.8,0.3,1.5,0.8,2.1c0.5,0.5,1.2,0.8,2.1,0.8
				c0.7,0,1.3-0.2,1.9-0.6c0.5-0.4,0.9-1,1.1-1.6c0.1-0.3,0.2-1.1,0.4-2.3l0.8-5.6h1.4l-0.5,4.3c-0.3,2-0.5,3.5-0.8,4.3
				c-0.3,0.9-0.8,1.6-1.6,2.1s-1.7,0.8-2.7,0.8c-1.2,0-2.2-0.4-3-1.2c-0.8-0.8-1.2-1.8-1.2-3c0-0.5,0-1,0.1-1.7l0.1-1l0.1-0.4
				L403.8,258.2z"/>
			<path class="st8" d="M415.7,258.2h1.4l-1.5,11.2h-1.4L415.7,258.2z M416.8,253.6c0.3,0,0.6,0.1,0.8,0.3c0.2,0.2,0.3,0.5,0.3,0.8
				s-0.1,0.6-0.3,0.8c-0.2,0.2-0.5,0.3-0.8,0.3s-0.6-0.1-0.8-0.3s-0.3-0.5-0.3-0.8s0.1-0.6,0.3-0.8
				C416.2,253.7,416.5,253.6,416.8,253.6z"/>
			<path class="st8" d="M422,254h1.4l-0.6,4.2h2.3l-0.2,1.3h-2.3l-1.3,10h-1.4l1.3-10h-1.9l0.2-1.3h1.9L422,254z"/>
			<path class="st8" d="M432.6,259.5l-0.8,1.2c-0.6-0.9-1.4-1.4-2.3-1.4c-0.5,0-0.9,0.2-1.3,0.5s-0.5,0.7-0.5,1.1
				c0,0.3,0.1,0.6,0.3,0.9c0.2,0.3,0.7,0.7,1.4,1.1c1.1,0.7,1.8,1.3,2.1,1.8c0.3,0.5,0.5,1.1,0.5,1.8c0,0.9-0.3,1.7-1,2.3
				c-0.7,0.6-1.5,0.9-2.6,0.9c-1.4,0-2.6-0.6-3.5-1.8l0.9-1c0.8,1,1.7,1.5,2.7,1.5c0.6,0,1-0.2,1.5-0.6c0.4-0.4,0.6-0.8,0.6-1.4
				c0-0.4-0.2-0.8-0.5-1.2c-0.2-0.2-0.7-0.7-1.6-1.3c-0.9-0.6-1.6-1.2-1.9-1.6s-0.4-0.9-0.4-1.4c0-0.8,0.3-1.5,0.9-2.1
				s1.4-0.9,2.4-0.9c0.6,0,1.1,0.1,1.5,0.3C431.7,258.5,432.1,258.9,432.6,259.5z"/>
			<path class="st8" d="M441.6,267.2c0.4,0,0.6,0.1,0.9,0.4c0.2,0.2,0.4,0.5,0.4,0.9c0,0.3-0.1,0.6-0.4,0.9s-0.5,0.4-0.9,0.4
				s-0.6-0.1-0.9-0.4c-0.2-0.2-0.4-0.5-0.4-0.9c0-0.3,0.1-0.6,0.4-0.9C441,267.4,441.3,267.2,441.6,267.2z M442.8,253.9h1.4
				l-1.6,11.8h-1.4L442.8,253.9z"/>
		</g>
		<g>
			<path class="st8" d="M142.6,181.9c-2.3,9.3-9.5,20.2-18,23.1c-1,0.3-2.3,0.7-4,0.7c-3.7,0-7.8-1.6-10.9-5.7
				c-2.1-2.8-3.1-6.1-3.1-9.7c0-4.9,1.8-10.4,4.7-15.6c5-8.9,12.1-14.5,19.4-14.5c3.2,0,5.2,1.2,7.4,4.1c3.1,3.7,6.3,4.5,5.2,14
				c2.9,0,3.1,1,2.2,2.1C144.7,181.2,143.8,181.7,142.6,181.9z M117.9,200c2.9,0,7.4-4.1,11.5-11.7c1.7-2.9,3-5.7,3.7-8
				c-3.6-2.2-5.9-5.1-6.8-9c-2.3,2.2-4.5,5-6.4,8.4c-2.9,5.4-4.7,11.6-4.7,15.7C115.2,198.6,116.2,200,117.9,200z M136.5,169.3
				c0-1.7-0.9-2.3-1.7-2.3c-0.7,0-1.7,0.9-1.7,2.7c0,2,0.6,4.9,1.8,6.4C136,173.4,136.5,170.7,136.5,169.3z"/>
			<path class="st8" d="M204.2,181.9c-2.3,9.3-9.5,20.2-18,23.1c-1,0.3-2.3,0.7-4,0.7c-3.7,0-7.8-1.6-10.9-5.7
				c-2.1-2.8-3.1-6.1-3.1-9.7c0-4.9,1.8-10.4,4.7-15.6c5-8.9,12.1-14.5,19.4-14.5c3.2,0,5.2,1.2,7.4,4.1c3.1,3.7,6.3,4.5,5.2,14
				c2.9,0,3.1,1,2.2,2.1C206.4,181.2,205.5,181.7,204.2,181.9z M179.6,200c2.9,0,7.4-4.1,11.5-11.7c1.7-2.9,3-5.7,3.7-8
				c-3.6-2.2-5.9-5.1-6.8-9c-2.3,2.2-4.5,5-6.4,8.4c-2.9,5.4-4.7,11.6-4.7,15.7C176.9,198.6,177.9,200,179.6,200z M198.1,169.3
				c0-1.7-0.9-2.3-1.7-2.3c-0.7,0-1.7,0.9-1.7,2.7c0,2,0.6,4.9,1.8,6.4C197.6,173.4,198.1,170.7,198.1,169.3z"/>
		</g>
		<g class="st10">
			<path class="st8" d="M164.3,199.8c1.1,2.5-0.1,5.3-1.5,8.2c-0.6,1.1-1.1,2.3-1.4,3.1c-0.5,1.4-1.2,1.6-2.7,0.8
				c-1.4-0.8-2.6-2.3-2.6-4.3c0-1,0.4-2.5,1.7-5.6c0.8-1.5,1.3-2.9,1-3.2c-0.9-0.8-5.8,4.1-8.8,10.2c-1.5,3.1-2.3,6.2-2.3,8.4
				c0,3.3,1.4,5.3,3.4,5.4c5.6,0.1,10.8-5.7,13.8-10.2c0.7-1.1,1.8-1.4,2.3-0.2c0.4,1,0.4,2.9-1,5c-2.9,4.5-8.9,8.2-14.8,8.3
				c-6.9,0.1-10.8-4.4-10.8-10.4c0-2.7,0.8-5.7,2.3-8.7c3.8-7.7,9.8-11.8,14.1-11.8C159.9,195,163.1,197.6,164.3,199.8z"/>
		</g>
		<g>
			<path class="st0" d="M140.2,233c22.3,9.8,50.8,1.4,68.9-13.2c2.4-1.9-1-5.2-3.3-3.3c-16.2,13.1-43.1,21.3-63.2,12.4
				C139.9,227.7,137.5,231.8,140.2,233L140.2,233z"/>
		</g>
	</g>
</g>
</svg>
