<svg id="83143079-3845-491e-8f52-f03027bb8866" data-name="Calque 1" xmlns="http://www.w3.org/2000/svg" viewBox="0 0 470.37 627.68"><defs><style>.\39 c1f3bae-5ae5-4d5a-bb02-818e691ebc52{fill:#2d3981;}.c02ff99d-98d3-41af-a9e3-e058a5913449{fill:#f18b64;}.\36 c913c7d-2ae4-4adb-acfc-4835c6ea5f92{fill:#d83c49;}.\36 66e9128-1ca2-407f-b03e-f4f23331b20b{fill:#efa78e;}.\36 457d940-8d76-4040-a591-02bd1c3f2ffc{fill:#d9856f;}.e15d64ad-6ce9-4a57-820b-d0ebaf9aefc1{fill:#384093;}.\39 1996fca-e3c6-4cc9-8aa1-6ceefa75c87d{fill:none;}.\30 77c9415-f337-4cc9-9933-9f5874b22b91{fill:#e9474d;}.\32 f346c15-62f4-4d91-bf98-dc3ddfc400f8,.cbe72fd8-6455-44a7-b085-e1853b931304,.fca054c6-0433-4600-a74d-2c8490c8bd00{fill:#fff;}.fca054c6-0433-4600-a74d-2c8490c8bd00{stroke:#fff;stroke-miterlimit:10;stroke-width:0.5px;}.cbe72fd8-6455-44a7-b085-e1853b931304{font-size:75.27px;font-family:SignPainter-HouseScriptSemibold, SignPainter;font-weight:700;}</style></defs><title>1-1</title><path class="9c1f3bae-5ae5-4d5a-bb02-818e691ebc52" d="M-263,30.08s4.13,8.36,2.7,8.52S-267,36.92-267,36.92Z" transform="translate(507.37 39.66)"/><path class="c02ff99d-98d3-41af-a9e3-e058a5913449" d="M-37,259.48v-.43c0-.33,0-.67,0-1,0-1.72-.12-3.23-.21-4.62a143.62,143.62,0,0,0-18.21-61.54c-11.29-19.83-27-35.42-45.45-45.11-9.18-4.81-19.07-8.07-28.82-10.67.65,6.09-8.9,6-9.58,0a30.14,30.14,0,0,1,.7-11.7c.11-.4.23-.8.35-1.19-4.52,3.47-8.72,7.38-13.15,11a4.77,4.77,0,0,1-7.76-5.1c-1.5.69-3,1.33-4.58,1.87a3.85,3.85,0,0,1-1,.19,21.19,21.19,0,0,1-2.48,3.36c-1.83,2-4.9,1.67-6.77,0a32.7,32.7,0,0,1-4.17-4.64c-.79.73-1.61,1.43-2.47,2.09-2,1.54-4.85,2.06-6.77,0-3.54-3.79-4.74-7.67-10-9.38a32.84,32.84,0,0,0-13.89-1.48,4.56,4.56,0,0,1-3,2.77c-5.44,1.75-9,4.86-12.34,9.41-3,4.16-7.85,4.12-11.53,7.38-3,2.65-8.26,1-8.17-3.39a74.06,74.06,0,0,1,1.32-10.87c-1.07.17-2.15.29-3.24.42a3.79,3.79,0,0,1-3-1c-3.94-.6-6.24,0-4-2.57l.41-5.47c0-.26,0-.53,0-.79l.27-.9a9,9,0,0,0,1.16-.07c6.23-.64,12.22-5.55,14.93-10.06a10.36,10.36,0,0,0,.52-.92c.56.83,2.93-7.7,3.46-6.86,1.14-1.13,1,7.66,2.59,8a4.18,4.18,0,0,1-.07-.72c-.21-8.55-3.32-18.46-8.92-25.08-4.62-5.48-11.35-8.68-16.18-14a4.86,4.86,0,0,1,3.38-8.18c14.58-1.06,29.19,4.37,42.2,10.36l2.68,1.23c-3-4.9-6.24-9.79-10.41-13.73C-232,44-252.13,41-268.81,41.87c-6.18.31-6.14-9.27,0-9.58l.77,0a5.5,5.5,0,0,1,.52-1.11c6.54-10.69,16.82-16.5,27.76-21.34A75.6,75.6,0,0,0-248.38,12,4.65,4.65,0,0,1-253,10.77a5,5,0,0,0-1.28-1.28.08.08,0,0,1,0,0,4.87,4.87,0,0,1-1.3.17c-4.73,0-5.83-5.62-3.31-8.25a71.46,71.46,0,0,0-40-20.11,123.31,123.31,0,0,1,9.37-13.62L-286-37h-6.13a78.16,78.16,0,0,0-43,12.81,39.83,39.83,0,0,0-20.79-13l-9.65-2.43,6.87,7.2A24.43,24.43,0,0,1-355.26-28a123.1,123.1,0,0,0-99.66,12.56L-463.84-10l36.15-.48C-454.28-.72-475.14,19.6-495.8,41.39l-6.8,7.18,9.58-2.41a101.55,101.55,0,0,1,45.09-1A86.48,86.48,0,0,0-463.57,55l-8.1,6.4,10.24-1.29a155.17,155.17,0,0,1,45.8,1A92.18,92.18,0,0,0-429,88a7.14,7.14,0,0,1-.09.93c-.08.48-.16,1-.23,1.44,0,.14,0,.29-.07.43-.08.82-.16,1.63-.17,2.45a4.81,4.81,0,0,1-3.86,4.66c-.23,1.69-.52,3.36-.85,5A4.34,4.34,0,0,1-432,107c-.26,2.18-.51,4.4-.66,6.63a4.78,4.78,0,0,1,.82,2.63c0,.5,0,1,0,1.52a4.61,4.61,0,0,1,.81,2.63c0,1.3.34,2,.16,3.27l1.4,7.93.07.08a139,139,0,0,0,11.71,29c4.5,8.46,9.48,17.33,16.46,24.64a68.67,68.67,0,0,0,5.33,5,194.6,194.6,0,0,0-39,12.41c-24.72,11.1-44.07,27.74-56,48.12-8.16,14-13.17,26.19-15.32,37.33-2.68,13.87-.29,28.11,2.66,40.49a4.93,4.93,0,0,1,.55,0c3.31,0,4.84,2.75,4.6,5.3h8.83a40.65,40.65,0,0,0,1.86,9.83,42.21,42.21,0,0,0,9.06,15.41c.08.1,8.6,9.23,15.68,8.64a6.7,6.7,0,0,0,5-2.74,7.62,7.62,0,0,0,4.94.33,9,9,0,0,0,2.78-1.19l.7.23a14.28,14.28,0,0,0,13.7,3.72,15.24,15.24,0,0,0,8.51-6.93,7.72,7.72,0,0,0,3.42,3.5,9,9,0,0,0,8.25-.12,14.65,14.65,0,0,0,6.43-7.2,46.7,46.7,0,0,0,4-18.15,41.44,41.44,0,0,0-.25-5.33h92.39c-5.92,2.69-11.54,5.44-17,8.29l-.22.11c-1.72.91-3.44,1.84-5.14,2.79l-.73.39c-1.58.88-3.14,1.78-4.71,2.7l-.47.27-.58.33c-1.92,1.13-3.82,2.28-5.64,3.42a255.08,255.08,0,0,0-50.33,40.94c-1.86,2-3.75,4.08-5.63,6.28l-.78.94-.1.12c-1.35,1.61-2.66,3.24-3.89,4.84l-1.14,1.51-.1.12c-1.08,1.45-2.17,3-3.26,4.53l-.41.59-.9,1.32c-.26.38-.51.77-.76,1.15l-.64,1-.8,1.23-3.53,5.55.16,0-.11.18q-1.56,2.64-3.1,5.28l-1.64,2.8c-.67,1.15-1.35,2.29-2,3.44l-1.05,1.73-1.12,1.82-1,1.55c-.44.7-.89,1.39-1.35,2.08l-.82,1.23c-.9,1.34-1.6,2.34-2.27,3.27a136.88,136.88,0,0,0-16.18,28.45A189.91,189.91,0,0,0-460,505.09c-3.87,17.27-7.63,39.69-2.24,59.84,0,.21,6.46,21.46,15.95,23a6.93,6.93,0,0,0,1.14.09c2.08,0,4.73-.94,7.14-4.6s3.29-8.57,4-12.79l.16-.93c.79-4.65,1.24-9.32,1.55-12.86.25-2.91.44-5.87.61-8.81,8.55,7.06,18.93,4.1,28.17,1.47l.49-.1a8.34,8.34,0,0,0,1.67,2.44c2.13,2.09,5.2,2.57,7.67,3l1.07.18c8.45,1.52,14.31,0,17.46-4.5a9.61,9.61,0,0,0,5.75,4.06c4.86,1.17,10.69-.26,15.38-1.42l1.07-.26c6.42-1.56,11.2-4.2,14.64-8.08,3.29-3.72,5.35-8.21,7.35-12.54.39-.86.79-1.72,1.19-2.56.53-1.13,1.16-2.35,1.81-3.61,4.31-8.42,10.84-21.13.83-29.27a89.27,89.27,0,0,0,7.69-11.65c.6-1.15,1.21-2.29,1.83-3.41.16-.3.33-.59.49-.88l.25-.43c.37-.66.75-1.32,1.13-2l1-1.64.94-1.52q.57-.92,1.17-1.83l.72-1.07.07-.12c.46-.67.91-1.34,1.38-2l.55-.77a91.06,91.06,0,0,1,6.07-7.58c1.24-1.39,2.31-2.53,3.36-3.57l.17-.17.29-.27.38-.38c1.65-1.61,3.43-3.22,5.29-4.8l1.85-1.54c.68-.55,1.35-1.09,2.08-1.66.35-.27.72-.54,1.08-.8l.93-.69c.43-.33.85-.65,1.28-1l.67-.46c.69-.49,1.38-1,2.09-1.45l1.18-.8c.94-.62,1.88-1.23,2.84-1.83l.11-.07-1.56-2.42h0l1.66,2.35.26-.16c1.08-.68,2.17-1.33,3.24-2l.24-.14A197.13,197.13,0,0,1-258,430.69l.72-.32q1.92-.87,3.87-1.71l1.05-.45,3.6-1.52,1.19-.49c1.19-.49,2.38-1,3.58-1.44l1.39-.56,4.38-1.72c25.13-9.72,51.41-18.69,78.11-26.67,5.3-1.58,10.82-3.06,16.15-4.49,19.5-5.24,39.65-10.65,56.53-22.65q1.32-.94,2.61-1.92l.57-.44.28-.22,1.7-1.34.72-.59.26-.22c.5-.42,1-.84,1.5-1.27l.86-.75.15-.13,1.41-1.27,1-.93,1.35-1.29c.33-.32.66-.64,1-1l1.31-1.32.94-1c.44-.46.87-.93,1.29-1.39l.19-.2.7-.77,1.32-1.53.28-.31.5-.59c.51-.61,1-1.22,1.51-1.84l.52-.64c.67-.84,1.32-1.68,2-2.53l.44-.61c.49-.66,1-1.32,1.46-2l.42-.61.23-.33c.39-.57.79-1.14,1.17-1.71l.49-.74.2-.31c.36-.55.72-1.1,1.07-1.65l.62-1,.06-.1,1-1.66.65-1.11.18-.31c.1-.17.2-.33.29-.5s.13-.23.19-.34l.1-.19c.86-1.51,1.55-2.76,2.16-3.95l.1-.18c.67-1.29,1.34-2.64,2-4.13l.4-.85c.57-1.23,1.12-2.46,1.66-3.7l.35-.83c1.28-3,2.47-6.13,3.52-9.21l.17-.52c.44-1.31.88-2.67,1.3-4.06l.33-1.09c.36-1.22.7-2.45,1-3.69l.28-1.05c.43-1.68.8-3.2,1.13-4.65s.66-3.09,1-4.81l.17-1q.35-1.86.63-3.72l.21-1.4c.17-1.15.32-2.31.46-3.47l0-.38c0-.31.07-.62.11-.93.18-1.6.32-3.09.44-4.55v-.15c.12-1.47.21-3,.29-4.72,0-.29,0-.59,0-.88l0-.45c0-1.13.07-2.25.09-3.37,0-.54,0-1.07,0-1.59C-37,261.66-37,260.57-37,259.48Z" transform="translate(507.37 39.66)"/><polygon class="c02ff99d-98d3-41af-a9e3-e058a5913449" points="23.14 359.34 23.14 359.34 23.14 359.34 23.14 359.34"/><path class="9c1f3bae-5ae5-4d5a-bb02-818e691ebc52" d="M-264.1,45.44A4.69,4.69,0,0,1-267.46,41a3,3,0,0,1,0-.52c0-.07,0-.13,0-.2a5,5,0,0,1,1.19-3.11,4.6,4.6,0,0,1-.13-4.73c4.18-8,10.52-13.33,17.65-17.67a4.11,4.11,0,0,1-2.49-2.08,40.82,40.82,0,0,0-4.31-7.51,4.15,4.15,0,0,1-.32-.53A71.53,71.53,0,0,0-299-18.74a123.31,123.31,0,0,1,9.37-13.62L-286-37h-6.13a78.16,78.16,0,0,0-43,12.81,39.83,39.83,0,0,0-20.79-13l-9.65-2.43,6.87,7.2A24.43,24.43,0,0,1-355.26-28a123.1,123.1,0,0,0-99.66,12.56L-463.84-10l36.15-.48C-454.28-.72-475.14,19.6-495.8,41.39l-6.8,7.18,9.58-2.41a101.55,101.55,0,0,1,45.09-1A86.48,86.48,0,0,0-463.57,55l-8.1,6.4,10.24-1.29a155.17,155.17,0,0,1,45.8,1A92.11,92.11,0,0,0-429.25,88.7a3.93,3.93,0,0,1-.19,1.22c-1.07,3.31-1.78,6.71-2.71,10.06,0,.07-.05.13-.07.2-.62,3.56-1.68,7-2.19,10.61,2.81.06,4,1.92,3.07,5.48-1.06,4.16.24,10.54,1.66,14.54.29.89.51,3.24,1.17,4,0-.09,1.11-5.54,1.13-5.62a3.91,3.91,0,0,1,.57-1.34c1.54-4.66,8-3.68,9.15.16,6.08-1.36,12.11-3.37,17.79-4.86,14.61-3.85,29.32-7.16,43.82-11.45q22.71-6.71,44.89-15c11-4.14,24.45-7.3,33.81-15-.54-2.69,1-5.87,4.5-5.87a4.66,4.66,0,0,1,2.54.69c4.88-2.94,10.19-5.46,14-9.65,2.7-3,.76-6-.89-9.3C-259.28,53.41-261.84,49.51-264.1,45.44Z" transform="translate(507.37 39.66)"/><path class="c02ff99d-98d3-41af-a9e3-e058a5913449" d="M-302.49,455.08a49,49,0,0,0-6.43-9.57,5.17,5.17,0,0,1-1.11-5c-8.19-11-20.37-17.21-34.64-20a223.37,223.37,0,0,0-28.57-3.75c-8.75-.56-17.69-.47-26,2.34a5.16,5.16,0,0,1-.14,1.14,5.07,5.07,0,0,1-2.2,2.86,31.06,31.06,0,0,1-2.88,1.6,6.23,6.23,0,0,1-1.18.43l-.08.09a4.81,4.81,0,0,1-1.7,1.07,3.86,3.86,0,0,1-1.85.48,4.61,4.61,0,0,1-2.71.82h-10.72l-.15.25-1.64,2.8c-.67,1.15-1.35,2.29-2,3.44l-1.05,1.73-1.12,1.82-1,1.55c-.44.7-.89,1.39-1.35,2.08l-.82,1.23c-.9,1.34-1.6,2.34-2.27,3.27a136.88,136.88,0,0,0-16.18,28.45A189.91,189.91,0,0,0-460,505.09c-3.87,17.27-7.63,39.69-2.24,59.84,0,.21,6.46,21.46,15.95,23a6.93,6.93,0,0,0,1.14.09c2.08,0,4.73-.94,7.14-4.6s3.29-8.57,4-12.79l.16-.93c.79-4.65,1.24-9.32,1.55-12.86.25-2.91.44-5.87.61-8.81,8.55,7.06,18.93,4.1,28.17,1.47l.49-.1a8.34,8.34,0,0,0,1.67,2.44c2.13,2.09,5.2,2.57,7.67,3l1.07.18c8.45,1.52,14.31,0,17.46-4.5a9.61,9.61,0,0,0,5.75,4.06c4.86,1.17,10.69-.26,15.38-1.42l1.07-.26c6.42-1.56,11.2-4.2,14.64-8.08,3.29-3.72,5.35-8.21,7.35-12.54.39-.86.79-1.72,1.19-2.56.53-1.13,1.16-2.35,1.81-3.61,4.31-8.42,10.84-21.13.83-29.27a89.27,89.27,0,0,0,7.69-11.65c.6-1.15,1.21-2.29,1.83-3.41.16-.3.33-.59.49-.88l.25-.43c.37-.66.75-1.32,1.13-2l1-1.64.94-1.52q.57-.92,1.17-1.83l.72-1.07.07-.12c.46-.67.91-1.34,1.38-2l.55-.77a91.06,91.06,0,0,1,6.07-7.58c1.24-1.39,2.31-2.53,3.36-3.57l.17-.17.29-.27.38-.38.12-.11A4.16,4.16,0,0,1-302.49,455.08Z" transform="translate(507.37 39.66)"/><path class="6c913c7d-2ae4-4adb-acfc-4835c6ea5f92" d="M-473.09,341c-1.7-6.1-1.67-12.49-2.59-18.7-.3.28-.62.54-.94.81-1.24,1-2.56,2-3.87,2.89l-.45.33a5.28,5.28,0,0,1,.53,2.38,5.39,5.39,0,0,1,.36,4.35,1,1,0,0,1,0,.16s0,0,0,.17c0,.32,0,.64-.05,1-.05,1.09,0,2.18,0,3.27a4.71,4.71,0,0,1-3.14,4.43c2.94,5.92,6.42,12.16,11.93,15.83a22.47,22.47,0,0,0,2.92,1.58c.18-.94.32-1.87.41-2.82l-.66-2.15C-470.08,350-471.81,345.6-473.09,341Z" transform="translate(507.37 39.66)"/><path class="6c913c7d-2ae4-4adb-acfc-4835c6ea5f92" d="M-414.33,340.5c-.45-2.49-.72-5-1.16-7.5a12.06,12.06,0,0,1-4.73-3.71,37,37,0,0,0-1.4,8.85c-.37,5.61-.54,11.19-1.45,16.76-.19,1.14-.41,2.35-.67,3.57,5.62-3.88,9.49-9.59,9.82-16.87A3.66,3.66,0,0,1-414.33,340.5Z" transform="translate(507.37 39.66)"/><path class="6c913c7d-2ae4-4adb-acfc-4835c6ea5f92" d="M-211.6,60.37c-8-8.62-20.81-16.39-32.58-17.69a4.34,4.34,0,0,1-4.36,3.1c-1.4,0-2.8,0-4.2-.08,3.33,5.34,7.13,11.56,7.48,17.47a4.8,4.8,0,0,1,4.41,0c9.44,4.88,19.81,7,29.07,12.38,4.27,2.48,8.76,5,12.86,7.89C-200.94,75-206.06,66.36-211.6,60.37Z" transform="translate(507.37 39.66)"/><path class="6c913c7d-2ae4-4adb-acfc-4835c6ea5f92" d="M-233.84,99.52a38.25,38.25,0,0,0,1.76-4.24,6.5,6.5,0,0,1,.25-.61c-2.26-3.62-4.84-6.94-6.75-10.81-2.3-4.65-4.25-9.52-8.08-13.14l-.3-.31a.16.16,0,0,1,0,.07c-4.82,7.91-14.66,11.35-21.93,16.56C-278.49,96-291.62,99.41-303.55,104q-23.79,9.11-48.2,16.43c-15.44,4.61-31.12,8.12-46.68,12.26-6.6,1.75-13.68,4.06-20.77,5.37a4.83,4.83,0,0,1,.61,1.05,103.83,103.83,0,0,0,13.78,22.34c2.69,3.41,0,7.86-3.08,8.38,2.62,4.89,6.6,9.16,10.9,11.22a5.41,5.41,0,0,1,.94.6,4.93,4.93,0,0,1,2.11-.45,4.53,4.53,0,0,1,2.93,1l.39.27a4.59,4.59,0,0,1,1.61,1.16c.4.29.8.59,1.18.91s.85.76,1.27,1.13l.41.36.25.15a5.2,5.2,0,0,1,2,2.39,4.11,4.11,0,0,1,.78,1,5.26,5.26,0,0,1,.81,1.14c4.37,8.45,18.29,8.91,26.52,9.5,4.61.33,9.23.45,13.83.76,7.22.48,14.52,1.72,21.5-.54a3.77,3.77,0,0,1,2.48-3.3c2.9-1.29,6-2.75,9.19-3a6.25,6.25,0,0,1,1.74-4.66c3.55-3.61,9.61-3.34,14.51-4.64a69.23,69.23,0,0,0,20.65-21,70.36,70.36,0,0,0,8.06-17.26c2.49-8.12,2.61-16.47,3.11-24.87a5.19,5.19,0,0,1,.17-1.08,4,4,0,0,1-3.59-3.4,14.08,14.08,0,0,0-1.68-4.12c-2.43-4.34,2.36-8.66,6.56-6.55,2.83,1.41,7.58,5.6,10.44,3.77a11.27,11.27,0,0,0,5.58-9C-242.71,95.94-235.1,95.31-233.84,99.52Z" transform="translate(507.37 39.66)"/><path class="6c913c7d-2ae4-4adb-acfc-4835c6ea5f92" d="M-37,259.48v-.43c0-.33,0-.67,0-1,0-1.72-.12-3.23-.21-4.62a143.62,143.62,0,0,0-18.21-61.54c-11.29-19.83-27-35.42-45.45-45.11-9.75-5.11-20.31-8.47-30.66-11.15-.66-.06-1.33-.11-2-.15a4.91,4.91,0,0,1-4.79-4.79,4,4,0,0,1,.1-1,5.33,5.33,0,0,1,.19-1.08,20.85,20.85,0,0,0,1-5.92,34.43,34.43,0,0,0-10.14,4.17c-2.45,1.54-4.67,4-7.59,4.64a5.81,5.81,0,0,1-6.05-2.09,6,6,0,0,1-2.68.47,5.32,5.32,0,0,1-3.2.31,51.94,51.94,0,0,1-5.47-1.61l-2.2-.43a3.88,3.88,0,0,1-1.21-.48l-.43,0c-1.37-.11-2.75-.21-4.12-.29l-.94,0-.52,0-2.66-.11h-.05v0a3.83,3.83,0,0,1-.69.09,5,5,0,0,1-7.44-2.53c-1.53-4.39-10.45-2.62-13.64-2.08-4.63.78-9.44,1.82-13.61,4a4.83,4.83,0,0,1-3.5,5,33.78,33.78,0,0,0-7.35,2.75,5.16,5.16,0,0,1-1.67.53h0l-.2.08c-1.9.79-3.76,1.66-5.57,2.57a5.89,5.89,0,0,1-2.09,1.25l-1.9.68-.82.31-.55.22.13-.06a5.41,5.41,0,0,1-3.48.41,4.83,4.83,0,0,1-2.86-2.21,4.85,4.85,0,0,1-.48-3.69,4.78,4.78,0,0,1,2.2-2.86l.61-.25a4.88,4.88,0,0,1,.06-2.27,31.62,31.62,0,0,0,.73-4,4.72,4.72,0,0,1-2.4.61,4.72,4.72,0,0,1-2.52-.68c-.44,8.14-.85,16.28-3.26,24.14a80.52,80.52,0,0,1-9,19.55,80.9,80.9,0,0,1-18.85,20.79,4.28,4.28,0,0,1-2.18,2.48c-1.86,1-3.78,1.88-5.69,2.78a70,70,0,0,1-6.28,3.21,5.34,5.34,0,0,1-1.48.42A40.53,40.53,0,0,1-296.2,207c.37,4.92-6.61,6.29-8.92,2.42-.77-1.28-1.49-4.47-2.66-5.33s-3.94.65-5.4,1.3l-.42.17a4.89,4.89,0,0,1-3.11,3.67c-8.3,3.2-17.06,1.84-25.68,1.28-5.61-.36-11.23-.48-16.83-1-10.92-1-24.88-3.27-30.65-14-2.18-1.3-4.75-2.85-6.15-5a194.55,194.55,0,0,0-38.89,12.38c-24.72,11.1-44.07,27.74-56,48.12-8.16,14-13.17,26.19-15.32,37.33-2.82,14.61,0,29.63,3.13,42.45l1,3.31h12.42a17.18,17.18,0,0,1,.46-3.18,5,5,0,0,1-.31-.92,5.12,5.12,0,0,1-1-1.64c-1.81-4.51,1-7.47,4.43-9.93a23.15,23.15,0,0,0,5.76-5.13,18.53,18.53,0,0,1,4.62-5c2.82-1.95,5.95.25,7,2.86a32.05,32.05,0,0,1,1.36,4.16,19.78,19.78,0,0,1,10.79-6.71,4.81,4.81,0,0,1,5.39,2.67c1.14-3.86,2.79-7.32,7.72-8.68,7.13-2,12,2,15.85,7.12a4.46,4.46,0,0,1,3.28-1.3,4.35,4.35,0,0,1,4,2.21,7.44,7.44,0,0,1,5.06.14c3,1.07,5.07,3.61,6.78,6.13.31.45.6.91.88,1.38a44.12,44.12,0,0,1,5.18.71,4.41,4.41,0,0,1,3.25,3.32c.87,6.53,1.27,6.73.75,8.74-.36,1.34-2.11-.33-3.92-.33a4.42,4.42,0,0,1-3.32-1.35,5.17,5.17,0,0,1-.47,1.73c.16.95.3,1.91.44,2.86a5.58,5.58,0,0,1,.58.18h92c-5.92,2.69-11.54,5.44-17,8.29l-.22.11c-1.72.91-3.44,1.84-5.14,2.79l-.73.39c-1.58.88-3.14,1.78-4.71,2.7l-.47.27-.58.33c-1.92,1.13-3.82,2.28-5.64,3.42a255.08,255.08,0,0,0-50.33,40.94c-1.86,2-3.75,4.08-5.63,6.28l-.78.94-.1.12c-1.35,1.61-2.66,3.24-3.89,4.84l-1.14,1.51-.1.12c-1.08,1.45-2.17,3-3.26,4.53l-.41.59-.9,1.32c-.26.38-.51.77-.76,1.15l-.64,1-.8,1.23L-417,418h4.79c.07,0,.13-.11.2-.15a4.13,4.13,0,0,1,1.74-.68,3.87,3.87,0,0,1,1-.76c.71-.35,1.42-.73,2.1-1.14a5,5,0,0,1,3.19-4.61c10.14-4.07,21.56-4.19,32.31-3.39a238.69,238.69,0,0,1,30.92,4.26c19.68,4.11,36.51,15,44.68,33.9q.12.29.21.57a4.69,4.69,0,0,1,1.84.11,4.85,4.85,0,0,1,2.86,2.2,11.43,11.43,0,0,0,.73,1.21h0c.35-.27.72-.54,1.08-.8l.93-.69c.43-.33.85-.65,1.28-1l.67-.46c.69-.49,1.38-1,2.09-1.45l1.18-.8c.94-.62,1.88-1.23,2.84-1.83l.11-.07-1.56-2.42h0l1.66,2.35.26-.16c1.08-.68,2.17-1.33,3.24-2l.24-.14A197.13,197.13,0,0,1-258,430.69l.72-.32q1.92-.87,3.87-1.71l1.05-.45,3.6-1.52,1.19-.49c1.19-.49,2.38-1,3.58-1.44l1.39-.56,4.38-1.72c25.13-9.72,51.41-18.69,78.11-26.67,5.3-1.58,10.82-3.06,16.15-4.49,19.5-5.24,39.65-10.65,56.53-22.65q1.32-.94,2.61-1.92l.57-.44.28-.22,1.7-1.34.72-.59.26-.22c.5-.42,1-.84,1.5-1.27l.86-.75.15-.13,1.41-1.27,1-.93,1.35-1.29c.33-.32.66-.64,1-1l1.31-1.32.94-1c.44-.46.87-.93,1.29-1.39l.19-.2.7-.77,1.32-1.53.28-.31.5-.59c.51-.61,1-1.22,1.51-1.84l.52-.64c.67-.84,1.32-1.68,2-2.53l.44-.61c.49-.66,1-1.32,1.46-2l.42-.61.23-.33c.39-.57.79-1.14,1.17-1.71l.49-.74.2-.31c.36-.55.72-1.1,1.07-1.65l.62-1,.06-.1,1-1.66.65-1.11.18-.31c.1-.17.2-.33.29-.5s.13-.23.19-.34l.1-.19c.86-1.51,1.55-2.76,2.16-3.95l.1-.18c.67-1.29,1.34-2.64,2-4.13l.4-.85c.57-1.23,1.12-2.46,1.66-3.7l.35-.83c1.28-3,2.47-6.13,3.52-9.21l.17-.52c.44-1.31.88-2.67,1.3-4.06l.33-1.09c.36-1.22.7-2.45,1-3.69l.28-1.05c.43-1.68.8-3.2,1.13-4.65s.66-3.09,1-4.81l.17-1q.35-1.86.63-3.72l.21-1.4c.17-1.15.32-2.31.46-3.47l0-.38c0-.31.07-.62.11-.93.18-1.6.32-3.09.44-4.55v-.15c.12-1.47.21-3,.29-4.72,0-.29,0-.59,0-.88l0-.45c0-1.13.07-2.25.09-3.37,0-.54,0-1.07,0-1.59C-37,261.66-37,260.57-37,259.48Z" transform="translate(507.37 39.66)"/><path class="6c913c7d-2ae4-4adb-acfc-4835c6ea5f92" d="M-462.59,325.4c-2,4.07-1.39,7.55-.07,11.73,1.49,4.75,3.18,9.49,4,14.43a21,21,0,0,1,.26,3.92c0,.06,0,.13.05.19.4-1.05.72-2.09,1-2.95a52.66,52.66,0,0,0,2.3-13.18c.35-4.32.37-8.86.95-13.27a55.38,55.38,0,0,1-4.29-6.4A16.49,16.49,0,0,0-462.59,325.4Z" transform="translate(507.37 39.66)"/><polygon class="c02ff99d-98d3-41af-a9e3-e058a5913449" points="23.14 359.34 23.14 359.34 23.14 359.34 23.14 359.34"/><path class="666e9128-1ca2-407f-b03e-f4f23331b20b" d="M-457,315.43c-2.93-.48-5.5,1.47-7.33,3.55-3.29,3.73-4.41,8.56-4.94,13.37-.32,7.54,2.75,13.55,5.63,20.29,1.64,3.81,4.36,11.44,9.93,10.07,5.06-1.24,6.21-8.13,6.54-12.37A64.77,64.77,0,0,0-451.3,322C-452.38,319.21-453.67,316-457,315.43Z" transform="translate(507.37 39.66)"/><path class="666e9128-1ca2-407f-b03e-f4f23331b20b" d="M-460.1,363.21a22.25,22.25,0,0,1-5.17-7.63c-3.3-7.6-7-14.7-6.66-23.23a38.05,38.05,0,0,1,2.66-10.27,1.31,1.31,0,0,1-.23-.31c-3.16-6.87-14.46-.57-16.24,4.35-1.86,5.14-.81,11.81.78,16.88a39.38,39.38,0,0,0,8.44,14.34C-473.74,360.38-463.74,368.75-460.1,363.21Z" transform="translate(507.37 39.66)"/><path class="666e9128-1ca2-407f-b03e-f4f23331b20b" d="M-425.26,358.43c.59,4.08,4.87,5.47,8.28,3.72a12,12,0,0,0,5.14-5.85,43.88,43.88,0,0,0,3.7-17,39,39,0,0,0-3.32-16.49,24.17,24.17,0,0,0-3.9-6.73c-3.14-3.33-9.33-1.68-11.19,2.28,0,0-.05.06-.07.1,2.36,4.61,3.21,10.22,3.57,15.25.56,7.72.58,16.63-2.62,24A1.08,1.08,0,0,1-425.26,358.43Z" transform="translate(507.37 39.66)"/><path class="666e9128-1ca2-407f-b03e-f4f23331b20b" d="M-442.51,312.46c-3.73,1-5.46,4.25-6.4,7.75a1.12,1.12,0,0,1-.14.29,65.51,65.51,0,0,1,4.13,15.88c1,7.39,2.18,19.28-3.34,25.55a1.17,1.17,0,0,1,.55.37,11.51,11.51,0,0,0,11,3.21c3.82-1.13,6.43-4.43,8.07-7.9,3.1-6.59,3.39-14.21,3-21.37s-1-15.62-6.58-20.81A11,11,0,0,0-442.51,312.46Z" transform="translate(507.37 39.66)"/><path class="666e9128-1ca2-407f-b03e-f4f23331b20b" d="M-415.14,159.39c4.49,8.45,9.36,17.05,16,24a67.73,67.73,0,0,0,7.12,6.47,1.37,1.37,0,0,1,1.32,1c24.2,18.11,58.84,19.12,86,6.85,13.45-6.08,25.33-15.53,33.38-28,4.76-7.37,7.34-15.46,9.36-23.94,2.25-9.46,4.75-19,4.14-28.85a1.79,1.79,0,0,1,.08-.63,10.71,10.71,0,0,1-5.58-3.21c-1.55-1.67.95-4.18,2.5-2.5,5.94,6.39,16.26-.27,19.78-6.14,4.91-8.17,1.68-18.06-1.85-26.14-3.66-8.41-10.12-15.16-19.94-14.93-4.57.11-9.5,2.28-10.29,7.22-.62,3.79,1.22,7.7,3.52,10.61,1.4,1.77-1.09,4.3-2.5,2.51a21.84,21.84,0,0,1-4.27-8.95c-11.57,5.37-25.57,5.48-36.65-1.27a35.93,35.93,0,0,1-14.73-17.72c-.46,2.06-1.06,4.11-1.73,6.15a104.52,104.52,0,0,1-6.61,16.49c-5.61,10.5-14.71,16.47-25.51,20.84-5.89,2.39-11.81,4.6-18.2,5-7.16.48-14.29-.5-21.42.77-12.74,2.28-25.07,11.08-25.5,25.11.13.17,0,.33.06.58A136.88,136.88,0,0,0-415.14,159.39Z" transform="translate(507.37 39.66)"/><path class="6457d940-8d76-4040-a591-02bd1c3f2ffc" d="M-248.31,140.7q-3.06-5.38-6.22-10.69c-.16.1-.3.22-.46.31a194.24,194.24,0,0,1-4.46,20,71.1,71.1,0,0,1-12.44,26.27c-.9,1.16-1.84,2.28-2.8,3.39-.34.39-.7.78-1.05,1.17q-.93,1-1.89,2c-.46.47-.93.94-1.4,1.4s-1.07,1-1.62,1.52-1.14,1.06-1.73,1.57l-.89.74a82.15,82.15,0,0,1-8.3,6.16l-.32.21c-1.05.67-2.1,1.33-3.17,1.95-2.3,1.35-4.65,2.62-7.07,3.77q2.26,3.93,4.77,7.73a64.46,64.46,0,0,0,33.23-22.84c5.15-6.9,10.21-15,13-23.13,2.23-6.45,2.93-13.3,3.62-20.09C-247.77,141.68-248,141.18-248.31,140.7Z" transform="translate(507.37 39.66)"/><path class="666e9128-1ca2-407f-b03e-f4f23331b20b" d="M-457,315.43c-2.93-.48-5.5,1.47-7.33,3.55-3.29,3.73-4.41,8.56-4.94,13.37-.32,7.54,2.75,13.55,5.63,20.29,1.64,3.81,4.36,11.44,9.93,10.07,5.06-1.24,6.21-8.13,6.54-12.37A64.77,64.77,0,0,0-451.3,322C-452.38,319.21-453.67,316-457,315.43Z" transform="translate(507.37 39.66)"/><path class="666e9128-1ca2-407f-b03e-f4f23331b20b" d="M-460.1,363.21a22.25,22.25,0,0,1-5.17-7.63c-3.3-7.6-7-14.7-6.66-23.23a38.05,38.05,0,0,1,2.66-10.27,1.31,1.31,0,0,1-.23-.31c-3.16-6.87-14.46-.57-16.24,4.35-1.86,5.14-.81,11.81.78,16.88a39.38,39.38,0,0,0,8.44,14.34C-473.74,360.38-463.74,368.75-460.1,363.21Z" transform="translate(507.37 39.66)"/><path class="666e9128-1ca2-407f-b03e-f4f23331b20b" d="M-425.26,358.43c.59,4.08,4.87,5.47,8.28,3.72a12,12,0,0,0,5.14-5.85,43.88,43.88,0,0,0,3.7-17,39,39,0,0,0-3.32-16.49,24.17,24.17,0,0,0-3.9-6.73c-3.14-3.33-9.33-1.68-11.19,2.28,0,0-.05.06-.07.1,2.36,4.61,3.21,10.22,3.57,15.25.56,7.72.58,16.63-2.62,24A1.08,1.08,0,0,1-425.26,358.43Z" transform="translate(507.37 39.66)"/><path class="666e9128-1ca2-407f-b03e-f4f23331b20b" d="M-442.51,312.46c-3.73,1-5.46,4.25-6.4,7.75a1.12,1.12,0,0,1-.14.29,65.51,65.51,0,0,1,4.13,15.88c1,7.39,2.18,19.28-3.34,25.55a1.17,1.17,0,0,1,.55.37,11.51,11.51,0,0,0,11,3.21c3.82-1.13,6.43-4.43,8.07-7.9,3.1-6.59,3.39-14.21,3-21.37s-1-15.62-6.58-20.81A11,11,0,0,0-442.51,312.46Z" transform="translate(507.37 39.66)"/><path class="666e9128-1ca2-407f-b03e-f4f23331b20b" d="M-242.9,78.3c-3.66-8.41-10.12-15.16-19.94-14.93-4.57.11-9.5,2.28-10.29,7.22-.62,3.79,1.22,7.7,3.52,10.61,1.4,1.77-1.09,4.3-2.5,2.51a21.84,21.84,0,0,1-4.27-8.95c-11.57,5.37-25.57,5.48-36.65-1.27a35.93,35.93,0,0,1-14.73-17.72c-.46,2.06-1.06,4.11-1.73,6.15a104.52,104.52,0,0,1-6.61,16.49c-5.61,10.5-14.71,16.47-25.51,20.84-5.89,2.39-11.81,4.6-18.2,5-7.16.48-14.29-.5-21.42.77-12.74,2.28-25.18,10.57-25.6,24.6.13.17.09.84.16,1.09a136.88,136.88,0,0,0,11.53,28.64c4.49,8.45,9.36,17.05,16,24a67.73,67.73,0,0,0,7.12,6.47,1.37,1.37,0,0,1,1.32,1c20.91,15.64,49.61,18.52,74.54,11.1a7.67,7.67,0,0,1,1.44-2.39c-2.36-2.2-3.13-5.77.08-8.37,7.57-6.13,14.06-13.41,22-19.16a4.94,4.94,0,0,1,5.82-.49c.84-1,1.64-1.91,2.37-2.69,3.23-3.44,6.49-6.73,8-11.28,1.33-3.89,1.66-8.15,2.29-12.19,1.25-8.13,5-28.17,16.4-26.93,0-.51,0-1-.07-1.53a1.79,1.79,0,0,1,.08-.63,10.71,10.71,0,0,1-5.58-3.21c-1.55-1.67.95-4.18,2.5-2.5,5.94,6.39,16.26-.27,19.78-6.14C-236.14,96.27-239.37,86.38-242.9,78.3Z" transform="translate(507.37 39.66)"/><path class="666e9128-1ca2-407f-b03e-f4f23331b20b" d="M-422,432.1c-3.06,5.23-6.2,10.41-9.78,15.35a134.71,134.71,0,0,0-15.85,27.87,185.67,185.67,0,0,0-9.54,30.39c-4.18,18.64-7.3,39.69-2.28,58.48,1.58,5.9,11.21,29.56,19.06,17.65,2.33-3.54,3-8.51,3.72-12.62s1.16-8.41,1.53-12.63c1.44-16.63.84-34.1,5.65-50.23a1.33,1.33,0,0,1,2.56.71,80.58,80.58,0,0,0-2.47,11.62c-1.23,8.44-1.66,17-2.15,25.51,7.82,8.26,18,5.16,27.77,2.39a1.15,1.15,0,0,1,.18,0c-.37-1.78-.49-3.64-.67-5.34a88.06,88.06,0,0,1-.43-12.26,92.72,92.72,0,0,1,3.62-22.62,1.33,1.33,0,0,1,2.56.71,89.76,89.76,0,0,0-3.16,33.53c.25,2.6.26,7.14,2.36,9.19,1.74,1.71,4.94,2,7.23,2.36,5.87,1.06,12.9,1.12,15.56-5.07-1.42-3.63-1.93-7.94-2.39-11.45a96.21,96.21,0,0,1,1.72-34c.38-1.67,2.94-1,2.56.7A93.41,93.41,0,0,0-376,537.91a48.86,48.86,0,0,0,1.59,7.67,1.14,1.14,0,0,1,.67,1.49,1,1,0,0,0,0,.1,7.47,7.47,0,0,0,5,4.57c4.54,1.1,10.65-.59,15.1-1.67,5-1.21,9.7-3.28,13.16-7.19,3.65-4.12,5.77-9.52,8.1-14.43,4.09-8.61,12.93-21.74,3.38-29.45a104.54,104.54,0,0,0-15.7,34.06,1.33,1.33,0,0,1-2.57-.71,117.89,117.89,0,0,1,5.85-16.92,91.83,91.83,0,0,1,9.2-16.57c.54-.75,1.09-1.51,1.65-2.26a1.48,1.48,0,0,1,.51-.69A92.08,92.08,0,0,0-322,483.82c5.28-10.15,11.31-19.39,19.46-27.51l.47-.44C-336.94,433.24-380.71,425.26-422,432.1Z" transform="translate(507.37 39.66)"/><path class="e15d64ad-6ce9-4a57-820b-d0ebaf9aefc1" d="M-394.27,38.44c13.4-10.16,28.68-17.59,45.6-19,17.36-1.45,35.54,2.37,51.5,9.16A70.13,70.13,0,0,1-277,41.3c0-1.12-3-4.11-3.36-4.36a1.34,1.34,0,0,1,.67-2.48,93.21,93.21,0,0,1,17.33,1.68A60.51,60.51,0,0,0-275,16.42a1.34,1.34,0,0,1,.94-2.26,163.89,163.89,0,0,1,23.1,2,68.46,68.46,0,0,0-50.59-32.29,1.34,1.34,0,0,1-1.15-2,123.64,123.64,0,0,1,10.78-16A75.49,75.49,0,0,0-334.72-21a1.33,1.33,0,0,1-1.61-.2,37.2,37.2,0,0,0-20.24-13.25,27.8,27.8,0,0,1,5.64,8.72c.38.93-.74,1.94-1.63,1.64A119.93,119.93,0,0,0-453.42-13l36.58-.49a1.33,1.33,0,0,1,.35,2.61c-31.62,7.71-55.45,31.27-77.23,54.23a103.87,103.87,0,0,1,51,.07c1,.26,1.4,2,.32,2.42a83.8,83.8,0,0,0-19.34,11.43,158.62,158.62,0,0,1,47.2,1.1A109.06,109.06,0,0,1-394.27,38.44Z" transform="translate(507.37 39.66)"/><path class="e15d64ad-6ce9-4a57-820b-d0ebaf9aefc1" d="M-413.26,105.2A46.68,46.68,0,0,1-397,101c7.1-.61,14.34.63,21.38-.75,6.29-1.24,12.66-3.94,18.4-6.74s11.26-6.62,15.09-12c3.44-4.86,5.7-10.42,7.67-16,2.38-6.73,5.16-13.89,3.64-21.11a1.83,1.83,0,0,1,1.8-2.21,1.77,1.77,0,0,1,2.42,1.61,32.13,32.13,0,0,0,15.33,26.69c10.47,6.38,23.85,6.06,34.59.55a10.76,10.76,0,0,1,4.5-8.25,14.85,14.85,0,0,1,4.37-2.2c-6.58-16.87-23-26.6-39.51-31.95-15.65-5.08-32.71-7.72-49-4.56-15.26,3-29.4,11.41-41.08,21.46-22,18.89-35.84,47.37-31.47,76.35A30.73,30.73,0,0,1-413.26,105.2Z" transform="translate(507.37 39.66)"/><path class="c02ff99d-98d3-41af-a9e3-e058a5913449" d="M-245.59,92.35l-7-7.57,1.65-6.49c.74-2.94-3.79-4.19-4.54-1.25-.31,1.21-.61,2.43-.92,3.65q-1.87-2-3.76-4c-2.06-2.22-5.38,1.11-3.32,3.32,1.9,2,3.8,4.09,5.71,6.13l-2.31,9.1c-.74,2.94,3.79,4.19,4.54,1.25L-254,90.2l5.1,5.47C-246.85,97.89-243.53,94.56-245.59,92.35Z" transform="translate(507.37 39.66)"/><path class="666e9128-1ca2-407f-b03e-f4f23331b20b" d="M-400.16,331.16a1.17,1.17,0,0,1-.62-1.07c0-1.9-.1-4.11-1.47-5.59a3.23,3.23,0,0,0-5.12.38,1.54,1.54,0,0,1-.3.32,43.38,43.38,0,0,1,1.52,6Z" transform="translate(507.37 39.66)"/><path class="91996fca-e3c6-4cc9-8aa1-6ceefa75c87d" d="M-388,302.49a175.07,175.07,0,0,0-10.28,25.36c-.31-2.57-1.23-5.09-3.63-6.41a5.77,5.77,0,0,0-6.84,1,37.64,37.64,0,0,0-3.24-6.16c-2.1-3.21-4.71-5.28-8.71-4.67a11.24,11.24,0,0,0-7.5,4.26,15.72,15.72,0,0,0-6.27-5.22c-7-3.24-13.44.21-16.2,6.53-1.31-2.18-3.08-4-5.82-4.43-5.24-.88-8.94,2.24-11.41,6.52-3.52-4.91-12.25-2.84-16.36.41-3.55,2.8-4.88,7-5.07,11.47h92.82a171.59,171.59,0,0,1,10.8-27.33C-384.92,302.3-387.21,301-388,302.49Z" transform="translate(507.37 39.66)"/><path class="91996fca-e3c6-4cc9-8aa1-6ceefa75c87d" d="M-207.67,300.22c5.34-1.71,10.36-4.09,15.67-5.84,5.13-1.7,10-5.07,14.51-8.05a94.19,94.19,0,0,0,12.29-9.69,70.43,70.43,0,0,0,21.14-59.36c-.22-1.67-2.87-1.69-2.65,0a68.08,68.08,0,0,1-21.64,58.66,95,95,0,0,1-13.13,9.81c-2.32,1.45-4.69,2.82-7.09,4.13-2.62,1.42-5.31,2.07-8.06,3.11-2.41.9-4.61,2.23-7.05,3.11-2.62,1-5.31,1.75-8,2.6q-8.49,2.69-17,5.33c-26,8.11-52.24,16.35-77.29,27.13h6.74c24.26-10,49.51-17.78,74.53-25.59C-219,303.8-213.33,302-207.67,300.22Z" transform="translate(507.37 39.66)"/><path class="077c9415-f337-4cc9-9933-9f5874b22b91" d="M-292.24,447.26A135.77,135.77,0,0,1-278,437.68h-30.29A164,164,0,0,1-292.24,447.26Z" transform="translate(507.37 39.66)"/><path class="666e9128-1ca2-407f-b03e-f4f23331b20b" d="M-297.95,210.69h0Z" transform="translate(507.37 39.66)"/><path class="666e9128-1ca2-407f-b03e-f4f23331b20b" d="M-238.06,154.8l0-.05Z" transform="translate(507.37 39.66)"/><path class="666e9128-1ca2-407f-b03e-f4f23331b20b" d="M-298.9,210.51s0,0,0,0S-298.91,210.51-298.9,210.51Z" transform="translate(507.37 39.66)"/><path class="666e9128-1ca2-407f-b03e-f4f23331b20b" d="M-297.52,210.54h0Z" transform="translate(507.37 39.66)"/><path class="666e9128-1ca2-407f-b03e-f4f23331b20b" d="M-237.93,154.06s0-.06,0-.09S-237.93,154-237.93,154.06Z" transform="translate(507.37 39.66)"/><path class="666e9128-1ca2-407f-b03e-f4f23331b20b" d="M-297.13,210.25h0Z" transform="translate(507.37 39.66)"/><path class="666e9128-1ca2-407f-b03e-f4f23331b20b" d="M-298.47,210.68h0Z" transform="translate(507.37 39.66)"/><path class="666e9128-1ca2-407f-b03e-f4f23331b20b" d="M-237.92,154.41v0Z" transform="translate(507.37 39.66)"/><path class="666e9128-1ca2-407f-b03e-f4f23331b20b" d="M-293.5,209.19c12.46-2.24,24.32-9.89,34.06-17.68,10.31-8.24,18.3-19.25,21.57-32.15a6,6,0,0,0-.39-4.27,1.26,1.26,0,0,1-2.11-.16c-.54-1-1.11-2-1.66-3v0c-2.06-3.76-4.14-7.5-6.27-11.22s-4.33-7.53-6.55-11.25a185.68,185.68,0,0,1-4.59,20.89,71.1,71.1,0,0,1-12.44,26.27c-.9,1.16-1.84,2.28-2.8,3.39-.34.39-.7.78-1.05,1.17q-.93,1-1.89,2c-.46.47-.93.94-1.4,1.4s-1.07,1-1.62,1.52-1.14,1.06-1.73,1.57l-.89.74a82.15,82.15,0,0,1-8.3,6.16l-.32.21c-1.05.67-2.1,1.33-3.17,1.95-2.3,1.35-4.65,2.62-7.07,3.77,1.62,2.81,3.31,5.58,5.12,8.27a.55.55,0,0,1,.08.15h0A6.58,6.58,0,0,0-293.5,209.19Z" transform="translate(507.37 39.66)"/><path class="c02ff99d-98d3-41af-a9e3-e058a5913449" d="M-283.48,194.85A134.19,134.19,0,0,0-266,180c9.79-9.83,15.89-21.44,20.64-34.11-1-1.73-1.92-3.47-2.9-5.19-2.15-3.77-4.33-7.53-6.55-11.25a185.68,185.68,0,0,1-4.59,20.89,71.1,71.1,0,0,1-12.44,26.27c-.9,1.16-1.84,2.28-2.8,3.39-.34.39-.7.78-1.05,1.17q-.93,1-1.89,2c-.46.47-.93.94-1.4,1.4s-1.07,1-1.62,1.52-1.14,1.06-1.73,1.57l-.89.74a82.15,82.15,0,0,1-8.3,6.16l-.32.21c-1.05.67-2.1,1.33-3.17,1.95-2.3,1.35-4.65,2.62-7.07,3.77.57,1,1.15,1.94,1.74,2.91C-294.66,200.73-288.71,198.53-283.48,194.85Z" transform="translate(507.37 39.66)"/><path class="666e9128-1ca2-407f-b03e-f4f23331b20b" d="M-255.62,187.27c-2.18,2.28-4.47,4.47-6.84,6.58,1-.77,2-1.56,3-2.34,9.63-7.7,17.23-17.82,20.86-29.63A93.83,93.83,0,0,1-255.62,187.27Z" transform="translate(507.37 39.66)"/><path class="666e9128-1ca2-407f-b03e-f4f23331b20b" d="M-339.83,209.51c.61,0,1.21,0,1.82-.06C-338.62,209.48-339.22,209.5-339.83,209.51Z" transform="translate(507.37 39.66)"/><path class="666e9128-1ca2-407f-b03e-f4f23331b20b" d="M-337.08,209.39q3.56-.21,7.09-.69Q-333.53,209.18-337.08,209.39Z" transform="translate(507.37 39.66)"/><path class="666e9128-1ca2-407f-b03e-f4f23331b20b" d="M-329.46,208.63c.81-.11,1.63-.24,2.44-.38C-327.83,208.39-328.65,208.52-329.46,208.63Z" transform="translate(507.37 39.66)"/><path class="666e9128-1ca2-407f-b03e-f4f23331b20b" d="M-353.21,208.92l1.14.13Z" transform="translate(507.37 39.66)"/><path class="666e9128-1ca2-407f-b03e-f4f23331b20b" d="M-349.94,209.25l1.06.09Z" transform="translate(507.37 39.66)"/><path class="666e9128-1ca2-407f-b03e-f4f23331b20b" d="M-345.93,209.5l1.37,0C-345,209.52-345.48,209.52-345.93,209.5Z" transform="translate(507.37 39.66)"/><path class="666e9128-1ca2-407f-b03e-f4f23331b20b" d="M-199.42,130.28l.79-.06Z" transform="translate(507.37 39.66)"/><path class="666e9128-1ca2-407f-b03e-f4f23331b20b" d="M-356.35,208.48l1,.15Z" transform="translate(507.37 39.66)"/><path class="666e9128-1ca2-407f-b03e-f4f23331b20b" d="M-220.75,133.93l.07,0Z" transform="translate(507.37 39.66)"/><path class="666e9128-1ca2-407f-b03e-f4f23331b20b" d="M-316.24,205.8a95.84,95.84,0,0,1-10.58,2.42,95.84,95.84,0,0,0,10.58-2.42Z" transform="translate(507.37 39.66)"/><path class="666e9128-1ca2-407f-b03e-f4f23331b20b" d="M-210,131.54l.62-.1Z" transform="translate(507.37 39.66)"/><path class="666e9128-1ca2-407f-b03e-f4f23331b20b" d="M-196.22,130.08l1.71-.08Z" transform="translate(507.37 39.66)"/><path class="666e9128-1ca2-407f-b03e-f4f23331b20b" d="M-217.43,133.06l.57-.13Z" transform="translate(507.37 39.66)"/><path class="666e9128-1ca2-407f-b03e-f4f23331b20b" d="M-192.36,130c.67,0,1.33,0,2,0C-191,129.92-191.69,129.93-192.36,130Z" transform="translate(507.37 39.66)"/><path class="666e9128-1ca2-407f-b03e-f4f23331b20b" d="M-184.36,130l2.62.11Z" transform="translate(507.37 39.66)"/><path class="666e9128-1ca2-407f-b03e-f4f23331b20b" d="M-213.77,132.24l.72-.14Z" transform="translate(507.37 39.66)"/><path class="666e9128-1ca2-407f-b03e-f4f23331b20b" d="M-188.38,129.91l2.25,0Z" transform="translate(507.37 39.66)"/><path class="666e9128-1ca2-407f-b03e-f4f23331b20b" d="M-180.31,130.17c1.35.08,2.71.17,4.06.28C-177.6,130.34-179,130.25-180.31,130.17Z" transform="translate(507.37 39.66)"/><path class="666e9128-1ca2-407f-b03e-f4f23331b20b" d="M-341.21,209.54l-1.65,0Z" transform="translate(507.37 39.66)"/><path class="6457d940-8d76-4040-a591-02bd1c3f2ffc" d="M-402.15,402.38l1.07-1.27Z" transform="translate(507.37 39.66)"/><path class="6457d940-8d76-4040-a591-02bd1c3f2ffc" d="M-265.55,431l-2.39,1.18Z" transform="translate(507.37 39.66)"/><path class="6457d940-8d76-4040-a591-02bd1c3f2ffc" d="M-281.75,440-284,441.4Z" transform="translate(507.37 39.66)"/><path class="6457d940-8d76-4040-a591-02bd1c3f2ffc" d="M-261.44,429.08l-2.65,1.25Z" transform="translate(507.37 39.66)"/><path class="6457d940-8d76-4040-a591-02bd1c3f2ffc" d="M-273.18,435c-1.2.66-2.4,1.33-3.6,2C-275.58,436.29-274.38,435.62-273.18,435Z" transform="translate(507.37 39.66)"/><path class="6457d940-8d76-4040-a591-02bd1c3f2ffc" d="M-277.68,437.51c-.9.53-1.81,1.07-2.71,1.62C-279.49,438.58-278.58,438-277.68,437.51Z" transform="translate(507.37 39.66)"/><path class="6457d940-8d76-4040-a591-02bd1c3f2ffc" d="M-269.42,433c-.83.43-1.66.86-2.48,1.3C-271.08,433.84-270.25,433.41-269.42,433Z" transform="translate(507.37 39.66)"/><path class="6457d940-8d76-4040-a591-02bd1c3f2ffc" d="M-244.43,421.82l-2.68,1.07Z" transform="translate(507.37 39.66)"/><path class="6457d940-8d76-4040-a591-02bd1c3f2ffc" d="M-239.31,419.8l-3.88,1.52Z" transform="translate(507.37 39.66)"/><path class="666e9128-1ca2-407f-b03e-f4f23331b20b" d="M-413.88,418.41c.36-.58.74-1.14,1.12-1.71-1.1,1.67-2.17,3.35-3.21,5.07-5.22,8.65-9.92,17.49-15.86,25.68a134.71,134.71,0,0,0-15.85,27.87,185.67,185.67,0,0,0-9.54,30.39c-4.18,18.64-7.3,39.69-2.28,58.48,1.58,5.9,11.21,29.56,19.06,17.65,2.33-3.54,3-8.51,3.72-12.62s1.16-8.41,1.53-12.63c1.44-16.63.84-34.1,5.65-50.23a1.33,1.33,0,0,1,2.56.71,80.58,80.58,0,0,0-2.47,11.62c-1.23,8.44-1.66,17-2.15,25.51,7.82,8.26,18,5.16,27.77,2.39a1.15,1.15,0,0,1,.18,0c-.37-1.78-.49-3.64-.67-5.34a88.06,88.06,0,0,1-.43-12.26,92.72,92.72,0,0,1,3.62-22.62,1.33,1.33,0,0,1,2.56.71,89.76,89.76,0,0,0-3.16,33.53c.25,2.6.26,7.14,2.36,9.19,1.74,1.71,4.94,2,7.23,2.36,5.87,1.06,12.9,1.12,15.56-5.07-1.42-3.63-1.93-7.94-2.39-11.45a96.21,96.21,0,0,1,1.72-34c.38-1.67,2.94-1,2.56.7A93.41,93.41,0,0,0-376,537.91a48.86,48.86,0,0,0,1.59,7.67,1.14,1.14,0,0,1,.67,1.49,1,1,0,0,0,0,.1,7.47,7.47,0,0,0,5,4.57c4.54,1.1,10.65-.59,15.1-1.67,5-1.21,9.7-3.28,13.16-7.19,3.65-4.12,5.77-9.52,8.1-14.43,4.09-8.61,12.93-21.74,3.38-29.45a104.54,104.54,0,0,0-15.7,34.06,1.33,1.33,0,0,1-2.57-.71,117.89,117.89,0,0,1,5.85-16.92,91.83,91.83,0,0,1,9.2-16.57c.54-.75,1.09-1.51,1.65-2.26a1.48,1.48,0,0,1,.51-.69A92.08,92.08,0,0,0-322,483.82c5.28-10.15,11.31-19.39,19.46-27.51a109.14,109.14,0,0,1,10.33-9.05h0C-327.31,423.39-371.44,413.86-413.88,418.41Z" transform="translate(507.37 39.66)"/><path class="c02ff99d-98d3-41af-a9e3-e058a5913449" d="M-417.32,424c6.92.36,13.85,1.18,20.44,1.55,14.81.83,29.73,2.19,44.14,5.87,19.13,4.88,38.35,10.89,56.47,19.09,1.32-1.12,2.66-2.22,4-3.28-35.06-23.86-79.17-33.39-121.6-28.85-.72,1.11-1.44,2.22-2.13,3.36Z" transform="translate(507.37 39.66)"/><path class="666e9128-1ca2-407f-b03e-f4f23331b20b" d="M-341.45,515.43a91.83,91.83,0,0,1,9.2-16.57c.54-.75,1.09-1.51,1.65-2.26a1.48,1.48,0,0,1,.51-.69A92.08,92.08,0,0,0-322,483.82,114.33,114.33,0,0,1-306,460c-15.5-6.59-31.71-11.58-48-15.9-14-3.74-28.4-5.17-42.87-6-8.68-.48-18.44-2.05-27.66-1.82-2.29,3.8-4.67,7.55-7.29,11.16a134.71,134.71,0,0,0-15.85,27.87,185.67,185.67,0,0,0-9.54,30.39c-4.18,18.64-7.3,39.69-2.28,58.48,1.58,5.9,11.21,29.56,19.06,17.65,2.33-3.54,3-8.51,3.72-12.62s1.16-8.41,1.53-12.63c1.44-16.63.84-34.1,5.65-50.23a1.33,1.33,0,0,1,2.56.71,80.58,80.58,0,0,0-2.47,11.62c-1.23,8.44-1.66,17-2.15,25.51,7.82,8.26,18,5.16,27.77,2.39a1.15,1.15,0,0,1,.18,0c-.37-1.78-.49-3.64-.67-5.34a88.06,88.06,0,0,1-.43-12.26,92.72,92.72,0,0,1,3.62-22.62,1.33,1.33,0,0,1,2.56.71,89.76,89.76,0,0,0-3.16,33.53c.25,2.6.26,7.14,2.36,9.19,1.74,1.71,4.94,2,7.23,2.36,5.87,1.06,12.9,1.12,15.56-5.07-1.42-3.63-1.93-7.94-2.39-11.45a96.21,96.21,0,0,1,1.72-34c.38-1.67,2.94-1,2.56.7A93.41,93.41,0,0,0-376,537.91a48.86,48.86,0,0,0,1.59,7.67,1.14,1.14,0,0,1,.67,1.49,1,1,0,0,0,0,.1,7.47,7.47,0,0,0,5,4.57c4.54,1.1,10.65-.59,15.1-1.67,5-1.21,9.7-3.28,13.16-7.19,3.65-4.12,5.77-9.52,8.1-14.43,4.09-8.61,12.93-21.74,3.38-29.45a104.54,104.54,0,0,0-15.7,34.06,1.33,1.33,0,0,1-2.57-.71A117.89,117.89,0,0,1-341.45,515.43Z" transform="translate(507.37 39.66)"/><path class="6457d940-8d76-4040-a591-02bd1c3f2ffc" d="M-248.58,423.49l-2.54,1.05Z" transform="translate(507.37 39.66)"/><path class="6457d940-8d76-4040-a591-02bd1c3f2ffc" d="M-256.46,426.83c-1.28.56-2.54,1.12-3.8,1.7C-259,428-257.74,427.39-256.46,426.83Z" transform="translate(507.37 39.66)"/><path class="6457d940-8d76-4040-a591-02bd1c3f2ffc" d="M-252.55,425.14l-2.95,1.27Z" transform="translate(507.37 39.66)"/><path class="6457d940-8d76-4040-a591-02bd1c3f2ffc" d="M-399.4,399.18c.3-.34.6-.69.91-1C-398.8,398.49-399.1,398.84-399.4,399.18Z" transform="translate(507.37 39.66)"/><path class="6457d940-8d76-4040-a591-02bd1c3f2ffc" d="M-409.48,411.88l1.14-1.58Z" transform="translate(507.37 39.66)"/><path class="6457d940-8d76-4040-a591-02bd1c3f2ffc" d="M-285.38,442.33l-2.2,1.51Z" transform="translate(507.37 39.66)"/><path class="6457d940-8d76-4040-a591-02bd1c3f2ffc" d="M-288.86,444.75q-1.41,1-2.79,2.07Q-290.27,445.77-288.86,444.75Z" transform="translate(507.37 39.66)"/><path class="6457d940-8d76-4040-a591-02bd1c3f2ffc" d="M-407.14,408.68q.56-.75,1.14-1.5Q-406.58,407.93-407.14,408.68Z" transform="translate(507.37 39.66)"/><path class="6457d940-8d76-4040-a591-02bd1c3f2ffc" d="M-404.71,405.53l1.13-1.41Z" transform="translate(507.37 39.66)"/><path class="6457d940-8d76-4040-a591-02bd1c3f2ffc" d="M-411.73,415.12l1.14-1.66Z" transform="translate(507.37 39.66)"/><path class="077c9415-f337-4cc9-9933-9f5874b22b91" d="M-251.12,424.54l-1.43.6Z" transform="translate(507.37 39.66)"/><path class="077c9415-f337-4cc9-9933-9f5874b22b91" d="M-291.65,446.82l-.59.44Z" transform="translate(507.37 39.66)"/><path class="077c9415-f337-4cc9-9933-9f5874b22b91" d="M-255.5,426.41l-1,.42Z" transform="translate(507.37 39.66)"/><path class="077c9415-f337-4cc9-9933-9f5874b22b91" d="M-412.76,416.7c.34-.53.68-1.06,1-1.58C-412.08,415.64-412.42,416.17-412.76,416.7Z" transform="translate(507.37 39.66)"/><path class="077c9415-f337-4cc9-9933-9f5874b22b91" d="M-247.11,422.89l-1.47.6Z" transform="translate(507.37 39.66)"/><path class="077c9415-f337-4cc9-9933-9f5874b22b91" d="M-284,441.4l-1.41.93Z" transform="translate(507.37 39.66)"/><path class="077c9415-f337-4cc9-9933-9f5874b22b91" d="M-243.19,421.32l-1.24.5Z" transform="translate(507.37 39.66)"/><path class="077c9415-f337-4cc9-9933-9f5874b22b91" d="M-287.58,443.84c-.42.31-.86.6-1.28.91C-288.44,444.44-288,444.15-287.58,443.84Z" transform="translate(507.37 39.66)"/><path class="077c9415-f337-4cc9-9933-9f5874b22b91" d="M-264.09,430.33l-1.46.71Z" transform="translate(507.37 39.66)"/><path class="077c9415-f337-4cc9-9933-9f5874b22b91" d="M-260.26,428.53l-1.18.55Z" transform="translate(507.37 39.66)"/><path class="077c9415-f337-4cc9-9933-9f5874b22b91" d="M-280.39,439.13l-1.36.85Z" transform="translate(507.37 39.66)"/><path class="077c9415-f337-4cc9-9933-9f5874b22b91" d="M-406,407.18c.42-.55.86-1.1,1.29-1.65C-405.14,406.08-405.58,406.63-406,407.18Z" transform="translate(507.37 39.66)"/><path class="077c9415-f337-4cc9-9933-9f5874b22b91" d="M-401.08,401.11c.55-.65,1.11-1.29,1.68-1.93C-400,399.82-400.53,400.46-401.08,401.11Z" transform="translate(507.37 39.66)"/><path class="077c9415-f337-4cc9-9933-9f5874b22b91" d="M-398.49,398.15c.88-1,1.77-1.94,2.68-2.9C-396.72,396.21-397.61,397.18-398.49,398.15Z" transform="translate(507.37 39.66)"/><path class="077c9415-f337-4cc9-9933-9f5874b22b91" d="M-276.78,437l-.9.53Z" transform="translate(507.37 39.66)"/><path class="077c9415-f337-4cc9-9933-9f5874b22b91" d="M-271.9,434.28l-1.28.68Z" transform="translate(507.37 39.66)"/><path class="077c9415-f337-4cc9-9933-9f5874b22b91" d="M-410.59,413.46l1.11-1.58Z" transform="translate(507.37 39.66)"/><path class="077c9415-f337-4cc9-9933-9f5874b22b91" d="M-403.58,404.12l1.43-1.74Z" transform="translate(507.37 39.66)"/><path class="077c9415-f337-4cc9-9933-9f5874b22b91" d="M-408.34,410.3c.4-.54.79-1.08,1.2-1.62C-407.55,409.22-407.94,409.76-408.34,410.3Z" transform="translate(507.37 39.66)"/><path class="077c9415-f337-4cc9-9933-9f5874b22b91" d="M-267.94,432.22l-1.48.76Z" transform="translate(507.37 39.66)"/><path class="077c9415-f337-4cc9-9933-9f5874b22b91" d="M-276.85,319.8l-.66.24Z" transform="translate(507.37 39.66)"/><path class="077c9415-f337-4cc9-9933-9f5874b22b91" d="M-242.93,311.29l8.31-2.62Z" transform="translate(507.37 39.66)"/><path class="077c9415-f337-4cc9-9933-9f5874b22b91" d="M-233.55,308.34l8.87-2.77Z" transform="translate(507.37 39.66)"/><path class="077c9415-f337-4cc9-9933-9f5874b22b91" d="M-252.7,314.41c2.93-1,5.86-1.88,8.79-2.81C-246.84,312.53-249.77,313.46-252.7,314.41Z" transform="translate(507.37 39.66)"/><path class="077c9415-f337-4cc9-9933-9f5874b22b91" d="M-389.91,313c.26-.61.53-1.23.8-1.84C-389.38,311.76-389.65,312.38-389.91,313Z" transform="translate(507.37 39.66)"/><path class="077c9415-f337-4cc9-9933-9f5874b22b91" d="M-246.89,309.76l-1.77.57Z" transform="translate(507.37 39.66)"/><path class="077c9415-f337-4cc9-9933-9f5874b22b91" d="M-388.1,308.91c.21-.47.43-.94.65-1.41C-387.67,308-387.89,308.44-388.1,308.91Z" transform="translate(507.37 39.66)"/><path class="077c9415-f337-4cc9-9933-9f5874b22b91" d="M-266.87,316.33l-1.59.54Z" transform="translate(507.37 39.66)"/><path class="077c9415-f337-4cc9-9933-9f5874b22b91" d="M-237.22,306.71l-2.26.71Z" transform="translate(507.37 39.66)"/><path class="077c9415-f337-4cc9-9933-9f5874b22b91" d="M-286.85,323.47l-.41.16Z" transform="translate(507.37 39.66)"/><path class="077c9415-f337-4cc9-9933-9f5874b22b91" d="M-485.53,320.89l.19-.2Z" transform="translate(507.37 39.66)"/><path class="077c9415-f337-4cc9-9933-9f5874b22b91" d="M-299.21,331.16c15.14-6.24,30.66-11.61,46.27-16.67-32.29,10.45-64.19,22.25-93.11,40.28a252.58,252.58,0,0,0-49.76,40.48c-.91,1-1.8,1.93-2.68,2.9-.31.34-.61.69-.91,1-.57.64-1.13,1.28-1.68,1.93l-1.07,1.27-1.43,1.74-1.13,1.41c-.43.55-.87,1.1-1.29,1.65s-.77,1-1.14,1.5-.8,1.08-1.2,1.62l-1.14,1.58-1.11,1.58-1.14,1.66c-.35.52-.69,1.05-1,1.58s-.76,1.13-1.12,1.71c42.44-4.55,86.57,5,121.64,28.85h0l.59-.44q1.38-1.05,2.79-2.07c.42-.31.86-.6,1.28-.91l2.2-1.51,1.41-.93,2.22-1.42,1.36-.85c.9-.55,1.81-1.09,2.71-1.62l.9-.53c1.2-.69,2.4-1.36,3.6-2l1.28-.68c.82-.44,1.65-.87,2.48-1.3l1.48-.76,2.39-1.18,1.46-.71,2.65-1.25,1.18-.55c1.26-.58,2.52-1.14,3.8-1.7l1-.42,2.95-1.27,1.43-.6,2.54-1.05,1.47-.6,2.68-1.07,1.24-.5,3.88-1.52q38.61-14.93,78.33-26.74c24.32-7.27,50.76-11.75,71.83-26.73,14.39-10.23,25.67-24,33.79-39.55-.77,1.47-1.57,2.94-2.4,4.38Z" transform="translate(507.37 39.66)"/><path class="077c9415-f337-4cc9-9933-9f5874b22b91" d="M-295.71,326.92l-1.46.59Z" transform="translate(507.37 39.66)"/><path class="077c9415-f337-4cc9-9933-9f5874b22b91" d="M-391.54,316.93l.9-2.21Z" transform="translate(507.37 39.66)"/><path class="077c9415-f337-4cc9-9933-9f5874b22b91" d="M-287.26,323.63c-2.83,1.07-5.64,2.17-8.45,3.29C-292.9,325.8-290.09,324.7-287.26,323.63Z" transform="translate(507.37 39.66)"/><path class="077c9415-f337-4cc9-9933-9f5874b22b91" d="M-268.46,316.87q-4.2,1.44-8.39,2.93Q-272.66,318.32-268.46,316.87Z" transform="translate(507.37 39.66)"/><path class="077c9415-f337-4cc9-9933-9f5874b22b91" d="M-252.94,314.49l.24-.08Z" transform="translate(507.37 39.66)"/><path class="077c9415-f337-4cc9-9933-9f5874b22b91" d="M-234.62,308.67l1.07-.33Z" transform="translate(507.37 39.66)"/><path class="077c9415-f337-4cc9-9933-9f5874b22b91" d="M-228.66,304l-8.56,2.68Z" transform="translate(507.37 39.66)"/><path class="077c9415-f337-4cc9-9933-9f5874b22b91" d="M-239.48,307.42l-7.41,2.34Z" transform="translate(507.37 39.66)"/><path class="077c9415-f337-4cc9-9933-9f5874b22b91" d="M-243.91,311.6l1-.31Z" transform="translate(507.37 39.66)"/><path class="077c9415-f337-4cc9-9933-9f5874b22b91" d="M-248.66,310.33q-9.12,2.91-18.21,6Q-257.79,313.24-248.66,310.33Z" transform="translate(507.37 39.66)"/><path class="077c9415-f337-4cc9-9933-9f5874b22b91" d="M-277.51,320q-4.68,1.68-9.34,3.43Q-282.2,321.72-277.51,320Z" transform="translate(507.37 39.66)"/><path class="077c9415-f337-4cc9-9933-9f5874b22b91" d="M-485.34,320.69a11.79,11.79,0,0,1,1.11-1A11.79,11.79,0,0,0-485.34,320.69Z" transform="translate(507.37 39.66)"/><path class="077c9415-f337-4cc9-9933-9f5874b22b91" d="M-297.17,327.51q-4.41,1.78-8.78,3.65Q-301.59,329.29-297.17,327.51Z" transform="translate(507.37 39.66)"/><path class="077c9415-f337-4cc9-9933-9f5874b22b91" d="M-387.45,307.5c.57-1.23,1.16-2.46,1.77-3.67C-386.29,305-386.88,306.27-387.45,307.5Z" transform="translate(507.37 39.66)"/><path class="077c9415-f337-4cc9-9933-9f5874b22b91" d="M-389.11,311.15c.33-.75.67-1.5,1-2.24C-388.44,309.65-388.78,310.4-389.11,311.15Z" transform="translate(507.37 39.66)"/><path class="077c9415-f337-4cc9-9933-9f5874b22b91" d="M-392,318.07l.44-1.14Z" transform="translate(507.37 39.66)"/><path class="077c9415-f337-4cc9-9933-9f5874b22b91" d="M-485.53,320.89a11.7,11.7,0,0,0-.9,1.08A10.3,10.3,0,0,1-485.53,320.89Z" transform="translate(507.37 39.66)"/><path class="077c9415-f337-4cc9-9933-9f5874b22b91" d="M-390.64,314.72c.24-.58.49-1.15.73-1.73C-390.15,313.57-390.4,314.14-390.64,314.72Z" transform="translate(507.37 39.66)"/><path class="077c9415-f337-4cc9-9933-9f5874b22b91" d="M-238.06,154.8a1,1,0,0,1-.2.29h0A1,1,0,0,0-238.06,154.8Z" transform="translate(507.37 39.66)"/><path class="077c9415-f337-4cc9-9933-9f5874b22b91" d="M-298.92,210.49a1.25,1.25,0,0,1-.38-.38A1.25,1.25,0,0,0-298.92,210.49Z" transform="translate(507.37 39.66)"/><path class="077c9415-f337-4cc9-9933-9f5874b22b91" d="M-237.93,154.06a1.38,1.38,0,0,1,0,.35A1.38,1.38,0,0,0-237.93,154.06Z" transform="translate(507.37 39.66)"/><path class="077c9415-f337-4cc9-9933-9f5874b22b91" d="M-298,210.69a1.3,1.3,0,0,1-.44,0A1.3,1.3,0,0,0-298,210.69Z" transform="translate(507.37 39.66)"/><path class="077c9415-f337-4cc9-9933-9f5874b22b91" d="M-296.93,208.92a1.09,1.09,0,0,1-.2,1.33A1.09,1.09,0,0,0-296.93,208.92Z" transform="translate(507.37 39.66)"/><path class="077c9415-f337-4cc9-9933-9f5874b22b91" d="M-298.9,210.51a1.21,1.21,0,0,0,.43.17A1.21,1.21,0,0,1-298.9,210.51Z" transform="translate(507.37 39.66)"/><path class="077c9415-f337-4cc9-9933-9f5874b22b91" d="M-238,154.75a1.19,1.19,0,0,0,.1-.32A1.19,1.19,0,0,1-238,154.75Z" transform="translate(507.37 39.66)"/><path class="077c9415-f337-4cc9-9933-9f5874b22b91" d="M-297.5,210.53a1.26,1.26,0,0,0,.37-.27A1.26,1.26,0,0,1-297.5,210.53Z" transform="translate(507.37 39.66)"/><path class="077c9415-f337-4cc9-9933-9f5874b22b91" d="M-237.94,154a1.46,1.46,0,0,0-.14-.38A1.61,1.61,0,0,1-237.94,154Z" transform="translate(507.37 39.66)"/><path class="077c9415-f337-4cc9-9933-9f5874b22b91" d="M-297.95,210.69a1.57,1.57,0,0,0,.43-.15A1.57,1.57,0,0,1-297.95,210.69Z" transform="translate(507.37 39.66)"/><path class="077c9415-f337-4cc9-9933-9f5874b22b91" d="M-194.51,130l2.15-.05Z" transform="translate(507.37 39.66)"/><path class="077c9415-f337-4cc9-9933-9f5874b22b91" d="M-355.35,208.63l2.14.29Z" transform="translate(507.37 39.66)"/><path class="077c9415-f337-4cc9-9933-9f5874b22b91" d="M-190.35,129.92h0Z" transform="translate(507.37 39.66)"/><path class="077c9415-f337-4cc9-9933-9f5874b22b91" d="M-341.21,209.54q.69,0,1.38,0Q-340.52,209.54-341.21,209.54Z" transform="translate(507.37 39.66)"/><path class="077c9415-f337-4cc9-9933-9f5874b22b91" d="M-359.43,207.94c1,.2,2.05.38,3.08.54C-357.38,208.32-358.41,208.14-359.43,207.94Z" transform="translate(507.37 39.66)"/><path class="077c9415-f337-4cc9-9933-9f5874b22b91" d="M-198.63,130.22c.8-.06,1.6-.1,2.41-.14C-197,130.12-197.83,130.16-198.63,130.22Z" transform="translate(507.37 39.66)"/><path class="077c9415-f337-4cc9-9933-9f5874b22b91" d="M-342.86,209.56l-1.7,0Z" transform="translate(507.37 39.66)"/><path class="077c9415-f337-4cc9-9933-9f5874b22b91" d="M-209.35,131.44c3.29-.53,6.6-.91,9.93-1.16C-202.75,130.53-206.06,130.91-209.35,131.44Z" transform="translate(507.37 39.66)"/><path class="077c9415-f337-4cc9-9933-9f5874b22b91" d="M-216.86,132.93q1.55-.37,3.09-.69Q-215.31,132.55-216.86,132.93Z" transform="translate(507.37 39.66)"/><path class="077c9415-f337-4cc9-9933-9f5874b22b91" d="M-220.68,133.91c1.08-.3,2.16-.58,3.25-.85C-218.52,133.33-219.6,133.61-220.68,133.91Z" transform="translate(507.37 39.66)"/><path class="077c9415-f337-4cc9-9933-9f5874b22b91" d="M-352.07,209.05c.71.08,1.42.14,2.13.2C-350.65,209.19-351.36,209.13-352.07,209.05Z" transform="translate(507.37 39.66)"/><path class="077c9415-f337-4cc9-9933-9f5874b22b91" d="M-330,208.7l.53-.07Z" transform="translate(507.37 39.66)"/><path class="077c9415-f337-4cc9-9933-9f5874b22b91" d="M-213,132.1c1-.2,2.05-.39,3.08-.56C-211,131.71-212,131.9-213,132.1Z" transform="translate(507.37 39.66)"/><path class="077c9415-f337-4cc9-9933-9f5874b22b91" d="M-348.88,209.34c1,.07,2,.12,2.95.16C-346.92,209.46-347.9,209.41-348.88,209.34Z" transform="translate(507.37 39.66)"/><path class="077c9415-f337-4cc9-9933-9f5874b22b91" d="M-181.74,130.1l1.43.07Z" transform="translate(507.37 39.66)"/><path class="077c9415-f337-4cc9-9933-9f5874b22b91" d="M-327,208.25l.2,0Z" transform="translate(507.37 39.66)"/><path class="077c9415-f337-4cc9-9933-9f5874b22b91" d="M-308.11,215.7a6.67,6.67,0,0,0,7.82,6.13c18-3.33,34.77-14.11,45.85-28.61a104.66,104.66,0,0,0,14.66-25.57c3.47-9.07,4.1-19,5.15-28.57a88.06,88.06,0,0,1,13.88-5.15,85.19,85.19,0,0,0-22.69,9.95q2.72,4.83,5.36,9.71a1.46,1.46,0,0,1,.14.38s0,.06,0,.09a1.38,1.38,0,0,1,0,.35v0a1.19,1.19,0,0,1-.1.32l0,.05a1,1,0,0,1-.2.29,6,6,0,0,1,.39,4.27c-3.27,12.9-11.26,23.91-21.57,32.15-9.74,7.79-21.6,15.44-34.06,17.68a6.58,6.58,0,0,1-3.43-.27h0a1.09,1.09,0,0,1-.2,1.33h0a1.26,1.26,0,0,1-.37.27h0a1.57,1.57,0,0,1-.43.15h0a1.3,1.3,0,0,1-.44,0h0a1.21,1.21,0,0,1-.43-.17s0,0,0,0a1.25,1.25,0,0,1-.38-.38c-1.86-2.77-3.6-5.61-5.26-8.51a94.47,94.47,0,0,1-11.68,4.2,4.65,4.65,0,0,0,.62,1.13C-313.26,210.11-311.13,213.22-308.11,215.7Z" transform="translate(507.37 39.66)"/><path class="077c9415-f337-4cc9-9933-9f5874b22b91" d="M-186.13,130l1.77,0Z" transform="translate(507.37 39.66)"/><path class="077c9415-f337-4cc9-9933-9f5874b22b91" d="M-338,209.45l.93-.06Z" transform="translate(507.37 39.66)"/><path class="077c9415-f337-4cc9-9933-9f5874b22b91" d="M-396.41,330.94c.57-1.92,1.19-3.82,1.84-5.71Q-395.55,328.07-396.41,330.94Z" transform="translate(507.37 39.66)"/><path class="077c9415-f337-4cc9-9933-9f5874b22b91" d="M-394.17,324.05c.7-2,1.42-4,2.19-6C-392.75,320.05-393.47,322.05-394.17,324.05Z" transform="translate(507.37 39.66)"/><path class="077c9415-f337-4cc9-9933-9f5874b22b91" d="M-39.91,259.54c0-.47,0-.94,0-1.41q-.07-2.28-.21-4.53c-2.67-41.67-24.2-84.38-62.13-104.28-11.76-6.18-24.68-9.73-37.55-12.78a248.43,248.43,0,0,0-36.43-6.09c-1.35-.11-2.71-.2-4.06-.28l-1.43-.07-2.62-.11-1.77,0-2.25,0h-2c-.68,0-1.34,0-2,0l-2.15.05-1.71.08c-.81,0-1.61.08-2.41.14l-.79.06c-3.33.25-6.64.63-9.93,1.16l-.62.1c-1,.17-2.06.36-3.08.56l-.72.14q-1.54.31-3.09.69l-.57.13c-1.09.27-2.17.55-3.25.85l-.07,0a88.06,88.06,0,0,0-13.88,5.15c-1.05,9.61-1.68,19.5-5.15,28.57a104.66,104.66,0,0,1-14.66,25.57c-11.08,14.5-27.85,25.28-45.85,28.61a6.67,6.67,0,0,1-7.82-6.13c-3-2.48-5.15-5.59-7.51-8.77a4.65,4.65,0,0,1-.62-1.13,95.84,95.84,0,0,1-10.58,2.42l-.2,0c-.81.14-1.63.27-2.44.38l-.53.07q-3.54.48-7.09.69l-.93.06c-.61,0-1.21.05-1.82.06s-.92,0-1.38,0l-1.65,0-1.7,0-1.37,0c-1,0-2-.09-2.95-.16l-1.06-.09c-.71-.06-1.42-.12-2.13-.2l-1.14-.13-2.14-.29-1-.15c-1-.16-2.06-.34-3.08-.54a84.14,84.14,0,0,1-34.31-15.05,194.86,194.86,0,0,0-40,12.55c-22.35,10-42.2,25.6-54.67,46.95-6.46,11.08-12.54,23.76-15,36.42-2.68,13.88-.14,28.14,3.21,41.67a.91.91,0,0,1,0,.36,1.07,1.07,0,0,1-.06.32h10.9c0-.53.07-1.06.12-1.58,0-.05,0-.09,0-.14a18.88,18.88,0,0,1,.59-3s0-.09,0-.14c.14-.46.3-.91.47-1.36l.09-.21a14.3,14.3,0,0,1,.62-1.31l0,0a11.19,11.19,0,0,1,.75-1.18,1.43,1.43,0,0,1,.14-.2,11.7,11.7,0,0,1,.9-1.08l.19-.2a11.79,11.79,0,0,1,1.11-1c4.11-3.25,12.84-5.32,16.36-.41,2.47-4.28,6.17-7.4,11.41-6.52,2.74.46,4.51,2.25,5.82,4.43,2.76-6.32,9.17-9.77,16.2-6.53a15.72,15.72,0,0,1,6.27,5.22,11.24,11.24,0,0,1,7.5-4.26c4-.61,6.61,1.46,8.71,4.67a37.64,37.64,0,0,1,3.24,6.16,5.77,5.77,0,0,1,6.84-1c2.4,1.32,3.32,3.84,3.63,6.41A175.07,175.07,0,0,1-388,302.49c.76-1.54,3.05-.19,2.29,1.34-.61,1.21-1.2,2.44-1.77,3.67-.22.47-.44.94-.65,1.41-.34.74-.68,1.49-1,2.24s-.54,1.23-.8,1.84-.49,1.15-.73,1.73l-.9,2.21-.44,1.14c-.77,2-1.49,4-2.19,6-.14.39-.27.79-.4,1.18-.65,1.89-1.27,3.79-1.84,5.71a1.42,1.42,0,0,0-.07.22h90.53q4.36-1.87,8.78-3.65l1.46-.59c2.81-1.12,5.62-2.22,8.45-3.29l.41-.16q4.65-1.75,9.34-3.43l.66-.24q4.19-1.49,8.39-2.93l1.59-.54q9.08-3.09,18.21-6l1.77-.57,7.41-2.34,2.26-.71,8.56-2.68q8.52-2.65,17-5.33c2.66-.85,5.35-1.64,8-2.6,2.44-.88,4.64-2.21,7.05-3.11,2.75-1,5.44-1.69,8.06-3.11,2.4-1.31,4.77-2.68,7.09-4.13a95,95,0,0,0,13.13-9.81,68.08,68.08,0,0,0,21.64-58.66c-.22-1.69,2.43-1.67,2.65,0a70.43,70.43,0,0,1-21.14,59.36,94.19,94.19,0,0,1-12.29,9.69c-4.47,3-9.38,6.35-14.51,8.05-5.31,1.75-10.33,4.13-15.67,5.84-5.66,1.81-11.33,3.58-17,5.35l-8.87,2.77-1.07.33-8.31,2.62-1,.31c-2.93.93-5.86,1.86-8.79,2.81l-.24.08c-15.61,5.06-31.13,10.43-46.27,16.67H-57.76c.83-1.44,1.63-2.91,2.4-4.38l.09-.18c.69-1.33,1.36-2.68,2-4l.39-.84c.56-1.2,1.1-2.4,1.63-3.62.11-.27.23-.54.35-.81q1.88-4.44,3.44-9c.06-.17.11-.34.17-.51.44-1.32.87-2.64,1.27-4l.32-1.07c.35-1.2.69-2.41,1-3.62.1-.34.19-.68.28-1,.39-1.51.76-3,1.1-4.55h0c.35-1.57.67-3.14,1-4.72.06-.31.11-.63.17-.95.22-1.22.42-2.43.61-3.65.07-.45.14-.91.2-1.37.17-1.13.32-2.27.46-3.41l.15-1.28c.17-1.48.31-3,.43-4.44,0-.06,0-.11,0-.17.12-1.54.21-3.08.28-4.62,0-.44,0-.87.05-1.3,0-1.11.07-2.21.08-3.32,0-.51,0-1,0-1.55C-39.87,261.68-39.88,260.61-39.91,259.54Z" transform="translate(507.37 39.66)"/><path class="077c9415-f337-4cc9-9933-9f5874b22b91" d="M-396.41,330.94a1.42,1.42,0,0,0-.07.22h0A1.42,1.42,0,0,1-396.41,330.94Z" transform="translate(507.37 39.66)"/><path class="077c9415-f337-4cc9-9933-9f5874b22b91" d="M-394.57,325.23c.13-.39.26-.79.4-1.18C-394.31,324.44-394.44,324.84-394.57,325.23Z" transform="translate(507.37 39.66)"/><path class="077c9415-f337-4cc9-9933-9f5874b22b91" d="M-161,393.06c24.32-7.27,50.76-11.75,71.83-26.73a109.72,109.72,0,0,0,31.39-35.17H-299.21A313.2,313.2,0,0,0-346,354.77a252.58,252.58,0,0,0-49.76,40.48,152.76,152.76,0,0,0-18.07,23.16c36.21-3.88,73.64,2.49,105.63,19.27H-278c12.23-7.19,25.49-12.78,38.65-17.88Q-200.7,404.88-161,393.06Z" transform="translate(507.37 39.66)"/><path class="9c1f3bae-5ae5-4d5a-bb02-818e691ebc52" d="M-340.84,114a40,40,0,0,1,40-5c3.73,1.53,5.35-4.53,1.67-6-15.56-6.42-32.92-3.6-46.1,6.66-3.18,2.47,1.29,6.88,4.43,4.43Z" transform="translate(507.37 39.66)"/><path class="9c1f3bae-5ae5-4d5a-bb02-818e691ebc52" d="M-405.59,120.23a18.81,18.81,0,0,1,20-3.23c2.74,1.2,5.14-2.85,2.37-4.06a23.77,23.77,0,0,0-25.69,4c-2.3,2,1,5.28,3.33,3.33Z" transform="translate(507.37 39.66)"/><path class="2f346c15-62f4-4d91-bf98-dc3ddfc400f8" d="M-418.55,167.43v6.78a24.24,24.24,0,0,1-1.93,9.62,26.52,26.52,0,0,1-5.31,8.09,25.7,25.7,0,0,1-7.93,5.62,23.32,23.32,0,0,1-9.78,2.08,35.23,35.23,0,0,1-9.09-1.23,21.35,21.35,0,0,1-8.31-4.32,23.64,23.64,0,0,1-6.08-7.93q-2.4-4.84-2.39-12.39V113.38a26.56,26.56,0,0,1,1.85-10,23.52,23.52,0,0,1,5.23-8,24.21,24.21,0,0,1,8.09-5.31,27,27,0,0,1,10.39-1.93q11.08,0,18,7.24a25.65,25.65,0,0,1,5.31,8.39,28.27,28.27,0,0,1,1.93,10.55v6.16h-15.71v-5.23a12.7,12.7,0,0,0-2.62-8,8.46,8.46,0,0,0-7.08-3.39c-3.9,0-6.5,1.21-7.78,3.62a19.43,19.43,0,0,0-1.92,9.16v56.06a14.51,14.51,0,0,0,2.08,8q2.07,3.23,7.46,3.23a11.48,11.48,0,0,0,3.32-.54,10,10,0,0,0,3.31-1.77,9.47,9.47,0,0,0,2.31-3.39,13.8,13.8,0,0,0,.92-5.39v-5.39Z" transform="translate(507.37 39.66)"/><path class="2f346c15-62f4-4d91-bf98-dc3ddfc400f8" d="M-272.7,119.69v56.52a13.5,13.5,0,0,0,.54,4.31,4.22,4.22,0,0,0,1.77,2.31,6.55,6.55,0,0,0,3,.93c1.18.1,103.77.15,105.52.15l6.2,14.78h-113.8a21.21,21.21,0,0,1-9-1.69,16.25,16.25,0,0,1-5.77-4.31,17,17,0,0,1-3.16-5.93,22,22,0,0,1-1-6.39v-63m0,3.22V62h15.71v58.64" transform="translate(507.37 39.66)"/><path class="2f346c15-62f4-4d91-bf98-dc3ddfc400f8" d="M-257,198.69V120.62h15.7v78.07Z" transform="translate(507.37 39.66)"/><path class="2f346c15-62f4-4d91-bf98-dc3ddfc400f8" d="M-182.92,164.46H-214v10.62a7.52,7.52,0,0,0,2.08,5.7,7.77,7.77,0,0,0,5.62,2c3,0,5-.87,5.93-2.62a14.24,14.24,0,0,0,1.77-5.23h15.71q0,10.32-6.32,16.63a22,22,0,0,1-7.39,5.08,24.42,24.42,0,0,1-9.7,1.85,24.1,24.1,0,0,1-12.55-3.08,21.12,21.12,0,0,1-7.93-8.16,21.28,21.28,0,0,1-2.31-7.09,57.8,57.8,0,0,1-.62-8.77V145.67a58,58,0,0,1,.62-8.78,21.22,21.22,0,0,1,2.31-7.08,21.22,21.22,0,0,1,7.93-8.17,24.1,24.1,0,0,1,12.55-3.08,25,25,0,0,1,9.78,1.85,22.09,22.09,0,0,1,7.47,5.08q6.15,6.93,6.16,17.41ZM-214,152.14h15.4V143.2c0-3-.69-5.21-2.08-6.7a7.34,7.34,0,0,0-5.62-2.23,7.33,7.33,0,0,0-5.62,2.23c-1.39,1.49-2.08,3.73-2.08,6.7Z" transform="translate(507.37 39.66)"/><path class="2f346c15-62f4-4d91-bf98-dc3ddfc400f8" d="M-171.37,198.69V120.62h15.7v8.31a47.65,47.65,0,0,1,9.4-6.77,23.86,23.86,0,0,1,11.39-2.47v16.63a12.85,12.85,0,0,0-4.77-.92,18.53,18.53,0,0,0-5.31.85,13.68,13.68,0,0,0-5.16,2.85,14.78,14.78,0,0,0-4,5.23,18.69,18.69,0,0,0-1.54,8v46.35Z" transform="translate(507.37 39.66)"/><path class="2f346c15-62f4-4d91-bf98-dc3ddfc400f8" d="M-140,198.69V183h15.71v15.7Zm0,0V183h15.71v15.7Z" transform="translate(507.37 39.66)"/><rect class="2f346c15-62f4-4d91-bf98-dc3ddfc400f8" x="249.66" y="223.52" width="23.38" height="14.99"/><path class="2f346c15-62f4-4d91-bf98-dc3ddfc400f8" d="M-140,198.69V183h15.71v15.7Z" transform="translate(507.37 39.66)"/><path class="2f346c15-62f4-4d91-bf98-dc3ddfc400f8" d="M-210.7,198.69V183H-195v15.7Z" transform="translate(507.37 39.66)"/><path class="2f346c15-62f4-4d91-bf98-dc3ddfc400f8" d="M-286.08,40S-275.15.26-229.74,8.16c0,0-37,4.47-38.52,34.53,0,0,50.72-15.72,72.77,50.3,0,0-22.51-30.26-67.93-31.91,0,0,31,11,33.68,49.12,0,0-17.86-33.46-46.09-38.07,0,0-37.34,4.51-49.64,23.13,0,0,6.2-23.41,27.64-31.31,0,0-49.25-7.33-77.52,9.31,0,0,26.18-29.34,71.88-26.52,0,0-5.36-17.77-36.67-33.28C-340.14,13.46-298.86,16.56-286.08,40Z" transform="translate(507.37 39.66)"/><path class="2f346c15-62f4-4d91-bf98-dc3ddfc400f8" d="M-284.56,40.39A45.35,45.35,0,0,1-274.51,23c11.43-12.69,28-15.92,44.35-13.28l.42-3.07c-19.56,2.45-38.61,15.09-40.08,36.09a1.58,1.58,0,0,0,2,1.51c8.33-2.54,18.06-2,26.36.14,23.42,6.12,37,27.39,44.48,49.07l2.86-1.21c-15.74-21-44-31.52-69.28-32.69-1.86-.08-2,2.51-.41,3.08,19.49,7.08,30.86,28,32.52,47.61l2.92-.79a93.36,93.36,0,0,0-13.16-18.13c-8.13-9-20.39-19.43-33.07-20.52-7-.6-15.25,2.35-21.83,4.44-11.48,3.65-23.29,9.12-30.38,19.27l2.87,1.21c3.62-13.29,13.76-25.18,26.55-30.22,1.24-.49,1.71-2.77,0-3-25.38-3.72-55.94-3.5-78.73,9.46l1.9,2.47C-357,55.2-328.4,47-303.47,48.31a1.58,1.58,0,0,0,1.51-2c-5-15.94-23.67-27.28-37.39-34.22l-.79,2.92c18.86,1.47,42.73,8.4,52.71,25.73a1.57,1.57,0,0,0,2.71-1.58c-10.59-18.38-35.44-25.72-55.42-27.29a1.58,1.58,0,0,0-.79,2.92C-328,21.36-309.71,32.07-305,47.16l1.51-2c-25.73-1.33-55.19,7.22-73,27a1.57,1.57,0,0,0,1.9,2.46c22-12.51,51.76-12.75,76.3-9.15v-3A49.29,49.29,0,0,0-327,94.84a1.57,1.57,0,0,0,2.86,1.21C-317,85.91-304.51,80.79-293,77.44c6.36-1.86,14.11-4.7,20.72-3,17.79,4.71,32.69,20.66,41.23,36.5.71,1.32,3.05.78,2.92-.79C-230,89.07-242.1,67.16-263,59.57l-.42,3.08c24.15,1.11,52,11.67,66.58,31.13,1,1.3,3.49.63,2.86-1.21-7.57-22.11-21.28-43.67-44.82-50.73-9.31-2.79-20.43-3.54-29.87-.66l2,1.51c1.36-19.28,19.76-30.8,36.95-33,1.57-.2,2.34-2.77.42-3.08-16.73-2.7-33.78.16-46,12.62-5.44,5.53-10.13,12.74-12.25,20.29A1.57,1.57,0,0,0-284.56,40.39Z" transform="translate(507.37 39.66)"/><path class="2f346c15-62f4-4d91-bf98-dc3ddfc400f8" d="M-419.86,227.3l2.6,2.76h-1.93l-1.75-1.86a9.1,9.1,0,0,1-5.37,1.63,7.13,7.13,0,0,1-5.26-2,7,7,0,0,1-2-5.14,8.84,8.84,0,0,1,1.17-4.48A8.5,8.5,0,0,1-429.1,215a9.16,9.16,0,0,1,4.56-1.17,7.16,7.16,0,0,1,5.23,2,6.83,6.83,0,0,1,2.05,5.11A8.63,8.63,0,0,1-419.86,227.3Zm-1-1.11a7.3,7.3,0,0,0,1.56-2.42,7.73,7.73,0,0,0,.56-2.88,5.37,5.37,0,0,0-1.61-4,5.78,5.78,0,0,0-4.21-1.57,7.5,7.5,0,0,0-3.76,1,7,7,0,0,0-2.7,2.71,7.28,7.28,0,0,0-1,3.69,6.23,6.23,0,0,0,.72,3,5,5,0,0,0,2,2,6.09,6.09,0,0,0,3,.71A7.67,7.67,0,0,0-422,227.1l-2.54-2.7h1.95Z" transform="translate(507.37 39.66)"/><path class="2f346c15-62f4-4d91-bf98-dc3ddfc400f8" d="M-413.26,218.2h1.45l-.68,4.71a25.4,25.4,0,0,0-.3,2.63,2.79,2.79,0,0,0,.79,2.06,2.82,2.82,0,0,0,2.09.8,3,3,0,0,0,1.87-.62,3.46,3.46,0,0,0,1.14-1.63,15,15,0,0,0,.41-2.32l.76-5.63h1.42l-.55,4.26a24.77,24.77,0,0,1-.83,4.34,4.25,4.25,0,0,1-1.56,2.11,4.41,4.41,0,0,1-2.73.83,4.06,4.06,0,0,1-3-1.19,4.1,4.1,0,0,1-1.17-3,13.68,13.68,0,0,1,.13-1.66l.1-1,.06-.43Z" transform="translate(507.37 39.66)"/><path class="2f346c15-62f4-4d91-bf98-dc3ddfc400f8" d="M-391.46,229.45h-1.45l.22-1.69a6.1,6.1,0,0,1-4.46,2,5.06,5.06,0,0,1-3.76-1.48,5.15,5.15,0,0,1-1.47-3.8,6.33,6.33,0,0,1,1.92-4.62,6.18,6.18,0,0,1,4.51-1.93,5,5,0,0,1,2.47.59,4.81,4.81,0,0,1,1.79,1.84l.26-2.14h1.5Zm-5.53-1a5,5,0,0,0,2.53-.66,4.71,4.71,0,0,0,1.81-1.89,5.47,5.47,0,0,0,.67-2.68,3.81,3.81,0,0,0-1.1-2.84,3.88,3.88,0,0,0-2.86-1.09,4.78,4.78,0,0,0-3.54,1.5,5,5,0,0,0-1.48,3.68,3.87,3.87,0,0,0,1.11,2.88A3.87,3.87,0,0,0-397,228.42Z" transform="translate(507.37 39.66)"/><path class="2f346c15-62f4-4d91-bf98-dc3ddfc400f8" d="M-386.59,218.2h1.38l-.23,1.75a5.1,5.1,0,0,1,4-2,3.82,3.82,0,0,1,2.82,1.07,3.93,3.93,0,0,1,1.07,2.88,21.84,21.84,0,0,1-.23,2.43l-.7,5.16h-1.42l.7-5.16a19.75,19.75,0,0,0,.22-2.44,2.6,2.6,0,0,0-.71-1.91,2.55,2.55,0,0,0-1.88-.72,4,4,0,0,0-2.12.59,3.94,3.94,0,0,0-1.52,1.59,9.84,9.84,0,0,0-.83,3.19l-.65,4.86h-1.42Z" transform="translate(507.37 39.66)"/><path class="2f346c15-62f4-4d91-bf98-dc3ddfc400f8" d="M-364,229.45h-1.46l.23-1.74a6.18,6.18,0,0,1-4.5,2,5,5,0,0,1-3.74-1.48,5.15,5.15,0,0,1-1.47-3.8,6.33,6.33,0,0,1,1.92-4.62,6.14,6.14,0,0,1,4.5-1.93,5,5,0,0,1,2.45.59,5.09,5.09,0,0,1,1.82,1.84l.86-6.48h1.5Zm-5.54-1a5,5,0,0,0,2.54-.66,4.84,4.84,0,0,0,1.82-1.88,5.61,5.61,0,0,0,.67-2.68,3.84,3.84,0,0,0-1.11-2.85,3.88,3.88,0,0,0-2.87-1.09,4.78,4.78,0,0,0-3.54,1.5,5,5,0,0,0-1.48,3.68,3.9,3.9,0,0,0,1.1,2.88A3.92,3.92,0,0,0-369.59,228.42Z" transform="translate(507.37 39.66)"/><path class="2f346c15-62f4-4d91-bf98-dc3ddfc400f8" d="M-353,213.86h1.41l-2.1,15.59h-1.42Z" transform="translate(507.37 39.66)"/><path class="2f346c15-62f4-4d91-bf98-dc3ddfc400f8" d="M-339.47,229.45h-1.46l.22-1.69a6.1,6.1,0,0,1-4.46,2,5.06,5.06,0,0,1-3.76-1.48,5.15,5.15,0,0,1-1.47-3.8,6.33,6.33,0,0,1,1.92-4.62,6.18,6.18,0,0,1,4.52-1.93,5,5,0,0,1,2.46.59,4.74,4.74,0,0,1,1.79,1.84l.26-2.14h1.5Zm-5.54-1a5,5,0,0,0,2.53-.66,4.74,4.74,0,0,0,1.82-1.89,5.58,5.58,0,0,0,.67-2.68,3.82,3.82,0,0,0-1.11-2.84,3.88,3.88,0,0,0-2.86-1.09,4.78,4.78,0,0,0-3.54,1.5,5,5,0,0,0-1.47,3.68,3.86,3.86,0,0,0,1.1,2.88A3.88,3.88,0,0,0-345,228.42Z" transform="translate(507.37 39.66)"/><path class="fca054c6-0433-4600-a74d-2c8490c8bd00" d="M-318.26,220.48l-2.35,1.29a4,4,0,0,0-1.31-1,3.88,3.88,0,0,0-1.51-.27,3.55,3.55,0,0,0-2.57.94,3.22,3.22,0,0,0-1,2.42,3.12,3.12,0,0,0,.94,2.35,3.43,3.43,0,0,0,2.47.91,3.58,3.58,0,0,0,2.95-1.3l2.23,1.53a6.07,6.07,0,0,1-5.11,2.35,6.13,6.13,0,0,1-4.65-1.76,5.75,5.75,0,0,1-1.68-4.11,5.75,5.75,0,0,1,.82-3,5.66,5.66,0,0,1,2.28-2.16,6.84,6.84,0,0,1,3.27-.79,6.69,6.69,0,0,1,3,.67A5.63,5.63,0,0,1-318.26,220.48Z" transform="translate(507.37 39.66)"/><path class="fca054c6-0433-4600-a74d-2c8490c8bd00" d="M-310.43,217.91a6,6,0,0,1,3,.8,5.82,5.82,0,0,1,2.19,2.16,5.84,5.84,0,0,1,.78,2.95,5.85,5.85,0,0,1-.79,3,5.67,5.67,0,0,1-2.15,2.17,6,6,0,0,1-3,.78,5.59,5.59,0,0,1-4.13-1.72,5.71,5.71,0,0,1-1.71-4.18,5.71,5.71,0,0,1,1.93-4.4A5.65,5.65,0,0,1-310.43,217.91Zm0,2.66a2.93,2.93,0,0,0-2.19.92,3.26,3.26,0,0,0-.87,2.34,3.3,3.3,0,0,0,.86,2.37,2.89,2.89,0,0,0,2.19.91,2.91,2.91,0,0,0,2.21-.92,3.26,3.26,0,0,0,.88-2.36,3.31,3.31,0,0,0-.86-2.36A3,3,0,0,0-310.39,220.57Z" transform="translate(507.37 39.66)"/><path class="fca054c6-0433-4600-a74d-2c8490c8bd00" d="M-302.18,218.2h2.82v1.29a4.75,4.75,0,0,1,1.61-1.18,4.57,4.57,0,0,1,1.93-.4,3.61,3.61,0,0,1,1.9.52,3.73,3.73,0,0,1,1.37,1.51,4.56,4.56,0,0,1,1.65-1.51,4.53,4.53,0,0,1,2.13-.52,4,4,0,0,1,2.11.56,3.17,3.17,0,0,1,1.31,1.46,7.69,7.69,0,0,1,.4,2.93v6.59h-2.84v-5.71a4.88,4.88,0,0,0-.48-2.59,1.61,1.61,0,0,0-1.42-.67,2.19,2.19,0,0,0-1.3.41,2.46,2.46,0,0,0-.85,1.14,7,7,0,0,0-.28,2.34v5.08H-295V224a7.61,7.61,0,0,0-.22-2.18,1.94,1.94,0,0,0-.67-1,1.74,1.74,0,0,0-1.08-.33,2.13,2.13,0,0,0-1.28.42,2.53,2.53,0,0,0-.86,1.17,7.29,7.29,0,0,0-.28,2.38v5h-2.82Z" transform="translate(507.37 39.66)"/><path class="2f346c15-62f4-4d91-bf98-dc3ddfc400f8" d="M-275.62,218.2h1.47l-.23,1.69a6.1,6.1,0,0,1,4.46-2,5.12,5.12,0,0,1,3.77,1.48,5.22,5.22,0,0,1,1.46,3.81,6.31,6.31,0,0,1-1.9,4.61,6.13,6.13,0,0,1-4.5,1.93,5,5,0,0,1-2.47-.59,4.86,4.86,0,0,1-1.8-1.85l-.84,6.27h-1.5Zm5.54,1a5.11,5.11,0,0,0-2.54.65,4.74,4.74,0,0,0-1.82,1.89,5.47,5.47,0,0,0-.67,2.68A3.82,3.82,0,0,0-274,227.3a3.9,3.9,0,0,0,2.86,1.1,4.8,4.8,0,0,0,3.55-1.5,5,5,0,0,0,1.48-3.68,3.91,3.91,0,0,0-1.1-2.89A3.88,3.88,0,0,0-270.08,219.24Z" transform="translate(507.37 39.66)"/><path class="2f346c15-62f4-4d91-bf98-dc3ddfc400f8" d="M-256.29,217.91a5.2,5.2,0,0,1,2.64.69,4.9,4.9,0,0,1,1.87,1.91,5.69,5.69,0,0,1,.67,2.78,6.56,6.56,0,0,1-.86,3.28,6.09,6.09,0,0,1-2.3,2.34,6.53,6.53,0,0,1-3.28.83,5,5,0,0,1-3.73-1.48,5.18,5.18,0,0,1-1.46-3.78,6.55,6.55,0,0,1,.86-3.32,6.18,6.18,0,0,1,2.35-2.38A6.3,6.3,0,0,1-256.29,217.91Zm0,1.38a5,5,0,0,0-2.53.67,4.63,4.63,0,0,0-1.82,1.85,5.37,5.37,0,0,0-.63,2.59,4,4,0,0,0,1.09,2.89,3.82,3.82,0,0,0,2.84,1.11,4.81,4.81,0,0,0,2.46-.65,4.59,4.59,0,0,0,1.75-1.87,5.37,5.37,0,0,0,.65-2.61,4.33,4.33,0,0,0-.48-2.07,3.47,3.47,0,0,0-1.38-1.41A3.93,3.93,0,0,0-256.33,219.29Z" transform="translate(507.37 39.66)"/><path class="2f346c15-62f4-4d91-bf98-dc3ddfc400f8" d="M-248.09,218.2h1.45l-.2,1.42a4.29,4.29,0,0,1,1.4-1.26,3.47,3.47,0,0,1,1.68-.45,3.2,3.2,0,0,1,1.27.29l-.68,1.33a2.43,2.43,0,0,0-.9-.22,2.56,2.56,0,0,0-1.49.53,3.77,3.77,0,0,0-1.2,1.53,13.59,13.59,0,0,0-.78,3.32l-.65,4.76h-1.42Z" transform="translate(507.37 39.66)"/><path class="2f346c15-62f4-4d91-bf98-dc3ddfc400f8" d="M-239.37,214h1.42l-.56,4.21h2.27l-.17,1.26h-2.27l-1.33,10h-1.45l1.36-10H-242l.17-1.26h1.93Z" transform="translate(507.37 39.66)"/><path class="2f346c15-62f4-4d91-bf98-dc3ddfc400f8" d="M-223.86,224.12h-10a4.33,4.33,0,0,0,1,3.15,3.74,3.74,0,0,0,2.86,1.15,4.93,4.93,0,0,0,2.2-.49,4.48,4.48,0,0,0,1.68-1.36l1.07.88a5.73,5.73,0,0,1-2.13,1.66,6.53,6.53,0,0,1-2.85.63,4.83,4.83,0,0,1-4-1.64,5.71,5.71,0,0,1-1.32-3.68,6.32,6.32,0,0,1,.89-3.23,6.43,6.43,0,0,1,2.39-2.41,6.38,6.38,0,0,1,3.25-.87,4.77,4.77,0,0,1,3.58,1.47,5.12,5.12,0,0,1,1.41,3.72A8.3,8.3,0,0,1-223.86,224.12Zm-1.32-1.26a3.65,3.65,0,0,0-1.09-2.58,3.58,3.58,0,0,0-2.57-1,4.79,4.79,0,0,0-3,.95,5.07,5.07,0,0,0-1.83,2.61Z" transform="translate(507.37 39.66)"/><path class="2f346c15-62f4-4d91-bf98-dc3ddfc400f8" d="M-209.11,219.46l-.79,1.17a2.73,2.73,0,0,0-2.26-1.35,1.83,1.83,0,0,0-1.27.48,1.48,1.48,0,0,0-.53,1.08,1.39,1.39,0,0,0,.33.87,5.75,5.75,0,0,0,1.41,1.12,7.59,7.59,0,0,1,2.13,1.82,3.27,3.27,0,0,1,.51,1.81,3.08,3.08,0,0,1-1,2.35,3.59,3.59,0,0,1-2.57.93,4.33,4.33,0,0,1-3.52-1.85l.88-1a3.56,3.56,0,0,0,2.72,1.52,2.06,2.06,0,0,0,1.46-.59,1.82,1.82,0,0,0,.62-1.37,1.91,1.91,0,0,0-.46-1.21,8.75,8.75,0,0,0-1.62-1.26,8,8,0,0,1-1.86-1.61,2.47,2.47,0,0,1-.44-1.43,2.81,2.81,0,0,1,.94-2.13,3.38,3.38,0,0,1,2.38-.88,3.55,3.55,0,0,1,1.54.34A4.66,4.66,0,0,1-209.11,219.46Z" transform="translate(507.37 39.66)"/><path class="2f346c15-62f4-4d91-bf98-dc3ddfc400f8" d="M-196,224.12h-10a4.33,4.33,0,0,0,1.05,3.15,3.74,3.74,0,0,0,2.86,1.15,4.93,4.93,0,0,0,2.2-.49,4.48,4.48,0,0,0,1.68-1.36l1.07.88a5.73,5.73,0,0,1-2.13,1.66,6.53,6.53,0,0,1-2.85.63,4.81,4.81,0,0,1-4-1.64,5.67,5.67,0,0,1-1.33-3.68,6.42,6.42,0,0,1,.89-3.23,6.46,6.46,0,0,1,2.4-2.41,6.32,6.32,0,0,1,3.24-.87,4.77,4.77,0,0,1,3.58,1.47,5.13,5.13,0,0,1,1.42,3.72A8.56,8.56,0,0,1-196,224.12Zm-1.32-1.26a3.6,3.6,0,0,0-1.09-2.58,3.58,3.58,0,0,0-2.57-1,4.83,4.83,0,0,0-3,.95,5.07,5.07,0,0,0-1.83,2.61Z" transform="translate(507.37 39.66)"/><path class="2f346c15-62f4-4d91-bf98-dc3ddfc400f8" d="M-187.13,219.46l-.79,1.17a2.73,2.73,0,0,0-2.26-1.35,1.83,1.83,0,0,0-1.27.48,1.48,1.48,0,0,0-.53,1.08,1.39,1.39,0,0,0,.33.87,5.75,5.75,0,0,0,1.41,1.12,7.59,7.59,0,0,1,2.13,1.82,3.27,3.27,0,0,1,.51,1.81,3.08,3.08,0,0,1-1,2.35,3.59,3.59,0,0,1-2.57.93,4.33,4.33,0,0,1-3.52-1.85l.88-1a3.56,3.56,0,0,0,2.72,1.52,2.06,2.06,0,0,0,1.46-.59,1.82,1.82,0,0,0,.62-1.37,1.91,1.91,0,0,0-.46-1.21,8.75,8.75,0,0,0-1.62-1.26,8,8,0,0,1-1.86-1.61,2.47,2.47,0,0,1-.44-1.43,2.81,2.81,0,0,1,.94-2.13,3.38,3.38,0,0,1,2.38-.88,3.55,3.55,0,0,1,1.54.34A4.66,4.66,0,0,1-187.13,219.46Z" transform="translate(507.37 39.66)"/><path class="2f346c15-62f4-4d91-bf98-dc3ddfc400f8" d="M-173.34,214.24l-.2,1.38a2.28,2.28,0,0,0-1.49-.75.92.92,0,0,0-.76.42,3.94,3.94,0,0,0-.5,1.71l-.16,1.2h2.36l-.15,1.26h-2.38l-1.34,10h-1.42l1.35-10h-1.35l.15-1.26h1.37l.13-1a9.6,9.6,0,0,1,.54-2.34,2.31,2.31,0,0,1,.84-.94,2.2,2.2,0,0,1,1.22-.36A3.07,3.07,0,0,1-173.34,214.24Z" transform="translate(507.37 39.66)"/><path class="2f346c15-62f4-4d91-bf98-dc3ddfc400f8" d="M-172.22,218.2h1.45l-.19,1.42a4.1,4.1,0,0,1,1.4-1.26,3.41,3.41,0,0,1,1.67-.45,3.28,3.28,0,0,1,1.28.29l-.69,1.33a2.34,2.34,0,0,0-.89-.22,2.59,2.59,0,0,0-1.5.53,3.67,3.67,0,0,0-1.19,1.53,12.71,12.71,0,0,0-.78,3.32l-.66,4.76h-1.42Z" transform="translate(507.37 39.66)"/><path class="2f346c15-62f4-4d91-bf98-dc3ddfc400f8" d="M-164.6,218.2h1.45l-.68,4.71a25.4,25.4,0,0,0-.3,2.63,2.79,2.79,0,0,0,.79,2.06,2.82,2.82,0,0,0,2.09.8,3,3,0,0,0,1.87-.62,3.46,3.46,0,0,0,1.14-1.63,15,15,0,0,0,.41-2.32l.76-5.63h1.42l-.55,4.26a24.77,24.77,0,0,1-.83,4.34,4.25,4.25,0,0,1-1.56,2.11,4.39,4.39,0,0,1-2.73.83,4.06,4.06,0,0,1-3-1.19,4.1,4.1,0,0,1-1.17-3,13.68,13.68,0,0,1,.13-1.66l.11-1,0-.43Z" transform="translate(507.37 39.66)"/><path class="2f346c15-62f4-4d91-bf98-dc3ddfc400f8" d="M-152.68,218.2h1.37l-1.47,11.25h-1.42Zm1.14-4.63a1.11,1.11,0,0,1,.81.34,1.12,1.12,0,0,1,.35.82,1.1,1.1,0,0,1-.35.82,1.07,1.07,0,0,1-.81.34,1.08,1.08,0,0,1-.82-.34,1.09,1.09,0,0,1-.34-.82,1.11,1.11,0,0,1,.34-.82A1.12,1.12,0,0,1-151.54,213.57Z" transform="translate(507.37 39.66)"/><path class="2f346c15-62f4-4d91-bf98-dc3ddfc400f8" d="M-146.38,214H-145l-.57,4.21h2.27l-.17,1.26h-2.26l-1.33,10h-1.45l1.35-10H-149l.18-1.26h1.92Z" transform="translate(507.37 39.66)"/><path class="2f346c15-62f4-4d91-bf98-dc3ddfc400f8" d="M-135.75,219.46l-.79,1.17a2.72,2.72,0,0,0-2.25-1.35,1.85,1.85,0,0,0-1.28.48,1.46,1.46,0,0,0-.52,1.08,1.38,1.38,0,0,0,.32.87,6,6,0,0,0,1.41,1.12,7.59,7.59,0,0,1,2.13,1.82,3.27,3.27,0,0,1,.51,1.81,3.08,3.08,0,0,1-1,2.35,3.59,3.59,0,0,1-2.57.93,4.3,4.3,0,0,1-3.51-1.85l.87-1a3.58,3.58,0,0,0,2.73,1.52,2.05,2.05,0,0,0,1.45-.59,1.82,1.82,0,0,0,.62-1.37,1.91,1.91,0,0,0-.46-1.21,8.93,8.93,0,0,0-1.61-1.26,7.56,7.56,0,0,1-1.86-1.61,2.41,2.41,0,0,1-.45-1.43,2.81,2.81,0,0,1,.94-2.13,3.38,3.38,0,0,1,2.38-.88,3.52,3.52,0,0,1,1.54.34A4.66,4.66,0,0,1-135.75,219.46Z" transform="translate(507.37 39.66)"/><path class="2f346c15-62f4-4d91-bf98-dc3ddfc400f8" d="M-126.73,227.22a1.22,1.22,0,0,1,.9.37,1.23,1.23,0,0,1,.36.89,1.25,1.25,0,0,1-.36.89,1.22,1.22,0,0,1-.9.37,1.19,1.19,0,0,1-.89-.37,1.22,1.22,0,0,1-.37-.89,1.2,1.2,0,0,1,.37-.89A1.19,1.19,0,0,1-126.73,227.22Zm1.18-13.36h1.42l-1.57,11.8h-1.45Z" transform="translate(507.37 39.66)"/><path class="2f346c15-62f4-4d91-bf98-dc3ddfc400f8" d="M-364.67,141.79c-2.35,9.27-9.5,20.23-18,23.14a12.7,12.7,0,0,1-4,.67,13.6,13.6,0,0,1-10.95-5.7,15.79,15.79,0,0,1-3.13-9.73c0-4.92,1.79-10.4,4.69-15.65C-391,125.58-384,120-376.63,120c3.24,0,5.26,1.23,7.38,4.13,3.13,3.69,6.26,4.48,5.25,14,2.91,0,3.13,1,2.24,2.12A4.69,4.69,0,0,1-364.67,141.79Zm-24.7,18.11c2.91,0,7.38-4.14,11.51-11.74a38.06,38.06,0,0,0,3.69-8,14.19,14.19,0,0,1-6.82-9.05,36,36,0,0,0-6.37,8.38c-2.9,5.36-4.69,11.62-4.69,15.76C-392,158.55-391,159.9-389.37,159.9Zm18.55-30.74c0-1.68-.89-2.35-1.67-2.35s-1.68.89-1.68,2.68c0,2,.56,4.92,1.79,6.37A18.61,18.61,0,0,0-370.82,129.16Z" transform="translate(507.37 39.66)"/><path class="2f346c15-62f4-4d91-bf98-dc3ddfc400f8" d="M-303,141.79c-2.35,9.27-9.5,20.23-18,23.14a12.58,12.58,0,0,1-4,.67,13.59,13.59,0,0,1-10.95-5.7,15.79,15.79,0,0,1-3.13-9.73c0-4.92,1.78-10.4,4.69-15.65,5-8.94,12.07-14.53,19.45-14.53,3.24,0,5.25,1.23,7.38,4.13,3.13,3.69,6.26,4.48,5.25,14,2.91,0,3.13,1,2.24,2.12A4.71,4.71,0,0,1-303,141.79Zm-24.7,18.11c2.9,0,7.38-4.14,11.51-11.74a38.06,38.06,0,0,0,3.69-8,14.19,14.19,0,0,1-6.82-9.05,35.78,35.78,0,0,0-6.37,8.38c-2.91,5.36-4.7,11.62-4.7,15.76C-330.36,158.55-329.35,159.9-327.67,159.9Zm18.55-30.74c0-1.68-.89-2.35-1.67-2.35s-1.68.89-1.68,2.68c0,2,.56,4.92,1.79,6.37A18.61,18.61,0,0,0-309.12,129.16Z" transform="translate(507.37 39.66)"/><text class="cbe72fd8-6455-44a7-b085-e1853b931304" transform="translate(141.28 224.37)">c</text><path class="9c1f3bae-5ae5-4d5a-bb02-818e691ebc52" d="M-367,193c22.31,9.81,50.88,1.39,69-13.18,2.36-1.89-1-5.2-3.33-3.32-16.24,13.07-43.13,21.3-63.27,12.44-2.75-1.21-5.14,2.84-2.38,4.06Z" transform="translate(507.37 39.66)"/></svg>