<svg xmlns="http://www.w3.org/2000/svg" viewBox="0 0 552.54 632.17"><defs><style>.\38 905962a-7f96-4179-93dd-e386d9891003{opacity:0.2;}.a1ca0d87-a4ea-4590-b370-b99fdb95e09b{fill:#00a19a;}.\36 a39c9fc-e7d1-4f1e-a609-dec90f9f9f2d{fill:#cd2a44;}.\34 1b70f8c-1dee-4a8d-ba0d-f56e8a65b177{fill:#067d74;}.\32 18b85f3-2d23-4324-99d9-c68e93e8d103{fill:#dd5c42;}.\38 33c121d-620b-4863-b726-76fa731508af{fill:#6e4f3e;}.\35 bdca390-9c22-47dc-92dd-e6fc34f9cdd5{fill:none;}.\35 1c49ed2-a086-40f6-854d-95c186496a41{fill:#f18a60;}.\38 a6c4cce-c523-4eaa-ad5c-efc52c5608ed{fill:#e9465a;}.f85753a4-5748-403b-874d-62e2462996a3{fill:#7d5c47;}.\37 f86afa0-974c-4b49-81b3-f63bd620bf8c{fill:#95c11f;}.\39 eb7cd5a-9569-414b-b387-3581ebc790cf{fill:#e72f48;}.\30 20f9f0c-3005-4700-89a4-5baf8fe6432f{fill:#ed6e4c;}.\30 9841218-27d5-49a0-8da3-fe18b8962f99{fill:#fff;}</style></defs><title>Fichier 2</title><g id="7b04585b-7ac0-4dad-bbf1-08bf1d956706" data-name="Calque 2"><g id="8c05e4de-f430-42f0-b7ed-7640957cfdcb" data-name="Calque 3"><g class="8905962a-7f96-4179-93dd-e386d9891003"><path class="a1ca0d87-a4ea-4590-b370-b99fdb95e09b" d="M77.85,601.15C35.09,575.5,2.1,520.5.11,466.93c-1-25.68,4.49-52.74,20.12-71.84,28.09-34.31,79.93-33.92,108.22-68,11.35-13.68,17.57-31.47,23.25-48.92,19.5-59.92,38.26-125.46,85.08-162.81,44.75-35.71,105-36.73,159.59-27.23,26.54,4.62,45,6.14,72.67,29.6,19.61,16.61,26.93,22.84,36.67,37,25.35,36.89,43.89,80.66,46.53,126.82s-12.18,94.65-44.1,124.72c-43.69,41.17-113.73,45.43-144.95,98.6-15,25.6,15.85,65.05-28.05,96.8-15.82,11.44-44.22,1.64-62.63,5-65.91,12-109.87,13.79-175.47-.13"/></g><g class="8905962a-7f96-4179-93dd-e386d9891003"><path class="a1ca0d87-a4ea-4590-b370-b99fdb95e09b" d="M221.92,55.13c-4.65-11-2.83-24.17,3.86-34S243.63,4.83,255.39,3s24,.86,33.31,8.09,15,19.12,13.82,30.81c-.18,1.83-.6,3.8-2,5s-3.34,1.33-5.15,1.41l-19.8.92c-9.18.42-19.84,1.69-24.61,9.54-2.36,3.9-3.1,9.23-7.1,11.43a9.67,9.67,0,0,1-4.72,1c-9.31,0-17.58-9.07-16.75-18.34"/><path class="a1ca0d87-a4ea-4590-b370-b99fdb95e09b" d="M224.33,54.47c-5.71-14.47-.79-30.63,11.25-40.25A43.65,43.65,0,0,1,278.35,8a35.42,35.42,0,0,1,17.23,14.7c2.8,4.73,9,20.81.84,23-3.91,1.06-8.86.46-12.92.65s-8.1.29-12.13.64c-5.68.49-11.62,1.44-16.54,4.52a18.43,18.43,0,0,0-6,6c-2,3.23-2.49,7.53-5.67,9.81-8.78,6.3-18.57-6.38-18.24-14.44.13-3.22-4.87-3.21-5,0a20.29,20.29,0,0,0,10.72,18.61c6.65,3.53,14.94,3.09,19-3.88,2.16-3.75,2.92-8,6.45-10.8,3.86-3.12,9.09-4.16,13.92-4.68,5.15-.55,10.36-.62,15.53-.86,4.53-.21,10.64.56,14.89-1.38,7-3.21,5.08-14.88,3.41-20.72A39.37,39.37,0,0,0,290,8.93c-14.4-11-34.86-11.58-50.6-3.13-17.73,9.52-27.45,30.75-19.85,50,1.17,3,6,1.67,4.82-1.32Z"/></g><g class="8905962a-7f96-4179-93dd-e386d9891003"><path class="a1ca0d87-a4ea-4590-b370-b99fdb95e09b" d="M470.45,464.77c-4.8,7.71-13.61,12-22.33,14.49s-17.87,3.71-26.23,7.25-16.17,10.12-18,19a20,20,0,0,0,8.81,20.38A15.49,15.49,0,0,0,421,528.4c5.44-.06,10.18-3.5,14.51-6.79l13.4-10.17,22.21-16.88c4.65-3.53,9.42-7.2,12.44-12.21s3.92-11.75.64-16.6a9.09,9.09,0,0,0-6.95-4.19,6.37,6.37,0,0,0-6.39,4.45"/><path class="a1ca0d87-a4ea-4590-b370-b99fdb95e09b" d="M468.29,463.51c-10.83,16.23-33.74,14-49.63,21.74-12.55,6.12-22,19.8-15.29,33.7,3.11,6.43,9.45,11.53,16.75,11.9,8.55.43,15.52-6.22,21.85-11l25.64-19.48c6.42-4.88,13.92-9.62,18.1-16.73,3.66-6.2,4.63-15.07-.61-20.74s-13.76-4.77-16.66,2.48c-1.19,3,3.64,4.28,4.82,1.33,2.26-5.64,8.05-1.4,9.51,1.58a12.07,12.07,0,0,1,.61,8c-1,4.16-3.59,7.55-6.62,10.47-6.41,6.17-14.13,11.18-21.19,16.55-7.54,5.73-15,11.6-22.64,17.19-3.47,2.55-7.43,5.41-11.94,5.46-5.16.06-9.73-3.41-12.31-7.64-4.49-7.36-2.69-15.93,3-22s14-8.94,22.06-11c14.32-3.58,30-6.08,38.83-19.31,1.8-2.68-2.53-5.19-4.31-2.52Z"/></g></g><g id="d9ab9b0c-f3ed-4328-b87c-dc46e021161b" data-name="Calque 2"><path class="6a39c9fc-e7d1-4f1e-a609-dec90f9f9f2d" d="M407.25,159.37c-2.07-7.7-4.2-15.21-6.2-22.18l-.45-1.6c-1.64-5.77-3.33-11.75-6.71-17-2.45-3.81-5.31-4-6.79-3.85-2.87.38-5.31,2.89-6.53,6.71a28,28,0,0,0-1,5.68l-.09.82a88.57,88.57,0,0,0-.48,9.4c0,1.48,0,3,.13,4.47a28.91,28.91,0,0,0-3.72-7.35c-.38-.51-3.76-4.89-7.48-4.89h-.22a4.51,4.51,0,0,0-3.58,2.07l-1.91.57c-1.8-1.79-3.69-3.54-5.66-5.14a55.58,55.58,0,0,0-26.93-11.33L327,91.44c8.48.4,26.23-2.33,37.34-29.12l1.1-2.66-2.61-1.21c-9.83-4.56-19.8-4.88-28.09-.9-6.81,3.28-11.53,9.13-14.33,17.81-3.81-14.1-17.71-21.53-30.76-21.61l-3.11,0,.1,3.11a35,35,0,0,0,31.5,33.94c-.2,4.83-.28,8.79-.27,12.46v.13c0,1.59,0,3.18.08,4.76l0,.49c0,1.32.11,2.64.19,4l.08,1.13c.11,1.64.23,3,.36,4.25l-.12.34c-19.8,13.14-33.91,36.18-40.81,66.68l-.08.35c-1.28,5.69-2.62,11.57-2.87,17.54a80.49,80.49,0,0,0,1.37,16.29l-1.05.34c-24.14-3.27-52-4.76-75.74,9l-.68.39c-1.66-19.07-3.62-38.31-5.82-57.53l2.17-.42c12.08-2.34,22.09-9.53,27.48-19.7,4.15-7.83,5-21.89-.42-30.35a14.62,14.62,0,0,0-13.5-7l-.1-.1c-3.08-19.41-22.2-27.87-39.14-29.31a66.38,66.38,0,0,0-44.08,12.11l-.19-.2-1-.16c-23.78-3.64-43.87-.72-59.72,8.7a67.65,67.65,0,0,0-21.64,21.2c-4.48,7-9.36,17.91-7.12,29.62l.1.47-.07.09c-4.49,5.92-9.13,12-11.42,19.46-2.37,7.7-1.85,16.25,1.59,26.12,2.65,7.58,6.59,14.55,10.41,21.28,2.67,4.72,5.44,9.6,7.66,14.56l2.72,6a26.53,26.53,0,0,0-.33,5.18,22.9,22.9,0,0,0,16,20.55A18.15,18.15,0,0,0,75,268.86l1.4,1.48L74.2,271.7a116,116,0,0,0-49,63.58c-8.66,27.87-5.91,59.07,7.56,85.6A117.89,117.89,0,0,0,56.2,452.41l3.45,8.81a268,268,0,0,1,15.87,135.2,138.59,138.59,0,0,1,12.35,8.22h241.5a5.59,5.59,0,0,1,1.14-1.07,57.88,57.88,0,0,1,7.6-4.43,773.08,773.08,0,0,0-10.86-123.47l-.87-5.08.63-.75.37-.47,3.13,1a33,33,0,0,0,37.8-13.45c8.05-12.16,13.05-26.51,17.88-40.38l1-2.87c8.54-24.43,15.32-51.44,20.74-82.59.36-2.09.7-4.18,1-6.28l.08-.54c1.67-10.54,3.11-21.79,4.67-36.46.6-5.71,1.47-11.54,2.31-17.17,1-6.39,1.94-13,2.57-19.57l0-.5c.18-2,.32-3.81.42-5.56h0C420.8,214.73,414.07,184.73,407.25,159.37ZM299.07,264.27a6.57,6.57,0,0,0-2.08-.53,4.13,4.13,0,0,1,1.69.15,2.88,2.88,0,0,1,1.3.87A6.05,6.05,0,0,0,299.07,264.27Zm57.78,153.82,0-.08,2.16.87Z"/><path class="41b70f8c-1dee-4a8d-ba0d-f56e8a65b177" d="M407.25,159.37c-2.07-7.7-4.2-15.21-6.2-22.18l-.45-1.6c-1.64-5.77-3.33-11.75-6.71-17-2.45-3.81-5.31-4-6.79-3.85-2.87.38-5.31,2.89-6.53,6.71a28,28,0,0,0-1,5.68l-.09.82a88.57,88.57,0,0,0-.48,9.4c0,1.48,0,3,.13,4.47a28.91,28.91,0,0,0-3.72-7.35c-.38-.51-3.76-4.89-7.48-4.89h-.22a4.51,4.51,0,0,0-3.58,2.07l-1.91.57c-1.8-1.79-3.69-3.54-5.66-5.14a55.58,55.58,0,0,0-26.93-11.33L327,91.44c8.48.4,26.23-2.33,37.34-29.12l1.1-2.66-2.61-1.21c-9.83-4.56-19.8-4.88-28.09-.9-6.81,3.28-11.53,9.13-14.33,17.81-3.81-14.1-17.71-21.53-30.76-21.61l-3.11,0,.1,3.11a35,35,0,0,0,31.5,33.94c-.2,4.83-.28,8.79-.27,12.46v.13c0,1.59,0,3.18.08,4.76l0,.49c0,1.32.11,2.64.19,4l.08,1.13c.11,1.64.23,3,.36,4.25l-.12.34c-19.8,13.14-33.91,36.18-40.81,66.68l-.08.35c-1.28,5.69-2.62,11.57-2.87,17.54a80.49,80.49,0,0,0,1.37,16.29l-1.05.34c-24.14-3.27-52-4.76-75.74,9l-.68.39c-1.66-19.07-3.62-38.31-5.82-57.53l2.17-.42c12.08-2.34,22.09-9.53,27.48-19.7,4.15-7.83,5-21.89-.42-30.35a14.62,14.62,0,0,0-13.5-7l-.1-.1c-3.08-19.41-22.2-27.87-39.14-29.31a66.38,66.38,0,0,0-44.08,12.11l-.19-.2-1-.16c-23.78-3.64-43.87-.72-59.72,8.7a67.65,67.65,0,0,0-21.64,21.2c-4.48,7-9.36,17.91-7.12,29.62l.1.47-.07.09c-4.49,5.92-9.13,12-11.42,19.46-2.37,7.7-1.85,16.25,1.59,26.12,2.65,7.58,6.59,14.55,10.41,21.28,2.67,4.72,5.44,9.6,7.66,14.56l2.72,6a26.53,26.53,0,0,0-.33,5.18,22.9,22.9,0,0,0,16,20.55A18.15,18.15,0,0,0,75,268.86l1.4,1.48L74.2,271.7a116,116,0,0,0-49,63.58c-8.66,27.87-5.91,59.07,7.56,85.6A117.89,117.89,0,0,0,56.2,452.41l3.45,8.81A268,268,0,0,1,75.16,598.85l.4.22a62.19,62.19,0,0,0,10.31,5.5l.17.07H327.77a5.47,5.47,0,0,1,1.24-1.07,56,56,0,0,1,9.1-4.55,773.8,773.8,0,0,0-10.86-123.35l-.87-5.08.63-.75.37-.47,3.13,1a33,33,0,0,0,37.8-13.45c8.05-12.16,13.05-26.51,17.88-40.38l1-2.87c8.54-24.43,15.32-51.44,20.74-82.59.36-2.09.7-4.18,1-6.28l.08-.54c1.67-10.54,3.11-21.79,4.67-36.46.6-5.71,1.47-11.54,2.31-17.17,1-6.39,1.94-13,2.57-19.57l0-.5c.18-2,.32-3.81.42-5.56h0C420.8,214.73,414.07,184.73,407.25,159.37ZM299.07,264.27a6.57,6.57,0,0,0-2.08-.53,4.13,4.13,0,0,1,1.69.15,2.88,2.88,0,0,1,1.3.87A6.05,6.05,0,0,0,299.07,264.27Zm57.78,153.82,0-.08,2.16.87Z"/><path class="41b70f8c-1dee-4a8d-ba0d-f56e8a65b177" d="M407.25,159.37c-2.07-7.7-4.2-15.21-6.2-22.18l-.45-1.6c-1.64-5.77-3.33-11.75-6.71-17-2.45-3.81-5.31-4-6.79-3.85-2.87.38-5.31,2.89-6.53,6.71a28,28,0,0,0-1,5.68l-.09.82a88.57,88.57,0,0,0-.48,9.4c0,1.48,0,3,.13,4.47a28.91,28.91,0,0,0-3.72-7.35c-.38-.51-3.76-4.89-7.48-4.89h-.22a4.51,4.51,0,0,0-3.58,2.07l-1.91.57c-1.8-1.79-3.69-3.54-5.66-5.14a55.58,55.58,0,0,0-26.93-11.33L327,91.44c8.48.4,26.23-2.33,37.34-29.12l1.1-2.66-2.61-1.21c-9.83-4.56-19.8-4.88-28.09-.9-6.81,3.28-11.53,9.13-14.33,17.81-3.81-14.1-17.71-21.53-30.76-21.61l-3.11,0,.1,3.11a35,35,0,0,0,31.5,33.94c-.2,4.83-.28,8.79-.27,12.46v.13c0,1.59,0,3.18.08,4.76l0,.49c0,1.32.11,2.64.19,4l.08,1.13c.11,1.64.23,3,.36,4.25l-.12.34c-19.8,13.14-33.91,36.18-40.81,66.68l-.08.35c-1.28,5.69-2.62,11.57-2.87,17.54a80.49,80.49,0,0,0,1.37,16.29l-1.05.34c-24.14-3.27-52-4.76-75.74,9l-.68.39q-.69-7.95-1.46-15.93c-6.11,5.23-12.25,10.41-18.52,15.43-21.18,17-44.16,32.49-70.49,40.09-13,3.75-26.54,6.83-40.13,7.5a115.88,115.88,0,0,0-42.77,59.34c-8.66,27.87-5.91,59.07,7.56,85.6A117.89,117.89,0,0,0,56.2,452.41l3.45,8.81A268.27,268.27,0,0,1,75.57,596.14c2.17.74,4.34,1.53,6.5,2.32a4.61,4.61,0,0,1,1.77.65c1.84.67,3.68,1.33,5.53,2a4.82,4.82,0,0,1,3.3,3.57h233a1,1,0,0,1,.07-.15,4.6,4.6,0,0,1,1.55-1.62,4.53,4.53,0,0,1,3.93-2,4.74,4.74,0,0,1,3,1,44.58,44.58,0,0,1,3.9-2.79,773.36,773.36,0,0,0-10.86-123.4l-.87-5.08.63-.75.37-.47,3.13,1a33,33,0,0,0,37.8-13.45c8.05-12.16,13.05-26.51,17.88-40.38l1-2.87c8.54-24.43,15.32-51.44,20.74-82.59.36-2.09.7-4.18,1-6.28l.08-.54c1.67-10.54,3.11-21.79,4.67-36.46.6-5.71,1.47-11.54,2.31-17.17,1-6.39,1.94-13,2.57-19.57l0-.5c.18-2,.32-3.81.42-5.56h0C420.8,214.73,414.07,184.73,407.25,159.37ZM299.07,264.27a6.57,6.57,0,0,0-2.08-.53,4.13,4.13,0,0,1,1.69.15,2.88,2.88,0,0,1,1.3.87A6.05,6.05,0,0,0,299.07,264.27Zm57.78,153.82,0-.08,2.16.87Z"/><path class="6a39c9fc-e7d1-4f1e-a609-dec90f9f9f2d" d="M36.07,223.09c2.67,4.72,5.44,9.6,7.66,14.56l2.72,6a26.53,26.53,0,0,0-.33,5.18A22.62,22.62,0,0,0,55,265.69a87.88,87.88,0,0,0,23.14-.75c17-2.47,34.1-7.21,49.51-14.78,25.39-12.48,46.94-31,68.29-49.34q-1.49-14.73-3.18-29.5l2.17-.42c12.08-2.34,22.09-9.53,27.48-19.7,4.15-7.83,5-21.89-.42-30.35a14.62,14.62,0,0,0-13.5-7l-.1-.1c-3.08-19.41-22.2-27.87-39.14-29.31a66.38,66.38,0,0,0-44.08,12.11l-.19-.2-1-.16c-23.78-3.64-43.87-.72-59.72,8.7a67.65,67.65,0,0,0-21.64,21.2c-4.48,7-9.36,17.91-7.12,29.62l.1.47-.07.09c-4.49,5.92-9.13,12-11.42,19.46-2.37,7.7-1.85,16.25,1.59,26.12C28.31,209.39,32.25,216.36,36.07,223.09Z"/><path class="218b85f3-2d23-4324-99d9-c68e93e8d103" d="M407.25,159.37c-2.07-7.7-4.2-15.21-6.2-22.18l-.45-1.6c-1.64-5.77-3.33-11.75-6.71-17-2.45-3.81-5.31-4-6.79-3.85-2.87.38-5.31,2.89-6.53,6.71a28,28,0,0,0-1,5.68l-.09.82a88.57,88.57,0,0,0-.48,9.4c0,1.48,0,3,.13,4.47a28.91,28.91,0,0,0-3.72-7.35c-.38-.51-3.76-4.89-7.48-4.89h-.22a4.51,4.51,0,0,0-3.58,2.07l-1.91.57c-1.8-1.79-3.69-3.54-5.66-5.14-.35-.28-.74-.54-1.1-.82a112,112,0,0,0-1.29,11.45c-.87,14.5,3.14,28.75,3.83,43.18a4.82,4.82,0,0,1-.45,2.36,4,4,0,0,1-2.53,4.46c-8.5,3.88-17.71,6.34-25.88,10.92-9.11,5.11-13.61,13.62-18.68,22.39a241.26,241.26,0,0,1-16.17,25c-5.47,7.23-10.86,14.85-14.16,23.36-4.64,12-4.38,24.25-1.89,36.28a5.54,5.54,0,0,1,6.51,4.69c.39,3.23.91,6.45,1.55,9.64a4.6,4.6,0,0,1,3.89,3.53c.89,6,1.91,11.93,4.15,17.59a4.51,4.51,0,0,1,1.08,2.34,4,4,0,0,1,.15.45,5.43,5.43,0,0,1-.51,3.85c.6-1.35,0,.09-.11.38s-.29.86-.45,1.29a21.32,21.32,0,0,1-1.44,3.33l-.07.11a1.33,1.33,0,0,0,0,.19c-.46,2.76-3.73,4.05-6.15,3.5-2.81-.65-3.93-3.59-3.49-6.15a22.18,22.18,0,0,1,1.15-4.09,5.06,5.06,0,0,1-.79-.81,11.54,11.54,0,0,1-1.25,1.38c-2.51,2.34-5.93,3.66-8.89,5.29-4.71,2.59-9.35,5.32-13.94,8.12-9.12,5.59-17.89,11.64-27.49,16.41s-19.26,8.87-28.57,14a5,5,0,0,1-2.56.65s0,.05-.05.06a34.56,34.56,0,0,0-6.1,7.24,5.35,5.35,0,0,1-2.14,1.93,5.16,5.16,0,0,1-5.26.53C171.63,425.6,153,451.7,155,482a5.32,5.32,0,0,1,3.07,3.31,14.74,14.74,0,0,0,2.16,4.37c.94,1.25,2.31,2.12,3.31,3.34a5.91,5.91,0,0,1,1.4,3.78,5.29,5.29,0,0,1,.59,1.55,5,5,0,0,1,.43,2.16c0,3.36-.44,6.71-.12,10.07a3.69,3.69,0,0,1,0,.88c5.82,5.06,13.83,6.82,21.2,8.55a272.33,272.33,0,0,0,30.53,5.5c18.62,2.19,37.23,2.36,55.95,2.38,8.53,0,17,.39,25.56-.15a82.3,82.3,0,0,0,15.7-2.24c3.13-.83,7.67-2,9.62-4.86,2.57-3.81-2.4-9.89-3.38-13.8a19.12,19.12,0,0,1,.83-11.72c1.32-3.43,3.87-7.1,3-10.9a4.92,4.92,0,0,1-.15-1.11,5.18,5.18,0,0,1-1.35-2.27,5.32,5.32,0,0,1,.5-3.85c.74-1.53,2-2.55,3.11-3.79l-.45-2.61.63-.75.37-.47,3.13,1a33,33,0,0,0,37.8-13.45c8.05-12.16,13.05-26.51,17.88-40.38l1-2.87c8.54-24.43,15.32-51.44,20.74-82.59.36-2.09.7-4.18,1-6.28l.08-.54c1.67-10.54,3.11-21.79,4.67-36.46.6-5.71,1.47-11.54,2.31-17.17,1-6.39,1.94-13,2.57-19.57l0-.5c.18-2,.32-3.81.42-5.56h0C420.8,214.73,414.07,184.73,407.25,159.37ZM299.07,264.27a6.57,6.57,0,0,0-2.08-.53,4.13,4.13,0,0,1,1.69.15,2.88,2.88,0,0,1,1.3.87A6.05,6.05,0,0,0,299.07,264.27Zm57.78,153.82,0-.08,2.16.87Z"/><path class="6a39c9fc-e7d1-4f1e-a609-dec90f9f9f2d" d="M33.85,219.14c6.08-4.65,13.26-6.41,21.14-7.18,8.19-.8,19.53-2.43,27.49,1.27,6.82-4.86,16.47-6.29,24.28-7.8,12.64-2.44,25.44-4,37.9-7.29,10.5-12.74,23-23.49,35.09-34.66a4.94,4.94,0,0,1,7,.2,4.91,4.91,0,0,1,7.77,0,5,5,0,0,1,2.15-.46c3.61,0,5.2,3.14,4.76,5.9a38.26,38.26,0,0,0,21-17.9c4.15-7.83,5-21.89-.42-30.35a14.62,14.62,0,0,0-13.5-7l-.1-.1c-3.08-19.41-22.2-27.87-39.14-29.31a66.38,66.38,0,0,0-44.08,12.11l-.19-.2-1-.16c-23.78-3.64-43.87-.72-59.72,8.7a67.65,67.65,0,0,0-21.64,21.2c-4.48,7-9.36,17.91-7.12,29.62l.1.47-.07.09c-4.49,5.92-9.13,12-11.42,19.46-2.37,7.7-1.85,16.25,1.59,26.12A110,110,0,0,0,33.85,219.14Z"/><path class="218b85f3-2d23-4324-99d9-c68e93e8d103" d="M199.26,228.46l-.68.39c-1.66-19.07-3.61-38.3-5.81-57.51a5.16,5.16,0,0,1-2.11.42,4.59,4.59,0,0,1-3.56-1.49l-.28.28c-12.19,11.27-24.82,22.11-35.37,35a4.36,4.36,0,0,1-2.53,1.62,5.46,5.46,0,0,1-1.3.54c-10.77,2.88-21.78,4.44-32.74,6.36-5.45,1-10.88,2-16.23,3.41-3.75,1-9.87,2.06-12.3,5.43a5.13,5.13,0,0,1-1.81,1.6,5.41,5.41,0,0,1-.62,2.84,5.05,5.05,0,0,1-6.84,1.79,28,28,0,0,1-3-2.18c1.17.92,0,0-.34-.24s-.79-.53-1.2-.76a4.81,4.81,0,0,1-2.33-3.44,3,3,0,0,1-.4-1.05l0-.16H68.46c-3.86,0-7.71.16-11.55.48-1.5.12-3,.28-4.4.49a4.88,4.88,0,0,1-.78,2.51,40.23,40.23,0,0,0-4.5,9.68,4.75,4.75,0,0,1-.31.8c0,.15,0,.3-.06.45l0,.13c0,.31,0,.61,0,.92,0,.66.11,1.31.16,2a12.52,12.52,0,0,1-.39,4.6c0,.16-.12.29-.18.44a26.34,26.34,0,0,0-.31,5.09,22.9,22.9,0,0,0,16,20.55A18.15,18.15,0,0,0,75,268.86l1.4,1.48L74.2,271.7l-.09.06a5.09,5.09,0,0,1,1.79,4.11,5.41,5.41,0,0,1,.45.83c3.5,7.92,7.85,14.58,15.1,19.52,7.58,5.16,16.1,8.48,24.91,10.86,30.75,8.3,67,12,96.61-2.17,12.66-6.06,26.84-17.42,23-33.22-1.78-7.25-5.41-15.56-10.68-20.94-5.44-5.55-12.63-9.14-18.42-14.33a5.09,5.09,0,0,1-1.08-1.34l-.13,0a5.05,5.05,0,0,1-5-5"/><path class="833c121d-620b-4863-b726-76fa731508af" d="M403.35,170.46c-1.53-4.9-5.77-8-10-10.89a4.92,4.92,0,0,1-1.08,1.6c-1.78,1.78-5.36,2.1-7.07,0a41.1,41.1,0,0,1-3.61-5.87c-.79-1.35-1.65-3.28-2.58-4.13a5,5,0,0,1-.73-6.07c-2.7-3.36-5.3-6.8-8.06-10.09a5.21,5.21,0,0,1-.84.33,5.1,5.1,0,0,1-3.86-.51c-1.07-.73-2.07-1.58-3.07-2.41A2.67,2.67,0,0,1,362,132c-1.73-1.71-3.52-3.36-5.4-4.89a55.58,55.58,0,0,0-26.93-11.33L327,91.44c8.48.4,26.23-2.33,37.34-29.12l1.1-2.66-2.61-1.21c-9.83-4.56-19.8-4.88-28.09-.9-6.81,3.28-11.53,9.13-14.33,17.81-3.81-14.1-17.71-21.53-30.76-21.61l-3.11,0,.1,3.11a35,35,0,0,0,31.5,33.94c-.2,4.83-.28,8.79-.27,12.46v.13c0,1.59,0,3.18.08,4.76l0,.49c0,1.32.11,2.64.19,4l.08,1.13c.11,1.64.23,3,.36,4.25l-.12.34c-19.8,13.14-33.91,36.18-40.81,66.68l-.08.35c-1.28,5.69-2.62,11.57-2.87,17.54a80.49,80.49,0,0,0,1.37,16.29h0a4.41,4.41,0,0,1,.08.72v1.56a5.2,5.2,0,0,1-1.47,3.54,4.28,4.28,0,0,1-1.77,1.12,191,191,0,0,1,7.55,19.95c1.88,5.5,3.95,15.14,9.65,17.85a4.4,4.4,0,0,1,.57.31,4.45,4.45,0,0,1,2.54-1.65l.24-.08.18-.12a27.86,27.86,0,0,1,2.26-1.76,4.83,4.83,0,0,1,5.76.59c3.79-6.86,7-14,10.3-21.2a5,5,0,0,1-1.19-4.61c2.07-9.58,6.48-18.83,11.3-27.33,4.45-7.83,10.05-15.42,17.87-20.16,8.36-5.07,17.41-5.11,26.35-1.53,6.31,2.53,13.49,5.44,19,9.86a5.11,5.11,0,0,1,1.13-.54,5.05,5.05,0,0,1,5.86,2.73,5.85,5.85,0,0,1,.91,1.07,13.07,13.07,0,0,1,1.21,2.46l.07.09a6,6,0,0,1,1.45,3.37c4.57-3.31,6.83-8.42,7.9-14.25C404.9,184.86,405.3,176.66,403.35,170.46Z"/><path class="218b85f3-2d23-4324-99d9-c68e93e8d103" d="M46.92,235.27s-2.74,8.17-.56,16.06l2.18-9Z"/><polygon class="218b85f3-2d23-4324-99d9-c68e93e8d103" points="200.7 230.94 195.54 197.89 198.12 232.72 200.7 230.94"/><path class="5bdca390-9c22-47dc-92dd-e6fc34f9cdd5" d="M198.79,632.16c3.66,0,7.23,0,10.74-.09q-7.36,0-14.46-.34C197.47,632,198.79,632.16,198.79,632.16Z"/><path class="5bdca390-9c22-47dc-92dd-e6fc34f9cdd5" d="M320,608.8a276,276,0,0,1-51.59,16.85C290.78,621,307.82,614.61,320,608.8Z"/><path class="a1ca0d87-a4ea-4590-b370-b99fdb95e09b" d="M81.27,597.58c3.44.34,4.79,3.7,4.07,6.43,40.36,18.19,95.12,25.91,109.73,27.72q7.1.35,14.46.34a325.55,325.55,0,0,0,58.88-6.42A276,276,0,0,0,320,608.8a155.1,155.1,0,0,0,13.79-7.43C315.87,597.72,124.07,559.79,81.27,597.58Z"/><path class="a1ca0d87-a4ea-4590-b370-b99fdb95e09b" d="M335.14,601.64l-1.35-.27A155.1,155.1,0,0,1,320,608.8C325,606.59,330.07,604.23,335.14,601.64Z"/><path class="a1ca0d87-a4ea-4590-b370-b99fdb95e09b" d="M268.41,625.65a325.55,325.55,0,0,1-58.88,6.42A275.78,275.78,0,0,0,268.41,625.65Z"/><path class="a1ca0d87-a4ea-4590-b370-b99fdb95e09b" d="M195.07,631.73c-15.48-1.92-76.06-10.47-116.79-31.09l-.43.51S126,628.36,195.07,631.73Z"/><polygon class="41b70f8c-1dee-4a8d-ba0d-f56e8a65b177" points="75.16 598.85 75.1 599.45 77.85 601.15 78.03 600 75.16 598.85"/></g><g id="49a3532f-67d1-4039-b97e-f5f13a06176c" data-name="Calque 1"><path class="51c49ed2-a086-40f6-854d-95c186496a41" d="M377.91,149.35c-.21-1.52-.38-3-.51-4.58a2.54,2.54,0,0,1-.7-1,29.65,29.65,0,0,0-3.65-7.48c-.95-1.28-4.88-5.41-6.43-2.9a2.36,2.36,0,0,1-1.35,1.08,157.15,157.15,0,0,1,11.32,13.12C377.05,148.16,377.48,148.75,377.91,149.35Z"/><path class="8a6c4cce-c523-4eaa-ad5c-efc52c5608ed" d="M385.85,171.69A104.61,104.61,0,0,0,380.79,161a2.28,2.28,0,0,1-.88-1.36c0-.14-.07-.28-.1-.43a85.33,85.33,0,0,0-8-11.6c-5.22-6.37-10.68-12.95-17.1-18.16A52.56,52.56,0,0,0,329,118.68l-.09,0a2,2,0,0,1-2.11-1.78q-1-8.68-1.94-17.35c-1.34-.29-2.66-.68-4-1.07a153.92,153.92,0,0,0,.7,19.43,1.85,1.85,0,0,1-.08.8,1.8,1.8,0,0,1-.85,1.75c-22.47,14.62-34.34,39.8-40.08,65.2-1.28,5.67-2.63,11.54-2.88,17.36-.28,6.58.94,13.57,2.08,20,2.42,13.72,7.06,27,15.75,38a7,7,0,0,1,4,0c4.37,1.26,5.73,7.95,7.89,11.39a51.47,51.47,0,0,0,6.86,8.65q.28-17.34.55-34.66c.15-8.74-.12-20.75,7.47-26.83,11-8.84,18.3,8.39,22.4,24.23q.26-12.45-.47-24.92c-.52-9-1.23-24.11,8.68-28.89s15.52,12.58,17.69,19.05A97.16,97.16,0,0,1,374.22,224c.06-.59.12-1.17.17-1.76.56-5.57,1.07-11.26,3.4-16.42,1.76-3.88,5.81-9.31,10.68-8.93a5.94,5.94,0,0,1,3.7,1.7C392.71,189.22,389.32,180.25,385.85,171.69Z"/><path class="f85753a4-5748-403b-874d-62e2462996a3" d="M295.51,261a7,7,0,0,1,4,0c4.37,1.26,5.73,7.95,7.89,11.39a51.47,51.47,0,0,0,6.86,8.65q.28-17.34.55-34.66c.15-8.74-.12-20.75,7.47-26.83,11-8.84,18.3,8.39,22.4,24.23q.26-12.45-.47-24.92c-.52-9-1.23-24.11,8.68-28.89s15.52,12.58,17.69,19.05A97.16,97.16,0,0,1,374.22,224c.06-.59.12-1.17.17-1.76.56-5.57,1.07-11.26,3.4-16.42,1.76-3.88,5.81-9.31,10.68-8.93a5.94,5.94,0,0,1,3.7,1.7c.54-9.32-2.85-18.29-6.32-26.85A104.61,104.61,0,0,0,380.79,161a2.28,2.28,0,0,1-.88-1.36c0-.14-.07-.28-.1-.43a85.33,85.33,0,0,0-8-11.6c-5.22-6.37-10.68-12.95-17.1-18.16A52.56,52.56,0,0,0,329,118.68l-.09,0a2,2,0,0,1-2.11-1.78q-1.5-13.38-3-26.76a1.57,1.57,0,0,1,1.84-1.77h.18C343.43,90,355.37,76,361.53,61.17c-8-3.73-17.31-4.86-25.53-.91s-12.07,11.89-14,20.46c0,.12,0,.24,0,.36a1.57,1.57,0,0,1-.7,1.51,2,2,0,0,1-3.17-1.87l.06-.26c-1.43-14.81-14.59-23.62-28.65-23.71a31.82,31.82,0,0,0,29.77,31.12,2,2,0,0,1,1.75,2.45,182.55,182.55,0,0,0,.45,27.57,1.85,1.85,0,0,1-.08.8,1.8,1.8,0,0,1-.85,1.75c-22.47,14.62-34.34,39.8-40.08,65.2-1.28,5.67-2.63,11.54-2.88,17.36-.28,6.58.94,13.57,2.08,20C282.18,236.74,286.82,250,295.51,261Z"/><path class="f85753a4-5748-403b-874d-62e2462996a3" d="M385.85,171.69A104.61,104.61,0,0,0,380.79,161a2.28,2.28,0,0,1-.88-1.36c0-.14-.07-.28-.1-.43a85.33,85.33,0,0,0-8-11.6c-5.22-6.37-10.68-12.95-17.1-18.16A52.56,52.56,0,0,0,329,118.68l-.09,0a2,2,0,0,1-2.11-1.78q-1-8.68-1.94-17.35c-1.34-.29-2.66-.68-4-1.07a153.92,153.92,0,0,0,.7,19.43,1.85,1.85,0,0,1-.08.8,1.8,1.8,0,0,1-.85,1.75c-22.47,14.62-34.34,39.8-40.08,65.2-1.28,5.67-2.63,11.54-2.88,17.36-.28,6.58.94,13.57,2.08,20,2.42,13.72,7.06,27,15.75,38a7,7,0,0,1,4,0c4.37,1.26,5.73,7.95,7.89,11.39a51.47,51.47,0,0,0,6.86,8.65q.28-17.34.55-34.66c.15-8.74-.12-20.75,7.47-26.83,11-8.84,18.3,8.39,22.4,24.23q.26-12.45-.47-24.92c-.52-9-1.23-24.11,8.68-28.89s15.52,12.58,17.69,19.05A97.16,97.16,0,0,1,374.22,224c.06-.59.12-1.17.17-1.76.56-5.57,1.07-11.26,3.4-16.42,1.76-3.88,5.81-9.31,10.68-8.93a5.94,5.94,0,0,1,3.7,1.7C392.71,189.22,389.32,180.25,385.85,171.69Z"/><path class="7f86afa0-974c-4b49-81b3-f63bd620bf8c" d="M319.37,87.87a2,2,0,0,1,.94.32,4.89,4.89,0,0,1,1.43.13c.78.2,1.55.43,2.32.65a1.76,1.76,0,0,1,1.57-.62h.18C343.43,90,355.37,76,361.53,61.17c-8-3.73-17.31-4.86-25.53-.91s-12.07,11.89-14,20.46c0,.12,0,.24,0,.36a1.57,1.57,0,0,1-.7,1.51,2,2,0,0,1-3.17-1.87l.06-.26c-1.43-14.81-14.59-23.62-28.65-23.71A31.82,31.82,0,0,0,319.37,87.87Z"/><path class="a1ca0d87-a4ea-4590-b370-b99fdb95e09b" d="M384.54,160a128.57,128.57,0,0,1,5.56,12.27c3.86,9.73,7,19.54,5.41,30.09a1.71,1.71,0,0,1-.38.86,48.73,48.73,0,0,1,1.74,5.52c2,7.23,2.46,14.81,2.56,22.27a254.61,254.61,0,0,1-3.91,47.66c-2.81,15.95-8.17,31.16-11.43,47C378.16,354.38,372,383.47,362,411.1a207.38,207.38,0,0,1-30.6,56.4,30,30,0,0,0,34.39-12.25c8.4-12.69,13.56-28.3,18.55-42.58,9.32-26.68,15.77-54.29,20.61-82.11,2.49-14.31,4.23-28.65,5.76-43.08,1.51-14.24,4.53-28.37,5.35-42.66,1.64-28.71-4.31-57.09-11.72-84.67-2-7.4-4.08-14.77-6.19-22.13-1.73-6.05-3.36-12.46-6.8-17.81-3-4.65-6.53-2.25-7.94,2.15a31.44,31.44,0,0,0-.92,5.91,83.28,83.28,0,0,0-.47,9.08,86.4,86.4,0,0,0,2.69,20.92A2.4,2.4,0,0,1,384.54,160Z"/><path class="a1ca0d87-a4ea-4590-b370-b99fdb95e09b" d="M335.14,601.64a768.91,768.91,0,0,0-10.85-125.46c-1.35,1.54-2.72,3.08-4.13,4.58-18.68,19.94-42,33.4-69.59,35.21-15.56,1-31.31-.69-46.72-2.75a415.31,415.31,0,0,1-49.07-9.59c-32.46-8.44-66.39-21.84-92.34-43.51a271,271,0,0,1,15.41,141"/><path class="51c49ed2-a086-40f6-854d-95c186496a41" d="M80.16,260.88c1.91-2.55,6.25-.05,4.32,2.52A22.87,22.87,0,0,1,79,268.72a2.41,2.41,0,0,1,.59,1.07C82,279,90.89,283,99.22,285.57A128.5,128.5,0,0,0,125.31,291c14.88,1.45,30.13-.05,44.08-5.61A75.76,75.76,0,0,0,189,274.09a49.76,49.76,0,0,0,7.4-7c2.82-3.46,1.59-8.7,1.28-12.84q-3.81-50.55-10-100.89a2.48,2.48,0,0,1,0-.78,119.82,119.82,0,0,1-56.59,6.14c0,.06,0,.12,0,.17-4.42,10.43-12.9,18.28-22.73,23.62-10,5.44-21.72,9.63-33.18,10.92,1.71,11.44,3.3,23.22,1,34.64a2,2,0,0,1-.09.29,18.67,18.67,0,0,1,5.06,9c.75,3.13-4.07,4.46-4.82,1.33-2-8.23-10.83-13.05-18.53-8.62-6.11,3.52-8.93,12-8.67,18.68C49.71,264.1,69.74,274.78,80.16,260.88Zm92.45-80.76a5.65,5.65,0,1,1-5.65,5.65A5.65,5.65,0,0,1,172.61,180.12Zm-12.4,26.58A61.57,61.57,0,0,1,176,232.89c2.63,9.25-2.08,14-10.54,16.64-2.31.73-3.29-2.89-1-3.62,3.94-1.24,8.53-2.83,8.74-7.74.15-3.7-2.05-8.34-3.55-11.61a59.91,59.91,0,0,0-12-17.2C155.86,207.64,158.51,205,160.21,206.7Zm-35.35-13a5.65,5.65,0,1,1-5.66,5.65A5.65,5.65,0,0,1,124.86,193.69Zm-13.8,62.63c8.35,13.52,30.8,11,44,8.22,2.36-.49,3.35,3.12,1,3.62-15.06,3.14-38.79,5.35-48.23-10C106.55,256.15,109.8,254.27,111.06,256.32Zm-40.79-.42c-1.7-1.22-3.36-2.48-5-3.77-.51,2-1,3.94-1.45,5.92-.71,3.15-5.53,1.81-4.83-1.33.61-2.68,1.3-5.35,2-8q-3.66-3-7.14-6.24c-2.36-2.19,1.18-5.72,3.54-3.53,1.67,1.55,3.39,3.06,5.12,4.54.7-2.28,1.43-4.54,2.23-6.8,1.06-3,5.89-1.71,4.82,1.33s-2,5.93-2.87,8.92c2,1.59,4,3.15,6.08,4.64C75.38,253.45,72.88,257.79,70.27,255.9Z"/><path class="9eb7cd5a-9569-414b-b387-3581ebc790cf" d="M59.82,223.92a16.88,16.88,0,0,1,11.79,1.29c1.73-10.66,0-21.86-1.62-32.45a2.65,2.65,0,0,1,2.05-4c11.44-.76,23.68-5.07,33.72-10.53,9.09-4.93,16.67-12,20.82-21.55a2.77,2.77,0,0,1,3.11-3.1,115.14,115.14,0,0,0,60.05-7.07c3-1.19,4.26,3.6,1.36,4.8a2.57,2.57,0,0,1,1.52,2.09c.6,4.85,1.17,9.7,1.74,14.56,10.61-2.06,20.26-8.46,25.4-18.17,5.34-10.06,4.68-33.8-11.41-33a2.17,2.17,0,0,1-1.79-.68,2,2,0,0,1-1.07-1.59c-2.62-17.89-20.12-25.77-36.5-27.16a63.29,63.29,0,0,0-42.66,12,2,2,0,0,1-2.84-.26c-19.55-3-40.36-2-57.74,8.32-15,8.93-30.9,29.14-27.34,47.67a2,2,0,0,1-.12,2.41c-4.44,5.86-9.15,11.94-11.35,19.06-2.48,8-1.17,16.46,1.55,24.25,4.4,12.61,12.53,23.46,18,35.6C49,230.51,53.47,225.51,59.82,223.92Z"/><path class="a1ca0d87-a4ea-4590-b370-b99fdb95e09b" d="M383.52,306.51c2-6.53,3.88-13,5.32-19.69a249.4,249.4,0,0,0,5.53-46.21,141,141,0,0,0-.79-22.88,55.19,55.19,0,0,0-2.31-10.24c-.62-1.84-1.37-6-4.54-5.11-1.29.36-2.65,2.43-3.34,3.49-3.57,5.49-3.65,12.85-4.27,19.14L377,246.63c-.28,2.78-4.14,3.14-4.89,1a2.47,2.47,0,0,1-.39-1.18c-.83-10.27-1.7-20.61-4.3-30.62a69.42,69.42,0,0,0-5.15-14c-.79-1.54-2.4-5.84-4-6.49A5.38,5.38,0,0,0,352,197.7a17.68,17.68,0,0,0-1.62,3.47c-3.18,9.19-.84,20.2-.61,29.69a285.16,285.16,0,0,1-1.15,32.68c.05.39.1.73.13,1,.32,2.5-2.67,3-4.18,1.61a2,2,0,0,1-1-2.08c0-.18,0-.35.05-.53a140.74,140.74,0,0,0-6.29-27.5c-1.3-3.76-3-8.11-5.82-11-5.9-5.92-9.35,2.07-10.53,6.88-2,8.27-1.19,17.48-1.33,25.92l-.44,27.87c1.23,2.07-1.86,4.75-4.08,2.9a57.94,57.94,0,0,1-12-13.72c-1.5-2.41-2.6-6.78-5.19-7.89-2.78-1.18-4.08,1.4-5.41,3.86a20.11,20.11,0,0,0-1.5,3.78c-3.94,13.1,4.26,29.77,9.86,41.32,2,4,4.56,8,4.86,12.64.33,5-1.67,10.3-3.41,14.92-1.38,3.64-3,7.2-4.64,10.73a2.12,2.12,0,0,1-1,2c-2.84,5.82-5.89,11.55-8.73,17.33-4.62,9.4-10.8,16.9-20.3,21.62-8.65,4.29-18.29,6.14-27.86,6.81C195,405.13,150.2,387.27,115,360.5c-2.53-1.93,0-6.27,2.53-4.32,21,15.95,44.64,28.36,70.15,35.26,21.33,5.77,46.08,9,67.75,3.08,10.78-2.93,20.07-8.7,25.71-18.55,4-7,7.83-14.4,11.27-21.88A335.38,335.38,0,0,0,267.65,297c-1.55-2.82,2.77-5.34,4.32-2.52a342.79,342.79,0,0,1,23.42,52.85c.5-1.17,1-2.34,1.46-3.51,2.48-6.19,5.35-13.18,2.51-19.67-2.14-4.89-4.71-9.57-6.76-14.51-4.17-10.09-8.77-21.4-7.2-32.53.56-4,2.91-10.8,6.84-14.25-8.76-11.31-13.61-24.76-16.09-38.84-.1-.54-.2-1.09-.29-1.64a2.77,2.77,0,0,1-1.2.1c-24.9-3.38-51.46-4.4-73.9,8.58.55,6.42,1.09,12.84,1.58,19.27.58,7.44,2.48,14.85-2.9,20.85C189.28,282.5,174.63,290,160,293.65c-16.29,4.09-33.44,3.54-49.78,0C97.76,291,81.3,287,75.8,274.24a113.55,113.55,0,0,0-47.72,61.93c-8.52,27.41-5.6,57.8,7.36,83.35,25.27,49.82,84.31,71.57,135.55,82.86a405.63,405.63,0,0,0,45,7.29c14.56,1.51,29.49,2.61,44,.27,25.12-4.06,45.66-19.61,61.83-38.57,34.54-40.52,46-92.58,56.65-143.38C380,320.77,381.37,313.57,383.52,306.51Z"/><path class="51c49ed2-a086-40f6-854d-95c186496a41" d="M384.54,160a128.57,128.57,0,0,1,5.56,12.27c3.86,9.73,7,19.54,5.41,30.09a1.71,1.71,0,0,1-.38.86,48.73,48.73,0,0,1,1.74,5.52c2,7.23,2.46,14.81,2.56,22.27a254.61,254.61,0,0,1-3.91,47.66c-2.81,15.95-8.17,31.16-11.43,47C378.16,354.38,372,383.47,362,411.1a207.38,207.38,0,0,1-30.6,56.4,30,30,0,0,0,34.39-12.25c8.4-12.69,13.56-28.3,18.55-42.58,9.32-26.68,15.77-54.29,20.61-82.11,2.49-14.31,4.23-28.65,5.76-43.08,1.51-14.24,4.53-28.37,5.35-42.66,1.64-28.71-4.31-57.09-11.72-84.67-2-7.4-4.08-14.77-6.19-22.13-1.73-6.05-3.36-12.46-6.8-17.81-3-4.65-6.53-2.25-7.94,2.15a31.44,31.44,0,0,0-.92,5.91,83.28,83.28,0,0,0-.47,9.08,86.4,86.4,0,0,0,2.69,20.92A2.4,2.4,0,0,1,384.54,160Z"/><path class="020f9f0c-3005-4700-89a4-5baf8fe6432f" d="M405,325c-4.84,16.84-10.09,33.56-14.93,50.4a260.63,260.63,0,0,1-10.9,31.47c-6.93,16.05-17.42,32.2-33.29,39.1a194.82,194.82,0,0,1-14.41,21.51,30,30,0,0,0,34.39-12.25c8.4-12.69,13.56-28.3,18.55-42.58,9.32-26.68,15.77-54.29,20.61-82.11.74-4.25,1.4-8.5,2-12.75C406.31,320.21,405.65,322.62,405,325Z"/><path class="51c49ed2-a086-40f6-854d-95c186496a41" d="M384.09,325.66C378.16,354.38,372,383.47,362,411.1q-2.85,7.86-6.25,15.46c1.12-1.26,2.19-2.56,3.2-3.92C372,405,377.15,383.08,383.42,362.47c10.41-34.24,20.31-68.64,28.8-103.41a4.39,4.39,0,0,1,2.86-3.31c.43-3.63.79-7.28,1-10.93,1.64-28.71-4.31-57.09-11.72-84.67-2-7.4-4.08-14.77-6.19-22.13-1.73-6.05-3.36-12.46-6.8-17.81-3-4.65-6.53-2.25-7.94,2.15a31.44,31.44,0,0,0-.92,5.91,83.28,83.28,0,0,0-.47,9.08,86.4,86.4,0,0,0,2.69,20.92,2.4,2.4,0,0,1-.19,1.74,128.57,128.57,0,0,1,5.56,12.27c3.86,9.73,7,19.54,5.41,30.09a1.71,1.71,0,0,1-.38.86,48.73,48.73,0,0,1,1.74,5.52c2,7.23,2.46,14.81,2.56,22.27a254.61,254.61,0,0,1-3.91,47.66C392.71,294.63,387.35,309.84,384.09,325.66Z"/><path class="51c49ed2-a086-40f6-854d-95c186496a41" d="M393.58,217.73a55.19,55.19,0,0,0-2.31-10.24c-.62-1.84-1.37-6-4.54-5.11-1.29.36-2.65,2.43-3.34,3.49-3.57,5.49-3.65,12.85-4.27,19.14L377,246.63c-.28,2.78-4.14,3.14-4.89,1a2.47,2.47,0,0,1-.39-1.18c-.83-10.27-1.7-20.61-4.3-30.62a69.42,69.42,0,0,0-5.15-14c-.79-1.54-2.4-5.84-4-6.49A5.38,5.38,0,0,0,352,197.7a17.68,17.68,0,0,0-1.62,3.47c-3.18,9.19-.84,20.2-.61,29.69a285.16,285.16,0,0,1-1.15,32.68c.05.39.1.73.13,1,.32,2.5-2.67,3-4.18,1.61a2,2,0,0,1-1-2.08c0-.18,0-.35.05-.53a140.74,140.74,0,0,0-6.29-27.5c-1.3-3.76-3-8.11-5.82-11-5.9-5.92-9.35,2.07-10.53,6.88-2,8.27-1.19,17.48-1.33,25.92l-.44,27.87c1.23,2.07-1.86,4.75-4.08,2.9a57.94,57.94,0,0,1-12-13.72c-1.5-2.41-2.6-6.78-5.19-7.89-2.78-1.18-4.08,1.4-5.41,3.86a20.11,20.11,0,0,0-1.5,3.78c-3.94,13.1,4.26,29.77,9.86,41.32,2,4,4.56,8,4.86,12.64.33,5-1.67,10.3-3.41,14.92-1.38,3.64-3,7.2-4.64,10.73a2.12,2.12,0,0,1-1,2c-2.84,5.82-5.89,11.55-8.73,17.33-4.62,9.4-10.8,16.9-20.3,21.62-8.65,4.29-18.29,6.14-27.86,6.81a157.92,157.92,0,0,1-44.7-3.51c-1.58,2.41-3.13,4.83-4.6,7.31-15.26,25.56-21.59,53.08-23.85,82.54q-.48,6.42-.78,12.84c1.71.4,3.42.78,5.11,1.16a405.63,405.63,0,0,0,45,7.29c14.56,1.51,29.49,2.61,44,.27,25.12-4.06,45.66-19.61,61.83-38.57,34.54-40.52,46-92.58,56.65-143.38,1.52-7.22,2.87-14.42,5-21.48,2-6.53,3.88-13,5.32-19.69a249.4,249.4,0,0,0,5.53-46.21A141,141,0,0,0,393.58,217.73Z"/><path class="51c49ed2-a086-40f6-854d-95c186496a41" d="M197.65,254.29q-3.81-50.55-10-100.89a2.48,2.48,0,0,1,0-.78,119.82,119.82,0,0,1-56.59,6.14c0,.06,0,.12,0,.17-4.05,9.55-11.5,16.93-20.28,22.21-5.22,22.94-7,47.25-.71,69.87.66,2.38,1.43,4.75,2.3,7.08,9.16,11.5,30.14,9.08,42.74,6.45,2.36-.49,3.35,3.12,1,3.62-11.81,2.46-28.93,4.35-40.34-2.32,4,7.83,9.63,14.7,17.44,19.3A57.42,57.42,0,0,0,147,290.91a86.25,86.25,0,0,0,22.39-5.51A75.76,75.76,0,0,0,189,274.09a49.76,49.76,0,0,0,7.4-7C199.19,263.67,198,258.43,197.65,254.29ZM124.86,205a5.65,5.65,0,1,1,5.65-5.65A5.65,5.65,0,0,1,124.86,205Zm40.55,44.54c-2.31.73-3.29-2.89-1-3.62,3.94-1.24,8.53-2.83,8.74-7.74.15-3.7-2.05-8.34-3.55-11.61a59.91,59.91,0,0,0-12-17.2c-1.7-1.72.95-4.37,2.65-2.66A61.57,61.57,0,0,1,176,232.89C178.58,242.14,173.87,246.86,165.41,249.53Zm7.2-58.11a5.65,5.65,0,1,1,5.65-5.65A5.65,5.65,0,0,1,172.61,191.42Z"/><path class="020f9f0c-3005-4700-89a4-5baf8fe6432f" d="M97.13,236.81c-2-16.57-.85-33.47,2.24-50a88.36,88.36,0,0,1-24.26,6.62c1.71,11.44,3.3,23.22,1,34.64a2,2,0,0,1-.09.29,18.67,18.67,0,0,1,5.06,9c.75,3.13-4.07,4.46-4.82,1.33-2-8.23-10.83-13.05-18.53-8.62-6.11,3.52-8.93,12-8.67,18.68.6,15.35,20.63,26,31.05,12.13,1.91-2.55,6.25-.05,4.32,2.52A22.87,22.87,0,0,1,79,268.72a2.41,2.41,0,0,1,.59,1.07C82,279,90.89,283,99.22,285.57a129.51,129.51,0,0,0,24.62,5.28C107.27,278.45,99.64,257.28,97.13,236.81ZM70.27,255.9c-1.7-1.22-3.36-2.48-5-3.77-.51,2-1,3.94-1.45,5.92-.71,3.15-5.53,1.81-4.83-1.33.61-2.68,1.3-5.35,2-8q-3.66-3-7.14-6.24c-2.36-2.19,1.18-5.72,3.54-3.53,1.67,1.55,3.39,3.06,5.12,4.54.7-2.28,1.43-4.54,2.23-6.8,1.06-3,5.89-1.71,4.82,1.33s-2,5.93-2.87,8.92c2,1.59,4,3.15,6.08,4.64C75.38,253.45,72.88,257.79,70.27,255.9Z"/><path class="020f9f0c-3005-4700-89a4-5baf8fe6432f" d="M354,399.77c-21.45,35.12-51.64,73.67-93.46,84.37-30.4,7.78-63.27,2.4-92.49-9.52q-.87,6.81-1.41,13.76-.48,6.42-.78,12.84c1.71.4,3.42.78,5.11,1.16a405.63,405.63,0,0,0,45,7.29c14.56,1.51,29.49,2.61,44,.27,25.12-4.06,45.66-19.61,61.83-38.57,23.69-27.8,36.51-61,45.67-95.54C363.34,384,358.81,391.93,354,399.77Z"/><path class="51c49ed2-a086-40f6-854d-95c186496a41" d="M393.58,217.73a55.19,55.19,0,0,0-2.31-10.24c-.62-1.84-1.37-6-4.54-5.11-1.29.36-2.65,2.43-3.34,3.49-3.57,5.49-3.65,12.85-4.27,19.14L377,246.63c-.28,2.78-4.14,3.14-4.89,1a2.47,2.47,0,0,1-.39-1.18c-.83-10.27-1.7-20.61-4.3-30.62a69.42,69.42,0,0,0-5.15-14c-.79-1.54-2.4-5.84-4-6.49A5.38,5.38,0,0,0,352,197.7a17.68,17.68,0,0,0-1.62,3.47c-3.18,9.19-.84,20.2-.61,29.69a285.16,285.16,0,0,1-1.15,32.68c.05.39.1.73.13,1,.32,2.5-2.67,3-4.18,1.61a2,2,0,0,1-1-2.08c0-.18,0-.35.05-.53a140.74,140.74,0,0,0-6.29-27.5c-1.3-3.76-3-8.11-5.82-11-5.9-5.92-9.35,2.07-10.53,6.88-2,8.27-1.19,17.48-1.33,25.92l-.44,27.87c1.23,2.07-1.86,4.75-4.08,2.9a57.94,57.94,0,0,1-12-13.72c-1.5-2.41-2.6-6.78-5.19-7.89-2.78-1.18-4.08,1.4-5.41,3.86a20.11,20.11,0,0,0-1.5,3.78c-3.94,13.1,4.26,29.77,9.86,41.32,2,4,4.56,8,4.86,12.64.33,5-1.67,10.3-3.41,14.92-1.38,3.64-3,7.2-4.64,10.73a2.12,2.12,0,0,1-1,2c-2.84,5.82-5.89,11.55-8.73,17.33-4.62,9.4-10.8,16.9-20.3,21.62-8.65,4.29-18.29,6.14-27.86,6.81a157.92,157.92,0,0,1-44.7-3.51c-1.58,2.41-3.13,4.83-4.6,7.31-11,18.48-17.38,38-20.92,58.53a177.89,177.89,0,0,0,39.28,11.41c18.83,3.13,38.66,2.73,56.79-3.62,18.59-6.51,34.51-20.13,47.77-34.34C327.71,422.5,339.5,405.05,350,387c11.43-19.67,21-40,27.22-61.92a4.61,4.61,0,0,1,2.53-3.09c1.09-5.19,2.22-10.36,3.77-15.46,2-6.53,3.88-13,5.32-19.69a249.4,249.4,0,0,0,5.53-46.21A141,141,0,0,0,393.58,217.73Z"/><path class="51c49ed2-a086-40f6-854d-95c186496a41" d="M72.79,251.58c-2.07-1.49-4.09-3.05-6.08-4.64.88-3,1.83-6,2.87-8.92s-3.76-4.35-4.82-1.33c-.8,2.26-1.53,4.52-2.23,6.8-1.73-1.48-3.45-3-5.12-4.54-2.36-2.19-5.9,1.34-3.54,3.53s4.7,4.23,7.14,6.24c-.73,2.65-1.42,5.32-2,8-.7,3.14,4.12,4.48,4.83,1.33.44-2,.94-4,1.45-5.92,1.65,1.29,3.31,2.55,5,3.77C72.88,257.79,75.38,253.45,72.79,251.58Z"/><path class="020f9f0c-3005-4700-89a4-5baf8fe6432f" d="M169.6,226.56c1.5,3.27,3.7,7.91,3.55,11.61-.21,4.91-4.8,6.5-8.74,7.74-2.29.73-1.31,4.35,1,3.62,8.46-2.67,13.17-7.39,10.54-16.64a61.57,61.57,0,0,0-15.74-26.19c-1.7-1.71-4.35.94-2.65,2.66A59.91,59.91,0,0,1,169.6,226.56Z"/><circle class="9eb7cd5a-9569-414b-b387-3581ebc790cf" cx="124.86" cy="199.34" r="5.65" transform="translate(-42.46 34.02) rotate(-13.28)"/><circle class="9eb7cd5a-9569-414b-b387-3581ebc790cf" cx="172.61" cy="185.77" r="5.65" transform="translate(-38.06 44.63) rotate(-13.28)"/><path class="020f9f0c-3005-4700-89a4-5baf8fe6432f" d="M156.06,268.16c2.36-.5,1.37-4.11-1-3.62-13.21,2.76-35.66,5.3-44-8.22-1.26-2-4.51-.17-3.23,1.89C117.27,273.51,141,271.3,156.06,268.16Z"/><path class="09841218-27d5-49a0-8da3-fe18b8962f99" d="M289,177.29a6.27,6.27,0,0,1,1.74-1.37,3,3,0,0,1,1.72-.35,2.74,2.74,0,0,1,1.54.81,5.42,5.42,0,0,1,1.23,2.08,11,11,0,0,1,.57,2.79c.3,3.11.59,6.22.89,9.32a17.93,17.93,0,0,1,0,3.81,16.31,16.31,0,0,1-.68,3.22,11.42,11.42,0,0,1-1.18,2.56,7.53,7.53,0,0,1-1.55,1.8,4.51,4.51,0,0,1-2,1,3.53,3.53,0,0,1-1.89-.12l.72,7.32a4.87,4.87,0,0,1-.11,1.91,3.12,3.12,0,0,1-.65,1.26,1.83,1.83,0,0,1-.94.57,1.49,1.49,0,0,1-1-.12,2.13,2.13,0,0,1-.83-.83,3.31,3.31,0,0,1-.43-1.55q-1.23-13.08-2.44-26.15a6.05,6.05,0,0,1,.22-2.46,5.88,5.88,0,0,1,.93-1.86,2,2,0,0,1,1.16-.82c.41-.08.71.12.91.57a6.71,6.71,0,0,1,.92-2A12.53,12.53,0,0,1,289,177.29Zm3.07,7.92a6.74,6.74,0,0,0-.46-1.92,2.61,2.61,0,0,0-.67-.95.83.83,0,0,0-.72-.18,1.64,1.64,0,0,0-.68.35,4.73,4.73,0,0,0-1.2,1.89,8.41,8.41,0,0,0-.43,3c.27,2.63.55,5.26.82,7.9l0-.06a3.69,3.69,0,0,0,.1.39,2.72,2.72,0,0,0,.11.34,1.9,1.9,0,0,0,1.18,1.3,1.53,1.53,0,0,0,1.53-.42,3.75,3.75,0,0,0,1-1.75,6.9,6.9,0,0,0,.19-2.7C292.55,190,292.3,187.61,292,185.21Z"/><path class="09841218-27d5-49a0-8da3-fe18b8962f99" d="M315.05,180.6a4.74,4.74,0,0,1,.34-2.57,2,2,0,0,1,1.13-1.14,1.25,1.25,0,0,1,1.27.39,2.93,2.93,0,0,1,.69,1.95,35.79,35.79,0,0,1-.07,5.83,21.7,21.7,0,0,1-.88,4.42,12.39,12.39,0,0,1-1.48,3.16,8.42,8.42,0,0,1-1.86,2,4.61,4.61,0,0,1-1.77.89,2.77,2.77,0,0,1-1.62-.07,3.29,3.29,0,0,1-1.37-1,5.88,5.88,0,0,1-1-2,11.82,11.82,0,0,1-.48-2.87c-.08-1.42-.15-2.84-.23-4.26a6.11,6.11,0,0,0-.27-1.52,1.34,1.34,0,0,0-.6-.84.83.83,0,0,0-.88.15,6,6,0,0,1-1.52,1.81,1.58,1.58,0,0,1-1.14.36,1.23,1.23,0,0,1-.79-.52,3.32,3.32,0,0,1-.48-.8l1.44,16.5a4.74,4.74,0,0,1-.43,2.6,2.73,2.73,0,0,1-1.31,1.35,1.42,1.42,0,0,1-1.45-.2,2.86,2.86,0,0,1-.84-2.09l-2.88-30.33a5.85,5.85,0,0,1,.26-2.49,4.21,4.21,0,0,1,1-1.59,1.86,1.86,0,0,1,1.17-.62.94.94,0,0,1,.91.47,7.73,7.73,0,0,1,.64-1.45,9.18,9.18,0,0,1,.74-1.08,5.08,5.08,0,0,1,.7-.74l.54-.46a5.67,5.67,0,0,1,1.92-1,3.82,3.82,0,0,1,1.95-.07,3.6,3.6,0,0,1,1.74,1.07,6.08,6.08,0,0,1,1.27,2.32,12.68,12.68,0,0,1,.51,2.32,21.13,21.13,0,0,1,.19,2.68,20.38,20.38,0,0,1-.17,2.72,11.27,11.27,0,0,1-.57,2.4,3.88,3.88,0,0,1,1.24,1.07,5.82,5.82,0,0,1,.94,1.92,12.2,12.2,0,0,1,.48,3.16c.08,1.89.15,3.78.23,5.66a5,5,0,0,0,.14,1c.17.56.49.65,1,.29a3.05,3.05,0,0,0,.73-.9,6.71,6.71,0,0,0,.6-1.65,15.05,15.05,0,0,0,.38-2.56A31.48,31.48,0,0,0,315.05,180.6Zm-13.29.39a6.13,6.13,0,0,1,1.26-3.17,4.42,4.42,0,0,1,2.39-1.62,4.66,4.66,0,0,0,.34-1.28,10.78,10.78,0,0,0,.1-1.52,9.33,9.33,0,0,0-.12-1.51,8.37,8.37,0,0,0-.3-1.28,1.79,1.79,0,0,0-1-1.2,1.32,1.32,0,0,0-1.35.34,4.75,4.75,0,0,0-1.37,2.19,9.45,9.45,0,0,0-.51,3.12C301.41,177,301.59,179,301.76,181Z"/><path class="09841218-27d5-49a0-8da3-fe18b8962f99" d="M331.56,169.62a3.3,3.3,0,0,1,.2-1.29,2.42,2.42,0,0,1,.61-.9,1.76,1.76,0,0,1,.86-.43,1.2,1.2,0,0,1,.88.18,2.05,2.05,0,0,1,.69.84,3.9,3.9,0,0,1,.35,1.55,12.24,12.24,0,0,1-.26,3.25,12.38,12.38,0,0,1-1,3,11.53,11.53,0,0,1-1.68,2.52,8.49,8.49,0,0,1-2.22,1.79,4.69,4.69,0,0,1-.84.37l-.79.28a14.18,14.18,0,0,1-.88,2.56,12.07,12.07,0,0,1-1.13,2,10.44,10.44,0,0,1-1.3,1.52A11,11,0,0,1,323.6,188a6.33,6.33,0,0,1-2.34,1,4,4,0,0,1-2.25-.19,4.84,4.84,0,0,1-2-1.51,8.24,8.24,0,0,1-1.44-2.94,13.47,13.47,0,0,1-.39-1.78c-.1-.64-.17-1.31-.21-2l-1-17.45a17.9,17.9,0,0,1,.24-4.48,14.26,14.26,0,0,1,1.15-3.52,10,10,0,0,1,1.75-2.56,9.09,9.09,0,0,1,2.05-1.6,6.41,6.41,0,0,1,2.87-.82,5.8,5.8,0,0,1,2.73.6,6.63,6.63,0,0,1,2.25,1.87,8.42,8.42,0,0,1,1.46,3,11.91,11.91,0,0,1,.38,2.85q.08,8.25.14,16.51a1.93,1.93,0,0,0,0,.48,5,5,0,0,0,1.86-2.31A8.74,8.74,0,0,0,331.56,169.62ZM322.42,183a3.56,3.56,0,0,0,1.07-1.16,6.66,6.66,0,0,0,.73-1.83l-.41-.31c-.14-.11-.28-.22-.42-.35a2.48,2.48,0,0,1-.74-.74,4,4,0,0,1-.53-1.18,4.94,4.94,0,0,1,0-2.8,3.18,3.18,0,0,1,1.4-2,1.35,1.35,0,0,1,.47-.18,2.82,2.82,0,0,1,.44-.07l-.36-13.56a5.43,5.43,0,0,0-.18-1.34,2.66,2.66,0,0,0-1.27-1.74,1.89,1.89,0,0,0-1.88,0,4,4,0,0,0-1.58,1.91,8.36,8.36,0,0,0-.61,3.68q.4,9.3.79,18.6a6.45,6.45,0,0,0,.07.83,5.92,5.92,0,0,0,.15.69,2.43,2.43,0,0,0,1.17,1.66A1.59,1.59,0,0,0,322.42,183Z"/><path class="09841218-27d5-49a0-8da3-fe18b8962f99" d="M342.72,144.33a2.27,2.27,0,0,1,.43-.07,2.64,2.64,0,0,1,.42,0,.85.85,0,0,1,.63.35,1.08,1.08,0,0,1,.23.76q-.53,12.83-1.07,25.62a16.6,16.6,0,0,1-.65,3.95,12.15,12.15,0,0,1-1.25,2.85,8.64,8.64,0,0,1-1.62,1.94,7.92,7.92,0,0,1-1.73,1.14,4.86,4.86,0,0,1-2.14.47,4.16,4.16,0,0,1-1.94-.52,4.82,4.82,0,0,1-1.57-1.43,6.11,6.11,0,0,1-1-2.22,4.91,4.91,0,0,1-.14-2,3.17,3.17,0,0,1,.57-1.42,2.2,2.2,0,0,1,1-.74,1.87,1.87,0,0,1,1.12,0,1.92,1.92,0,0,1,.94.68,2.77,2.77,0,0,1,.48,1.4,1.23,1.23,0,0,0,.42.58.68.68,0,0,0,.75.15,3.31,3.31,0,0,0,1.57-1.55,8,8,0,0,0,.67-3.54q.24-10.09.47-20.22-1.56.3-3.12.69a1.9,1.9,0,0,1-1.93-.4,3.31,3.31,0,0,1-.95-1.76,4,4,0,0,1,.17-2.11,1.92,1.92,0,0,1,1.43-1.32A48.17,48.17,0,0,1,342.72,144.33Z"/><path class="09841218-27d5-49a0-8da3-fe18b8962f99" d="M361.45,164.88c0-.67.21-1.11.58-1.27a1.28,1.28,0,0,1,1.18.08,3,3,0,0,1,1.09,1.09,2.61,2.61,0,0,1,.39,1.69,9.32,9.32,0,0,1-1,3.63,7.89,7.89,0,0,1-2.14,2.54,11.06,11.06,0,0,1-3,1.66,13.5,13.5,0,0,1-3.63.79,10.55,10.55,0,0,1-3.3-.25,8.15,8.15,0,0,1-2.81-1.26,7.8,7.8,0,0,1-2.12-2.26,9.51,9.51,0,0,1-1.26-3.19A16.22,16.22,0,0,1,345,165a12.16,12.16,0,0,1,.34-3.21,7.47,7.47,0,0,1,1.25-2.74,4.69,4.69,0,0,1,2.4-1.68,8.84,8.84,0,0,1-2-4,11.05,11.05,0,0,1-.22-2.52v-.24a9.23,9.23,0,0,1,.59-3,5.59,5.59,0,0,1,1.37-2.09,4.5,4.5,0,0,1,1.92-1.08,5,5,0,0,1,2.19-.09,7.34,7.34,0,0,1,2.64,1.08,10.66,10.66,0,0,1,2.24,2,11.86,11.86,0,0,1,1.63,2.55,9.56,9.56,0,0,1,.84,2.78,1.78,1.78,0,0,1-.33,1.59,1.24,1.24,0,0,1-1.19.27,3.21,3.21,0,0,1-1.48-1,5.05,5.05,0,0,1-1.18-2.21,4.17,4.17,0,0,0-.94-1.31,2.5,2.5,0,0,0-1.32-.75,1.68,1.68,0,0,0-2,.92,4.83,4.83,0,0,0-.16,3,5.18,5.18,0,0,0,1.11,2.31,3,3,0,0,0,2.1,1.14,2.94,2.94,0,0,1,1.71,1,4.92,4.92,0,0,1,1,1.72,4.22,4.22,0,0,1,.17,1.82,2.16,2.16,0,0,1-.64,1.37,1.92,1.92,0,0,1-1.5.42,5.35,5.35,0,0,1-2.47-1.1,5,5,0,0,0-1.06.09,3,3,0,0,0-1,.41,2.71,2.71,0,0,0-.82.91,3.89,3.89,0,0,0-.46,1.6,6.11,6.11,0,0,0,1.11,4.39,4.85,4.85,0,0,0,3.69,1.57,8.65,8.65,0,0,0,4.4-1.61,6.46,6.46,0,0,0,1.65-1.76A5.87,5.87,0,0,0,361.45,164.88Z"/><path class="09841218-27d5-49a0-8da3-fe18b8962f99" d="M374.3,157.48a6.14,6.14,0,0,1,.91,1.71,7.49,7.49,0,0,1,.44,1.72c.05.48,0,.75-.22.82s-.58-.24-1.15-.89a36.41,36.41,0,0,0-3.31-3.37q-1.19,8.57-2.38,17.06a1,1,0,0,1-.74,1,2.11,2.11,0,0,1-1.38-.15,3.24,3.24,0,0,1-1.3-1.09,2.62,2.62,0,0,1-.44-1.88q1.13-9,2.26-17.95a32.31,32.31,0,0,0-4.36-2.36,2.91,2.91,0,0,1-1.29-1.19,4.47,4.47,0,0,1-.66-1.7,1.56,1.56,0,0,1,.3-1.31c.27-.32.78-.33,1.52,0A34.71,34.71,0,0,1,374.3,157.48Z"/><path class="9eb7cd5a-9569-414b-b387-3581ebc790cf" d="M102.67,193.22l28.9-11c3-1.14,1.69-6-1.33-4.83l-28.9,11c-3,1.13-1.68,6,1.33,4.82Z"/><path class="9eb7cd5a-9569-414b-b387-3581ebc790cf" d="M158.29,172.44a245.25,245.25,0,0,1,24-8.65c3.07-.94,1.76-5.76-1.33-4.83a248,248,0,0,0-24,8.66c-2.92,1.23-1.64,6.07,1.33,4.82Z"/><path class="a1ca0d87-a4ea-4590-b370-b99fdb95e09b" d="M77.85,601.15s122.39,69.25,257.29.49C335.14,601.64,114.16,555.41,77.85,601.15Z"/></g></g></svg>