<?xml version="1.0" encoding="utf-8"?>
<!-- Generator: Adobe Illustrator 22.1.0, SVG Export Plug-In . SVG Version: 6.00 Build 0)  -->
<svg version="1.1" id="Calque_1" xmlns="http://www.w3.org/2000/svg" xmlns:xlink="http://www.w3.org/1999/xlink" x="0px" y="0px"
	 viewBox="0 0 757.1 605.2" style="enable-background:new 0 0 757.1 605.2;" xml:space="preserve">
<style type="text/css">
	.st0{fill:#C3E0DD;}
	.st1{fill:#EEA68D;}
	.st2{fill:#F08963;}
	.st3{fill:#394191;stroke:#394191;stroke-miterlimit:10;}
	.st4{fill:#2C3980;}
	.st5{fill:#D83C49;}
	.st6{fill:#E8484D;stroke:#E8484D;stroke-miterlimit:10;}
</style>
<path class="st0" d="M383.3,579l0.2,0.9c0.2,0.9,0.3,1.7,0.5,2.6c8,1.7,16,3.2,24.1,4.4l0.6-2.1l-2.5-3.3
	C398.4,581,390.8,580,383.3,579z M487.3,53.7c15.6-0.6,31.8-0.2,45.7,6.5c-1.6-4.8-3.6-9.4-6.1-13.8c-0.9-0.9-1.9-1.9-2.8-2.8
	C499,19.9,465.7,7.2,432.2,2.5s-67.6-2-101.2,2.1c-30.8,3.8-61.8,8.7-90.9,19.9c-64.4,24.8-117.5,82.9-132.6,152.7
	c-15.1,69.8,11.3,149.2,68,189.5c21.3,15.2,46.8,25.6,62.2,47.2c7.9,11.1,12.4,24.1,16,37.5c0.7-0.4,1.4-0.9,2.1-1.3
	c5.4-3.3,11.1-6.3,16.9-9l0.3-0.1l0.5-0.1l0.1-0.1l0.1,0l0.1-0.2l0.6-0.2c2.5-1.2,4.9-2.2,7.3-3.1c8.9-3.5,18.6-6.6,29.8-4
	c15.5,3.6,32,10.6,49.1,20.6c0.1,0,0.1,0,0.1,0c1.7,1,3.4,2,5.1,3.1c0.6,0.4,1.3,0.8,1.9,1.2c0.1,0.1,0.2,0.1,0.3,0.2l3.5,2.2
	c1.3,0.8,2.5,1.6,3.7,2.5l1.8,1.3c0.2,0.1,0.3,0.2,0.4,0.3c10.6,7.7,20.5,16.4,29.5,26.1c11.7-61.5,33.7-120,65.6-174.1
	c8.1-16.4,20-32,23-35.7c4.2-5.8,9.1-10.4,12.7-13.5c-27.7-1-48.3-9.3-61.3-24.8l-0.1-0.1c-1.6,3.6-4.7,7.5-8.4,7.7
	c-0.5,0-1.1,0-1.6-0.1c-1.1-0.3-4.2-1-8.7-8.8c-3.3-5.8-4.5-12.4-5.6-18.2c-1.3-7.2-2.1-14.2-2.2-21c-0.2-9.5,0.9-18.7,3.2-27.4
	c0.8-2.9,1.7-5.9,2.6-8.8c0.1,0,0.1-0.1,0.2-0.1c0.2-0.5,0.3-1.1,0.5-1.6l0.1-0.2l3.4-8.8c0.3-0.8,0.7-1.5,1-2.3c0,0,0,0,0,0
	c0-0.1,0.1-0.1,0.1-0.2c0.7-1.5,1.3-2.9,2-4.4c-0.1-0.1-0.1-0.2-0.2-0.3c9.2-18.8,21.9-33.1,38-42.5c16-9.3,33.9-14.6,52.1-15.8
	l-0.3-0.5c-1.7-2.5-3.5-4.7-5.6-6.8c-9-9.2-21.3-15.4-31.6-20.6c-0.5-0.2-0.9-0.6-1.3-0.9c-1.1-1-1.5-2.5-1.1-4
	C483.7,55.1,485.4,53.7,487.3,53.7z M611.2,217.1c-1.4,2.8-2.9,5.5-4.6,8.2c0,0-0.1-0.1-0.1-0.1c-2.3,3.7-4.8,7.2-7.6,10.6
	c0.5,0.1,9.7,2.1,20.8,7.7c-2.9-8.4-5.5-16.9-8.1-25.3C611.4,217.8,611.3,217.5,611.2,217.1z M719.4,354.7
	c-10.7-12.2-23.5-22.4-36.3-32.5c2.9,6.6,5.8,13.7,8.6,21.3c8.6,23.7,15.1,48.2,19.1,73.1c0.3,1.6,0.6,3.3,0.8,5
	c0.1,0.3,0.1,0.7,0.2,1.1c0.2,1.4,0.4,2.7,0.6,4c0.1,0.7,0.2,1.3,0.3,2c0.1,1,0.3,2.1,0.4,3.1c0.1,0.5,0.1,1,0.2,1.5
	c0.1,1.2,0.3,2.5,0.4,3.7c0.1,0.2,0.1,0.4,0.1,0.6c2.2,20.6,2.7,42.5,1.7,66.2c-1.1,25.5-2.8,52.4-11.6,78.2l-0.2,0.4
	c-0.1,0.1-0.1,0.3-0.2,0.4c-0.2,0.5-0.4,1.1-0.6,1.6l-0.7,1.9H702l0,0.1c-1.3,2.9-2.7,5.7-4.2,8.4c25.5-11.4,40.8-35.7,49.5-64
	C765.5,471.4,759.7,400.7,719.4,354.7z M49.2,104.5c1.3-3.8,4.2-6.8,5.9-10.4c2.1-4.7,1.9-10.1-0.4-14.6c-1.5-2.9-4-5.4-7.2-6.1
	c-2.5-0.5-5.2,0.2-6.9,2c-17.4,6.2-28.8,23.4-35.5,40.8c-4.3,11.1-7.3,23.6-3,34.7c5.2,13.5,21.8,21.4,35.6,16.8
	c13.8-4.6,22.4-20.7,18.6-34.7C53.7,123.3,45.9,114,49.2,104.5z M692.7,290.1l-1.5,0.3c11.1-4.1,19.3-13.6,21.6-25.2
	c0.7-4.5,0.8-9.1,0.1-13.6c-1.6-12.7-6.8-24.8-15-34.7c-6.9-8.4-16.2-15.2-26.8-17.4s-22.6,0.6-29.8,8.7S633,229.7,640,238
	c5.9,6.9,15.5,9,24.1,12.2s17.6,9.5,17.7,18.7c0,4-1.7,7.8-2.3,11.7s0.3,8.7,3.9,10.4C686.3,292.4,689.7,291.3,692.7,290.1z"/>
<path class="st1" d="M215.2,504.8c3-2.4,5.8-4.9,8.4-7.6c-2.4-0.3-4.8-1.2-6-3.1c-1.9-3.2,0.2-8.2,1.5-11.2c1.7-4,3.9-7.6,6.7-10.9
	c0.8-1,1.6-1.9,2.5-2.8c-3.6,2.6-7,5.4-10.2,8.5c-3.9,3.6-7.4,7.6-10.6,11.9c-3,4.1-7.3,9.9-7.5,15.1
	C199.7,515.1,211.4,507.6,215.2,504.8z M363,459.2c-1.3-0.8-2.6-1.6-3.9-2.4c-14.9-8.8-31.4-16.3-48.3-20.3c-10-2.4-18.7,0.2-28,3.9
	c-2.4,0.9-4.8,1.9-7.2,3c-0.3,0.4-0.8,0.6-1.2,0.7l-0.4,0.1c-5.7,2.6-11.3,5.6-16.7,8.9c-0.9,0.5-1.9,1.1-2.8,1.7
	c-6.8,4.2-13.2,9.2-19.2,14.5c-3.3,3-6.2,6.4-8.7,10.1c-1.5,2.3-6.4,10-3.8,12.6c1.6,1.6,7,0.2,8.9-0.2c2.6-0.7,5.2-1.7,7.7-2.8
	c4.3-1.9,8.6-3.9,12.8-6c2.8-1.4,5.5-2.8,8.3-4.2c5.9-3.1,11.7-6.4,17.3-9.8c2.8-1.7,5.3,2.7,2.5,4.3c-6.1,3.6-12.2,7.1-18.5,10.3
	c-5.4,2.8-10.9,5.5-16.5,8.1c-4.8,2.2-9.6,4.5-14.8,5.4c-4.5,5.4-9.7,10.2-15.6,14.1l-0.2,0.1c0,0.1,0.1,0.1,0.1,0.2
	c8.3-4.2,17-7.5,26-9.9c0.2-0.5,0.6-0.8,1-1.1c7.1-4.2,14.2-8.5,21.1-13c0.9-0.5,1.7-1.1,2.6-1.6c2.7-1.7,5.2,2.6,2.5,4.3
	c-1.2,0.7-2.3,1.5-3.5,2.2c-3.2,2.1-6.5,4.1-9.7,6.1c3.8-0.6,7.6-1.2,11.3-1.7c9.9-1.2,19.8-1.9,29.7-1.9c4.5-0.1,9.1-0.1,13.6,0
	c0.1-0.3,0.3-0.6,0.6-0.8c1.8-1.4,3.2-3.2,4.3-5.2c1.5-2.8,5.8-0.3,4.3,2.5c-0.7,1-1.5,2.2-2.5,3.4c0.1,0,0.1,0,0.2,0c0,0,0,0,0,0
	c4.9,0.1,9.8,0.3,14.7,0.6c3.6,0.2,7.3,0.5,10.9,0.8c1.4-3.5,3-7,4.8-10.3c2.1-4,4.5-7.8,7.2-11.4c3.7-4.9,7.8-9.4,12.5-13.3
	c0,0,0,0,0,0c-0.1-0.1-0.2-0.1-0.3-0.2C365,460.5,364,459.8,363,459.2z M293.8,499.7c-8.6,0.2-17.3,0.6-25.9,1.5
	c-7.8,0.8-15.5,2-23,3.9c-12.3,3.1-24.1,8-35,14.6c-8.3,4.9-16.7,11.3-21,20.2c0.1-0.1,0.2-0.2,0.4-0.3c0.8-0.7,1.6-1.3,2.3-1.9
	c11-8.3,23.8-13.9,37.3-16.3c1.4-0.3,2.4,0.6,2.9,1.6c0.6,1.3,0.2,2.9-1.6,3.2c-10.9,1.9-21.4,6-30.7,12
	c-8.4,5.4-18.2,13.6-18.3,24.2c0-0.1,0.1-0.1,0.1-0.1c2.2-3,4.8-5.7,7.7-8.1c14.2-12.1,31.5-20,50-22.8c1.4-0.2,2.5,0.6,2.9,1.6
	c0.6,1.3,0.2,2.9-1.6,3.2c-10.5,1.5-20.7,4.8-30.2,9.6c-8.5,4.4-19,10.6-24.5,18.7c-1.7,2.4-2.7,5.2-1.4,7.8
	c0.1,0.3,0.3,0.6,0.5,0.9c2,2.8,5.6,2.7,8.9,1.8c5-1.4,9.8-4.1,14.5-6.1c9.6-4,18.8-6.3,29.2-5.6c17.5,1.2,35.1,1.3,52.7,2.2
	c-0.1-1.5-0.1-2.9-0.1-4.4c-0.1-8.1,0.8-16.1,2.7-24c0.3-1.1,0.5-2.1,0.8-3.2c3.5-12.6,9.8-24.3,18.7-34.1c0,0,0.1-0.1,0.1-0.1
	c-0.5,0-0.9,0-1.4,0C305.2,499.6,299.5,499.6,293.8,499.7z M570.2,164.8c-4.1-9.2-11.8-16.9-22.7-15.9c-9.3,0.7-16.4,8.5-16.5,17.8
	c0.3,0.6,0.4,1.2,0.1,1.8c0.1,1,0.3,2,0.6,3c0.9,3.1-3.9,4.4-4.8,1.3c-0.2-0.8-0.4-1.5-0.5-2.3c-0.1-0.6-0.2-1.1-0.3-1.7
	c-8.2-7.2-13.7-17.1-15.4-27.9c-7.9,8.7-20.6,9.4-32.4,9.9c-16.4,0.8-34.2,1.7-47.1,13c-0.4,0.3-0.7,0.6-1.1,1
	c-0.2,0.2-0.5,0.4-0.8,0.5c-1.2,3.4-2.2,6.9-3.1,10.4c-0.6,2.1-1,4.3-1.4,6.4c-2.5,13.4-2.1,27.1,0.4,40.5c1.1,5.9,2.3,12,5.3,17.2
	c1.2,2.1,4.1,6.7,6.8,7.3c2.7,0.6,5.4-3.3,6.5-5.9c0-1.9,2-3.5,3.5-2.5c1,0.2,1.8,1,1.8,2.1c15.2,18.1,39.6,23.5,62.4,23.9
	c0.2-0.1,0.4-0.3,0.6-0.4c2.6-2,5.2-3.9,7.8-5.8c10.2-7,20.8-13.8,32.4-17.9c0.4-0.1,0.8-0.3,1.2-0.4c1.5-0.5,2.9-1,4.4-1.4
	c1.8-0.6,3.5-1.1,5.2-1.5c0.3-0.1,0.7-0.2,1-0.3c-0.1-0.1-0.2-0.2-0.3-0.2c-7.5-5.3-11.8-16.6-11-25.5c0-0.1,0-0.1,0-0.2
	c-4.5-1-8.5-3.6-11.2-7.4c-1.8-2.6,2.5-5.1,4.3-2.5c7.4,10.6,24.2,5,28.5-5.4C578.6,185.6,574.5,174.3,570.2,164.8z M443.3,180.1
	c-1.5,1.9-4.2-0.8-2.6-2.6c2.4-3,5.3-5.3,8.6-7c6-3,13.1-3.7,19.7-1.6c0.7,0.2,1.1,0.7,1.2,1.3c0.3,1.2-0.7,2.8-2.2,2.3
	C459,169.6,449.1,172.6,443.3,180.1z M470.4,207.8c-1.5,2.8-4.5,4.8-7.9,4.8c0,0.1,0,0.1-0.1,0.1c-5,0-9.1-4.1-9.1-9
	c0-4.9,4.1-9.1,9-9.1c0,0,0,0,0.1,0c0,0,0,0,0,0c5.1,0,9.1,4,9.1,8.9C471.5,205.1,471.1,206.6,470.4,207.8z M534.1,230.8
	c-3.5,13.2-14,23.3-27.3,26.4c-0.2,0-0.3,0.1-0.5,0.1c-2.8,0.3-3.8-4.2-0.9-4.9c11.6-2.6,20.8-11.4,23.8-22.9
	c0.3-1.2,1.2-1.7,2.2-1.8C532.9,227.6,534.6,228.9,534.1,230.8z M571.3,187.9c-0.7,0.7-1.7,0.9-2.8,0.2l-11.9-8.2
	c-0.7,2.6-1.5,5.2-2.2,7.8c-0.3,1.1-0.6,2.2-0.9,3.3c-0.7,2.7-4.6,2-4.9-0.3c0,0,0-0.1,0-0.1c0-0.1,0-0.2,0-0.3c0-0.2,0-0.4,0.1-0.7
	l3.6-12.7l-9-6.1c-0.8-0.6-1.2-1.4-1.2-2.2c0-1.7,1.8-3.5,3.7-2.2l7.9,5.4c1-3.4,1.9-6.8,2.9-10.2c0.8-2.9,5.1-1.9,4.9,0.8
	c0,0.2,0,0.4-0.1,0.6c-1.1,4-2.2,7.8-3.3,11.8l13.1,8.9C572.8,184.8,572.4,186.9,571.3,187.9z"/>
<path class="st2" d="M663.9,144.6c0-9.9-1.1-19.7-3.3-29.4c0,0,0-0.1,0-0.1c0,0,0,0,0,0c0,0,0,0.1,0,0.1
	C662.7,124.9,663.9,134.7,663.9,144.6z"/>
<path class="st2" d="M462.4,212.7C462.5,212.7,462.5,212.7,462.4,212.7c3.5-0.1,6.5-2,8-4.9c-1.5,2.8-4.4,4.7-7.9,4.7
	c-4.9,0.1-9-3.9-9-8.9c-0.1-4.9,3.9-9,8.9-9c0,0,0,0-0.1,0c-4.9,0-9,4.2-9,9.1C453.3,208.6,457.4,212.7,462.4,212.7z"/>
<path class="st2" d="M561.4,162.4c0.2-2.7-4.1-3.7-4.9-0.8c-1,3.4-1.9,6.8-2.9,10.2l-7.9-5.4c-1.9-1.2-3.6,0.5-3.7,2.2
	c0,0.8,0.3,1.6,1.2,2.2l9,6.1l-3.6,12.7c-0.1,0.2-0.1,0.4-0.1,0.7c0,0.1,0,0.2,0,0.3c0,0,0,0.1,0,0.1c0.3,2.4,4.2,3.1,4.9,0.3
	c0.3-1.1,0.6-2.2,0.9-3.3c0.8-2.6,1.5-5.2,2.2-7.8l11.9,8.2c1.1,0.7,2.1,0.5,2.8-0.2c1.2-1,1.5-3.1-0.2-4.2l-13.1-8.9
	c1.1-4,2.2-7.8,3.3-11.8C561.4,162.8,561.4,162.6,561.4,162.4z"/>
<path class="st2" d="M458.6,114.8c4-3.4,8.2-6.4,12.7-9C466.8,108.4,462.6,111.4,458.6,114.8z"/>
<path class="st2" d="M640,140.2c0-2.1-0.1-4.1-0.3-6.1c0-0.1,0-0.3,0-0.4c0,0,0,0,0,0c0,0.1,0,0.3,0,0.4
	C639.9,136.1,640,138.2,640,140.2z"/>
<path class="st2" d="M531.5,499.1c-5.1,18.7-11.8,38.2-23.8,53.6c-6.5,8.3-14.7,14.7-23.9,19.5c9.3-4.8,17.6-11.3,24.1-19.6
	c12-15.4,18.7-34.9,23.8-53.6c12.1-44,15.3-93.8,46.9-129.5c1.9-2.1-0.6-5.1-2.7-4.1c2-0.6,4.2,2.2,2.4,4.2
	C546.8,405.3,543.6,455.1,531.5,499.1z"/>
<path class="st2" d="M526.4,170.5c0.1,0.8,0.3,1.5,0.5,2.3c0.9,3.1,5.7,1.8,4.8-1.3c-0.3-1-0.5-2-0.6-3c0.3-0.6,0.2-1.2-0.1-1.8
	c0.1-9.3,7.2-17.1,16.5-17.8c10.9-1,18.6,6.7,22.7,15.9c4.3,9.5,8.4,20.8,4.2,31c-4.3,10.4-21.1,16-28.5,5.4
	c-1.8-2.6-6.1-0.1-4.3,2.5c2.7,3.8,6.7,6.4,11.2,7.4c0,0.1,0,0.1,0,0.2c-0.8,8.9,3.5,20.2,11,25.5c2.6-0.7,5-1.3,7.2-1.7
	c-8.8-2.1-14.5-15-13.6-23.3c0.1,0,0.2,0,0.3,0c6.7,0,13.1-3,17.5-8.1c9.6-11.7,5.1-27.6-0.3-40c-5.3-12.1-15.7-21.9-29.8-19.5
	c-8.7,1.4-15.7,7.6-18.3,15.9c-0.1,0.8-0.1,1.6,0,2.4C526.3,165.1,526.2,167.8,526.4,170.5z"/>
<path class="st2" d="M619.8,156.7c-0.6-3.2-1.3-6.4-2.2-9.5c0,0,0-0.1,0-0.1l-0.1,0c0,0,0,0.1,0,0.1
	C618.4,150.2,619.2,153.4,619.8,156.7z"/>
<path class="st2" d="M506.3,257.3c0.2,0,0.3,0,0.5-0.1c13.3-3.1,23.8-13.2,27.3-26.4c0.5-1.9-1.2-3.2-2.7-3.1
	c-0.9,0.1-1.8,0.6-2.2,1.8c-3,11.5-12.2,20.3-23.8,22.9C502.4,253.1,503.5,257.5,506.3,257.3z"/>
<path class="st2" d="M422.9,605.3c0,0,0,0.1,0,0.1H683c0,0,0-0.1,0-0.1H422.9z"/>
<path class="st2" d="M422.4,223.1c1.1,5.8,2.3,12.4,5.6,18.2c4.5,7.8,7.6,8.5,8.7,8.8c0.6,0.1,1.1,0.2,1.6,0.1
	c3.7-0.1,6.8-4,8.4-7.7l0.1,0.1c13,15.5,33.6,23.8,61.3,24.8c0,0,0,0,0,0c0.1-0.1,0.1-0.1,0.2-0.2c1.5-1.2,2.7-2.2,3.7-2.8
	c0-0.1,0-0.1,0-0.2c-0.2,0.1-0.4,0.3-0.6,0.4c-22.8-0.4-47.2-5.8-62.4-23.9c0-1.1-0.8-1.9-1.8-2.1c-1.5-1-3.5,0.6-3.5,2.5
	c-1.1,2.6-3.8,6.5-6.5,5.9c-2.7-0.6-5.6-5.2-6.8-7.3c-3-5.2-4.2-11.3-5.3-17.2c-2.5-13.4-2.9-27.1-0.4-40.5c0.4-2.2,0.9-4.3,1.4-6.4
	c0.9-3.5,1.9-7,3.1-10.4c0.3-0.1,0.6-0.3,0.8-0.5c0.4-0.3,0.7-0.7,1.1-1c-2.2,1.4-4.2,3.1-5.9,5.1c-0.6,2-1.2,4-1.6,5.9
	c-0.5,2-1,3.9-1.3,5.9c0,0-0.1-0.1-0.2-0.1c-1.4,6.9-2,14-1.9,21.4C420.3,208.9,421.1,215.9,422.4,223.1z"/>
<path class="st2" d="M713.8,437.6c0-0.2,0-0.4-0.1-0.6c-0.1-1.2-0.3-2.5-0.4-3.7c-0.1-0.5-0.1-1-0.2-1.5c-0.1-1-0.3-2.1-0.4-3.1
	c-0.1-0.7-0.2-1.3-0.3-2c-0.2-1.3-0.4-2.6-0.6-4c-0.1-0.4-0.1-0.8-0.2-1.1c-0.2-1.7-0.5-3.4-0.8-5c-4-24.9-10.5-49.4-19.1-73.1
	c-2.8-7.6-5.6-14.7-8.6-21.3c-7.5-17-15.4-30.9-24.4-42.8c-3.3-4.4-7.9-9.8-13.4-15.3c0,0,0.1,0.1,0.1,0.1c0,0-0.4-0.3-1.2-1
	c6,5.9,10.9,11.7,14.4,16.4c8.9,11.8,16.8,25.6,24.3,42.4c3,6.7,5.9,13.9,8.7,21.7c8.6,23.7,15.1,48.2,19.1,73.1
	c0.3,1.6,0.6,3.3,0.8,5c0.1,0.3,0.1,0.7,0.2,1.1c0.2,1.4,0.4,2.7,0.6,4c0.1,0.7,0.2,1.3,0.3,2c0.1,1,0.3,2.1,0.4,3.1
	c0.1,0.5,0.1,1,0.2,1.5c0.1,1.2,0.3,2.5,0.4,3.7c0.1,0.2,0.1,0.4,0.1,0.6c2.1,20.6,2.7,42.5,1.8,65.6c-1.1,25.5-2.8,52.4-11.6,78.2
	l-0.2,0.4c-0.1,0.1-0.1,0.3-0.2,0.4c-0.2,0.5-0.4,1.1-0.6,1.6l-0.7,1.9l-0.2,0.4h0.2l0.7-1.9c0.2-0.5,0.4-1.1,0.6-1.6
	c0.1-0.1,0.1-0.3,0.2-0.4l0.2-0.4c8.8-25.8,10.5-52.7,11.6-78.2C716.5,480.1,716,458.2,713.8,437.6z"/>
<path class="st2" d="M712.3,504.2c-0.3,6.2-0.6,12.5-1,18.7C711.7,516.7,712,510.5,712.3,504.2z"/>
<path class="st2" d="M408.8,584.6l0-0.2l0.1,0.1l-2.6-3.4c-7.8-0.6-15.5-1.6-23.1-2.6l0.1,0.4l0,0c7.6,1,15.3,2,23.1,2.6
	L408.8,584.6z"/>
<path class="st2" d="M406.9,490.8c11.7-61.5,33.7-120,65.6-174.1c0,0,0,0,0,0C440.6,370.7,418.6,429.2,406.9,490.8
	c0,0.1,0,0.2-0.1,0.3l-0.1-0.1l0.1,0.1C406.8,491,406.8,490.9,406.9,490.8z"/>
<path class="st2" d="M155,597.2h-39.4l-0.5-4l-4.7-33.8c-4.1-29.6-8.2-59.1-12.3-88.7l-15-107.2c-4.3-31.1-8.8-62.6-13.2-93.6
	l-1.3-9.5c-1.7-12.4-3.5-25.3-5.5-37.9c-0.2-1.3-0.4-2.6-0.4-3.8c0,0,0,0,0,0c0-1.3,0-2.6,0.2-3.9c0.3-1.6,0.7-3.1,1.4-4.5
	c-0.8,1.5-1.3,3.1-1.6,4.9c-0.4,2.6-0.3,5.2,0.2,7.8c2,12.6,3.8,25.5,5.5,37.9l1.3,9.5c4.4,31,8.9,62.5,13.2,93.6l15,107.2
	c4.1,29.6,8.2,59.1,12.3,88.7l4.6,33.6c0.1,0,0.1-0.1,0.2-0.1l0.6,4.2H155c0,0,0-0.1,0-0.1C155,597.3,155,597.3,155,597.2z"/>
<path class="st2" d="M466.7,574.1c-32.5,10.3-69.6,3.9-102.5-0.8c-6.5-0.9-13-1.8-19.6-2.6c-14.4-1.8-28.8-3.3-43.2-4.4l-0.9-0.1
	l-0.1,0c0-0.4,0-0.7-0.1-1.1c-0.5-6.7-0.2-13.5,0.9-20.1c0.5-2.8,1.1-5.6,1.9-8.3c4.1-14.4,12-27.2,23.3-36.4c6,0.3,12,0.7,18,1.2
	c-6.3-0.6-12.5-1-18.8-1.3c2.1-1.2,3.7-2.8,5.2-4.6c24.1,1.4,48,4.5,71.9,8.2c0.6-3.4,1.2-6.8,1.8-10.2c0,0-0.1-0.1-0.1-0.1
	c-0.6,3.4-1.2,6.7-1.8,10.1c-16.7-2.6-33.5-4.9-50.4-6.5c2.3-5.1,4.9-9.9,8-14.3c4.1-6,9-11.2,14.8-15.4c0,0,0.1-0.1,0.1-0.1
	c3.7,2.7,7.3,5.5,10.8,8.4c-3.5-3-7.2-5.8-10.9-8.5c0.9-0.7,1.8-1.3,2.8-1.9c-0.2-0.1-0.4-0.3-0.6-0.4c-0.1-0.1-0.2-0.2-0.4-0.3
	l-1.8-1.3c-1.2-0.9-2.4-1.7-3.7-2.5l-3.5-2.2c-0.1-0.1-0.2-0.1-0.3-0.2c-0.6-0.4-1.3-0.8-1.9-1.2c-1.7-1.1-3.4-2.1-5.1-3.1
	c0,0,0,0-0.1,0c-17.1-10-33.6-17-49.1-20.6c-11.2-2.6-20.9,0.5-29.8,4c-2.4,0.9-4.8,1.9-7.3,3.1l-0.5,0.2l-0.1,0l-0.1,0.1l-0.1,0.2
	l-0.6,0.1l-0.3,0.1c-5.8,2.7-11.5,5.7-16.9,9c-0.3,0.2-0.5,0.3-0.8,0.5l-1.2,0.7l-0.5,0.3l-26.4,14.8l-0.2,0.1l1.8,2l0,0.1l-1.7-1.9
	c0,0,0,0,0,0l-0.2-0.2c-3.6,2.7-7.2,5.6-10.4,8.7c-0.9,0.9-1.9,1.8-2.8,2.7c-2.9,3-5.7,6.2-8.2,9.7l-0.2,0.3
	c-3.2,4.4-7.7,10.5-7.8,16.5c-0.1,3.5,1,5.5,2.2,6.7c0.5,0.6,1.1,1,1.6,1.2c1,0.5,2.1,0.7,3.3,0.7c2.3,0,4.8-0.9,7.2-2.1l0.8,1.5
	l0.8,2l0,0.1c-1.5,0.8-3,1.7-4.5,2.6c-4.4,2.6-9.9,6.2-14.7,11.1c-2.9,3-5.6,6.4-7.5,10.3l-5.9,12.3c-0.1,0.1-0.2,0.3-0.3,0.5
	c0,0-1.8,6.7-1.6,8.5c0,0.1,0,0.2,0,0.3c0,0.2,0,0.3-0.1,0.5c-0.1,0.6-0.1,1.2-0.1,1.8v5.1l0.2,0h0v-0.2c0.1,1.1,0.4,2.2,0.6,3.3
	c0,1.3,0.5,2.5,1.4,3.4c0.5,0.6,1.3,1,2.1,1.3c0.2,1.2,0.8,2.4,2,3.3c0.5,0.4,1.1,0.7,1.6,1.1c3.3,0.9,7.2,0.5,10.4-0.7
	c9.7-3.4,18.5-8.8,28.7-10.7c5.1-1,10-0.5,15.2-0.2c5.8,0.3,11.7,0.4,17.6,0.5c11,0.2,22,0.7,32.9,1.5c3.4,0.2,6.8,0.5,10.2,0.7
	c-0.2-1.5-0.3-3-0.6-4.5c0.2,0,0.4,0,0.5,0c14.7,1.1,29.4,2.6,44,4.5c6.3,0.8,12.5,1.6,18.8,2.5
	C396.8,578.1,434.1,584.5,466.7,574.1z M235.3,469.3c6-5.4,12.4-10.3,19.2-14.5c0.9-0.6,1.8-1.1,2.8-1.7c5.4-3.3,11-6.3,16.7-8.9
	l0.4-0.1c0.4-0.1,0.9-0.3,1.2-0.7c2.4-1.1,4.8-2.1,7.2-3c9.3-3.7,18-6.3,28-3.9c16.9,4,33.4,11.5,48.3,20.3c1.3,0.8,2.6,1.6,3.9,2.4
	c1,0.6,2.1,1.3,3.1,1.9c0.1,0.1,0.2,0.1,0.3,0.2c0,0,0,0,0,0c-4.7,3.8-8.9,8.3-12.5,13.3c-2.6,3.6-5,7.4-7.2,11.4
	c-1.8,3.3-3.4,6.7-4.8,10.3c-3.6-0.3-7.3-0.5-10.9-0.8c-4.9-0.3-9.8-0.5-14.7-0.6c0,0,0,0,0,0c-0.1,0-0.1,0-0.2,0
	c1-1.2,1.8-2.4,2.5-3.4c1.5-2.8-2.8-5.3-4.3-2.5c-1.1,2-2.5,3.8-4.3,5.2c-0.3,0.2-0.5,0.5-0.6,0.8c-4.5-0.1-9.1-0.1-13.6,0
	c-9.9,0.1-19.8,0.7-29.7,1.9c-3.8,0.5-7.6,1-11.3,1.7c3.2-2,6.5-4,9.7-6.1c1.2-0.7,2.3-1.5,3.5-2.2c2.7-1.7,0.2-6-2.5-4.3
	c-0.8,0.5-1.7,1.1-2.6,1.6c-7,4.4-14,8.8-21.1,13c-0.4,0.3-0.8,0.6-1,1.1c-9,2.4-17.7,5.7-26,9.9c0-0.1-0.1-0.1-0.1-0.2l0.2-0.1
	c5.9-3.9,11.1-8.7,15.6-14.1c5.2-0.9,10-3.2,14.8-5.4c5.6-2.6,11.1-5.2,16.5-8.1c6.3-3.3,12.4-6.7,18.5-10.3c2.8-1.6,0.3-6-2.5-4.3
	c-5.7,3.4-11.5,6.7-17.3,9.8c-2.7,1.4-5.5,2.9-8.3,4.2c-4.2,2.1-8.5,4.1-12.8,6c-2.5,1.1-5.1,2.1-7.7,2.8c-1.9,0.4-7.3,1.8-8.9,0.2
	c-2.6-2.6,2.3-10.3,3.8-12.6C229.1,475.7,232,472.3,235.3,469.3z M200,504.7c0.2-5.2,4.5-11,7.5-15.1c3.2-4.3,6.7-8.3,10.6-11.9
	c3.2-3.1,6.6-5.9,10.2-8.5c-0.9,0.9-1.7,1.8-2.5,2.8c-2.8,3.3-5,6.9-6.7,10.9c-1.3,3-3.4,8-1.5,11.2c1.2,1.9,3.6,2.8,6,3.1
	c-2.6,2.7-5.4,5.2-8.4,7.6C211.4,507.6,199.7,515.1,200,504.7z M292.6,537.1c-1.9,7.9-2.8,15.9-2.7,24c0,1.5,0.1,2.9,0.1,4.4
	c-17.6-0.9-35.2-1-52.7-2.2c-10.4-0.7-19.6,1.6-29.2,5.6c-4.7,2-9.5,4.7-14.5,6.1c-3.3,0.9-6.9,1-8.9-1.8c-0.2-0.3-0.4-0.6-0.5-0.9
	c-1.3-2.6-0.3-5.4,1.4-7.8c5.5-8.1,16-14.3,24.5-18.7c9.5-4.8,19.7-8.1,30.2-9.6c1.8-0.3,2.2-1.9,1.6-3.2c-0.4-1-1.5-1.9-2.9-1.6
	c-18.5,2.8-35.8,10.7-50,22.8c-2.9,2.4-5.5,5-7.7,8.1c0,0.1-0.1,0.1-0.1,0.1c0.1-10.6,9.9-18.8,18.3-24.2c9.3-6,19.8-10.1,30.7-12
	c1.8-0.3,2.1-1.9,1.6-3.2c-0.4-1-1.5-1.9-2.9-1.6c-13.5,2.4-26.3,8-37.3,16.3c-0.8,0.6-1.6,1.2-2.3,1.9c-0.1,0.1-0.2,0.2-0.4,0.3
	c4.3-8.9,12.7-15.3,21-20.2c10.9-6.6,22.7-11.5,35-14.6c7.5-1.9,15.2-3.1,23-3.9c8.6-0.9,17.3-1.3,25.9-1.5c5.7-0.1,11.4-0.1,17,0
	c0.5,0,0.9,0,1.4,0c0,0-0.1,0.1-0.1,0.1c-8.8,9.8-15.2,21.4-18.7,34.1C293.1,535,292.8,536,292.6,537.1z"/>
<path class="st2" d="M431.2,152.9C431.2,152.9,431.2,152.9,431.2,152.9c0-0.1,0.1-0.1,0.1-0.2C431.3,152.8,431.2,152.8,431.2,152.9z
	"/>
<path class="st3" d="M380.4,580.6c-3.5-0.5-7-1-10.5-1.5c0,0,0,0,0,0c-14-2.1-27.8-4.3-41.5-5.7c-9.1-1-18.2-1.8-27.3-2.5
	c-3.4-0.3-6.8-0.5-10.2-0.7c-11-0.7-22-1.2-32.9-1.5c-5.9-0.1-11.8-0.2-17.6-0.5c-5.2-0.3-10.1-0.8-15.2,0.2
	c-10.2,1.9-19,7.3-28.7,10.7c-3.2,1.2-7.1,1.6-10.4,0.7c-3.3-0.9-6-3-7.1-6.8c0-0.5-0.2-1.4-0.2-2.2l-16.9-0.4l-10-0.2l-15.5-0.4
	c-0.8,0-1.6-0.6-1.8-1.4c-0.1-0.8-0.2-1.6-0.3-2.4c-2.5-17.5-4.9-34.9-7.5-52.3c-4.6-32-9.3-64-14.1-96
	c-5.3-35.2-10.7-70.3-16.3-105.4c-4.4-27.4-8.8-54.7-14.3-81.9c-1.3-7.3-3-14.6-5-21.8c-0.3-1.1-0.7-2.1-1.2-3.2h-0.1
	c-1.7,0.3-3.1,0.4-4.6,1.2c-2.9,1.9-4.9,5-5.5,8.5c-0.3,2.3-0.3,4.6,0.2,6.8c2.5,15.8,4.7,31.7,6.9,47.5
	c4.4,31.2,8.8,62.4,13.2,93.6c5,35.8,10,71.5,15,107.2c4.1,29.6,8.2,59.1,12.3,88.7l4.7,33.7l0.2,1.5h261.1l1.2-0.1
	c0.2-0.7,0.4-1.5,0.4-1.6c0.1-0.7,0.1-1.3,0.2-2c0.2-2.9,0-5.8-0.5-8.7C380.5,581.4,380.5,581,380.4,580.6z M590.7,109.9
	c-8-6.6-18.3-10.5-28.5-13c-3.1-0.8-6.3-1.4-9.4-2c-27.5-5.2-55.9-0.3-80.2,13.6c-18.9,11-31.7,28.3-39.9,48
	c9.5-6.3,20.9-8.8,32.3-9.8c15-1.4,37.1,2.3,45.1-13.8c0.9-1.7,2.7-1.5,3.8-0.4c0.7,0.4,1.1,1.2,1.1,2c0.2,10.3,4.2,20.2,11.2,27.7
	c0.2-0.7,0.3-1.4,0.6-2.1c2.6-8.3,9.7-14.5,18.3-15.9c14.1-2.4,24.5,7.4,29.8,19.5c5.4,12.4,9.9,28.3,0.3,40
	c-4.3,5.1-10.8,8.1-17.5,8.1c-0.1,0-0.2,0-0.3,0c-0.9,8.4,4.9,21.3,13.6,23.3c0.4,0.1,0.7,0.2,1.1,0.2c0.1,0,0.1,0,0.2,0
	c0.1,0,0.2,0,0.3,0c1.6-0.2,3.1-0.4,4.6-0.6c0.8-0.1,1.6-0.2,2.4-0.2c1.3-0.1,2.5-0.1,3.6-0.2c1.4,0,2.6,0,3.8,0
	c1,0,1.9,0.1,2.8,0.1c1.6,0.1,3,0.3,4.2,0.4c0.5,0.1,1,0.1,1.5,0.2c3-3.5,5.8-7.3,8.2-11.1c1.5-2.4,2.9-4.8,4.2-7.3
	c0.7-1.3,1.3-2.6,1.9-4c1-2.2,1.9-4.5,2.8-6.7c7.4-20.4,7.6-43,0-64C608.2,129.8,600.8,118.1,590.7,109.9z M681.6,127.2
	c-8.7-22.7-27.9-40.4-51.5-46.6c9.6-8.1,20.2-14.9,31.6-20.2c1.3-0.6,0.4-2.2-0.6-2.3c-22-2.9-44.3,1.4-63.6,12.3
	c-4.2-20.8-18.7-37-34.1-50.8c-0.5-0.5-1.3-0.6-1.8-0.1c-0.5,0.4-0.6,1.1-0.2,1.6c6.4,13.3,8.6,28.2,6.4,42.8
	c-11.3-17.8-28.5-31-48.6-37.2c-0.7-0.1-1.3,0.3-1.5,1c-0.1,0.4,0,0.8,0.3,1.1c6.9,7.4,12.3,16,16.1,25.3c1.6,4,2.9,8.2,3.9,12.5
	c-14.7-10-33.1-10.5-50.5-9.7c-1.2,0-1.8,1.7-0.6,2.3c14.3,7.2,29.5,15.2,38.5,28.7c10.7-0.5,21.4,0.5,31.9,3
	c0.6,0.2,1.3,0.3,1.9,0.5c13.6,3.5,27.1,9.2,37.6,18.6c10.3,9.2,17.3,21.1,21.6,34.1l0.4,0.2c5.3,3.2,9.1,8.3,10.6,14.2
	c0.2,0.7,0.9,1,1.6,0.8c0.3-0.1,0.5-0.3,0.7-0.5c6.4-10.1,5.8-21.5,3.3-33.6c9.5,8.4,17.3,18.5,22.9,29.9c0.6,1.2,2.2,0.5,2.3-0.6
	c1.1-14.8-0.4-29.6-4.2-43.9c9.9,2.3,18.3,8.7,23.2,17.5C680,129.4,682.1,128.5,681.6,127.2z"/>
<path class="st4" d="M598.2,236.2l0.6-0.4l-0.2,0C598.5,236,598.3,236.1,598.2,236.2z M684.4,126.1c-4.3-11.1-10.8-20.9-19.1-28.9
	c-8.2-8-18.1-14.1-28.9-17.8c0,0,0.1-0.1,0.1-0.1c8.2-6.4,17-11.8,26.5-16.2c1.7-0.8,2.6-2.4,2.3-4.2c-0.2-1-0.7-1.9-1.4-2.6
	c-0.7-0.6-1.5-1.1-2.4-1.2c-21.2-2.8-43,1-62,10.8c0-0.1-0.1-0.2-0.1-0.3c-4.4-16.2-14.7-29.4-25.3-40c-2.9-2.9-5.8-5.6-8.7-8.2
	c-1.6-1.6-4.2-1.7-5.9-0.2c-1.5,1.3-1.9,3.5-0.9,5.3c5,10.4,7.3,21.6,6.8,33c-0.1-0.1-0.1-0.2-0.2-0.2c-0.4-0.5-0.7-0.9-1.1-1.3
	c-0.5-0.6-0.9-1.1-1.4-1.7c-0.5-0.6-0.9-1.1-1.4-1.7c-1-1.1-1.9-2.2-3-3.2c-10.6-10.8-23.8-19-38.4-23.6l-0.3-0.1
	c-2.3-0.5-4.5,1.1-5,3.4c-0.3,1.3,0.1,2.7,1.1,3.7c4.4,4.8,8.2,10,11.3,15.7c2.4,4.4,4.5,9,6.1,13.8c-13.9-6.7-30.1-7.1-45.7-6.5
	c-1.9,0-3.6,1.4-4,3.3c-0.4,1.4,0,2.8,0.9,3.8c0.3,0.4,0.8,0.7,1.3,0.9c10.3,5.2,22.6,11.4,31.6,20.6c2.1,2.2,4.1,4.5,5.8,7l0.3,0.5
	c-18.2,1.2-36.1,6.5-52.1,15.8c-4.5,2.6-8.7,5.6-12.7,9c0,0,0,0-0.1,0.1c-0.9,0.8-1.9,1.6-2.8,2.5c-0.2,0.2-0.4,0.4-0.7,0.6
	c-0.7,0.6-1.4,1.3-2,2c-0.4,0.4-0.8,0.8-1.2,1.2c-0.5,0.5-0.9,1-1.4,1.5c-0.5,0.6-1.1,1.2-1.6,1.8c-0.3,0.3-0.6,0.7-0.9,1
	c-0.7,0.8-1.3,1.6-2,2.4c-0.1,0.2-0.3,0.4-0.4,0.5c-0.7,1-1.5,1.9-2.2,2.9c0,0-0.1,0.1-0.1,0.1c-3.7,5.1-7.1,10.8-10.1,16.9
	c-0.7,1.4-1.4,2.9-2,4.4c0,0.1-0.1,0.1-0.1,0.2c-0.3,0.8-0.7,1.5-1,2.3l-3.4,8.8l-0.1,0.2c-0.2,0.5-0.3,1.1-0.5,1.6
	c-0.3,1.1-0.7,2.1-1,3.2c0,0,0,0,0,0c1.7-2,3.8-3.7,5.9-5.1c12.9-11.4,30.7-12.3,47.1-13c11.8-0.5,24.5-1.2,32.4-9.9
	c1.7,10.8,7.2,20.7,15.4,27.9c0.1,0.6,0.2,1.1,0.3,1.7c-0.1-2.7,0-5.4,0.4-8c-0.1-0.8-0.2-1.6,0-2.4c-0.2,0.7-0.4,1.4-0.6,2.1
	c-7-7.5-11-17.4-11.2-27.7c0-0.8-0.4-1.6-1.1-2c-1.1-1.1-2.9-1.3-3.8,0.4c-8,16.1-30.1,12.4-45.1,13.8c-11.4,1-22.8,3.5-32.3,9.8
	c8.2-19.7,21-37,39.9-48c24.3-13.9,52.7-18.8,80.2-13.6c3.1,0.6,6.2,1.2,9.4,2c10.3,2.5,20.5,6.4,28.5,13
	c10.1,8.2,17.5,19.9,21.8,32c7.6,21,7.3,43.6,0,64c-0.8,2.3-1.7,4.5-2.8,6.7c-0.6,1.3-1.2,2.7-1.9,4c-1.3,2.5-2.7,4.9-4.2,7.3
	c-2.4,3.9-5.2,7.6-8.2,11.1c1.3,0.2,2.2,0.4,2.8,0.6c0.1,0,0.3,0,0.4,0.1c0,0,0,0,0,0c0,0,0,0-0.1,0.1c0.1,0,0.2,0,0.2,0s0,0,0,0
	c2.8-3.4,5.4-6.9,7.6-10.6c0,0,0.1,0.1,0.1,0.1c1.7-2.7,3.2-5.4,4.6-8.2c8.5-17.1,11.8-36.5,9.4-55.4c-0.1-1-0.3-2-0.4-3
	c-0.1-0.5-0.2-1-0.2-1.5c0-0.2-0.1-0.3-0.1-0.5c-0.6-3.2-1.3-6.4-2.2-9.6c0,0,0-0.1,0-0.1l0.1,0l0.2,0.2v-0.1
	c4.5,2.8,7.6,7.1,9,12.2v0.1c0.3,1.1,1.1,2,2.1,2.5c0.2,0.1,0.5,0.2,0.8,0.3c0.4,0.1,0.8,0.2,1.2,0.2c0.4,0,0.8-0.1,1.2-0.2
	c1-0.3,1.9-1,2.4-1.8c4.1-6.5,5.5-13.4,5.5-20.2c0-2.1-0.1-4.1-0.3-6.2c0-0.1,0-0.3,0-0.4c0,0,0,0,0,0c6.4,6.8,11.7,14.4,15.8,22.8
	c0.5,1,1.3,1.8,2.4,2.1c0.7,0.2,1.4,0.3,2.1,0.1c2-0.4,3.4-2,3.6-4c0.3-3.4,0.4-6.7,0.4-10.1c0-9.9-1.1-19.7-3.4-29.4
	c0,0,0-0.1,0-0.1c0,0,0,0,0,0c6.9,2.8,12.7,7.9,16.4,14.5l0.1,0.1c0.6,0.9,1.4,1.5,2.3,1.8c1,0.3,2.2,0.3,3.3-0.3
	c1.3-0.7,2-2.1,2.1-3.6C684.7,127.1,684.6,126.6,684.4,126.1z M679.2,128.1c-4.9-8.8-13.3-15.2-23.2-17.5
	c3.8,14.3,5.3,29.1,4.2,43.9c-0.1,1.1-1.7,1.8-2.3,0.6c-5.6-11.4-13.4-21.5-22.9-29.9c2.5,12.1,3.1,23.5-3.3,33.6
	c-0.2,0.2-0.4,0.4-0.7,0.5c-0.7,0.2-1.4-0.1-1.6-0.8c-1.5-5.9-5.3-11-10.6-14.2l-0.4-0.2c-4.3-13-11.3-24.9-21.6-34.1
	c-10.5-9.5-23.9-15.2-37.6-18.6c-0.6-0.2-1.3-0.3-1.9-0.5c-10.5-2.5-21.2-3.5-31.9-3c-9-13.5-24.2-21.5-38.5-28.7
	c-1.2-0.6-0.6-2.3,0.6-2.3c17.4-0.8,35.8-0.3,50.5,9.7c-1-4.3-2.3-8.4-3.9-12.5c-3.7-9.3-9.2-17.9-16.1-25.3
	c-0.3-0.3-0.4-0.7-0.3-1.1c0.2-0.7,0.8-1.1,1.5-1c20.1,6.2,37.3,19.4,48.6,37.2c2.2-14.6,0-29.5-6.4-42.8c-0.4-0.5-0.3-1.2,0.2-1.6
	c0.5-0.5,1.3-0.4,1.8,0.1c15.4,13.8,29.9,30,34.1,50.8c19.3-10.9,41.6-15.2,63.6-12.3c1,0.1,1.9,1.7,0.6,2.3
	c-11.4,5.3-22,12.1-31.6,20.2c23.6,6.2,42.8,23.9,51.5,46.6C682.1,128.5,680,129.4,679.2,128.1z M383.5,580.3L383.5,580.3
	c-0.1-0.3-0.2-0.5-0.3-0.7c0-0.1-0.1-0.3-0.1-0.4c0,0,0,0-0.1,0c-4.4,0-8.7-0.3-13.1-0.1c0,0,0,0,0,0c0,0,0,0,0,0
	c3.5,0.5,7,1,10.5,1.5c0.1,0.4,0.1,0.8,0.2,1.2c0.5,2.9,0.7,5.8,0.5,8.7c0,0.7-0.1,1.3-0.2,2c0,0.1-0.2,0.9-0.4,1.6l-1.2,0.1H118.2
	l-0.2-1.5l-4.7-33.7c-4.1-29.6-8.2-59.1-12.3-88.7c-5-35.7-10-71.4-15-107.2c-4.4-31.2-8.8-62.4-13.2-93.6
	c-2.2-15.8-4.4-31.7-6.9-47.5c-0.5-2.2-0.5-4.5-0.2-6.8c0.6-3.5,2.6-6.6,5.5-8.5c1.5-0.8,2.9-0.9,4.6-1.2h0.1
	c0.5,1.1,0.9,2.1,1.2,3.2c2,7.2,3.7,14.5,5,21.8c5.5,27.2,9.9,54.5,14.3,81.9c5.6,35.1,11,70.2,16.3,105.4c4.8,32,9.5,64,14.1,96
	c2.6,17.4,5,34.8,7.5,52.3c0.1,0.8,0.2,1.6,0.3,2.4c0.2,0.8,1,1.4,1.8,1.4l15.5,0.4l10,0.2l16.9,0.4c0,0.8,0.2,1.7,0.2,2.2
	c1.1,3.8,3.8,5.9,7.1,6.8c-0.5-0.3-1.1-0.7-1.6-1.1c-1.2-0.9-1.8-2.1-2-3.3c-0.8-0.3-1.6-0.7-2.1-1.3c-0.9-0.9-1.4-2.1-1.4-3.4
	c-0.2-1.1-0.5-2.2-0.6-3.3v0.2h0l-0.2,0l-40.8-1c-0.1-0.4-0.1-0.7-0.1-1.1v-0.2c-2.4-17.3-4.9-34.9-7.5-52.3
	c-4.6-31.9-9.3-64.2-14.1-96c-5.2-35-10.7-70.5-16.3-105.4c-4.4-27.8-8.9-55-14.3-81.9c-1.3-7.4-3-14.8-5.1-22.1
	c-0.4-1.2-0.8-2.4-1.3-3.5l-0.9-1.8h-2.2l-0.3,0.1c-0.4,0.1-0.7,0.1-1,0.2c-1.3,0.2-2.9,0.5-4.5,1.4l-0.1,0.1
	c-2.4,1.5-4.2,3.7-5.4,6.1c-0.7,1.4-1.1,2.9-1.4,4.5c-0.2,1.3-0.3,2.6-0.2,3.9c0,0,0,0,0,0c0,1.3,0.2,2.6,0.4,3.8
	c2,12.6,3.8,25.5,5.5,37.9l1.3,9.5c4.4,31,8.9,62.5,13.2,93.6l15,107.2c4.1,29.6,8.2,59.1,12.3,88.7l4.7,33.8l0.5,4h263.8l3.5-0.2
	l0.1-0.3l0.7-2.9c0.1-0.4,0.2-0.6,0.2-0.6l0,0v-0.3c0-0.1,0-0.3,0.1-0.4c0.5-3.3,0.4-6.6-0.1-10C383.8,581.8,383.7,581,383.5,580.3z
	 M462.4,194.6C462.4,194.6,462.4,194.6,462.4,194.6c-5,0-9,4.1-8.9,9c0,5,4.1,9,9,8.9c3.4,0,6.3-1.9,7.9-4.7
	c0.7-1.3,1.1-2.8,1.1-4.3C471.5,198.6,467.5,194.6,462.4,194.6z M468,172.5c1.6,0.5,2.6-1.1,2.2-2.3c-0.1-0.6-0.5-1.1-1.2-1.3
	c-6.7-2.1-13.7-1.4-19.7,1.6c-3.3,1.7-6.2,4-8.6,7c-1.6,1.8,1.1,4.5,2.6,2.6C449.1,172.6,459,169.6,468,172.5z"/>
<g>
	<path class="st5" d="M402.8,508.7h0.1c1.2,1.3,3.7,1.3,4.1-0.9c11.4-71.2,36.8-139.4,74.9-200.6c5.7-9.2,11.8-18.3,19.1-26.1
		c1.1-1.1,2.2-2.3,3.3-3.3c2.5-2.4,5.1-4.7,7.8-6.9c0,0,0,0,0,0c6.8-5.6,14.2-10.6,21.7-15.2c12.8-8,27.8-13.7,43-15.4
		c1.8-0.2,3.7-0.3,5.5-0.4c1.4-0.1,2.7-0.1,4.1-0.1c4.1,0,8.3,0.4,12.4,1.1c0.8,0.1,1.5,0.3,2.3,0.4c3,0.6,6,1.5,8.9,2.6
		c4.1,1.5,8,3.4,11.8,5.6c13.7,8,25.5,20.1,34.6,32c8.6,11.3,15.6,23.8,21.6,36.7c4.1,8.7,7.7,17.6,11,26.6
		c8.6,23.5,15,47.8,19,72.5c0.3,2.1,0.6,4.1,0.9,6.2c0.1,0.6,0.2,1.3,0.3,1.9c0.2,1.5,0.4,2.9,0.6,4.4c0.1,0.7,0.2,1.4,0.3,2.1
		c0.2,1.5,0.4,3.1,0.5,4.6c0.1,0.5,0.1,1.1,0.2,1.6c0.4,4.3,0.8,8.6,1.1,13c0,0.1,0,0.1,0,0.2c0.5,6.7,0.8,13.4,0.9,20.2
		c0.2,10.9,0.1,21.8-0.4,32.8c0,0,0,0.1,0,0.1c-0.3,6.2-0.6,12.5-1,18.7c0,0.3,0,0.6-0.1,0.9c0,0.7-0.1,1.3-0.1,2
		c-1.4,18.9-4,37.6-10.2,55.6l-0.1,0.4l-0.8,2.4c-1.9,4.7-3.8,8.4-6,12.1c-0.2,0.4-0.5,0.8-0.7,1.3h2.9c0.3-0.6,0.7-1.2,1-1.8
		c0.2-0.3,0.4-0.7,0.6-1.1c1.5-2.7,2.9-5.5,4.2-8.4l0-0.1l0.2-0.4l0.7-1.9c0.2-0.5,0.4-1.1,0.6-1.6c0.1-0.1,0.1-0.3,0.2-0.4l0.2-0.4
		c8.8-25.8,10.5-52.7,11.6-78.2c0.9-23.1,0.3-45-1.8-65.6c0-0.2,0-0.4-0.1-0.6c-0.1-1.2-0.3-2.5-0.4-3.7c-0.1-0.5-0.1-1-0.2-1.5
		c-0.1-1-0.3-2.1-0.4-3.1c-0.1-0.7-0.2-1.3-0.3-2c-0.2-1.3-0.4-2.6-0.6-4c-0.1-0.4-0.1-0.8-0.2-1.1c-0.2-1.7-0.5-3.4-0.8-5
		c-4-24.9-10.5-49.4-19.1-73.1c-2.9-7.8-5.8-15-8.7-21.7c-7.4-16.8-15.3-30.6-24.3-42.4c-3.5-4.6-8.4-10.5-14.4-16.4
		c0.8,0.6,1.2,1,1.2,1c0,0-0.1-0.1-0.1-0.1c-7.5-9.6-17.1-16.2-25.7-20.5c-11-5.6-20.3-7.6-20.8-7.7c0,0,0,0,0,0l-0.6,0.4
		c0.1-0.1,0.2-0.3,0.4-0.4l0.2,0c0,0-0.1,0-0.2,0c0,0,0,0,0.1-0.1c0,0,0,0,0,0c-0.2,0-0.3,0-0.4-0.1c-0.6-0.1-1.5-0.3-2.8-0.6
		c-0.4-0.1-0.9-0.1-1.5-0.2c-1.2-0.2-2.6-0.3-4.2-0.4c-0.9-0.1-1.8-0.1-2.8-0.1c-1.2,0-2.5,0-3.8,0c-1.1,0-2.4,0.1-3.6,0.2
		c-0.8,0.1-1.6,0.1-2.4,0.2c-1.5,0.1-3,0.3-4.6,0.6c-0.1,0-0.2,0-0.3,0c-0.1,0-0.1,0-0.2,0c-0.4,0-0.7-0.1-1.1-0.2
		c-2.3,0.4-4.7,1-7.2,1.7c0.1,0.1,0.2,0.2,0.3,0.2c-0.3,0.1-0.7,0.2-1,0.3c-1.7,0.4-3.4,0.9-5.2,1.5c-1.5,0.4-2.9,0.9-4.4,1.4
		c-0.4,0.1-0.8,0.3-1.2,0.4c-11.6,4.1-22.2,10.9-32.4,17.9c-2.6,1.9-5.2,3.8-7.8,5.8c0,0.1,0,0.1,0,0.2c-0.9,0.7-2.2,1.6-3.7,2.8
		c-0.1,0.1-0.1,0.1-0.2,0.2c0,0,0,0,0,0c-3.7,3-8.6,7.6-12.7,13.5c-3,3.7-14.9,19.3-23,35.7c0,0,0,0,0,0
		c-31.8,54.1-53.9,112.6-65.6,174.1c0,0.1,0,0.2-0.1,0.3l-0.1-0.1c-8.8-9.5-18.5-18.1-28.9-25.7c0,0,0,0,0,0
		c-0.9,0.6-1.8,1.2-2.8,1.9c3.7,2.7,7.4,5.5,10.9,8.5c0.5,0.4,1,0.8,1.4,1.2c0.8,0.6,1.5,1.3,2.3,1.9c5.2,4.6,10.2,9.4,14.8,14.5
		l0,0.1c0,0,0.1,0.1,0.1,0.1c-0.6,3.4-1.2,6.8-1.8,10.2c-23.8-3.7-47.8-6.8-71.9-8.2c-1.5,1.8-3.2,3.4-5.2,4.6
		c6.3,0.3,12.5,0.7,18.8,1.3C364,503.1,383.4,505.7,402.8,508.7z"/>
	<path class="st5" d="M383.5,579.9l-0.2-0.9l0-0.1l-0.1-0.4c7.6,1,15.3,2,23.1,2.6l2.6,3.4l-0.1-0.1l0,0.2l0,0.1l0,0l-0.1,0.3
		l-0.6,2.1l-2.9,10.7h5.8l0.7-3.6l0.8-3.8l0.4-2.2l-0.1-0.1c0-0.1,0-0.1,0-0.2c0-0.1,0-0.1,0-0.2c0.2-1.2-0.1-2.4-0.9-3.5
		c16.6,0.9,33.1,0.2,49.3-3.7c7.8-1.9,15.4-4.6,22.5-8.3c9.2-4.8,17.4-11.2,23.9-19.5c12-15.4,18.7-34.9,23.8-53.6
		c12.1-44,15.3-93.8,46.8-129.5c1.8-2-0.4-4.8-2.4-4.2c-0.3,0.1-0.6,0.3-0.8,0.6c-24.5,27.6-32.9,64.1-40.5,99.2
		c-7.7,35.6-15.7,81.8-50.4,101.3c-5.7,3.2-11.5,5.7-17.5,7.6c-32.6,10.4-69.8,4-102.8-0.7c-6.3-0.9-12.5-1.7-18.8-2.5
		c-14.6-1.8-29.3-3.4-44-4.5c-0.2,0-0.4,0-0.5,0c0.2,1.5,0.4,3,0.6,4.5c9.1,0.7,18.2,1.6,27.3,2.5c13.7,1.4,27.5,3.6,41.5,5.7
		c0,0,0,0,0,0c4.4-0.2,8.7,0.1,13.1,0.1c0,0,0,0,0.1,0c0,0.1,0.1,0.2,0.1,0.4c0.1,0.2,0.2,0.4,0.3,0.6v0.1c0.2,0.7,0.3,1.5,0.4,2.2
		c0.5,3.3,0.6,6.7,0.1,10c0,0.1,0,0.3-0.1,0.4v0.3l0,0c0,0-0.1,0.2-0.2,0.6l-0.7,2.9l0.1,0l0.1,0l0.8-3.2c0.1-0.4,0.2-0.6,0.2-0.6
		v-0.3c0.4-3.3,0.3-6.7-0.1-10.1C383.8,581.6,383.7,580.8,383.5,579.9z"/>
</g>
<g>
	<path class="st6" d="M404.4,493.5L404.4,493.5c-4.6-5.2-9.6-10-14.8-14.6c-0.7-0.7-1.5-1.3-2.3-1.9c-0.5-0.4-0.9-0.8-1.4-1.2
		c-3.5-2.9-7.1-5.7-10.8-8.4c0,0-0.1,0.1-0.1,0.1c-5.8,4.2-10.7,9.4-14.8,15.4c-3.1,4.4-5.7,9.2-8,14.3c16.9,1.6,33.7,3.9,50.4,6.5
		C403.2,500.2,403.8,496.9,404.4,493.5z"/>
	<path class="st6" d="M466.7,574.1c6-1.9,11.9-4.4,17.5-7.6c34.7-19.5,42.7-65.7,50.4-101.3c7.6-35.1,16-71.6,40.5-99.2
		c0.3-0.3,0.5-0.5,0.8-0.6c2.1-0.9,4.6,2,2.7,4.1C547,405.2,543.8,455,531.7,499c-5.1,18.7-11.8,38.2-23.8,53.6
		c-6.5,8.4-14.8,14.8-24.1,19.6c-7.1,3.7-14.7,6.4-22.5,8.3c-16.2,3.9-32.7,4.6-49.3,3.7c0.8,1,1.1,2.3,0.9,3.5c0,0.1,0,0.1,0,0.2
		c0,0.1,0,0.1,0,0.2l0.1,0.1l-0.4,2.2l-0.8,3.8l-0.7,3.6h282.3c0.2-0.4,0.5-0.8,0.7-1.3c2.1-3.7,4.1-7.5,6-12.1l0.8-2.4l0.1-0.4
		c6.1-18,8.8-36.7,10.2-55.6c0-0.7,0.1-1.3,0.1-2c0-0.3,0-0.6,0.1-0.9c0.4-6.2,0.7-12.5,1-18.7c0,0,0-0.1,0-0.1
		c0.5-11,0.7-21.9,0.4-32.8c-0.4-18.1-1.8-36.1-4.7-54c-4-24.7-10.4-49-19-72.5c-3.3-9-6.9-17.9-11-26.6c-6-12.9-13-25.3-21.6-36.7
		c-9.1-11.9-20.9-24-34.6-32c-3.8-2.2-7.8-4.1-11.8-5.6c-2.9-1.1-5.9-1.9-8.9-2.6c-0.8-0.2-1.5-0.3-2.3-0.4
		c-4.1-0.7-8.2-1.1-12.4-1.1c-1.4,0-2.7,0-4.1,0.1c-1.8,0.1-3.7,0.2-5.5,0.4c-15.3,1.7-30.2,7.4-43,15.4
		c-7.5,4.6-14.8,9.6-21.7,15.2c0,0,0,0,0,0c-2.7,2.2-5.3,4.5-7.8,6.9c-1.1,1.1-2.2,2.2-3.3,3.3c-7.3,7.8-13.5,16.9-19.1,26.1
		c-38.1,61.2-63.5,129.4-74.9,200.6c-0.4,2.2-2.9,2.2-4.1,0.9h-0.1c-19.4-3-38.8-5.6-58.4-7.2c-6-0.5-12-0.9-18-1.2
		c-11.3,9.2-19.2,22-23.3,36.4c-0.8,2.8-1.4,5.5-1.9,8.3c-1.1,6.6-1.4,13.4-0.9,20.1c0,0.4,0,0.7,0.1,1.1l0.1,0l0.9,0.1
		c14.4,1.1,28.8,2.6,43.2,4.4c6.5,0.8,13.1,1.7,19.6,2.6C397,577.9,434.2,584.4,466.7,574.1z"/>
</g>
</svg>
