<svg xmlns="http://www.w3.org/2000/svg" viewBox="0 0 507.49 623.46"><defs><style>.\34 38895e6-7750-4679-bcd3-5a2fff2571a9,.cd061d68-c1da-4c04-a3a2-a9e15dac4950,.e63bc6bc-4bb2-4433-979b-8cde7a9b757b{fill:#efa78e;}.cd061d68-c1da-4c04-a3a2-a9e15dac4950{stroke:#f18a63;}.\34 38895e6-7750-4679-bcd3-5a2fff2571a9,.\34 4ca94c9-d15d-437c-9b0a-c4944fcc0be7,.\36 17c0b72-0cd8-4cc4-ada3-3ef8e4c394d9,.b7a4a300-9de5-4bba-9243-118fdceb0742,.cb3cabf3-eb41-41a5-870b-9ff62d79052e,.cd061d68-c1da-4c04-a3a2-a9e15dac4950{stroke-miterlimit:10;}.\34 38895e6-7750-4679-bcd3-5a2fff2571a9,.\34 4ca94c9-d15d-437c-9b0a-c4944fcc0be7,.\36 17c0b72-0cd8-4cc4-ada3-3ef8e4c394d9,.cb3cabf3-eb41-41a5-870b-9ff62d79052e,.cd061d68-c1da-4c04-a3a2-a9e15dac4950{stroke-width:4px;}.\35 7f29735-234c-4946-af7d-69daa671f065,.\36 17c0b72-0cd8-4cc4-ada3-3ef8e4c394d9,.b7a4a300-9de5-4bba-9243-118fdceb0742{fill:#324394;}.\36 17c0b72-0cd8-4cc4-ada3-3ef8e4c394d9,.b7a4a300-9de5-4bba-9243-118fdceb0742{stroke:#2c3a80;}.b7a4a300-9de5-4bba-9243-118fdceb0742{stroke-width:5px;}.cb3cabf3-eb41-41a5-870b-9ff62d79052e,.e9f88425-7a6b-47fb-92f6-e344f38d1bc3{fill:#f18a62;}.cb3cabf3-eb41-41a5-870b-9ff62d79052e{stroke:#f18a62;}.\34 38895e6-7750-4679-bcd3-5a2fff2571a9{stroke:#f18a61;}.\34 4ca94c9-d15d-437c-9b0a-c4944fcc0be7,.f9f20ad3-b724-491b-9615-14514fdb469b{fill:#e8464e;}.\34 4ca94c9-d15d-437c-9b0a-c4944fcc0be7{stroke:#d93b49;}.\33 2fce944-97b5-4add-811c-cad260a512b0{fill:#d93b49;}.\31 ce1c505-c27d-4a1e-a7fd-655c99d9ae3a{fill:#d83645;}.\37 dcd8c44-3ef9-46a0-9c39-b9a75ae82d5f{fill:#30468d;}</style></defs><title>Fichier 1</title><g id="be69ba89-c7c6-44b8-bf1b-703177ed0e31" data-name="Calque 2"><g id="f76d6277-4ca7-407a-849e-34c86a9d5914" data-name="Calque 1"><path class="cd061d68-c1da-4c04-a3a2-a9e15dac4950" d="M313,377.69c-2.14-7.56-5.29-15.74-10.42-21.82a61.07,61.07,0,0,0-17.71-13.79c-13.88-7.37-32.7-8.89-48.09-6.31,8.13,11.14,3.58,19.28-7.83,28-7.33,5.59-20.26,15.09-24.5,24-4.84,10.12.35,19.57,7.3,28.12.39.47-.26,1.63-.33,2.12.52.45,5.11,5,5.57,5.54,1.62,1.79.95,2.68-.67.89-4.13-4.55-12.09-8.41-16-.82-2.62,5-1.57,10.79,1.08,15.26a24.67,24.67,0,0,0,9,8.9,17.9,17.9,0,0,0,9,2.32c3.38-.08,9.36-2,7.27-6.67-1-2.19,2.26-4.09,3.24-1.89a7.55,7.55,0,0,1,0,6.93,87.47,87.47,0,0,0,52.08,2.67c16-4.19,27.31-13.59,31.85-29.68C317.67,407.43,316.9,391.58,313,377.69Zm-33.64-30.26a6.48,6.48,0,1,1-6.47,6.48A6.48,6.48,0,0,1,279.31,347.43Zm-22.4,8.44c9.5,3.15,23.22,5.26,29.72,13.69,5.41,7,3.63,16.15-5.47,18.11-2.36.5-3.35-3.11-1-3.62,6.06-1.3,7.29-6.34,4.22-11.22-2-3.2-5.34-5.13-8.71-6.6-6.34-2.75-13.2-4.57-19.76-6.75C253.63,358.73,254.62,355.11,256.91,355.87Zm-20.88,33a7.14,7.14,0,1,1,7.13-7.13A7.13,7.13,0,0,1,236,388.84Zm74.41,6.09c-3.91,12.48-14.27,20.59-27.14,22.26-13.87,1.8-30-.26-39.32-11.78-1.5-1.86,1.13-4.53,2.65-2.65,8,9.93,21.14,11.9,33.22,11,12.52-.91,23.11-7.52,27-19.84C307.55,391.64,311.17,392.62,310.44,394.93Z"/><path class="b7a4a300-9de5-4bba-9243-118fdceb0742" d="M198.67,419.64c.32-.31.65-.62,1-.92a10.75,10.75,0,0,1,12.69-1c-5.28-11.64-8.27-28.79,2.24-38,6.66-5.86,15.94-8,22.06-14.62,7.4-8,5.5-21.48-1.24-29.33-16,4.33-28.3,16.3-35.11,31.22-7.21,15.82-10.37,36.68-1.72,52.5A1,1,0,0,1,198.67,419.64Z"/><path class="cb3cabf3-eb41-41a5-870b-9ff62d79052e" d="M468,387.75c6.14-12.73,12.1-25.71,16.46-39.18,4.25-13.13,7.1-26.67,11.48-39.76a177.18,177.18,0,0,0,8.61-40.14c.61-6.58,1-13.24,1-19.86,0-5-.07-12.91-3.5-17.39a129.65,129.65,0,0,1-5.48,32.91c-.91,3.09-5.74,1.77-4.82-1.32a123,123,0,0,0,5.07-28.15,124.6,124.6,0,0,0,.06-12.82,38.31,38.31,0,0,0-.75-7.56,10.19,10.19,0,0,0-1.36-3.39q-2.28-3.81-6.11-.14a2.4,2.4,0,0,1-.78,1.25c2.07,15.41-1.26,31.57-4.21,46.54-.62,3.16-5.44,1.81-4.82-1.33,2.35-11.94,4.7-24,4.52-36.21-.08-5.57,0-13.28-2.83-18.27-4.08-7.12-10.85,5.57-11.54,9.2a3.06,3.06,0,0,1-.13.43c1.92,4.71,2.2,11.61,2.24,14.58.1,10.35-3.12,20.35-6.3,30.08-1,3-5.82,1.73-4.82-1.33,2.49-7.62,5.11-15.38,5.88-23.41a44,44,0,0,0-.32-11.74,33.55,33.55,0,0,0-1.31-5.13c-.76-2.19-.46-2.75-2.34-1.88-2.56,1.19-3.64,6.05-4.4,8.47-1,3.29-2,6.61-2.92,9.92-2.05,7.24-3.9,14.54-5.6,21.87,0,0,0,.1-.05.15,4.58,5.76,5.4,13.64,5.3,20.82,0,3.22-5,3.21-5,0,.08-5.91-.28-12.1-3.82-17.07-1.72-2.42-4.08-4.57-7.21-4.14-4.5.6-3.94,5.58-3.28,8.94,1.72,8.72,3.31,17,2.1,26-1.13,8.37-4.86,16.46-7.67,24.38-3.06,8.63-6.47,17.13-10,25.58-6.38,15.24-13.1,29.91-23.65,42.78-21.07,25.69-51,41.76-82,52.45a2.46,2.46,0,0,1-1.08.13c-15.82,27.19-57.82,27.72-84.33,17.85a1.94,1.94,0,0,1-.88-.65,14.12,14.12,0,0,1-8.07,2.61c-8.65.14-16.24-5.35-20.76-12.39a24.21,24.21,0,0,1-3.17-7.51,2.27,2.27,0,0,1-1.45,0c-18.33-6.33-36.19-14.34-52.19-25.39A143,143,0,0,1,108.46,377c-10.31-13.7-16.69-29.62-23.1-45.4-3.44-8.46-6.53-17-9.54-25.64-2.73-7.79-5.54-15-5.71-23.34A67.44,67.44,0,0,1,71,270.35c.6-3.73,2.93-9,2-12.73-2.13-8.54-10.16-1.77-12.36,2.75S58.3,270,58.37,275c0,3.22-5,3.21-5,0-.09-7,.74-15.22,5.29-20.87a1,1,0,0,0,0-.1c-1.7-7.33-3.55-14.63-5.6-21.87-1-3.61-2.05-7.24-3.2-10.82-.74-2.29-1.75-6.34-4.12-7.57s-1.85.33-2.6,2.72a34,34,0,0,0-1.24,5.71,45.1,45.1,0,0,0-.13,10.32c.78,8,3.39,15.78,5.88,23.41,1,3.07-3.82,4.37-4.82,1.33-3.27-10-6.58-20.31-6.27-31,.09-2.86.42-9.22,2.22-13.67-.05-.14-.1-.29-.14-.45-.8-4.27-8-16.7-11.89-8.3-2.34,5.12-2.4,11.84-2.48,17.37-.18,12.22,2.17,24.27,4.52,36.21.62,3.15-4.2,4.48-4.82,1.33-2.95-15-6.28-31.13-4.2-46.54a2.36,2.36,0,0,1-.79-1.25q-3.83-3.67-6.1.14a10,10,0,0,0-1.37,3.39,39.87,39.87,0,0,0-.75,7.56,119.58,119.58,0,0,0,5.13,41c.92,3.09-3.91,4.4-4.82,1.32a129.14,129.14,0,0,1-5.47-33c-4.13,5.22-3.59,15.2-3.47,21,.15,7.27.63,14.54,1.5,21.75,1.9,15.81,7,30.26,11.34,45.46,3.78,13.31,6.92,26.78,12,39.67,5.2,13.15,11.21,26,17.6,38.58,12.51,24.72,26.5,48.65,39.54,73.08,25.45,47.67,45.08,97.94,57.5,150.56H365.94a600.54,600.54,0,0,1,27.51-86.89C414.08,483.43,444.06,437.27,468,387.75ZM254.51,572.38c-3.15.49-4.5-4.33-1.33-4.83,13.6-2.13,19.71-16.26,17.14-28.82-2.94-14.34-23.31-14.5-34-10.27-3,1.18-4.29-3.65-1.33-4.82,13.44-5.32,36.49-3.25,40.17,13.77C278.37,552.36,270.77,569.83,254.51,572.38Zm75.29-7.89c-3.15.49-4.5-4.33-1.33-4.82,13.6-2.13,19.71-16.26,17.13-28.82-2.93-14.35-23.31-14.51-34-10.28-3,1.19-4.29-3.65-1.33-4.82,13.44-5.31,36.48-3.25,40.17,13.77C353.66,544.48,346.06,561.94,329.8,564.49Z"/><path class="438895e6-7750-4679-bcd3-5a2fff2571a9" d="M3.59,274.11c1.52,12.66,5.1,24.44,8.69,36.44a194.48,194.48,0,0,0,42.18-6.46c6.32-1.67,12.56-3.56,18.76-5.59a53.25,53.25,0,0,1-3.11-15.86A67.44,67.44,0,0,1,71,270.35c.6-3.73,2.93-9,2-12.73-2.13-8.54-10.16-1.77-12.36,2.75S58.3,270,58.37,275c0,3.22-5,3.21-5,0-.09-7,.74-15.22,5.29-20.87a1,1,0,0,0,0-.1c-1.7-7.33-3.55-14.63-5.6-21.87-1-3.61-2.05-7.24-3.2-10.82-.74-2.29-1.75-6.34-4.12-7.57s-1.85.33-2.6,2.72a34,34,0,0,0-1.24,5.71,45.1,45.1,0,0,0-.13,10.32c.78,8,3.39,15.78,5.88,23.41,1,3.07-3.82,4.37-4.82,1.33-3.27-10-6.58-20.31-6.27-31,.09-2.86.42-9.22,2.22-13.67-.05-.14-.1-.29-.14-.45-.8-4.27-8-16.7-11.89-8.3-2.34,5.12-2.4,11.84-2.48,17.37-.18,12.22,2.17,24.27,4.52,36.21.62,3.15-4.2,4.48-4.82,1.33-2.95-15-6.28-31.13-4.2-46.54a2.36,2.36,0,0,1-.79-1.25q-3.83-3.67-6.1.14a10,10,0,0,0-1.37,3.39,39.87,39.87,0,0,0-.75,7.56,119.58,119.58,0,0,0,5.13,41c.92,3.09-3.91,4.4-4.82,1.32a129.14,129.14,0,0,1-5.47-33c-4.13,5.22-3.59,15.2-3.47,21C2.24,259.63,2.72,266.9,3.59,274.11Z"/><path class="44ca94c9-d15d-437c-9b0a-c4944fcc0be7" d="M432.67,304c-.92,2.41-2.54,6.67-3.39,9-3.06,8.63-6.47,17.13-10,25.58-6.38,15.24-13.1,29.91-23.65,42.78-21.07,25.69-51,41.76-82,52.45a2.46,2.46,0,0,1-1.08.13c-15.82,27.19-57.82,27.72-84.33,17.85a1.94,1.94,0,0,1-.88-.65,14.12,14.12,0,0,1-8.07,2.61c-8.65.14-16.24-5.35-20.76-12.39a24.21,24.21,0,0,1-3.17-7.51,2.27,2.27,0,0,1-1.45,0c-18.33-6.33-36.19-14.34-52.19-25.39A143,143,0,0,1,108.46,377c-10.31-13.7-16.69-29.62-23.1-45.4-3.18-7.82-6-15.73-8.85-23.68-7.46,2.46-15,4.71-22.61,6.62a199.9,199.9,0,0,1-38.75,5.83c3.69,13,6.8,26.22,11.8,38.85,5.2,13.15,11.21,26,17.6,38.58,12.51,24.72,26.5,48.65,39.54,73.08,25.45,47.67,45.08,97.94,57.5,150.56H365.94a600.54,600.54,0,0,1,27.51-86.89c20.63-51.14,50.61-97.3,74.52-146.82,6.14-12.73,12.1-25.71,16.46-39.18,2.73-8.43,4.89-17,7.24-25.59C471.14,319.87,451.79,312.17,432.67,304ZM254.51,572.38c-3.15.49-4.5-4.33-1.33-4.83,13.6-2.13,19.71-16.26,17.14-28.82-2.94-14.34-23.31-14.5-34-10.27-3,1.18-4.29-3.65-1.33-4.82,13.44-5.32,36.49-3.25,40.17,13.77C278.37,552.36,270.77,569.83,254.51,572.38Zm75.29-7.89c-3.15.49-4.5-4.33-1.33-4.82,13.6-2.13,19.71-16.26,17.13-28.82-2.93-14.35-23.31-14.51-34-10.28-3,1.19-4.29-3.65-1.33-4.82,13.44-5.31,36.48-3.25,40.17,13.77C353.66,544.48,346.06,561.94,329.8,564.49Z"/><path class="f9f20ad3-b724-491b-9615-14514fdb469b" d="M312.74,434a5.4,5.4,0,0,1-1,.1,5.62,5.62,0,0,1-1.47-.2c-16.07,26-57,25.12-81.31,16.09l-1.21-1.59-1.59,1.2a12.29,12.29,0,0,1-6.9,2.21c-7.25.14-14.35-4.17-19.05-11.47a22.2,22.2,0,0,1-2.9-6.88l-.06-.25a4.73,4.73,0,0,1-2.88.89,4.54,4.54,0,0,1-.65,0c1.79,14.18,9.6,26.93,22.27,34.13,12.08,6.86,26.43,9,40.11,9.53,13.29.54,27.35.33,39.94-4.43,5.84-2.21,11.47-5.71,15.13-10.88,4.83-6.81,5.59-15.45,5-23.57A4.77,4.77,0,0,1,312.74,434Z"/><path class="32fce944-97b5-4add-811c-cad260a512b0" d="M492,321c-20.58-3.11-40.19-11-58.52-18.83l-1.91-.81-1.16,3c-.95,2.5-2.25,5.92-3,8-2.66,7.48-5.82,15.58-10,25.48-6,14.26-12.68,29.27-23.35,42.28C377,401,352.66,417.22,320,429.45a4.58,4.58,0,0,1,3.09,3.47,5,5,0,0,1,3,4.25c1.48,16.48-3.5,32.45-18.12,41.38-10.64,6.5-23.62,8.58-35.88,9.12A155.4,155.4,0,0,1,234,485.14c-12.4-2.55-24.69-7.55-34-16.4-9.94-9.49-15.5-23-16.52-36.58a5.18,5.18,0,0,1-1.43-3.49v-.75a5.51,5.51,0,0,1,.06-.57,196.56,196.56,0,0,1-39.27-20.52,140.67,140.67,0,0,1-32.79-31c-10-13.28-16.36-29-22.53-44.17l-.32-.78c-3.39-8.36-6.36-16.62-8.82-23.6l-.65-1.85-1.86.62c-8.1,2.67-15.45,4.82-22.46,6.58a198.51,198.51,0,0,1-38.37,5.77l-2.5.13.68,2.41c.84,3,1.66,6,2.47,9,2.7,9.95,5.5,20.23,9.39,30.07,4.68,11.81,10.46,24.49,17.67,38.75,7.65,15.1,16,30.15,24,44.69,5.14,9.29,10.45,18.9,15.53,28.42,26.05,48.8,45.34,99.29,57.33,150.08l.36,1.54H367.52l.36-1.54a602.46,602.46,0,0,1,27.42-86.6c12.43-30.8,28.55-60.32,44.14-88.88,10.25-18.77,20.84-38.17,30.33-57.82,6-12.41,12.14-25.77,16.56-39.43,2.06-6.34,3.81-12.87,5.51-19.17q.87-3.25,1.76-6.51l.6-2.17Zm-223,240a21.59,21.59,0,0,1-14.72,9.42.6.6,0,0,1-.61-.23,1.55,1.55,0,0,1-.26-.59s0,0,.16-.05a21.5,21.5,0,0,0,14.66-9.21,29,29,0,0,0,4.12-22,16.08,16.08,0,0,0-8.45-11.17,29.82,29.82,0,0,0-14-3.11,40,40,0,0,0-14.23,2.55l-.12,0a1,1,0,0,1-.14-.65.58.58,0,0,1,.4-.5c7.69-3,20-3.72,28.55.86a16.62,16.62,0,0,1,8.93,11.47A30.26,30.26,0,0,1,268.92,561Zm75.29-7.89a21.58,21.58,0,0,1-14.72,9.42.58.58,0,0,1-.61-.23,1.9,1.9,0,0,1-.27-.59.69.69,0,0,1,.17-.05,21.5,21.5,0,0,0,14.66-9.21,29,29,0,0,0,4.12-22,16.08,16.08,0,0,0-8.45-11.18,29.82,29.82,0,0,0-14-3.11,40,40,0,0,0-14.23,2.55l-.12,0a.94.94,0,0,1-.14-.65.58.58,0,0,1,.4-.5c7.69-3,20-3.72,28.55.87a16.61,16.61,0,0,1,8.93,11.46A30.3,30.3,0,0,1,344.21,553.09Z"/><path class="438895e6-7750-4679-bcd3-5a2fff2571a9" d="M437,288.67a51.53,51.53,0,0,1-1.72,7.8,233.36,233.36,0,0,0,59.24,16.85c.47-1.51.94-3,1.44-4.51a177.18,177.18,0,0,0,8.61-40.14c.61-6.58,1-13.24,1-19.86,0-5-.07-12.91-3.5-17.39a129.65,129.65,0,0,1-5.48,32.91c-.91,3.09-5.74,1.77-4.82-1.32a123,123,0,0,0,5.07-28.15,124.6,124.6,0,0,0,.06-12.82,38.31,38.31,0,0,0-.75-7.56,10.19,10.19,0,0,0-1.36-3.39q-2.28-3.81-6.11-.14a2.4,2.4,0,0,1-.78,1.25c2.07,15.41-1.26,31.57-4.21,46.54-.62,3.16-5.44,1.81-4.82-1.33,2.35-11.94,4.7-24,4.52-36.21-.08-5.57,0-13.28-2.83-18.27-4.08-7.12-10.85,5.57-11.54,9.2a3.06,3.06,0,0,1-.13.43c1.92,4.71,2.2,11.61,2.24,14.58.1,10.35-3.12,20.35-6.3,30.08-1,3-5.82,1.73-4.82-1.33,2.49-7.62,5.11-15.38,5.88-23.41a44,44,0,0,0-.32-11.74,33.55,33.55,0,0,0-1.31-5.13c-.76-2.19-.46-2.75-2.34-1.88-2.56,1.19-3.64,6.05-4.4,8.47-1,3.29-2,6.61-2.92,9.92-2.05,7.24-3.9,14.54-5.6,21.87,0,0,0,.1-.05.15,4.58,5.76,5.4,13.64,5.3,20.82,0,3.22-5,3.21-5,0,.08-5.91-.28-12.1-3.82-17.07-1.72-2.42-4.08-4.57-7.21-4.14-4.5.6-3.94,5.58-3.28,8.94C436.57,271.41,438.16,279.73,437,288.67Z"/><path class="617c0b72-0cd8-4cc4-ada3-3ef8e4c394d9" d="M233.78,332.33c1.69-7.15,6-12.9,11-18.17a54,54,0,0,0-28.41,16.3,1.89,1.89,0,0,1-3.14-.82c-2.61-15.54,2.67-30.14,9.71-43.73-17.49,8.59-35.94,20.95-36.54,42.28a1.89,1.89,0,0,1-1.87,1.87A71.59,71.59,0,0,0,163,331.83a44.87,44.87,0,0,1,10.17,4.67,1.9,1.9,0,0,1,0,3.24c-13.22,8.84-20.59,23.53-22.46,39a46.27,46.27,0,0,1,21.22-15.39c1.66-.6,2.79,1.42,2.12,2.75a51.4,51.4,0,0,0-5.45,23c4.28-6.86,11.25-11.74,18.08-16.21a1.89,1.89,0,0,1,2.82,1.62,64.9,64.9,0,0,0,.08,10.25c.27-.6.53-1.2.78-1.81a2,2,0,0,1,1.13-1.1,85.63,85.63,0,0,1,4.94-15.21C203.4,350.41,216.64,337.2,233.78,332.33Z"/><path class="e9f88425-7a6b-47fb-92f6-e344f38d1bc3" d="M255.91,359.48c6.56,2.18,13.42,4,19.76,6.75,3.37,1.47,6.69,3.4,8.71,6.6,3.07,4.88,1.84,9.92-4.22,11.22-2.35.51-1.36,4.12,1,3.62,9.1-2,10.88-11.1,5.47-18.11-6.5-8.43-20.22-10.54-29.72-13.69C254.62,355.11,253.63,358.73,255.91,359.48Z"/><circle class="e63bc6bc-4bb2-4433-979b-8cde7a9b757b" cx="236.03" cy="381.71" r="7.13" transform="translate(-81.38 64.44) rotate(-13.28)"/><circle class="57f29735-234c-4946-af7d-69daa671f065" cx="279.31" cy="353.91" r="6.48" transform="translate(-168.44 301.16) rotate(-45)"/><path class="1ce1c505-c27d-4a1e-a7fd-655c99d9ae3a" d="M235,523.64c-3,1.17-1.67,6,1.33,4.82,10.71-4.23,31.08-4.07,34,10.27,2.57,12.56-3.54,26.69-17.14,28.82-3.17.5-1.82,5.32,1.33,4.83,16.26-2.55,23.86-20,20.63-35C271.46,520.39,248.41,518.32,235,523.64Z"/><path class="1ce1c505-c27d-4a1e-a7fd-655c99d9ae3a" d="M310.26,515.75c-3,1.17-1.67,6,1.33,4.82,10.7-4.23,31.08-4.07,34,10.28,2.58,12.56-3.53,26.69-17.13,28.82-3.17.49-1.82,5.31,1.33,4.82,16.26-2.55,23.86-20,20.63-35C346.74,512.5,323.7,510.44,310.26,515.75Z"/><path class="e9f88425-7a6b-47fb-92f6-e344f38d1bc3" d="M202.35,431a143.56,143.56,0,0,0,16.16,10.82c2.09,1.21,4-2,1.89-3.24a143.56,143.56,0,0,1-16.16-10.82c-1.91-1.47-3.78,1.79-1.89,3.24Z"/><path class="e9f88425-7a6b-47fb-92f6-e344f38d1bc3" d="M210.49,427.08q-.17,8.13-.66,16.25c-.15,2.41,3.6,2.4,3.75,0q.49-8.11.66-16.25c.06-2.41-3.69-2.41-3.75,0Z"/><path class="e9f88425-7a6b-47fb-92f6-e344f38d1bc3" d="M306.83,393.94c-3.87,12.32-14.46,18.93-27,19.84-12.08.88-25.21-1.09-33.22-11-1.52-1.88-4.15.79-2.65,2.65,9.29,11.52,25.45,13.58,39.32,11.78,12.87-1.67,23.23-9.78,27.14-22.26C311.17,392.62,307.55,391.64,306.83,393.94Z"/><path class="7dcd8c44-3ef9-46a0-9c39-b9a75ae82d5f" d="M254.5,345.12c-.48-3.26,1.26-6.56,3.81-8.65a20.43,20.43,0,0,1,9-3.82"/><path class="7dcd8c44-3ef9-46a0-9c39-b9a75ae82d5f" d="M231,384.9a24.38,24.38,0,0,1,1.18-5.47,15.19,15.19,0,0,1,1-2.27,12.16,12.16,0,0,1,5.75-5,20.94,20.94,0,0,1,7.55-1.62"/><circle class="57f29735-234c-4946-af7d-69daa671f065" cx="245.87" cy="386.31" r="7.13" transform="translate(-82.18 66.82) rotate(-13.28)"/><path class="57f29735-234c-4946-af7d-69daa671f065" d="M198.67,419.64c.32-.31.65-.62,1-.92a12.21,12.21,0,0,1,11.53-1.89c-6.48-11.53-7.11-27.86,3.4-37.11,6.66-5.86,15.94-8,22.06-14.62,7.4-8,5.5-21.48-1.24-29.33-16,4.33-28.3,16.3-35.11,31.22-7.21,15.82-10.37,36.68-1.72,52.5A1,1,0,0,1,198.67,419.64Z"/><path class="e9f88425-7a6b-47fb-92f6-e344f38d1bc3" d="M468,387.75c6.14-12.73,12.1-25.71,16.46-39.18,4.25-13.13,7.1-26.67,11.48-39.76a177.18,177.18,0,0,0,8.61-40.14c.61-6.58,1-13.24,1-19.86,0-5-.07-12.91-3.5-17.39a129.65,129.65,0,0,1-5.48,32.91c-.91,3.09-5.74,1.77-4.82-1.32a123,123,0,0,0,5.07-28.15,124.6,124.6,0,0,0,.06-12.82,38.31,38.31,0,0,0-.75-7.56,10.19,10.19,0,0,0-1.36-3.39q-2.28-3.81-6.11-.14a2.4,2.4,0,0,1-.78,1.25c2.07,15.41-1.26,31.57-4.21,46.54-.62,3.16-5.44,1.81-4.82-1.33,2.35-11.94,4.7-24,4.52-36.21-.08-5.57,0-13.28-2.83-18.27-4.08-7.12-10.85,5.57-11.54,9.2a3.06,3.06,0,0,1-.13.43c1.92,4.71,2.2,11.61,2.24,14.58.1,10.35-3.12,20.35-6.3,30.08-1,3-5.82,1.73-4.82-1.33,2.49-7.62,5.11-15.38,5.88-23.41a44,44,0,0,0-.32-11.74,33.55,33.55,0,0,0-1.31-5.13c-.76-2.19-.46-2.75-2.34-1.88-2.56,1.19-3.64,6.05-4.4,8.47-1,3.29-2,6.61-2.92,9.92-2.05,7.24-3.9,14.54-5.6,21.87,0,0,0,.1-.05.15,4.58,5.76,5.4,13.64,5.3,20.82,0,3.22-5,3.21-5,0,.08-5.91-.28-12.1-3.82-17.07-1.72-2.42-4.08-4.57-7.21-4.14-4.5.6-3.94,5.58-3.28,8.94,1.72,8.72,3.31,17,2.1,26-1.13,8.37-4.86,16.46-7.67,24.38-3.06,8.63-6.47,17.13-10,25.58-6.38,15.24-13.1,29.91-23.65,42.78-21.07,25.69-51,41.76-82,52.45a2.46,2.46,0,0,1-1.08.13c-15.82,27.19-57.82,27.72-84.33,17.85a1.94,1.94,0,0,1-.88-.65,14.12,14.12,0,0,1-8.07,2.61c-8.65.14-16.24-5.35-20.76-12.39a24.21,24.21,0,0,1-3.17-7.51,2.27,2.27,0,0,1-1.45,0c-18.33-6.33-36.19-14.34-52.19-25.39A143,143,0,0,1,108.46,377c-10.31-13.7-16.69-29.62-23.1-45.4-3.44-8.46-6.53-17-9.54-25.64-2.73-7.79-5.54-15-5.71-23.34A67.44,67.44,0,0,1,71,270.35c.6-3.73,2.93-9,2-12.73-2.13-8.54-10.16-1.77-12.36,2.75S58.3,270,58.37,275c0,3.22-5,3.21-5,0-.09-7,.74-15.22,5.29-20.87a1,1,0,0,0,0-.1c-1.7-7.33-3.55-14.63-5.6-21.87-1-3.61-2.05-7.24-3.2-10.82-.74-2.29-1.75-6.34-4.12-7.57s-1.85.33-2.6,2.72a34,34,0,0,0-1.24,5.71,45.1,45.1,0,0,0-.13,10.32c.78,8,3.39,15.78,5.88,23.41,1,3.07-3.82,4.37-4.82,1.33-3.27-10-6.58-20.31-6.27-31,.09-2.86.42-9.22,2.22-13.67-.05-.14-.1-.29-.14-.45-.8-4.27-8-16.7-11.89-8.3-2.34,5.12-2.4,11.84-2.48,17.37-.18,12.22,2.17,24.27,4.52,36.21.62,3.15-4.2,4.48-4.82,1.33-2.95-15-6.28-31.13-4.2-46.54a2.36,2.36,0,0,1-.79-1.25q-3.83-3.67-6.1.14a10,10,0,0,0-1.37,3.39,39.87,39.87,0,0,0-.75,7.56,119.58,119.58,0,0,0,5.13,41c.92,3.09-3.91,4.4-4.82,1.32a129.14,129.14,0,0,1-5.47-33c-4.13,5.22-3.59,15.2-3.47,21,.15,7.27.63,14.54,1.5,21.75,1.9,15.81,7,30.26,11.34,45.46,3.78,13.31,6.92,26.78,12,39.67,5.2,13.15,11.21,26,17.6,38.58,12.51,24.72,26.5,48.65,39.54,73.08,25.45,47.67,45.08,97.94,57.5,150.56H365.94a600.54,600.54,0,0,1,27.51-86.89C414.08,483.43,444.06,437.27,468,387.75ZM254.51,572.38c-3.15.49-4.5-4.33-1.33-4.83,13.6-2.13,19.71-16.26,17.14-28.82-2.94-14.34-23.31-14.5-34-10.27-3,1.18-4.29-3.65-1.33-4.82,13.44-5.32,36.49-3.25,40.17,13.77C278.37,552.36,270.77,569.83,254.51,572.38Zm75.29-7.89c-3.15.49-4.5-4.33-1.33-4.82,13.6-2.13,19.71-16.26,17.13-28.82-2.93-14.35-23.31-14.51-34-10.28-3,1.19-4.29-3.65-1.33-4.82,13.44-5.31,36.48-3.25,40.17,13.77C353.66,544.48,346.06,561.94,329.8,564.49Z"/><path class="e63bc6bc-4bb2-4433-979b-8cde7a9b757b" d="M3.59,274.11c1.52,12.66,5.1,24.44,8.69,36.44a194.48,194.48,0,0,0,42.18-6.46c6.32-1.67,12.56-3.56,18.76-5.59a53.25,53.25,0,0,1-3.11-15.86A67.44,67.44,0,0,1,71,270.35c.6-3.73,2.93-9,2-12.73-2.13-8.54-10.16-1.77-12.36,2.75S58.3,270,58.37,275c0,3.22-5,3.21-5,0-.09-7,.74-15.22,5.29-20.87a1,1,0,0,0,0-.1c-1.7-7.33-3.55-14.63-5.6-21.87-1-3.61-2.05-7.24-3.2-10.82-.74-2.29-1.75-6.34-4.12-7.57s-1.85.33-2.6,2.72a34,34,0,0,0-1.24,5.71,45.1,45.1,0,0,0-.13,10.32c.78,8,3.39,15.78,5.88,23.41,1,3.07-3.82,4.37-4.82,1.33-3.27-10-6.58-20.31-6.27-31,.09-2.86.42-9.22,2.22-13.67-.05-.14-.1-.29-.14-.45-.8-4.27-8-16.7-11.89-8.3-2.34,5.12-2.4,11.84-2.48,17.37-.18,12.22,2.17,24.27,4.52,36.21.62,3.15-4.2,4.48-4.82,1.33-2.95-15-6.28-31.13-4.2-46.54a2.36,2.36,0,0,1-.79-1.25q-3.83-3.67-6.1.14a10,10,0,0,0-1.37,3.39,39.87,39.87,0,0,0-.75,7.56,119.58,119.58,0,0,0,5.13,41c.92,3.09-3.91,4.4-4.82,1.32a129.14,129.14,0,0,1-5.47-33c-4.13,5.22-3.59,15.2-3.47,21C2.24,259.63,2.72,266.9,3.59,274.11Z"/><path class="f9f20ad3-b724-491b-9615-14514fdb469b" d="M433.31,302.26c-.91,2.4-3.18,8.42-4,10.79-3.06,8.63-6.47,17.13-10,25.58-6.38,15.24-13.1,29.91-23.65,42.78-21.07,25.69-51,41.76-82,52.45a2.46,2.46,0,0,1-1.08.13c-15.82,27.19-57.82,27.72-84.33,17.85a1.94,1.94,0,0,1-.88-.65,14.12,14.12,0,0,1-8.07,2.61c-8.65.14-16.24-5.35-20.76-12.39a24.21,24.21,0,0,1-3.17-7.51,2.27,2.27,0,0,1-1.45,0c-18.33-6.33-36.19-14.34-52.19-25.39A143,143,0,0,1,108.46,377c-10.31-13.7-16.69-29.62-23.1-45.4-3.18-7.82-6.74-17.68-9.54-25.64-6.92,3.48-13.42,6.61-21.92,8.58-12.88,3-26.3,3.28-39.28,3.93,3.68,13,7.33,28.12,12.33,40.75,5.2,13.15,11.21,26,17.6,38.58,12.51,24.72,26.5,48.65,39.54,73.08,25.45,47.67,45.08,97.94,57.5,150.56H365.94a600.54,600.54,0,0,1,27.51-86.89c20.63-51.14,50.61-97.3,74.52-146.82,6.14-12.73,12.1-25.71,16.46-39.18,2.73-8.43,5.43-19,7.78-27.53C471.68,317.93,452.43,310.42,433.31,302.26ZM254.51,572.38c-3.15.49-4.5-4.33-1.33-4.83,13.6-2.13,19.71-16.26,17.14-28.82-2.94-14.34-23.31-14.5-34-10.27-3,1.18-4.29-3.65-1.33-4.82,13.44-5.32,36.49-3.25,40.17,13.77C278.37,552.36,270.77,569.83,254.51,572.38Zm75.29-7.89c-3.15.49-4.5-4.33-1.33-4.82,13.6-2.13,19.71-16.26,17.13-28.82-2.93-14.35-23.31-14.51-34-10.28-3,1.19-4.29-3.65-1.33-4.82,13.44-5.31,36.48-3.25,40.17,13.77C353.66,544.48,346.06,561.94,329.8,564.49Z"/><path class="f9f20ad3-b724-491b-9615-14514fdb469b" d="M433.31,302.26c-.91,2.4-3.18,8.42-4,10.79-3.06,8.63-6.47,17.13-10,25.58-6.38,15.24-13.1,29.91-23.65,42.78-21.07,25.69-51,41.76-82,52.45a2.46,2.46,0,0,1-1.08.13c-15.82,27.19-57.82,27.72-84.33,17.85a1.94,1.94,0,0,1-.88-.65,14.12,14.12,0,0,1-8.07,2.61c-8.65.14-16.24-5.35-20.76-12.39a24.21,24.21,0,0,1-3.17-7.51,2.27,2.27,0,0,1-1.45,0c-18.33-6.33-36.19-14.34-52.19-25.39A143,143,0,0,1,108.46,377c-10.31-13.7-16.69-29.62-23.1-45.4-3.18-7.82-6.74-17.68-9.54-25.64-6.92,3.48-13.42,6.61-21.92,8.58-12.88,3-26.3,3.28-39.28,3.93,3.68,13,7.33,28.12,12.33,40.75,5.2,13.15,11.21,26,17.6,38.58,12.51,24.72,26.5,48.65,39.54,73.08,25.45,47.67,45.08,97.94,57.5,150.56H365.94a600.54,600.54,0,0,1,27.51-86.89c20.63-51.14,50.61-97.3,74.52-146.82,6.14-12.73,12.1-25.71,16.46-39.18,2.73-8.43,5.43-19,7.78-27.53C471.68,317.93,452.43,310.42,433.31,302.26ZM254.51,572.38c-3.15.49-4.5-4.33-1.33-4.83,13.6-2.13,19.71-16.26,17.14-28.82-2.94-14.34-23.31-14.5-34-10.27-3,1.18-4.29-3.65-1.33-4.82,13.44-5.32,36.49-3.25,40.17,13.77C278.37,552.36,270.77,569.83,254.51,572.38Zm75.29-7.89c-3.15.49-4.5-4.33-1.33-4.82,13.6-2.13,19.71-16.26,17.13-28.82-2.93-14.35-23.31-14.51-34-10.28-3,1.19-4.29-3.65-1.33-4.82,13.44-5.31,36.48-3.25,40.17,13.77C353.66,544.48,346.06,561.94,329.8,564.49Z"/><path class="e63bc6bc-4bb2-4433-979b-8cde7a9b757b" d="M437,288.67a51.53,51.53,0,0,1-1.72,7.8,233.36,233.36,0,0,0,59.24,16.85c.47-1.51.94-3,1.44-4.51a177.18,177.18,0,0,0,8.61-40.14c.61-6.58,1-13.24,1-19.86,0-5-.07-12.91-3.5-17.39a129.65,129.65,0,0,1-5.48,32.91c-.91,3.09-5.74,1.77-4.82-1.32a123,123,0,0,0,5.07-28.15,124.6,124.6,0,0,0,.06-12.82,38.31,38.31,0,0,0-.75-7.56,10.19,10.19,0,0,0-1.36-3.39q-2.28-3.81-6.11-.14a2.4,2.4,0,0,1-.78,1.25c2.07,15.41-1.26,31.57-4.21,46.54-.62,3.16-5.44,1.81-4.82-1.33,2.35-11.94,4.7-24,4.52-36.21-.08-5.57,0-13.28-2.83-18.27-4.08-7.12-10.85,5.57-11.54,9.2a3.06,3.06,0,0,1-.13.43c1.92,4.71,2.2,11.61,2.24,14.58.1,10.35-3.12,20.35-6.3,30.08-1,3-5.82,1.73-4.82-1.33,2.49-7.62,5.11-15.38,5.88-23.41a44,44,0,0,0-.32-11.74,33.55,33.55,0,0,0-1.31-5.13c-.76-2.19-.46-2.75-2.34-1.88-2.56,1.19-3.64,6.05-4.4,8.47-1,3.29-2,6.61-2.92,9.92-2.05,7.24-3.9,14.54-5.6,21.87,0,0,0,.1-.05.15,4.58,5.76,5.4,13.64,5.3,20.82,0,3.22-5,3.21-5,0,.08-5.91-.28-12.1-3.82-17.07-1.72-2.42-4.08-4.57-7.21-4.14-4.5.6-3.94,5.58-3.28,8.94C436.57,271.41,438.16,279.73,437,288.67Z"/><path class="57f29735-234c-4946-af7d-69daa671f065" d="M233.78,332.33c1.69-7.15,6-12.9,11-18.17a54,54,0,0,0-28.41,16.3,1.89,1.89,0,0,1-3.14-.82c-2.61-15.54,2.67-30.14,9.71-43.73-17.49,8.59-35.94,20.95-36.54,42.28a1.89,1.89,0,0,1-1.87,1.87A71.59,71.59,0,0,0,163,331.83a44.87,44.87,0,0,1,10.17,4.67,1.9,1.9,0,0,1,0,3.24c-13.22,8.84-20.59,23.53-22.46,39a46.27,46.27,0,0,1,21.22-15.39c1.66-.6,2.79,1.42,2.12,2.75a51.4,51.4,0,0,0-5.45,23c4.28-6.86,11.25-11.74,18.08-16.21a1.89,1.89,0,0,1,2.82,1.62,64.9,64.9,0,0,0,.08,10.25c.27-.6.53-1.2.78-1.81a2,2,0,0,1,1.13-1.1,85.63,85.63,0,0,1,4.94-15.21C203.4,350.41,216.64,337.2,233.78,332.33Z"/><path class="e63bc6bc-4bb2-4433-979b-8cde7a9b757b" d="M313,377.69c-2.14-7.56-5.29-15.74-10.42-21.82a61.07,61.07,0,0,0-17.71-13.79,71.2,71.2,0,0,0-45.2-7c8.13,11.15,7.42,27.26-4,36-7.32,5.59-18.45,8.1-22.69,17-4.84,10.12-2.87,22.31,4.09,30.85a1.92,1.92,0,0,1,.43,1.49,18,18,0,0,1,1.47,1.42c1.62,1.78-1,4.44-2.65,2.65-4.13-4.55-12-6.85-16-.82-3.17,4.71-1.57,10.79,1.08,15.26a24.67,24.67,0,0,0,9,8.9,17.9,17.9,0,0,0,9,2.32c3.38-.08,9.36-2,7.27-6.67-1-2.19,2.26-4.09,3.24-1.89a7.55,7.55,0,0,1,0,6.93,87.47,87.47,0,0,0,52.08,2.67c16-4.19,27.31-13.59,31.85-29.68C317.67,407.43,316.9,391.58,313,377.69Zm-33.64-30.26a6.48,6.48,0,1,1-6.47,6.48A6.48,6.48,0,0,1,279.31,347.43Zm-22.4,8.44c9.5,3.15,23.22,5.26,29.72,13.69,5.41,7,3.63,16.15-5.47,18.11-2.36.5-3.35-3.11-1-3.62,6.06-1.3,7.29-6.34,4.22-11.22-2-3.2-5.34-5.13-8.71-6.6-6.34-2.75-13.2-4.57-19.76-6.75C253.63,358.73,254.62,355.11,256.91,355.87Zm-20.88,33a7.14,7.14,0,1,1,7.13-7.13A7.13,7.13,0,0,1,236,388.84Zm74.41,6.09c-3.91,12.48-14.27,20.59-27.14,22.26-13.87,1.8-30-.26-39.32-11.78-1.5-1.86,1.13-4.53,2.65-2.65,8,9.93,21.14,11.9,33.22,11,12.52-.91,23.11-7.52,27-19.84C307.55,391.64,311.17,392.62,310.44,394.93Z"/><path class="e9f88425-7a6b-47fb-92f6-e344f38d1bc3" d="M255.91,359.48c6.56,2.18,13.42,4,19.76,6.75,3.37,1.47,6.69,3.4,8.71,6.6,3.07,4.88,1.84,9.92-4.22,11.22-2.35.51-1.36,4.12,1,3.62,9.1-2,10.88-11.1,5.47-18.11-6.5-8.43-20.22-10.54-29.72-13.69C254.62,355.11,253.63,358.73,255.91,359.48Z"/><circle class="e63bc6bc-4bb2-4433-979b-8cde7a9b757b" cx="236.03" cy="381.71" r="7.13" transform="translate(-81.38 64.44) rotate(-13.28)"/><circle class="57f29735-234c-4946-af7d-69daa671f065" cx="279.31" cy="353.91" r="6.48" transform="translate(-168.44 301.16) rotate(-45)"/><path class="1ce1c505-c27d-4a1e-a7fd-655c99d9ae3a" d="M235,523.64c-3,1.17-1.67,6,1.33,4.82,10.71-4.23,31.08-4.07,34,10.27,2.57,12.56-3.54,26.69-17.14,28.82-3.17.5-1.82,5.32,1.33,4.83,16.26-2.55,23.86-20,20.63-35C271.46,520.39,248.41,518.32,235,523.64Z"/><path class="1ce1c505-c27d-4a1e-a7fd-655c99d9ae3a" d="M310.26,515.75c-3,1.17-1.67,6,1.33,4.82,10.7-4.23,31.08-4.07,34,10.28,2.58,12.56-3.53,26.69-17.13,28.82-3.17.49-1.82,5.31,1.33,4.82,16.26-2.55,23.86-20,20.63-35C346.74,512.5,323.7,510.44,310.26,515.75Z"/><path class="1ce1c505-c27d-4a1e-a7fd-655c99d9ae3a" d="M275.44,198.34c-10.79-15.69-26.48-36.82-33.72-54.43-3.76-9.15-7-18.64-7.9-28.49s.91-20.21,6.51-28.36a8.92,8.92,0,0,1,3.94-3.57c3.19-1.18,6.58,1,9.12,3.29a69.18,69.18,0,0,1,20.3,32.33c5.3-18.88,20.7-35.74,40.12-38.5,2.22-.32,4.59-.43,6.59.59a10.55,10.55,0,0,1,4.1,4.44c4.54,8,5.27,17.7,3.6,26.73s-5.56,17.47-9.82,25.6a276.81,276.81,0,0,1-42.84,60.37"/><path class="1ce1c505-c27d-4a1e-a7fd-655c99d9ae3a" d="M277.6,197.08c-15.1-21.91-31.89-43.52-39-69.6a59.42,59.42,0,0,1-2.2-22c.59-5.51,3.84-21.68,12.09-19.18,2.82.86,5.78,4.62,7.74,6.75a63.84,63.84,0,0,1,6.11,7.69,69,69,0,0,1,8.95,19,2.52,2.52,0,0,0,4.82,0c3.87-13.14,12.24-25.19,24.33-32a40.61,40.61,0,0,1,9.85-4c5.66-1.44,9.9-1.36,12.83,4.48,3.71,7.42,4,16.26,2.4,24.27-3.22,16-12.66,31.12-21.37,44.74a277.26,277.26,0,0,1-30.47,39.23c-2.18,2.35,1.34,5.9,3.54,3.53a286.87,286.87,0,0,0,28.35-35.8c8.63-12.94,17.12-26.83,22.31-41.56,4.39-12.48,5.77-28.14-2-39.67-6.93-10.26-22.94-3.07-31,2.27-11.62,7.74-19.7,19.82-23.61,33.11h4.82a72.91,72.91,0,0,0-10.84-22.19c-3.93-5.4-9.15-12.37-15.6-14.84-14-5.37-18.49,20.12-18.54,29-.09,16.38,6.65,32.89,14.46,47,8.13,14.72,18.17,28.28,27.7,42.11,1.82,2.63,6.15.13,4.32-2.52Z"/><path class="e9f88425-7a6b-47fb-92f6-e344f38d1bc3" d="M202.35,431a143.56,143.56,0,0,0,16.16,10.82c2.09,1.21,4-2,1.89-3.24a143.56,143.56,0,0,1-16.16-10.82c-1.91-1.47-3.78,1.79-1.89,3.24Z"/><path class="e9f88425-7a6b-47fb-92f6-e344f38d1bc3" d="M210.49,427.08q-.17,8.13-.66,16.25c-.15,2.41,3.6,2.4,3.75,0q.49-8.11.66-16.25c.06-2.41-3.69-2.41-3.75,0Z"/><path class="e9f88425-7a6b-47fb-92f6-e344f38d1bc3" d="M306.83,393.94c-3.87,12.32-14.46,18.93-27,19.84-12.08.88-25.21-1.09-33.22-11-1.52-1.88-4.15.79-2.65,2.65,9.29,11.52,25.45,13.58,39.32,11.78,12.87-1.67,23.23-9.78,27.14-22.26C311.17,392.62,307.55,391.64,306.83,393.94Z"/><path class="57f29735-234c-4946-af7d-69daa671f065" d="M256.37,345.12c-.62-6.63,6.05-9.49,11.45-10.67,2.35-.51,1.35-4.13-1-3.61-7,1.52-15,5.94-14.2,14.28.22,2.38,4,2.4,3.75,0Z"/><path class="57f29735-234c-4946-af7d-69daa671f065" d="M232.89,384.9c.39-3.24,1.22-6.76,3.7-9,2.68-2.48,6.35-3.23,9.87-3.46,2.4-.16,2.42-3.91,0-3.75-4.56.3-9.09,1.35-12.52,4.56-3.25,3-4.29,7.44-4.8,11.7-.29,2.39,3.46,2.37,3.75,0Z"/><circle class="57f29735-234c-4946-af7d-69daa671f065" cx="245.87" cy="386.31" r="7.13" transform="translate(-82.18 66.82) rotate(-13.28)"/><path class="1ce1c505-c27d-4a1e-a7fd-655c99d9ae3a" d="M332.91,163.18a171.15,171.15,0,0,0,40.43,22.14c6,2.33,8.61-7.34,2.66-9.64a162.06,162.06,0,0,1-38-21.13c-5.17-3.84-10.16,4.83-5,8.63Z"/><path class="1ce1c505-c27d-4a1e-a7fd-655c99d9ae3a" d="M366.81,101.27l48-2.44c6.4-.33,6.44-10.33,0-10l-48,2.44c-6.41.33-6.45,10.33,0,10Z"/><path class="1ce1c505-c27d-4a1e-a7fd-655c99d9ae3a" d="M292.05,46.76a417.93,417.93,0,0,0-2.53-42c-.7-6.32-10.71-6.4-10,0a417.93,417.93,0,0,1,2.53,42c.06,6.43,10.07,6.45,10,0Z"/><path class="1ce1c505-c27d-4a1e-a7fd-655c99d9ae3a" d="M171.8,54.18l31.78,19.68c5.49,3.39,10.52-5.25,5-8.64L176.84,45.54c-5.48-3.39-10.51,5.25-5,8.64Z"/><path class="1ce1c505-c27d-4a1e-a7fd-655c99d9ae3a" d="M181.25,187.67l37.25-20.8c5.62-3.14.59-11.78-5-8.64L176.2,179c-5.62,3.14-.58,11.78,5.05,8.64Z"/></g></g></svg>