<?xml version="1.0" encoding="utf-8"?>
<!-- Generator: Adobe Illustrator 22.1.0, SVG Export Plug-In . SVG Version: 6.00 Build 0)  -->
<svg version="1.1" id="Calque_1" xmlns="http://www.w3.org/2000/svg" xmlns:xlink="http://www.w3.org/1999/xlink" x="0px" y="0px"
	 viewBox="0 0 507.5 623.5" style="enable-background:new 0 0 507.5 623.5;" xml:space="preserve">
<style type="text/css">
	.st0{fill:#F18A62;}
	.st1{fill:#374092;stroke:#2C3980;stroke-width:4;stroke-miterlimit:10;}
	.st2{fill:#EFA78E;stroke:#F18A63;stroke-width:4;stroke-miterlimit:10;}
	.st3{fill:#324394;stroke:#2C3A80;stroke-width:5;stroke-miterlimit:10;}
	.st4{fill:#F18A62;stroke:#F18A62;stroke-width:4;stroke-miterlimit:10;}
	.st5{fill:#D83E51;}
	.st6{fill:#E8464E;}
	.st7{fill:#374092;}
	.st8{fill:#EFA78E;}
	.st9{fill:#374092;stroke:#374092;stroke-width:2;stroke-miterlimit:10;}
	.st10{fill:#2C3980;}
	.st11{fill:#F18A63;}
</style>
<polygon class="st0" points="62.8,255.8 58.4,252.9 44.7,213.4 40.5,212.3 20.8,210 7.2,226.2 6.4,266.4 23.5,281.2 48.8,286 
	63.8,276.8 "/>
<polygon class="st0" points="465,212.3 469,212.1 487.5,211 500.5,226.5 502,271 467.8,278 452.6,249.3 "/>
<polygon class="st0" points="445,254.8 447.5,253 460.2,279.5 455.2,284.5 445,277.3 "/>
<title>Fichier 1</title>
<g id="be69ba89-c7c6-44b8-bf1b-703177ed0e31">
	<g id="f76d6277-4ca7-407a-849e-34c86a9d5914">
		<path class="st1" d="M224,337.3c0.6-7.4,3.9-13.9,8.1-19.9c-10.4,4-19.4,11.2-25.6,20.7c-0.6,0.8-1.8,1-2.6,0.4
			c-0.3-0.2-0.5-0.4-0.6-0.7c-5-15.2-2-30.6,2.9-45.3c-16,11.3-32.3,26.5-29.6,48c0.1,1-0.5,2-1.6,2.2c-7.2,0.6-14.3,2.3-21,5
			c3.7,0.6,7.3,1.6,10.8,3.1c1,0.4,1.4,1.5,1,2.5c-0.1,0.3-0.3,0.5-0.5,0.7c-11.7,10.9-16.7,26.7-16.2,42.5
			c4.3-7.9,10.8-14.4,18.6-18.7c1.5-0.9,3,1,2.5,2.4c-2.4,7.7-3.1,15.9-1.8,23.9c3.2-7.5,9.3-13.5,15.4-19c0.8-0.7,2-0.5,2.7,0.3
			c0.2,0.3,0.3,0.6,0.4,0.9c0.3,3.5,0.8,6.9,1.7,10.3c0.2-0.6,0.3-1.3,0.5-1.9c0.1-0.5,0.5-1,0.9-1.3c0.4-5.4,1.2-10.8,2.5-16
			C196.7,360.1,207.8,344.8,224,337.3z"/>
		<path class="st2" d="M313,377.7c-2.1-7.6-5.3-15.7-10.4-21.8c-5-5.7-11-10.3-17.7-13.8c-13.9-7.4-32.7-8.9-48.1-6.3
			c8.1,11.1,3.6,19.3-7.8,28c-7.3,5.6-20.3,15.1-24.5,24c-4.8,10.1,0.4,19.6,7.3,28.1c0.4,0.5-0.3,1.6-0.3,2.1
			c0.5,0.5,5.1,5,5.6,5.5c1.6,1.8,0.9,2.7-0.7,0.9c-4.1-4.5-12.1-8.4-16-0.8c-2.6,5-1.6,10.8,1.1,15.3c2.2,3.7,5.3,6.8,9,8.9
			c2.7,1.6,5.8,2.4,9,2.3c3.4-0.1,9.4-2,7.3-6.7c-1-2.2,2.3-4.1,3.2-1.9c1.1,2.2,1.1,4.8,0,6.9c16.7,6.2,34.9,7.1,52.1,2.7
			c16-4.2,27.3-13.6,31.9-29.7C317.7,407.4,316.9,391.6,313,377.7z M279.4,347.4c3.6,0,6.5,2.9,6.5,6.5s-2.9,6.5-6.5,6.5
			s-6.5-2.9-6.5-6.5l0,0C272.9,350.4,275.8,347.5,279.4,347.4L279.4,347.4z M257,355.9c9.5,3.1,23.2,5.3,29.7,13.7
			c5.4,7,3.6,16.1-5.5,18.1c-2.4,0.5-3.4-3.1-1-3.6c6.1-1.3,7.3-6.3,4.2-11.2c-2-3.2-5.3-5.1-8.7-6.6c-6.3-2.8-13.2-4.6-19.8-6.8
			C253.6,358.7,254.6,355.1,257,355.9L257,355.9z M236.1,388.9c-3.9,0-7.1-3.2-7.1-7.1s3.2-7.1,7.1-7.1c3.9,0,7.1,3.2,7.1,7.1l0,0
			C243.2,385.7,240,388.9,236.1,388.9C236,388.8,236,388.8,236.1,388.9L236.1,388.9z M310.5,395c-3.9,12.5-14.3,20.6-27.1,22.3
			c-13.9,1.8-30-0.3-39.3-11.8c-1.5-1.9,1.1-4.5,2.6-2.6c8,9.9,21.1,11.9,33.2,11c12.5-0.9,23.1-7.5,27-19.8
			C307.5,391.6,311.2,392.6,310.5,395L310.5,395z"/>
		<path class="st3" d="M198.7,419.6c0.3-0.3,0.6-0.6,1-0.9c3.6-3.1,8.7-3.5,12.7-1c-5.3-11.6-8.3-28.8,2.2-38
			c6.7-5.9,15.9-8,22.1-14.6c7.4-8,5.5-21.5-1.2-29.3c-16,4.3-28.3,16.3-35.1,31.2C193.2,382.8,190,403.7,198.7,419.6
			C198.6,419.5,198.6,419.6,198.7,419.6z"/>
		<path class="st4" d="M468,387.8c6.1-12.7,12.1-25.7,16.5-39.2c4.2-13.1,7.1-26.7,11.5-39.8c4.4-13,7.3-26.5,8.6-40.1
			c0.6-6.6,1-13.2,1-19.9c0-5-0.1-12.9-3.5-17.4c-0.4,11.2-2.2,22.2-5.5,32.9c-0.9,3.1-5.7,1.8-4.8-1.3c2.8-9.2,4.5-18.6,5.1-28.2
			c0.2-4.3,0.3-8.5,0.1-12.8c0-2.5-0.3-5.1-0.8-7.6c-0.2-1.2-0.7-2.4-1.4-3.4c-1.5-2.5-3.6-2.6-6.1-0.1c-0.1,0.5-0.4,0.9-0.8,1.2
			c2.1,15.4-1.3,31.6-4.2,46.5c-0.6,3.2-5.4,1.8-4.8-1.3c2.4-11.9,4.7-24,4.5-36.2c-0.1-5.6,0-13.3-2.8-18.3
			c-4.1-7.1-10.9,5.6-11.5,9.2c0,0.1-0.1,0.3-0.1,0.4c1.9,4.7,2.2,11.6,2.2,14.6c0.1,10.4-3.1,20.4-6.3,30.1c-1,3-5.8,1.7-4.8-1.3
			c2.5-7.6,5.1-15.4,5.9-23.4c0.4-3.9,0.3-7.9-0.3-11.7c-0.3-1.7-0.7-3.5-1.3-5.1c-0.8-2.2-0.5-2.8-2.3-1.9
			c-2.6,1.2-3.6,6.1-4.4,8.5c-1,3.3-2,6.6-2.9,9.9c-2,7.2-3.9,14.5-5.6,21.9v0.1c4.6,5.8,5.4,13.6,5.3,20.8c0,3.2-5,3.2-5,0
			c0.1-5.9-0.3-12.1-3.8-17.1c-1.7-2.4-4.1-4.6-7.2-4.1c-4.5,0.6-3.9,5.6-3.3,8.9c1.7,8.7,3.3,17,2.1,26c-1.1,8.4-4.9,16.5-7.7,24.4
			c-3.1,8.6-6.5,17.1-10,25.6c-6.4,15.2-13.1,29.9-23.6,42.8c-21.1,25.7-51,41.8-82,52.5c-0.3,0.1-0.7,0.2-1.1,0.1
			c-15.8,27.2-57.8,27.7-84.3,17.9c-0.3-0.1-0.7-0.4-0.9-0.6c-2.4,1.7-5.2,2.6-8.1,2.6c-8.6,0.1-16.2-5.4-20.8-12.4
			c-1.5-2.3-2.5-4.8-3.2-7.5c-0.5,0.2-1,0.2-1.4,0c-18.3-6.3-36.2-14.3-52.2-25.4c-12.7-8.6-24-19.3-33.3-31.5
			c-10.3-13.7-16.7-29.6-23.1-45.4c-3.4-8.5-6.5-17-9.5-25.6c-2.7-7.8-5.5-15-5.7-23.3c-0.1-4.1,0.2-8.2,0.9-12.3
			c0.6-3.7,2.9-9,2-12.7c-2.1-8.5-10.2-1.8-12.4,2.8s-2.3,9.6-2.3,14.6c0,3.2-5,3.2-5,0c-0.1-7,0.7-15.2,5.3-20.9v-0.1
			c-1.7-7.3-3.5-14.6-5.6-21.9c-1-3.6-2-7.2-3.2-10.8c-0.7-2.3-1.8-6.3-4.1-7.6s-1.8,0.3-2.6,2.7c-0.6,1.9-1,3.8-1.2,5.7
			c-0.4,3.4-0.5,6.9-0.1,10.3c0.8,8,3.4,15.8,5.9,23.4c1,3.1-3.8,4.4-4.8,1.3c-3.3-10-6.6-20.3-6.3-31c0.1-2.9,0.4-9.2,2.2-13.7
			c0-0.1-0.1-0.3-0.1-0.4c-0.8-4.3-8-16.7-11.9-8.3c-2.3,5.1-2.4,11.8-2.5,17.4c-0.2,12.2,2.2,24.3,4.5,36.2
			c0.6,3.1-4.2,4.5-4.8,1.3c-3-15-6.3-31.1-4.2-46.5c-0.4-0.3-0.7-0.8-0.8-1.2c-2.6-2.4-4.6-2.4-6.1,0.1c-0.7,1-1.1,2.2-1.4,3.4
			c-0.5,2.5-0.7,5-0.8,7.6c-0.7,13.9,1.1,27.7,5.1,41c0.9,3.1-3.9,4.4-4.8,1.3c-3.2-10.7-5.1-21.8-5.5-33c-4.1,5.2-3.6,15.2-3.5,21
			c0.2,7.3,0.6,14.5,1.5,21.8c1.9,15.8,7,30.3,11.3,45.5c3.8,13.3,6.9,26.8,12,39.7c5.2,13.1,11.2,26,17.6,38.6
			c12.5,24.7,26.5,48.6,39.5,73.1c25.5,47.7,45.1,97.9,57.5,150.6H366c7-29.6,16.2-58.7,27.5-86.9
			C414.1,483.4,444.1,437.3,468,387.8z M254.5,572.4c-3.1,0.5-4.5-4.3-1.3-4.8c13.6-2.1,19.7-16.3,17.1-28.8
			c-2.9-14.3-23.3-14.5-34-10.3c-3,1.2-4.3-3.7-1.3-4.8c13.4-5.3,36.5-3.2,40.2,13.8C278.4,552.4,270.8,569.8,254.5,572.4z
			 M329.8,564.5c-3.1,0.5-4.5-4.3-1.3-4.8c13.6-2.1,19.7-16.3,17.1-28.8c-2.9-14.3-23.3-14.5-34-10.3c-3,1.2-4.3-3.7-1.3-4.8
			c13.4-5.3,36.5-3.2,40.2,13.8C353.7,544.5,346.1,561.9,329.8,564.5z"/>
		<path class="st5" d="M3.6,274.1c1.5,12.7,5.1,24.4,8.7,36.4c14.3-0.6,28.4-2.8,42.2-6.5c6.3-1.7,12.6-3.6,18.8-5.6
			c-1.8-5.1-2.9-10.4-3.1-15.9c-0.1-4.1,0.2-8.2,0.9-12.3c0.6-3.7,2.9-9,2-12.7c-2.1-8.5-10.2-1.8-12.4,2.8
			c-2.2,4.6-2.3,9.6-2.3,14.6c0,3.2-5,3.2-5,0c-0.1-7,0.7-15.2,5.3-20.9v-0.1c-1.7-7.3-3.5-14.6-5.6-21.9c-1-3.6-2-7.2-3.2-10.8
			c-0.7-2.3-1.8-6.3-4.1-7.6s-1.8,0.3-2.6,2.7c-0.6,1.9-1,3.8-1.2,5.7c-0.4,3.4-0.5,6.9-0.1,10.3c0.8,8,3.4,15.8,5.9,23.4
			c1,3.1-3.8,4.4-4.8,1.3c-3.3-10-6.6-20.3-6.3-31c0.1-2.9,0.4-9.2,2.2-13.7c0-0.1-0.1-0.3-0.1-0.4c-0.8-4.3-8-16.7-11.9-8.3
			c-2.3,5.1-2.4,11.8-2.5,17.4c-0.2,12.2,2.2,24.3,4.5,36.2c0.6,3.1-4.2,4.5-4.8,1.3c-3-15-6.3-31.1-4.2-46.5
			c-0.4-0.3-0.7-0.8-0.8-1.2c-2.6-2.4-4.6-2.4-6.1,0.1c-0.7,1-1.1,2.2-1.4,3.4c-0.5,2.5-0.7,5-0.8,7.6c-0.7,13.9,1.1,27.7,5.1,41
			c0.9,3.1-3.9,4.4-4.8,1.3c-3.2-10.7-5.1-21.8-5.5-33c-4.1,5.2-3.6,15.2-3.5,21C2.2,259.6,2.7,266.9,3.6,274.1z"/>
		<path class="st5" d="M432.7,304c-0.9,2.4-2.5,6.7-3.4,9c-3.1,8.6-6.5,17.1-10,25.6c-6.4,15.2-13.1,29.9-23.6,42.8
			c-21.1,25.7-51,41.8-82,52.5c-0.3,0.1-0.7,0.2-1.1,0.1c-15.8,27.2-57.8,27.7-84.3,17.9c-0.3-0.1-0.7-0.4-0.9-0.6
			c-2.4,1.7-5.2,2.6-8.1,2.6c-8.6,0.1-16.2-5.4-20.8-12.4c-1.5-2.3-2.5-4.8-3.2-7.5c-0.5,0.2-1,0.2-1.4,0
			c-18.3-6.3-36.2-14.3-52.2-25.4c-12.7-8.6-23.9-19.3-33.2-31.5c-10.3-13.7-16.7-29.6-23.1-45.4c-3.2-7.8-6-15.7-8.8-23.7
			c-7.5,2.5-15,4.7-22.6,6.6c-12.7,3.2-25.7,5.2-38.8,5.8c3.7,13,6.8,26.2,11.8,38.9c5.2,13.1,11.2,26,17.6,38.6
			c12.5,24.7,26.5,48.6,39.5,73.1c25.5,47.7,45.1,97.9,57.5,150.6H366c7-29.6,16.2-58.7,27.5-86.9c20.6-51.1,50.6-97.3,74.5-146.8
			c6.1-12.7,12.1-25.7,16.5-39.2c2.7-8.4,4.9-17,7.2-25.6C471.1,319.9,451.8,312.2,432.7,304z M254.5,572.4
			c-3.1,0.5-4.5-4.3-1.3-4.8c13.6-2.1,19.7-16.3,17.1-28.8c-2.9-14.3-23.3-14.5-34-10.3c-3,1.2-4.3-3.7-1.3-4.8
			c13.4-5.3,36.5-3.2,40.2,13.8C278.4,552.4,270.8,569.8,254.5,572.4z M329.8,564.5c-3.1,0.5-4.5-4.3-1.3-4.8
			c13.6-2.1,19.7-16.3,17.1-28.8c-2.9-14.3-23.3-14.5-34-10.3c-3,1.2-4.3-3.7-1.3-4.8c13.4-5.3,36.5-3.2,40.2,13.8
			C353.7,544.5,346.1,561.9,329.8,564.5z"/>
		<path class="st6" d="M312.7,434c-0.3,0.1-0.7,0.1-1,0.1c-0.5,0-1-0.1-1.5-0.2c-16.1,26-57,25.1-81.3,16.1l-1.2-1.6l-1.6,1.2
			c-2,1.4-4.4,2.2-6.9,2.2c-7.2,0.1-14.4-4.2-19.1-11.5c-1.3-2.1-2.3-4.4-2.9-6.9l-0.1-0.2c-0.8,0.6-1.8,0.9-2.9,0.9
			c-0.2,0-0.4,0-0.6,0c1.8,14.2,9.6,26.9,22.3,34.1c12.1,6.9,26.4,9,40.1,9.5c13.3,0.5,27.4,0.3,39.9-4.4
			c5.8-2.2,11.5-5.7,15.1-10.9c4.8-6.8,5.6-15.5,5-23.6C314,438.3,312.6,436.2,312.7,434z"/>
		<path class="st5" d="M492,321c-20.6-3.1-40.2-11-58.5-18.8l-1.9-0.8l-1.2,3c-1,2.5-2.2,5.9-3,8c-2.7,7.5-5.8,15.6-10,25.5
			c-6,14.3-12.7,29.3-23.4,42.3c-17.1,20.9-49.9,39.6-82.6,51.8c-0.4,0.8-0.2,0.6-1.2,2c0.2,0.1,0.6,0.2,1.1,0.3
			c0.4-0.1,3.2-0.2,3.7-0.4c0.9-0.4-0.5,0.5,0.2,0.9c4.6,0.6,10.8,1.3,10.8,2.5c1.5,16.5-3.5,32.5-18.1,41.4
			c-10.6,6.5-23.6,8.6-35.9,9.1c-12.8,0.7-25.5-0.1-38.1-2.5c-12.4-2.5-24.7-7.5-34-16.4c-9.9-9.5,3.9,0.4,2.8-13.2
			c-0.9-0.9,13.3,0.6,13.8-2.1l-21-6.3c0.3-1.4,0.6-2.7,0.9-3.9c-4.7-1.4-4.4-9.1,0.9-9.7c-0.2-1.7-0.7-2-0.7-2.1
			c-13.8-2.5-41.6-16.3-53.8-24.6c-12.5-8.5-23.6-19-32.8-31c-10-13.3-16.4-29-22.5-44.2l-0.3-0.8c-3.4-8.4-6.4-16.6-8.8-23.6
			l-0.7-1.8l-1.9,0.6c-8.1,2.7-15.5,4.8-22.5,6.6c-12.6,3.2-25.4,5.1-38.4,5.8l-2.5,0.1l0.7,2.4c0.8,3,1.7,6,2.5,9
			c2.7,10,5.5,20.2,9.4,30.1c4.7,11.8,10.5,24.5,17.7,38.8c7.7,15.1,16,30.2,24,44.7c5.1,9.3,10.5,18.9,15.5,28.4
			c26,48.8,45.3,99.3,57.3,150.1l0.4,1.5h227.5l0.4-1.5c6.9-29.5,16.1-58.5,27.4-86.6c12.4-30.8,28.5-60.3,44.1-88.9
			c10.2-18.8,20.8-38.2,30.3-57.8c6-12.4,12.1-25.8,16.6-39.4c2.1-6.3,3.8-12.9,5.5-19.2c0.6-2.2,1.2-4.3,1.8-6.5l0.6-2.2L492,321z
			 M269,561c-3.4,5.1-8.7,8.5-14.7,9.4c-0.2,0.1-0.5,0-0.6-0.2s-0.2-0.4-0.3-0.6c0,0,0,0,0.2,0c6-0.9,11.3-4.2,14.7-9.2
			c4.3-6.5,5.7-14.4,4.1-22c-1-4.8-4.1-8.9-8.5-11.2c-4.3-2.2-9.1-3.2-14-3.1c-4.9,0-9.7,0.8-14.2,2.5h-0.1
			c-0.1-0.2-0.2-0.4-0.1-0.7c0-0.2,0.2-0.4,0.4-0.5c7.7-3,20-3.7,28.5,0.9c4.6,2.2,7.9,6.5,8.9,11.5C275,545.8,273.5,554.2,269,561
			L269,561z M344.3,553.1c-3.4,5.1-8.7,8.5-14.7,9.4c-0.2,0.1-0.5,0-0.6-0.2s-0.2-0.4-0.3-0.6c0.1,0,0.1,0,0.2,0
			c6-0.9,11.3-4.2,14.7-9.2c4.3-6.5,5.7-14.4,4.1-22c-1-4.8-4.1-8.9-8.5-11.2c-4.3-2.2-9.1-3.2-14-3.1c-4.9,0-9.7,0.8-14.2,2.5h-0.1
			c-0.1-0.2-0.2-0.4-0.1-0.7c0-0.2,0.2-0.4,0.4-0.5c7.7-3,20-3.7,28.5,0.9c4.6,2.2,7.9,6.5,8.9,11.5
			C350.3,537.9,348.7,546.3,344.3,553.1L344.3,553.1z"/>
		<path class="st5" d="M437,288.7c-0.4,2.6-0.9,5.2-1.7,7.8c18.9,8.2,38.8,13.9,59.2,16.9c0.5-1.5,0.9-3,1.4-4.5
			c4.4-13,7.3-26.5,8.6-40.1c0.6-6.6,1-13.2,1-19.9c0-5-0.1-12.9-3.5-17.4c-0.4,11.2-2.2,22.2-5.5,32.9c-0.9,3.1-5.7,1.8-4.8-1.3
			c2.8-9.2,4.5-18.6,5.1-28.2c0.2-4.3,0.3-8.5,0.1-12.8c0-2.5-0.3-5.1-0.8-7.6c-0.2-1.2-0.7-2.4-1.4-3.4c-1.5-2.5-3.6-2.6-6.1-0.1
			c-0.1,0.5-0.4,0.9-0.8,1.2c2.1,15.4-1.3,31.6-4.2,46.5c-0.6,3.2-5.4,1.8-4.8-1.3c2.4-11.9,4.7-24,4.5-36.2
			c-0.1-5.6,0-13.3-2.8-18.3c-4.1-7.1-10.9,5.6-11.5,9.2c0,0.1-0.1,0.3-0.1,0.4c1.9,4.7,2.2,11.6,2.2,14.6
			c0.1,10.4-3.1,20.4-6.3,30.1c-1,3-5.8,1.7-4.8-1.3c2.5-7.6,5.1-15.4,5.9-23.4c0.4-3.9,0.3-7.9-0.3-11.7c-0.3-1.7-0.7-3.5-1.3-5.1
			c-0.8-2.2-0.5-2.8-2.3-1.9c-2.6,1.2-3.6,6.1-4.4,8.5c-1,3.3-2,6.6-2.9,9.9c-2,7.2-3.9,14.5-5.6,21.9v0.1
			c4.6,5.8,5.4,13.6,5.3,20.8c0,3.2-5,3.2-5,0c0.1-5.9-0.3-12.1-3.8-17.1c-1.7-2.4-4.1-4.6-7.2-4.1c-4.5,0.6-3.9,5.6-3.3,8.9
			C436.6,271.4,438.2,279.7,437,288.7z"/>
		<path class="st7" d="M224,338.4c0.6-7.4,3.9-14.9,8-20.9c-10.4,4-19.4,11.2-25.6,20.7c-0.6,0.8-1.8,1-2.6,0.4
			c-0.3-0.2-0.5-0.4-0.6-0.7c-5-15.2-2-30.6,2.9-45.3c-16,11.3-32.3,26.5-29.6,48c0.1,1-0.5,2-1.6,2.2c-7.2,0.6-14.3,2.3-21,5
			c3.7,0.6,7.3,1.6,10.8,3.1c1,0.4,1.4,1.5,1,2.5c-0.1,0.3-0.3,0.5-0.5,0.7c-11.7,10.9-16.7,26.7-16.2,42.5
			c4.3-7.9,10.8-14.4,18.6-18.7c1.5-0.9,3,1,2.5,2.4c-2.4,7.7-3.1,15.9-1.8,23.9c3.2-7.5,9.3-13.5,15.4-19c0.8-0.7,2-0.5,2.7,0.3
			c0.2,0.3,0.3,0.6,0.4,0.9c0.3,3.5,0.8,6.9,1.7,10.3c0.2-0.6,0.3-1.3,0.5-1.9c0.1-0.5,1.3-2.3,1.8-2.6c0.4-5.4,1.2-9.6,2.5-14.8
			C198.5,359.7,207.8,345.9,224,338.4z"/>
		<path class="st0" d="M255.9,359.5c6.6,2.2,13.4,4,19.8,6.8c3.4,1.5,6.7,3.4,8.7,6.6c3.1,4.9,1.8,9.9-4.2,11.2
			c-2.4,0.5-1.4,4.1,1,3.6c9.1-2,10.9-11.1,5.5-18.1c-6.5-8.4-20.2-10.5-29.7-13.7C254.6,355.1,253.6,358.7,255.9,359.5z"/>
		<circle class="st8" cx="236" cy="381.7" r="7.1"/>
		<circle class="st5" cx="279.3" cy="353.9" r="6.5"/>
		<path class="st5" d="M235,523.6c-3,1.2-1.7,6,1.3,4.8c10.7-4.2,31.1-4.1,34,10.3c2.6,12.6-3.5,26.7-17.1,28.8
			c-3.2,0.5-1.8,5.3,1.3,4.8c16.3-2.5,23.9-20,20.6-35C271.5,520.4,248.4,518.3,235,523.6z"/>
		<path class="st5" d="M310.3,515.8c-3,1.2-1.7,6,1.3,4.8c10.7-4.2,31.1-4.1,34,10.3c2.6,12.6-3.5,26.7-17.1,28.8
			c-3.2,0.5-1.8,5.3,1.3,4.8c16.3-2.5,23.9-20,20.6-35C346.7,512.5,323.7,510.4,310.3,515.8z"/>
		<path class="st0" d="M202.4,431c5.1,4,10.5,7.6,16.2,10.8c2.1,1.2,4-2,1.9-3.2c-5.6-3.2-11-6.9-16.2-10.8
			C202.3,426.3,200.5,429.6,202.4,431z"/>
		<path class="st0" d="M210.5,427.1c-0.1,5.4-0.3,10.8-0.7,16.2c-0.1,2.4,3.6,2.4,3.8,0c0.3-5.4,0.5-10.8,0.7-16.2
			C214.3,424.7,210.6,424.7,210.5,427.1z"/>
		<path class="st0" d="M306.8,393.9c-3.9,12.3-14.5,18.9-27,19.8c-12.1,0.9-25.2-1.1-33.2-11c-1.5-1.9-4.1,0.8-2.6,2.6
			c9.3,11.5,25.5,13.6,39.3,11.8c12.9-1.7,23.2-9.8,27.1-22.3C311.2,392.6,307.5,391.6,306.8,393.9z"/>
		<path class="st5" d="M254.5,345.1c-0.5-3.3,1.3-6.6,3.8-8.6c2.6-2,5.7-3.3,9-3.8"/>
		<path class="st5" d="M231,384.9c0.2-1.9,0.6-3.7,1.2-5.5c0.3-0.8,0.6-1.5,1-2.3c1.3-2.2,3.3-4,5.8-5c2.4-1,5-1.6,7.6-1.6"/>
		<circle class="st5" cx="245.9" cy="386.3" r="7.1"/>
		<path class="st9" d="M198.7,419.6c0.3-0.3,0.6-0.6,1-0.9c3.3-2.5,7.6-3.3,11.5-1.9c-6.5-11.5-7.1-27.9,3.4-37.1
			c6.7-5.9,15.9-8,22.1-14.6c7.4-8,5.5-21.5-1.2-29.3c-16,4.3-28.3,16.3-35.1,31.2C193.2,382.8,190,403.7,198.7,419.6
			C198.6,419.5,198.6,419.6,198.7,419.6z"/>
		<path class="st0" d="M468,387.8c6.1-12.7,12.1-25.7,16.5-39.2c4.2-13.1,7.1-26.7,11.5-39.8c4.4-13,7.3-26.5,8.6-40.1
			c0.6-6.6,1-13.2,1-19.9c0-5-0.1-12.9-3.5-17.4c-0.4,11.2-2.2,22.2-5.5,32.9c-0.9,3.1-5.7,1.8-4.8-1.3c2.8-9.2,4.5-18.6,5.1-28.2
			c0.2-4.3,0.3-8.5,0.1-12.8c0-2.5-0.3-5.1-0.8-7.6c-0.2-1.2-0.7-2.4-1.4-3.4c-1.5-2.5-3.6-2.6-6.1-0.1c-0.1,0.5-0.4,0.9-0.8,1.2
			c2.1,15.4-1.3,31.6-4.2,46.5c-0.6,3.2-5.4,1.8-4.8-1.3c2.4-11.9,4.7-24,4.5-36.2c-0.1-5.6,0-13.3-2.8-18.3
			c-4.1-7.1-10.9,5.6-11.5,9.2c0,0.1-0.1,0.3-0.1,0.4c1.9,4.7,2.2,11.6,2.2,14.6c0.1,10.4-3.1,20.4-6.3,30.1c-1,3-5.8,1.7-4.8-1.3
			c2.5-7.6,5.1-15.4,5.9-23.4c0.4-3.9,0.3-7.9-0.3-11.7c-0.3-1.7-0.7-3.5-1.3-5.1c-0.8-2.2-0.5-2.8-2.3-1.9
			c-2.6,1.2-3.6,6.1-4.4,8.5c-1,3.3-2,6.6-2.9,9.9c-2,7.2-3.9,14.5-5.6,21.9v0.1c4.6,5.8,5.4,13.6,5.3,20.8c0,3.2-5,3.2-5,0
			c0.1-5.9-0.3-12.1-3.8-17.1c-1.7-2.4-4.1-4.6-7.2-4.1c-4.5,0.6-3.9,5.6-3.3,8.9c1.7,8.7,3.3,17,2.1,26c-1.1,8.4-4.9,16.5-7.7,24.4
			c-3.1,8.6-6.5,17.1-10,25.6c-6.4,15.2-13.1,29.9-23.6,42.8c-21.1,25.7-51,41.8-82,52.5c-0.3,0.1-0.7,0.2-1.1,0.1
			c-15.8,27.2-57.8,27.7-84.3,17.9c-0.3-0.1-0.7-0.4-0.9-0.6c-2.4,1.7-5.2,2.6-8.1,2.6c-8.6,0.1-16.2-5.4-20.8-12.4
			c-1.5-2.3-2.5-4.8-3.2-7.5c-0.5,0.2-1,0.2-1.4,0c-18.3-6.3-36.2-14.3-52.2-25.4c-12.7-8.6-24-19.3-33.3-31.5
			c-10.3-13.7-16.7-29.6-23.1-45.4c-3.4-8.5-6.5-17-9.5-25.6c-2.7-7.8-5.5-15-5.7-23.3c-0.1-4.1,0.2-8.2,0.9-12.3
			c0.6-3.7,2.9-9,2-12.7c-2.1-8.5-10.2-1.8-12.4,2.8s-2.3,9.6-2.3,14.6c0,3.2-5,3.2-5,0c-0.1-7,0.7-15.2,5.3-20.9v-0.1
			c-1.7-7.3-3.5-14.6-5.6-21.9c-1-3.6-2-7.2-3.2-10.8c-0.7-2.3-1.8-6.3-4.1-7.6s-1.8,0.3-2.6,2.7c-0.6,1.9-1,3.8-1.2,5.7
			c-0.4,3.4-0.5,6.9-0.1,10.3c0.8,8,3.4,15.8,5.9,23.4c1,3.1-3.8,4.4-4.8,1.3c-3.3-10-6.6-20.3-6.3-31c0.1-2.9,0.4-9.2,2.2-13.7
			c0-0.1-0.1-0.3-0.1-0.4c-0.8-4.3-8-16.7-11.9-8.3c-2.3,5.1-2.4,11.8-2.5,17.4c-0.2,12.2,2.2,24.3,4.5,36.2
			c0.6,3.1-4.2,4.5-4.8,1.3c-3-15-6.3-31.1-4.2-46.5c-0.4-0.3-0.7-0.8-0.8-1.2c-2.6-2.4-4.6-2.4-6.1,0.1c-0.7,1-1.1,2.2-1.4,3.4
			c-0.5,2.5-0.7,5-0.8,7.6c-0.7,13.9,1.1,27.7,5.1,41c0.9,3.1-3.9,4.4-4.8,1.3c-3.2-10.7-5.1-21.8-5.5-33c-4.1,5.2-3.6,15.2-3.5,21
			c0.2,7.3,0.6,14.5,1.5,21.8c1.9,15.8,7,30.3,11.3,45.5c3.8,13.3,6.9,26.8,12,39.7c5.2,13.1,11.2,26,17.6,38.6
			c12.5,24.7,26.5,48.6,39.5,73.1c25.5,47.7,45.1,97.9,57.5,150.6H366c7-29.6,16.2-58.7,27.5-86.9
			C414.1,483.4,444.1,437.3,468,387.8z M254.5,572.4c-3.1,0.5-4.5-4.3-1.3-4.8c13.6-2.1,19.7-16.3,17.1-28.8
			c-2.9-14.3-23.3-14.5-34-10.3c-3,1.2-4.3-3.7-1.3-4.8c13.4-5.3,36.5-3.2,40.2,13.8C278.4,552.4,270.8,569.8,254.5,572.4z
			 M329.8,564.5c-3.1,0.5-4.5-4.3-1.3-4.8c13.6-2.1,19.7-16.3,17.1-28.8c-2.9-14.3-23.3-14.5-34-10.3c-3,1.2-4.3-3.7-1.3-4.8
			c13.4-5.3,36.5-3.2,40.2,13.8C353.7,544.5,346.1,561.9,329.8,564.5z"/>
		<path class="st8" d="M3.6,274.1c1.5,12.7,5.1,24.4,8.7,36.4c14.3-0.6,28.4-2.8,42.2-6.5c6.3-1.7,12.6-3.6,18.8-5.6
			c-1.8-5.1-2.9-10.4-3.1-15.9c-0.1-4.1,0.2-8.2,0.9-12.3c0.6-3.7,2.9-9,2-12.7c-2.1-8.5-10.2-1.8-12.4,2.8
			c-2.2,4.6-2.3,9.6-2.3,14.6c0,3.2-5,3.2-5,0c-0.1-7,0.7-15.2,5.3-20.9v-0.1c-1.7-7.3-3.5-14.6-5.6-21.9c-1-3.6-2-7.2-3.2-10.8
			c-0.7-2.3-1.8-6.3-4.1-7.6s-1.8,0.3-2.6,2.7c-0.6,1.9-1,3.8-1.2,5.7c-0.4,3.4-0.5,6.9-0.1,10.3c0.8,8,3.4,15.8,5.9,23.4
			c1,3.1-3.8,4.4-4.8,1.3c-3.3-10-6.6-20.3-6.3-31c0.1-2.9,0.4-9.2,2.2-13.7c0-0.1-0.1-0.3-0.1-0.4c-0.8-4.3-8-16.7-11.9-8.3
			c-2.3,5.1-2.4,11.8-2.5,17.4c-0.2,12.2,2.2,24.3,4.5,36.2c0.6,3.1-4.2,4.5-4.8,1.3c-3-15-6.3-31.1-4.2-46.5
			c-0.4-0.3-0.7-0.8-0.8-1.2c-2.6-2.4-4.6-2.4-6.1,0.1c-0.7,1-1.1,2.2-1.4,3.4c-0.5,2.5-0.7,5-0.8,7.6c-0.7,13.9,1.1,27.7,5.1,41
			c0.9,3.1-3.9,4.4-4.8,1.3c-3.2-10.7-5.1-21.8-5.5-33c-4.1,5.2-3.6,15.2-3.5,21C2.2,259.6,2.7,266.9,3.6,274.1z"/>
		<path class="st6" d="M433.3,302.3c-0.9,2.4-3.2,8.4-4,10.8c-3.1,8.6-6.5,17.1-10,25.6c-6.4,15.2-13.1,29.9-23.6,42.8
			c-21.1,25.7-51,41.8-82,52.5c-0.3,0.1-0.7,0.2-1.1,0.1c-15.8,27.2-57.8,27.7-84.3,17.9c-0.3-0.1-0.7-0.4-0.9-0.6
			c-2.4,1.7-5.2,2.6-8.1,2.6c-8.6,0.1-16.2-5.4-20.8-12.4c-1.5-2.3-2.5-4.8-3.2-7.5c-0.5,0.2-1,0.2-1.4,0
			c-18.3-6.3-36.2-14.3-52.2-25.4c-12.7-8.6-23.9-19.3-33.3-31.5c-10.3-13.7-16.7-29.6-23.1-45.4c-3.2-7.8-6.7-17.7-9.5-25.6
			c-6.9,3.5-13.4,6.6-21.9,8.6c-12.9,3-26.3,3.3-39.3,3.9c3.7,13,7.3,28.1,12.3,40.8c5.2,13.1,11.2,26,17.6,38.6
			C57,422.8,71,446.7,84,471.2c25.5,47.7,45.1,97.9,57.5,150.6h224.4c7-29.6,16.2-58.7,27.5-86.9c20.6-51.1,50.6-97.3,74.5-146.8
			c6.1-12.7,12.1-25.7,16.5-39.2c2.7-8.4,5.4-19,7.8-27.5C471.7,317.9,452.4,310.4,433.3,302.3z M254.5,572.4
			c-3.1,0.5-4.5-4.3-1.3-4.8c13.6-2.1,19.7-16.3,17.1-28.8c-2.9-14.3-23.3-14.5-34-10.3c-3,1.2-4.3-3.7-1.3-4.8
			c13.4-5.3,36.5-3.2,40.2,13.8C278.4,552.4,270.8,569.8,254.5,572.4z M329.8,564.5c-3.1,0.5-4.5-4.3-1.3-4.8
			c13.6-2.1,19.7-16.3,17.1-28.8c-2.9-14.3-23.3-14.5-34-10.3c-3,1.2-4.3-3.7-1.3-4.8c13.4-5.3,36.5-3.2,40.2,13.8
			C353.7,544.5,346.1,561.9,329.8,564.5z"/>
		<path class="st6" d="M433.3,302.3c-0.9,2.4-3.2,8.4-4,10.8c-3.1,8.6-6.5,17.1-10,25.6c-6.4,15.2-13.1,29.9-23.6,42.8
			c-21.1,25.7-51,41.8-82,52.5c-0.3,0.1-0.7,0.2-1.1,0.1c-15.8,27.2-57.8,27.7-84.3,17.9c-0.3-0.1-0.7-0.4-0.9-0.6
			c-2.4,1.7-5.2,2.6-8.1,2.6c-8.6,0.1-16.2-5.4-20.8-12.4c-1.5-2.3-2.5-4.8-3.2-7.5c-0.5,0.2-1-0.8-1.4-1c-18.3-6.3-36-13.8-52-24.9
			c-12.7-8.6-23.6-18.8-33-31c-10.3-13.7-16.5-29.3-22.9-45.1c-3.2-7.8-7.3-17.9-10.1-25.8c-6.9,3.5-13.4,6.6-21.9,8.6
			c-12.9,3-26.3,3.3-39.3,3.9c3.7,13,7.3,28.1,12.3,40.8c5.2,13.1,11.2,26,17.6,38.6C57,422.8,71,446.7,84,471.2
			c25.5,47.7,45.1,97.9,57.5,150.6h224.4c7-29.6,16.2-58.7,27.5-86.9c20.6-51.1,50.6-97.3,74.5-146.8c6.1-12.7,12.1-25.7,16.5-39.2
			c2.7-8.4,5.4-19,7.8-27.5C471.7,317.9,452.4,310.4,433.3,302.3z M254.5,572.4c-3.1,0.5-4.5-4.3-1.3-4.8
			c13.6-2.1,19.7-16.3,17.1-28.8c-2.9-14.3-23.3-14.5-34-10.3c-3,1.2-4.3-3.7-1.3-4.8c13.4-5.3,36.5-3.2,40.2,13.8
			C278.4,552.4,270.8,569.8,254.5,572.4z M329.8,564.5c-3.1,0.5-4.5-4.3-1.3-4.8c13.6-2.1,19.7-16.3,17.1-28.8
			c-2.9-14.3-23.3-14.5-34-10.3c-3,1.2-4.3-3.7-1.3-4.8c13.4-5.3,36.5-3.2,40.2,13.8C353.7,544.5,346.1,561.9,329.8,564.5z"/>
		<path class="st8" d="M437,288.7c-0.4,2.6-0.9,5.2-1.7,7.8c18.9,8.2,38.8,13.9,59.2,16.9c0.5-1.5,0.9-3,1.4-4.5
			c4.4-13,7.3-26.5,8.6-40.1c0.6-6.6,1-13.2,1-19.9c0-5-0.1-12.9-3.5-17.4c-0.4,11.2-2.2,22.2-5.5,32.9c-0.9,3.1-5.7,1.8-4.8-1.3
			c2.8-9.2,4.5-18.6,5.1-28.2c0.2-4.3,0.3-8.5,0.1-12.8c0-2.5-0.3-5.1-0.8-7.6c-0.2-1.2-0.7-2.4-1.4-3.4c-1.5-2.5-3.6-2.6-6.1-0.1
			c-0.1,0.5-0.4,0.9-0.8,1.2c2.1,15.4-1.3,31.6-4.2,46.5c-0.6,3.2-5.4,1.8-4.8-1.3c2.4-11.9,4.7-24,4.5-36.2
			c-0.1-5.6,0-13.3-2.8-18.3c-4.1-7.1-10.9,5.6-11.5,9.2c0,0.1-0.1,0.3-0.1,0.4c1.9,4.7,2.2,11.6,2.2,14.6
			c0.1,10.4-3.1,20.4-6.3,30.1c-1,3-5.8,1.7-4.8-1.3c2.5-7.6,5.1-15.4,5.9-23.4c0.4-3.9,0.3-7.9-0.3-11.7c-0.3-1.7-0.7-3.5-1.3-5.1
			c-0.8-2.2-0.5-2.8-2.3-1.9c-2.6,1.2-3.6,6.1-4.4,8.5c-1,3.3-2,6.6-2.9,9.9c-2,7.2-3.9,14.5-5.6,21.9v0.1
			c4.6,5.8,5.4,13.6,5.3,20.8c0,3.2-5,3.2-5,0c0.1-5.9-0.3-12.1-3.8-17.1c-1.7-2.4-4.1-4.6-7.2-4.1c-4.5,0.6-3.9,5.6-3.3,8.9
			C436.6,271.4,438.2,279.7,437,288.7z"/>
		<path class="st8" d="M313,377.7c-2.1-7.6-5.3-15.7-10.4-21.8c-5-5.7-11-10.3-17.7-13.8c-13.9-7.2-29.8-9.7-45.2-7
			c8.1,11.1,7.4,27.3-4,36c-7.3,5.6-18.4,8.1-22.7,17c-4.8,10.1-2.9,22.3,4.1,30.9c0.3,0.4,0.5,1,0.4,1.5c0.5,0.4,1,0.9,1.5,1.4
			c1.6,1.8-1,4.4-2.6,2.6c-4.1-4.5-12-6.9-16-0.8c-3.2,4.7-1.6,10.8,1.1,15.3c2.2,3.7,5.3,6.8,9,8.9c2.7,1.6,5.8,2.4,9,2.3
			c3.4-0.1,9.4-2,7.3-6.7c-1-2.2,2.3-4.1,3.2-1.9c1.1,2.2,1.1,4.8,0,6.9c16.7,6.2,34.9,7.1,52.1,2.7c16-4.2,27.3-13.6,31.9-29.7
			C317.7,407.4,316.9,391.6,313,377.7z M279.4,347.4c3.6,0,6.5,2.9,6.5,6.5s-2.9,6.5-6.5,6.5s-6.5-2.9-6.5-6.5l0,0
			C272.9,350.4,275.8,347.5,279.4,347.4L279.4,347.4z M257,355.9c9.5,3.1,23.2,5.3,29.7,13.7c5.4,7,3.6,16.1-5.5,18.1
			c-2.4,0.5-3.4-3.1-1-3.6c6.1-1.3,7.3-6.3,4.2-11.2c-2-3.2-5.3-5.1-8.7-6.6c-6.3-2.8-13.2-4.6-19.8-6.8
			C253.6,358.7,254.6,355.1,257,355.9L257,355.9z M236.1,388.9c-3.9,0-7.1-3.2-7.1-7.1s3.2-7.1,7.1-7.1c3.9,0,7.1,3.2,7.1,7.1l0,0
			C243.2,385.7,240,388.9,236.1,388.9C236,388.8,236,388.8,236.1,388.9L236.1,388.9z M310.5,395c-3.9,12.5-14.3,20.6-27.1,22.3
			c-13.9,1.8-30-0.3-39.3-11.8c-1.5-1.9,1.1-4.5,2.6-2.6c8,9.9,21.1,11.9,33.2,11c12.5-0.9,23.1-7.5,27-19.8
			C307.5,391.6,311.2,392.6,310.5,395L310.5,395z"/>
		<path class="st0" d="M255.9,359.5c6.6,2.2,13.4,4,19.8,6.8c3.4,1.5,6.7,3.4,8.7,6.6c3.1,4.9,1.8,9.9-4.2,11.2
			c-2.4,0.5-1.4,4.1,1,3.6c9.1-2,10.9-11.1,5.5-18.1c-6.5-8.4-20.2-10.5-29.7-13.7C254.6,355.1,253.6,358.7,255.9,359.5z"/>
		<circle class="st8" cx="236" cy="381.7" r="7.1"/>
		<circle class="st10" cx="279.3" cy="353.9" r="6.5"/>
		<path class="st6" d="M235,523.6c-3,1.2-1.7,6,1.3,4.8c10.7-4.2,31.1-4.1,34,10.3c2.6,12.6-3.5,26.7-17.1,28.8
			c-3.2,0.5-1.8,5.3,1.3,4.8c16.3-2.5,23.9-20,20.6-35C271.5,520.4,248.4,518.3,235,523.6z"/>
		<path class="st6" d="M310.3,515.8c-3,1.2-1.7,6,1.3,4.8c10.7-4.2,31.1-4.1,34,10.3c2.6,12.6-3.5,26.7-17.1,28.8
			c-3.2,0.5-1.8,5.3,1.3,4.8c16.3-2.5,23.9-20,20.6-35C346.7,512.5,323.7,510.4,310.3,515.8z"/>
		<path class="st5" d="M275.4,198.3c-10.8-15.7-26.5-36.8-33.7-54.4c-3.8-9.1-7-18.6-7.9-28.5s0.9-20.2,6.5-28.4
			c0.9-1.6,2.3-2.8,3.9-3.6c3.2-1.2,6.6,1,9.1,3.3c9.7,8.7,16.7,19.9,20.3,32.3c5.3-18.9,20.7-35.7,40.1-38.5
			c2.2-0.3,4.6-0.4,6.6,0.6c1.8,1,3.2,2.6,4.1,4.4c4.5,8,5.3,17.7,3.6,26.7s-5.6,17.5-9.8,25.6C306.8,159.9,292.4,180.2,275.4,198.3
			"/>
		<path class="st5" d="M277.6,197.1c-15.1-21.9-31.9-43.5-39-69.6c-2.1-7.1-2.8-14.6-2.2-22c0.6-5.5,3.8-21.7,12.1-19.2
			c2.8,0.9,5.8,4.6,7.7,6.8c2.2,2.4,4.3,5,6.1,7.7c3.9,5.8,7,12.2,9,19c0.4,1.3,1.8,2.1,3.1,1.7c0.8-0.2,1.4-0.9,1.7-1.7
			c3.9-13.1,12.2-25.2,24.3-32c3.1-1.8,6.4-3.1,9.9-4c5.7-1.4,9.9-1.4,12.8,4.5c3.7,7.4,4,16.3,2.4,24.3
			c-3.2,16-12.7,31.1-21.4,44.7c-9,14-19.2,27.1-30.5,39.2c-2.2,2.4,1.3,5.9,3.5,3.5c10.4-11.2,19.9-23.1,28.4-35.8
			c8.6-12.9,17.1-26.8,22.3-41.6c4.4-12.5,5.8-28.1-2-39.7c-6.9-10.3-22.9-3.1-31,2.3c-11.6,7.7-19.7,19.8-23.6,33.1h4.8
			c-2.3-8-6-15.5-10.8-22.2c-3.9-5.4-9.1-12.4-15.6-14.8c-14-5.4-18.5,20.1-18.5,29c-0.1,16.4,6.6,32.9,14.5,47
			c8.1,14.7,18.2,28.3,27.7,42.1c1.8,2.6,6.1,0.1,4.3-2.5L277.6,197.1z"/>
		<path class="st0" d="M202.4,431c5.1,4,10.5,7.6,16.2,10.8c2.1,1.2,4-2,1.9-3.2c-5.6-3.2-11-6.9-16.2-10.8
			C202.3,426.3,200.5,429.6,202.4,431z"/>
		<path class="st0" d="M210.5,427.1c-0.1,5.4-0.3,10.8-0.7,16.2c-0.1,2.4,3.6,2.4,3.8,0c0.3-5.4,0.5-10.8,0.7-16.2
			C214.3,424.7,210.6,424.7,210.5,427.1z"/>
		<path class="st10" d="M306.8,393.9c-3.9,12.3-14.5,18.9-27,19.8c-12.1,0.9-25.2-1.1-33.2-11c-1.5-1.9-4.1,0.8-2.6,2.6
			c9.3,11.5,25.5,13.6,39.3,11.8c12.9-1.7,23.2-9.8,27.1-22.3C311.2,392.6,307.5,391.6,306.8,393.9z"/>
		<path class="st10" d="M256.4,345.1c-0.6-6.6,6-9.5,11.5-10.7c2.4-0.5,1.4-4.1-1-3.6c-7,1.5-15,5.9-14.2,14.3
			C252.8,347.5,256.6,347.5,256.4,345.1z"/>
		<path class="st10" d="M232.9,384.9c0.4-3.2,1.2-6.8,3.7-9c2.7-2.5,6.4-3.2,9.9-3.5c2.4-0.2,2.4-3.9,0-3.8
			c-4.6,0.3-9.1,1.4-12.5,4.6c-3.2,3-4.3,7.4-4.8,11.7C228.8,387.3,232.6,387.3,232.9,384.9L232.9,384.9z"/>
		<circle class="st10" cx="245.9" cy="386.3" r="7.1"/>
		<path class="st5" d="M332.9,163.2c12.4,9.2,26,16.6,40.4,22.1c6,2.3,8.6-7.3,2.7-9.6c-13.6-5.3-26.3-12.4-38-21.1
			C332.8,150.7,327.8,159.4,332.9,163.2L332.9,163.2z"/>
		<path class="st5" d="M366.8,101.3l48-2.4c6.4-0.3,6.4-10.3,0-10l-48,2.4C360.4,91.6,360.4,101.6,366.8,101.3z"/>
		<path class="st5" d="M292,46.8c-0.1-14-1-28.1-2.5-42c-0.7-6.3-10.7-6.4-10,0c1.5,13.9,2.4,28,2.5,42
			C282.1,53.2,292.1,53.2,292,46.8z"/>
		<path class="st5" d="M171.8,54.2l31.8,19.7c5.5,3.4,10.5-5.2,5-8.6l-31.7-19.7C171.4,42.2,166.3,50.8,171.8,54.2L171.8,54.2z"/>
		<path class="st5" d="M181.2,187.7l37.2-20.8c5.6-3.1,0.6-11.8-5-8.6L176.2,179C170.6,182.1,175.6,190.8,181.2,187.7L181.2,187.7z"
			/>
	</g>
</g>
<path class="st11" d="M216.9,421.2c0,0-23.6-14.1-19.6,12.4l1.7-0.4c0,0-1.3-8.6,3.2-11.5c4.6-2.9,10.3-0.1,10.3-0.1l5.2,3.1
	c0,0,1.7-0.7,1-1.4"/>
<path class="st11" d="M216.7,421.1c0,0-7.1-5.4-13.9-3.3l15.1,4.8L216.7,421.1z"/>
<polygon class="st5" points="196.9,431.3 197.3,433.6 195.8,432.5 196.3,431.4 "/>
<path class="st6" d="M194.4,434.1l2.2-0.4c0,0,1.5,11.4,10.5,15.1s12.8,4.6,12.8,4.6l-5.6,1.1l-18.4-4.6L194.4,434.1z"/>
<path class="st8" d="M448.9,254.1l-1.1,2.5c0,0,5,9.1,3.5,24.4s6.1,3.4,6.1,3.4l0.4-17.3L448.9,254.1z"/>
<path class="st8" d="M463.1,213.3c0,0,5.6-0.2,5.4,9.7s-7.1,39.6-7.1,39.6l-5.2-6.1L463.1,213.3z"/>
<path class="st8" d="M487.9,212.2l-1.8,2.2c0,0,1.6,24.9-6.8,49.1s6.6,0,6.6,0l6.2-45L487.9,212.2z"/>
<path class="st8" d="M502.1,231.4l-1.5-2.1c0,0-0.3,17.7-8.9,42.3c-8.6,24.6,7.2-2.1,7.2-2.1l2.5-16.4L502.1,231.4z"/>
<polygon class="st8" points="65.5,263.7 58,279.3 66.2,274.9 "/>
<path class="st8" d="M58.7,254l0.7,2.6c0,0-6,9.6-2.9,22.6s-10-1.6-10-1.6L46,258.9c0,0-15.1-39.2-1.2-45.5L58.7,254z"/>
<path class="st8" d="M19,211l2.5,2.4c0,0-1.4,23.3,6.5,49.3c7.9,26-8-5.4-8-5.4L19,211z"/>
<path class="st8" d="M5.6,231.4l2.5-2.6c0,0,0.8,24.1,7,41.1s-6.9,0-6.9,0L5.6,231.4z"/>
<polygon class="st8" points="14.6,220.7 20.6,217.5 19.5,233.3 15.2,225.4 "/>
</svg>
