<svg xmlns="http://www.w3.org/2000/svg" viewBox="0 0 621.35 713.65"><defs><style>.\30 b011b58-71cc-4677-8ceb-d7e1b71e648c{fill:#384093;}.\39 26ac1f8-a97b-4067-a242-6dd17874c4e9{fill:#e9474d;}.\36 9113301-0909-46f5-929d-daaa99cbcf86{fill:#3bb4ce;}.\33 99ae922-04a5-4e96-afda-ad35fe5e0b7f{fill:#efa78e;}.ffd3aa01-e835-4118-b5c2-4bfd5bb606fd{fill:#c6c6c6;}.\33 75f2ecc-8304-429f-bbb8-1811e03fc5ae{fill:#f18b64;}.\34 1a94258-2033-4e21-b6ac-ffc564ed8e9e{fill:#f9b233;}.a874a19c-2b73-40b4-95c8-d83c3999ae01{fill:#009640;}.ce07d55f-7d15-4428-9564-0c8feb03f0db{fill:#d93e51;}.\39 1ba1cba-69ca-42d0-b511-8159c5cdb1e8{fill:#2c3a80;}.\30 02e511d-9113-4dee-8b5b-d7390373a895{fill:#f0956f;}.b63530b3-4a7f-4a1e-a659-d3baad875da8{fill:#f39200;}.e210f3c6-ff42-43f7-9499-cd383c40410e{fill:#b2b2b2;}</style></defs><title>Fichier 2</title><g id="23223b54-6150-44ba-b8c4-11519c865467" data-name="Calque 2"><g id="2e9767b3-0c1a-4557-9f2f-71ea6e339628" data-name="Calque 1"><path class="0b011b58-71cc-4677-8ceb-d7e1b71e648c" d="M254.84,197.81a16,16,0,0,1,9.42,1.44c4.6,2.53,5.37,9.05,5.22,14.18a55.56,55.56,0,0,0,57.43-31.13,1.29,1.29,0,0,1,2.49-.22c8.54,23.28,36.76,34.87,60.17,29.55,10.33-2.34,20.15-6.17,30.79-2.8A21.87,21.87,0,0,1,431.65,217c-2.9-16.21-9.07-32-20.73-43.92C366.69,128,280.83,138.26,254.84,197.81Z"/><path class="926ac1f8-a97b-4067-a242-6dd17874c4e9" d="M215.59,209.62l2.27,5.25c.25-.86.51-1.71.8-2.56C217.67,211.38,216.64,210.49,215.59,209.62Z"/><path class="0b011b58-71cc-4677-8ceb-d7e1b71e648c" d="M200,212.59c3.58-2.62,13-5.47,17.11-6.83C215.46,202,210.62,194,209,190.2,206,195.65,201.45,206.49,200,212.59Z"/><path class="0b011b58-71cc-4677-8ceb-d7e1b71e648c" d="M218.09,231.3c1-.89,6.45-3.42,7.54-4.17-.85-1.95-5.59-8.54-6.44-10.5C218.79,219.37,218.08,228.48,218.09,231.3Z"/><path class="69113301-0909-46f5-929d-daaa99cbcf86" d="M321.66,679.4q7.14,5.22,14.54,10.07,11.15,7.28,22.82,13.67c3.42,1.87,11.64,8.3,13.86,2.82.84-2.08.43-5.79.56-8l.45-8c.64-11.29,1.39-22.59,2.06-33.9a1.32,1.32,0,0,1-.34,0C354.79,651.94,329.93,657.83,321.66,679.4Z"/><path class="69113301-0909-46f5-929d-daaa99cbcf86" d="M369.74,708.5c-2.74,0-6.26-2.19-8.93-3.85-.77-.48-1.42-.89-2-1.18-7.74-4.24-15.43-8.84-22.85-13.69-4.72-3.08-9.62-6.47-14.56-10.07l-.23-.17.1-.27c3.85-10,11.63-17.5,22.49-21.53,9.47-3.52,20.8-4.25,31.89-2.08a.62.62,0,0,0,.24,0h.42l0,.41c-.28,4.71-.58,9.42-.87,14.12-.41,6.6-.82,13.19-1.19,19.79l-.46,8c0,.65,0,1.44,0,2.27,0,2,.05,4.33-.57,5.87a3.58,3.58,0,0,1-2.21,2.21A4.13,4.13,0,0,1,369.74,708.5Zm-47.63-29.23c4.85,3.53,9.66,6.85,14.3,9.88,7.4,4.84,15.07,9.44,22.79,13.66.56.31,1.23.72,2,1.2,2.82,1.75,7.08,4.41,9.59,3.58a2.81,2.81,0,0,0,1.74-1.77c.57-1.4.54-3.62.52-5.58,0-.85,0-1.65,0-2.32l.46-8c.37-6.59.78-13.19,1.19-19.78q.44-6.89.85-13.75h0C347,650.79,328.2,663.81,322.11,679.27Z"/><path class="399ae922-04a5-4e96-afda-ad35fe5e0b7f" d="M334.76,454.76c-3.95,7.34-12.6,11.24-19.5,15.17-11.5,6.54-23.44,12.73-36.64,14.87a1.16,1.16,0,0,1-.21,1.4c-3.89,4-.15,9.87,4.1,11.34,3.93,1.35,8.43,1.33,12.54,1.08,9.24-.56,18.18-3.75,26.53-7.57,6.87-3.15,15.25-6.56,20.15-12.56A14.89,14.89,0,0,0,334.76,454.76Z"/><path class="399ae922-04a5-4e96-afda-ad35fe5e0b7f" d="M319.39,415.64c-.06-.06-.1-.12-.15-.18a1.29,1.29,0,0,1-.42-.06c-7.57-2.51-17.65,2.73-24.62,5.68a134.63,134.63,0,0,0-19,9.74,62.1,62.1,0,0,0-14.94,12.56c-3.81,4.6-13.46,19.88-2.73,22.62,6.93,1.77,16.78-2.79,23-5.54a164.55,164.55,0,0,0,18.36-9.53C308.27,445.28,332.49,428.32,319.39,415.64Z"/><path class="399ae922-04a5-4e96-afda-ad35fe5e0b7f" d="M291.82,655a348.59,348.59,0,0,0,27.75,22.86c9-22.21,34.58-28.55,56.53-24.31.54-9.27,1-18.55,1.33-27.82.7-20.7-.7-41.36-7.07-61.17a1.19,1.19,0,0,1-.05-.58,1.16,1.16,0,0,1-.57-.57l-.22-.46a1.07,1.07,0,0,1-.76.18A145,145,0,0,0,305,571.08a143.3,143.3,0,0,0-29.53,14.71c-9,5.87-20.24,13.16-23.92,23.78a1.25,1.25,0,0,1-.66.74A346.9,346.9,0,0,0,291.82,655Z"/><path class="0b011b58-71cc-4677-8ceb-d7e1b71e648c" d="M248.84,199.27a23.22,23.22,0,0,1,3.48-1,1.29,1.29,0,0,1,0-1,87.9,87.9,0,0,1,34.16-39.82c20.75-13.09,46.42-17.47,70.68-13.73,9.45-7.06,21.05-7.95,32.48-7.67a56.66,56.66,0,0,0-32.82-4.88c-1,.15-2.05-.82-1.41-1.84a126.37,126.37,0,0,1,54.07-47.51c-46.63-12.25-93.47,7.2-131.39,33.94a1.25,1.25,0,0,1-1.88-1.08,57.42,57.42,0,0,1,16.12-34.36c-10.85,2.85-21.05,8.25-28.41,16.9-8.87,10.44-12.25,25-7.66,38a1.26,1.26,0,0,1-1.21,1.58,81.31,81.31,0,0,0-59.34,21.75,103.11,103.11,0,0,1,46.81.79,1.08,1.08,0,0,1,.76.58,1.36,1.36,0,0,1-.19,2.41,72.35,72.35,0,0,0-35,30.16q2.91,6.69,5.8,13.4a43.23,43.23,0,0,1,8.72-1.39,1.27,1.27,0,0,1,1.08,1.88,56.5,56.5,0,0,0-4.29,12.23l3.85,8.89a31.49,31.49,0,0,1,7-3C232.09,213.74,238.25,203.34,248.84,199.27Z"/><path class="ffd3aa01-e835-4118-b5c2-4bfd5bb606fd" d="M90.68,101.3a272.3,272.3,0,0,0-34,14.75c-10.07,5.21-21.15,10.49-28.18,19.7Q36,154,43.47,172.21c6.22-7.61,15-12.12,23.58-16.78,10.72-5.82,21.29-11.69,32.82-15.78a372.76,372.76,0,0,1,75.26-18,1.42,1.42,0,0,1,.55,0Q168,103.55,159.61,85.66A311.36,311.36,0,0,0,90.68,101.3Z"/><path class="926ac1f8-a97b-4067-a242-6dd17874c4e9" d="M52.86,115.23a281.57,281.57,0,0,1,33.75-15.11,312.28,312.28,0,0,1,72.31-16.88,1.21,1.21,0,0,1-.25-.73c-.15-12.66-3.29-24.81-7.56-36.66-3.65-10.13-7.69-20.33-15.08-28.38C121.55,1.7,98.79,1.08,78.87,3.31,58.79,5.56,37.13,12.15,20.8,24.41,2.43,38.2.33,62.08,4.26,83.11c3.51,18.79,8.83,36.79,22.93,50.3C34,125.15,43.53,120.16,52.86,115.23Z"/><path class="926ac1f8-a97b-4067-a242-6dd17874c4e9" d="M241.53,260.26c-9.59-7.14-12.63-21.53-11.53-33a28.74,28.74,0,0,0-5.67,2.54l30,69.32a10.06,10.06,0,0,1,.16-1.12,76.35,76.35,0,0,1-9-35.61A16,16,0,0,1,241.53,260.26Z"/><path class="399ae922-04a5-4e96-afda-ad35fe5e0b7f" d="M433.41,228.42a1.31,1.31,0,0,1-.3-.73c-.05-.56-.12-1.13-.18-1.69a1.24,1.24,0,0,1-.18-.42c-3.08-13.59-17-17.14-29.3-15-5.94,1-11.54,3.43-17.53,4.18a61.44,61.44,0,0,1-15.15-.11c-18.24-2.21-35.15-12.22-42.67-29.21a58.06,58.06,0,0,1-58.76,30.43h0c-.14,1.6-2.64,1.61-2.5,0,.58-6.86-.86-15.3-9.26-15.64A21.08,21.08,0,0,0,245,204.11c-8.09,5.49-12,15.2-12.61,24.68s1.75,20.2,8.28,27.31a14.36,14.36,0,0,0,5.3,3.72,1.27,1.27,0,0,1,2,.59c6.27,1.35,13-2.15,16.43-8.47.77-1.41,2.93-.15,2.16,1.26-3.73,6.84-11.28,11.18-18.56,9.88A73.16,73.16,0,0,0,255.75,295c2.45-3.93,7.62-6.66,12.62-8.26a43.61,43.61,0,0,1-3.08-13.92c-.11-2.42,3.64-2.41,3.75,0,.65,14.14,9.87,26.81,19.38,36.68,10.08,10.45,23.07,18,37.9,18.07,2.41,0,2.41,3.76,0,3.75-15.8-.06-29.79-8-40.55-19.17q-1.86-1.94-3.68-4s-.09.07-.15.1c-4.16,2.32-8.41,5-13.23,5.27,11.59,12.25,26.47,21,43.14,24.28,17.45,3.39,35.6.73,52.47-4.29,13.67-4.07,27-10,38.31-18.79,26.68-20.56,33.86-53.53,30.72-85.72A1.15,1.15,0,0,1,433.41,228.42Zm-178,19.28L251,238.16c-.79,3.06-1.6,6.12-2.45,9.17s-5.68,1.78-4.82-1.33q2.07-7.47,3.92-15-2.91-6.26-5.84-12.5c-1.35-2.9,3-5.44,4.32-2.52l3.39,7.24q1.16-5,2.23-10c.67-3.15,5.49-1.81,4.82,1.33q-1.71,8-3.64,15.95,3.42,7.34,6.85,14.66C261.09,248.07,256.78,250.61,255.42,247.7Zm68,5.5a11.15,11.15,0,1,1,11.14-11.14A11.14,11.14,0,0,1,323.39,253.2Zm23-30.44c-12.54-8.9-32-12.67-46-5.45-2.86,1.48-5.38-2.84-2.52-4.31,15.6-8.05,37-4.54,51.08,5.44C351.54,220.29,349,224.62,346.41,222.76ZM390,292.21c-1.87,11.25-13.32,23.26-25.12,15.62-2-1.31-.13-4.55,1.9-3.24,5.65,3.66,12.82.93,16.36-4.38,3.19-4.77,3.76-10.82,3.66-16.41a75.35,75.35,0,0,0-9.94-35.4c-1.18-2.11,2.06-4,3.24-1.89C387.6,259.9,392.54,276.76,390,292.21Zm11-29a10,10,0,1,1,10-10A10,10,0,0,1,400.94,263.18Zm19.18-24.86c-3.95-10.48-16.74-14.54-26.84-12.14-3.13.75-4.46-4.07-1.33-4.82,13-3.09,28,2.48,33,15.63C426.08,240,421.25,241.3,420.12,238.32Z"/><path class="375f2ecc-8304-429f-bbb8-1811e03fc5ae" d="M91.44,373.52c3.08,7.65,7,14.83,9.59,22.68,5.2,15.61,8.18,31.91,18.16,45.43a1.06,1.06,0,0,1-.5,1.66,1.29,1.29,0,0,1,.63,1.75,128.69,128.69,0,0,0-8.94,24.17,1.34,1.34,0,0,1,0,.44,132.7,132.7,0,0,0-4.15,32.55h0c0,.25,0,.51,0,.76,0,1.05,0,2.11.06,3.16h86.81a4.68,4.68,0,0,1,3.14,1.09c-9.9-17.73-19.73-35.53-26.92-54.49a1.34,1.34,0,0,1-.56-2.39c13.64-9.58,9.22-33.05,6-46.6-4.06-17.12-11.59-33.15-19.71-48.68a1.52,1.52,0,0,0-.39-.68c-7.22-15.52-8.89-32.26-7.33-49.17.79-8.53,2.83-16.81,3.92-25.27,1-7.39-3.09-17.67-12.1-16.39-.34,1.12-.7,2.23-1.06,3.32a138.4,138.4,0,0,0-5.75,22.22c-2.45,15.51-2,31.3-.32,46.87.17,1.6-2.33,1.58-2.5,0-2.42-23-1.89-46,5.57-68.05,2-5.79,5.13-13.46,2.08-19.4-2.09-4.06-8.67-4.31-12.24-2-6.26,4.08-8.36,11.55-11.08,18.14l-.06.39c-.94,4.5-3.26,8.76-4.66,13.14a107,107,0,0,0-3.9,48.37c.23,1.57-2.18,2.25-2.41.66a110.57,110.57,0,0,1,6-55.55c1.68-4.38,6.11-15.86-3.9-13.91-4.62.9-8.81,6.13-11.49,9.71-5.41,7.22-8.67,15.82-10.47,24.6-3.69,18-2.67,37.68.89,55.61A145.48,145.48,0,0,0,91.44,373.52Z"/><path class="399ae922-04a5-4e96-afda-ad35fe5e0b7f" d="M118.69,443.29a1.29,1.29,0,0,1,.63,1.75,129.71,129.71,0,0,0-5.91,14.2,5.69,5.69,0,0,1,.93.32c15.12,6.83,32.21,8.05,48.59,7.92q6.18-.06,12.33-.51c-2.13-4.69-4.13-9.43-6-14.25a1.34,1.34,0,0,1-.56-2.39c13.64-9.58,9.22-33.05,6-46.6-4.06-17.12-11.59-33.15-19.71-48.68a1.52,1.52,0,0,0-.39-.68c-7.22-15.52-8.89-32.26-7.33-49.17.79-8.53,2.83-16.81,3.92-25.27,1-7.39-3.09-17.67-12.1-16.39-.34,1.12-.7,2.23-1.06,3.32a138.4,138.4,0,0,0-5.75,22.22c-2.45,15.51-2,31.3-.32,46.87.17,1.6-2.33,1.58-2.5,0-2.42-23-1.89-46,5.57-68.05,2-5.79,5.13-13.46,2.08-19.4-2.09-4.06-8.67-4.31-12.24-2-6.26,4.08-8.36,11.55-11.08,18.14l-.06.39c-.94,4.5-3.26,8.76-4.66,13.14a107,107,0,0,0-3.9,48.37c.23,1.57-2.18,2.25-2.41.66a110.57,110.57,0,0,1,6-55.55c1.68-4.38,6.11-15.86-3.9-13.91-4.62.9-8.81,6.13-11.49,9.71-5.41,7.22-8.67,15.82-10.47,24.6-3.69,18-2.67,37.68.89,55.61a145.48,145.48,0,0,0,7.65,25.84c3.08,7.65,7,14.83,9.59,22.68,5.2,15.61,8.18,31.91,18.16,45.43A1.06,1.06,0,0,1,118.69,443.29Z"/><path class="926ac1f8-a97b-4067-a242-6dd17874c4e9" d="M106.27,506.12h86.81a4.68,4.68,0,0,1,3.14,1.09c-5.64-10.1-11.26-20.24-16.38-30.59-6.25.57-12.52.87-18.8.86-17.26,0-34.59-1.86-50.53-8.76l-.13.49a1.34,1.34,0,0,1,0,.44,132.7,132.7,0,0,0-4.15,32.55h0c0,.25,0,.51,0,.76C106.22,504,106.23,505.07,106.27,506.12Z"/><path class="926ac1f8-a97b-4067-a242-6dd17874c4e9" d="M342.5,501.13l2.21,4.6.2,0a5.1,5.1,0,0,1,2.63-.15l.43.07h29.16a169,169,0,0,0-29.39-35.44,16.89,16.89,0,0,1-.9,4.33,18.18,18.18,0,0,1-1.76,3.63,1.18,1.18,0,0,1,1,.86c2.48,8.07.28,15.55-4.37,21.51A1.05,1.05,0,0,1,342.5,501.13Z"/><path class="399ae922-04a5-4e96-afda-ad35fe5e0b7f" d="M340.29,502.25a37.11,37.11,0,0,1-13.05,9.14c-12.48,5.26-27.24,3.47-35.83-7.66-1-1.27,1.19-2.52,2.16-1.26,15.57,20.17,57.95,3.77,50.22-22.5-5.74,7.26-16.41,11.34-24.24,14.69-11,4.72-24.32,8.66-36.35,5.67-6.39-1.59-12-9.23-7.18-15.19-9.8.86-13.28-5.38-13.45-14.86a1.25,1.25,0,0,1,2.5,0c.1,5.38.66,11.86,7.39,12.58,4.65.5,10.07-1.27,14.49-2.58,9.25-2.75,17.76-7.16,26.09-12,5.6-3.23,11.79-6,16.39-10.69,2.81-2.84,4.83-6.38,4.77-10.48-.1-7-6.35-10.53-12.09-12.7a1.33,1.33,0,0,1-.47-.31A54.71,54.71,0,0,1,310,446.39c-11.68,9.11-26.4,17-40.77,20.79-4.85,1.28-11.92,3.14-16.27-.45-4.12-3.39-2.83-9.39-1.22-13.72,4.49-12.1,15.31-20.56,26.19-26.71a152.75,152.75,0,0,1,20.57-9.63c6.51-2.5,14-6,21-3.68a1.2,1.2,0,0,1,.69.54,1.14,1.14,0,0,1,1,.34c5.79,5.6,5,12.19,1.72,18.21,8.8,3.35,16.56,10.47,12.9,20.41a17.76,17.76,0,0,1,12,15.74,1.22,1.22,0,0,1,1.61.07,171.29,171.29,0,0,1,31,37.82H485.67a207.17,207.17,0,0,0-24.94-113.88c-.77-1.42,1.39-2.68,2.16-1.27a209.63,209.63,0,0,1,25.28,115.15H618.32a489.83,489.83,0,0,0-2.18-74.65c-6.41-60.18-23.88-119.66-51.87-173.37-12.94-24.84-30.13-47.43-57.58-56.71-23.8-8-51.09-6.07-72.1,8.26-1.14.77-2.21-.68-1.69-1.69a5.05,5.05,0,0,1-.69-.22,132.06,132.06,0,0,1,3.4,19.95,1.15,1.15,0,0,1-.06.54,1.31,1.31,0,0,1,.3.73c1.92,19.74.42,40.16-7.93,58.38-12.73,27.77-41.19,43.25-69.67,50.38-17.57,4.4-36.3,5.92-53.89.8a84.42,84.42,0,0,1-39.3-25.32,12.35,12.35,0,0,1-6.15-3.53q3.07,7.11,6.16,14.23,19.23,44.42,38.47,88.85c.63,1.46-1.52,2.73-2.16,1.26L287.2,381.26,225.82,239.49l-3.6-8.31a29.41,29.41,0,0,0-4.43,3.9,1.27,1.27,0,0,1-2.14-.89,59.21,59.21,0,0,1,1.22-15.37l-4.3-9.93a39.43,39.43,0,0,0-13.65,7.72,1.26,1.26,0,0,1-2.09-1.22,73.88,73.88,0,0,1,8.55-23.09l-13.14-30.36-.2.05a1.26,1.26,0,0,1-1.22-2.09l.37-.38-3.84-8.88a.65.65,0,0,1,0-.13l-.09-.17q-5.16-13.4-10.71-26.63a1,1,0,0,1-.72.4,382.05,382.05,0,0,0-70.27,16.23c-12,4-22.87,9.47-33.92,15.46-9.63,5.23-20.35,10-27,19.07C58.21,208.39,71.76,242,85.79,275.31c.82-1.7,1.69-3.38,2.67-5,3.52-5.85,9.6-14.48,17.07-15.16,3.81-.35,6.54,1.45,7.75,4.21,2.34-5.79,4.93-11.38,10.37-15,5.62-3.74,14.37-2.14,16.43,4.67,1.2,3.95.74,8-.25,12,5.24-.24,9.47,2.6,11.94,7.43,3.31,6.47,1.73,12.51.51,19.29-4,22-5.13,44.64,4.52,65.37a1.39,1.39,0,0,1,.1.33,1.15,1.15,0,0,1,.28.36c9.3,17.78,17.92,36.34,21.42,56.24,2.3,13.14,4.29,31.77-7.15,41.34,10.43,27.82,26.67,53.15,40.51,79.33,6.95,13.15,13.91,26.34,20,39.9,5.68,12.58,10.9,25.38,17.42,37.56,3.57-9.35,12.15-15.68,20.07-21.32a144.91,144.91,0,0,1,30.27-16.43,147,147,0,0,1,68.64-9.78L340.34,502.4S340.31,502.3,340.29,502.25Z"/><path class="926ac1f8-a97b-4067-a242-6dd17874c4e9" d="M380.39,506.12H485.67a207.17,207.17,0,0,0-24.94-113.88c-.77-1.42,1.39-2.68,2.16-1.27a209.63,209.63,0,0,1,25.28,115.15H618.32a489.83,489.83,0,0,0-2.18-74.65c-6.41-60.18-23.88-119.66-51.87-173.37-12.94-24.84-30.13-47.43-57.58-56.71-23.8-8-51.09-6.07-72.1,8.26-1.14.77-2.21-.68-1.69-1.69a5.05,5.05,0,0,1-.69-.22,132.06,132.06,0,0,1,3.4,19.95,1.15,1.15,0,0,1-.06.54,1.31,1.31,0,0,1,.3.73c1.92,19.74.42,40.16-7.93,58.38-12.73,27.77-41.19,43.25-69.67,50.38-17.57,4.4-36.3,5.92-53.89.8a84.42,84.42,0,0,1-39.3-25.32,12.35,12.35,0,0,1-6.15-3.53q3.07,7.11,6.16,14.23l37.4,86.37c.64-1.68-1.25,5.4,1.09,5.4,3.31,0,6-4.27,5.88-1.71,2.59-.36,7.51-1.81,10-1a1.2,1.2,0,0,1,.69.54,1.14,1.14,0,0,1,1,.34c5.79,5.6,5,12.19,1.72,18.21,8.8,3.35,16.56,10.47,12.9,20.41a17.76,17.76,0,0,1,12,15.74,1.22,1.22,0,0,1,1.61.07A171.29,171.29,0,0,1,380.39,506.12Z"/><path class="41a94258-2033-4e21-b6ac-ffc564ed8e9e" d="M340.29,502.25a37.11,37.11,0,0,1-13.05,9.14c-12.48,5.26-27.24,3.47-35.83-7.66-1-1.27,1.19-2.52,2.16-1.26,15.57,20.17,57.95,3.77,50.22-22.5-5.74,7.26-16.41,11.34-24.24,14.69-11,4.72-24.32,8.66-36.35,5.67-6.39-1.59-12-9.23-7.18-15.19-9.8.86-13.28-5.38-13.45-14.86a1.19,1.19,0,0,1,1.53-1.17,6.07,6.07,0,0,1,.32-.8c-4,.77-8.43.95-11.49-1.58-4.12-3.39-2.83-9.39-1.22-13.72,4.49-12.1,15.31-20.56,26.19-26.71a152.75,152.75,0,0,1,20.57-9.63l4.34-1.69c-.06-.12-.13-.24-.19-.37a1,1,0,0,1-1.24-.6L287.2,381.26,225.82,239.49l-3.6-8.31a29.41,29.41,0,0,0-4.43,3.9,1.27,1.27,0,0,1-2.14-.89,59.21,59.21,0,0,1,1.22-15.37l-4.3-9.93a39.43,39.43,0,0,0-13.65,7.72,1.26,1.26,0,0,1-2.09-1.22,73.88,73.88,0,0,1,8.55-23.09l-13.14-30.36-.2.05a1.26,1.26,0,0,1-1.22-2.09l.37-.38-3.84-8.88a.65.65,0,0,1,0-.13l-.09-.17q-5.16-13.4-10.71-26.63a1,1,0,0,1-.72.4,382.05,382.05,0,0,0-70.27,16.23c-12,4-22.87,9.47-33.92,15.46-9.63,5.23-20.35,10-27,19.07C58.21,208.39,71.76,242,85.79,275.31c.82-1.7,1.69-3.38,2.67-5,3.52-5.85,9.6-14.48,17.07-15.16,3.81-.35,6.54,1.45,7.75,4.21,2.34-5.79,4.93-11.38,10.37-15,5.62-3.74,14.37-2.14,16.43,4.67,1.2,3.95.74,8-.25,12,5.24-.24,9.47,2.6,11.94,7.43,3.31,6.47,1.73,12.51.51,19.29-4,22-5.13,44.64,4.52,65.37a1.39,1.39,0,0,1,.1.33,1.15,1.15,0,0,1,.28.36c9.3,17.78,17.92,36.34,21.42,56.24,2.3,13.14,4.29,31.77-7.15,41.34,10.43,27.82,26.67,53.15,40.51,79.33,6.95,13.15,13.91,26.34,20,39.9,5.68,12.58,10.9,25.38,17.42,37.56,3.57-9.35,12.15-15.68,20.07-21.32a144.91,144.91,0,0,1,30.27-16.43,147,147,0,0,1,68.64-9.78L340.34,502.4S340.31,502.3,340.29,502.25Z"/><path class="399ae922-04a5-4e96-afda-ad35fe5e0b7f" d="M291.48,501.35a5.37,5.37,0,0,1,.33.78,1.36,1.36,0,0,1,1.76.34c15.57,20.17,57.95,3.77,50.22-22.5-5.74,7.26-16.41,11.34-24.24,14.69C311,498.32,301.11,501.49,291.48,501.35Z"/><path class="41a94258-2033-4e21-b6ac-ffc564ed8e9e" d="M340.34,502.4s0-.1,0-.15a37.11,37.11,0,0,1-13.05,9.14c-12.18,5.13-26.5,3.53-35.17-6.88a4.66,4.66,0,0,1-4.8,4.41c-4.86,0-6-5.69-3.57-8.49l-.5-.1c-6.39-1.59-12-9.23-7.18-15.19-9.8.86-13.28-5.38-13.45-14.86a1.19,1.19,0,0,1,1.53-1.17,6.07,6.07,0,0,1,.32-.8c-4,.77-8.43.95-11.49-1.58-4.12-3.39-2.83-9.39-1.22-13.72,4.49-12.1,15.31-20.56,26.19-26.71a152.75,152.75,0,0,1,20.57-9.63l4.34-1.69c-.06-.12-.13-.24-.19-.37a1,1,0,0,1-1.24-.6L287.2,381.26,225.82,239.49l-3.6-8.31a29.41,29.41,0,0,0-4.43,3.9,1.27,1.27,0,0,1-2.14-.89,59.21,59.21,0,0,1,1.22-15.37l-4.3-9.93a39.43,39.43,0,0,0-13.65,7.72,1.26,1.26,0,0,1-2.09-1.22,73.88,73.88,0,0,1,8.55-23.09l-13.14-30.36-.2.05a1.26,1.26,0,0,1-1.22-2.09l.37-.38-3.84-8.88a.65.65,0,0,1,0-.13l-.09-.17q-5.16-13.4-10.71-26.63a1,1,0,0,1-.72.4,382.05,382.05,0,0,0-70.27,16.23c-12,4-22.87,9.47-33.92,15.46-9.63,5.23-20.35,10-27,19.07C58.21,208.39,71.76,242,85.79,275.31c.82-1.7,1.69-3.38,2.67-5,3.52-5.85,9.6-14.48,17.07-15.16,3.81-.35,6.54,1.45,7.75,4.21,2.34-5.79,4.93-11.38,10.37-15,5.62-3.74,14.37-2.14,16.43,4.67,1.2,3.95.74,8-.25,12,5.24-.24,9.47,2.6,11.94,7.43,3.31,6.47,1.73,12.51.51,19.29-4,22-5.13,44.64,4.52,65.37a1.39,1.39,0,0,1,.1.33,1.15,1.15,0,0,1,.28.36c9.3,17.78,17.92,36.34,21.42,56.24,2.3,13.14,4.29,31.77-7.15,41.34,10.43,27.82,26.67,53.15,40.51,79.33,6.95,13.15,13.91,26.34,20,39.9,5.68,12.58,10.9,25.38,17.42,37.56,3.57-9.35,12.15-15.68,20.07-21.32a144.91,144.91,0,0,1,30.27-16.43,147,147,0,0,1,68.64-9.78Z"/><path class="926ac1f8-a97b-4067-a242-6dd17874c4e9" d="M103.76,506.12c0-1.05-.05-2.11-.05-3.16a131.64,131.64,0,0,1,7.75-45.65,1.26,1.26,0,0,1,.08-.45,137.29,137.29,0,0,1,5.62-13.08,1,1,0,0,1,.4-.47,1.32,1.32,0,0,1-.53-.42c-12.82-17.36-14.31-39.43-23.44-58.52a154.61,154.61,0,0,1-14.93-56.86c-1.07-16.18-.57-33.83,5.75-49.09q-8.22-19.5-16.24-39.07C54,253.3,45.15,271,37,288.93c-3.68,8.12-6.23,16.49-9.14,24.93q-4.74,13.72-8.13,27.85a327.39,327.39,0,0,0-8.39,56.74c-2.2,36.1,1.21,72.35,8.8,107.67Z"/><path class="926ac1f8-a97b-4067-a242-6dd17874c4e9" d="M274.32,298a24.7,24.7,0,0,0-5.27,2.93c-1.31.95-2.55-1.22-1.26-2.16a26.64,26.64,0,0,1,5.19-2.89,59.42,59.42,0,0,1-3.64-6.87c-8.28,2.59-16.84,8.31-9.74,17.6,6,7.83,14.11,3.33,20.84-.41A87.77,87.77,0,0,1,274.32,298Z"/><path class="a874a19c-2b73-40b4-95c8-d83c3999ae01" d="M348.93,218.44c-14.06-10-35.48-13.49-51.08-5.44-2.86,1.47-.34,5.79,2.52,4.31,14-7.22,33.5-3.45,46,5.45C349,224.62,351.54,220.29,348.93,218.44Z"/><path class="a874a19c-2b73-40b4-95c8-d83c3999ae01" d="M392,221.36c-3.13.75-1.8,5.57,1.33,4.82,10.1-2.4,22.89,1.66,26.84,12.14,1.13,3,6,1.69,4.82-1.33C420,223.84,405,218.27,392,221.36Z"/><path class="a874a19c-2b73-40b4-95c8-d83c3999ae01" d="M376.83,248.4a75.35,75.35,0,0,1,9.94,35.4c.1,5.59-.47,11.64-3.66,16.41-3.54,5.31-10.71,8-16.36,4.38-2-1.31-3.92,1.93-1.9,3.24,11.8,7.64,23.25-4.37,25.12-15.62,2.57-15.45-2.37-32.31-9.9-45.7C378.89,244.4,375.65,246.29,376.83,248.4Z"/><path class="375f2ecc-8304-429f-bbb8-1811e03fc5ae" d="M198.92,216.61a40,40,0,0,1,10.36-6.48,4.47,4.47,0,0,1-1.41-2.08,41.68,41.68,0,0,0-7.88,4.54,71.36,71.36,0,0,1,4.46-13,26.53,26.53,0,0,1-1.34-3,73.43,73.43,0,0,0-6.28,18.79A1.26,1.26,0,0,0,198.92,216.61Z"/><path class="375f2ecc-8304-429f-bbb8-1811e03fc5ae" d="M220.19,215.51h.12a55.32,55.32,0,0,1,3.46-9.13,1.27,1.27,0,0,0-1.08-1.88,44.22,44.22,0,0,0-5.2.62c.06.46.1.92.12,1.39a5.13,5.13,0,0,1-.09,1.13c1-.19,2.08-.35,3.14-.47-.38.87-.74,1.73-1.08,2.61-.69-.63-1.41-1.24-2.13-1.84a4.18,4.18,0,0,1-1.29,2.17c.85.71,1.69,1.44,2.5,2.2-.29.85-.55,1.7-.8,2.56-.65-1.52-1.31-3-2-4.55a5,5,0,0,1-2.29,1l2.67,6.18A4.58,4.58,0,0,1,220.19,215.51Z"/><path class="375f2ecc-8304-429f-bbb8-1811e03fc5ae" d="M216,223.91a60.58,60.58,0,0,0-.37,10.28,1.27,1.27,0,0,0,2.14.89,29.69,29.69,0,0,1,3.53-3.23,5.17,5.17,0,0,1-.57,0,5,5,0,0,1-2.56-.66l-.1.08c0-.05,0-.1,0-.15a5.23,5.23,0,0,1-2-5.81,5.09,5.09,0,0,1,0-1.17C216.12,224.08,216.06,224,216,223.91Z"/><path class="a874a19c-2b73-40b4-95c8-d83c3999ae01" d="M323.39,230.91a11.15,11.15,0,1,0,11.14,11.15A11.14,11.14,0,0,0,323.39,230.91Z"/><circle class="a874a19c-2b73-40b4-95c8-d83c3999ae01" cx="400.94" cy="253.2" r="9.98"/><path class="a874a19c-2b73-40b4-95c8-d83c3999ae01" d="M485.67,506.12h2.5A209.63,209.63,0,0,0,462.89,391c-.77-1.41-2.93-.15-2.16,1.27A207.17,207.17,0,0,1,485.67,506.12Z"/><path class="a874a19c-2b73-40b4-95c8-d83c3999ae01" d="M434.59,209.65c21-14.33,48.3-16.31,72.1-8.26,27.45,9.28,44.64,31.87,57.58,56.71,28,53.71,45.46,113.19,51.87,173.37a489.83,489.83,0,0,1,2.18,74.65h2.49a495.38,495.38,0,0,0-19.19-161,487.7,487.7,0,0,0-34.41-86.78c-12.41-24.11-28.57-46.68-54.44-57.32-25.55-10.51-56.3-9.3-79.44,6.48C432,208.39,433.25,210.55,434.59,209.65Z"/><path class="a874a19c-2b73-40b4-95c8-d83c3999ae01" d="M252.89,230.51q1.94-7.95,3.64-15.95c.67-3.14-4.15-4.48-4.82-1.33q-1.07,5-2.23,10L246.09,216c-1.36-2.92-5.67-.38-4.32,2.52q2.92,6.25,5.84,12.5-1.86,7.53-3.92,15c-.86,3.11,4,4.43,4.82,1.33s1.66-6.11,2.45-9.17l4.46,9.54c1.36,2.91,5.67.37,4.32-2.53Q256.3,237.85,252.89,230.51Z"/><path class="ce07d55f-7d15-4428-9564-0c8feb03f0db" d="M20.16,506.12c-7.6-35.32-11-71.57-8.8-107.67a327.39,327.39,0,0,1,8.39-56.74q3.39-14.1,8.13-27.85c2.91-8.44,5.46-16.81,9.14-24.93,8.3-18.31,17.34-36.39,32-50.47,1.17-1.12-.6-2.89-1.77-1.77-13,12.44-21.74,28-29.29,44.14-1.89,4.05-3.72,8.12-5.56,12.19-1.68,3.74-2.31,7-3.53,10.76-3.09,9.53-6.68,18.81-9.33,28.5C9.27,370.15,6.36,409.84,9.27,448.92a424.37,424.37,0,0,0,8.34,57.2Z"/><path class="ce07d55f-7d15-4428-9564-0c8feb03f0db" d="M220.85,210.93c-1.49-1.43-3.06-2.78-4.69-4.06-1.25-1-3,.78-1.76,1.77,1.62,1.28,3.19,2.63,4.68,4.06,1.17,1.11,2.94-.65,1.77-1.77Z"/><path class="91ba1cba-69ca-42d0-b511-8159c5cdb1e8" d="M300.37,217.31c14-7.22,33.5-3.45,46,5.45,2.63,1.86,5.13-2.47,2.52-4.32-14.06-10-35.48-13.49-51.08-5.44-2.86,1.47-.34,5.79,2.52,4.31Z"/><path class="91ba1cba-69ca-42d0-b511-8159c5cdb1e8" d="M393.28,226.18c10.1-2.4,22.89,1.66,26.84,12.14,1.13,3,6,1.69,4.82-1.33-5-13.15-20-18.72-33-15.63-3.13.75-1.8,5.57,1.33,4.82Z"/><path class="002e511d-9113-4dee-8b5b-d7390373a895" d="M376.83,248.4a75.35,75.35,0,0,1,9.94,35.4c.1,5.59-.47,11.64-3.66,16.41-3.54,5.31-10.71,8-16.36,4.38-2-1.31-3.92,1.93-1.9,3.24,11.8,7.64,23.25-4.37,25.12-15.62,2.57-15.45-2.37-32.31-9.9-45.7-1.18-2.11-4.42-.22-3.24,1.89Z"/><path class="375f2ecc-8304-429f-bbb8-1811e03fc5ae" d="M264.84,313a84.54,84.54,0,0,0,39.52,25.57c17.59,5.12,36.32,3.6,53.89-.8,28.48-7.13,56.94-22.61,69.67-50.38,8.35-18.22,9.85-38.64,7.93-58.38-.16-1.59-2.66-1.6-2.5,0,3.14,32.19-4,65.16-30.72,85.72-11.35,8.75-24.64,14.72-38.31,18.79-16.87,5-35,7.68-52.47,4.29-17.7-3.44-33.39-13.14-45.25-26.58-1.06-1.21-2.82.56-1.76,1.77Z"/><path class="375f2ecc-8304-429f-bbb8-1811e03fc5ae" d="M245.47,260.76a76.07,76.07,0,0,0,9.1,37.38c.75,1.43,2.91.17,2.16-1.26A73.41,73.41,0,0,1,248,260.76a1.25,1.25,0,0,0-2.5,0Z"/><path class="91ba1cba-69ca-42d0-b511-8159c5cdb1e8" d="M267.93,215.73a58.09,58.09,0,0,0,61.29-32.46c.69-1.45-1.47-2.72-2.16-1.27a55.59,55.59,0,0,1-58.46,31.32c-1.58-.23-2.26,2.18-.67,2.41Z"/><path class="91ba1cba-69ca-42d0-b511-8159c5cdb1e8" d="M327,182.74c6.84,18.66,24.58,29.62,43.78,31.95a61.44,61.44,0,0,0,15.15.11c6-.75,11.59-3.13,17.53-4.18,12.27-2.18,26.22,1.37,29.3,15,.36,1.57,2.77.91,2.41-.66a21.73,21.73,0,0,0-14.8-16.09c-10.64-3.37-20.46.46-30.79,2.8-23.41,5.32-51.63-6.27-60.17-29.55-.55-1.5-3-.86-2.41.66Z"/><circle class="0b011b58-71cc-4677-8ceb-d7e1b71e648c" cx="323.39" cy="242.06" r="11.14"/><circle class="0b011b58-71cc-4677-8ceb-d7e1b71e648c" cx="400.94" cy="253.2" r="9.98"/><path class="ce07d55f-7d15-4428-9564-0c8feb03f0db" d="M485.67,506.12h2.5A209.52,209.52,0,0,0,462.89,391c-.77-1.41-2.93-.15-2.16,1.27A207.17,207.17,0,0,1,485.67,506.12Z"/><path class="375f2ecc-8304-429f-bbb8-1811e03fc5ae" d="M106.27,506.12a129.07,129.07,0,0,1,13-61.08c.7-1.44-1.45-2.71-2.16-1.26a131.86,131.86,0,0,0-13.39,62.34Z"/><path class="ce07d55f-7d15-4428-9564-0c8feb03f0db" d="M106.26,506.12a132.33,132.33,0,0,1,4.09-36.47,1.25,1.25,0,0,0-2.41-.66,134.73,134.73,0,0,0-4.18,37.13Z"/><path class="002e511d-9113-4dee-8b5b-d7390373a895" d="M117.16,443.78a137.29,137.29,0,0,0-5.62,13.08c-.56,1.51,1.85,2.16,2.41.66A128.47,128.47,0,0,1,119.32,445c.71-1.44-1.45-2.71-2.16-1.26Z"/><path class="375f2ecc-8304-429f-bbb8-1811e03fc5ae" d="M319.48,413c-7-2.32-14.5,1.18-21,3.68a152.75,152.75,0,0,0-20.57,9.63C267,432.45,256.2,440.91,251.71,453c-1.61,4.33-2.9,10.32,1.22,13.72,4.35,3.59,11.42,1.73,16.27.45,14.37-3.81,29.09-11.68,40.77-20.79,8.87-6.93,22.48-21.59,11.19-32.52-1.16-1.12-2.93.65-1.77,1.77,13.1,12.68-11.12,29.64-20.51,35.29a164.55,164.55,0,0,1-18.36,9.53c-6.22,2.75-16.07,7.31-23,5.54-10.73-2.74-1.08-18,2.73-22.62a62.1,62.1,0,0,1,14.94-12.56,134.63,134.63,0,0,1,19-9.74c7-2.95,17.05-8.19,24.62-5.68,1.53.51,2.18-1.91.66-2.41Z"/><path class="375f2ecc-8304-429f-bbb8-1811e03fc5ae" d="M262.57,470.28c.18,9.85,3.91,16.23,14.6,14.75,13.78-1.9,26.17-8.32,38.09-15.1,7.33-4.17,16.62-8.31,20.17-16.56,4.49-10.43-3.55-17.89-12.65-21.33-1.51-.57-2.16,1.84-.67,2.41,5.74,2.17,12,5.72,12.09,12.7.06,4.1-2,7.64-4.77,10.48-4.6,4.65-10.79,7.46-16.39,10.69-8.33,4.8-16.84,9.21-26.09,12-4.42,1.31-9.84,3.08-14.49,2.58-6.73-.72-7.29-7.2-7.39-12.58a1.25,1.25,0,0,0-2.5,0Z"/><path class="375f2ecc-8304-429f-bbb8-1811e03fc5ae" d="M343.71,479.67c8.15,26.44-34.51,43.05-50.14,22.8-1-1.26-3.14,0-2.16,1.26,8.59,11.13,23.35,12.92,35.83,7.66C340,506,350.57,493.45,346.12,479c-.48-1.53-2.89-.88-2.41.67Z"/><path class="b63530b3-4a7f-4a1e-a659-d3baad875da8" d="M249.62,608.57c-6.62-12.31-11.88-25.25-17.63-38-6.12-13.56-13.08-26.75-20-39.9-13.87-26.24-30.16-51.64-40.59-79.54-.56-1.49-3-.84-2.41.67,7.21,19.29,17.2,37.37,27.26,55.37a5,5,0,0,1,1.59,2.85c3.75,6.72,7.5,13.43,11.09,20.2,7,13.17,14,26.39,20.18,40,6,13.25,11.48,26.78,18.38,39.63C248.23,611.25,250.39,610,249.62,608.57Z"/><path class="b63530b3-4a7f-4a1e-a659-d3baad875da8" d="M340.34,502.4l29.4,61c.7,1.45,2.86.19,2.16-1.26l-29.4-61c-.7-1.45-2.85-.18-2.16,1.27Z"/><path class="002e511d-9113-4dee-8b5b-d7390373a895" d="M247.39,609.86a350.1,350.1,0,0,0,86.86,81.31q12.86,8.45,26.44,15.71c4.37,2.34,12.1,8.37,14.44.77,1.38-4.5.83-10,1.09-14.7l1-18L379.33,638c1.42-25,1.18-50-6.56-74.12-.49-1.52-2.91-.87-2.41.67,6.37,19.81,7.77,40.47,7.07,61.17-.72,21.4-2.33,42.81-3.54,64.19l-.45,8c-.13,2.23.28,5.94-.56,8-2.22,5.48-10.44-1-13.86-2.82q-11.67-6.39-22.82-13.67a345.63,345.63,0,0,1-86.65-80.87c-1-1.27-3.13,0-2.16,1.26Z"/><path class="69113301-0909-46f5-929d-daaa99cbcf86" d="M320.05,679.8c16.39,11.46,32.39,24.46,50.39,31.46,1,0,2.73,1.39,3,0,3.5-18.38,2-38,4.11-56.28"/><path class="69113301-0909-46f5-929d-daaa99cbcf86" d="M319.1,681.41c9.18,6.45,18.12,13.25,27.53,19.34A149.19,149.19,0,0,0,360.9,709c3.07,1.53,7.78,4.52,11.31,4.61,3.23.09,3.26-2.91,3.67-5.59.85-5.44,1.33-10.94,1.64-16.45.68-12.21.58-24.45,1.91-36.63.26-2.39-3.49-2.38-3.75,0-1.09,10-1.23,20-1.61,30-.19,5-.44,10.09-.94,15.12-.17,1.71,0,8-1.17,8.82.06.82-.28,1-1,.53-1-.38-2-.78-2.93-1.22-17.14-7.41-31.84-19.4-47-30.05-2-1.39-3.85,1.86-1.89,3.23Z"/><path class="002e511d-9113-4dee-8b5b-d7390373a895" d="M247.39,609.86A354.16,354.16,0,0,0,310.34,674c1.24,1,3-.76,1.76-1.76a352.74,352.74,0,0,1-62.55-63.62c-1-1.27-3.13,0-2.16,1.26Z"/><path class="69113301-0909-46f5-929d-daaa99cbcf86" d="M320.06,680.09c3.47-10.65,12.43-19,22.83-23.2S365,652.53,376,654.82"/><path class="69113301-0909-46f5-929d-daaa99cbcf86" d="M321.87,680.58c7.75-22.06,32.78-28,53.58-24,2.36.46,3.36-3.15,1-3.61-22.95-4.51-49.72,2.44-58.19,26.57-.8,2.28,2.82,3.26,3.61,1Z"/><path class="b63530b3-4a7f-4a1e-a659-d3baad875da8" d="M221.71,230.14C249.18,291,273.57,353.26,301.38,414c.67,1.46,2.83.19,2.16-1.26-27.81-60.75-52.2-123-79.67-183.87-.66-1.47-2.81-.2-2.16,1.26Z"/><path class="b63530b3-4a7f-4a1e-a659-d3baad875da8" d="M212.19,208c1.62,3.71,3.08,7.49,4.69,11.2.64,1.47,2.79.2,2.16-1.26-1.61-3.72-3.07-7.49-4.69-11.2-.64-1.47-2.79-.2-2.16,1.26Z"/><path class="b63530b3-4a7f-4a1e-a659-d3baad875da8" d="M187.35,150.64c6.39,14,12.2,28.19,18.3,42.28.63,1.48,2.79.2,2.15-1.26-6.09-14.09-11.9-28.31-18.29-42.28-.67-1.46-2.83-.19-2.16,1.26Z"/><path class="e210f3c6-ff42-43f7-9499-cd383c40410e" d="M28.22,136.1c7-9.43,18.26-14.77,28.46-20a272.3,272.3,0,0,1,34-14.75,311.85,311.85,0,0,1,69.24-15.68c1.59-.18,1.6-2.68,0-2.5a312.81,312.81,0,0,0-73.31,17,281.57,281.57,0,0,0-33.75,15.11c-9.86,5.21-20,10.48-26.8,19.61-1,1.29,1.21,2.54,2.16,1.26Z"/><path class="e210f3c6-ff42-43f7-9499-cd383c40410e" d="M44.11,175.45c6.66-9.41,17.65-14.3,27.49-19.65,11.05-6,22-11.46,33.92-15.46a382.05,382.05,0,0,1,70.27-16.23c1.59-.21.91-2.62-.66-2.41a372.76,372.76,0,0,0-75.26,18c-11.53,4.09-22.1,10-32.82,15.78-9.3,5-18.84,9.92-25.1,18.76-.93,1.31,1.24,2.56,2.16,1.26Z"/><path class="ce07d55f-7d15-4428-9564-0c8feb03f0db" d="M161.17,82.51c-.14-11.66-2.71-23-6.46-34-3.31-9.69-6.91-19.66-13-28C128.62,2.46,107.85-.89,86.8.18,64.63,1.3,41.74,7.73,23,19.86,4.71,31.7-1.6,52.14.33,73.15,2.4,95.67,9,119.72,25.84,135.59c1.17,1.1,2.95-.66,1.77-1.77C13.19,120.28,7.81,102.09,4.26,83.11.33,62.08,2.43,38.2,20.8,24.41c16.33-12.26,38-18.85,58.07-21.1C98.79,1.08,121.55,1.7,136,17.47c7.39,8.05,11.43,18.25,15.08,28.38,4.27,11.85,7.41,24,7.56,36.66a1.25,1.25,0,0,0,2.5,0Z"/><path class="b63530b3-4a7f-4a1e-a659-d3baad875da8" d="M251.54,609.57c3.68-10.62,14.92-17.91,23.92-23.78A143.3,143.3,0,0,1,305,571.08a145,145,0,0,1,63.77-7.92c1.6.16,1.59-2.34,0-2.5a147,147,0,0,0-69,9.75,144.91,144.91,0,0,0-30.27,16.43c-8.13,5.78-17,12.29-20.36,22.06-.52,1.53,1.89,2.18,2.42.67Z"/><path class="ce07d55f-7d15-4428-9564-0c8feb03f0db" d="M269.26,286.41c-9.05,2.68-19.29,9.06-13,19.72,2.41,4.09,5.9,7,10.76,7.35,5.54.37,10.3-2.68,14.95-5.27,1.41-.78.15-2.94-1.26-2.16-6.77,3.77-15,8.47-21.08.55-7.27-9.51,1.87-15.28,10.33-17.78a1.25,1.25,0,0,0-.67-2.41Z"/><path class="ce07d55f-7d15-4428-9564-0c8feb03f0db" d="M269.05,300.92a24.32,24.32,0,0,1,5.4-3c1.48-.58.83-3-.67-2.41a26.86,26.86,0,0,0-6,3.23c-1.29.94-.05,3.11,1.26,2.16Z"/><path class="002e511d-9113-4dee-8b5b-d7390373a895" d="M265.29,272.77c.7,15.21,10.23,28.7,20.48,39.33,10.76,11.16,24.75,19.11,40.55,19.17,2.41,0,2.41-3.74,0-3.75-14.83,0-27.82-7.62-37.9-18.07-9.51-9.87-18.73-22.54-19.38-36.68-.11-2.41-3.86-2.42-3.75,0Z"/><path class="b63530b3-4a7f-4a1e-a659-d3baad875da8" d="M25.52,135c19.8,47.78,38.86,95.86,59,143.53.61,1.46,3,.81,2.41-.67-20.09-47.66-39.15-95.74-58.95-143.53-.6-1.46-3-.82-2.41.67Z"/><path class="b63530b3-4a7f-4a1e-a659-d3baad875da8" d="M159.17,84.72q15.22,32.3,28.05,65.62c.57,1.49,3,.84,2.41-.66q-12.94-33.62-28.3-66.22c-.68-1.45-2.84-.18-2.16,1.26Z"/><path class="e210f3c6-ff42-43f7-9499-cd383c40410e" d="M44.55,174.87q-8.26-20.26-16.62-40.5c-.6-1.46-3-.82-2.41.67q8.78,21.18,17.41,42.43A4.8,4.8,0,0,1,44.55,174.87Z"/><path class="b63530b3-4a7f-4a1e-a659-d3baad875da8" d="M86.88,277.9C73.71,246.66,61,215.24,48.2,183.84a6.13,6.13,0,0,1-.62,0,5,5,0,0,1-2.25-.5c12.94,31.78,25.81,63.58,39.14,95.2C85.08,280,87.5,279.38,86.88,277.9Z"/><path class="e210f3c6-ff42-43f7-9499-cd383c40410e" d="M177.75,123.79a5.31,5.31,0,0,1,1.59.23q-8.55-20.47-18-40.56c-.68-1.45-2.84-.18-2.16,1.26q9.15,19.41,17.42,39.19A5.36,5.36,0,0,1,177.75,123.79Z"/><path class="b63530b3-4a7f-4a1e-a659-d3baad875da8" d="M189.63,149.68q-3.63-9.44-7.46-18.79a4.54,4.54,0,0,1-1.79,2.18q3.5,8.61,6.84,17.27C187.79,151.83,190.21,151.18,189.63,149.68Z"/><path class="91ba1cba-69ca-42d0-b511-8159c5cdb1e8" d="M358.48,145.84c10.4-8.07,24.11-7.66,36.6-7.09a1.25,1.25,0,0,0,.63-2.32,59.49,59.49,0,0,0-39.51-7.67l1.41,1.84a124,124,0,0,1,56.21-48c1.05-.45.64-2-.3-2.29C365.18,66,316.23,85.85,276.87,113.6l1.88,1.08A54.91,54.91,0,0,1,297.43,79c1-.88-.09-2.31-1.21-2.09-13.5,2.66-26.57,9-35.21,20s-11.79,25.73-7.12,39l1.21-1.58a83.75,83.75,0,0,0-64.28,25.6A1.26,1.26,0,0,0,192,162a100.42,100.42,0,0,1,49.85-.24c1.56.39,2.23-2,.67-2.41a103.14,103.14,0,0,0-51.18.24l1.21,2.08A81.28,81.28,0,0,1,255.1,136.8a1.26,1.26,0,0,0,1.2-1.58c-4.59-13-1.21-27.56,7.66-38,8.37-9.85,20.43-15.47,32.92-17.94l-1.22-2.09a57.49,57.49,0,0,0-19.41,37.49,1.25,1.25,0,0,0,1.88,1.08c38.83-27.38,87-47.13,134.73-33l-.3-2.28a126.32,126.32,0,0,0-57.11,48.88c-.64,1,.42,2,1.41,1.84a56.84,56.84,0,0,1,37.59,7.41l.63-2.33c-13.3-.61-27.35-.73-38.37,7.82-1.27,1,.51,2.74,1.77,1.77Z"/><path class="91ba1cba-69ca-42d0-b511-8159c5cdb1e8" d="M242.47,159.92a75.21,75.21,0,0,0-45.64,55.47,1.26,1.26,0,0,0,2.09,1.22A39.38,39.38,0,0,1,222.69,207l-1.08-1.88a58.85,58.85,0,0,0-6,29.07,1.27,1.27,0,0,0,2.14.89,28.43,28.43,0,0,1,13.48-8.21,1.25,1.25,0,0,0-.66-2.41A31,31,0,0,0,216,233.31l2.13.88a56.06,56.06,0,0,1,5.62-27.81,1.27,1.27,0,0,0-1.08-1.88,42.3,42.3,0,0,0-25.54,10.34l2.09,1.22a72.72,72.72,0,0,1,43.89-53.73c1.48-.59.83-3-.66-2.41Z"/><path class="002e511d-9113-4dee-8b5b-d7390373a895" d="M269.34,215.91c.45-5.27.31-13.7-5.08-16.66-4.48-2.47-10.86-1.74-15.42,0-11,4.21-17.19,15.2-18.67,26.4-1.55,11.69,1.32,27.11,11.36,34.59,8.79,6.54,20.13,1.85,25-7.06.77-1.41-1.39-2.67-2.16-1.26-4.88,8.93-16.29,12.25-23.72,4.16-6.53-7.11-8.89-17.89-8.28-27.31s4.52-19.19,12.61-24.68a21.08,21.08,0,0,1,12.61-3.84c8.4.34,9.84,8.78,9.26,15.64-.14,1.61,2.36,1.6,2.5,0Z"/><path class="375f2ecc-8304-429f-bbb8-1811e03fc5ae" d="M105.21,326.56a107,107,0,0,1,3.9-48.37c1.4-4.38,3.72-8.64,4.66-13.14,1.15-5.59-2.18-10.45-8.24-9.9-7.47.68-13.55,9.31-17.07,15.16-10.17,16.85-11.06,38.07-9.8,57.2a154.61,154.61,0,0,0,14.93,56.86c9.13,19.09,10.62,41.16,23.44,58.52.94,1.28,3.11,0,2.16-1.26-10-13.52-13-29.82-18.16-45.43-2.61-7.85-6.51-15-9.59-22.68a145.48,145.48,0,0,1-7.65-25.84c-3.56-17.93-4.58-37.61-.89-55.61,1.8-8.78,5.06-17.38,10.47-24.6,2.68-3.58,6.87-8.81,11.49-9.71,10-1.95,5.58,9.53,3.9,13.91a110.57,110.57,0,0,0-6,55.55c.23,1.59,2.64.91,2.41-.66Z"/><path class="ce07d55f-7d15-4428-9564-0c8feb03f0db" d="M377.51,506.12h2.91a171.15,171.15,0,0,0-31-37.82c-1.18-1.09-3,.68-1.77,1.76A169.13,169.13,0,0,1,377.51,506.12Z"/><path class="375f2ecc-8304-429f-bbb8-1811e03fc5ae" d="M334.64,454.71a14.9,14.9,0,0,1,7.09,23.78c-4.9,6-13.28,9.41-20.15,12.56-8.35,3.82-17.29,7-26.53,7.57-4.11.25-8.61.27-12.54-1.08-4.25-1.47-8-7.34-4.1-11.34,1.12-1.15-.64-2.92-1.77-1.77-5.87,6.05-.08,14.25,6.56,15.9,12,3,25.33-.95,36.35-5.67,9.6-4.11,23.49-9.33,27.29-20.15,3.35-9.51-2.3-19.15-11.53-22.21-1.53-.5-2.19,1.91-.67,2.41Z"/><path class="ce07d55f-7d15-4428-9564-0c8feb03f0db" d="M434.59,209.65c21-14.33,48.3-16.31,72.1-8.26,27.45,9.28,44.64,31.87,57.58,56.71,28,53.71,45.46,113.19,51.87,173.37a489.83,489.83,0,0,1,2.2,74.65h2.49a495.67,495.67,0,0,0-19.21-161,487.7,487.7,0,0,0-34.41-86.78c-12.41-24.11-28.57-46.68-54.44-57.32-25.55-10.51-56.3-9.3-79.44,6.48C432,208.39,433.25,210.55,434.59,209.65Z"/><path class="375f2ecc-8304-429f-bbb8-1811e03fc5ae" d="M113.71,265c2.78-6.66,4.84-14.29,11.2-18.43,3.57-2.33,10.15-2.08,12.24,2,3,5.94-.12,13.61-2.08,19.4-7.46,22-8,45.09-5.57,68.05.17,1.58,2.67,1.6,2.5,0-1.64-15.57-2.13-31.36.32-46.87a138.4,138.4,0,0,1,5.75-22.22c1.88-5.65,3.81-11.89,2-17.83-2.06-6.81-10.81-8.41-16.43-4.67-7,4.64-9.26,12.52-12.35,19.93-.62,1.48,1.79,2.13,2.41.66Z"/><path class="375f2ecc-8304-429f-bbb8-1811e03fc5ae" d="M139.12,263.54c9-1.29,13.07,9,12.11,16.39-1.09,8.46-3.13,16.74-3.92,25.27-1.56,16.91.11,33.65,7.33,49.17.68,1.45,2.83.18,2.16-1.27-9.65-20.73-8.48-43.39-4.52-65.37,1.22-6.78,2.8-12.82-.51-19.29-2.69-5.24-7.44-8.15-13.32-7.31-1.58.22-.91,2.63.67,2.41Z"/><path class="375f2ecc-8304-429f-bbb8-1811e03fc5ae" d="M155,355.05c8.12,15.53,15.65,31.56,19.71,48.68,3.22,13.55,7.64,37-6,46.6-1.3.92-.06,3.09,1.26,2.16,13.06-9.17,11-28.79,8.6-42.46-3.5-19.9-12.12-38.46-21.42-56.24-.74-1.42-2.9-.16-2.15,1.26Z"/><path class="375f2ecc-8304-429f-bbb8-1811e03fc5ae" d="M243.93,217.23l13.65,29.21"/><path class="375f2ecc-8304-429f-bbb8-1811e03fc5ae" d="M241.77,218.49l13.65,29.21c1.36,2.91,5.67.37,4.32-2.53L246.09,216c-1.36-2.92-5.67-.38-4.32,2.52Z"/><path class="375f2ecc-8304-429f-bbb8-1811e03fc5ae" d="M246.1,246.67q4.52-16.15,8-32.78"/><path class="375f2ecc-8304-429f-bbb8-1811e03fc5ae" d="M248.51,247.33q4.52-16.26,8-32.77c.67-3.14-4.15-4.48-4.82-1.33q-3.53,16.5-8,32.77c-.86,3.11,4,4.43,4.82,1.33Z"/><path class="91ba1cba-69ca-42d0-b511-8159c5cdb1e8" d="M418.1,177.37c-9.64-12.58-23.87-22-38.51-27.68-29.91-11.63-65.76-9.48-93.07,7.76a87.9,87.9,0,0,0-34.16,39.82,1.21,1.21,0,0,0-.05.89,5.57,5.57,0,0,1,1.33-.16h0a5.2,5.2,0,0,1,.81-.07l.32,0c25.91-59.68,111.87-70,156.14-24.87,14.22,14.5,20.28,34.83,22.19,54.61.16,1.59,2.66,1.6,2.5,0C433.9,210,429.09,191.71,418.1,177.37Z"/><path class="399ae922-04a5-4e96-afda-ad35fe5e0b7f" d="M82.23,323.46,82.06,325l-3,26.4s3.21,39.05,13.36,60.83,15.8,43.17,30.8,46.37,24-51.47,24-51.47l-29.68-57.86"/><path class="375f2ecc-8304-429f-bbb8-1811e03fc5ae" d="M115.16,451.84A192.82,192.82,0,0,1,81,326.48c.13-1.61-2.37-1.6-2.5,0A195,195,0,0,0,113,453.1c.92,1.31,3.09.06,2.16-1.26Z"/></g></g></svg>