<svg xmlns="http://www.w3.org/2000/svg" viewBox="0 0 675.91 681.65"><defs><style>.\32 cffecd2-fd9b-4f5e-a7a1-ee523104147e{fill:#fff;}.\35 18ab4f1-3735-415f-ad16-35120f1b4911{fill:#384093;}.a5ce125e-7527-48e0-9cfb-ebf5978b8945{fill:#f18b64;}.\38 36089f1-a8de-4e19-aade-17515be170db{fill:#efa78e;}.\30 fa6acc8-c68e-44b3-b05d-e631cc47b912,.c0ac1cc4-f752-474b-b065-1076552f7c4b{fill:#f18a61;}.\31 974b258-9d2d-45e3-9810-d09fcb676951{fill:#ededed;}.\32 80870aa-41f8-4965-8025-ee3f24a3fb20{fill:#e9474d;}.\30 fa6acc8-c68e-44b3-b05d-e631cc47b912{stroke:#f18a61;stroke-miterlimit:10;stroke-width:4px;}.\32 0d4a8e8-0dd8-4f62-857a-cbd50cffd760{fill:#d93e51;}.ae2bae9c-c1e3-4f34-9328-635d72b64210{fill:#2c3a80;}.\32 24a4e55-4a69-48d0-a6e8-63538b89a100{fill:#f0956f;}</style></defs><title>Fichier 3</title><g id="784d690a-c608-4f59-9f29-085ed0224709" data-name="Calque 2"><g id="bad1ab14-62fa-4811-bf9a-af0a0b69c67d" data-name="Calque 1"><path class="2cffecd2-fd9b-4f5e-a7a1-ee523104147e" d="M639,59.85c-33.13,1-65.4,20.74-80.59,50.45-8.24,16.13-10.62,34.9-3,51.74,7.26,16.12,24.76,24.53,41.14,28.53,20.57,5,41.56,2.62,60.85-5.81,5-2.16,6.09-9.4,3.59-13.68-3-5.11-8.72-5.76-13.69-3.58a72.14,72.14,0,0,1-38.78,5.11c-11.4-1.66-27.47-6.08-33.8-16.67-13.53-22.66,7.12-50.74,25.57-63.19A73.13,73.13,0,0,1,639,79.85c12.84-.39,12.89-20.39,0-20Z"/><path class="2cffecd2-fd9b-4f5e-a7a1-ee523104147e" d="M646.54,337.5c-33.12,1-65.4,20.74-80.58,50.45-8.25,16.12-10.63,34.89-3.05,51.73,7.26,16.12,24.76,24.53,41.14,28.53,20.58,5,41.56,2.62,60.85-5.8,5-2.16,6.09-9.41,3.59-13.68-3-5.11-8.71-5.76-13.68-3.59A72.27,72.27,0,0,1,616,450.26c-11.41-1.67-27.48-6.09-33.81-16.67-13.53-22.66,7.12-50.74,25.57-63.19a73,73,0,0,1,38.75-12.9c12.84-.39,12.9-20.39,0-20Z"/><path class="2cffecd2-fd9b-4f5e-a7a1-ee523104147e" d="M629.77,209.29c-24.22-6.24-49.89,6.71-61.68,28.36-11.41,21-10.67,47.86,3.91,67.08,14.32,18.87,38.33,26.75,60.59,17.58,23.22-9.56,38.38-32.74,40-57.53.88-13.43-3-26.83-11.81-37.08-8-9.3-19.49-14.84-31-18.41-12.32-3.81-17.59,15.49-5.31,19.29,13.93,4.31,26.31,12.63,28,28.2,1.86,16.81-6.71,34.75-21,43.76-13.18,8.31-28.8,7.49-40-3.69-11.45-11.42-13.83-28.31-8.72-43.27,5.73-16.76,23.82-29.61,41.7-25,12.47,3.21,17.79-16.07,5.31-19.29Z"/><path class="2cffecd2-fd9b-4f5e-a7a1-ee523104147e" d="M633,488.87c-24.23-6.24-49.9,6.71-61.69,28.35-11.41,20.95-10.67,47.86,3.91,67.09,14.32,18.87,38.33,26.74,60.59,17.58,23.22-9.56,38.38-32.74,40-57.54.87-13.42-3-26.82-11.81-37.07-8-9.31-19.5-14.85-31-18.41-12.33-3.82-17.6,15.48-5.32,19.28,13.93,4.32,26.31,12.64,28,28.21,1.86,16.8-6.71,34.74-21,43.76-13.18,8.3-28.8,7.49-40-3.7C583.24,565,580.86,548.11,586,533.15c5.72-16.76,23.81-29.6,41.69-25,12.47,3.22,17.79-16.07,5.32-19.28Z"/><path class="518ab4f1-3735-415f-ad16-35120f1b4911" d="M207.22,190.54c.24-.22.5-.44.76-.66l-.15-.16c-1.51.61-3,1.22-4.53,1.85-2.18.91-4.35,1.85-6.51,2.78s-2.94.82-3.63,2.79c-1.26,3.57.52,9.4,1.5,12.8.89,3.1-3.94,4.41-4.83,1.33a38.76,38.76,0,0,1-1.59-15c.51-4.38,3-5,6.87-6.62,4-1.73,8-3.42,12-5-1.07-16.47,3.64-32.73,11.94-47,12.28-21.07,32.68-37,55.49-45.06a1.07,1.07,0,0,1-.84-1.47c4.39-11.9,14.64-18.52,25.48-23.84a50.7,50.7,0,0,0-32.63,10.58c-.77.59-1.89-.22-1.88-1.08.38-26.22,7.68-52.12,22.57-73.79C238.35,12.45,207.52,55.64,189,99c-.48,1.12-1.94.55-2.29-.3a69.27,69.27,0,0,1-3.94-42.41c-19.54,19.6-23.42,52.1-2.56,72.81a1.26,1.26,0,0,1-.25,2c-20.85,9.59-35.15,28.55-40.91,50.41a90.43,90.43,0,0,1,42-21.37,1.24,1.24,0,0,1,1,.2,1.33,1.33,0,0,1,1,2.17,72.72,72.72,0,0,0-14.59,64.64,41.89,41.89,0,0,1,16.22-17.75,1.26,1.26,0,0,1,1.88,1.07,55.91,55.91,0,0,0,6.66,24.73,30.86,30.86,0,0,1,7.64-11.7C197.06,212.35,198.16,198.85,207.22,190.54Z"/><path class="a5ce125e-7527-48e0-9cfb-ebf5978b8945" d="M227.38,183q-3.67,1-7.29,2.22a5.68,5.68,0,0,1,.82.17c4.47,1.2,7.63,6.2,9.63,10.44A51.29,51.29,0,0,1,228,182.75,3.39,3.39,0,0,1,227.38,183Z"/><path class="836089f1-a8de-4e19-aade-17515be170db" d="M303.83,312.08a75.84,75.84,0,0,0,13.88-.9c5.3-1,14.88-6.2,10.14-12.83a9.66,9.66,0,0,1-.5-1.85l3.57-10.3a80.81,80.81,0,0,1-26.73,4.85c-28.61.19-58.15-14.42-71.94-40q-1.38,16.14-2.77,32.29a.65.65,0,0,1,0,.21,104.81,104.81,0,0,0,47,25.23A116.07,116.07,0,0,0,303.83,312.08Z"/><path class="c0ac1cc4-f752-474b-b065-1076552f7c4b" d="M280.71,292.6c13.87,4.45,32.43,7.65,47.16,2.41l3.05-8.81a80.81,80.81,0,0,1-26.73,4.85c-28.61.19-58.15-14.42-71.94-40-.26,3.08-.53,6.16-.79,9.24C242.41,276.3,263,286.93,280.71,292.6Z"/><path class="836089f1-a8de-4e19-aade-17515be170db" d="M279.24,302.61c-16.83-5.17-35.93-14.47-49-28l-.75,8.73a.65.65,0,0,1,0,.21,104.81,104.81,0,0,0,47,25.23,116.07,116.07,0,0,0,27.41,3.3,75.84,75.84,0,0,0,13.88-.9c3.22-.61,8-2.77,10.22-5.86C312.28,309.69,294.09,307.18,279.24,302.61Z"/><path class="1974b258-9d2d-45e3-9810-d09fcb676951" d="M247.25,213.39a1.25,1.25,0,0,1-.12.17,55.15,55.15,0,0,0,9.51,7.78c7.48,4.82,17,8.74,26.05,8.14,8.84-.58,19.84-6,25.65-12.72,6.4-7.35,8-19.2,8-28.6a55.4,55.4,0,0,0-6.66-26.77c-8.38-15-24.88-24.63-42.13-23.31a3.22,3.22,0,0,1-.72.09c-20.82-.61-33.91,23.3-34,41.56a45.31,45.31,0,0,0,4.12,19,197.93,197.93,0,0,1,13.36-20.18c1-1.28,2.74.51,1.77,1.76a199.74,199.74,0,0,0-13.81,21.1,51.62,51.62,0,0,0,7.1,10.22,281.7,281.7,0,0,1,15.51-25.27c.91-1.32,3.08-.07,2.16,1.26A281.12,281.12,0,0,0,247.25,213.39Z"/><path class="518ab4f1-3735-415f-ad16-35120f1b4911" d="M209.59,183.7c5.4-2.07,10.87-4,16.46-5.52a2.3,2.3,0,0,1,1.85.22,50.28,50.28,0,0,1,.67-7.09c2.43-14.67,12.57-30.76,27-36.22a13.82,13.82,0,0,0,2.45-6.87c-1-.79-.32-2.7,1-2.19a71.3,71.3,0,0,0,56.44-3c8.46-4.25,14.7-11.4,22.85-16a26.42,26.42,0,0,1,18.81-2.59A79.6,79.6,0,0,0,322.42,90c-26.41-4.18-54.21,4-75.5,19.79C224.26,126.66,208.14,155.09,209.59,183.7Z"/><path class="1974b258-9d2d-45e3-9810-d09fcb676951" d="M351.45,169.17A197.27,197.27,0,0,1,364.8,149c1-1.27,2.74.52,1.77,1.77a197.66,197.66,0,0,0-13.82,21.13,50.64,50.64,0,0,0,7,10.33,279.67,279.67,0,0,1,15.59-25.41c.91-1.32,3.08-.07,2.16,1.26a281.12,281.12,0,0,0-15.78,25.75,1.21,1.21,0,0,1-.21.28,48.82,48.82,0,0,0,4.41,4c6.29,5,15.15,9.52,23.38,8.3,7.88-1.17,17.32-7.2,21.27-14.15,8.13-14.3,6.83-36,.25-50.6-6.21-13.76-19.45-24.83-35.09-23.55a2.53,2.53,0,0,1-.75.09c-18.79-.54-27.84,24.87-28,40A50.77,50.77,0,0,0,351.45,169.17Z"/><path class="1974b258-9d2d-45e3-9810-d09fcb676951" d="M250.3,178.57c1-1.28,2.74.51,1.77,1.76a199.74,199.74,0,0,0-13.81,21.1c.57,1.08,1.19,2.13,1.83,3.17,7.17-15.68,17.3-30,26.33-44.61,4.29-7,8.42-14.05,12.42-21.24a42,42,0,0,0-11.27-.67,3.22,3.22,0,0,1-.72.09c-20.82-.61-33.91,23.3-34,41.56a45.31,45.31,0,0,0,4.12,19A197.93,197.93,0,0,1,250.3,178.57Z"/><path class="2cffecd2-fd9b-4f5e-a7a1-ee523104147e" d="M309,160.23a46.17,46.17,0,0,0-20.57-18.4q-6.07,11-12.51,21.76c-4.47,7.48-9.36,14.8-14,22.24a1.18,1.18,0,0,1,1.13,1.81,281.12,281.12,0,0,0-15.78,25.75,1.25,1.25,0,0,1-.12.17,55.15,55.15,0,0,0,9.51,7.78,60.28,60.28,0,0,0,8.34,4.5C279.81,204.07,294.7,182.33,309,160.23Z"/><path class="2cffecd2-fd9b-4f5e-a7a1-ee523104147e" d="M314.83,174.85q-.43-1.86-1-3.69C301.12,190.6,288,209.77,274.92,229a33.69,33.69,0,0,0,5.64.56C292,211.31,303.85,193.35,314.83,174.85Z"/><path class="1974b258-9d2d-45e3-9810-d09fcb676951" d="M294.31,226.48a39.87,39.87,0,0,0,14-9.72c5.61-6.44,7.56-16.34,7.94-25C309.08,203.4,301.65,214.91,294.31,226.48Z"/><path class="1974b258-9d2d-45e3-9810-d09fcb676951" d="M364.8,149c1-1.27,2.74.52,1.77,1.77a197.66,197.66,0,0,0-13.82,21.13c.42.81.87,1.61,1.33,2.4,15-19.55,26.67-41.13,36.67-63.61a30.37,30.37,0,0,0-15-2.62,2.53,2.53,0,0,1-.75.09c-18.79-.54-27.84,24.87-28,40a50.77,50.77,0,0,0,4.4,21A197.27,197.27,0,0,1,364.8,149Z"/><path class="2cffecd2-fd9b-4f5e-a7a1-ee523104147e" d="M374,193.2c11.53-16.1,19.67-35,29-52.16q3.3-6,6.57-12.1a43.9,43.9,0,0,0-10.4-13,373.32,373.32,0,0,1-21.42,41.16,1.05,1.05,0,0,1-.18.94,281.12,281.12,0,0,0-15.78,25.75,1.21,1.21,0,0,1-.21.28,48.82,48.82,0,0,0,4.41,4A46.64,46.64,0,0,0,374,193.2Z"/><path class="2cffecd2-fd9b-4f5e-a7a1-ee523104147e" d="M390.81,196.09c9.17-14.63,16.91-30.07,25-45.29a67.71,67.71,0,0,0-1.66-9.46l-3.52,6.47c-8.75,16-16.48,33.29-26.82,48.56a20.18,20.18,0,0,0,5.49,0C389.82,196.29,390.32,196.19,390.81,196.09Z"/><path class="1974b258-9d2d-45e3-9810-d09fcb676951" d="M409.58,183.79a18.36,18.36,0,0,0,1-1.58c.58-1,1.09-2.08,1.58-3.17C411.32,180.63,410.46,182.21,409.58,183.79Z"/><path class="836089f1-a8de-4e19-aade-17515be170db" d="M344.47,107.18c-5.7,1.61-10,5.62-14.42,9.27a72.78,72.78,0,0,1-20.74,12,73.53,73.53,0,0,1-48.9.73A16.54,16.54,0,0,1,259,134a29.19,29.19,0,0,1,7.53-.84h0a47.16,47.16,0,0,1,33.74,10.07,15.75,15.75,0,0,1,10.21-.8c2.34.6,1.34,4.21-1,3.62a11.75,11.75,0,0,0-5.89,0,53.8,53.8,0,0,1,14.29,21.53v0a26,26,0,0,1,25.24-8.34A55.71,55.71,0,0,1,346.76,126c-4.13,2.81-7.72,6.33-8.35,11.51-.29,2.36-4,2.39-3.75,0,1.08-8.88,8.15-13.72,15.32-17.86A39.28,39.28,0,0,1,360.14,108,24.94,24.94,0,0,0,344.47,107.18Z"/><path class="836089f1-a8de-4e19-aade-17515be170db" d="M243.78,231.75a1.25,1.25,0,0,1,2.5,0c-.09,8-4.86,15.43-12.11,17.57,7.35,13.88,19.35,24.45,33.53,31.13,28.29,13.31,59.76,9.05,85.18-8.46l1.34-.95a1,1,0,0,1,.89-.85l.39-.06c23.57-17.12,43.83-44,46.67-73.49-6.08,3.61-13,5.78-20.1,4.47a41.13,41.13,0,0,1-13.18-5,57.75,57.75,0,0,1,4.07,8.28c2.49,6.34,3.31,13.7-.3,19.8-2.91,4.9-8.07,8.1-13.83,7.6-2.39-.21-2.41-4,0-3.75,7.16.62,12.17-5.7,12.53-12.43.32-6.21-2.56-12.16-5.68-17.34a75.82,75.82,0,0,0-24.15-24.58c-2-1.3-.14-4.54,1.89-3.23,1.56,1,3.1,2.05,4.62,3.17a56.92,56.92,0,0,1-3.51-8.88,3.52,3.52,0,0,1-.51-.1c-9.43-2.76-18.76.45-24.22,8.66,0,.06-.09.11-.13.16,4.41,18.15,1.69,41.74-14.37,52.41-8.77,5.82-19.12,9.82-29.73,8.19a57.61,57.61,0,0,1-26.7-12.18,56.62,56.62,0,0,1-17.39-23.43,1.35,1.35,0,0,1-2.49,0,23.47,23.47,0,0,0-4.85-7.76c-3.16-3-6.31-3.3-10-1.67a20.45,20.45,0,0,0-9.49,8.87c-4.71,8.34-4,18.38-.49,27,3.7,9.05,11.24,18.65,20.91,21.69C235.3,249.82,243.66,242,243.78,231.75Zm25,20.78A70.57,70.57,0,0,0,334,255c2.17-1,4.07,2.19,1.9,3.23a74.49,74.49,0,0,1-69-2.48C264.81,254.56,266.7,251.33,268.8,252.53ZM234,232.17l-8.46-6.39c.72,3.05,1.43,6.09,2.1,9.15s-4.12,4.47-4.82,1.33q-1.68-7.65-3.6-15.24l-11-8.26c-2.54-1.92,0-6.26,2.53-4.32l6.43,4.86q-1.29-4.89-2.67-9.75c-.89-3.11,3.94-4.42,4.82-1.33q2.27,7.93,4.29,15.93l12.87,9.7C239,229.77,236.52,234.11,234,232.17Z"/><path class="518ab4f1-3735-415f-ad16-35120f1b4911" d="M547.13,356.46q1.57,2.6,3.12,5.2a453.06,453.06,0,0,0,34.48-46.47q-16.69,18-33.1,36.22C550.12,353.08,548.63,354.78,547.13,356.46Z"/><path class="518ab4f1-3735-415f-ad16-35120f1b4911" d="M545.34,358.46Q477.62,434.3,415.1,514.58a41.15,41.15,0,0,1,4.79,3.78c.45-.16.88-.34,1.33-.49a46.94,46.94,0,0,1,9-2.06,1.26,1.26,0,0,1,.26-.55c13.25-16.45,24.37-34.41,36.15-51.9,24-35.71,54.29-66.69,81.86-99.65-.87-1.45-1.74-2.9-2.63-4.34Z"/><path class="280870aa-41f8-4965-8025-ee3f24a3fb20" d="M459.9,524.77q-2.86-18.64-6-37.23c-6.49,9.52-13.17,18.92-20.35,27.95a44.5,44.5,0,0,1,12.67.88A24.65,24.65,0,0,1,459.9,524.77Z"/><path class="280870aa-41f8-4965-8025-ee3f24a3fb20" d="M476.29,640.18h47.9a1,1,0,0,1,.38-1.06c27.27-23.35,46.9-54.54,57.11-88.89a196.18,196.18,0,0,0,4.5-94.2c-6.36-31.59-20-62.42-36.4-90.22-18.14,21.45-37.34,42-55.06,63.82-8.89,10.94-17,22.46-24.84,34.11a1.19,1.19,0,0,1,.26.42c10.08,25.81,13,61.55-3.14,85.61a1.18,1.18,0,0,1-.8.54c4.2,29.75,7.69,59.6,10.1,89.55A1.66,1.66,0,0,1,476.29,640.18Z"/><path class="280870aa-41f8-4965-8025-ee3f24a3fb20" d="M473.8,639.86c-2.62-32.66-6.54-65.19-11.26-97.6-.29.91-.62,1.83-1,2.76-2.15,5.57-2.21,9.64-1.5,15.55a52,52,0,0,1,.24,10.87,50.94,50.94,0,0,1-7.26,22c-9,14.64-25.52,23.06-39.95,31.36q-14,8.08-28.61,15.34h89.38A1.5,1.5,0,0,1,473.8,639.86Z"/><path class="0fa6acc8-c68e-44b3-b05d-e631cc47b912" d="M461.1,532.58c-1.58-6.7-8.12-11.85-14.72-13.57-8.05-2.11-17.47-1.21-25.43,1.67a1.3,1.3,0,0,1-1.48.57q-.9.36-1.77.75c-15.85,7.21-31.77,13.21-48.77,17.22-1.56.37-2.23-2-.66-2.41a247.18,247.18,0,0,0,28.19-8.39c7.09-2.59,13.8-6.24,20.79-9a34.36,34.36,0,0,0-4.23-3.06,1.24,1.24,0,0,1-.59-.35c-10.91-6.42-24.71-6.73-37-4.15a90.34,90.34,0,0,0-42.65,22.25,1.06,1.06,0,0,1-.62,1.14c-24.72,12.58-50.5,23.33-77.53,29.81-23.84,5.72-48.63,8.14-73.08,5.66-10.46-1.06-21.78-2.33-31.4-6.83-9.17-4.3-14.67-12.77-20-21-10.76-16.78-15.53-35-12.1-54.82,4.08-23.62,16.47-44.67,28.25-65.15a1.25,1.25,0,0,1,2.16,1.26c-12.57,21.84-26.15,44.66-28.79,70.24-2.08,20.12,5.66,37.77,17.15,53.83,3.44,4.8,6.75,9.19,12,12.17A46,46,0,0,0,161.45,565a175.19,175.19,0,0,0,36,4.15c46.76.82,91.69-14.9,132.9-35.8a1.09,1.09,0,0,1,.39-.79c19.55-18.2,56.75-34.2,82.23-19.26q16-20.55,32.35-40.83c-2.57-13-11.75-22.59-23.13-28.85-6.67-3.67-13.73-6.15-21.45-5.65-7.9.52-15.18,3.75-21.82,7.89-1.37.86-2.62-1.31-1.26-2.16,14.29-8.93,29.36-10.82,44.53-2.92,11.9,6.21,21.87,16,25.14,29.2l3.05-3.79Q495.84,410.07,544,356.26c-18-28.86-39.57-57.1-69.89-73.67-18-9.84-37.41-13.36-57.76-13.79a348.19,348.19,0,0,0-59.83,3.7,104.29,104.29,0,0,1-22.69,12.61,1.2,1.2,0,0,1-.06.55l-3.9,11.25c0,.06.11.11.16.18,5.73,8-4.65,15.15-11.64,16.5-10.2,2-21.43,1.21-31.64-.27a108.8,108.8,0,0,1-59.31-28.23,1.12,1.12,0,0,1-.34-1.15,1.24,1.24,0,0,1-.1-.6c.26-2.93.51-5.87.76-8.8-9,.13-18.06.52-27.06,1.31C164.81,279,128.44,288.34,98.3,308.73c-28.86,19.52-49.55,49-65.29,79.58C16.29,420.85,4.22,456.44,2.68,493.22A215.36,215.36,0,0,0,26.05,599.81c7.57,14.79,16.78,29.09,28.48,41,12.08,12.24,26.79,20.85,43,26.38,34.71,11.85,72.76,13.23,109.05,11.17,37.28-2.12,74.77-4,110.85-14.4,34.89-10,68-25.66,99.22-44,15.42-9.08,31.81-18.44,38.35-36.12,3.16-8.55,3.31-17,2.15-25.92a21.73,21.73,0,0,1,.59-9.69c1-3.34,2.8-6.47,3.46-9.92a14,14,0,0,0,.23-3.39C461.32,534.09,461.21,533.33,461.1,532.58ZM255.39,447.4c7.51-3.27,15.36-6.61,23.73-5.63,7.59.87,15.11,4.52,21.39,8.76,11.6,7.84,20.51,19.86,22.25,34s-3.82,28.47-15.87,36.62c-14.29,9.67-32.32,9.34-48.85,8.84a1.25,1.25,0,0,1,0-2.5c14.66.45,30.24.91,43.6-6.12a35.25,35.25,0,0,0,18.89-33.83c-.8-13.87-8.91-26-20-34A52.75,52.75,0,0,0,282,444.8c-9-2-17.25,1.22-25.37,4.76C255.19,450.19,253.92,448,255.39,447.4Z"/><path class="836089f1-a8de-4e19-aade-17515be170db" d="M461.1,532.58c-1.58-6.7-8.12-11.85-14.72-13.57-8.05-2.11-17.47-1.21-25.43,1.67a1.3,1.3,0,0,1-1.48.57q-.9.36-1.77.75c-15.85,7.21-31.77,13.21-48.77,17.22-1.56.37-2.23-2-.66-2.41a247.18,247.18,0,0,0,28.19-8.39c7.09-2.59,13.8-6.24,20.79-9a34.36,34.36,0,0,0-4.23-3.06,1.24,1.24,0,0,1-.59-.35c-10.91-6.42-24.71-6.73-37-4.15a90.34,90.34,0,0,0-42.65,22.25,1.06,1.06,0,0,1-.62,1.14l-1.23.62c.37,39.84,20,77.73,50.24,103.23,12.1-5.92,23.94-12.36,35.52-19.17,15.42-9.08,31.81-18.44,38.35-36.12,3.16-8.55,3.31-17,2.15-25.92a21.73,21.73,0,0,1,.59-9.69c1-3.34,2.8-6.47,3.46-9.92a14,14,0,0,0,.23-3.39C461.32,534.09,461.21,533.33,461.1,532.58Z"/><path class="280870aa-41f8-4965-8025-ee3f24a3fb20" d="M321,540.68c-21.31,10.2-43.42,18.81-66.42,24.33-23.84,5.72-48.63,8.14-73.08,5.66-10.46-1.06-21.78-2.33-31.4-6.83-9.17-4.3-14.67-12.77-20-21-10.76-16.78-15.53-35-12.1-54.82,4.08-23.62,16.47-44.67,28.25-65.15a1.25,1.25,0,0,1,2.16,1.26c-12.57,21.84-26.15,44.66-28.79,70.24-2.08,20.12,5.66,37.77,17.15,53.83,3.44,4.8,6.75,9.19,12,12.17A46,46,0,0,0,161.45,565a175.19,175.19,0,0,0,36,4.15c43.22.76,84.87-12.62,123.47-31.15a24.78,24.78,0,0,0,6.55-2.43c4.92-2.67.93.72,4.34-2.42C351.41,515,387.56,498.35,413,513.25q16-20.55,32.35-40.83c-2.57-13-11.75-22.59-23.13-28.85-6.67-3.67-13.73-6.15-21.45-5.65-7.9.52-15.18,3.75-21.82,7.89-1.37.86-2.62-1.31-1.26-2.16,14.29-8.93,29.36-10.82,44.53-2.92,11.9,6.21,21.87,16,25.14,29.2l3.05-3.79Q495.84,410.07,544,356.26c-18-28.86-39.57-57.1-69.89-73.67-18-9.84-37.41-13.36-57.76-13.79a348.19,348.19,0,0,0-59.83,3.7,104.29,104.29,0,0,1-22.69,12.61,1.2,1.2,0,0,1-.06.55l-3.9,11.25c0,.06.11.11.16.18,5.73,8-4.65,15.15-11.64,16.5-10.2,2-21.43,1.21-31.64-.27a108.8,108.8,0,0,1-59.31-28.23,1.12,1.12,0,0,1-.34-1.15,1.24,1.24,0,0,1-.1-.6c.26-2.93.51-5.87.76-8.8-9,.13-18.06.52-27.06,1.31C164.81,279,128.44,288.34,98.3,308.73c-28.86,19.52-49.55,49-65.29,79.58C16.29,420.85,4.22,456.44,2.68,493.22A215.36,215.36,0,0,0,26.05,599.81c7.57,14.79,16.78,29.09,28.48,41,12.08,12.24,26.79,20.85,43,26.38,34.71,11.85,72.76,13.23,109.05,11.17,37.28-2.12,74.77-4,110.85-14.4a379.18,379.18,0,0,0,53.84-20.19C341.88,617.72,322.77,580,321,540.68ZM255.39,447.4c7.51-3.27,15.36-6.61,23.73-5.63,7.59.87,15.11,4.52,21.39,8.76,11.6,7.84,20.51,19.86,22.25,34s-3.82,28.47-15.87,36.62c-14.29,9.67-32.32,9.34-48.85,8.84a1.25,1.25,0,0,1,0-2.5c14.66.45,30.24.91,43.6-6.12a35.25,35.25,0,0,0,18.89-33.83c-.8-13.87-8.91-26-20-34A52.75,52.75,0,0,0,282,444.8c-9-2-17.25,1.22-25.37,4.76C255.19,450.19,253.92,448,255.39,447.4Z"/><path class="a5ce125e-7527-48e0-9cfb-ebf5978b8945" d="M236.48,227.85l-12.87-9.7q-2-8-4.29-15.93c-.88-3.09-5.71-1.78-4.82,1.33s1.81,6.49,2.67,9.75l-6.43-4.86c-2.57-1.94-5.07,2.4-2.53,4.32l11,8.26q1.91,7.59,3.6,15.24c.7,3.14,5.52,1.81,4.82-1.33s-1.38-6.1-2.1-9.15l8.46,6.39C236.52,234.11,239,229.77,236.48,227.85Z"/><path class="a5ce125e-7527-48e0-9cfb-ebf5978b8945" d="M266.91,255.77a74.49,74.49,0,0,0,69,2.48c2.17-1,.27-4.27-1.9-3.23a70.57,70.57,0,0,1-65.2-2.49C266.7,251.33,264.81,254.56,266.91,255.77Z"/><path class="a5ce125e-7527-48e0-9cfb-ebf5978b8945" d="M256.66,449.56c8.12-3.54,16.37-6.8,25.37-4.76a52.75,52.75,0,0,1,18.46,8.75c11.13,7.94,19.24,20.11,20,34a35.25,35.25,0,0,1-18.89,33.83c-13.36,7-28.94,6.57-43.6,6.12a1.25,1.25,0,0,0,0,2.5c16.53.5,34.56.83,48.85-8.84,12.05-8.15,17.62-22.36,15.87-36.62s-10.65-26.15-22.25-34c-6.28-4.24-13.8-7.89-21.39-8.76-8.37-1-16.22,2.36-23.73,5.63C253.92,448,255.19,450.19,256.66,449.56Z"/><path class="518ab4f1-3735-415f-ad16-35120f1b4911" d="M416.73,512.49l-8.28,10.76s12.59-5.8,17.2-6.62,2.63-6.33,2.63-6.33Z"/><polygon class="518ab4f1-3735-415f-ad16-35120f1b4911" points="544.4 359.31 547.13 354.68 552.27 360.68 546.77 365.81 544.4 359.31"/><path class="20d4a8e8-0dd8-4f62-857a-cbd50cffd760" d="M228.73,272c-37.88.46-76.49,6-110.89,22.63C85.25,310.4,60.83,336.46,42.1,367,22.4,399.14,7.28,435.63,2,473.09A216.4,216.4,0,0,0,16.19,584.27C29,615.55,48.93,646.65,79.83,662.41c15.58,8,32.75,12.21,49.92,15a323.43,323.43,0,0,0,59.38,4.13c20.08-.42,40.25-1.91,60.25-3.61,19.49-1.65,38.84-4,57.84-8.73C344.48,660,379.91,644,413.1,624.84c14.43-8.3,30.95-16.72,39.95-31.36a50.94,50.94,0,0,0,7.26-22,52,52,0,0,0-.24-10.87c-.71-5.91-.65-10,1.5-15.55,2.44-6.37,3.56-12.2-.26-18.29a24.2,24.2,0,0,0-15.14-10.36,48.3,48.3,0,0,0-24.95,1.5c-8.46,2.89-16.33,7.47-24.76,10.55a247.18,247.18,0,0,1-28.19,8.39c-1.57.37-.9,2.78.66,2.41,17-4,32.92-10,48.77-17.22,8.55-3.89,19.5-5.39,28.68-3,8.36,2.18,16.63,9.85,14.83,19.22-.66,3.45-2.43,6.58-3.46,9.92a21.73,21.73,0,0,0-.59,9.69c1.16,8.92,1,17.37-2.15,25.92-6.54,17.68-22.93,27-38.35,36.12-31.22,18.37-64.33,34-99.22,44-36.08,10.36-73.57,12.28-110.85,14.4-36.29,2.06-74.34.68-109-11.17-16.22-5.53-30.93-14.14-43-26.38-11.7-11.86-20.91-26.16-28.48-41A215.36,215.36,0,0,1,2.68,493.22C4.22,456.44,16.29,420.85,33,388.31c15.73-30.62,36.43-60.06,65.29-79.58,30.14-20.39,66.51-29.71,102.38-32.88,9.33-.82,18.69-1.22,28-1.33a1.25,1.25,0,0,0,0-2.5Z"/><path class="20d4a8e8-0dd8-4f62-857a-cbd50cffd760" d="M362.08,648.37a3.71,3.71,0,0,1-.19-.46,370.13,370.13,0,0,1-44.45,16c-36.08,10.36-73.57,12.28-110.85,14.4-36.29,2.06-74.34.68-109-11.17-16.22-5.53-30.93-14.14-43-26.38-11.7-11.86-20.91-26.16-28.48-41A215.36,215.36,0,0,1,2.68,493.22C4.22,456.44,16.29,420.85,33,388.31c15.74-30.62,36.43-60.06,65.29-79.58,30.14-20.39,66.51-29.71,102.38-32.88,9.33-.82,18.69-1.22,28-1.33a1.25,1.25,0,0,0,0-2.5c-37.88.46-76.49,6-110.89,22.63C85.25,310.4,60.83,336.46,42.1,367,22.4,399.14,7.28,435.63,2,473.09A216.4,216.4,0,0,0,16.19,584.27C29,615.55,48.93,646.65,79.83,662.41c15.58,8,32.75,12.21,49.92,15.05a324.31,324.31,0,0,0,59.38,4.12c20.08-.42,40.25-1.91,60.25-3.61,19.49-1.65,38.84-4,57.84-8.73a358.48,358.48,0,0,0,56-19.17A10.09,10.09,0,0,1,362.08,648.37Z"/><path class="c0ac1cc4-f752-474b-b065-1076552f7c4b" d="M461.31,526.73a24.2,24.2,0,0,0-15.14-10.36,48.3,48.3,0,0,0-24.95,1.5c-8.46,2.89-16.33,7.47-24.76,10.55a247.18,247.18,0,0,1-28.19,8.39c-1.57.37-.9,2.78.66,2.41,17-4,32.92-10,48.77-17.22,8.55-3.89,19.5-5.39,28.68-3,8.36,2.18,16.63,9.85,14.83,19.22-.66,3.45-2.43,6.58-3.46,9.92a21.73,21.73,0,0,0-.59,9.69c1.16,8.92,1,17.37-2.15,25.92-6.54,17.68-22.93,27-38.35,36.12a508,508,0,0,1-45.35,23.82c.67.4,1.34.8,2,1.15l.25.09a5.51,5.51,0,0,1,.54.22c13.3-6.19,26.29-13,39-20.32,14.43-8.3,30.95-16.72,39.95-31.36a50.94,50.94,0,0,0,7.26-22,52,52,0,0,0-.24-10.87c-.71-5.91-.65-10,1.5-15.55C464,538.65,465.13,532.82,461.31,526.73Z"/><path class="20d4a8e8-0dd8-4f62-857a-cbd50cffd760" d="M546.63,355.62c-16.44-26.91-36.48-53.2-62.95-70.24A119.41,119.41,0,0,0,425,266.58a331.36,331.36,0,0,0-69.93,3.61c-1.58.25-.91,2.66.67,2.41a347.5,347.5,0,0,1,60.55-3.8c20.35.43,39.76,3.95,57.76,13.79,30.53,16.69,52.15,45.19,70.25,74.25A4.42,4.42,0,0,1,546.63,355.62Z"/><path class="20d4a8e8-0dd8-4f62-857a-cbd50cffd760" d="M590.58,467.16c-4.8-35-19.51-69.32-37-99.79-.68-1.2-1.38-2.39-2.08-3.59a4.34,4.34,0,0,1-2,1.46c16.56,27.95,30.33,59,36.73,90.79a196.18,196.18,0,0,1-4.5,94.2c-10.21,34.35-29.84,65.54-57.11,88.89-1.22,1,.55,2.8,1.77,1.76C575.7,598.63,599.36,531.18,590.58,467.16Z"/><path class="a5ce125e-7527-48e0-9cfb-ebf5978b8945" d="M231.25,249.14c13.32,26.77,43.63,42.1,72.94,41.91,32.4-.21,61-21,80.05-45.87C396,229.86,404.19,212,405,192.49c.07-1.6-2.43-1.6-2.5,0-1.28,32.21-23.81,61.74-49.59,79.5-25.42,17.51-56.89,21.77-85.18,8.46-14.67-6.91-27-18-34.29-32.57-.71-1.44-2.87-.18-2.16,1.26Z"/><path class="ae2bae9c-c1e3-4f34-9328-635d72b64210" d="M276.15,91.79c4.69-12.71,17-19,28.55-24.35,1.25-.58.45-2.21-.63-2.33a53.22,53.22,0,0,0-38.74,10.6l1.88,1.08C267.6,50,275.32,23.66,291.1,1.85c.72-1-.46-2-1.41-1.83C238.39,8.3,206,52.93,186.86,97.72l2.28.3c-6-14.41-7.44-30.29-2.81-45.31.39-1.27-1.2-2-2.09-1.22-23.34,20-28.66,56.64-5.78,79.36l.25-2c-22.67,10.42-37.92,31.85-43,56a1.26,1.26,0,0,0,2.09,1.21,88,88,0,0,1,43.95-23.58c1.57-.34.91-2.75-.67-2.42A90.55,90.55,0,0,0,136,184.32l2.09,1.21c5-23.57,19.75-44.3,41.89-54.49a1.26,1.26,0,0,0,.25-2c-22-21.8-16.52-56.68,5.77-75.82l-2.08-1.21c-4.75,15.4-3.36,31.84,2.81,46.63.35.85,1.81,1.42,2.29.3,18.89-44.25,50.61-88.36,101.33-96.55L288.94.59c-16,22.14-23.84,49-24.23,76.2,0,.86,1.11,1.67,1.88,1.08a51.22,51.22,0,0,1,37.48-10.26l-.63-2.33C291.13,71,278.7,77.69,273.74,91.13c-.56,1.51,1.86,2.16,2.41.66Z"/><path class="ae2bae9c-c1e3-4f34-9328-635d72b64210" d="M181.3,160.68A75.28,75.28,0,0,0,167,231.11a1.26,1.26,0,0,0,2.41,0A39.24,39.24,0,0,1,186,211.49l-1.88-1.08a58.87,58.87,0,0,0,8.38,28.47,1.27,1.27,0,0,0,2.29-.3A28.66,28.66,0,0,1,202.83,225c1.17-1.11-.6-2.88-1.77-1.77a31,31,0,0,0-8.72,14.67l2.28-.3a56,56,0,0,1-8-27.21,1.26,1.26,0,0,0-1.88-1.07A42.05,42.05,0,0,0,167,230.44h2.41a72.7,72.7,0,0,1,13.64-68c1-1.22-.73-3-1.77-1.77Z"/><path class="a5ce125e-7527-48e0-9cfb-ebf5978b8945" d="M209.47,210.6,235.21,230"/><path class="a5ce125e-7527-48e0-9cfb-ebf5978b8945" d="M208.21,212.76,234,232.17c2.57,1.94,5.07-2.4,2.53-4.32l-25.74-19.41c-2.57-1.94-5.07,2.4-2.53,4.32Z"/><path class="a5ce125e-7527-48e0-9cfb-ebf5978b8945" d="M225.18,235.59q-3.59-16.38-8.27-32.71"/><path class="a5ce125e-7527-48e0-9cfb-ebf5978b8945" d="M227.59,234.93q-3.63-16.49-8.27-32.71c-.88-3.09-5.71-1.78-4.82,1.33q4.62,16.23,8.27,32.71c.7,3.14,5.52,1.81,4.82-1.33Z"/><path class="ae2bae9c-c1e3-4f34-9328-635d72b64210" d="M365.19,107.82c-44.74-40.26-117.47-19.29-146.1,29.84-9,15.53-13.84,33.44-11.53,51.41.2,1.57,2.71,1.59,2.5,0-3.91-30.39,12.79-61.35,36.86-79.24C268.21,94,296,85.86,322.42,90a79.72,79.72,0,0,1,41,19.54c1.19,1.08,3-.68,1.76-1.76Z"/><path class="ae2bae9c-c1e3-4f34-9328-635d72b64210" d="M375,103.15c-18.37-.52-29.71,20.6-32.2,36.24a56.19,56.19,0,0,0,16.35,49.37c6.29,6,14.3,10.77,22.91,12.35,9.44,1.73,18.48-2.63,25.78-8.38,15.06-11.86,15.27-37.63,10.62-54.55-5.3-19.31-22.14-37.5-43.69-35-3.16.36-3.19,5.36,0,5,16.07-1.84,29.73,9.41,36.07,23.46,6.58,14.57,7.88,36.3-.25,50.6-4,6.95-13.39,13-21.27,14.15-8.23,1.22-17.09-3.31-23.38-8.3a50.73,50.73,0,0,1-18.9-39.88c.12-15.16,9.17-40.57,28-40,3.22.1,3.22-4.9,0-5Z"/><path class="224a4e55-4a69-48d0-a6e8-63538b89a100" d="M341.53,173.67a75.82,75.82,0,0,1,24.15,24.58c3.12,5.18,6,11.13,5.68,17.34-.36,6.73-5.37,13-12.53,12.43-2.41-.21-2.39,3.54,0,3.75,5.76.5,10.92-2.7,13.83-7.6,3.61-6.1,2.79-13.46.3-19.8-5.51-14.07-17-25.89-29.54-33.93-2-1.31-3.92,1.93-1.89,3.23Z"/><path class="ae2bae9c-c1e3-4f34-9328-635d72b64210" d="M319.8,173.29c5.46-8.21,14.79-11.42,24.22-8.66,3.1.91,4.42-3.92,1.33-4.82a26.27,26.27,0,0,0-29.87,11c-1.78,2.68,2.54,5.19,4.32,2.52Z"/><path class="ae2bae9c-c1e3-4f34-9328-635d72b64210" d="M226.05,178.18c-10.64,2.95-20.82,7.12-30.94,11.49-3.84,1.66-6.36,2.24-6.87,6.62a38.76,38.76,0,0,0,1.59,15c.89,3.08,5.72,1.77,4.83-1.33-1-3.4-2.76-9.23-1.5-12.8.69-2,1.56-1.89,3.63-2.79s4.33-1.87,6.51-2.78A201.47,201.47,0,0,1,227.38,183c3.09-.86,1.78-5.69-1.33-4.83Z"/><path class="224a4e55-4a69-48d0-a6e8-63538b89a100" d="M231.4,197.79c-1.89-4.5-5.31-11-10.49-12.39-4.65-1.26-10.41,2.14-13.69,5.14-9.08,8.33-10.17,21.87-6.31,33,3.94,11.36,13.83,24.28,26.5,26.22,10.91,1.67,18.75-7.73,18.87-18a1.25,1.25,0,0,0-2.5,0c-.12,10.2-8.48,18.07-18.76,14.83-9.67-3-17.21-12.64-20.91-21.69-3.53-8.62-4.22-18.66.49-27a20.45,20.45,0,0,1,9.49-8.87c3.74-1.63,6.89-1.37,10,1.67a23.47,23.47,0,0,1,4.85,7.76c.62,1.47,3,.82,2.41-.66Z"/><path class="ae2bae9c-c1e3-4f34-9328-635d72b64210" d="M266.85,133.17c-20.3-.59-35.25,19.88-38.28,38.14-3.22,19.39,5.12,38.4,20.3,50.56a57.61,57.61,0,0,0,26.7,12.18c10.61,1.63,21-2.37,29.73-8.19,17.86-11.87,19.23-39.72,12.62-58.29-7.55-21.21-28.39-36.73-51.35-34.41-3.17.32-3.2,5.32,0,5,17.61-1.78,34.59,7.89,43.13,23.23a55.4,55.4,0,0,1,6.66,26.77c0,9.4-1.62,21.25-8,28.6-5.81,6.67-16.81,12.14-25.65,12.72-9,.6-18.57-3.32-26.05-8.14-14.07-9.08-23.94-24.61-23.82-41.61.12-18.26,13.21-42.17,34-41.56,3.21.09,3.21-4.91,0-5Z"/><path class="ae2bae9c-c1e3-4f34-9328-635d72b64210" d="M258.38,128.44a73.5,73.5,0,0,0,50.93,0,72.78,72.78,0,0,0,20.74-12c4.47-3.65,8.72-7.66,14.42-9.27a25.11,25.11,0,0,1,16.59,1.16c1.49.61,2.14-1.81.67-2.41a26.87,26.87,0,0,0-23.4,1.15c-8.15,4.55-14.39,11.7-22.85,16A71.3,71.3,0,0,1,259,126c-1.51-.56-2.16,1.85-.66,2.41Z"/><path class="ae2bae9c-c1e3-4f34-9328-635d72b64210" d="M258.05,127.49a14,14,0,0,1-3,8.3c-1,1.25.77,3,1.76,1.77a16.85,16.85,0,0,0,3.74-10.07c.06-1.61-2.44-1.6-2.5,0Z"/><path class="a5ce125e-7527-48e0-9cfb-ebf5978b8945" d="M331.34,285l-4,11.51c-.53,1.52,1.89,2.18,2.41.66l4-11.5c.53-1.52-1.89-2.18-2.41-.67Z"/><path class="a5ce125e-7527-48e0-9cfb-ebf5978b8945" d="M229.81,250.33l-2.83,33c-.13,1.61,2.37,1.6,2.5,0l2.83-33c.14-1.6-2.36-1.6-2.5,0Z"/><path class="a5ce125e-7527-48e0-9cfb-ebf5978b8945" d="M227.42,285.09a108.8,108.8,0,0,0,59.31,28.23c10.21,1.48,21.44,2.23,31.64.27,7-1.35,17.37-8.48,11.64-16.5-.93-1.3-3.1,0-2.16,1.26,4.74,6.63-4.84,11.83-10.14,12.83a75.84,75.84,0,0,1-13.88.9,116.07,116.07,0,0,1-27.41-3.3,104.7,104.7,0,0,1-47.23-25.46c-1.17-1.11-2.94.66-1.77,1.77Z"/><path class="ae2bae9c-c1e3-4f34-9328-635d72b64210" d="M250.3,178.57a216.18,216.18,0,0,0-15,23,1.25,1.25,0,0,0,2.16,1.26c4.54-7.7,9.12-15.39,14.62-22.47,1-1.25-.79-3-1.77-1.76Z"/><path class="ae2bae9c-c1e3-4f34-9328-635d72b64210" d="M260.87,186.38a281.12,281.12,0,0,0-15.78,25.75c-.76,1.41,1.39,2.68,2.16,1.26A281.12,281.12,0,0,1,263,187.64c.92-1.33-1.25-2.58-2.16-1.26Z"/><path class="ae2bae9c-c1e3-4f34-9328-635d72b64210" d="M364.8,149a216.32,216.32,0,0,0-15,23,1.25,1.25,0,0,0,2.16,1.26c4.54-7.71,9.12-15.39,14.62-22.47,1-1.25-.79-3-1.77-1.77Z"/><path class="ae2bae9c-c1e3-4f34-9328-635d72b64210" d="M375.37,156.81a281.12,281.12,0,0,0-15.78,25.75c-.76,1.41,1.39,2.68,2.16,1.26a281.12,281.12,0,0,1,15.78-25.75c.92-1.33-1.25-2.58-2.16-1.26Z"/><path class="ae2bae9c-c1e3-4f34-9328-635d72b64210" d="M266.91,255.77a74.49,74.49,0,0,0,69,2.48c2.17-1,.27-4.27-1.9-3.23a70.57,70.57,0,0,1-65.2-2.49c-2.1-1.2-4,2-1.89,3.24Z"/><path class="ae2bae9c-c1e3-4f34-9328-635d72b64210" d="M351,119.05c-7.51,4.28-15.23,9.15-16.36,18.46-.29,2.39,3.46,2.36,3.75,0,.93-7.71,8.43-11.76,14.5-15.22,2.1-1.19.21-4.43-1.89-3.24Z"/><path class="ae2bae9c-c1e3-4f34-9328-635d72b64210" d="M301,147.06a11.75,11.75,0,0,1,8.56-1c2.34.59,3.34-3,1-3.62a15.83,15.83,0,0,0-11.45,1.39c-2.13,1.14-.24,4.37,1.89,3.24Z"/><path class="20d4a8e8-0dd8-4f62-857a-cbd50cffd760" d="M257,450.1c8-3.47,16.07-6.68,24.89-4.7a52.11,52.11,0,0,1,18.31,8.69c10.94,7.8,18.95,19.8,19.73,33.44a34.63,34.63,0,0,1-18.58,33.29c-13.25,7-28.74,6.48-43.28,6-2.41-.07-2.41,3.68,0,3.75,16.64.5,34.79.8,49.17-8.93,12.23-8.28,17.92-22.67,16.17-37.16S312.61,458,300.82,450c-6.33-4.28-13.89-7.91-21.53-8.83-8.55-1-16.54,2.36-24.21,5.7-2.21,1-.3,4.19,1.89,3.24Z"/><path class="20d4a8e8-0dd8-4f62-857a-cbd50cffd760" d="M446.73,472.69a4.15,4.15,0,0,1,1.58-1.21c-2.83-14.17-13.26-24.75-25.8-31.29-15.36-8-30.67-6.13-45.15,2.92-2.05,1.28-.17,4.53,1.89,3.24,6.54-4.08,13.71-7.29,21.5-7.8,7.61-.51,14.56,1.94,21.14,5.56,11.43,6.29,20.61,15.94,23,29.11a1.61,1.61,0,0,0,.68,1.09A4.51,4.51,0,0,1,446.73,472.69Z"/><path class="20d4a8e8-0dd8-4f62-857a-cbd50cffd760" d="M146.3,422.83c-11.78,20.48-24.17,41.53-28.25,65.15-3.43,19.82,1.34,38,12.1,54.82,5.3,8.27,10.8,16.74,20,21,9.62,4.5,20.94,5.77,31.4,6.83,24.45,2.48,49.24.06,73.08-5.66,27-6.48,52.81-17.23,77.53-29.81,1.44-.73.17-2.88-1.26-2.15-41.35,21-86.46,36.87-133.41,36.05a175.19,175.19,0,0,1-36-4.15,46,46,0,0,1-12.67-4.62c-5.21-3-8.52-7.37-12-12.17-11.49-16.06-19.23-33.71-17.15-53.83,2.64-25.58,16.22-48.4,28.79-70.24a1.25,1.25,0,0,0-2.16-1.26Z"/><path class="c0ac1cc4-f752-474b-b065-1076552f7c4b" d="M330.87,533.05c-3.34,1.7-6.72,3.36-10.11,5,.07.9.14,1.78.23,2.66q5.61-2.69,11.14-5.5C333.57,534.47,332.3,532.32,330.87,533.05Z"/><path class="a5ce125e-7527-48e0-9cfb-ebf5978b8945" d="M332.51,534.27a90.5,90.5,0,0,1,42.89-22.46c15-3.14,32.12-2,43.61,9.15,1.16,1.12,2.93-.65,1.77-1.77-25.06-24.3-68.37-6.84-90,13.32-1.18,1.09.6,2.86,1.77,1.76Z"/><path class="20d4a8e8-0dd8-4f62-857a-cbd50cffd760" d="M467.73,464.83c9.84,25.2,12.86,60.15-2.88,83.68-.9,1.34,1.26,2.59,2.15,1.26,16.1-24.06,13.22-59.8,3.14-85.61-.58-1.48-3-.84-2.41.67Z"/><path class="20d4a8e8-0dd8-4f62-857a-cbd50cffd760" d="M453.3,484.3c8.82,51.57,16.31,103.4,20.5,155.56.13,1.59,2.63,1.61,2.5,0-4.21-52.39-11.73-104.44-20.59-156.22-.27-1.58-2.68-.91-2.41.66Z"/><path class="518ab4f1-3735-415f-ad16-35120f1b4911" d="M416.73,512.49l-8.28,10.76s12.59-5.8,17.2-6.62,2.63-6.33,2.63-6.33Z"/><path class="20d4a8e8-0dd8-4f62-857a-cbd50cffd760" d="M446.37,495.17c-.07,7.75-5.82,13.26-12.61,16.07-2.19.92-1.23,4.54,1,3.62,8.37-3.47,15.27-10.11,15.36-19.69,0-2.41-3.73-2.42-3.75,0Z"/><path class="ae2bae9c-c1e3-4f34-9328-635d72b64210" d="M406.66,525.32q69.13-88.89,144.24-173,20.82-23.3,42.15-46.12l-2-1.51c-33.94,58.45-86.82,102.73-124.42,158.62-11.78,17.49-22.9,35.45-36.15,51.9-1,1.24.76,3,1.77,1.77,22.5-27.93,39.79-59.54,62.43-87.4,21.41-26.35,45-50.84,66.24-77.32A374.91,374.91,0,0,0,593.25,306c.7-1.21-1-2.57-2-1.52C540,359.3,491,416.26,443.73,474.6q-19.65,24.28-38.84,48.95c-1,1.25.78,3,1.77,1.77Z"/><path class="c0ac1cc4-f752-474b-b065-1076552f7c4b" d="M461.31,526.73a24.2,24.2,0,0,0-15.14-10.36,48.3,48.3,0,0,0-24.95,1.5c-8.46,2.89-16.33,7.47-24.76,10.55a247.18,247.18,0,0,1-28.19,8.39c-1.57.37-.9,2.78.66,2.41,17-4,32.92-10,48.77-17.22,8.55-3.89,19.5-5.39,28.68-3,8.36,2.18,16.63,9.85,14.83,19.22-.66,3.45-2.43,6.58-3.46,9.92a21.73,21.73,0,0,0-.59,9.69c1.16,8.92,1,17.37-2.15,25.92-6.54,17.68-22.93,27-38.35,36.12a508,508,0,0,1-45.35,23.82c.67.4,1.34.8,2,1.15l.25.09a5.51,5.51,0,0,1,.54.22c13.3-6.19,26.29-13,39-20.32,14.43-8.3,30.95-16.72,39.95-31.36a50.94,50.94,0,0,0,7.26-22,52,52,0,0,0-.24-10.87c-.71-5.91-.65-10,1.5-15.55C464,538.65,465.13,532.82,461.31,526.73Z"/></g></g></svg>