<?xml version="1.0" encoding="utf-8"?>
<!-- Generator: Adobe Illustrator 22.1.0, SVG Export Plug-In . SVG Version: 6.00 Build 0)  -->
<svg version="1.1" id="Calque_1" xmlns="http://www.w3.org/2000/svg" xmlns:xlink="http://www.w3.org/1999/xlink" x="0px" y="0px"
	 viewBox="0 0 622.5 627.8" style="enable-background:new 0 0 622.5 627.8;" xml:space="preserve">
<style type="text/css">
	.st0{fill:#FFFFFF;}
	.st1{fill:#374092;}
	.st2{fill:#F08A64;}
	.st3{fill:#EFA68D;}
	.st4{fill:#F08862;}
	.st5{fill:#ECECEC;}
	.st6{fill:#E8464D;}
	.st7{fill:#F08862;stroke:#F08862;stroke-width:4;stroke-miterlimit:10;}
	.st8{fill:#D83E51;}
	.st9{fill:#2C3980;}
	.st10{fill:#EF946F;}
</style>
<title>Fichier 3</title>
<g>
	<g>
		<path class="st0" d="M551.6,53.2c-28.5,0.9-56.3,17.9-69.4,43.4c-7.1,13.9-9.2,30.1-2.6,44.6c6.3,13.9,21.3,21.1,35.4,24.6
			c17.7,4.3,35.8,2.3,52.4-5c4.3-1.9,5.2-8.1,3.1-11.8c-2.6-4.4-7.5-5-11.8-3.1c-10.3,4.5-22.3,6-33.4,4.4
			c-9.8-1.4-23.7-5.2-29.1-14.4c-11.7-19.5,6.1-43.7,22-54.4c9.9-6.7,21.3-10.7,33.4-11.1C562.7,70.1,562.7,52.9,551.6,53.2
			L551.6,53.2z"/>
	</g>
	<g>
		<path class="st0" d="M558.1,292.3c-28.5,0.9-56.3,17.9-69.4,43.4c-7.1,13.9-9.2,30.1-2.6,44.6c6.3,13.9,21.3,21.1,35.4,24.6
			c17.7,4.3,35.8,2.3,52.4-5c4.3-1.9,5.2-8.1,3.1-11.8c-2.6-4.4-7.5-5-11.8-3.1c-10.3,4.5-22.3,6-33.4,4.4
			c-9.8-1.4-23.7-5.2-29.1-14.4c-11.7-19.5,6.1-43.7,22-54.4c9.9-6.7,21.3-10.7,33.4-11.1C569.1,309.2,569.2,292,558.1,292.3
			L558.1,292.3z"/>
	</g>
	<g>
		<path class="st0" d="M543.6,181.9c-20.9-5.4-43,5.8-53.1,24.4c-9.8,18-9.2,41.2,3.4,57.8c12.3,16.2,33,23,52.2,15.1
			c20-8.2,33-28.2,34.4-49.5c0.8-11.6-2.6-23.1-10.2-31.9C563.5,189.7,553.6,185,543.6,181.9c-10.6-3.3-15.2,13.3-4.6,16.6
			c12,3.7,22.7,10.9,24.1,24.3c1.6,14.5-5.8,29.9-18.1,37.7c-11.3,7.2-24.8,6.4-34.4-3.2c-9.9-9.8-11.9-24.4-7.5-37.3
			c4.9-14.4,20.5-25.5,35.9-21.5C549.8,201.3,554.4,184.7,543.6,181.9L543.6,181.9z"/>
	</g>
	<g>
		<path class="st0" d="M546.4,422.6c-20.9-5.4-43,5.8-53.1,24.4c-9.8,18-9.2,41.2,3.4,57.8c12.3,16.2,33,23,52.2,15.1
			c20-8.2,33-28.2,34.4-49.5c0.8-11.6-2.6-23.1-10.2-31.9C566.2,430.5,556.3,425.7,546.4,422.6c-10.6-3.3-15.2,13.3-4.6,16.6
			c12,3.7,22.7,10.9,24.1,24.3c1.6,14.5-5.8,29.9-18.1,37.7c-11.3,7.2-24.8,6.4-34.4-3.2c-9.9-9.8-11.9-24.4-7.5-37.3
			c4.9-14.4,20.5-25.5,35.9-21.5C552.6,442,557.1,425.4,546.4,422.6L546.4,422.6z"/>
	</g>
</g>
<path class="st1" d="M179.8,165.7c0.2-0.2,0.4-0.4,0.7-0.6c0,0-0.1-0.1-0.1-0.1c-1.3,0.5-2.6,1.1-3.9,1.6c-1.9,0.8-3.7,1.6-5.6,2.4
	c-1.8,0.8-2.5,0.7-3.1,2.4c-1.1,3.1,0.5,8.1,1.3,11c0.8,2.7-3.4,3.8-4.2,1.1c-1.2-4.1-1.9-8.6-1.4-12.9c0.4-3.8,2.6-4.3,5.9-5.7
	c3.4-1.5,6.9-2.9,10.4-4.3c-0.9-14.2,3.1-28.2,10.3-40.5c10.6-18.1,28.1-31.8,47.8-38.8c-0.5-0.1-1-0.6-0.7-1.3
	c3.8-10.2,12.6-15.9,21.9-20.5c-10.2-0.2-19.9,2.8-28.1,9.1c-0.7,0.5-1.6-0.2-1.6-0.9c0.3-22.6,6.6-44.9,19.4-63.5
	c-42.1,8.1-68.7,45.3-84.6,82.7c-0.4,1-1.7,0.5-2-0.3c-4.8-11.6-6.2-24.3-3.4-36.5c-16.8,16.9-20.2,44.9-2.2,62.7
	c0.5,0.4,0.4,1.4-0.2,1.7c-18,8.3-30.3,24.6-35.2,43.4c10.2-9.2,22.6-15.5,36.2-18.4c0.3-0.1,0.6,0,0.9,0.2c0.8-0.1,1.6,1,0.9,1.9
	c-12.9,15.3-17.5,36.3-12.6,55.7c3.1-6.4,7.8-11.6,14-15.3c0.7-0.4,1.6,0.1,1.6,0.9c0.3,7.6,2.2,14.7,5.7,21.3
	c1.4-3.8,3.6-7.2,6.6-10.1C171,184.5,172,172.9,179.8,165.7z"/>
<path class="st2" d="M197.1,159.3c-2.1,0.6-4.2,1.2-6.3,1.9c0.2,0,0.5,0.1,0.7,0.1c3.8,1,6.6,5.3,8.3,9c-1.2-3.6-2-7.4-2.2-11.3
	C197.5,159.1,197.3,159.2,197.1,159.3z"/>
<path class="st3" d="M263,270.4c3.9,0,8.1,0,12-0.8c4.6-0.9,12.8-5.3,8.7-11c-0.1-0.2-0.2-0.4-0.2-0.6c-0.3-0.2-0.4-0.6-0.2-1
	c1-3,2-5.9,3.1-8.9c-7.3,2.6-15,4.1-23,4.2c-24.6,0.2-50.1-12.4-61.9-34.5c-0.8,9.3-1.6,18.5-2.4,27.8c0,0.1,0,0.1,0,0.2
	c11.4,10.7,25.3,18,40.5,21.7C247.1,269.5,255,270.4,263,270.4z"/>
<path class="st4" d="M243.1,253.6c11.9,3.8,27.9,6.6,40.6,2.1c0.9-2.5,1.8-5.1,2.6-7.6c-7.3,2.6-15,4.1-23,4.2
	c-24.6,0.2-50.1-12.4-61.9-34.5c-0.2,2.7-0.5,5.3-0.7,8C210.1,239.6,227.8,248.7,243.1,253.6z"/>
<path class="st3" d="M241.8,262.3c-14.5-4.5-30.9-12.5-42.2-24.1c-0.2,2.5-0.4,5-0.6,7.5c0,0.1,0,0.1,0,0.2
	c11.4,10.7,25.3,18,40.5,21.7c7.7,1.9,15.7,2.8,23.6,2.8c3.9,0,8.1,0,12-0.8c2.8-0.5,6.9-2.4,8.8-5
	C270.2,268.3,254.6,266.2,241.8,262.3z"/>
<path class="st5" d="M214.2,185.4c0,0.1-0.1,0.1-0.1,0.1c2.5,2.5,5.2,4.8,8.2,6.7c6.4,4.2,14.6,7.5,22.4,7c7.6-0.5,17.1-5.2,22.1-11
	c5.5-6.3,6.9-16.5,6.9-24.6c0-8-1.8-16-5.7-23c-7.2-13-21.4-21.2-36.3-20.1c-0.2,0-0.4,0.1-0.6,0.1c-17.9-0.5-29.2,20.1-29.3,35.8
	c0,5.7,1.2,11.3,3.6,16.4c3.6-6,7.2-11.9,11.5-17.4c0.8-1.1,2.4,0.4,1.5,1.5c-4.4,5.7-8.2,11.9-11.9,18.2c1.7,3.2,3.7,6.1,6.1,8.8
	c4.1-7.5,8.5-14.7,13.4-21.8c0.8-1.1,2.6-0.1,1.9,1.1C222.9,170.4,218.4,177.8,214.2,185.4z"/>
<path class="st1" d="M181.8,159.9c4.7-1.8,9.4-3.4,14.2-4.8c0.6-0.2,1.2-0.1,1.6,0.2c0-2,0.2-4.1,0.6-6.1
	c2.1-12.6,10.8-26.5,23.2-31.2c1.2-1.8,1.9-3.8,2.1-5.9c-0.8-0.7-0.3-2.3,0.9-1.9c15.7,5.8,33.6,5,48.6-2.6
	c7.3-3.7,12.7-9.8,19.7-13.7c5-2.8,10.7-3.5,16.2-2.2c-8.8-6.5-19-10.7-29.9-12.4c-22.7-3.6-46.7,3.4-65,17
	C194.4,110.7,180.6,135.2,181.8,159.9z"/>
<path class="st5" d="M304,147.3c3.6-6,7.2-11.9,11.5-17.4c0.8-1.1,2.4,0.4,1.5,1.5c-4.5,5.7-8.2,11.9-11.9,18.2
	c1.6,3.2,3.7,6.2,6.1,8.9c4.1-7.5,8.6-14.8,13.4-21.9c0.8-1.1,2.6-0.1,1.9,1.1c-4.9,7.1-9.5,14.5-13.6,22.2
	c-0.1,0.1-0.1,0.2-0.2,0.2c1.2,1.2,2.5,2.4,3.8,3.4c5.4,4.3,13,8.2,20.1,7.1c6.8-1,14.9-6.2,18.3-12.2c7-12.3,5.9-31,0.2-43.6
	c-5.4-11.9-16.8-21.4-30.2-20.3c-0.2,0.1-0.4,0.1-0.6,0.1c-16.2-0.5-24,21.4-24.1,34.5C300.1,135.5,301.5,141.7,304,147.3z"/>
<path class="st5" d="M216.9,155.4c0.8-1.1,2.4,0.4,1.5,1.5c-4.4,5.7-8.2,11.9-11.9,18.2c0.5,0.9,1,1.8,1.6,2.7
	c6.2-13.5,14.9-25.8,22.7-38.4c3.7-6,7.2-12.1,10.7-18.3c-3.2-0.6-6.4-0.8-9.7-0.6c-0.2,0-0.4,0.1-0.6,0.1
	c-17.9-0.5-29.2,20.1-29.3,35.8c0,5.7,1.2,11.3,3.6,16.4C208.9,166.8,212.6,160.9,216.9,155.4z"/>
<path class="st0" d="M267.4,139.6c-4.2-7-10.4-12.6-17.7-15.8c-3.5,6.3-7.1,12.6-10.8,18.7c-3.9,6.4-8.1,12.7-12.1,19.1
	c0.8,0,1.5,0.8,1,1.6c-4.9,7.1-9.5,14.5-13.6,22.2c0,0.1-0.1,0.1-0.1,0.1c2.5,2.5,5.2,4.8,8.2,6.7c2.2,1.4,4.6,2.8,7.2,3.9
	C242.3,177.4,255.1,158.7,267.4,139.6z"/>
<path class="st0" d="M272.4,152.2c-0.2-1.1-0.5-2.1-0.9-3.2c-11,16.7-22.2,33.3-33.5,49.8c1.6,0.3,3.2,0.5,4.9,0.5
	C252.8,183.6,263,168.2,272.4,152.2z"/>
<path class="st5" d="M254.8,196.7c4.7-2,9.2-5,12.1-8.4c4.8-5.5,6.5-14.1,6.8-21.5C267.5,176.8,261.1,186.7,254.8,196.7z"/>
<path class="st5" d="M315.5,130c0.8-1.1,2.4,0.4,1.5,1.5c-4.5,5.7-8.2,11.9-11.9,18.2c0.4,0.7,0.7,1.4,1.1,2.1
	c12.9-16.8,23-35.4,31.6-54.8c-4-1.8-8.3-2.6-12.9-2.3c-0.2,0.1-0.4,0.1-0.6,0.1c-16.2-0.5-24,21.4-24.1,34.5
	c-0.1,6.2,1.3,12.4,3.8,18.1C307.5,141.4,311.2,135.5,315.5,130z"/>
<path class="st0" d="M323.3,168c9.9-13.9,16.9-30.1,25-44.9c1.9-3.5,3.8-6.9,5.7-10.4c-2.3-4.3-5.3-8.1-9-11.2
	c-5.5,12.2-11.5,24.1-18.5,35.4c0.1,0.2,0,0.5-0.2,0.8c-4.9,7.1-9.5,14.5-13.6,22.2c-0.1,0.1-0.1,0.2-0.2,0.2
	c1.2,1.2,2.5,2.4,3.8,3.4C318.5,165.2,320.8,166.8,323.3,168z"/>
<path class="st0" d="M337.9,170.5c7.9-12.6,14.6-25.9,21.6-39c-0.3-2.8-0.8-5.5-1.4-8.1c-1,1.9-2,3.7-3,5.6
	c-7.5,13.8-14.2,28.7-23.1,41.8c1.6,0.2,3.2,0.2,4.7,0C337,170.7,337.4,170.6,337.9,170.5z"/>
<path class="st5" d="M354,159.9c0.3-0.4,0.6-0.9,0.9-1.4c0.5-0.9,0.9-1.8,1.4-2.7C355.5,157.2,354.8,158.6,354,159.9z"/>
<path class="st3" d="M298,94c-4.9,1.4-8.6,4.8-12.4,8c-5.4,4.4-11.3,7.9-17.9,10.3c-13.5,5-28.5,5.2-42.1,0.6
	c-0.2,1.5-0.6,2.9-1.2,4.2c2.1-0.5,4.2-0.8,6.5-0.7c0,0,0,0,0,0c10.7-1.1,20.9,2.4,29.1,8.7c2.8-1.2,5.8-1.5,8.8-0.7
	c2,0.5,1.2,3.6-0.9,3.1c-1.7-0.4-3.4-0.4-5.1,0c5.5,5,9.8,11.4,12.3,18.5c0,0,0,0,0,0c5.5-6.2,13.5-8.9,21.7-7.2
	c-1.1-5.6-1.2-11.4-0.3-17.1c0.6-3.7,1.7-7.7,3.4-11.5c-3.6,2.4-6.6,5.5-7.2,9.9c-0.2,2-3.5,2.1-3.2,0c0.9-7.6,7-11.8,13.2-15.4
	c2.3-3.9,5.3-7.5,8.8-10C307.1,93,302.5,92.7,298,94z"/>
<path class="st3" d="M211.3,201.2c0-1.4,2.2-1.4,2.2,0c-0.1,6.9-4.2,13.3-10.4,15.1c6.3,12,16.7,21.1,28.9,26.8
	c24.4,11.5,51.5,7.8,73.3-7.3c0.4-0.3,0.8-0.5,1.2-0.8c0.1-0.4,0.3-0.7,0.8-0.7c0.1,0,0.2,0,0.3,0c20.3-14.7,37.7-37.9,40.2-63.3
	c-5.2,3.1-11.2,5-17.3,3.8c-4-0.7-7.8-2.3-11.3-4.3c1.4,2.3,2.5,4.7,3.5,7.1c2.1,5.5,2.9,11.8-0.3,17c-2.5,4.2-6.9,7-11.9,6.5
	c-2.1-0.2-2.1-3.4,0-3.2c6.2,0.5,10.5-4.9,10.8-10.7c0.3-5.3-2.2-10.5-4.9-14.9c-5.2-8.6-12.4-15.8-20.8-21.2
	c-1.7-1.1-0.1-3.9,1.6-2.8c1.3,0.9,2.7,1.8,4,2.7c-1.2-2.5-2.2-5-3-7.6c-0.1,0-0.3,0-0.4-0.1c-8.1-2.4-16.2,0.4-20.9,7.5
	c0,0.1-0.1,0.1-0.1,0.1c3.8,15.6,1.5,35.9-12.4,45.1c-7.6,5-16.5,8.5-25.6,7.1c-8.4-1.3-16.4-5.2-23-10.5
	c-6.8-5.4-11.9-12.4-15-20.2c-0.2,0.8-1.7,1.1-2.1,0c-1-2.3-2.3-4.9-4.2-6.7c-2.7-2.6-5.4-2.8-8.7-1.4c-3.5,1.5-6.3,4.3-8.2,7.6
	c-4.1,7.2-3.5,15.8-0.4,23.2c3.2,7.8,9.7,16.1,18,18.7C204,216.8,211.2,210,211.3,201.2z M232.8,219.1c17.1,9.8,38.3,10.7,56.1,2.1
	c1.9-0.9,3.5,1.9,1.6,2.8c-18.9,9-41.2,8.3-59.4-2.1C229.4,220.9,231,218.1,232.8,219.1z M202.8,201.6c-2.4-1.8-4.9-3.7-7.3-5.5
	c0.6,2.6,1.2,5.2,1.8,7.9c0.6,2.7-3.6,3.8-4.2,1.1c-1-4.4-2-8.8-3.1-13.1c-3.1-2.4-6.3-4.7-9.4-7.1c-2.2-1.6,0-5.4,2.2-3.7
	c1.8,1.4,3.7,2.8,5.5,4.2c-0.7-2.8-1.5-5.6-2.3-8.4c-0.8-2.7,3.4-3.8,4.2-1.1c1.3,4.6,2.5,9.1,3.7,13.7c3.7,2.8,7.4,5.6,11.1,8.4
	C207.2,199.5,205,203.3,202.8,201.6z"/>
<path class="st1" d="M472.5,308.6c0.9,1.5,1.8,3,2.7,4.5c10.6-12.8,20.8-26,29.7-40c-9.6,10.3-19.1,20.7-28.5,31.2
	C475.1,305.7,473.8,307.2,472.5,308.6z"/>
<path class="st1" d="M470.9,310.3c-38.9,43.5-76.3,88.4-112.2,134.4c1.4,1,2.8,2,4.1,3.3c0.4-0.1,0.8-0.3,1.1-0.4
	c2.4-0.8,5.1-1.4,7.8-1.8c0-0.2,0.1-0.3,0.2-0.5c11.4-14.2,21-29.6,31.1-44.7c20.7-30.7,46.8-57.4,70.5-85.8
	c-0.7-1.3-1.5-2.5-2.3-3.7C471.3,310.9,471.1,310.6,470.9,310.3z"/>
<path class="st6" d="M397.4,453.6c-1.7-10.7-3.4-21.4-5.2-32.1c-5.6,8.2-11.3,16.3-17.5,24.1c3.7-0.2,7.5,0,10.9,0.8
	C390.1,447.4,394.4,449.9,397.4,453.6z"/>
<path class="st6" d="M411.5,552.9h41.3c-0.1-0.3,0-0.6,0.3-0.9c23.5-20.1,40.4-47,49.2-76.5c7.8-26.2,9.3-54.3,3.9-81.1
	c-5.5-27.2-17.2-53.7-31.3-77.7c-15.6,18.5-32.2,36.2-47.4,55c-7.7,9.4-14.6,19.3-21.4,29.4c0.1,0.1,0.2,0.2,0.2,0.4
	c8.7,22.2,11.2,53-2.7,73.7c-0.2,0.3-0.4,0.4-0.7,0.5c3.6,25.6,6.6,51.3,8.7,77.1C411.5,552.8,411.5,552.9,411.5,552.9z"/>
<path class="st6" d="M409.3,552.7c-2.3-28.1-5.6-56.1-9.7-84c-0.2,0.8-0.5,1.6-0.8,2.4c-1.8,4.8-1.9,8.3-1.3,13.4
	c0.4,3.1,0.5,6.2,0.2,9.4c-0.6,6.7-2.7,13.2-6.3,19c-7.7,12.6-22,19.9-34.4,27c-8.1,4.6-16.3,9.1-24.6,13.2h77
	C409.4,552.9,409.3,552.8,409.3,552.7z"/>
<path class="st7" d="M398.4,460.3c-1.4-5.8-7-10.2-12.7-11.7c-6.9-1.8-15-1-21.9,1.4c-0.3,0.4-0.8,0.7-1.3,0.5
	c-0.5,0.2-1,0.4-1.5,0.6c-13.7,6.2-27.4,11.4-42,14.8c-1.3,0.3-1.9-1.8-0.6-2.1c8.2-1.9,16.3-4.3,24.3-7.2
	c6.1-2.2,11.9-5.4,17.9-7.8c-1.2-1-2.4-1.9-3.6-2.6c-0.2,0-0.4-0.2-0.5-0.3c-9.4-5.5-21.3-5.8-31.9-3.6
	c-13.8,2.9-26.4,9.6-36.7,19.2c0.1,0.4-0.1,0.8-0.5,1c-21.3,10.8-43.5,20.1-66.8,25.7c-20.5,4.9-41.9,7-62.9,4.9
	c-9-0.9-18.8-2-27-5.9c-7.9-3.7-12.6-11-17.2-18.1c-9.3-14.4-13.4-30.1-10.4-47.2c3.5-20.3,14.2-38.5,24.3-56.1
	c0.7-1.2,2.6-0.1,1.9,1.1c-10.8,18.8-22.5,38.5-24.8,60.5c-1.8,17.3,4.9,32.5,14.8,46.4c3,4.1,5.8,7.9,10.3,10.5
	c3.4,1.9,7.1,3.1,10.9,4c10.1,2.3,20.6,3.4,31,3.6c40.3,0.7,79-12.8,114.4-30.8c0-0.2,0.1-0.5,0.3-0.7
	c16.8-15.7,48.9-29.4,70.8-16.6c9.2-11.8,18.5-23.5,27.9-35.2c-2.2-11.2-10.1-19.5-19.9-24.8c-5.7-3.2-11.8-5.3-18.5-4.9
	c-6.8,0.4-13.1,3.2-18.8,6.8c-1.2,0.7-2.3-1.1-1.1-1.9c12.3-7.7,25.3-9.3,38.3-2.5c10.2,5.3,18.8,13.8,21.7,25.1
	c0.9-1.1,1.7-2.2,2.6-3.3c26.1-32.2,53-63.7,80.6-94.6c-15.5-24.9-34.1-49.2-60.2-63.4c-15.5-8.5-32.2-11.5-49.7-11.9
	c-17.2-0.4-34.5,0.6-51.5,3.2c-6.1,4.4-12.6,8.1-19.5,10.9c0,0.1,0,0.3-0.1,0.5c-1.1,3.2-2.2,6.5-3.4,9.7c0,0,0.1,0.1,0.1,0.2
	c4.9,6.9-4,13-10,14.2c-8.8,1.7-18.5,1-27.3-0.2c-19.1-2.8-37-11-51.1-24.3c-0.3-0.3-0.4-0.7-0.3-1c-0.1-0.1-0.1-0.3-0.1-0.5
	c0.2-2.5,0.4-5.1,0.6-7.6c-7.8,0.1-15.5,0.4-23.3,1.1c-30.9,2.7-62.2,10.8-88.2,28.3c-24.9,16.8-42.7,42.2-56.2,68.5
	c-14.4,28-24.8,58.7-26.1,90.3C2.3,458,9.3,490,23.8,518.2c6.5,12.7,14.4,25,24.5,35.3c10.4,10.5,23.1,18,37,22.7
	c29.9,10.2,62.7,11.4,93.9,9.6c32.1-1.8,64.4-3.5,95.5-12.4c30-8.6,58.6-22.1,85.4-37.9c13.3-7.8,27.4-15.9,33-31.1
	c2.7-7.4,2.9-14.6,1.9-22.3c-0.4-2.9-0.4-5.5,0.5-8.3c0.9-2.9,2.4-5.6,3-8.5c0.2-1,0.2-2,0.2-2.9
	C398.6,461.6,398.5,460.9,398.4,460.3z M221.3,386.9c6.5-2.8,13.2-5.7,20.4-4.9c6.5,0.8,13,3.9,18.4,7.5c10,6.8,17.7,17.1,19.2,29.3
	c1.5,12.3-3.3,24.5-13.7,31.5c-12.3,8.3-27.8,8-42.1,7.6c-1.4,0-1.4-2.2,0-2.2c12.6,0.4,26,0.8,37.5-5.3c10.9-5.7,17-16.9,16.3-29.1
	c-0.7-11.9-7.7-22.4-17.3-29.3c-4.7-3.4-10.2-6.3-15.9-7.5c-7.7-1.8-14.8,1-21.8,4.1C221.1,389.3,220,387.5,221.3,386.9z"/>
<path class="st3" d="M398.4,460.3c-1.4-5.8-7-10.2-12.7-11.7c-6.9-1.8-15-1-21.9,1.4c-0.3,0.4-0.8,0.7-1.3,0.5
	c-0.5,0.2-1,0.4-1.5,0.6c-13.7,6.2-27.4,11.4-42,14.8c-1.3,0.3-1.9-1.8-0.6-2.1c8.2-1.9,16.3-4.3,24.3-7.2
	c6.1-2.2,11.9-5.4,17.9-7.8c-1.2-1-2.4-1.9-3.6-2.6c-0.2,0-0.4-0.2-0.5-0.3c-9.4-5.5-21.3-5.8-31.9-3.6
	c-13.8,2.9-26.4,9.6-36.7,19.2c0.1,0.4-0.1,0.8-0.5,1c-0.4,0.2-0.7,0.4-1.1,0.5c0.3,34.3,17.2,66.9,43.3,88.9
	c10.4-5.1,20.6-10.6,30.6-16.5c13.3-7.8,27.4-15.9,33-31.1c2.7-7.4,2.9-14.6,1.9-22.3c-0.4-2.9-0.4-5.5,0.5-8.3
	c0.9-2.9,2.4-5.6,3-8.5c0.2-1,0.2-2,0.2-2.9C398.6,461.6,398.5,460.9,398.4,460.3z"/>
<path class="st6" d="M277.8,467.3c-18.4,8.8-37.4,16.2-57.2,20.9c-20.5,4.9-41.9,7-62.9,4.9c-9-0.9-18.8-2-27-5.9
	c-7.9-3.7-12.6-11-17.2-18.1c-9.3-14.4-13.4-30.1-10.4-47.2c3.5-20.3,14.2-38.5,24.3-56.1c0.7-1.2,2.6-0.1,1.9,1.1
	c-10.8,18.8-22.5,38.5-24.8,60.5c-1.8,17.3,4.9,32.5,14.8,46.4c3,4.1,5.8,7.9,10.3,10.5c3.4,1.9,7.1,3.1,10.9,4
	c10.1,2.3,20.6,3.4,31,3.6c37.2,0.6,73.1-10.9,106.3-26.8c1.8-0.3,4.3-1.4,5.6-2.1c4.2-2.3,0.8,0.6,3.7-2.1
	c16.9-15.6,48-29.9,69.9-17.1c9.2-11.8,18.5-23.5,27.9-35.2c-2.2-11.2-10.1-19.5-19.9-24.8c-5.7-3.2-11.8-5.3-18.5-4.9
	c-6.8,0.4-13.1,3.2-18.8,6.8c-1.2,0.7-2.3-1.1-1.1-1.9c12.3-7.7,25.3-9.3,38.3-2.5c10.2,5.3,18.8,13.8,21.7,25.1
	c0.9-1.1,1.7-2.2,2.6-3.3c26.1-32.2,53-63.7,80.6-94.6c-15.5-24.9-34.1-49.2-60.2-63.4c-15.5-8.5-32.2-11.5-49.7-11.9
	c-17.2-0.4-34.5,0.6-51.5,3.2c-6.1,4.4-12.6,8.1-19.5,10.9c0,0.1,0,0.3-0.1,0.5c-1.1,3.2-2.2,6.5-3.4,9.7c0,0,0.1,0.1,0.1,0.2
	c4.9,6.9-4,13-10,14.2c-8.8,1.7-18.5,1-27.3-0.2c-19.1-2.8-37-11-51.1-24.3c-0.3-0.3-0.4-0.7-0.3-1c-0.1-0.1-0.1-0.3-0.1-0.5
	c0.2-2.5,0.4-5.1,0.6-7.6c-7.8,0.1-15.5,0.4-23.3,1.1c-30.9,2.7-62.2,10.8-88.2,28.3c-24.9,16.8-42.7,42.2-56.2,68.5
	c-14.4,28-24.8,58.7-26.1,90.3C2.3,458,9.3,490,23.8,518.2c6.5,12.7,14.4,25,24.5,35.3c10.4,10.5,23.1,18,37,22.7
	c29.9,10.2,62.7,11.4,93.9,9.6c32.1-1.8,64.4-3.5,95.5-12.4c15.9-4.6,31.3-10.5,46.4-17.4C295.7,533.6,279.3,501.1,277.8,467.3z
	 M221.3,386.9c6.5-2.8,13.2-5.7,20.4-4.9c6.5,0.8,13,3.9,18.4,7.5c10,6.8,17.7,17.1,19.2,29.3c1.5,12.3-3.3,24.5-13.7,31.5
	c-12.3,8.3-27.8,8-42.1,7.6c-1.4,0-1.4-2.2,0-2.2c12.6,0.4,26,0.8,37.5-5.3c10.9-5.7,17-16.9,16.3-29.1
	c-0.7-11.9-7.7-22.4-17.3-29.3c-4.7-3.4-10.2-6.3-15.9-7.5c-7.7-1.8-14.8,1-21.8,4.1C221.1,389.3,220,387.5,221.3,386.9z"/>
<path class="st2" d="M205,197.9c-3.7-2.8-7.4-5.6-11.1-8.4c-1.2-4.6-2.4-9.2-3.7-13.7c-0.8-2.7-4.9-1.5-4.2,1.1
	c0.8,2.8,1.6,5.6,2.3,8.4c-1.8-1.4-3.7-2.8-5.5-4.2c-2.2-1.7-4.4,2.1-2.2,3.7c3.1,2.4,6.3,4.7,9.4,7.1c1.1,4.4,2.1,8.7,3.1,13.1
	c0.6,2.7,4.7,1.6,4.2-1.1c-0.6-2.6-1.2-5.3-1.8-7.9c2.4,1.8,4.9,3.7,7.3,5.5C205,203.3,207.2,199.5,205,197.9z"/>
<path class="st2" d="M231.2,221.9c18.2,10.4,40.5,11.2,59.4,2.1c1.9-0.9,0.2-3.7-1.6-2.8c-17.8,8.5-39,7.7-56.1-2.1
	C231,218.1,229.4,220.9,231.2,221.9z"/>
<path class="st2" d="M222.3,388.8c7-3.1,14.1-5.9,21.8-4.1c5.7,1.3,11.2,4.2,15.9,7.5c9.6,6.8,16.6,17.3,17.3,29.3
	c0.7,12.3-5.4,23.4-16.3,29.1c-11.5,6.1-24.9,5.7-37.5,5.3c-1.4,0-1.4,2.1,0,2.2c14.2,0.4,29.8,0.7,42.1-7.6
	c10.4-7,15.2-19.3,13.7-31.5c-1.5-12.2-9.2-22.5-19.2-29.3c-5.4-3.7-11.9-6.8-18.4-7.5c-7.2-0.8-14,2-20.4,4.9
	C220,387.5,221.1,389.3,222.3,388.8z"/>
<path class="st1" d="M360.2,443l-7.1,9.3c0,0,10.8-5,14.8-5.7c4-0.7,2.3-5.5,2.3-5.5L360.2,443z"/>
<polygon class="st1" points="470.1,311.1 472.5,307.1 476.9,312.3 472.2,316.7 "/>
<g>
	<path class="st8" d="M198.3,235.9c-32.6,0.4-65.9,5.2-95.5,19.5c-28.1,13.6-49.1,36-65.2,62.3c-17,27.7-30,59.1-34.5,91.3
		c-4.5,32.2-0.1,65.6,12.2,95.7c11,26.9,28.2,53.7,54.8,67.3c13.4,6.8,28.2,10.5,43,13c16.9,2.8,34,3.9,51.1,3.5
		c17.3-0.4,34.7-1.6,51.9-3.1c16.8-1.4,33.4-3.5,49.8-7.5c32.1-8,62.6-21.8,91.2-38.2c12.4-7.2,26.7-14.4,34.4-27
		c3.5-5.7,5.7-12.3,6.3-19c0.3-3.1,0.2-6.2-0.2-9.4c-0.6-5.1-0.6-8.6,1.3-13.4c2.1-5.5,3.1-10.5-0.2-15.7c-2.9-4.6-7.8-7.7-13-8.9
		c-6.8-1.5-14.9-0.9-21.5,1.3c-7.3,2.5-14.1,6.4-21.3,9.1c-7.9,2.9-16,5.3-24.3,7.2c-1.3,0.3-0.8,2.4,0.6,2.1
		c14.6-3.5,28.3-8.6,42-14.8c7.4-3.3,16.8-4.6,24.7-2.6c7.2,1.9,14.3,8.5,12.8,16.6c-0.6,3-2.1,5.7-3,8.5c-0.9,2.8-0.9,5.4-0.5,8.3
		c1,7.7,0.9,15-1.9,22.3c-5.6,15.2-19.7,23.3-33,31.1c-26.9,15.8-55.4,29.3-85.4,37.9c-31.1,8.9-63.4,10.6-95.5,12.4
		c-31.3,1.8-64,0.6-93.9-9.6c-14-4.8-26.6-12.2-37-22.7c-10.1-10.2-18-22.5-24.5-35.3C9.3,490,2.3,458,3.6,426.4
		C5,394.7,15.4,364.1,29.8,336c13.6-26.4,31.4-51.7,56.2-68.5c26-17.6,57.3-25.6,88.2-28.3c8-0.7,16.1-1.1,24.2-1.1
		C199.7,238,199.7,235.9,198.3,235.9L198.3,235.9z"/>
</g>
<g>
	<path class="st8" d="M313.1,560c-0.1-0.1-0.1-0.3-0.2-0.4c-12.5,5.4-25.2,10-38.3,13.8c-31.1,8.9-63.4,10.6-95.5,12.4
		c-31.3,1.8-64,0.6-93.9-9.6c-14-4.8-26.6-12.2-37-22.7c-10.1-10.2-18-22.5-24.5-35.3C9.3,490,2.3,458,3.6,426.4
		C5,394.7,15.4,364.1,29.8,336c13.6-26.4,31.4-51.7,56.2-68.5c26-17.6,57.3-25.6,88.2-28.3c8-0.7,16.1-1.1,24.2-1.1
		c1.4,0,1.4-2.2,0-2.2c-32.6,0.4-65.9,5.2-95.5,19.5c-28.1,13.6-49.1,36-65.2,62.3c-17,27.7-30,59.1-34.5,91.3
		c-4.5,32.2-0.1,65.6,12.2,95.7c11,26.9,28.2,53.7,54.8,67.3c13.4,6.8,28.2,10.5,43,13c16.9,2.8,34,3.9,51.1,3.5
		c17.3-0.4,34.7-1.6,51.9-3.1c16.8-1.4,33.4-3.5,49.8-7.5c16.5-4.1,32.6-9.7,48.2-16.5C313.7,561,313.4,560.5,313.1,560z"/>
	<path class="st4" d="M398.6,455.3c-2.9-4.6-7.8-7.7-13-8.9c-6.8-1.5-14.9-0.9-21.5,1.3c-7.3,2.5-14.1,6.4-21.3,9.1
		c-7.9,2.9-16,5.3-24.3,7.2c-1.3,0.3-0.8,2.4,0.6,2.1c14.6-3.5,28.3-8.6,42-14.8c7.4-3.3,16.8-4.6,24.7-2.6
		c7.2,1.9,14.3,8.5,12.8,16.6c-0.6,3-2.1,5.7-3,8.5c-0.9,2.8-0.9,5.4-0.5,8.3c1,7.7,0.9,15-1.9,22.3c-5.6,15.2-19.7,23.3-33,31.1
		c-12.7,7.5-25.7,14.4-39.1,20.5c0.6,0.3,1.2,0.7,1.8,1c0.1,0,0.1,0.1,0.2,0.1c0.2,0,0.3,0.1,0.5,0.2c11.4-5.3,22.6-11.2,33.5-17.5
		c12.4-7.2,26.7-14.4,34.4-27c3.5-5.7,5.7-12.3,6.3-19c0.3-3.1,0.2-6.2-0.2-9.4c-0.6-5.1-0.6-8.6,1.3-13.4
		C400.9,465.5,401.9,460.5,398.6,455.3z"/>
</g>
<g>
	<path class="st8" d="M472,307.9c-14.2-23.2-31.4-45.8-54.2-60.5c-15.4-9.9-32.3-15.1-50.5-16.2c-20-1.2-40.4,0-60.2,3.1
		c-1.4,0.2-0.8,2.3,0.6,2.1c17.3-2.7,34.7-3.6,52.1-3.3c17.5,0.4,34.2,3.4,49.7,11.9c26.3,14.4,44.9,38.9,60.5,63.9
		C470.6,308.4,471.2,308.1,472,307.9z"/>
	<path class="st8" d="M509.9,404c-4.1-30.1-16.8-59.7-31.9-85.9c-0.6-1-1.2-2.1-1.8-3.1c-0.4,0.6-1,1-1.8,1.3
		c14.3,24.1,26.1,50.8,31.6,78.2c5.4,26.8,3.9,54.9-3.9,81.1c-8.8,29.6-25.7,56.4-49.2,76.5c-1.1,0.9,0.5,2.4,1.5,1.5
		C497.1,517.2,517.5,459.1,509.9,404z"/>
</g>
<g>
	<path class="st2" d="M200.5,216.2c11.5,23.1,37.6,36.3,62.8,36.1c27.9-0.2,52.6-18.1,68.9-39.5c10.1-13.2,17.2-28.6,17.9-45.4
		c0.1-1.4-2.1-1.4-2.2,0c-1.1,27.7-20.5,53.2-42.7,68.5c-21.9,15.1-49,18.7-73.3,7.3c-12.6-5.9-23.3-15.5-29.5-28
		C201.7,213.9,199.9,215,200.5,216.2L200.5,216.2z"/>
</g>
<g>
	<path class="st9" d="M239.1,80.7c4-10.9,14.6-16.3,24.6-21c1.1-0.5,0.4-1.9-0.5-2c-12-1.3-23.8,1.7-33.4,9.1
		c0.5,0.3,1.1,0.6,1.6,0.9c0.3-23.1,7-45.8,20.6-64.5c0.6-0.8-0.4-1.7-1.2-1.6c-44.2,7.1-72.1,45.6-88.6,84.1c0.7,0.1,1.3,0.2,2,0.3
		c-5.2-12.4-6.4-26.1-2.4-39c0.3-1.1-1-1.7-1.8-1c-20.1,17.2-24.7,48.8-5,68.3c0.1-0.6,0.1-1.1,0.2-1.7c-19.5,9-32.7,27.4-37.1,48.2
		c-0.2,1,1,1.8,1.8,1c10.5-10.3,23.4-17.3,37.8-20.3c1.4-0.3,0.8-2.4-0.6-2.1c-14.7,3.1-28.1,10.3-38.8,20.9c0.6,0.3,1.2,0.7,1.8,1
		c4.3-20.3,17-38.2,36.1-46.9c0.6-0.3,0.7-1.2,0.2-1.7c-18.9-18.8-14.2-48.8,5-65.3c-0.6-0.3-1.2-0.7-1.8-1
		c-4.1,13.3-2.9,27.4,2.4,40.2c0.3,0.7,1.6,1.2,2,0.3c16.3-38.1,43.6-76.1,87.3-83.1c-0.4-0.5-0.8-1.1-1.2-1.6
		c-13.8,19.1-20.5,42.2-20.9,65.6c0,0.7,1,1.4,1.6,0.9c9.3-7.2,20.6-10.1,32.3-8.8c-0.2-0.7-0.4-1.3-0.5-2
		c-10.6,4.9-21.3,10.7-25.6,22.3C236.6,81.4,238.7,82,239.1,80.7L239.1,80.7z"/>
</g>
<g>
	<path class="st9" d="M157.5,140c-14.1,16.7-18.8,39.8-12.3,60.6c0.3,1.1,1.7,1,2.1,0c2.8-7.2,7.7-12.9,14.2-16.9
		c-0.5-0.3-1.1-0.6-1.6-0.9c0.3,8.7,2.7,17,7.2,24.5c0.5,0.8,1.7,0.6,2-0.3c1.2-4.6,3.5-8.4,7-11.7c1-1-0.5-2.5-1.5-1.5
		c-3.7,3.5-6.2,7.7-7.5,12.6c0.7-0.1,1.3-0.2,2-0.3c-4.3-7.2-6.6-15-6.9-23.4c0-0.8-0.9-1.4-1.6-0.9c-7.1,4.3-12.2,10.5-15.2,18.2
		c0.7,0,1.4,0,2.1,0c-6.2-20.1-1.8-42.4,11.8-58.6C159.9,140.5,158.3,139,157.5,140L157.5,140z"/>
</g>
<g>
	<path class="st2" d="M181.7,183c7.4,5.6,14.8,11.1,22.2,16.7"/>
	<g>
		<path class="st2" d="M180.6,184.9c7.4,5.6,14.8,11.1,22.2,16.7c2.2,1.7,4.4-2.1,2.2-3.7c-7.4-5.6-14.8-11.1-22.2-16.7
			C180.6,179.5,178.4,183.2,180.6,184.9L180.6,184.9z"/>
	</g>
</g>
<g>
	<path class="st2" d="M195.2,204.5c-2.1-9.4-4.4-18.8-7.1-28.2"/>
	<g>
		<path class="st2" d="M197.3,204c-2.1-9.5-4.5-18.9-7.1-28.2c-0.8-2.7-4.9-1.5-4.2,1.1c2.7,9.3,5,18.7,7.1,28.2
			C193.8,207.8,197.9,206.7,197.3,204L197.3,204z"/>
	</g>
</g>
<g>
	<path class="st9" d="M315.8,94.5C277.3,59.8,214.6,77.9,190,120.2c-7.8,13.4-11.9,28.8-9.9,44.3c0.2,1.4,2.3,1.4,2.2,0
		c-3.4-26.2,11-52.8,31.7-68.2c18.3-13.6,42.3-20.6,65-17c13.2,2.1,25.4,7.9,35.3,16.8C315.3,97,316.8,95.4,315.8,94.5L315.8,94.5z"
		/>
</g>
<g>
	<path class="st9" d="M324.3,90.5c-15.8-0.5-25.6,17.7-27.7,31.2c-2.5,15.5,2.6,31.6,14.1,42.5c5.4,5.2,12.3,9.3,19.7,10.6
		c8.1,1.5,15.9-2.3,22.2-7.2c13-10.2,13.2-32.4,9.1-47c-4.6-16.6-19.1-32.3-37.6-30.2c-2.7,0.3-2.8,4.6,0,4.3
		c13.8-1.6,25.6,8.1,31.1,20.2c5.7,12.5,6.8,31.3-0.2,43.6c-3.4,6-11.5,11.2-18.3,12.2c-7.1,1.1-14.7-2.8-20.1-7.1
		c-10.4-8.2-16.4-21.2-16.3-34.3c0.1-13.1,7.9-34.9,24.1-34.5C327,94.9,327,90.6,324.3,90.5L324.3,90.5z"/>
</g>
<g>
	<path class="st10" d="M295.4,151.2c8.4,5.4,15.6,12.6,20.8,21.2c2.7,4.5,5.2,9.6,4.9,14.9c-0.3,5.8-4.6,11.2-10.8,10.7
		c-2.1-0.2-2.1,3,0,3.2c5,0.4,9.4-2.3,11.9-6.5c3.1-5.2,2.4-11.6,0.3-17c-4.7-12.1-14.6-22.3-25.4-29.2
		C295.3,147.3,293.7,150.1,295.4,151.2L295.4,151.2z"/>
</g>
<g>
	<path class="st9" d="M276.7,150.9c4.7-7.1,12.7-9.8,20.9-7.5c2.7,0.8,3.8-3.4,1.1-4.2c-10-2.9-20,0.8-25.7,9.4
		C271.5,151,275.2,153.2,276.7,150.9L276.7,150.9z"/>
</g>
<g>
	<path class="st9" d="M196,155.1c-9.2,2.5-17.9,6.1-26.6,9.9c-3.3,1.4-5.5,1.9-5.9,5.7c-0.5,4.3,0.2,8.8,1.4,12.9
		c0.8,2.7,4.9,1.5,4.2-1.1c-0.8-2.9-2.4-7.9-1.3-11c0.6-1.7,1.3-1.6,3.1-2.4c1.9-0.8,3.7-1.6,5.6-2.4c6.8-2.8,13.6-5.4,20.7-7.4
		C199.8,158.5,198.7,154.4,196,155.1L196,155.1z"/>
</g>
<g>
	<path class="st10" d="M200.6,172c-1.6-3.9-4.6-9.5-9-10.7c-4-1.1-9,1.8-11.8,4.4c-7.8,7.2-8.8,18.8-5.4,28.4
		c3.4,9.8,11.9,20.9,22.8,22.6c9.4,1.4,16.1-6.7,16.3-15.5c0-1.4-2.1-1.4-2.2,0c-0.1,8.8-7.3,15.6-16.2,12.8
		c-8.3-2.6-14.8-10.9-18-18.7c-3-7.4-3.6-16.1,0.4-23.2c1.9-3.3,4.7-6.1,8.2-7.6c3.2-1.4,5.9-1.2,8.7,1.4c1.9,1.8,3.2,4.4,4.2,6.7
		C199.1,173.8,201.1,173.3,200.6,172L200.6,172z"/>
</g>
<g>
	<path class="st9" d="M231.1,116.3c-17.5-0.5-30.4,17.1-33,32.9c-2.8,16.7,4.4,33.1,17.5,43.5c6.6,5.3,14.6,9.2,23,10.5
		c9.1,1.4,18.1-2,25.6-7.1c15.4-10.2,16.6-34.2,10.9-50.2c-6.5-18.3-24.5-31.6-44.2-29.6c-2.7,0.3-2.8,4.6,0,4.3
		c15.2-1.5,29.8,6.8,37.1,20c3.9,7,5.7,15,5.7,23c0,8.1-1.4,18.3-6.9,24.6c-5,5.7-14.5,10.5-22.1,11c-7.8,0.5-16-2.9-22.4-7
		c-12.1-7.8-20.6-21.2-20.5-35.8c0.1-15.7,11.4-36.3,29.3-35.8C233.9,120.7,233.9,116.4,231.1,116.3L231.1,116.3z"/>
</g>
<g>
	<path class="st9" d="M223.8,112.3c14.1,5.2,29.8,5.2,43.9,0c6.5-2.4,12.5-5.9,17.9-10.3c3.8-3.1,7.5-6.6,12.4-8
		c4.8-1.4,9.7-0.9,14.3,1c1.3,0.5,1.8-1.6,0.6-2.1c-6.6-2.7-13.9-2.5-20.1,1c-7,3.9-12.4,10.1-19.7,13.7c-15,7.5-32.9,8.4-48.6,2.6
		C223.1,109.7,222.5,111.8,223.8,112.3L223.8,112.3z"/>
</g>
<g>
	<path class="st9" d="M223.5,111.4c-0.1,2.6-1,5.1-2.6,7.1c-0.9,1.1,0.7,2.6,1.5,1.5c2-2.5,3.1-5.4,3.2-8.7
		C225.7,110.1,223.6,110.1,223.5,111.4L223.5,111.4z"/>
</g>
<g>
	<path class="st2" d="M286.7,247.1c-1.1,3.3-2.3,6.6-3.4,9.9c-0.5,1.3,1.6,1.9,2.1,0.6c1.1-3.3,2.3-6.6,3.4-9.9
		C289.2,246.3,287.1,245.8,286.7,247.1L286.7,247.1z"/>
</g>
<g>
	<path class="st2" d="M199.2,217.2c-0.8,9.5-1.6,19-2.4,28.4c-0.1,1.4,2,1.4,2.2,0c0.8-9.5,1.6-19,2.4-28.4
		C201.5,215.8,199.3,215.9,199.2,217.2L199.2,217.2z"/>
</g>
<g>
	<path class="st2" d="M197.2,247.2c14,13.3,32,21.5,51.1,24.3c8.8,1.3,18.5,1.9,27.3,0.2c6-1.2,15-7.3,10-14.2
		c-0.8-1.1-2.7,0-1.9,1.1c4.1,5.7-4.2,10.2-8.7,11c-3.9,0.7-8,0.8-12,0.8c-7.9,0-15.9-1-23.6-2.8c-15.2-3.7-29.3-11.1-40.7-21.9
		C197.7,244.7,196.2,246.2,197.2,247.2L197.2,247.2z"/>
</g>
<g>
	<path class="st9" d="M216.9,155.4c-4.8,6.2-8.9,13-12.9,19.8c-0.7,1.2,1.2,2.3,1.9,1.1c3.9-6.6,7.9-13.3,12.6-19.4
		C219.2,155.9,217.7,154.3,216.9,155.4L216.9,155.4z"/>
</g>
<g>
	<path class="st9" d="M226,162.2c-4.9,7.1-9.5,14.5-13.6,22.2c-0.7,1.2,1.2,2.3,1.9,1.1c4.1-7.6,8.7-15,13.6-22.2
		C228.6,162.1,226.8,161,226,162.2L226,162.2z"/>
</g>
<g>
	<path class="st9" d="M315.5,130c-4.8,6.2-8.9,13-12.9,19.8c-0.7,1.2,1.2,2.3,1.9,1.1c3.9-6.6,7.9-13.3,12.6-19.4
		C317.8,130.4,316.3,128.9,315.5,130L315.5,130z"/>
</g>
<g>
	<path class="st9" d="M324.6,136.7c-4.9,7.1-9.5,14.5-13.6,22.2c-0.7,1.2,1.2,2.3,1.9,1.1c4.1-7.6,8.7-15,13.6-22.2
		C327.2,136.6,325.4,135.6,324.6,136.7L324.6,136.7z"/>
</g>
<g>
	<path class="st9" d="M231.2,221.9c18.2,10.4,40.5,11.2,59.4,2.1c1.9-0.9,0.2-3.7-1.6-2.8c-17.8,8.5-39,7.7-56.1-2.1
		C231,218.1,229.4,220.9,231.2,221.9L231.2,221.9z"/>
</g>
<g>
	<path class="st9" d="M303.6,104.2c-6.5,3.7-13.1,7.9-14.1,15.9c-0.3,2.1,3,2,3.2,0c0.8-6.6,7.3-10.1,12.5-13.1
		C307,105.9,305.4,103.2,303.6,104.2L303.6,104.2z"/>
</g>
<g>
	<path class="st9" d="M260.5,128.3c2.3-1.2,4.8-1.5,7.4-0.9c2,0.5,2.9-2.6,0.9-3.1c-3.4-0.9-6.8-0.4-9.9,1.2
		C257,126.5,258.7,129.3,260.5,128.3L260.5,128.3z"/>
</g>
<g>
	<path class="st8" d="M222.6,389.3c6.9-3,13.8-5.8,21.4-4c5.6,1.3,11.1,4.1,15.8,7.5c9.4,6.7,16.3,17.1,17,28.8
		c0.7,12.1-5.3,23-16,28.7c-11.4,6-24.8,5.6-37.3,5.2c-2.1-0.1-2.1,3.2,0,3.2c14.3,0.4,30,0.7,42.3-7.7c10.5-7.1,15.4-19.5,13.9-32
		c-1.5-12.4-9.3-22.9-19.4-29.7c-5.4-3.7-12-6.8-18.5-7.6c-7.4-0.9-14.2,2-20.9,4.9C219.1,387.3,220.7,390.1,222.6,389.3
		L222.6,389.3z"/>
</g>
<g>
	<path class="st8" d="M386,408.7c0.4-0.4,0.8-0.8,1.4-1c-2.4-12.2-11.4-21.3-22.2-26.9c-13.2-6.9-26.4-5.3-38.9,2.5
		c-1.8,1.1-0.1,3.9,1.6,2.8c5.6-3.5,11.8-6.3,18.5-6.7c6.6-0.4,12.5,1.7,18.2,4.8c9.8,5.4,17.8,13.7,19.8,25.1
		c0.1,0.5,0.3,0.8,0.6,0.9C385.2,409.6,385.6,409.1,386,408.7z"/>
</g>
<g>
	<path class="st8" d="M127.3,365.8c-10.1,17.6-20.8,35.8-24.3,56.1c-2.9,17.1,1.2,32.8,10.4,47.2c4.6,7.1,9.3,14.4,17.2,18.1
		c8.3,3.9,18,5,27,5.9c21.1,2.1,42.4,0.1,62.9-4.9c23.3-5.6,45.5-14.8,66.8-25.7c1.2-0.6,0.1-2.5-1.1-1.9
		c-35.6,18.1-74.5,31.8-114.9,31.1c-10.4-0.2-20.9-1.2-31-3.6c-3.8-0.9-7.5-2-10.9-4c-4.5-2.6-7.3-6.3-10.3-10.5
		c-9.9-13.8-16.6-29-14.8-46.4c2.3-22,14-41.7,24.8-60.5C129.9,365.7,128,364.6,127.3,365.8L127.3,365.8z"/>
</g>
<path class="st4" d="M286.3,460.7c-2.9,1.5-5.8,2.9-8.7,4.3c0.1,0.8,0.1,1.5,0.2,2.3c3.2-1.5,6.4-3.1,9.6-4.7
	C288.6,461.9,287.5,460.1,286.3,460.7z"/>
<g>
	<path class="st2" d="M287.7,461.7c10.3-9.6,23.1-16.4,36.9-19.3c12.9-2.7,27.7-1.7,37.6,7.9c1,1,2.5-0.6,1.5-1.5
		c-21.6-20.9-58.9-5.9-77.5,11.5C285.1,461.2,286.7,462.7,287.7,461.7L287.7,461.7z"/>
</g>
<g>
	<path class="st8" d="M404.1,401.9c8.5,21.7,11.1,51.8-2.5,72.1c-0.8,1.2,1.1,2.2,1.9,1.1c13.9-20.7,11.4-51.5,2.7-73.7
		C405.7,400.1,403.6,400.6,404.1,401.9L404.1,401.9z"/>
</g>
<g>
	<path class="st8" d="M391.7,418.7c7.6,44.4,14,89,17.7,134c0.1,1.4,2.3,1.4,2.2,0c-3.6-45.1-10.1-89.9-17.7-134.5
		C393.5,416.8,391.5,417.4,391.7,418.7L391.7,418.7z"/>
</g>
<path class="st1" d="M360.2,443l-7.1,9.3c0,0,10.8-5,14.8-5.7c4-0.7,2.3-5.5,2.3-5.5L360.2,443z"/>
<g>
	<path class="st8" d="M385.7,428.1c-0.1,6.7-5,11.4-10.9,13.8c-1.9,0.8-1.1,3.9,0.9,3.1c7.2-3,13.1-8.7,13.2-17
		C389,426,385.7,426,385.7,428.1L385.7,428.1z"/>
</g>
<g>
	<path class="st9" d="M351.5,454c39.7-51,81.1-100.7,124.2-148.9c12-13.4,24-26.6,36.3-39.7c-0.6-0.4-1.1-0.9-1.7-1.3
		c-29.2,50.3-74.8,88.5-107.1,136.6c-10.1,15.1-19.7,30.5-31.1,44.7c-0.9,1.1,0.7,2.6,1.5,1.5c19.4-24,34.3-51.3,53.8-75.3
		c18.4-22.7,38.7-43.8,57-66.6c10.2-12.7,19.7-25.8,27.8-39.9c0.6-1-0.8-2.2-1.7-1.3c-44.2,47.2-86.4,96.3-127.1,146.5
		c-11.3,13.9-22.4,28-33.4,42.1C349.2,453.6,350.7,455.1,351.5,454L351.5,454z"/>
</g>
<path class="st4" d="M398.6,455.3c-2.9-4.6-7.8-7.7-13-8.9c-6.8-1.5-14.9-0.9-21.5,1.3c-7.3,2.5-14.1,6.4-21.3,9.1
	c-7.9,2.9-16,5.3-24.3,7.2c-1.3,0.3-0.8,2.4,0.6,2.1c14.6-3.5,28.3-8.6,42-14.8c7.4-3.3,16.8-4.6,24.7-2.6
	c7.2,1.9,14.3,8.5,12.8,16.6c-0.6,3-2.1,5.7-3,8.5c-0.9,2.8-0.9,5.4-0.5,8.3c1,7.7,0.9,15-1.9,22.3c-5.6,15.2-19.7,23.3-33,31.1
	c-12.7,7.5-25.7,14.4-39.1,20.5c0.6,0.3,1.2,0.7,1.8,1c0.1,0,0.1,0.1,0.2,0.1c0.2,0,0.3,0.1,0.5,0.2c11.4-5.3,22.6-11.2,33.5-17.5
	c12.4-7.2,26.7-14.4,34.4-27c3.5-5.7,5.7-12.3,6.3-19c0.3-3.1,0.2-6.2-0.2-9.4c-0.6-5.1-0.6-8.6,1.3-13.4
	C400.9,465.5,401.9,460.5,398.6,455.3z"/>
</svg>
