<?xml version="1.0" encoding="utf-8"?>
<!-- Generator: Adobe Illustrator 22.1.0, SVG Export Plug-In . SVG Version: 6.00 Build 0)  -->
<svg version="1.1" id="Calque_1" xmlns="http://www.w3.org/2000/svg" xmlns:xlink="http://www.w3.org/1999/xlink" x="0px" y="0px"
	 viewBox="0 0 622.5 627.8" style="enable-background:new 0 0 622.5 627.8;" xml:space="preserve">
<style type="text/css">
	.st0{fill:#EFA68D;}
	.st1{fill:#932C3E;}
	.st2{fill:#F08862;}
	.st3{fill:#E8464D;}
	.st4{fill:#374092;}
	.st5{fill:#FFFFFF;}
	.st6{fill:#F08A64;}
	.st7{fill:#ECECEC;}
	.st8{fill:#F08862;stroke:#F08862;stroke-width:4;stroke-miterlimit:10;}
	.st9{fill:#D83E51;}
	.st10{fill:#2C3980;}
	.st11{fill:#EF946F;}
</style>
<path class="st0" d="M221.7,217.8l-18.6-3.9l1.6,17.5l5.8,18.4l27.5,8.1l32.8,6.9c0,0,3.4,4.5,8.8,0s8.2-9.6,8.2-9.6s8.4-5.4,9.5-9
	s3.7-6.2,3.7-8.3s7.2,2.4,7.2,2.4V233l-39.8-12L221.7,217.8z"/>
<g id="Calque_2_1_">
</g>
<g id="Calque_1_1_">
	<title>Fichier 3</title>
	<g>
		<path class="st1" d="M213.5,201.2c-0.1,6.6-3.9,12.7-9.7,14.9C209.6,214,213.4,207.8,213.5,201.2z"/>
		<path class="st1" d="M212.7,183.9c4-7.5,8.5-14.8,13.3-21.7c0.4-0.7,1.2-0.6,1.6-0.3c-0.1-0.1-0.3-0.2-0.5-0.3
			c-0.4-0.1-0.8,0-1.1,0.5C221.1,169.2,216.7,176.4,212.7,183.9C212.6,183.9,212.6,183.9,212.7,183.9z"/>
		<path class="st1" d="M203.2,201.9c0,0-0.1,0-0.1-0.1C203.1,201.8,203.2,201.8,203.2,201.9z"/>
		<path class="st1" d="M207.3,176.5c-0.1-0.2-0.2-0.3-0.3-0.5c0.2,0.4,0.4,0.8,0.7,1.1C207.5,177,207.4,176.7,207.3,176.5z"/>
		<path class="st1" d="M217.3,155.1c0.6-0.2,1.2,0.4,1.4,1c0-0.6-0.5-1.1-1.1-1.1C217.5,155,217.4,155,217.3,155.1z"/>
		<path class="st1" d="M205.5,172.7L205.5,172.7C205.4,172.7,205.4,172.8,205.5,172.7c-0.3-0.4-0.5-1-0.8-1.5
			c0.2,0.5,0.5,1.1,0.7,1.6C205.4,172.8,205.4,172.8,205.5,172.7z"/>
		<path class="st1" d="M283.5,258.1C283.5,258,283.5,258,283.5,258.1C283.5,258,283.5,258,283.5,258.1
			C283.5,258,283.5,258,283.5,258.1z"/>
		<path class="st1" d="M203.4,201.9c0.1,0,0.1,0,0.2,0.1C203.5,202,203.4,201.9,203.4,201.9z"/>
		<path class="st1" d="M203.6,202c0.1,0,0.2,0,0.2,0S203.7,202,203.6,202z"/>
		<path class="st1" d="M205.9,199.8c-0.1,1.1-0.9,2.2-2,2.2C205,202,205.9,200.9,205.9,199.8z"/>
		<path class="st1" d="M239.4,120.8c-0.1,0-0.1,0-0.2,0C239.2,120.8,239.2,120.8,239.4,120.8L239.4,120.8z"/>
		<path class="st1" d="M214.8,186.2c1.1,1.1,2.3,2.2,3.6,3.2C217.1,188.3,215.9,187.3,214.8,186.2z"/>
		<path class="st1" d="M228.7,85.2c3-1.4,6-2.7,9.1-3.8c0,0,0,0-0.1,0C234.6,82.5,231.6,83.7,228.7,85.2z"/>
		<path class="st1" d="M213,160.7c-0.4,0.6-0.8,1.1-1.1,1.7c-0.7,1.1-1.4,2.2-2.1,3.3c-0.6,1-1.2,2-1.8,3c2.1-3.5,4.4-6.9,6.7-10.2
			c-0.2,0.2-0.3,0.4-0.5,0.6C213.8,159.6,213.4,160.2,213,160.7z"/>
		<path class="st1" d="M211.3,201.2L211.3,201.2L211.3,201.2c0-0.7,0.6-1,1.1-1C211.9,200.1,211.3,200.5,211.3,201.2z"/>
		<path class="st1" d="M264.2,196.1c-0.4,0.3-0.9,0.6-1.3,0.9c0.5-0.3,1-0.6,1.5-1c13.9-9.2,16.2-29.5,12.4-45.1c0,0,0.1,0,0.1-0.1
			c1.7-2.6,3.9-4.6,6.4-6.1c-2.6,1.4-4.8,3.5-6.6,6.2l-0.1,0.1C280.4,166.6,278,186.9,264.2,196.1z"/>
		<path class="st1" d="M238.8,120.7C238.9,120.7,238.9,120.7,238.8,120.7c-0.2,0-0.6-0.1-0.9-0.1
			C238.2,120.6,238.5,120.7,238.8,120.7z"/>
		<path class="st1" d="M283.3,257c-0.2,0.4-0.1,0.7,0.1,0.9C283.2,257.7,283.2,257.4,283.3,257c0.6-1.9,1.3-3.8,1.9-5.6
			C284.6,253.2,283.9,255.1,283.3,257z"/>
		<path class="st1" d="M225.5,112.9c-0.2,1.5-0.6,2.9-1.2,4.2c0.1,0,0.1,0,0.2-0.1c0.6-1.3,1-2.6,1.2-4.1
			C225.6,112.9,225.5,112.9,225.5,112.9z"/>
		<path class="st1" d="M240.6,120.9c0.1,0,0.1,0,0.2,0c0.1,0,0.1,0,0.2,0C240.8,121,240.7,121,240.6,120.9z"/>
		<path class="st1" d="M232.1,218.9c-1.5-0.1-2.5,2.1-1,3c5.7,3.3,11.8,5.6,18.1,6.9c-6.3-1.4-12.3-3.7-18-6.9
			C229.6,221,230.6,218.8,232.1,218.9z"/>
		<path class="st1" d="M241.5,121.1c0.2,0,0.5,0.1,0.7,0.1C242,121.2,241.7,121.2,241.5,121.1L241.5,121.1z"/>
		<path class="st1" d="M267.9,127.4c-1.7-0.4-3.4-0.4-5,0c0,0,0,0,0.1,0.1C264.6,127.1,266.2,127.1,267.9,127.4c1.5,0.4,2.3-0.9,2-2
			C270.1,126.4,269.2,127.7,267.9,127.4z"/>
		<path class="st1" d="M286.4,248.1L286.4,248.1C286.3,248.1,286.3,248.1,286.4,248.1C286.3,248.1,286.3,248.1,286.4,248.1
			C286.3,248.1,286.3,248.1,286.4,248.1z"/>
		<path class="st1" d="M398.5,461c0-0.3-0.1-0.6-0.1-0.9c-0.4-1.4-1-2.6-1.7-3.8c0.8,1.2,1.4,2.6,1.7,4
			C398.4,460.5,398.5,460.8,398.5,461z"/>
		<path class="st1" d="M397.2,452.1c-1.3-8.5-2.7-17-4.1-25.5C394.4,435.1,395.8,443.6,397.2,452.1z"/>
		<path class="st1" d="M385.2,431.6L385.2,431.6c-1.8,2.6-3.7,5.2-5.6,7.7c0,0,0.1,0,0.1-0.1C381.5,436.7,383.4,434.1,385.2,431.6z"
			/>
		<path class="st1" d="M374.7,445.6c0.1-0.1,0.2-0.3,0.3-0.5c0,0,0,0-0.1,0C374.9,445.3,374.8,445.4,374.7,445.6L374.7,445.6z"/>
		<path class="st1" d="M258.9,59.6c-3.7,1.8-7.3,3.9-10.6,6.3c3.3-2.4,7-4.5,10.7-6.3C258.9,59.6,258.9,59.6,258.9,59.6z"/>
		<path class="st1" d="M158.4,139.7c0.7,0.2,1.3,1.1,0.9,1.7c-3.2,3.8-5.9,7.9-8,12.3c2.1-4.3,4.8-8.4,7.9-12.1
			C159.9,140.7,159.2,139.7,158.4,139.7z"/>
		<path class="st1" d="M156.6,112.8c-17.9-17.7-14.6-45.5,2-62.4c0-0.1,0.1-0.3,0.1-0.4c-16.8,16.9-20.2,44.9-2.2,62.7
			c0.5,0.5,0.4,1.4-0.2,1.7c-18,8.2-30.3,24.6-35.3,43.4c0.1-0.1,0.3-0.2,0.4-0.3c5-18.6,17.2-34.7,35.1-43
			C157,114.2,157.1,113.2,156.6,112.8z"/>
		<path class="st1" d="M387,405.9c19-23.4,38.4-46.6,58.2-69.4c-19,21.9-37.7,44.1-55.9,66.6C388.4,404,387.7,405,387,405.9z"/>
		<path class="st1" d="M158.3,139.7c-0.2-0.1-0.3-0.2-0.5-0.2c0.1,0.1,0.2,0.1,0.3,0.2C158.2,139.7,158.2,139.7,158.3,139.7z"/>
		<path class="st1" d="M374.3,442.2c0.1-0.1,0.3-0.2,0.5-0.3l0,0c10.2-13.2,19.1-27.3,28.4-41.2c20.2-30.1,45.6-56.3,69-84.1
			l-0.1-0.2c-23.3,27.8-48.8,54-69.1,84.1C393.6,414.6,384.7,428.9,374.3,442.2z"/>
		<path class="st1" d="M311.2,158.5L311.2,158.5c0.4-0.7,0.8-1.4,1.2-2.1C312,157.1,311.6,157.8,311.2,158.5z"/>
		<path class="st1" d="M310.5,197.9c-0.4,0-0.7,0-1,0.2c0.2-0.1,0.5-0.1,0.8-0.1c1.9,0.2,3.7-0.3,5.2-1.1
			C314.1,197.7,312.4,198.1,310.5,197.9z"/>
		<path class="st1" d="M317.3,130.6c-0.1-0.6-0.6-1-1.1-1C316.7,129.6,317.1,130.1,317.3,130.6z"/>
		<path class="st0" d="M306,235.3c-0.2,0.2-0.5,0.3-0.7,0.5c-21.8,15.1-48.9,18.8-73.3,7.3c-12.2-5.7-22.6-14.8-28.9-26.8
			c0.2,0,0.3-0.1,0.5-0.2c-0.2,0.1-0.4,0.1-0.6,0.2c6.3,12,16.7,21.2,28.9,26.9c24.3,11.4,51.4,7.8,73.3-7.3
			C305.5,235.7,305.8,235.5,306,235.3z"/>
		<path class="st1" d="M304.1,147.3c2.9-4.9,5.9-9.7,9.2-14.3C309.9,137.6,306.9,142.4,304.1,147.3L304.1,147.3z"/>
		<path class="st1" d="M326.5,136.8C326.6,136.8,326.6,136.8,326.5,136.8c-0.3-0.7-1.4-1-1.9-0.2c-1.3,1.9-2.5,3.8-3.8,5.7
			c1.2-1.9,2.5-3.8,3.8-5.6C325.2,135.9,326.2,136.2,326.5,136.8z"/>
		<path class="st1" d="M322.2,194.7c-1.7,2.9-4.3,5-7.4,6c3.2-0.9,5.8-3.2,7.6-6.1c3.2-5.2,2.4-11.5,0.3-17c-1-2.3-2-4.7-3.4-6.9
			c-0.1-0.1-0.2-0.1-0.3-0.2c1.4,2.3,2.6,4.7,3.5,7.2C324.6,183.1,325.3,189.5,322.2,194.7z"/>
		<path class="st1" d="M347.6,171.1V171c-4.8,2.8-10.1,4.6-15.7,4C337.5,175.7,342.9,173.9,347.6,171.1z"/>
		<path class="st1" d="M323.3,168c2.8,1.4,5.7,2.4,8.7,2.8c0,0,0-0.1,0.1-0.1C329.1,170.3,326.1,169.3,323.3,168
			C323.3,167.9,323.3,167.9,323.3,168z"/>
		<path class="st1" d="M355,158.5c7-12.3,5.9-31.1,0.2-43.6c-1.5-3.2-3.4-6.3-5.7-9c2.2,2.7,4.1,5.7,5.6,8.9
			c1.2,2.7,2.2,5.6,2.9,8.7c0,0,0-0.1,0.1-0.1c0.6,2.6,1.1,5.3,1.4,8.1v0.1c0.9,9.1-0.2,18.6-4.1,26c0.3-0.6,0.6-1.2,1-1.8
			C355.8,156.7,355.4,157.6,355,158.5c-0.4,0.5-0.7,1-1,1.4c0.1-0.2,0.2-0.4,0.4-0.6c-3.4,5.2-10.2,9.7-16.4,11.1l-0.1,0.1
			C344.4,169.1,351.8,164.1,355,158.5z"/>
		<path class="st1" d="M201.3,217.8c-0.6,6.8-1.2,13.6-1.7,20.4l0.1,0.1c0.4-4.1,0.7-8.3,1.1-12.4l-0.1-0.1
			C200.9,223.1,201.2,220.6,201.3,217.8C201.4,217.9,201.4,217.8,201.3,217.8z"/>
		<path class="st1" d="M275.6,271.7c-8.8,1.7-18.5,1.1-27.3-0.2c-19.1-2.8-37.1-11-51.1-24.3c-0.3-0.3-0.4-0.7-0.3-1
			c-0.1-0.2-0.1-0.3-0.1-0.6c0.2-2.5,0.4-5,0.6-7.5c-7.8,0-15.6,0.4-23.2,1.1c-30.9,2.7-62.2,10.7-88.2,28.3
			c-4.7,3.2-9.1,6.6-13.2,10.3c4.1-3.6,8.5-7,13-10.1c26-17.5,57.3-25.6,88.2-28.3c7.8-0.7,15.5-1,23.3-1.1l0,0
			c-0.2,2.5-0.4,5.1-0.6,7.6c0,0.2,0,0.4,0.1,0.5c-0.1,0.3,0,0.7,0.3,1c14.1,13.3,32,21.5,51.1,24.3c5.5,0.8,11.4,1.3,17.1,1.2
			c3.5-0.1,6.9-0.4,10.2-1c3.4-0.7,7.8-3,10-6.1C283.3,268.8,279,271,275.6,271.7z"/>
		<path class="st1" d="M267.1,472.1c3.6-1.6,7.1-3.2,10.7-4.9l0,0C274.3,468.9,270.7,470.6,267.1,472.1z"/>
		<path class="st1" d="M358.8,444.8L358.8,444.8c0-0.1,0-0.1,0-0.1C358.8,444.8,358.7,444.8,358.8,444.8
			C358.7,444.8,358.8,444.8,358.8,444.8z"/>
		<path class="st1" d="M359.9,233.2c17.5,0.4,34.2,3.4,49.7,11.9c3.4,1.8,6.7,3.9,9.8,6c-3.2-2.2-6.5-4.3-9.9-6.1
			c-15.5-8.5-32.2-11.5-49.7-11.9c-17.2-0.3-34.3,0.6-51.4,3.2c-6.1,4.4-12.6,8.1-19.5,10.9c0,0.2,0,0.3,0,0.5
			c-0.8,2.5-1.7,5-2.6,7.5c0.9-2.5,1.7-4.9,2.6-7.4c0.1-0.2,0.1-0.4,0.1-0.5c6.9-2.8,13.4-6.5,19.5-10.9c14.9-2.3,30-3.3,45-3.3
			C355.6,233.1,357.8,233.2,359.9,233.2z"/>
		<path class="st1" d="M368.8,446.3c-0.2,0.1-0.4,0.2-0.7,0.2c1.2-0.3,2.5-0.5,3.7-0.7c0-0.2,0.1-0.3,0.2-0.5
			c0.6-0.7,1.1-1.4,1.6-2.1c0-0.2,0.1-0.4,0.2-0.6c-0.7,0.9-1.3,1.7-2,2.6c-0.1,0.2-0.2,0.3-0.2,0.5
			C370.7,445.9,369.8,446.1,368.8,446.3z"/>
		<path class="st1" d="M287.9,461.5c0,0.1,0,0.2,0,0.3C287.9,461.7,287.9,461.6,287.9,461.5L287.9,461.5z"/>
		<path class="st1" d="M215.3,489.4c1.8-0.4,3.5-0.8,5.3-1.2c12.6-3,24.8-7.1,36.7-11.9c-12,4.8-24.3,8.9-36.8,11.9
			C218.8,488.6,217.1,489,215.3,489.4z"/>
		<path class="st1" d="M205.8,212.5c-2.8,2-6.5,2.7-10.6,1.3c-8.3-2.6-14.8-10.9-18-18.7c-2.5-6-3.4-12.8-1.4-19
			c-2,6.2-1.1,13.1,1.3,19.2c3.2,7.8,9.7,16.1,18,18.7C199.2,215.3,202.9,214.5,205.8,212.5z"/>
		<path class="st1" d="M179.7,160.6c-3.5,1.4-7,2.8-10.3,4.3c-3.3,1.4-5.5,1.9-5.9,5.7c-0.1,1.1-0.2,2.2-0.2,3.3
			c0-1.1,0-2.1,0.2-3.2c0.4-3.8,2.6-4.3,5.9-5.7C172.8,163.5,176.3,162,179.7,160.6L179.7,160.6z"/>
		<path class="st1" d="M241.7,268.1c-0.7-0.2-1.5-0.3-2.2-0.5c-15.2-3.7-29.1-11-40.5-21.7c0-0.1,0-0.1,0-0.2c0.1-0.7,0.1-1.3,0.2-2
			c-0.1,0.6-0.1,1.2-0.2,1.9c0,0.1-0.1,0.2-0.1,0.3c11.4,10.7,25.4,18,40.5,21.7C240.2,267.8,240.9,267.9,241.7,268.1z"/>
		<path class="st1" d="M427.4,371.6C419.7,381,412.8,391,406,401c0.1,0.1,0.2,0.2,0.2,0.4c8.7,22.2,11.2,53-2.7,73.7
			c-0.2,0.2-0.4,0.4-0.6,0.4c0,0.1,0,0.1,0,0.2c0.3-0.1,0.5-0.2,0.7-0.5c13.9-20.7,11.4-51.5,2.7-73.7c0-0.2-0.1-0.3-0.2-0.4
			c6.8-10.1,13.7-20,21.4-29.4c15.1-18.7,31.7-36.4,47.2-54.8c0,0,0-0.1-0.1-0.1C459.1,335.2,442.6,352.9,427.4,371.6z"/>
		<path class="st1" d="M411.6,552.8L411.6,552.8L411.6,552.8L411.6,552.8z"/>
		<path class="st1" d="M167.4,174.1c0,2.9,1.1,6.3,1.7,8.4c0.2,0.6,0.1,1.2-0.2,1.6c0.3-0.4,0.4-1,0.2-1.7
			C168.5,180.2,167.5,176.9,167.4,174.1z"/>
		<path class="st1" d="M504.7,273.4c0.1-0.1,0.1-0.2,0.2-0.2c-8.4,9.1-16.7,18.2-25,27.4C488,291.4,496.3,282.3,504.7,273.4z"/>
		<path class="st1" d="M349.9,453.6c-2.4,1.1-4.7,2.1-7.2,3c-8,2.9-16.1,5.3-24.3,7.2c-0.7,0.2-0.8,0.8-0.6,1.4
			c-0.1-0.4,0-0.8,0.3-1c0.1-0.1,0.3-0.2,0.5-0.3c8.3-1.9,16.4-4.3,24.3-7.2c2.4-0.9,4.7-1.9,7-3
			C349.9,453.7,349.9,453.7,349.9,453.6z"/>
		<path class="st1" d="M395.6,473.7c-0.6,1.8-0.8,3.4-0.8,5.2c0-1.7,0.2-3.3,0.8-5.1c0.9-2.8,2.4-5.5,3-8.5c0-0.2,0-0.3,0.1-0.5
			c0,0.1,0,0.2-0.1,0.4C398,468.1,396.5,470.8,395.6,473.7z"/>
		<path class="st1" d="M353.1,452.2l0.2-0.2c-0.1,0.1-0.3,0.1-0.4,0.2s-0.1,0.2-0.2,0.2C352.9,452.4,353,452.3,353.1,452.2z"/>
		<path class="st1" d="M357.1,539.8c-2.6,1.5-5.3,3-8,4.5c2.6-1.5,5.3-2.9,7.9-4.4c10.1-5.8,21.4-11.7,29.5-20.5
			C378.5,528.1,367.2,534,357.1,539.8z"/>
		<path class="st1" d="M393.2,504.3c-2.1,5.7-5.4,10.5-9.5,14.5c-6.7,6.8-15.3,11.8-23.6,16.7c-2.5,1.5-5.1,3-7.7,4.4
			c2.6-1.5,5.3-3,7.9-4.5c8.3-4.9,16.9-9.8,23.5-16.6c4-4.1,7.3-8.7,9.4-14.4c2.3-6,2.8-11.9,2.3-18.1
			C395.9,492.4,395.4,498.3,393.2,504.3z"/>
		<path class="st1" d="M186,177c0.8,2.8,1.6,5.5,2.3,8.3l0,0c-0.3-1.1-0.6-2.1-0.8-3.2C187,180.4,186.5,178.6,186,177
			c-0.2-0.7-0.1-1.3,0.2-1.7C185.9,175.7,185.8,176.3,186,177z"/>
		<path class="st1" d="M307.1,98.7c-1.6,1.8-3.1,3.9-4.4,6c-1.7,1-3.4,2-5,3.2c1.6-1.2,3.3-2.2,5.1-3.2
			C304,102.6,305.5,100.5,307.1,98.7z"/>
		<path class="st1" d="M292.8,93.9c1.5-0.8,3-1.5,4.6-1.9C295.8,92.4,294.2,93.1,292.8,93.9c-7.1,3.9-12.5,10-19.8,13.7
			c-2.5,1.3-5.1,2.3-7.8,3.2c2.7-0.9,5.3-2,7.9-3.2C280.4,104,285.8,97.8,292.8,93.9z"/>
		<path class="st1" d="M164.2,86.9c13.4-31.4,34.3-62.7,65.6-76.7c-31.4,13.9-52.4,45.3-65.8,76.7c-0.2,0.4-0.6,0.5-1,0.5
			C163.4,87.5,164,87.5,164.2,86.9z"/>
		<path class="st1" d="M231,68.6c3-2.3,6.3-4.2,9.7-5.7c-3.5,1.4-6.8,3.4-9.9,5.8C230.9,68.7,230.9,68.6,231,68.6z"/>
		<path class="st1" d="M268,140.6c-1-1.9-2.2-3.7-3.6-5.3c1.1,1.4,2.1,2.8,3,4.3l0,0l0,0C267.6,139.9,267.8,140.3,268,140.6z"/>
		<path class="st1" d="M254.1,115.6c4.6-0.6,9.2-1.7,13.6-3.3C263.3,113.9,258.7,115,254.1,115.6z"/>
		<path class="st1" d="M295.5,148.4c0.4-0.3,1-0.3,1.6,0.1c1.4,0.9,2.7,1.8,4,2.8c-0.1-0.2-0.2-0.3-0.2-0.5
			c-1.2-0.8-2.5-1.7-3.7-2.5C296.6,147.9,295.9,148,295.5,148.4z"/>
		<path class="st1" d="M296.5,121.7c-0.9,5.7-0.8,11.4,0.3,17h0.1C295.8,133.2,295.7,127.4,296.5,121.7c0.7-3.7,1.8-7.7,3.5-11.5
			c0,0-0.1,0-0.1,0.1C298.2,114,297.1,118,296.5,121.7z"/>
		<path class="st1" d="M281.6,224.1c2.5-0.8,5-1.8,7.4-2.9c0.2-0.1,0.4-0.2,0.6-0.2c-0.2,0-0.5,0.1-0.7,0.2
			C286.5,222.4,284.1,223.3,281.6,224.1z"/>
		<path class="st1" d="M293.5,111.5c-2.1,2.3-3.6,5.1-4,8.6C289.9,116.6,291.4,113.8,293.5,111.5z"/>
		<path class="st1" d="M267.7,112.3c6.6-2.4,12.5-5.9,17.9-10.3C280.2,106.4,274.2,109.9,267.7,112.3z"/>
		<path class="st1" d="M193.1,205.1c-0.5-2.2-1-4.3-1.5-6.5s-1-4.4-1.6-6.6c-3.1-2.4-6.3-4.7-9.4-7.1c3.1,2.4,6.3,4.7,9.4,7.1
			C191.1,196.3,192.1,200.7,193.1,205.1z"/>
		<path class="st1" d="M180.6,184.9c-0.7-0.5-0.9-1.2-0.9-1.9C179.7,183.7,179.9,184.4,180.6,184.9z"/>
		<path class="st1" d="M194.9,206.6c-0.8-0.1-1.5-0.5-1.8-1.5C193.3,206.1,194.1,206.6,194.9,206.6z"/>
		<path class="st1" d="M197.5,155.3L197.5,155.3c-0.4-0.3-1-0.3-1.5-0.2C196.6,154.9,197.1,155,197.5,155.3z"/>
		<path class="st1" d="M200.6,172.7L200.6,172.7L200.6,172.7L200.6,172.7z"/>
		<path class="st1" d="M295.1,114.5c-1.3,1.6-2.2,3.4-2.4,5.6C293,117.9,293.9,116.1,295.1,114.5z"/>
		<path class="st2" d="M203.9,202L203.9,202L203.9,202z"/>
		<path class="st2" d="M203.4,201.9c0,0-0.1,0-0.1-0.1C203.3,201.9,203.3,201.9,203.4,201.9z"/>
		<path class="st3" d="M512.2,265.1c0.6-1-0.8-2.2-1.7-1.3c-13.3,14.2-26.3,28.5-39.2,43c-14.1-22.8-31.1-44.9-53.5-59.4
			c-15.4-9.9-32.3-15.1-50.5-16.2c-6.7-0.4-13.4-0.5-20.2-0.4c-1.3,0.8-2.7,1.6-4,2.4c5.6-0.2,11.1-0.2,16.7-0.1
			c17.5,0.4,34.2,3.4,49.7,11.9c3.4,1.9,6.7,3.9,9.9,6.1c-3.2-2.2-6.4-4.2-9.8-6c-15.5-8.5-32.2-11.5-49.7-11.9
			c-2.2,0-4.3-0.1-6.5-0.1c-3.5,0-6.9,0-10.4,0.2c-13.9,8.4-27.9,16.4-43,22.5c-1.3,0.5-2.4,0.5-3.3,0.1c-0.7,0.5-1.6,0.8-2.7,0.8
			c-3.5,0-7.1,0-10.6,0.1c0,0.1-0.1,0.2-0.1,0.3c-0.1,0.4-0.1,0.7,0.1,0.9c-0.2-0.2-0.3-0.6-0.1-0.9c0-0.1,0.1-0.2,0.1-0.3
			c-14.6,0.1-29.2,0-43.5-2.7c-14.9-2.8-28.3-9.2-39.9-18.4c-0.1,0.9-0.2,1.8-0.2,2.7l-0.1-0.1c0.1-0.9,0.2-1.8,0.2-2.7
			c-0.7-0.5-1.4-1.1-2.1-1.7c-0.1,0.7-0.1,1.4-0.2,2.1c-32.4,0.5-65.4,5.3-94.8,19.5c-28.1,13.6-49.1,36-65.2,62.3
			c-17,27.7-30,59.1-34.5,91.3S3,474.6,15.3,504.7c11,26.9,28.2,53.7,54.8,67.3c13.4,6.8,28.2,10.5,43,13s29.8,3.6,44.7,3.6
			c2.2,0,4.3,0,6.5-0.1c17.3-0.4,34.7-1.6,51.9-3.1c16.8-1.4,33.4-3.5,49.8-7.5c16.5-4.1,32.6-9.7,48.2-16.5l0,0
			c3.1-1.3,6.2-2.7,9.3-4.2c0.1,0,0.1,0.1,0.2,0.1c8.4-3.9,16.7-8.2,24.9-12.6c-5.3,2.9-10.7,5.8-16.1,8.4h77c0-0.2-0.1-0.3-0.1-0.4
			c-2.3-28-5.6-56-9.7-83.8v-0.1c4.1,27.9,7.4,55.8,9.7,84c0,0.1,0.1,0.3,0.1,0.4h2c0-0.1,0-0.1,0-0.2h41l0,0h2.7
			c42.2-36.4,62.3-94.1,54.7-148.9c-4.1-30.1-16.8-59.7-31.9-85.9c-0.6-1-1.2-2.1-1.8-3.1c-0.1,0.2-0.3,0.4-0.5,0.6
			c2.9-3.5,5.9-7,8.7-10.6C494.6,292.3,504.1,279.2,512.2,265.1z M199,245.6c0.1-0.6,0.1-1.2,0.2-1.9L199,245.6c0,0.2,0,0.2,0,0.3
			c11.4,10.7,25.3,18,40.5,21.7c0.7,0.2,1.5,0.3,2.2,0.5c-0.8-0.2-1.6-0.3-2.3-0.5c-15.1-3.7-29.1-11-40.5-21.7
			C198.9,245.8,199,245.7,199,245.6z M129.3,366.9c-10.8,18.8-22.5,38.5-24.8,60.5c-0.3,3.2-0.4,6.4-0.2,9.5c0.1,1,0.2,2.1,0.3,3.1
			c0.5,4.1,1.5,8,2.9,11.9c0.7,1.9,1.4,3.8,2.3,5.7c1.3,2.8,2.7,5.6,4.3,8.3c0.5,0.9,1.1,1.8,1.6,2.7c1.1,1.8,2.3,3.5,3.6,5.3
			c1.7,2.3,3.4,4.6,5.3,6.5c0.3,0.3,0.7,0.7,1,1c-0.2-0.1-0.3-0.3-0.5-0.4c-0.2-0.2-0.4-0.4-0.6-0.6c-2-2-3.7-4.3-5.5-6.7
			c-9.9-13.8-16.6-29-14.8-46.4c2.3-22,14-41.7,24.8-60.5c0.5-0.7-0.1-1.4-0.8-1.4c0.1,0,0.3,0,0.4,0.1
			C129.3,365.6,129.7,366.2,129.3,366.9z M220.6,488.2c-1.8,0.4-3.5,0.8-5.3,1.2C217.1,489,218.8,488.6,220.6,488.2
			c12.5-3,24.8-7.1,36.7-11.9C245.4,481.1,233.2,485.2,220.6,488.2z M267.1,472.1c3.6-1.6,7.1-3.2,10.7-4.9l0,0
			C274.3,468.9,270.7,470.6,267.1,472.1z M275.5,271.9c-3.3,0.6-6.7,0.9-10.2,1c-5.8,0.1-11.6-0.5-17.1-1.2
			c-19.1-2.8-37-11-51.1-24.3c-0.3-0.3-0.4-0.7-0.3-1c-0.1-0.1-0.1-0.3-0.1-0.5c0.2-2.5,0.4-5.1,0.6-7.6l0,0
			c-7.8,0.1-15.5,0.4-23.3,1.1c-30.9,2.7-62.2,10.8-88.2,28.3c-4.6,3.1-8.9,6.5-13,10.1c4.2-3.7,8.6-7.1,13.2-10.3
			c26-17.6,57.3-25.6,88.2-28.3c7.7-0.7,15.5-1.1,23.2-1.1c-0.2,2.5-0.4,5-0.6,7.5c0,0.2,0,0.4,0.1,0.6c-0.1,0.3-0.1,0.7,0.3,1
			c14,13.3,32,21.5,51.1,24.3c8.8,1.3,18.5,1.9,27.3,0.2c3.4-0.7,7.7-2.9,9.9-5.9C283.3,268.9,278.9,271.2,275.5,271.9z
			 M389.2,403.1c18.3-22.5,36.9-44.7,55.9-66.6c-19.8,22.8-39.1,46-58.2,69.4C387.7,405,388.4,404,389.2,403.1z M403,400.6
			c20.3-30.1,45.8-56.4,69.1-84.1l0.1,0.2c-23.3,27.7-48.8,54-69,84.1c-9.3,13.9-18.1,28-28.4,41.2l0,0c-0.2,0.1-0.4,0.2-0.5,0.3
			C384.7,428.9,393.6,414.6,403,400.6z M393,426.6c1.4,8.5,2.8,17,4.1,25.5C395.8,443.6,394.4,435.1,393,426.6z M398.4,460.1
			c0,0.3,0.1,0.6,0.1,0.9c0-0.2-0.1-0.5-0.1-0.7c-0.3-1.4-0.9-2.8-1.7-4C397.4,457.5,398,458.7,398.4,460.1z M385.2,431.6
			L385.2,431.6c-1.8,2.6-3.7,5.1-5.6,7.6c0,0-0.1,0-0.1,0.1C381.5,436.7,383.3,434.2,385.2,431.6z M368.8,446.3
			c1-0.2,1.9-0.4,2.9-0.5c0-0.2,0.1-0.3,0.2-0.5c0.7-0.9,1.4-1.7,2-2.6c-0.1,0.2-0.2,0.4-0.2,0.6c-0.5,0.7-1.1,1.4-1.6,2.1
			c-0.1,0.2-0.2,0.3-0.2,0.5c-1.3,0.2-2.5,0.4-3.7,0.7C368.4,446.5,368.6,446.4,368.8,446.3z M342.9,456.7c-7.9,2.9-16,5.3-24.3,7.2
			c-0.2,0-0.4,0.2-0.5,0.3c-0.3,0.2-0.4,0.6-0.3,1c-0.2-0.6-0.1-1.2,0.6-1.4c8.2-1.9,16.3-4.3,24.3-7.2c2.4-0.9,4.8-1.9,7.2-3v0.1
			C347.6,454.8,345.3,455.8,342.9,456.7z M357,539.9c-2.6,1.5-5.2,2.9-7.9,4.4c2.7-1.5,5.3-3,8-4.5c10.1-5.8,21.4-11.7,29.4-20.4
			C378.4,528.2,367.1,534.1,357,539.9z M393.2,504.4c-2.1,5.7-5.4,10.4-9.4,14.4c-6.7,6.7-15.3,11.7-23.5,16.6
			c-2.6,1.5-5.3,3-7.9,4.5c2.6-1.5,5.2-2.9,7.7-4.4c8.3-4.9,17-9.9,23.6-16.7c4-4.1,7.4-8.8,9.5-14.5c2.2-6,2.7-11.9,2.3-18
			C396,492.5,395.5,498.4,393.2,504.4z M398.6,465.3c-0.6,3-2.1,5.7-3,8.5c-0.6,1.7-0.8,3.4-0.8,5.1c0-1.7,0.2-3.4,0.8-5.2
			c0.9-2.9,2.4-5.6,3-8.5c0-0.1,0-0.2,0.1-0.4C398.6,465,398.6,465.1,398.6,465.3z M394,418.9c3.5-5.2,7-10.5,10.6-15.7
			c7.9,21.1,10.3,49.6-2.1,69.5C399.9,454.7,397.1,436.7,394,418.9z M427.5,371.7c-7.7,9.4-14.6,19.3-21.4,29.4
			c0.1,0.1,0.2,0.2,0.2,0.4c8.7,22.2,11.2,53-2.7,73.7c-0.2,0.3-0.4,0.4-0.7,0.5c0-0.1,0-0.1,0-0.2c0.2-0.1,0.4-0.2,0.6-0.4
			c13.9-20.7,11.4-51.5,2.7-73.7c-0.1-0.1-0.1-0.3-0.2-0.4c6.8-10.1,13.8-20,21.4-29.4c15.2-18.7,31.7-36.4,47.3-54.8
			c0,0,0,0.1,0.1,0.1C459.2,335.3,442.6,353,427.5,371.7z M504.8,273.1c-0.1,0.1-0.1,0.2-0.2,0.2c-8.4,9-16.6,18-24.8,27.2
			C488.1,291.3,496.4,282.2,504.8,273.1z"/>
		<path class="st2" d="M308.4,236.4c-5.6,4.1-11.6,7.5-17.9,10.2c1.2,0,2.3,0,3.5,0c0.7,0,1.4,0.1,1.9,0.4c0.4-0.3,0.9-0.6,1.4-0.8
			c8-3.3,15.8-7.1,23.4-11.3C316.6,235.3,312.5,235.8,308.4,236.4z"/>
		<path class="st2" d="M119.9,161.8c10.1-9.9,22.4-16.7,36.1-19.9c-12.9,16.5-17,38.7-10.8,58.7c0.3,1.1,1.7,1,2.1,0
			c2.6-6.6,7-12,12.7-15.9c0.6,8,2.9,15.7,7.1,22.6c0.5,0.8,1.7,0.6,2-0.3c1.1-4.2,3.1-7.7,6.1-10.8c3.8,9.2,11.9,18.9,22,20.5
			c0.7,0.1,1.4,0.1,2.1,0.1c-0.1,0.1-0.1,0.2-0.1,0.4c-0.1,1.4-0.2,2.8-0.4,4.2l0,0c0.7,0.6,1.3,1.3,2,1.9c0.2-1.8,0.3-3.6,0.5-5.5
			v0.1c-0.1,1.8-0.3,3.6-0.5,5.4c6.5,5.9,13.7,10.8,21.4,14.4c-8-5.5-14.8-12.7-19.4-21.4c0.2-0.1,0.4-0.1,0.6-0.2
			c-0.2,0.1-0.3,0.1-0.5,0.2c4.7,8.9,11.6,16.2,19.9,21.7c6.6,3,13.5,5.2,20.9,6.5c12.8,2.3,25.9,2.3,39,2.1
			c7.8-2.4,15.4-6,22.4-10.9c0.2-0.2,0.5-0.3,0.7-0.5c-0.3,0.2-0.6,0.4-0.8,0.6c-7,4.8-14.4,8.4-22.2,10.8c2.4,0,4.8-0.1,7.1-0.1
			c6.4-2.7,12.5-6.2,18.2-10.3c4.2-0.6,8.4-1.2,12.6-1.6c1.6-0.9,3.2-1.8,4.8-2.7c-4.6,0.4-9.2,1-13.8,1.6
			c7.7-6.1,14.5-13.2,20.3-20.8c9.7-12.6,16.6-27.3,17.8-43.3c0.9-0.6,1.8-1.3,2.6-1.9c13-10.2,13.2-32.4,9.1-47
			c-4.6-16.6-19.1-32.3-37.6-30.2c-0.2,0-0.3,0.1-0.5,0.1c-3.5,0-6.7,0.9-9.5,2.5c-21.5-18.2-49.9-20.6-75.1-12
			c0-0.1,0.1-0.2,0.1-0.3c4-10.9,14.6-16.3,24.6-21c1.1-0.5,0.4-1.9-0.5-2c-11.3-1.2-22.5,1.4-31.7,7.9c0.7-22.4,7.4-44.3,20.5-62.4
			c0.6-0.8-0.4-1.7-1.2-1.6c-43.3,7-71,44.1-87.6,81.8c-4.3-11.7-5.1-24.4-1.4-36.4c0.3-1.1-1-1.7-1.8-1
			c-19.7,16.9-24.5,47.6-6,67.2c-18.8,9.2-31.6,27.2-35.9,47.6C117.9,161.8,119.1,162.6,119.9,161.8z M258.9,59.6h0.1
			c-3.7,1.8-7.4,3.9-10.7,6.3C251.5,63.5,255.2,61.5,258.9,59.6z M168.9,184.1c0.3-0.4,0.4-1,0.2-1.6c-0.6-2.2-1.7-5.6-1.7-8.4
			c0,2.8,1.1,6.2,1.7,8.3C169.3,183.1,169.2,183.7,168.9,184.1z M163.5,170.7c-0.1,1.1-0.2,2.1-0.2,3.2
			C163.3,172.8,163.4,171.7,163.5,170.7c0.4-3.9,2.6-4.4,5.9-5.8c3.4-1.5,6.9-2.9,10.3-4.3l0,0c-3.5,1.4-6.9,2.8-10.3,4.4
			C166.1,166.4,163.9,166.9,163.5,170.7z M186,176.9c0.5,1.7,1,3.5,1.5,5.2c0.3,1.1,0.6,2.1,0.8,3.2l0,0
			C187.6,182.5,186.8,179.8,186,176.9c-0.2-0.6-0.1-1.2,0.2-1.6C185.9,175.7,185.8,176.3,186,176.9z M190,192
			c0.6,2.2,1.1,4.4,1.6,6.6c0.5,2.2,1,4.3,1.5,6.5c0.3,1,1,1.5,1.8,1.5c-0.8,0-1.6-0.5-1.8-1.5C192.1,200.7,191.1,196.3,190,192
			c-3.1-2.4-6.3-4.7-9.4-7.1c-0.7-0.5-0.9-1.2-0.9-1.9c0,0.7,0.2,1.4,0.9,1.9C183.7,187.3,186.9,189.6,190,192z M195.1,214
			c-8.3-2.6-14.8-10.9-18-18.7c-2.5-6.1-3.3-13-1.3-19.2c-1.9,6.2-1.1,13,1.4,19c3.2,7.8,9.7,16.1,18,18.7c4.1,1.4,7.8,0.7,10.6-1.3
			C202.9,214.5,199.2,215.3,195.1,214z M196,155.1c0.6-0.2,1.1-0.1,1.5,0.2l0,0C197.1,155,196.6,154.9,196,155.1z M205.9,199.8
			c0,1.1-0.9,2.2-2,2.2C205,202,205.8,201,205.9,199.8z M204.7,171.2c0.2,0.5,0.4,1.1,0.7,1.6c0,0,0-0.1,0.1-0.1l0,0
			c0,0,0,0.1-0.1,0.1C205.2,172.3,204.9,171.8,204.7,171.2z M203.8,216.1c5.8-2.1,9.6-8.3,9.7-14.9
			C213.4,207.8,209.6,214,203.8,216.1z M207.9,168.7c0.6-1,1.2-2,1.8-3c0.7-1.1,1.4-2.2,2.1-3.3c0.4-0.6,0.7-1.1,1.1-1.7
			c0.4-0.6,0.8-1.1,1.2-1.7c0.1-0.2,0.3-0.4,0.5-0.6C212.3,161.7,210.1,165.2,207.9,168.7z M212.4,200.2c-0.5,0-1.1,0.4-1.1,1l0,0
			l0,0C211.3,200.5,211.9,200.1,212.4,200.2z M214.8,186.2c1.1,1.1,2.3,2.2,3.6,3.2C217.1,188.3,215.9,187.3,214.8,186.2z
			 M226,162.2c-4.8,7-9.3,14.2-13.3,21.7c0,0,0,0,0-0.1C216.7,176.4,221.1,169.2,226,162.2c0.3-0.5,0.7-0.6,1.1-0.6
			c0.2,0.1,0.4,0.2,0.5,0.3C227.2,161.6,226.4,161.5,226,162.2z M217.5,155C217.5,155,217.6,155,217.5,155c0.6,0,1.1,0.5,1.1,1.1
			C218.6,155.5,218,155,217.5,155z M224.2,117.1c0.6-1.3,1-2.7,1.2-4.2h0.1c-0.2,1.5-0.6,2.8-1.2,4.1
			C224.4,117,224.3,117,224.2,117.1z M269.9,125.4c0.3,1-0.5,2.4-2,2.1c-1.7-0.4-3.3-0.4-5,0c0,0,0,0-0.1-0.1c1.6-0.4,3.3-0.4,5,0
			C269.2,127.7,270.1,126.4,269.9,125.4z M267.4,139.6c-0.9-1.5-1.9-3-3-4.3c1.3,1.7,2.5,3.5,3.6,5.3
			C267.8,140.3,267.6,139.9,267.4,139.6L267.4,139.6L267.4,139.6z M264.4,196c-0.5,0.3-1,0.6-1.5,1c0.4-0.3,0.9-0.6,1.3-0.9
			c13.8-9.2,16.2-29.5,12.4-45.1l0.1-0.1c1.8-2.7,4.1-4.8,6.6-6.2c-2.5,1.4-4.7,3.4-6.4,6.1c0,0.1-0.1,0.1-0.1,0.1
			C280.6,166.5,278.3,186.8,264.4,196z M289,221.2c-2.4,1.2-4.9,2.1-7.4,2.9C284.1,223.3,286.5,222.4,289,221.2
			c0.2-0.1,0.4-0.2,0.6-0.2C289.4,221,289.2,221.1,289,221.2z M289.5,120.1c0.4-3.5,1.9-6.3,4-8.6
			C291.4,113.8,289.9,116.6,289.5,120.1z M292.7,120.1c0.3-2.2,1.2-4,2.4-5.6C293.9,116.1,293,117.9,292.7,120.1z M297.1,148.5
			c-0.6-0.4-1.2-0.4-1.6-0.1c0.4-0.4,1.1-0.5,1.7-0.1c1.2,0.8,2.5,1.7,3.7,2.5c0.1,0.2,0.2,0.3,0.2,0.5
			C299.8,150.3,298.5,149.4,297.1,148.5z M296.9,138.7C296.8,138.7,296.8,138.7,296.9,138.7c-1.2-5.6-1.3-11.4-0.4-17
			c0.6-3.7,1.7-7.7,3.4-11.5c0,0,0.1,0,0.1-0.1c-1.7,3.9-2.8,7.9-3.4,11.5C295.7,127.4,295.8,133.2,296.9,138.7z M338,170.3
			c6.1-1.4,13-5.8,16.4-11.1c-0.1,0.2-0.2,0.4-0.4,0.6c0.3-0.4,0.6-0.9,0.9-1.4c0.5-0.9,0.9-1.8,1.4-2.7c-0.3,0.6-0.7,1.2-1,1.8
			c3.9-7.4,5-16.9,4.1-26v-0.1c-0.3-2.8-0.8-5.5-1.4-8.1c0,0,0,0.1-0.1,0.1c-0.8-3.1-1.7-6-2.9-8.7c-1.4-3.2-3.3-6.2-5.6-8.9
			c2.3,2.7,4.2,5.8,5.7,9c5.7,12.5,6.8,31.3-0.2,43.6c-3.2,5.6-10.6,10.6-17.1,12C337.9,170.4,338,170.4,338,170.3z M347.6,171v0.1
			c-4.7,2.8-10.1,4.6-15.6,3.9C337.5,175.6,342.9,173.8,347.6,171z M332.1,170.7L332.1,170.7c-3-0.3-6-1.3-8.8-2.7l0,0
			C326.1,169.3,329.1,170.3,332.1,170.7z M324.6,136.6c0.6-0.8,1.7-0.5,2,0.2l0,0C326.2,136.2,325.2,135.9,324.6,136.6
			c-1.3,2-2.5,3.8-3.8,5.7C322.1,140.4,323.3,138.5,324.6,136.6z M319.3,170.7c1.4,2.2,2.4,4.6,3.4,6.9c2.1,5.5,2.9,11.8-0.3,17
			c-1.7,2.9-4.4,5.2-7.6,6.1c3.1-1,5.7-3.1,7.4-6c3.1-5.2,2.4-11.6,0.3-17c-1-2.5-2.2-4.9-3.5-7.2
			C319.1,170.5,319.2,170.6,319.3,170.7z M317.3,130.6c-0.1-0.6-0.6-1-1.1-1C316.7,129.6,317.2,130.1,317.3,130.6z M315.5,196.9
			c-1.5,0.8-3.3,1.3-5.2,1.1c-0.3,0-0.6,0-0.8,0.1c0.2-0.2,0.6-0.2,1-0.2C312.4,198.1,314.1,197.7,315.5,196.9z M304.1,147.3
			L304.1,147.3c2.8-4.9,5.9-9.7,9.2-14.3C310,137.6,307,142.4,304.1,147.3z M302.7,104.7c1.3-2.1,2.7-4.2,4.4-6
			C305.5,100.5,304,102.6,302.7,104.7c-1.7,1-3.4,2-5,3.2C299.3,106.7,301,105.7,302.7,104.7z M273,107.6
			c7.3-3.7,12.7-9.8,19.7-13.7c1.5-0.8,3.1-1.5,4.7-1.9c-1.6,0.5-3.1,1.1-4.6,1.9C285.8,97.8,280.4,104,273,107.6
			c-2.4,1.3-5.1,2.3-7.8,3.2C267.9,109.9,270.5,108.9,273,107.6z M267.7,112.3c6.5-2.4,12.5-5.9,17.9-10.3
			C280.2,106.4,274.3,109.9,267.7,112.3c-4.4,1.6-9,2.7-13.6,3.3C258.7,115,263.3,113.9,267.7,112.3z M249.2,228.8
			c-6.3-1.4-12.4-3.7-18.1-6.9c-1.5-0.9-0.4-3.1,1-3c-1.5-0.1-2.5,2.1-0.9,3C236.9,225.1,243,227.5,249.2,228.8z M228.7,85.2
			c2.9-1.4,5.9-2.7,9-3.8c0,0,0,0,0.1,0C234.7,82.5,231.7,83.7,228.7,85.2z M240.7,62.9c-3.4,1.4-6.7,3.3-9.7,5.7
			c-0.1,0-0.1,0.1-0.2,0.1C233.9,66.3,237.2,64.4,240.7,62.9z M164,86.9c13.4-31.4,34.4-62.8,65.8-76.7
			c-31.3,14-52.3,45.3-65.6,76.7c-0.2,0.6-0.8,0.6-1.2,0.5C163.4,87.4,163.8,87.3,164,86.9z M159.2,141.6c-3.1,3.7-5.8,7.8-7.9,12.1
			c2.2-4.4,4.8-8.5,8-12.3c0.4-0.6-0.2-1.5-0.9-1.7C159.2,139.7,159.9,140.7,159.2,141.6z M156.2,114.4c0.6-0.3,0.7-1.2,0.2-1.7
			c-18-17.9-14.6-45.8,2.2-62.7c0,0.1-0.1,0.3-0.1,0.4c-16.6,16.9-19.9,44.7-2,62.4C157,113.2,156.9,114.2,156.2,114.4
			c-17.8,8.3-30,24.5-35,43.1c-0.1,0.1-0.3,0.2-0.4,0.3C125.9,139,138.2,122.6,156.2,114.4z"/>
		<path class="st2" d="M349.8,100c-10,0.9-19.7,3.4-28.5,8.4c-8.4,4.8-16,10.8-24.9,14.8c-0.7,5.2-0.5,10.4,0.5,15.5h-0.1
			c-1-5.1-1.1-10.3-0.5-15.4c-0.2,0.1-0.5,0.2-0.7,0.3c-8.7,3.8-17.3,4.7-26.7,4.2c-1.9-0.1-3.9-0.3-5.8-0.4c0,0,0,0-0.1,0l0,0
			c-14.4-1.1-30.5-2.5-38.5,12c-3.4,6.3-3.3,14.1-5.8,20.7c-2.5,7-8.1,9.3-14.9,11.1c-3.9,1-8.1,1.9-11.2,4.6
			c-2.2,1.9-3.8,4.4-5,7.1c0.2,0.8,0.4,1.6,0.6,2.3l0,0c-0.2-0.8-0.4-1.5-0.6-2.3c-0.8,1.7-1.4,3.5-1.8,5.2c0,0.2-0.1,0.4-0.1,0.6
			c1.4,1.1,2.9,2.2,4.3,3.2c0.6,2.2,1.1,4.4,1.6,6.6c0.5,2.2,1,4.3,1.5,6.5c0.3,1,1,1.5,1.8,1.5c-0.8,0-1.6-0.5-1.8-1.5
			c-1-4.4-2-8.8-3.1-13.1c-1.4-1.1-2.8-2.2-4.3-3.2c-1.4,5.9-1.4,12-1,18.1c3,3.2,6.5,5.7,10.5,7c4.1,1.4,7.8,0.7,10.6-1.3
			c-2.9,2.1-6.6,2.8-10.7,1.5c-3.9-1.2-7.4-3.7-10.4-6.8c0.1,1.1,0.2,2.2,0.3,3.2c3.5,3.2,7.7,5.6,12.2,6.3c0.7,0.1,1.4,0.1,2.1,0.1
			c-0.1,0.1-0.1,0.2-0.1,0.4c-0.1,1.4-0.2,2.8-0.4,4.2l0,0c0.7,0.6,1.3,1.3,2,1.9c0.2-1.8,0.3-3.6,0.5-5.5v0.1
			c-0.1,1.8-0.3,3.6-0.5,5.4c6.5,5.9,13.7,10.8,21.4,14.4c-8-5.5-14.8-12.7-19.4-21.4c0.2-0.1,0.4-0.1,0.6-0.2
			c-0.2,0.1-0.3,0.1-0.5,0.2c4.7,8.9,11.6,16.2,19.9,21.7c6.6,3,13.5,5.2,20.9,6.5c12.8,2.3,25.9,2.3,39,2.1
			c7.8-2.4,15.4-6,22.4-10.9c0.2-0.2,0.5-0.3,0.7-0.5c-0.3,0.2-0.6,0.4-0.8,0.6c-7,4.8-14.4,8.4-22.2,10.8c2.4,0,4.8-0.1,7.1-0.1
			c6.4-2.7,12.5-6.2,18.2-10.3c4.2-0.6,8.4-1.2,12.6-1.6c1.6-0.9,3.2-1.8,4.8-2.7c-4.6,0.4-9.2,1-13.8,1.6
			c7.7-6.1,14.5-13.2,20.3-20.8c9.7-12.6,16.6-27.3,17.8-43.3c0.9-0.6,1.8-1.3,2.6-1.9c13-10.2,13.2-32.4,9.1-47
			C359.6,113,355.4,105.6,349.8,100z M211.3,201.2c0-0.7,0.6-1.1,1.1-1C211.9,200.2,211.3,200.5,211.3,201.2L211.3,201.2
			L211.3,201.2z M205.4,172.8C205.4,172.8,205.4,172.7,205.4,172.8C205.5,172.7,205.5,172.7,205.4,172.8L205.4,172.8
			c-0.2-0.5-0.5-1-0.7-1.6C204.9,171.7,205.2,172.3,205.4,172.8z M203.9,202c1.1,0,1.9-1.1,2-2.2C205.9,200.9,205,202,203.9,202z
			 M203.8,216.1c5.8-2.1,9.6-8.3,9.7-14.9C213.4,207.8,209.6,214,203.8,216.1z M214.8,186.2c1.1,1.1,2.3,2.2,3.6,3.2
			C217.1,188.3,215.9,187.3,214.8,186.2z M226,162.2c-4.8,7-9.3,14.2-13.3,21.7c0,0,0,0,0-0.1C216.7,176.4,221.1,169.2,226,162.2
			c0.3-0.5,0.7-0.6,1.1-0.6c0.2,0.1,0.4,0.2,0.5,0.3C227.2,161.6,226.4,161.5,226,162.2z M231.1,221.9c-1.5-0.9-0.4-3.1,1-3
			C230.6,218.8,229.6,221,231.1,221.9c5.8,3.2,11.9,5.6,18.1,6.9C242.9,227.5,236.8,225.2,231.1,221.9z M324.6,136.6
			c0.6-0.8,1.7-0.5,2,0.2l0,0C326.2,136.2,325.2,135.9,324.6,136.6c-1.3,2-2.5,3.8-3.8,5.7C322.1,140.4,323.3,138.5,324.6,136.6z
			 M332.1,170.7L332.1,170.7c-3-0.3-6-1.3-8.8-2.7l0,0C326.1,169.3,329.1,170.3,332.1,170.7z M317.3,130.6c-0.1-0.6-0.6-1-1.1-1
			C316.7,129.6,317.2,130.1,317.3,130.6z M268,140.6c-0.2-0.3-0.4-0.7-0.6-1l0,0l0,0c-0.9-1.5-1.9-3-3-4.3
			C265.8,136.9,267,138.7,268,140.6z M264.4,196c-0.5,0.3-1,0.6-1.5,1c0.4-0.3,0.9-0.6,1.3-0.9c13.8-9.2,16.2-29.5,12.4-45.1
			l0.1-0.1c1.8-2.7,4.1-4.8,6.6-6.2c-2.5,1.4-4.7,3.4-6.4,6.1c0,0.1-0.1,0.1-0.1,0.1C280.6,166.5,278.3,186.8,264.4,196z M289,221.2
			c-2.4,1.2-4.9,2.1-7.4,2.9C284.1,223.3,286.5,222.4,289,221.2c0.2-0.1,0.4-0.2,0.6-0.2C289.4,221,289.2,221.1,289,221.2z
			 M297.1,148.5c-0.6-0.4-1.2-0.4-1.6-0.1c0.4-0.4,1.1-0.5,1.7-0.1c1.2,0.8,2.5,1.7,3.7,2.5c0.1,0.2,0.2,0.3,0.2,0.5
			C299.8,150.3,298.5,149.4,297.1,148.5z M304.1,147.3L304.1,147.3c2.8-4.9,5.9-9.7,9.2-14.3C310,137.6,307,142.4,304.1,147.3z
			 M310.3,198c-0.3,0-0.6,0-0.8,0.1c0.2-0.2,0.6-0.2,1-0.2c1.9,0.2,3.6-0.2,5-1C314,197.7,312.2,198.2,310.3,198z M322.4,194.6
			c-1.7,2.9-4.4,5.2-7.6,6.1c3.1-1,5.7-3.1,7.4-6c3.1-5.2,2.4-11.6,0.3-17c-1-2.5-2.2-4.9-3.5-7.2c0.1,0.1,0.2,0.1,0.3,0.2
			c1.4,2.2,2.4,4.6,3.4,6.9C324.8,183.1,325.6,189.4,322.4,194.6z M347.6,171.1c-4.7,2.8-10.1,4.6-15.6,3.9c5.5,0.6,10.9-1.2,15.7-4
			C347.6,171,347.6,171.1,347.6,171.1z M355,158.5c-3.2,5.6-10.6,10.6-17.1,12l0.1-0.1c6.1-1.4,13-5.8,16.4-11.1
			c-0.1,0.2-0.2,0.4-0.4,0.6C354.3,159.5,354.6,159,355,158.5c0.4-0.9,0.8-1.8,1.3-2.7c-0.3,0.6-0.7,1.2-1,1.8
			c3.9-7.4,5-16.9,4.1-26v-0.1c-0.3-2.8-0.8-5.5-1.4-8.1c0,0,0,0.1-0.1,0.1c-0.8-3.1-1.7-6-2.9-8.7c-1.4-3.2-3.3-6.2-5.6-8.9
			c2.3,2.7,4.2,5.8,5.7,9C360.9,127.4,362,146.2,355,158.5z"/>
		<path class="st4" d="M175.6,190.8c-1.2-4.9-1.4-10,0.1-14.7c-1.5,4.7-1.3,9.7-0.1,14.5c2-13,8-24.2,23.2-28.4
			c2.7-0.7,7.7-1.1,9.6-3.5c1.7-2.1,2.1-6.4,2.6-9c2-8.8,4-16.5,10.6-23.1c13.1-13.1,31.8-9.4,48.4-8.6c7.8,0.3,14.6-0.9,21.3-3.6
			c0.6-1,1.3-2,2.1-2.8c-0.8,0.9-1.5,1.8-2.1,2.8c2.9-1.2,5.8-2.7,8.8-4.4c9.3-5.6,17.7-11.9,28.1-15.5c2.9-1,5.9-1.8,8.9-2.5
			c-4-1.5-8.4-2-13.1-1.5c-0.2,0-0.3,0.1-0.5,0.1c-3.5,0-6.7,0.9-9.5,2.5c-21.5-18.2-49.9-20.6-75.1-12c0-0.1,0.1-0.2,0.1-0.3
			c4-10.9,14.6-16.3,24.6-21c1.1-0.5,0.4-1.9-0.5-2c-11.3-1.2-22.5,1.4-31.7,7.9c0.7-22.4,7.4-44.3,20.5-62.4
			c0.6-0.8-0.4-1.7-1.2-1.6c-43.3,7-71,44.1-87.6,81.8c-4.3-11.7-5.1-24.4-1.4-36.4c0.3-1.1-1-1.7-1.8-1
			c-19.7,16.9-24.5,47.6-6,67.2c-18.8,9.2-31.6,27.2-35.9,47.6c-0.2,1,1,1.8,1.8,1c10.1-9.9,22.4-16.7,36.1-19.9
			c-12.9,16.5-17,38.7-10.8,58.7c0.3,1.1,1.7,1,2.1,0c2.6-6.6,7-12,12.7-15.9c0.6,8,2.9,15.7,7.1,22.6c0.5,0.8,1.7,0.6,2-0.3
			c1.1-4.1,3-7.6,6-10.6C175.2,194.5,175.4,192.7,175.6,190.8z M302.7,104.7c1.3-2.1,2.7-4.2,4.4-6
			C305.5,100.5,304,102.6,302.7,104.7c-1.7,1-3.4,2-5,3.2C299.3,106.7,301,105.7,302.7,104.7z M273,107.6
			c7.3-3.7,12.7-9.8,19.7-13.7c1.5-0.8,3.1-1.5,4.7-1.9c-1.6,0.5-3.1,1.1-4.6,1.9C285.8,97.8,280.4,104,273,107.6
			c-2.4,1.3-5.1,2.3-7.8,3.2C267.9,109.9,270.5,108.9,273,107.6z M267.7,112.3c6.5-2.4,12.5-5.9,17.9-10.3
			C280.2,106.4,274.3,109.9,267.7,112.3c-4.4,1.6-9,2.7-13.6,3.3C258.7,115,263.3,113.9,267.7,112.3z M258.9,59.6h0.1
			c-3.7,1.8-7.4,3.9-10.7,6.3C251.5,63.5,255.2,61.5,258.9,59.6z M121.3,157.5c-0.1,0.1-0.3,0.2-0.4,0.3c5-18.9,17.3-35.2,35.3-43.4
			c0.6-0.3,0.7-1.2,0.2-1.7c-18-17.9-14.6-45.8,2.2-62.7c0,0.1-0.1,0.3-0.1,0.4c-16.6,16.9-19.9,44.7-2,62.4
			c0.5,0.4,0.4,1.4-0.2,1.7C138.5,122.7,126.3,138.9,121.3,157.5z M159.2,141.6c-3.1,3.7-5.8,7.8-7.9,12.1c2.2-4.4,4.8-8.5,8-12.3
			c0.4-0.6-0.2-1.5-0.9-1.7C159.2,139.7,159.9,140.7,159.2,141.6z M197.5,155.3c-0.4-0.2-0.9-0.3-1.5-0.2
			C196.6,154.9,197.1,155,197.5,155.3L197.5,155.3z M224.4,117c-0.1,0-0.1,0-0.2,0.1c0.6-1.3,1-2.7,1.2-4.2h0.1
			C225.4,114.4,225,115.7,224.4,117z M228.7,85.2c2.9-1.4,5.9-2.7,9-3.8c0,0,0,0,0.1,0C234.7,82.5,231.7,83.7,228.7,85.2z
			 M240.7,62.9c-3.4,1.4-6.7,3.3-9.7,5.7c-0.1,0-0.1,0.1-0.2,0.1C233.9,66.3,237.2,64.4,240.7,62.9z M163,87.4c0.4,0.1,0.8,0,1-0.5
			c13.4-31.4,34.4-62.8,65.8-76.7c-31.3,14-52.3,45.3-65.6,76.7C164,87.5,163.4,87.5,163,87.4z M168.9,184.1c0.3-0.4,0.4-1,0.2-1.6
			c-0.6-2.2-1.7-5.6-1.7-8.4c0,2.8,1.1,6.2,1.7,8.3C169.3,183.1,169.2,183.7,168.9,184.1z M163.5,170.7c-0.1,1.1-0.2,2.1-0.2,3.2
			C163.3,172.8,163.4,171.7,163.5,170.7c0.4-3.9,2.6-4.4,5.9-5.8c3.4-1.5,6.9-2.9,10.3-4.3l0,0c-3.5,1.4-6.9,2.8-10.3,4.4
			C166.1,166.4,163.9,166.9,163.5,170.7z"/>
		<path class="st2" d="M158.3,139.7c-0.1,0-0.1,0-0.2,0c-0.1-0.1-0.2-0.1-0.3-0.2C158,139.5,158.1,139.6,158.3,139.7z"/>
		<path class="st2" d="M147.8,162.3c0.1-0.2,0.1-0.4,0.2-0.6C147.9,161.9,147.9,162.1,147.8,162.3z"/>
		<path class="st2" d="M148.5,160.1c0.3-0.7,0.5-1.4,0.8-2.1C149.1,158.7,148.8,159.4,148.5,160.1z"/>
		<path class="st2" d="M149.8,156.8c0.4-0.8,0.7-1.7,1.1-2.5C150.6,155.1,150.2,156,149.8,156.8z"/>
		<path class="st2" d="M396.6,456.2c-0.2-0.2-0.3-0.5-0.5-0.7C396.3,455.7,396.4,456,396.6,456.2z"/>
		<path class="st2" d="M395.6,454.8c-0.1-0.1-0.1-0.1-0.2-0.2C395.5,454.7,395.5,454.8,395.6,454.8z"/>
		<path class="st2" d="M375.1,445.1c-0.1,0.1-0.2,0.3-0.3,0.5h-0.1C374.8,445.4,374.9,445.3,375.1,445.1
			C375,445.1,375,445.1,375.1,445.1z"/>
		<path class="st2" d="M331.2,174.9c0.2,0,0.4,0.1,0.6,0.1C331.6,175,331.4,174.9,331.2,174.9z"/>
		<path class="st2" d="M311.2,158.5c0.4-0.7,0.8-1.4,1.2-2.1C312,157.1,311.6,157.8,311.2,158.5L311.2,158.5z"/>
		<path class="st2" d="M203.2,167c0,0.1,0.1,0.2,0.1,0.3C203.3,167.2,203.3,167.1,203.2,167z"/>
		<path class="st2" d="M204,169.3c0.1,0.3,0.2,0.6,0.4,1C204.2,169.9,204.1,169.6,204,169.3z"/>
		<path class="st2" d="M206.1,212.2c0.2-0.2,0.4-0.3,0.6-0.5C206.5,211.9,206.3,212.1,206.1,212.2z"/>
		<path class="st2" d="M207,176c0.1,0.2,0.2,0.3,0.3,0.5s0.2,0.4,0.4,0.6C207.4,176.8,207.2,176.4,207,176z"/>
		<path class="st2" d="M207.6,210.8c-0.1,0.1-0.2,0.2-0.3,0.3C207.5,211,207.6,210.9,207.6,210.8z"/>
		<path class="st2" d="M220.1,89.8c0.1,0,0.1-0.1,0.2-0.1C220.2,89.8,220.2,89.8,220.1,89.8z"/>
		<path class="st2" d="M223,88.1c0.4-0.2,0.7-0.4,1.1-0.6C223.8,87.7,223.4,87.9,223,88.1z"/>
		<path class="st2" d="M223.7,110.2C223.7,110.2,223.6,110.2,223.7,110.2C223.6,110.2,223.7,110.2,223.7,110.2z"/>
		<path class="st2" d="M223.4,110.4L223.4,110.4L223.4,110.4z"/>
		<path class="st2" d="M238.1,115.7c0.5,0.1,0.9,0.1,1.4,0.1C239,115.8,238.5,115.8,238.1,115.7z"/>
		<path class="st2" d="M239.4,120.8h-0.1c0,0,0,0-0.1,0C239.3,120.7,239.3,120.8,239.4,120.8z"/>
		<path class="st2" d="M238.9,120.7L238.9,120.7c-0.4,0-0.7-0.1-1-0.1C238.2,120.6,238.6,120.7,238.9,120.7z"/>
		<path class="st2" d="M240.6,120.9c0.1,0,0.2,0,0.3,0.1c-0.1,0-0.1,0-0.2,0C240.7,121,240.6,121,240.6,120.9z"/>
		<path class="st2" d="M241.5,121.1L241.5,121.1c0.2,0,0.5,0.1,0.7,0.1C242,121.2,241.7,121.2,241.5,121.1z"/>
		<path class="st2" d="M248.7,116.1c0.8,0,1.7-0.1,2.5-0.2C250.3,116,249.5,116.1,248.7,116.1z"/>
		<path class="st2" d="M252.5,125.2c-0.6-0.3-1.2-0.7-1.9-1C251.3,124.5,251.9,124.8,252.5,125.2z"/>
		<path class="st2" d="M250.1,123.9c-0.6-0.3-1.2-0.5-1.9-0.8C248.9,123.4,249.5,123.6,250.1,123.9z"/>
		<path class="st2" d="M233.1,114.9c0.2,0,0.3,0.1,0.5,0.1C233.5,115,233.3,115,233.1,114.9z"/>
		<path class="st2" d="M235.6,115.4c0.3,0.1,0.6,0.1,0.9,0.1C236.2,115.5,235.9,115.4,235.6,115.4z"/>
		<path class="st2" d="M226.4,86.3c0.6-0.3,1.2-0.6,1.8-0.9C227.6,85.7,227,86,226.4,86.3z"/>
		<path class="st2" d="M212.1,183.3l0.1,0.1C212.2,183.4,212.1,183.3,212.1,183.3z"/>
		<path class="st2" d="M211.2,202.8L211.2,202.8L211.2,202.8z"/>
		<path class="st2" d="M210.5,181.3c-0.1-0.1-0.1-0.2-0.2-0.2C210.4,181.2,210.5,181.3,210.5,181.3z"/>
		<path class="st2" d="M209.3,208.6L209.3,208.6L209.3,208.6z"/>
		<path class="st2" d="M208.5,178.5c0.2,0.3,0.3,0.6,0.5,0.8C208.8,179,208.7,178.7,208.5,178.5z"/>
		<path class="st2" d="M208.5,209.8l-0.1,0.1C208.5,209.9,208.5,209.8,208.5,209.8z"/>
		<path class="st2" d="M253,125.4c0.6,0.4,1.3,0.7,1.9,1.1C254.3,126.2,253.7,125.8,253,125.4z"/>
		<path class="st2" d="M255.3,126.8c0.6,0.4,1.3,0.9,1.9,1.3C256.6,127.7,255.9,127.3,255.3,126.8z"/>
		<path class="st2" d="M257.5,128.4c0.6,0.5,1.3,1,1.9,1.5C258.7,129.4,258.1,128.9,257.5,128.4z"/>
		<path class="st2" d="M259.5,130.1c0.6,0.6,1.2,1.1,1.8,1.7C260.8,131.2,260.1,130.6,259.5,130.1z"/>
		<path class="st2" d="M293.6,111.5c0.3-0.3,0.6-0.6,0.9-0.9C294.1,110.9,293.9,111.2,293.6,111.5z"/>
		<path class="st2" d="M296.4,113L296.4,113L296.4,113z"/>
		<path class="st2" d="M295.6,109.5c0.3-0.3,0.6-0.5,0.9-0.7C296.2,109,295.9,109.3,295.6,109.5z"/>
		<path class="st2" d="M295.9,113.5c-0.2,0.2-0.4,0.5-0.6,0.7C295.5,114,295.7,113.8,295.9,113.5z"/>
		<path class="st2" d="M294.6,110.5c0.3-0.3,0.6-0.5,0.9-0.8C295.1,109.9,294.8,110.2,294.6,110.5z"/>
		<path class="st2" d="M263.2,133.8c-0.6-0.7-1.2-1.3-1.8-1.9C262.1,132.5,262.7,133.2,263.2,133.8z"/>
		<path class="st2" d="M311.4,94.7c-0.4-0.2-0.8-0.3-1.2-0.4C310.6,94.4,311,94.5,311.4,94.7z"/>
		<path class="st2" d="M309.2,94c-0.2-0.1-0.4-0.1-0.6-0.2C308.8,93.9,309,93.9,309.2,94z"/>
		<path class="st2" d="M307.9,97.8c-0.2,0.2-0.4,0.4-0.6,0.6C307.5,98.2,307.7,98,307.9,97.8z"/>
		<path class="st2" d="M307.2,93.5c-0.1,0-0.2,0-0.3-0.1C307,93.5,307.1,93.5,307.2,93.5z"/>
		<path class="st2" d="M305.4,93.3c-0.1,0-0.2,0-0.3,0C305.2,93.3,305.3,93.3,305.4,93.3z"/>
		<path class="st2" d="M303.7,93.2c-0.1,0-0.3,0-0.4,0C303.5,93.2,303.6,93.2,303.7,93.2z"/>
		<path class="st2" d="M302.1,93.3c-0.2,0-0.4,0-0.6,0C301.7,93.3,301.9,93.3,302.1,93.3z"/>
		<path class="st2" d="M300.8,91.2c-0.1,0-0.3,0-0.4,0.1C300.6,91.3,300.7,91.3,300.8,91.2z"/>
		<path class="st2" d="M300.5,93.5c-0.2,0-0.5,0.1-0.7,0.1C300,93.5,300.2,93.5,300.5,93.5z"/>
		<path class="st2" d="M298.9,91.6c-0.3,0.1-0.6,0.2-1,0.2C298.2,91.7,298.5,91.6,298.9,91.6z"/>
		<path class="st2" d="M296.6,108.7c0.3-0.3,0.7-0.5,1-0.7C297.3,108.2,296.9,108.4,296.6,108.7z"/>
		<path class="st2" d="M261.9,78.5c-0.8,0.1-1.6,0.1-2.5,0.2C260.3,78.6,261.1,78.6,261.9,78.5z"/>
		<path class="st2" d="M251.4,115.9c0.9-0.1,1.8-0.2,2.7-0.3C253.2,115.8,252.3,115.9,251.4,115.9z"/>
		<path class="st2" d="M251.5,79.8c-1,0.2-2,0.4-3,0.6C249.6,80.2,250.5,80,251.5,79.8z"/>
		<path class="st2" d="M248.2,116.1c-0.8,0-1.5,0-2.3,0C246.7,116.2,247.5,116.2,248.2,116.1z"/>
		<path class="st2" d="M247.5,122.8c-0.6-0.2-1.2-0.4-1.8-0.6C246.3,122.4,246.9,122.6,247.5,122.8z"/>
		<path class="st2" d="M245.3,116.2c-0.7,0-1.3,0-2,0C244,116.2,244.6,116.2,245.3,116.2z"/>
		<path class="st2" d="M244.9,122c-0.6-0.2-1.2-0.3-1.7-0.5C243.7,121.6,244.3,121.8,244.9,122z"/>
		<path class="st2" d="M240.7,116c0.6,0,1.1,0.1,1.7,0.1C241.8,116.1,241.2,116,240.7,116z"/>
		<path class="st2" d="M242.3,62.3c-0.4,0.2-0.8,0.3-1.3,0.5C241.5,62.6,241.9,62.5,242.3,62.3z"/>
		<path class="st2" d="M239.8,6.5c-0.3,0.1-0.6,0.2-0.8,0.3C239.2,6.6,239.5,6.6,239.8,6.5z"/>
		<path class="st2" d="M236.3,7.6c-0.5,0.2-1.1,0.4-1.6,0.6C235.2,8,235.8,7.8,236.3,7.6z"/>
		<path class="st2" d="M233,8.8c-0.8,0.3-1.6,0.7-2.4,1C231.4,9.5,232.2,9.2,233,8.8z"/>
		<path class="st2" d="M202.7,164.7c-0.1-0.3-0.1-0.7-0.2-1C202.5,164,202.6,164.3,202.7,164.7z"/>
		<path class="st2" d="M202.3,162.4c-0.1-0.5-0.1-0.9-0.2-1.4C202.1,161.5,202.2,162,202.3,162.4z"/>
		<path class="st2" d="M202,160.1c0-0.5-0.1-1-0.1-1.4C201.9,159.2,201.9,159.6,202,160.1z"/>
		<path class="st2" d="M200.6,172.7L200.6,172.7L200.6,172.7L200.6,172.7z"/>
		<path class="st2" d="M179.8,165.7c0.2-0.1,0.3-0.3,0.5-0.4C180.1,165.4,180,165.6,179.8,165.7z"/>
		<path class="st2" d="M176.8,173.4c-0.1,0.1-0.1,0.3-0.2,0.4C176.7,173.7,176.8,173.5,176.8,173.4z"/>
		<path class="st2" d="M176.2,174.7c-0.1,0.3-0.2,0.7-0.4,1C176,175.4,176.1,175.1,176.2,174.7z"/>
		<path class="st2" d="M258.9,475.6c0.1,0,0.2-0.1,0.3-0.1C259.1,475.6,259,475.6,258.9,475.6z"/>
		<path class="st2" d="M287.9,461.5L287.9,461.5c0,0.1,0,0.2,0,0.3C287.9,461.7,287.9,461.6,287.9,461.5z"/>
		<path class="st2" d="M367.6,446.7c-0.1,0-0.1,0-0.2,0C367.4,446.7,367.5,446.7,367.6,446.7z"/>
		<path class="st2" d="M358.8,444.8L358.8,444.8c-0.1,0-0.1,0-0.1,0C358.7,444.8,358.8,444.8,358.8,444.8L358.8,444.8z"/>
		<path class="st2" d="M353.3,452l-0.2,0.2c-0.1,0.1-0.3,0.1-0.4,0.2c0.1-0.1,0.1-0.2,0.2-0.2C353,452.1,353.2,452.1,353.3,452z"/>
		<path class="st2" d="M398.7,464.2c0-0.2,0-0.4,0-0.6C398.8,463.7,398.8,463.9,398.7,464.2z"/>
		<path class="st2" d="M411.6,552.8L411.6,552.8L411.6,552.8L411.6,552.8z"/>
		<path class="st2" d="M203.1,201.8c-0.1-0.1-0.2-0.1-0.3-0.2C202.9,201.7,203,201.7,203.1,201.8z"/>
		<path class="st2" d="M203.6,202L203.6,202L203.6,202z"/>
		<path class="st2" d="M217.3,155.1c-0.1,0-0.2,0.1-0.2,0.1C217.1,155.2,217.2,155.1,217.3,155.1z"/>
		<path class="st2" d="M125.6,481.4c-0.4-0.3-0.7-0.7-1-1c0.2,0.2,0.4,0.4,0.6,0.6C125.3,481.1,125.5,481.2,125.6,481.4z"/>
		<path class="st2" d="M264.4,135.3c-0.4-0.5-0.8-0.9-1.1-1.4C263.7,134.3,264.1,134.8,264.4,135.3z"/>
		<g>
			<g>
				<path class="st5" d="M564.7,53.2c-28.5,0.9-56.3,17.9-69.4,43.4c-7.1,13.9-9.2,30.1-2.6,44.6c6.3,13.9,21.3,21.1,35.4,24.6
					c17.7,4.3,35.8,2.3,52.4-5c4.3-1.9,5.2-8.1,3.1-11.8c-2.6-4.4-7.5-5-11.8-3.1c-10.3,4.5-22.3,6-33.4,4.4
					c-9.8-1.4-23.7-5.2-29.1-14.4c-11.7-19.5,6.1-43.7,22-54.4c9.9-6.7,21.3-10.7,33.4-11.1C575.8,70.1,575.8,52.9,564.7,53.2
					L564.7,53.2z"/>
			</g>
			<g>
				<path class="st5" d="M571.2,292.3c-28.5,0.9-56.3,17.9-69.4,43.4c-7.1,13.9-9.2,30.1-2.6,44.6c6.3,13.9,21.3,21.1,35.4,24.6
					c17.7,4.3,35.8,2.3,52.4-5c4.3-1.9,5.2-8.1,3.1-11.8c-2.6-4.4-7.5-5-11.8-3.1c-10.3,4.5-22.3,6-33.4,4.4
					c-9.8-1.4-23.7-5.2-29.1-14.4c-11.7-19.5,6.1-43.7,22-54.4c9.9-6.7,21.3-10.7,33.4-11.1C582.2,309.2,582.3,292,571.2,292.3
					L571.2,292.3z"/>
			</g>
			<g>
				<path class="st5" d="M556.7,181.9c-20.9-5.4-43,5.8-53.1,24.4c-9.8,18-9.2,41.2,3.4,57.8c12.3,16.2,33,23,52.2,15.1
					c20-8.2,33-28.2,34.4-49.5c0.8-11.6-2.6-23.1-10.2-31.9C576.6,189.7,566.7,185,556.7,181.9c-10.6-3.3-15.2,13.3-4.6,16.6
					c12,3.7,22.7,10.9,24.1,24.3c1.6,14.5-5.8,29.9-18.1,37.7c-11.3,7.2-24.8,6.4-34.4-3.2c-9.9-9.8-11.9-24.4-7.5-37.3
					c4.9-14.4,20.5-25.5,35.9-21.5C562.9,201.3,567.5,184.7,556.7,181.9L556.7,181.9z"/>
			</g>
			<g>
				<path class="st5" d="M559.5,422.6c-20.9-5.4-43,5.8-53.1,24.4c-9.8,18-9.2,41.2,3.4,57.8c12.3,16.2,33,23,52.2,15.1
					c20-8.2,33-28.2,34.4-49.5c0.8-11.6-2.6-23.1-10.2-31.9C579.3,430.5,569.4,425.7,559.5,422.6c-10.6-3.3-15.2,13.3-4.6,16.6
					c12,3.7,22.7,10.9,24.1,24.3c1.6,14.5-5.8,29.9-18.1,37.7c-11.3,7.2-24.8,6.4-34.4-3.2c-9.9-9.8-11.9-24.4-7.5-37.3
					c4.9-14.4,20.5-25.5,35.9-21.5C565.7,442,570.2,425.4,559.5,422.6L559.5,422.6z"/>
			</g>
		</g>
		<path class="st4" d="M179.8,165.7c0.2-0.2,0.4-0.4,0.7-0.6l-0.1-0.1c-1.3,0.5-2.6,1.1-3.9,1.6c-1.9,0.8-3.7,1.6-5.6,2.4
			c-1.8,0.8-2.5,0.7-3.1,2.4c-1.1,3.1,0.5,8.1,1.3,11c0.8,2.7-3.4,3.8-4.2,1.1c-1.2-4.1-1.9-8.6-1.4-12.9c0.4-3.8,2.6-4.3,5.9-5.7
			c3.4-1.5,6.9-2.9,10.4-4.3c-0.9-14.2,3.1-28.2,10.3-40.5c10.6-18.1,28.1-31.8,47.8-38.8c-0.5-0.1-1-0.6-0.7-1.3
			c3.8-10.2,12.6-15.9,21.9-20.5c-10.2-0.2-19.9,2.8-28.1,9.1c-0.7,0.5-1.6-0.2-1.6-0.9c0.3-22.6,6.6-44.9,19.4-63.5
			c-42.1,8.1-68.7,45.3-84.6,82.7c-0.4,1-1.7,0.5-2-0.3c-4.8-11.6-6.2-24.3-3.4-36.5C142,67,138.6,95,156.6,112.8
			c0.5,0.4,0.4,1.4-0.2,1.7c-18,8.3-30.3,24.6-35.2,43.4c10.2-9.2,22.6-15.5,36.2-18.4c0.3-0.1,0.6,0,0.9,0.2c0.8-0.1,1.6,1,0.9,1.9
			c-12.9,15.3-17.5,36.3-12.6,55.7c3.1-6.4,7.8-11.6,14-15.3c0.7-0.4,1.6,0.1,1.6,0.9c0.3,7.6,2.2,14.7,5.7,21.3
			c1.4-3.8,3.6-7.2,6.6-10.1C171,184.5,172,172.9,179.8,165.7z"/>
		<path class="st6" d="M197.1,159.3c-2.1,0.6-4.2,1.2-6.3,1.9c0.2,0,0.5,0.1,0.7,0.1c3.8,1,6.6,5.3,8.3,9c-1.2-3.6-2-7.4-2.2-11.3
			C197.5,159.1,197.3,159.2,197.1,159.3z"/>
		<path class="st0" d="M263,270.4c3.9,0,8.1,0,12-0.8c4.6-0.9,12.8-5.3,8.7-11c-0.1-0.2-0.2-0.4-0.2-0.6c-0.3-0.2-0.4-0.6-0.2-1
			c1-3,2-5.9,3.1-8.9c-7.3,2.6-15,4.1-23,4.2c-24.6,0.2-50.1-12.4-61.9-34.5c-0.8,9.3-1.6,18.5-2.4,27.8c0,0.1,0,0.1,0,0.2
			c11.4,10.7,25.3,18,40.5,21.7C247.1,269.5,255,270.4,263,270.4z"/>
		<path class="st2" d="M243.1,253.6c11.9,3.8,27.9,6.6,40.6,2.1c0.9-2.5,1.8-5.1,2.6-7.6c-7.3,2.6-15,4.1-23,4.2
			c-24.6,0.2-50.1-12.4-61.9-34.5c-0.2,2.7-0.5,5.3-0.7,8C210.1,239.6,227.8,248.7,243.1,253.6z"/>
		<path class="st0" d="M241.8,262.3c-14.5-4.5-30.9-12.5-42.2-24.1c-0.2,2.5-0.4,5-0.6,7.5c0,0.1,0,0.1,0,0.2
			c11.4,10.7,25.3,18,40.5,21.7c7.7,1.9,15.7,2.8,23.6,2.8c3.9,0,8.1,0,12-0.8c2.8-0.5,6.9-2.4,8.8-5
			C270.2,268.3,254.6,266.2,241.8,262.3z"/>
		<path class="st7" d="M214.2,185.4c0,0.1-0.1,0.1-0.1,0.1c2.5,2.5,5.2,4.8,8.2,6.7c6.4,4.2,14.6,7.5,22.4,7
			c7.6-0.5,17.1-5.2,22.1-11c5.5-6.3,6.9-16.5,6.9-24.6c0-8-1.8-16-5.7-23c-7.2-13-21.4-21.2-36.3-20.1c-0.2,0-0.4,0.1-0.6,0.1
			c-17.9-0.5-29.2,20.1-29.3,35.8c0,5.7,1.2,11.3,3.6,16.4c3.6-6,7.2-11.9,11.5-17.4c0.8-1.1,2.4,0.4,1.5,1.5
			c-4.4,5.7-8.2,11.9-11.9,18.2c1.7,3.2,3.7,6.1,6.1,8.8c4.1-7.5,8.5-14.7,13.4-21.8c0.8-1.1,2.6-0.1,1.9,1.1
			C222.9,170.4,218.4,177.8,214.2,185.4z"/>
		<path class="st4" d="M181.8,159.9c4.7-1.8,9.4-3.4,14.2-4.8c0.6-0.2,1.2-0.1,1.6,0.2c0-2,0.2-4.1,0.6-6.1
			c2.1-12.6,10.8-26.5,23.2-31.2c1.2-1.8,1.9-3.8,2.1-5.9c-0.8-0.7-0.3-2.3,0.9-1.9c15.7,5.8,33.6,5,48.6-2.6
			c7.3-3.7,12.7-9.8,19.7-13.7c5-2.8,10.7-3.5,16.2-2.2c-8.8-6.5-19-10.7-29.9-12.4c-22.7-3.6-46.7,3.4-65,17
			C194.4,110.7,180.6,135.2,181.8,159.9z"/>
		<path class="st7" d="M304,147.3c3.6-6,7.2-11.9,11.5-17.4c0.8-1.1,2.4,0.4,1.5,1.5c-4.5,5.7-8.2,11.9-11.9,18.2
			c1.6,3.2,3.7,6.2,6.1,8.9c4.1-7.5,8.6-14.8,13.4-21.9c0.8-1.1,2.6-0.1,1.9,1.1c-4.9,7.1-9.5,14.5-13.6,22.2
			c-0.1,0.1-0.1,0.2-0.2,0.2c1.2,1.2,2.5,2.4,3.8,3.4c5.4,4.3,13,8.2,20.1,7.1c6.8-1,14.9-6.2,18.3-12.2c7-12.3,5.9-31,0.2-43.6
			c-5.4-11.9-16.8-21.4-30.2-20.3c-0.2,0.1-0.4,0.1-0.6,0.1c-16.2-0.5-24,21.4-24.1,34.5C300.1,135.5,301.5,141.7,304,147.3z"/>
		<path class="st7" d="M216.9,155.4c0.8-1.1,2.4,0.4,1.5,1.5c-4.4,5.7-8.2,11.9-11.9,18.2c0.5,0.9,1,1.8,1.6,2.7
			c6.2-13.5,14.9-25.8,22.7-38.4c3.7-6,7.2-12.1,10.7-18.3c-3.2-0.6-6.4-0.8-9.7-0.6c-0.2,0-0.4,0.1-0.6,0.1
			c-17.9-0.5-29.2,20.1-29.3,35.8c0,5.7,1.2,11.3,3.6,16.4C208.9,166.8,212.6,160.9,216.9,155.4z"/>
		<path class="st5" d="M267.4,139.6c-4.2-7-10.4-12.6-17.7-15.8c-3.5,6.3-7.1,12.6-10.8,18.7c-3.9,6.4-8.1,12.7-12.1,19.1
			c0.8,0,1.5,0.8,1,1.6c-4.9,7.1-9.5,14.5-13.6,22.2c0,0.1-0.1,0.1-0.1,0.1c2.5,2.5,5.2,4.8,8.2,6.7c2.2,1.4,4.6,2.8,7.2,3.9
			C242.3,177.4,255.1,158.7,267.4,139.6z"/>
		<path class="st5" d="M272.4,152.2c-0.2-1.1-0.5-2.1-0.9-3.2c-11,16.7-22.2,33.3-33.5,49.8c1.6,0.3,3.2,0.5,4.9,0.5
			C252.8,183.6,263,168.2,272.4,152.2z"/>
		<path class="st7" d="M254.8,196.7c4.7-2,9.2-5,12.1-8.4c4.8-5.5,6.5-14.1,6.8-21.5C267.5,176.8,261.1,186.7,254.8,196.7z"/>
		<path class="st7" d="M315.5,130c0.8-1.1,2.4,0.4,1.5,1.5c-4.5,5.7-8.2,11.9-11.9,18.2c0.4,0.7,0.7,1.4,1.1,2.1
			c12.9-16.8,23-35.4,31.6-54.8c-4-1.8-8.3-2.6-12.9-2.3c-0.2,0.1-0.4,0.1-0.6,0.1c-16.2-0.5-24,21.4-24.1,34.5
			c-0.1,6.2,1.3,12.4,3.8,18.1C307.5,141.4,311.2,135.5,315.5,130z"/>
		<path class="st5" d="M323.3,168c9.9-13.9,16.9-30.1,25-44.9c1.9-3.5,3.8-6.9,5.7-10.4c-2.3-4.3-5.3-8.1-9-11.2
			c-5.5,12.2-11.5,24.1-18.5,35.4c0.1,0.2,0,0.5-0.2,0.8c-4.9,7.1-9.5,14.5-13.6,22.2c-0.1,0.1-0.1,0.2-0.2,0.2
			c1.2,1.2,2.5,2.4,3.8,3.4C318.5,165.2,320.8,166.8,323.3,168z"/>
		<path class="st5" d="M337.9,170.5c7.9-12.6,14.6-25.9,21.6-39c-0.3-2.8-0.8-5.5-1.4-8.1c-1,1.9-2,3.7-3,5.6
			c-7.5,13.8-14.2,28.7-23.1,41.8c1.6,0.2,3.2,0.2,4.7,0C337,170.7,337.4,170.6,337.9,170.5z"/>
		<path class="st7" d="M354,159.9c0.3-0.4,0.6-0.9,0.9-1.4c0.5-0.9,0.9-1.8,1.4-2.7C355.5,157.2,354.8,158.6,354,159.9z"/>
		<path class="st0" d="M298,94c-4.9,1.4-8.6,4.8-12.4,8c-5.4,4.4-11.3,7.9-17.9,10.3c-13.5,5-28.5,5.2-42.1,0.6
			c-0.2,1.5-0.6,2.9-1.2,4.2c2.1-0.5,4.2-0.8,6.5-0.7l0,0c10.7-1.1,20.9,2.4,29.1,8.7c2.8-1.2,5.8-1.5,8.8-0.7
			c2,0.5,1.2,3.6-0.9,3.1c-1.7-0.4-3.4-0.4-5.1,0c5.5,5,9.8,11.4,12.3,18.5l0,0c5.5-6.2,13.5-8.9,21.7-7.2
			c-1.1-5.6-1.2-11.4-0.3-17.1c0.6-3.7,1.7-7.7,3.4-11.5c-3.6,2.4-6.6,5.5-7.2,9.9c-0.2,2-3.5,2.1-3.2,0c0.9-7.6,7-11.8,13.2-15.4
			c2.3-3.9,5.3-7.5,8.8-10C307.1,93,302.5,92.7,298,94z"/>
		<path class="st0" d="M211.3,201.2c0-1.4,2.2-1.4,2.2,0c-0.1,6.9-4.2,13.3-10.4,15.1c6.3,12,16.7,21.1,28.9,26.8
			c24.4,11.5,51.5,7.8,73.3-7.3c0.4-0.3,0.8-0.5,1.2-0.8c0.1-0.4,0.3-0.7,0.8-0.7c0.1,0,0.2,0,0.3,0c20.3-14.7,37.7-37.9,40.2-63.3
			c-5.2,3.1-11.2,5-17.3,3.8c-4-0.7-7.8-2.3-11.3-4.3c1.4,2.3,2.5,4.7,3.5,7.1c2.1,5.5,2.9,11.8-0.3,17c-2.5,4.2-6.9,7-11.9,6.5
			c-2.1-0.2-2.1-3.4,0-3.2c6.2,0.5,10.5-4.9,10.8-10.7c0.3-5.3-2.2-10.5-4.9-14.9c-5.2-8.6-12.4-15.8-20.8-21.2
			c-1.7-1.1-0.1-3.9,1.6-2.8c1.3,0.9,2.7,1.8,4,2.7c-1.2-2.5-2.2-5-3-7.6c-0.1,0-0.3,0-0.4-0.1c-8.1-2.4-16.2,0.4-20.9,7.5
			c0,0.1-0.1,0.1-0.1,0.1c3.8,15.6,1.5,35.9-12.4,45.1c-7.6,5-16.5,8.5-25.6,7.1c-8.4-1.3-16.4-5.2-23-10.5
			c-6.8-5.4-11.9-12.4-15-20.2c-0.2,0.8-1.7,1.1-2.1,0c-1-2.3-2.3-4.9-4.2-6.7c-2.7-2.6-5.4-2.8-8.7-1.4c-3.5,1.5-6.3,4.3-8.2,7.6
			c-4.1,7.2-3.5,15.8-0.4,23.2c3.2,7.8,9.7,16.1,18,18.7C204,216.8,211.2,210,211.3,201.2z M232.8,219.1
			c17.1,9.8,38.3,10.7,56.1,2.1c1.9-0.9,3.5,1.9,1.6,2.8c-18.9,9-41.2,8.3-59.4-2.1C229.4,220.9,231,218.1,232.8,219.1z
			 M202.8,201.6c-2.4-1.8-4.9-3.7-7.3-5.5c0.6,2.6,1.2,5.2,1.8,7.9s-3.6,3.8-4.2,1.1c-1-4.4-2-8.8-3.1-13.1
			c-3.1-2.4-6.3-4.7-9.4-7.1c-2.2-1.6,0-5.4,2.2-3.7c1.8,1.4,3.7,2.8,5.5,4.2c-0.7-2.8-1.5-5.6-2.3-8.4c-0.8-2.7,3.4-3.8,4.2-1.1
			c1.3,4.6,2.5,9.1,3.7,13.7c3.7,2.8,7.4,5.6,11.1,8.4C207.2,199.5,205,203.3,202.8,201.6z"/>
		<path class="st4" d="M472.5,308.6c0.9,1.5,1.8,3,2.7,4.5c10.6-12.8,20.8-26,29.7-40c-9.6,10.3-19.1,20.7-28.5,31.2
			C475.1,305.7,473.8,307.2,472.5,308.6z"/>
		<path class="st4" d="M470.9,310.3c-38.9,43.5-76.5,88-112.4,134c1.4,1,3,2.4,4.3,3.7c0.4-0.1,0.8-0.3,1.1-0.4
			c2.4-0.8,6.2-1.4,8.9-1.8c0-0.2,0.8-1.1,0.9-1.3c11.4-14.2,19.7-28.8,29.8-43.9c20.7-30.7,46.8-57.2,70.5-85.6
			c-0.7-1.3-2-2.7-2.8-3.9C471.3,310.9,471.1,310.6,470.9,310.3z"/>
		<path class="st3" d="M397.4,453.6c-1.7-10.7-3.4-21.4-5.2-32.1c-5.6,8.2-11.3,16.3-17.5,24.1c3.7-0.2,7.5,0,10.9,0.8
			C390.1,447.4,394.4,449.9,397.4,453.6z"/>
		<path class="st3" d="M411.5,552.9h41.3c-0.1-0.3,0-0.6,0.3-0.9c23.5-20.1,40.4-47,49.2-76.5c7.8-26.2,9.3-54.3,3.9-81.1
			c-5.5-27.2-17.2-53.7-31.3-77.7c-15.6,18.5-32.2,36.2-47.4,55c-7.7,9.4-14.6,19.3-21.4,29.4c0.1,0.1,0.2,0.2,0.2,0.4
			c8.7,22.2,11.2,53-2.7,73.7c-0.2,0.3-0.4,0.4-0.7,0.5c3.6,25.6,6.6,51.3,8.7,77.1C411.5,552.8,411.5,552.9,411.5,552.9z"/>
		<path class="st3" d="M409.3,552.7c-2.3-28.1-5.6-56.1-9.7-84c-0.2,0.8-0.5,1.6-0.8,2.4c-1.8,4.8-1.9,8.3-1.3,13.4
			c0.4,3.1,0.5,6.2,0.2,9.4c-0.6,6.7-2.7,13.2-6.3,19c-7.7,12.6-22,19.9-34.4,27c-8.1,4.6-16.3,9.1-24.6,13.2h77
			C409.4,552.9,409.3,552.8,409.3,552.7z"/>
		<path class="st8" d="M398.4,460.3c-1.4-5.8-7-10.2-12.7-11.7c-6.9-1.8-15-1-21.9,1.4c-0.3,0.4-0.8,0.7-1.3,0.5
			c-0.5,0.2-1,0.4-1.5,0.6c-13.7,6.2-27.4,11.4-42,14.8c-1.3,0.3-1.9-1.8-0.6-2.1c8.2-1.9,16.3-4.3,24.3-7.2
			c6.1-2.2,11.9-5.4,17.9-7.8c-1.2-1-2.4-1.9-3.6-2.6c-0.2,0-0.4-0.2-0.5-0.3c-9.4-5.5-21.3-5.8-31.9-3.6
			c-13.8,2.9-26.4,9.6-36.7,19.2c0.1,0.4-0.1,0.8-0.5,1c-21.3,10.8-43.5,20.1-66.8,25.7c-20.5,4.9-41.9,7-62.9,4.9
			c-9-0.9-18.8-2-27-5.9c-7.9-3.7-12.6-11-17.2-18.1c-9.3-14.4-13.4-30.1-10.4-47.2c3.5-20.3,14.2-38.5,24.3-56.1
			c0.7-1.2,2.6-0.1,1.9,1.1c-10.8,18.8-22.5,38.5-24.8,60.5c-1.8,17.3,4.9,32.5,14.8,46.4c3,4.1,5.8,7.9,10.3,10.5
			c3.4,1.9,7.1,3.1,10.9,4c10.1,2.3,20.6,3.4,31,3.6c40.3,0.7,79-12.8,114.4-30.8c0-0.2,0.1-0.5,0.3-0.7
			c16.8-15.7,48.9-29.4,70.8-16.6c9.2-11.8,18.5-23.5,27.9-35.2c-2.2-11.2-10.1-19.5-19.9-24.8c-5.7-3.2-11.8-5.3-18.5-4.9
			c-6.8,0.4-13.1,3.2-18.8,6.8c-1.2,0.7-2.3-1.1-1.1-1.9c12.3-7.7,25.3-9.3,38.3-2.5c10.2,5.3,18.8,13.8,21.7,25.1
			c0.9-1.1,1.7-2.2,2.6-3.3c26.1-32.2,53-63.7,80.6-94.6c-15.5-24.9-34.1-49.2-60.2-63.4c-15.5-8.5-32.2-11.5-49.7-11.9
			c-17.2-0.4-34.5,0.6-51.5,3.2c-6.1,4.4-12.6,8.1-19.5,10.9c0,0.1,0,0.3-0.1,0.5c-1.1,3.2-2.2,6.5-3.4,9.7c0,0,0.1,0.1,0.1,0.2
			c4.9,6.9-4,13-10,14.2c-8.8,1.7-18.5,1-27.3-0.2c-19.1-2.8-37-11-51.1-24.3c-0.3-0.3-0.4-0.7-0.3-1c-0.1-0.1-0.1-0.3-0.1-0.5
			c0.2-2.5,0.4-5.1,0.6-7.6c-7.8,0.1-15.5,0.4-23.3,1.1c-30.9,2.7-62.2,10.8-88.2,28.3c-24.9,16.8-42.7,42.2-56.2,68.5
			c-14.4,28-24.8,58.7-26.1,90.3C2.3,458,9.3,490,23.8,518.2c6.5,12.7,14.4,25,24.5,35.3c10.4,10.5,23.1,18,37,22.7
			c29.9,10.2,62.7,11.4,93.9,9.6c32.1-1.8,64.4-3.5,95.5-12.4c30-8.6,58.6-22.1,85.4-37.9c13.3-7.8,27.4-15.9,33-31.1
			c2.7-7.4,2.9-14.6,1.9-22.3c-0.4-2.9-0.4-5.5,0.5-8.3c0.9-2.9,2.4-5.6,3-8.5c0.2-1,0.2-2,0.2-2.9
			C398.6,461.6,398.5,460.9,398.4,460.3z M221.3,386.9c6.5-2.8,13.2-5.7,20.4-4.9c6.5,0.8,13,3.9,18.4,7.5
			c10,6.8,17.7,17.1,19.2,29.3c1.5,12.3-3.3,24.5-13.7,31.5c-12.3,8.3-27.8,8-42.1,7.6c-1.4,0-1.4-2.2,0-2.2
			c12.6,0.4,26,0.8,37.5-5.3c10.9-5.7,17-16.9,16.3-29.1c-0.7-11.9-7.7-22.4-17.3-29.3c-4.7-3.4-10.2-6.3-15.9-7.5
			c-7.7-1.8-14.8,1-21.8,4.1C221.1,389.3,220,387.5,221.3,386.9z"/>
		<path class="st0" d="M398.4,460.3c-1.4-5.8-7-10.2-12.7-11.7c-6.9-1.8-15-1-21.9,1.4c-0.3,0.4-0.8,0.7-1.3,0.5
			c-0.5,0.2-1,0.4-1.5,0.6c-13.7,6.2-27.4,11.4-42,14.8c-1.3,0.3-1.9-1.8-0.6-2.1c8.2-1.9,16.3-4.3,24.3-7.2
			c6.1-2.2,11.9-5.4,17.9-7.8c-1.2-1-2.4-1.9-3.6-2.6c-0.2,0-0.4-0.2-0.5-0.3c-9.4-5.5-21.3-5.8-31.9-3.6
			c-13.8,2.9-26.4,9.6-36.7,19.2c0.1,0.4-0.1,0.8-0.5,1s-0.7,0.4-1.1,0.5c0.3,34.3,17.2,66.9,43.3,88.9
			c10.4-5.1,20.6-10.6,30.6-16.5c13.3-7.8,27.4-15.9,33-31.1c2.7-7.4,2.9-14.6,1.9-22.3c-0.4-2.9-0.4-5.5,0.5-8.3
			c0.9-2.9,2.4-5.6,3-8.5c0.2-1,0.2-2,0.2-2.9C398.6,461.6,398.5,460.9,398.4,460.3z"/>
		<path class="st3" d="M277.8,467.3c-18.4,8.8-37.4,16.2-57.2,20.9c-20.5,4.9-41.9,7-62.9,4.9c-9-0.9-18.8-2-27-5.9
			c-7.9-3.7-12.6-11-17.2-18.1c-9.3-14.4-13.4-30.1-10.4-47.2c3.5-20.3,14.2-38.5,24.3-56.1c0.7-1.2,2.6-0.1,1.9,1.1
			c-10.8,18.8-22.5,38.5-24.8,60.5c-1.8,17.3,4.9,32.5,14.8,46.4c3,4.1,5.8,7.9,10.3,10.5c3.4,1.9,7.1,3.1,10.9,4
			c10.1,2.3,20.6,3.4,31,3.6c37.2,0.6,73.1-10.9,106.3-26.8c1.8-0.3,4.3-1.4,5.6-2.1c4.2-2.3,0.8,0.6,3.7-2.1
			c16.9-15.6,48-29.9,69.9-17.1c9.2-11.8,18.5-23.5,27.9-35.2c-2.2-11.2-10.1-19.5-19.9-24.8c-5.7-3.2-11.8-5.3-18.5-4.9
			c-6.8,0.4-13.1,3.2-18.8,6.8c-1.2,0.7-2.3-1.1-1.1-1.9c12.3-7.7,25.3-9.3,38.3-2.5c10.2,5.3,18.8,13.8,21.7,25.1
			c0.9-1.1,1.7-2.2,2.6-3.3c26.1-32.2,53-63.7,80.6-94.6c-15.5-24.9-34.1-49.2-60.2-63.4c-15.5-8.5-32.2-11.5-49.7-11.9
			c-17.2-0.4-34.5,0.6-51.5,3.2c-6.1,4.4-12.6,8.1-19.5,10.9c0,0.1,0,0.3-0.1,0.5c-1.1,3.2-2.2,6.5-3.4,9.7c0,0,0.1,0.1,0.1,0.2
			c4.9,6.9-4,13-10,14.2c-8.8,1.7-18.5,1-27.3-0.2c-19.1-2.8-37-11-51.1-24.3c-0.3-0.3-0.4-0.7-0.3-1c-0.1-0.1-0.1-0.3-0.1-0.5
			c0.2-2.5,0.4-5.1,0.6-7.6c-7.8,0.1-15.5,0.4-23.3,1.1c-30.9,2.7-62.2,10.8-88.2,28.3c-24.9,16.8-42.7,42.2-56.2,68.5
			c-14.4,28-24.8,58.7-26.1,90.3C2.3,458,9.3,490,23.8,518.2c6.5,12.7,14.4,25,24.5,35.3c10.4,10.5,23.1,18,37,22.7
			c29.9,10.2,62.7,11.4,93.9,9.6c32.1-1.8,64.4-3.5,95.5-12.4c15.9-4.6,31.3-10.5,46.4-17.4C295.7,533.6,279.3,501.1,277.8,467.3z
			 M221.3,386.9c6.5-2.8,13.2-5.7,20.4-4.9c6.5,0.8,13,3.9,18.4,7.5c10,6.8,17.7,17.1,19.2,29.3c1.5,12.3-3.3,24.5-13.7,31.5
			c-12.3,8.3-27.8,8-42.1,7.6c-1.4,0-1.4-2.2,0-2.2c12.6,0.4,26,0.8,37.5-5.3c10.9-5.7,17-16.9,16.3-29.1
			c-0.7-11.9-7.7-22.4-17.3-29.3c-4.7-3.4-10.2-6.3-15.9-7.5c-7.7-1.8-14.8,1-21.8,4.1C221.1,389.3,220,387.5,221.3,386.9z"/>
		<path class="st6" d="M205,197.9c-3.7-2.8-7.4-5.6-11.1-8.4c-1.2-4.6-2.4-9.2-3.7-13.7c-0.8-2.7-4.9-1.5-4.2,1.1
			c0.8,2.8,1.6,5.6,2.3,8.4c-1.8-1.4-3.7-2.8-5.5-4.2c-2.2-1.7-4.4,2.1-2.2,3.7c3.1,2.4,6.3,4.7,9.4,7.1c1.1,4.4,2.1,8.7,3.1,13.1
			c0.6,2.7,4.7,1.6,4.2-1.1c-0.6-2.6-1.2-5.3-1.8-7.9c2.4,1.8,4.9,3.7,7.3,5.5C205,203.3,207.2,199.5,205,197.9z"/>
		<path class="st6" d="M231.2,221.9c18.2,10.4,40.5,11.2,59.4,2.1c1.9-0.9,0.2-3.7-1.6-2.8c-17.8,8.5-39,7.7-56.1-2.1
			C231,218.1,229.4,220.9,231.2,221.9z"/>
		<path class="st6" d="M222.3,388.8c7-3.1,14.1-5.9,21.8-4.1c5.7,1.3,11.2,4.2,15.9,7.5c9.6,6.8,16.6,17.3,17.3,29.3
			c0.7,12.3-5.4,23.4-16.3,29.1c-11.5,6.1-24.9,5.7-37.5,5.3c-1.4,0-1.4,2.1,0,2.2c14.2,0.4,29.8,0.7,42.1-7.6
			c10.4-7,15.2-19.3,13.7-31.5s-9.2-22.5-19.2-29.3c-5.4-3.7-11.9-6.8-18.4-7.5c-7.2-0.8-14,2-20.4,4.9
			C220,387.5,221.1,389.3,222.3,388.8z"/>
		<path class="st4" d="M360.2,443l-7.1,9.3c0,0,10.8-5,14.8-5.7s2.3-5.5,2.3-5.5L360.2,443z"/>
		<polygon class="st4" points="470.1,311.1 472.5,307.1 476.9,312.3 472.2,316.7 		"/>
		<g>
			<path class="st9" d="M398.7,455.2c-2.9-4.6-7.8-7.7-13-8.9c-4.1-0.9-8.6-1-13-0.5c-1,1-2.3,1.7-3.7,1.7c-0.5,0-1,0.1-1.6,0.1
				c-0.7,0.1-1.3,0.2-2,0.3c-0.5,0.1-0.8,0.3-1.2,0.2c-7.2,2.5-14.2,6-21.4,8.7c-7.9,2.9-16,5.3-24.3,7.2c-1.3,0.3-0.8,2.4,0.6,2.1
				c14.6-3.5,28.3-8.6,42-14.8c7.4-3.3,16.8-4.6,24.7-2.6c7.2,1.9,14.3,8.5,12.8,16.6c-0.6,3-2.1,5.7-3,8.5
				c-0.9,2.8-0.9,5.4-0.5,8.3c1,7.7,0.9,15-1.9,22.3c-5.6,15.2-19.7,23.3-33,31.1c-26.9,15.8-55.4,29.3-85.4,37.9
				c-31.1,8.9-63.4,10.6-95.5,12.4c-31.3,1.8-64,0.6-93.9-9.6c-14-4.8-26.6-12.2-37-22.7c-10.1-10.2-18-22.5-24.5-35.3
				C9.3,490,2.3,458,3.6,426.4C5,394.7,15.4,364.1,29.8,336c13.6-26.4,31.4-51.7,56.2-68.5c26-17.6,57.3-25.6,88.2-28.3
				c8-0.7,16.1-1.1,24.2-1.1c1.3-0.1,1.3-2.2-0.1-2.2c-32.6,0.4-65.9,5.2-95.5,19.5c-28.1,13.6-49.1,36-65.2,62.3
				c-17,27.7-30,59.1-34.5,91.3S3,474.6,15.3,504.7c11,26.9,28.2,53.7,54.8,67.3c13.4,6.8,28.2,10.5,43,13c16.9,2.8,34,3.9,51.1,3.5
				c17.3-0.4,34.7-1.6,51.9-3.1c16.8-1.4,33.4-3.5,49.8-7.5c32.1-8,62.6-21.8,91.2-38.2c12.4-7.2,26.7-14.4,34.4-27
				c3.5-5.7,5.7-12.3,6.3-19c0.3-3.1,0.2-6.2-0.2-9.4c-0.6-5.1-0.6-8.6,1.3-13.4C401,465.4,402,460.4,398.7,455.2z"/>
		</g>
		<g>
			<path class="st9" d="M313.1,560c-0.1-0.1-0.1-0.3-0.2-0.4c-12.5,5.4-25.2,10-38.3,13.8c-31.1,8.9-63.4,10.6-95.5,12.4
				c-31.3,1.8-64,0.6-93.9-9.6c-14-4.8-26.6-12.2-37-22.7c-10.1-10.2-18-22.5-24.5-35.3C9.3,490,2.3,458,3.6,426.4
				C5,394.7,15.4,364.1,29.8,336c13.6-26.4,31.4-51.7,56.2-68.5c26-17.6,57.3-25.6,88.2-28.3c8-0.7,16.1-1.1,24.2-1.1
				c1.4,0,1.4-2.2,0-2.2c-32.6,0.4-65.9,5.2-95.5,19.5c-28.1,13.6-49.1,36-65.2,62.3c-17,27.7-30,59.1-34.5,91.3
				s-0.1,65.6,12.2,95.7c11,26.9,28.2,53.7,54.8,67.3c13.4,6.8,28.2,10.5,43,13c16.9,2.8,34,3.9,51.1,3.5
				c17.3-0.4,34.7-1.6,51.9-3.1c16.8-1.4,33.4-3.5,49.8-7.5c16.5-4.1,32.6-9.7,48.2-16.5C313.7,561,313.4,560.5,313.1,560z"/>
			<path class="st2" d="M398.6,455.3c-2.9-4.6-7.8-7.7-13-8.9c-6.8-1.5-14.9-0.9-21.5,1.3c-7.3,2.5-14.1,6.4-21.3,9.1
				c-7.9,2.9-16,5.3-24.3,7.2c-1.3,0.3-0.8,2.4,0.6,2.1c14.6-3.5,28.3-8.6,42-14.8c7.4-3.3,16.8-4.6,24.7-2.6
				c7.2,1.9,14.3,8.5,12.8,16.6c-0.6,3-2.1,5.7-3,8.5s-0.9,5.4-0.5,8.3c1,7.7,0.9,15-1.9,22.3c-5.6,15.2-19.7,23.3-33,31.1
				c-12.7,7.5-25.7,14.4-39.1,20.5c0.6,0.3,1.2,0.7,1.8,1c0.1,0,0.1,0.1,0.2,0.1c0.2,0,0.3,0.1,0.5,0.2
				c11.4-5.3,22.6-11.2,33.5-17.5c12.4-7.2,26.7-14.4,34.4-27c3.5-5.7,5.7-12.3,6.3-19c0.3-3.1,0.2-6.2-0.2-9.4
				c-0.6-5.1-0.6-8.6,1.3-13.4C400.9,465.5,401.9,460.5,398.6,455.3z"/>
		</g>
		<g>
			<path class="st9" d="M417.8,247.4c-15.4-9.9-32.3-15.1-50.5-16.2c-19.6-1.2-39.5,0-58.9,2.9c-0.3,0.8-0.9,1.6-1.6,2.1
				c0.2,0.2,0.5,0.3,0.9,0.2c17.3-2.7,34.7-3.6,52.1-3.3c17.5,0.4,34.2,3.4,49.7,11.9c26.3,14.4,44.9,38.9,60.5,63.9
				c0.6-0.5,1.2-0.8,2-1C457.8,284.7,440.6,262.1,417.8,247.4z"/>
			<path class="st9" d="M455.2,552.9c42.2-36.4,62.3-94.1,54.7-148.9c-4.1-30.1-16.8-59.7-31.9-85.9c-0.6-1-1.2-2.1-1.8-3.1
				c-0.4,0.6-1,1-1.8,1.3c14.3,24.1,26.1,50.8,31.6,78.2c5.4,26.8,3.9,54.9-3.9,81.1c-8.8,29.6-25.7,56.4-49.2,76.5
				c-0.3,0.2-0.4,0.5-0.4,0.8L455.2,552.9L455.2,552.9z"/>
		</g>
		<g>
			<path class="st6" d="M200.5,216.2c11.5,23.1,37.6,36.3,62.8,36.1c27.9-0.2,52.6-18.1,68.9-39.5c10.1-13.2,17.2-28.6,17.9-45.4
				c0.1-1.4-2.1-1.4-2.2,0c-1.1,27.7-20.5,53.2-42.7,68.5c-21.9,15.1-49,18.7-73.3,7.3c-12.6-5.9-23.3-15.5-29.5-28
				C201.7,213.9,199.9,215,200.5,216.2L200.5,216.2z"/>
		</g>
		<g>
			<path class="st10" d="M239.1,80.7c4-10.9,14.6-16.3,24.6-21c1.1-0.5,0.4-1.9-0.5-2c-12-1.3-23.8,1.7-33.4,9.1
				c0.5,0.3,1.1,0.6,1.6,0.9c0.3-23.1,7-45.8,20.6-64.5c0.6-0.8-0.4-1.7-1.2-1.6c-44.2,7.1-72.1,45.6-88.6,84.1
				c0.7,0.1,1.3,0.2,2,0.3c-5.2-12.4-6.4-26.1-2.4-39c0.3-1.1-1-1.7-1.8-1c-20.1,17.2-24.7,48.8-5,68.3c0.1-0.6,0.1-1.1,0.2-1.7
				c-19.5,9-32.7,27.4-37.1,48.2c-0.2,1,1,1.8,1.8,1c10.5-10.3,23.4-17.3,37.8-20.3c1.4-0.3,0.8-2.4-0.6-2.1
				c-14.7,3.1-28.1,10.3-38.8,20.9c0.6,0.3,1.2,0.7,1.8,1c4.3-20.3,17-38.2,36.1-46.9c0.6-0.3,0.7-1.2,0.2-1.7
				c-18.9-18.8-14.2-48.8,5-65.3c-0.6-0.3-1.2-0.7-1.8-1c-4.1,13.3-2.9,27.4,2.4,40.2c0.3,0.7,1.6,1.2,2,0.3
				c16.3-38.1,43.6-76.1,87.3-83.1c-0.4-0.5-0.8-1.1-1.2-1.6c-13.8,19.1-20.5,42.2-20.9,65.6c0,0.7,1,1.4,1.6,0.9
				c9.3-7.2,20.6-10.1,32.3-8.8c-0.2-0.7-0.4-1.3-0.5-2C252,62.8,241.3,68.6,237,80.2C236.6,81.4,238.7,82,239.1,80.7L239.1,80.7z"
				/>
		</g>
		<g>
			<path class="st10" d="M157.5,140c-14.1,16.7-18.8,39.8-12.3,60.6c0.3,1.1,1.7,1,2.1,0c2.8-7.2,7.7-12.9,14.2-16.9
				c-0.5-0.3-1.1-0.6-1.6-0.9c0.3,8.7,2.7,17,7.2,24.5c0.5,0.8,1.7,0.6,2-0.3c1.2-4.6,3.5-8.4,7-11.7c1-1-0.5-2.5-1.5-1.5
				c-3.7,3.5-6.2,7.7-7.5,12.6c0.7-0.1,1.3-0.2,2-0.3c-4.3-7.2-6.6-15-6.9-23.4c0-0.8-0.9-1.4-1.6-0.9c-7.1,4.3-12.2,10.5-15.2,18.2
				c0.7,0,1.4,0,2.1,0c-6.2-20.1-1.8-42.4,11.8-58.6C159.9,140.5,158.3,139,157.5,140L157.5,140z"/>
		</g>
		<g>
			<path class="st6" d="M181.7,183c7.4,5.6,14.8,11.1,22.2,16.7"/>
			<g>
				<path class="st6" d="M180.6,184.9c7.4,5.6,14.8,11.1,22.2,16.7c2.2,1.7,4.4-2.1,2.2-3.7c-7.4-5.6-14.8-11.1-22.2-16.7
					C180.6,179.5,178.4,183.2,180.6,184.9L180.6,184.9z"/>
			</g>
		</g>
		<g>
			<path class="st6" d="M195.2,204.5c-2.1-9.4-4.4-18.8-7.1-28.2"/>
			<g>
				<path class="st6" d="M197.3,204c-2.1-9.5-4.5-18.9-7.1-28.2c-0.8-2.7-4.9-1.5-4.2,1.1c2.7,9.3,5,18.7,7.1,28.2
					C193.8,207.8,197.9,206.7,197.3,204L197.3,204z"/>
			</g>
		</g>
		<g>
			<path class="st10" d="M315.8,94.5C277.3,59.8,214.6,77.9,190,120.2c-7.8,13.4-11.9,28.8-9.9,44.3c0.2,1.4,2.3,1.4,2.2,0
				c-3.4-26.2,11-52.8,31.7-68.2c18.3-13.6,42.3-20.6,65-17c13.2,2.1,25.4,7.9,35.3,16.8C315.3,97,316.8,95.4,315.8,94.5L315.8,94.5
				z"/>
		</g>
		<g>
			<path class="st10" d="M324.3,90.5c-15.8-0.5-25.6,17.7-27.7,31.2c-2.5,15.5,2.6,31.6,14.1,42.5c5.4,5.2,12.3,9.3,19.7,10.6
				c8.1,1.5,15.9-2.3,22.2-7.2c13-10.2,13.2-32.4,9.1-47c-4.6-16.6-19.1-32.3-37.6-30.2c-2.7,0.3-2.8,4.6,0,4.3
				c13.8-1.6,25.6,8.1,31.1,20.2c5.7,12.5,6.8,31.3-0.2,43.6c-3.4,6-11.5,11.2-18.3,12.2c-7.1,1.1-14.7-2.8-20.1-7.1
				c-10.4-8.2-16.4-21.2-16.3-34.3s7.9-34.9,24.1-34.5C327,94.9,327,90.6,324.3,90.5L324.3,90.5z"/>
		</g>
		<g>
			<path class="st11" d="M295.4,151.2c8.4,5.4,15.6,12.6,20.8,21.2c2.7,4.5,5.2,9.6,4.9,14.9c-0.3,5.8-4.6,11.2-10.8,10.7
				c-2.1-0.2-2.1,3,0,3.2c5,0.4,9.4-2.3,11.9-6.5c3.1-5.2,2.4-11.6,0.3-17c-4.7-12.1-14.6-22.3-25.4-29.2
				C295.3,147.3,293.7,150.1,295.4,151.2L295.4,151.2z"/>
		</g>
		<g>
			<path class="st10" d="M276.7,150.9c4.7-7.1,12.7-9.8,20.9-7.5c2.7,0.8,3.8-3.4,1.1-4.2c-10-2.9-20,0.8-25.7,9.4
				C271.5,151,275.2,153.2,276.7,150.9L276.7,150.9z"/>
		</g>
		<g>
			<path class="st10" d="M196,155.1c-9.2,2.5-17.9,6.1-26.6,9.9c-3.3,1.4-5.5,1.9-5.9,5.7c-0.5,4.3,0.2,8.8,1.4,12.9
				c0.8,2.7,4.9,1.5,4.2-1.1c-0.8-2.9-2.4-7.9-1.3-11c0.6-1.7,1.3-1.6,3.1-2.4c1.9-0.8,3.7-1.6,5.6-2.4c6.8-2.8,13.6-5.4,20.7-7.4
				C199.8,158.5,198.7,154.4,196,155.1L196,155.1z"/>
		</g>
		<g>
			<path class="st11" d="M200.6,172c-1.6-3.9-4.6-9.5-9-10.7c-4-1.1-9,1.8-11.8,4.4c-7.8,7.2-8.8,18.8-5.4,28.4
				c3.4,9.8,11.9,20.9,22.8,22.6c9.4,1.4,16.1-6.7,16.3-15.5c0-1.4-2.1-1.4-2.2,0c-0.1,8.8-7.3,15.6-16.2,12.8
				c-8.3-2.6-14.8-10.9-18-18.7c-3-7.4-3.6-16.1,0.4-23.2c1.9-3.3,4.7-6.1,8.2-7.6c3.2-1.4,5.9-1.2,8.7,1.4c1.9,1.8,3.2,4.4,4.2,6.7
				C199.1,173.8,201.1,173.3,200.6,172L200.6,172z"/>
		</g>
		<g>
			<path class="st10" d="M231.1,116.3c-17.5-0.5-30.4,17.1-33,32.9c-2.8,16.7,4.4,33.1,17.5,43.5c6.6,5.3,14.6,9.2,23,10.5
				c9.1,1.4,18.1-2,25.6-7.1c15.4-10.2,16.6-34.2,10.9-50.2c-6.5-18.3-24.5-31.6-44.2-29.6c-2.7,0.3-2.8,4.6,0,4.3
				c15.2-1.5,29.8,6.8,37.1,20c3.9,7,5.7,15,5.7,23c0,8.1-1.4,18.3-6.9,24.6c-5,5.7-14.5,10.5-22.1,11c-7.8,0.5-16-2.9-22.4-7
				c-12.1-7.8-20.6-21.2-20.5-35.8c0.1-15.7,11.4-36.3,29.3-35.8C233.9,120.7,233.9,116.4,231.1,116.3L231.1,116.3z"/>
		</g>
		<g>
			<path class="st10" d="M223.8,112.3c14.1,5.2,29.8,5.2,43.9,0c6.5-2.4,12.5-5.9,17.9-10.3c3.8-3.1,7.5-6.6,12.4-8
				c4.8-1.4,9.7-0.9,14.3,1c1.3,0.5,1.8-1.6,0.6-2.1c-6.6-2.7-13.9-2.5-20.1,1c-7,3.9-12.4,10.1-19.7,13.7
				c-15,7.5-32.9,8.4-48.6,2.6C223.1,109.7,222.5,111.8,223.8,112.3L223.8,112.3z"/>
		</g>
		<g>
			<path class="st10" d="M223.5,111.4c-0.1,2.6-1,5.1-2.6,7.1c-0.9,1.1,0.7,2.6,1.5,1.5c2-2.5,3.1-5.4,3.2-8.7
				C225.7,110.1,223.6,110.1,223.5,111.4L223.5,111.4z"/>
		</g>
		<g>
			<path class="st6" d="M286.7,247.1c-1.1,3.3-2.3,6.6-3.4,9.9c-0.5,1.3,1.6,1.9,2.1,0.6c1.1-3.3,2.3-6.6,3.4-9.9
				C289.2,246.3,287.1,245.8,286.7,247.1L286.7,247.1z"/>
		</g>
		<g>
			<path class="st6" d="M199.2,217.2c-0.8,9.5-1.6,19-2.4,28.4c-0.1,1.4,2,1.4,2.2,0c0.8-9.5,1.6-19,2.4-28.4
				C201.5,215.8,199.3,215.9,199.2,217.2L199.2,217.2z"/>
		</g>
		<g>
			<path class="st6" d="M197.2,247.2c14,13.3,32,21.5,51.1,24.3c8.8,1.3,18.5,1.9,27.3,0.2c6-1.2,15-7.3,10-14.2
				c-0.8-1.1-2.7,0-1.9,1.1c4.1,5.7-4.2,10.2-8.7,11c-3.9,0.7-8,0.8-12,0.8c-7.9,0-15.9-1-23.6-2.8c-15.2-3.7-29.3-11.1-40.7-21.9
				C197.7,244.7,196.2,246.2,197.2,247.2L197.2,247.2z"/>
		</g>
		<g>
			<path class="st10" d="M216.9,155.4c-4.8,6.2-8.9,13-12.9,19.8c-0.7,1.2,1.2,2.3,1.9,1.1c3.9-6.6,7.9-13.3,12.6-19.4
				C219.2,155.9,217.7,154.3,216.9,155.4L216.9,155.4z"/>
		</g>
		<g>
			<path class="st10" d="M226,162.2c-4.9,7.1-9.5,14.5-13.6,22.2c-0.7,1.2,1.2,2.3,1.9,1.1c4.1-7.6,8.7-15,13.6-22.2
				C228.6,162.1,226.8,161,226,162.2L226,162.2z"/>
		</g>
		<g>
			<path class="st10" d="M315.5,130c-4.8,6.2-8.9,13-12.9,19.8c-0.7,1.2,1.2,2.3,1.9,1.1c3.9-6.6,7.9-13.3,12.6-19.4
				C317.8,130.4,316.3,128.9,315.5,130L315.5,130z"/>
		</g>
		<g>
			<path class="st10" d="M324.6,136.7c-4.9,7.1-9.5,14.5-13.6,22.2c-0.7,1.2,1.2,2.3,1.9,1.1c4.1-7.6,8.7-15,13.6-22.2
				C327.2,136.6,325.4,135.6,324.6,136.7L324.6,136.7z"/>
		</g>
		<g>
			<path class="st10" d="M231.2,221.9c18.2,10.4,40.5,11.2,59.4,2.1c1.9-0.9,0.2-3.7-1.6-2.8c-17.8,8.5-39,7.7-56.1-2.1
				C231,218.1,229.4,220.9,231.2,221.9L231.2,221.9z"/>
		</g>
		<g>
			<path class="st10" d="M303.6,104.2c-6.5,3.7-13.1,7.9-14.1,15.9c-0.3,2.1,3,2,3.2,0c0.8-6.6,7.3-10.1,12.5-13.1
				C307,105.9,305.4,103.2,303.6,104.2L303.6,104.2z"/>
		</g>
		<g>
			<path class="st10" d="M260.5,128.3c2.3-1.2,4.8-1.5,7.4-0.9c2,0.5,2.9-2.6,0.9-3.1c-3.4-0.9-6.8-0.4-9.9,1.2
				C257,126.5,258.7,129.3,260.5,128.3L260.5,128.3z"/>
		</g>
		<g>
			<path class="st3" d="M222.6,389.3c6.9-3,13.8-5.8,21.4-4c5.6,1.3,11.1,4.1,15.8,7.5c9.4,6.7,16.3,17.1,17,28.8
				c0.7,12.1-5.3,23-16,28.7c-11.4,6-24.8,5.6-37.3,5.2c-2.1-0.1-2.1,3.2,0,3.2c14.3,0.4,30,0.7,42.3-7.7
				c10.5-7.1,15.4-19.5,13.9-32c-1.5-12.4-9.3-22.9-19.4-29.7c-5.4-3.7-12-6.8-18.5-7.6c-7.4-0.9-14.2,2-20.9,4.9
				C219.1,387.3,220.7,390.1,222.6,389.3L222.6,389.3z"/>
		</g>
		<g>
			<path class="st3" d="M386,408.7c0.4-0.4,0.8-0.8,1.4-1c-2.4-12.2-11.4-21.3-22.2-26.9c-13.2-6.9-26.4-5.3-38.9,2.5
				c-1.8,1.1-0.1,3.9,1.6,2.8c5.6-3.5,11.8-6.3,18.5-6.7c6.6-0.4,12.5,1.7,18.2,4.8c9.8,5.4,17.8,13.7,19.8,25.1
				c0.1,0.5,0.3,0.8,0.6,0.9C385.2,409.6,385.6,409.1,386,408.7z"/>
		</g>
		<g>
			<g>
				<path class="st9" d="M277.8,466.6c0.1-0.6,0.1-1.3,0.2-1.9c-33.3,16-69.4,27.7-106.7,27c-10.4-0.2-20.9-1.2-31-3.6
					c-3.8-0.9-7.5-2-10.9-4c-4.5-2.6-7.3-6.3-10.3-10.5c-9.9-13.8-16.6-29-14.8-46.4c2.3-22,14-41.7,24.8-60.5
					c0.8-1-1.1-2.1-1.8-0.9c-10.1,17.6-20.8,35.8-24.3,56.1c-2.9,17.1,1.2,32.8,10.4,47.2c4.6,7.1,9.3,14.4,17.2,18.1
					c8.3,3.9,18,5,27,5.9c21.1,2.1,42.4,0.1,62.9-4.9c19.8-4.8,38.9-12.2,57.3-21C277.7,467,277.7,466.8,277.8,466.6z"/>
				<path class="st9" d="M277.7,466.7c-20.3,9.7-39.1,16.7-57.4,21c-21.5,5.2-42.6,6.9-62.7,4.9c-10-1-18.9-2.1-26.8-5.9
					c-7.7-3.6-12.4-10.8-16.9-17.8l-0.1-0.1c-9.6-15-13.1-30.8-10.3-46.8c3.4-19.6,13.5-37.3,23.3-54.4l0.9-1.6
					c0.1-0.2,0.3-0.3,0.5-0.3c0.3,0,0.5,0.2,0.6,0.3c0,0.1,0,0.1-0.1,0.3l-1.1,1.9c-10.6,18.4-21.5,37.4-23.7,58.8
					c-1.6,15.5,3.1,30.3,14.9,46.7c3.2,4.4,6,8,10.5,10.6c3.6,2.1,7.6,3.2,11,4.1c9.3,2.2,19.5,3.4,31.1,3.6
					c32.7,0.5,67.6-8.3,106.6-26.9c0-0.4,0,0,0-0.4c-39.1,18.8-73.9,26.9-106.6,26.3c-11.6-0.2-21.7-1.4-30.9-3.6
					c-3.4-0.8-7.3-1.9-10.8-3.9c-4.3-2.5-7-6-10.1-10.4c-11.6-16.2-16.3-30.8-14.7-46.1c2.2-21.1,13.1-40.1,23.6-58.4l1.1-1.9
					c0.3-0.4,0.4-0.9,0.2-1.3c-0.2-0.5-0.8-0.9-1.4-0.9c-0.6,0-1.1,0.2-1.4,0.8l-0.9,1.6c-9.9,17.2-20.1,34.9-23.5,54.7
					c-2.8,16.3,0.8,32.3,10.5,47.6l0.1,0.1c4.6,7.1,9.3,14.4,17.3,18.2c8.7,4.1,19.4,5.2,27.2,5.9c5.6,0.6,11.2,0.8,16.9,0.8
					c15,0,30.5-1.9,46.2-5.7c18.2-4.4,37-11.3,57.2-20.9C277.8,467.4,277.7,467,277.7,466.7z"/>
			</g>
		</g>
		<path class="st2" d="M286.3,460.7c-2.9,1.5-5.8,2.9-8.7,4.3c0.1,0.8,0.1,1.5,0.2,2.3c3.2-1.5,6.4-3.1,9.6-4.7
			C288.6,461.9,287.5,460.1,286.3,460.7z"/>
		<g>
			<path class="st6" d="M287.7,461.7c10.3-9.6,23.1-16.4,36.9-19.3c12.9-2.7,27.7-1.7,37.6,7.9c1,1,2.5-0.6,1.5-1.5
				c-21.6-20.9-58.9-5.9-77.5,11.5C285.1,461.2,286.7,462.7,287.7,461.7L287.7,461.7z"/>
		</g>
		<g>
			<path class="st9" d="M404.1,401.9c8.5,21.7,11.1,51.8-2.5,72.1c-0.8,1.2,1.1,2.2,1.9,1.1c13.9-20.7,11.4-51.5,2.7-73.7
				C405.7,400.1,403.6,400.6,404.1,401.9L404.1,401.9z"/>
		</g>
		<g>
			<path class="st9" d="M409.5,553.1h2c0-0.1,0.1-0.2,0.1-0.4c-3.6-45.1-10.1-89.9-17.7-134.5c-0.4-1.4-2.4-0.8-2.2,0.5
				c7.6,44.4,14,89,17.7,134C409.4,552.8,409.5,553,409.5,553.1z"/>
		</g>
		<path class="st4" d="M361.2,441l-9.3,11.9c0,0,12-5.6,16-6.3s2.3-5.5,2.3-5.5L361.2,441z"/>
		<g>
			<path class="st3" d="M385.7,428.1c-0.1,6.3-4.4,10.8-9.7,13.3c-0.3,1.2-1,2.3-2.1,3c0.3,0.6,0.9,1,1.8,0.6
				c7.2-3,13.1-8.7,13.2-17C389,426,385.7,426,385.7,428.1z"/>
		</g>
		<g>
			<path class="st10" d="M351.5,454c39.7-51,81.1-100.7,124.2-148.9c12-13.4,24-26.6,36.3-39.7c-0.6-0.4-1.1-0.9-1.7-1.3
				c-29.2,50.3-74.8,88.5-107.1,136.6c-10.1,15.1-19.7,30.5-31.1,44.7c-0.9,1.1,0.7,2.6,1.5,1.5c19.4-24,34.3-51.3,53.8-75.3
				c18.4-22.7,38.7-43.8,57-66.6c10.2-12.7,19.7-25.8,27.8-39.9c0.6-1-0.8-2.2-1.7-1.3c-44.2,47.2-86.4,96.3-127.1,146.5
				c-11.3,13.9-22.4,28-33.4,42.1C349.2,453.6,350.7,455.1,351.5,454L351.5,454z"/>
		</g>
		<path class="st2" d="M398.6,455.3c-2.9-4.6-7.8-7.7-13-8.9c-6.8-1.5-14.9-0.9-21.5,1.3c-7.3,2.5-14.1,6.4-21.3,9.1
			c-7.9,2.9-16,5.3-24.3,7.2c-1.3,0.3-0.8,2.4,0.6,2.1c14.6-3.5,28.3-8.6,42-14.8c7.4-3.3,16.8-4.6,24.7-2.6
			c7.2,1.9,14.3,8.5,12.8,16.6c-0.6,3-2.1,5.7-3,8.5s-0.9,5.4-0.5,8.3c1,7.7,0.9,15-1.9,22.3c-5.6,15.2-19.7,23.3-33,31.1
			c-12.7,7.5-25.7,14.4-39.1,20.5c0.6,0.3,1.2,0.7,1.8,1c0.1,0,0.1,0.1,0.2,0.1c0.2,0,0.3,0.1,0.5,0.2c11.4-5.3,22.6-11.2,33.5-17.5
			c12.4-7.2,26.7-14.4,34.4-27c3.5-5.7,5.7-12.3,6.3-19c0.3-3.1,0.2-6.2-0.2-9.4c-0.6-5.1-0.6-8.6,1.3-13.4
			C400.9,465.5,401.9,460.5,398.6,455.3z"/>
	</g>
</g>
</svg>
