<svg xmlns="http://www.w3.org/2000/svg" viewBox="0 0 2045.88 447.48"><defs><style>.\35 0895251-e081-470c-a1c4-297ea807c415{fill:#e6332a;}.\39 fc03f71-663c-493a-a258-4e5677355a1a{fill:#fff;}</style></defs><title>Fichier 1</title><g id="6a6b490f-44ef-4f42-9af5-3c3d712b71fb" data-name="Calque 2"><g id="e999d78e-aa3e-470b-9521-f88a59466fdb" data-name="Calque 1"><polygon class="50895251-e081-470c-a1c4-297ea807c415" points="1592.94 248.03 1539.68 249.29 1547.62 301.96 1579.51 334.29 1581.42 306.29 1592.94 248.03"/><path class="9fc03f71-663c-493a-a258-4e5677355a1a" d="M1760.52,107.21c-1.51.53-.86,3,.66,2.41,18.26-6.39,35,12.35,26.11,29.74-.73,1.43,1.43,2.7,2.16,1.26C1799.28,121.45,1781,100,1760.52,107.21Z"/><path class="9fc03f71-663c-493a-a258-4e5677355a1a" d="M1779.28,44c-2.34-.59-3.34,3-1,3.62a32.13,32.13,0,0,1,24.42,27.66c.28,2.36,4,2.39,3.75,0C1804.66,59.9,1794.3,47.77,1779.28,44Z"/><path class="9fc03f71-663c-493a-a258-4e5677355a1a" d="M1823.28,140.11a82.17,82.17,0,0,1,6.68-6q.38,4.13.52,8.28c.11,3.21,5.11,3.22,5,0q-.21-5.92-.86-11.79a87.94,87.94,0,0,1,10.23-6.18c2.86-1.47.34-5.79-2.52-4.32a90.39,90.39,0,0,0-8.42,4.93c-.42-2.92-.92-5.82-1.5-8.72-.64-3.16-5.46-1.82-4.82,1.33q1.07,5.3,1.73,10.62a87.72,87.72,0,0,0-9.57,8.33C1817.47,138.86,1821,142.4,1823.28,140.11Z"/><path class="9fc03f71-663c-493a-a258-4e5677355a1a" d="M1776,87.69a10.48,10.48,0,1,0-10.48-10.48A10.49,10.49,0,0,0,1776,87.69Z"/><path class="9fc03f71-663c-493a-a258-4e5677355a1a" d="M2045.83,442.22c-3.81-20.68-7.46-41.48-13.62-61.63a208.84,208.84,0,0,0-25.76-54.77,190.41,190.41,0,0,0-19.62-24.76c-3.71-9.3-8.07-18.35-12.54-27.29-11.94-23.85-27.31-45.76-48.44-62.33-19.08-14.95-41.11-25.24-64.34-31.8,19.32-11.92,28.18-34.67,30-56.49.16-1.93.24-3.87.3-5.81,6.08,12.28,8.59,26,5.5,39.54-.27,1.15,1.2,2.19,2.09,1.22a108.39,108.39,0,0,0,19.11-29.55,85.78,85.78,0,0,1,8.54,28.22,1.25,1.25,0,0,0,2.45.33,95,95,0,0,0,2.91-46.94,29.93,29.93,0,0,1,7,6.58c.81,1.05,2.7.52,2.29-1a67.47,67.47,0,0,0-7.37-17.33,49,49,0,0,1-2.82-4.21c-1.6-3.49-.31-5.18.68-8a54.39,54.39,0,0,0,2.36-9.57,57,57,0,0,0-5.68-34.5,1.27,1.27,0,0,0-2.29.3l-5.67,16.24A75.56,75.56,0,0,0,1881.05.14a1.26,1.26,0,0,0-1.83,1.41,95.74,95.74,0,0,1,3.48,44.28,48.92,48.92,0,0,0-17.93-22.15,1.26,1.26,0,0,0-1.84,1.41,96.44,96.44,0,0,1,5.81,23.15,53.88,53.88,0,0,0-21.68-16.08c-11-4.39-23.15-5.54-34.94-5.49a117.73,117.73,0,0,0-38.72,6.74c-12.14,4.3-23.28,11.84-33.45,19.6s-22.23,17.15-27.61,29.32c-2.09,4.74-3.1,10.75.17,15.21a9.62,9.62,0,0,0,8.2,4.08c-4.78,12.87-4.69,25.08-1.16,38.57s9.49,26.15,18.92,36.48A126.61,126.61,0,0,0,1710.74,191c-4.56,3-9,6.23-13.41,9.55a6.78,6.78,0,0,0-3.23-5.61c2-7.14,2.26-14.46-2.1-20.88a1.29,1.29,0,0,0-.42-.39c2.54-3.5,4.94-7.58,4.23-11.43-.68-3.67-4.18-5.88-7.65-6.43-5.87-.95-11,2.79-16.2,5,0-.24,0-.48-.08-.72-1.22-7.66-16.6-.73-20.36,1-11.35,5.09-20.6,13.7-28.12,23.47-2.69,3.49-5.36,7.19-7.9,11a187.81,187.81,0,0,0-217.63,56.64c-7.64,1.22-15.21,2.76-22.65,4.57l-.68.17c-16.39-32.16-50.27-53.27-85.29-61.57-25-5.92-51.06-6.6-76.55-4.79S1161.45,197.34,1138,208c-23.24,10.57-43.9,26.85-58,48.29a181.34,181.34,0,0,0-47-7.22,114.84,114.84,0,0,0-30.84-32c-24.6-17.4-54.76-24.81-84.47-26.81-58.37-3.92-120.71,7.82-163.8,50-9.82,9.61-18.47,20.76-23.89,33.46-3.84,9-5.34,18.4-5.8,27.94a168.81,168.81,0,0,0-35.77-29.32c-7.89-26-27.12-47.28-50.37-60.94-29.56-17.38-64.86-22.16-98.64-21.67-34.16.48-69.29,5.62-100,21.38-25,12.82-49.57,32.28-62.45,57.75-7.86,15.53-9.14,33.49-11.29,50.51-1.42,11.24-2.53,22.53-3.16,33.85a204,204,0,0,0-15.3-27.36c-1.79-2.69-3.66-5.34-5.58-7.93-2.71-29.54-15.58-57.95-34.95-80.32-23.57-27.22-56.08-41.19-91.36-45.84C176.23,186.57,133.23,189.36,96,203c-29.41,10.76-58.08,30.33-75.59,56.66A81.18,81.18,0,0,0,9.56,282.72c-2.82,10.18-3.78,21.11-5.17,31.56-3,22.5-5,45.21-4.21,67.93.08,2.41,3.83,2.42,3.75,0-.68-19.17.65-38.34,2.88-57.38,2-17.24,3-36.32,10.52-52.24,13-27.62,40.43-48.34,67.52-61,34.37-16,74.56-19.83,112.06-17.83,35.4,1.88,71.07,11.48,97.44,36.26,22.79,21.4,38.58,51,42.93,82.09-20.84-26-48.14-46.06-80.56-55.77-36.58-11-76.49-8.67-113.25.31-16.43,4-32.51,10-46.81,19.17C81.32,285.64,69,298.74,58.83,313.79c-24.49,36.44-40.68,81.33-40.92,125.47a1.87,1.87,0,0,0,2.82,1.58,1.88,1.88,0,0,0,.88.21c94.68.42,189.23,3.39,283.86,6,26.5.74,53,.69,79.4-2.49a1.92,1.92,0,0,0,1.81-2.38c-3.82-20.68-7.46-41.48-13.63-61.63q-3.07-10-7.07-19.66c.34-9.9,1.1-19.8,2.14-29.66,1-9.27,2.19-18.51,3.56-27.72,1.09-7.29,1.91-14.73,4.1-21.79,8.37-27,32.24-47.88,55.74-62C459.52,203,491.78,196,524.1,194c33.82-2,69.28.29,100.48,14.55,26.37,12,49.19,33.45,59,60.89a152,152,0,0,0-30.79-13.07c-36.58-11-76.5-8.67-113.25.31-16.44,4-32.51,10-46.81,19.17-15.34,9.79-27.71,22.89-37.83,37.94C430.4,350.23,414.21,395.12,414,439.26a1.87,1.87,0,0,0,2.82,1.58,1.85,1.85,0,0,0,.88.21c94.68.42,189.23,3.39,283.86,6,26.5.74,53.05.69,79.4-2.49a1.93,1.93,0,0,0,1.81-2.38c-3.82-20.68-7.46-41.48-13.63-61.63a208.84,208.84,0,0,0-25.76-54.77,193,193,0,0,0-15.55-20.3c.14-8.73,1-17.41,3.88-25.71,4.06-11.84,11.34-22.43,19.74-31.6,16.79-18.34,38.7-32.63,62-41.28,28.91-10.76,60.39-14,91.08-13.48C934,194,964.3,199,990.19,213.84A114.09,114.09,0,0,1,1028.53,249a255.12,255.12,0,0,0-61.6,7.65c-16.43,4-32.51,10-46.81,19.17-15.34,9.79-27.71,22.89-37.83,37.94-24.49,36.44-40.68,81.33-40.92,125.47a7.53,7.53,0,0,0,3.7,1.79c94.68.42,189.23,3.39,283.86,6,26.5.74,53,.69,79.4-2.49a1.93,1.93,0,0,0,1.81-2.38c-3.82-20.68-7.46-41.48-13.63-61.63a208.52,208.52,0,0,0-25.76-54.77c-21.08-31.62-50.73-56.49-87-68.34,26.53-39.77,73.83-57.71,119.8-62.44s97.82-1.56,136.22,27a106.61,106.61,0,0,1,31,35.77c-14.87,4-29.33,9.71-42.33,18-15.34,9.79-27.71,22.89-37.83,37.94-24.49,36.44-40.69,81.33-40.93,125.47a1.88,1.88,0,0,0,2.83,1.58,1.83,1.83,0,0,0,.87.21c94.69.42,189.23,3.39,283.87,6,26.49.74,53,.69,79.4-2.49a1.92,1.92,0,0,0,1.8-2.38c-3.46-18.79-6.8-37.68-12-56.09,2.67-41.72,19.1-82.53,37.53-119.72,6.67-13.45,13.59-26.67,24-37.62,9.45-9.9,20.49-18.39,31.37-26.65,10.46-7.93,21.44-15.41,33.53-20.65,13.63-5.89,28.17-7.87,42.9-8.52,47.8-2.12,98.39,6.44,138.78,33.39,22.08,14.73,39,34.85,51.88,57.94a343.38,343.38,0,0,1,15.27,31.56c-18.42-18.07-40.58-31.92-65.86-39.49-36.58-11-76.5-8.67-113.25.31-16.44,4-32.51,10-46.81,19.17-15.34,9.79-27.71,22.89-37.83,37.94-24.49,36.44-40.69,81.33-40.92,125.47a1.87,1.87,0,0,0,2.82,1.58,1.85,1.85,0,0,0,.88.21c94.68.42,189.23,3.39,283.86,6,26.49.74,53,.69,79.4-2.49A1.91,1.91,0,0,0,2045.83,442.22Zm-351-240.85a1.23,1.23,0,0,0,.17.9c-1.7,1.3-3.39,2.63-5.07,4,1.21-2.82,2.43-5.79,3.41-8.81A4.25,4.25,0,0,1,1694.83,201.37ZM1688,204.5a13.63,13.63,0,0,0-2-2.86c-1.86-2.07-5.19-2.08-7.72-.95a5.64,5.64,0,0,0-1.57-3.25,5.35,5.35,0,0,0-.55-.51,150.84,150.84,0,0,1,12.16-19c.53-.71,1.13-1.49,1.76-2.32C1695.79,184.49,1691.9,195.35,1688,204.5Zm-36.45,9.94a6.14,6.14,0,0,0-5.36-.28c-.64-4,2.27-7.16,6-8.35a11.81,11.81,0,0,1,4.63-.66c3.66.39,4.66,3.5,4.15,6.75a1.34,1.34,0,0,0,0,.28,1.37,1.37,0,0,0,1.51,1.74,15.87,15.87,0,0,1,3.26-.49c1.9.12,2.36,1.42,2.8,3,.63,2.22,1.36,8.32-2.82,7.54a1.26,1.26,0,0,0-1.27.5l0,0a1.43,1.43,0,0,0-.25,1.1c-.24,4.65-5.25,9.17-9.43,5.18a1.27,1.27,0,0,0-.74-.35,24.35,24.35,0,0,0,1-5.19C1655.27,221.8,1654.81,216.49,1651.53,214.44Zm15.09,12,.42,0-.5.55C1666.56,226.77,1666.6,226.6,1666.62,226.43Zm4.14-11.46h0a6,6,0,0,0-2.32-3.37c-1.45-.91-3.21-.72-4.88-.42.31-6-3.78-9.38-10-8.26-.34.06-.68.14-1,.23-1.12-3.82,1.39-7.09,4.78-8.81,1.59-.81,4-1.77,5.73-.86s2.22,3.15,2.47,4.88a1.27,1.27,0,0,0,.11.36,1.07,1.07,0,0,0,1.7.57c2.07-1.54,4-2.33,6.46-1s2.89,4.46.5,6.11a1.17,1.17,0,0,0-.49,2A4.78,4.78,0,0,1,1670.76,215Zm21.45-54.57c2.59,3,0,7.27-1.72,10.06-5.29,8.6-11.76,16.24-16.48,25.22a8.39,8.39,0,0,0-2.45-.61,6.66,6.66,0,0,0-4.07,1.05c-1.36-4.72-5.39-6.55-10.35-4.47s-8.85,6.93-7,12.34c-4.35,2-7.41,6.13-6.26,11.22a26.35,26.35,0,0,0-2.56,1.65,121.83,121.83,0,0,1,14.2-30.59c3.31-5.07,7.35-9.32,11.15-14,1.92-2.35,4.25-5.51,5-8.78,4.2-1.58,8.07-4.31,12.51-5.13C1686.83,157.9,1690.31,158.16,1692.21,160.4Zm-149.77,75.46a1.56,1.56,0,0,0,2.44-1.48c-.63-1,.8-2.89,1.46-3.59a6.29,6.29,0,0,1,3.37-2c2.94-.59,5.88,1.64,4.9,4.78a1.08,1.08,0,0,0,.19,1.08,1.28,1.28,0,0,0,.73.69,9,9,0,0,1,5.09,5.29c.75,1.9,1.82,5.72-.65,6.81a1.1,1.1,0,0,0-.48.38l-19.38,1.34a1.3,1.3,0,0,0-.43.1c-3.35-.84-5.38-4.27-5.89-7.56C1533.15,237.59,1538.49,232.74,1542.44,235.86Zm4.35-8.83c-2.28-1.78-3.38-4.74-1.9-7.42,1.18-2.13,5.59-4.71,8-3.26l.22.1a1.34,1.34,0,0,0,1.9-1.43c-.67-3.4.83-6.6,4.29-7.43,2.53-.62,6.56-.19,8.24,2.14a1.34,1.34,0,0,0,2.36.4c.88-1.22,1.86-1.92,3.28-1a4.13,4.13,0,0,1,1.74,2.75c-6.65-1-16.32,2.65-14.48,10.28a7.86,7.86,0,0,0-3.39,1.15,6,6,0,0,0-2.42,4.15,7,7,0,0,0-5.3-1.16,8,8,0,0,0-2.37.9A1.34,1.34,0,0,0,1546.79,227Zm31-22.54.15.07a1.08,1.08,0,0,0,1.56-.13c2.59-2.92,9.15-2.71,9.45,2.11a1.31,1.31,0,0,0,.16.55,1.24,1.24,0,0,0,.8.87c1.07.4,2.25,1.21,1.86,2.46a10.35,10.35,0,0,0-2.69,1.79c-2.45-1.88-6.35-1.6-9.17-.74a8.74,8.74,0,0,0-2.34,1.13h0a1.69,1.69,0,0,0,0-.23,6.65,6.65,0,0,0-3.79-5.76,4.07,4.07,0,0,0-4.79.9,7.86,7.86,0,0,0-1.47-1.15C1569,202.55,1575,202.76,1577.77,204.49Zm12.43-5.23c.87-.2,2.47-.38,3.09.45a1.64,1.64,0,0,0,2.57-.63,5.17,5.17,0,0,1,4-3.53,3.61,3.61,0,0,1,4,2.73,1.12,1.12,0,0,0,.39.64,1.24,1.24,0,0,0,1.19.38,3.69,3.69,0,0,1,4.44,4.24,1.23,1.23,0,0,0,.16.88c-.15.26-.29.52-.43.78-4.72-1.7-11.43-.64-13.6,4.25a11,11,0,0,0-1.62.15,5.06,5.06,0,0,0-3-3.71,6.5,6.5,0,0,0-2.49-4.26C1588.75,200.49,1588.84,199.57,1590.2,199.26Zm9,18.54c-4.61,1.58-8.88,5.66-7.84,10.59a8.1,8.1,0,0,0-4.73,1.49,8.93,8.93,0,0,0-5.64-6.29c.15-2.55-1.44-4.35-3.71-5.33,0-.06,0-.11,0-.17-.16-2.51,1.9-3.9,4.13-4.41,1.7-.39,4.72-.74,6.16.47a1.31,1.31,0,0,0,2.37.78,7.86,7.86,0,0,1,6-3c3.34-.23,3.42,2.85,3.21,5.4A1.46,1.46,0,0,0,1599.15,217.8Zm-26.27,29.12-9.54.66c.94-1.94.62-4.61,0-6.59-.11-.38-.25-.73-.38-1.09a5.93,5.93,0,0,1,7.08.34A8.35,8.35,0,0,1,1572.88,246.92Zm-11.08,3.48,0-.21,11.33-.78,6.41,58.94q-.91,8-1.41,16.08-3.37-5-7-9.71Zm8.11-13.19a8.37,8.37,0,0,0-8,.45,11.55,11.55,0,0,0-4.65-4.24,5.74,5.74,0,0,0-.45-3.46,1.19,1.19,0,0,0,.12-.44c.16-1.65.35-3.52,2-4.32a9,9,0,0,1,5.69-.31,1.11,1.11,0,0,0,1.8-.67c.46-2.91,2.85-4.36,5.71-4.38,2.19,0,7.06.87,6.26,4.2a1.23,1.23,0,0,0,0,.57,1,1,0,0,0,.9,1.12c2.22.36,5.51,3.17,4.82,5.67a1.17,1.17,0,0,0,0,.32c-2.29-1.8-5.7-2.19-8.55-1.84C1571.46,230.36,1570.25,233.69,1569.91,237.21Zm5.74-22.67a5.68,5.68,0,0,0-.92,3c-4.11-.65-9,.83-10.41,4.75-.41-.07-.82-.12-1.24-.15C1561.12,215.69,1570.76,213.05,1575.65,214.54Zm-34.11,37.05,9.37-.65,6.9,48.42q-5.25-5.44-10.93-10.4-2.93-18.52-5.84-37A.94.94,0,0,0,1541.54,251.59Zm45.07,17.93-2.69-20.86,9-.63q-1.14,3.39-2.21,6.8Q1588.48,262.12,1586.61,269.52Zm7.19-24-18.42,1.28a11.1,11.1,0,0,0-3.21-8,1.23,1.23,0,0,0,.16-.56c.18-3.27.88-5.92,4.72-5.88,2.65,0,5.52.4,6.74,3.07a1,1,0,0,0,.73.62,1.1,1.1,0,0,0,1.61-.78c1.24-6.08,9.15-5.25,11.74-.61-.18.49-.37,1-.56,1.47C1596.06,239.18,1594.9,242.32,1593.8,245.47Zm5.11-13.67a9.93,9.93,0,0,0-4.93-3.05,1.29,1.29,0,0,0,0-.19c-1.69-5.16,4.81-8.92,9.14-9C1601.63,223.64,1600.35,227.74,1598.91,231.8Zm5-14.51a1.18,1.18,0,0,0-.67-.2,10.27,10.27,0,0,0-1.64.11c.2-2.88-.28-6.29-3-7.39,1.8-3,6.66-3.42,9.82-2.4A94.37,94.37,0,0,0,1603.93,217.29Zm8.12-16.35a6.18,6.18,0,0,0-6.09-4.19,6.28,6.28,0,0,0-.61-1.11q4.08,1.41,8.09,3C1613,199.42,1612.51,200.18,1612.05,200.94Zm-53.58-15.1a184.75,184.75,0,0,1,39.87,7.51,7.87,7.87,0,0,0-4.34,3.87,6.44,6.44,0,0,0-4.47-.37,3.83,3.83,0,0,0-3.14,3.55,8.58,8.58,0,0,0-8,1.59c-4.22-2.13-11.31-1.5-13.22,3.36a12.69,12.69,0,0,0-7.33.05c-3.65,1.22-5.43,4.6-5.43,8.17-3.33-.58-7.6,1.58-9.32,4.17a8.19,8.19,0,0,0,1.8,11,7.58,7.58,0,0,0-2.69,4.31,8.7,8.7,0,0,0-10.91,5.79c-1.35,5.1,2.38,10.89,7.16,12.66a1.15,1.15,0,0,0,0,.19l5.49,34.83a156.75,156.75,0,0,0-55.49-30.11c-27.4-8.21-56.68-9-85.1-5.08C1441.25,206.3,1499.35,181.38,1558.47,185.84Zm46,193.73a208.53,208.53,0,0,0-24-51.64,293.7,293.7,0,0,1,6.93-50.82,283.35,283.35,0,0,1,10.48-35.54c4.36-11.75,8-24,14.2-34.9,1.34-2.38,2.74-4.78,4.2-7.17a1.83,1.83,0,0,0,1.26-2c10.79-17.22,25-33.55,45.64-37.66,2.12-.42,5.42-1.93,6.27,1.36.42,1.61-1.36,4.66-2.15,6-1.67,2.89-4.14,5.28-6.32,7.76a92.31,92.31,0,0,0-9.33,12.74,129.06,129.06,0,0,0-13.81,32.06c-6.89,6.64-11.57,16.56-15.34,24.9-5.2,11.5-8.19,23.85-6.58,36.5.2,1.57,2.71,1.59,2.5,0-2.51-19.72,6.44-41.44,18.68-56.72a29.84,29.84,0,0,1,5.08-5.09c2.7-2.05,7.47-3.9,9.59-.36,3,5-.78,13-2.85,17.57-3.84,8.53-6.43,16.94-6.79,26.36a1.13,1.13,0,0,0,.14.63A398.52,398.52,0,0,0,1612.51,338,234.79,234.79,0,0,0,1604.48,379.57Zm40.46-121.12a60.69,60.69,0,0,1,5-18.18c1.12-2.51,2.33-5,3.3-7.57a7.88,7.88,0,0,0,6.76,1.8,107.31,107.31,0,0,0-8.81,12.83Q1648,252.8,1644.94,258.45Zm26.11-36.09a11.46,11.46,0,0,0,.23-4.94,7.27,7.27,0,0,0,5.21-11.7,6.6,6.6,0,0,0,1.26-1.82,1.53,1.53,0,0,0,.26-.16c1.73-1.32,4.73-1.9,6.3-.21,1.35,1.45,2.76,3.78,1.43,5.61a1.13,1.13,0,0,0-.22.66q-3.33,2.7-6.58,5.45Q1674.85,218.7,1671.05,222.36ZM1866.71,28.23A46.21,46.21,0,0,1,1881.89,51a1.26,1.26,0,0,0,2.41,0,98.13,98.13,0,0,0-1.79-47.22,73,73,0,0,1,36.24,61.07,1.25,1.25,0,0,0,2.45.33l6.69-19.14A54,54,0,0,1,1930.22,84c-.74,2.38-2.33,4.84-2.41,7.35-.07,2.28,1.21,3.7,2.45,5.54a65.79,65.79,0,0,1,7.24,14.2,34,34,0,0,0-6.29-4.61,1.26,1.26,0,0,0-1.83,1.41,92.67,92.67,0,0,1-.76,43.15,89.12,89.12,0,0,0-9.14-26,1.27,1.27,0,0,0-2.29.3A104.83,104.83,0,0,1,1900.51,153c1.9-13.34-1.14-26.69-7.46-38.65a1.1,1.1,0,0,0-1.23-.6,107.65,107.65,0,0,0-18.33-59.19c-.61-.9-1.24-1.77-1.87-2.63A98.87,98.87,0,0,0,1866.71,28.23Zm-78.36,141.94c-13.32,0-26.88.59-39.9,3.58-2.5.58-5,1.26-7.39,2-9.25-9.77-15.11-21.8-18.68-34.7-3.85-13.92-4.2-26.72,1.27-40.18a1.32,1.32,0,0,0-.18-2.42,1,1,0,0,0-1.67.38l0,.07c-7.76,2.22-9.78-8.36-7.79-14,2.07-5.89,6.36-11,10.67-15.36A165.65,165.65,0,0,1,1751.23,48a113.39,113.39,0,0,1,24.25-12.29c7.58-1,15.41-1.16,22.7,1.47,8.11,2.93,12.86,8.63,16.85,16,5.1,9.43,12.3,16.27,22.86,17.15A36.29,36.29,0,0,0,1829,107a30.39,30.39,0,0,0-8.54,6.89c-1,1.21.71,3,1.77,1.76,5.15-5.92,15.09-12.45,22.3-5.45,5.74,5.59,5.25,16.72,2.89,23.67a29.51,29.51,0,0,1-15.65,17.35,26.71,26.71,0,0,1-11.19,2.67c-6.5-.14-9.09-6.45-9.21-12.15a1.25,1.25,0,0,0-2.5,0c.1,4.62,1.59,9.7,5.33,12.72,3.39,2.74,8,2.08,12,1.22A32.14,32.14,0,0,0,1849.27,136c3.21-8.35,3.94-22.37-4-28.52-4.42-3.41-9.38-3.38-14-1.6a33.8,33.8,0,0,1,9.85-35.18,1.13,1.13,0,0,0,.22-.27c1.59-.07,1.6-2.55,0-2.49A23.75,23.75,0,0,1,1820.08,57c-3.52-5.41-5.71-11.54-10.59-16-6.74-6.11-15.31-8.26-24-8.41a112,112,0,0,1,29.9-3.46c10.52.17,21.22,1.45,31.06,5.38,11.2,4.48,19.3,12.63,25.83,22.58a105.51,105.51,0,0,1,17.06,60.31c-.61,22.86-8.93,47.87-29.43,60.27a1.16,1.16,0,0,0-.56,1.3C1836.2,172.76,1812,170.1,1788.35,170.17Z"/></g></g></svg>