<?xml version="1.0" encoding="utf-8"?>
<!-- Generator: Adobe Illustrator 22.1.0, SVG Export Plug-In . SVG Version: 6.00 Build 0)  -->
<svg version="1.1" id="Calque_1" xmlns="http://www.w3.org/2000/svg" xmlns:xlink="http://www.w3.org/1999/xlink" x="0px" y="0px"
	 viewBox="0 0 2045.9 447.5" style="enable-background:new 0 0 2045.9 447.5;" xml:space="preserve">
<style type="text/css">
	.st0{fill:#0FB4B7;}
</style>
<title>Fichier 1</title>
<g id="_x36_a6b490f-44ef-4f42-9af5-3c3d712b71fb">
	<g id="e999d78e-aa3e-470b-9521-f88a59466fdb">
		<path class="st0" d="M1760.5,107.2c-1.5,0.5-0.9,3,0.7,2.4c18.3-6.4,35,12.3,26.1,29.7c-0.7,1.4,1.4,2.7,2.2,1.3
			C1799.3,121.5,1781,100,1760.5,107.2z"/>
		<path class="st0" d="M1779.3,44c-2.3-0.6-3.3,3-1,3.6c13.2,3.2,22.9,14.2,24.4,27.7c0.3,2.4,4,2.4,3.8,0
			C1804.7,59.9,1794.3,47.8,1779.3,44z"/>
		<path class="st0" d="M1823.3,140.1c2.1-2.1,4.3-4.1,6.7-6c0.3,2.8,0.4,5.5,0.5,8.3c0.1,3.2,5.1,3.2,5,0c-0.1-3.9-0.4-7.9-0.9-11.8
			c3.3-2.3,6.7-4.4,10.2-6.2c2.9-1.5,0.3-5.8-2.5-4.3c-2.9,1.5-5.7,3.1-8.4,4.9c-0.4-2.9-0.9-5.8-1.5-8.7c-0.6-3.2-5.5-1.8-4.8,1.3
			c0.7,3.5,1.3,7.1,1.7,10.6c-3.4,2.5-6.6,5.3-9.6,8.3C1817.5,138.9,1821,142.4,1823.3,140.1z"/>
		<path class="st0" d="M1776,87.7c5.8,0,10.5-4.7,10.5-10.5s-4.7-10.5-10.5-10.5s-10.5,4.7-10.5,10.5c0,0,0,0,0,0
			C1765.5,83,1770.2,87.7,1776,87.7z"/>
		<path class="st0" d="M2045.8,442.2c-3.8-20.7-7.5-41.5-13.6-61.6c-5.9-19.4-14.6-37.9-25.8-54.8c-5.8-8.8-12.4-17.1-19.6-24.8
			c-3.7-9.3-8.1-18.4-12.5-27.3c-11.9-23.9-27.3-45.8-48.4-62.3c-19.1-14.9-41.1-25.2-64.3-31.8c19.3-11.9,28.2-34.7,30-56.5
			c0.2-1.9,0.2-3.9,0.3-5.8c6.1,12.3,8.6,26,5.5,39.5c-0.3,1.1,1.2,2.2,2.1,1.2c7.9-8.7,14.4-18.7,19.1-29.6
			c4.5,8.8,7.3,18.4,8.5,28.2c0,0.7,0.6,1.2,1.3,1.2c0.5,0,1-0.4,1.2-0.9c4.9-15.2,5.9-31.3,2.9-46.9c2.7,1.8,5,4,7,6.6
			c0.8,1.1,2.7,0.5,2.3-1c-1.6-6.1-4.1-11.9-7.4-17.3c-1-1.4-2-2.8-2.8-4.2c-1.6-3.5-0.3-5.2,0.7-8c1.1-3.1,1.9-6.3,2.4-9.6
			c1.8-11.8-0.2-23.9-5.7-34.5c-0.4-0.6-1.2-0.8-1.8-0.4c-0.3,0.2-0.4,0.4-0.5,0.7l-5.7,16.2c-2.8-24.9-17.7-46.8-39.9-58.5
			c-0.6-0.3-1.4-0.1-1.7,0.5c-0.2,0.3-0.2,0.6-0.1,0.9c4.6,14.3,5.8,29.5,3.5,44.3c-3.6-9-9.9-16.7-17.9-22.1
			c-0.6-0.3-1.4-0.1-1.7,0.5c-0.2,0.3-0.2,0.6-0.1,0.9c2.9,7.4,4.8,15.2,5.8,23.1c-5.7-7.1-13.2-12.6-21.7-16.1
			c-11-4.4-23.2-5.5-34.9-5.5c-13.2,0.1-26.3,2.3-38.7,6.7c-12.1,4.3-23.3,11.8-33.4,19.6s-22.2,17.2-27.6,29.3
			c-2.1,4.7-3.1,10.8,0.2,15.2c1.9,2.7,5,4.2,8.2,4.1c-4.8,12.9-4.7,25.1-1.2,38.6s9.5,26.1,18.9,36.5c-9.8,3.6-19.1,8.4-27.7,14.3
			c-4.6,3-9,6.2-13.4,9.6c-0.1-2.3-1.3-4.4-3.2-5.6c2-7.1,2.3-14.5-2.1-20.9c-0.1-0.2-0.3-0.3-0.4-0.4c2.5-3.5,4.9-7.6,4.2-11.4
			c-0.7-3.7-4.2-5.9-7.7-6.4c-5.9-0.9-11,2.8-16.2,5c0-0.2,0-0.5-0.1-0.7c-1.2-7.7-16.6-0.7-20.4,1c-11.3,5.1-20.6,13.7-28.1,23.5
			c-2.7,3.5-5.4,7.2-7.9,11c-77.1-31.4-165.7-8.4-217.6,56.6c-7.6,1.2-15.2,2.8-22.7,4.6l-0.7,0.2c-16.4-32.2-50.3-53.3-85.3-61.6
			c-25-5.9-51.1-6.6-76.6-4.8s-51.2,6.8-74.7,17.4c-23.2,10.6-43.9,26.9-58,48.3c-15.3-4.5-31.1-6.9-47-7.2
			c-8.1-12.6-18.6-23.4-30.8-32c-24.6-17.4-54.8-24.8-84.5-26.8c-58.4-3.9-120.7,7.8-163.8,50c-9.8,9.6-18.5,20.8-23.9,33.5
			c-3.8,9-5.3,18.4-5.8,27.9c-10.5-11.4-22.6-21.2-35.8-29.3c-7.9-26-27.1-47.3-50.4-60.9c-29.6-17.4-64.9-22.2-98.6-21.7
			c-34.2,0.5-69.3,5.6-100,21.4c-25,12.8-49.6,32.3-62.5,57.8c-7.9,15.5-9.1,33.5-11.3,50.5c-1.4,11.2-2.5,22.5-3.2,33.9
			c-4.4-9.5-9.5-18.6-15.3-27.4c-1.8-2.7-3.7-5.3-5.6-7.9c-2.7-29.5-15.6-58-35-80.3c-23.6-27.2-56.1-41.2-91.4-45.8
			c-39.1-5.2-82.1-2.4-119.3,11.2c-29.4,10.8-58.1,30.3-75.6,56.7c-4.8,7.1-8.5,14.9-10.9,23.1c-2.8,10.2-3.8,21.1-5.2,31.6
			c-3,22.5-5,45.2-4.2,67.9c0.1,2.4,3.8,2.4,3.8,0c-0.7-19.2,0.7-38.3,2.9-57.4c2-17.2,3-36.3,10.5-52.2c13-27.6,40.4-48.3,67.5-61
			c34.4-16,74.6-19.8,112.1-17.8c35.4,1.9,71.1,11.5,97.4,36.3c22.8,21.4,38.6,51,42.9,82.1c-20.8-26-48.1-46.1-80.6-55.8
			c-36.6-11-76.5-8.7-113.2,0.3c-16.4,4-32.5,10-46.8,19.2c-15.3,9.8-27.7,22.9-37.8,38c-24.5,36.4-40.7,81.3-40.9,125.5
			c0,1,0.9,1.9,1.9,1.8c0.3,0,0.6-0.1,0.9-0.3c0.3,0.1,0.6,0.2,0.9,0.2c94.7,0.4,189.2,3.4,283.9,6c26.5,0.7,53,0.7,79.4-2.5
			c1.1,0,1.9-0.9,1.9-2c0-0.1,0-0.3-0.1-0.4c-3.8-20.7-7.5-41.5-13.6-61.6c-2-6.7-4.4-13.2-7.1-19.7c0.3-9.9,1.1-19.8,2.1-29.7
			c1-9.3,2.2-18.5,3.6-27.7c1.1-7.3,1.9-14.7,4.1-21.8c8.4-27,32.2-47.9,55.7-62c28-16.7,60.3-23.7,92.6-25.7
			c33.8-2,69.3,0.3,100.5,14.6c26.4,12,49.2,33.4,59,60.9c-9.8-5.5-20.1-9.9-30.8-13.1c-36.6-11-76.5-8.7-113.2,0.3
			c-16.4,4-32.5,10-46.8,19.2c-15.3,9.8-27.7,22.9-37.8,37.9c-24.5,36.4-40.7,81.3-40.9,125.5c0,1,0.9,1.9,1.9,1.8
			c0.3,0,0.6-0.1,0.9-0.3c0.3,0.1,0.6,0.2,0.9,0.2c94.7,0.4,189.2,3.4,283.9,6c26.5,0.7,53,0.7,79.4-2.5c1.1,0,1.9-0.9,1.9-2
			c0-0.1,0-0.3-0.1-0.4c-3.8-20.7-7.5-41.5-13.6-61.6c-5.9-19.4-14.6-37.9-25.8-54.8c-4.7-7.1-9.9-13.9-15.5-20.3
			c0.1-8.7,1-17.4,3.9-25.7c4.1-11.8,11.3-22.4,19.7-31.6c16.8-18.3,38.7-32.6,62-41.3c28.9-10.8,60.4-14,91.1-13.5
			c29.5,0.6,59.8,5.6,85.7,20.4c15.3,8.6,28.4,20.6,38.3,35.2c-20.8,0-41.5,2.6-61.6,7.7c-16.4,4-32.5,10-46.8,19.2
			c-15.3,9.8-27.7,22.9-37.8,37.9c-24.5,36.4-40.7,81.3-40.9,125.5c1,0.9,2.3,1.5,3.7,1.8c94.7,0.4,189.2,3.4,283.9,6
			c26.5,0.7,53,0.7,79.4-2.5c1.1,0,1.9-0.9,1.9-2c0-0.1,0-0.3-0.1-0.4c-3.8-20.7-7.5-41.5-13.6-61.6c-5.9-19.4-14.6-37.9-25.8-54.8
			c-21.1-31.6-50.7-56.5-87-68.3c26.5-39.8,73.8-57.7,119.8-62.4s97.8-1.6,136.2,27c12.9,9.4,23.5,21.7,31,35.8
			c-14.9,4-29.3,9.7-42.3,18c-15.3,9.8-27.7,22.9-37.8,37.9c-24.5,36.4-40.7,81.3-40.9,125.5c0,1,0.9,1.9,1.9,1.8
			c0.3,0,0.6-0.1,0.9-0.3c0.3,0.1,0.6,0.2,0.9,0.2c94.7,0.4,189.2,3.4,283.9,6c26.5,0.7,53,0.7,79.4-2.5c1.1,0,1.9-0.9,1.9-2
			c0-0.1,0-0.3-0.1-0.4c-3.5-18.8-6.8-37.7-12-56.1c2.7-41.7,19.1-82.5,37.5-119.7c6.7-13.5,13.6-26.7,24-37.6
			c9.4-9.9,20.5-18.4,31.4-26.6c10.5-7.9,21.4-15.4,33.5-20.6c13.6-5.9,28.2-7.9,42.9-8.5c47.8-2.1,98.4,6.4,138.8,33.4
			c22.1,14.7,39,34.9,51.9,57.9c5.6,10.3,10.7,20.8,15.3,31.6c-18.4-18.1-40.6-31.9-65.9-39.5c-36.6-11-76.5-8.7-113.2,0.3
			c-16.4,4-32.5,10-46.8,19.2c-15.3,9.8-27.7,22.9-37.8,37.9c-24.5,36.4-40.7,81.3-40.9,125.5c0,1,0.9,1.9,1.9,1.8
			c0.3,0,0.6-0.1,0.9-0.3c0.3,0.1,0.6,0.2,0.9,0.2c94.7,0.4,189.2,3.4,283.9,6c26.5,0.7,53,0.7,79.4-2.5c1.1,0,1.9-0.9,1.8-2
			C2045.8,442.4,2045.8,442.3,2045.8,442.2z M1694.8,201.4c-0.1,0.3,0,0.6,0.2,0.9c-1.7,1.3-3.4,2.6-5.1,4c1.2-2.8,2.4-5.8,3.4-8.8
			C1694.5,198.4,1695.1,199.9,1694.8,201.4z M1688,204.5c-0.5-1-1.2-2-2-2.9c-1.9-2.1-5.2-2.1-7.7-0.9c-0.2-1.2-0.7-2.4-1.6-3.2
			c-0.2-0.2-0.4-0.4-0.6-0.5c3.6-6.6,7.6-13,12.2-19c0.5-0.7,1.1-1.5,1.8-2.3C1695.8,184.5,1691.9,195.4,1688,204.5z M1651.6,214.4
			c-1.6-0.9-3.6-1-5.4-0.3c-0.6-4,2.3-7.2,6-8.4c1.5-0.5,3.1-0.8,4.6-0.7c3.7,0.4,4.7,3.5,4.2,6.8c0,0.1,0,0.2,0,0.3
			c-0.2,0.7,0.2,1.5,0.9,1.7c0.2,0.1,0.4,0.1,0.6,0c1.1-0.3,2.2-0.4,3.3-0.5c1.9,0.1,2.4,1.4,2.8,3c0.6,2.2,1.4,8.3-2.8,7.5
			c-0.5-0.1-1,0.1-1.3,0.5l0,0c-0.2,0.3-0.3,0.7-0.2,1.1c-0.2,4.6-5.2,9.2-9.4,5.2c-0.2-0.2-0.5-0.3-0.7-0.4c0.5-1.7,0.9-3.4,1-5.2
			C1655.3,221.8,1654.8,216.5,1651.6,214.4L1651.6,214.4z M1666.6,226.4h0.4l-0.5,0.6C1666.6,226.8,1666.6,226.6,1666.6,226.4
			L1666.6,226.4z M1670.8,215L1670.8,215c-0.4-1.4-1.2-2.6-2.3-3.4c-1.4-0.9-3.2-0.7-4.9-0.4c0.3-6-3.8-9.4-10-8.3
			c-0.3,0.1-0.7,0.1-1,0.2c-1.1-3.8,1.4-7.1,4.8-8.8c1.6-0.8,4-1.8,5.7-0.9s2.2,3.1,2.5,4.9c0,0.1,0.1,0.2,0.1,0.4
			c0.1,0.6,0.7,0.9,1.3,0.8c0.1,0,0.3-0.1,0.4-0.2c2.1-1.5,4-2.3,6.5-1s2.9,4.5,0.5,6.1c-0.6,0.2-1,0.8-0.8,1.4
			c0.1,0.2,0.2,0.4,0.3,0.6c2.1,1.6,2.5,4.6,0.9,6.7C1673.8,214.4,1672.3,215.1,1670.8,215L1670.8,215z M1692.2,160.4
			c2.6,3,0,7.3-1.7,10.1c-5.3,8.6-11.8,16.2-16.5,25.2c-0.8-0.3-1.6-0.5-2.4-0.6c-1.4-0.1-2.9,0.3-4.1,1.1
			c-1.4-4.7-5.4-6.6-10.3-4.5s-8.8,6.9-7,12.3c-4.3,2-7.4,6.1-6.3,11.2c-0.9,0.5-1.7,1.1-2.6,1.6c3.3-10.8,8.1-21.1,14.2-30.6
			c3.3-5.1,7.3-9.3,11.2-14c1.9-2.4,4.2-5.5,5-8.8c4.2-1.6,8.1-4.3,12.5-5.1C1686.8,157.9,1690.3,158.2,1692.2,160.4L1692.2,160.4z
			 M1542.5,235.9c0.7,0.5,1.7,0.3,2.2-0.4c0.2-0.3,0.3-0.7,0.3-1.1c-0.6-1,0.8-2.9,1.5-3.6c0.9-1,2.1-1.7,3.4-2
			c2.9-0.6,5.9,1.6,4.9,4.8c-0.1,0.4-0.1,0.8,0.2,1.1c0.1,0.3,0.4,0.6,0.7,0.7c2.4,1,4.2,2.9,5.1,5.3c0.8,1.9,1.8,5.7-0.7,6.8
			c-0.2,0.1-0.4,0.2-0.5,0.4l-19.4,1.3c-0.1,0-0.3,0-0.4,0.1c-3.3-0.8-5.4-4.3-5.9-7.6C1533.2,237.6,1538.5,232.7,1542.5,235.9
			L1542.5,235.9z M1546.8,227c-2.3-1.8-3.4-4.7-1.9-7.4c1.2-2.1,5.6-4.7,8-3.3l0.2,0.1c0.7,0.3,1.5,0,1.8-0.6
			c0.1-0.2,0.2-0.5,0.1-0.8c-0.7-3.4,0.8-6.6,4.3-7.4c2.5-0.6,6.6-0.2,8.2,2.1c0.2,0.7,1,1.1,1.7,0.9c0.3-0.1,0.5-0.3,0.7-0.5
			c0.9-1.2,1.9-1.9,3.3-1c0.9,0.6,1.6,1.6,1.7,2.8c-6.7-1-16.3,2.6-14.5,10.3c-1.2,0.1-2.4,0.5-3.4,1.1c-1.3,1-2.2,2.5-2.4,4.1
			c-1.5-1.1-3.4-1.5-5.3-1.2c-0.8,0.2-1.6,0.5-2.4,0.9C1546.9,227.1,1546.9,227.1,1546.8,227L1546.8,227z M1577.8,204.5l0.2,0.1
			c0.4,0.4,1.1,0.4,1.5-0.1c0,0,0,0,0,0c2.6-2.9,9.2-2.7,9.4,2.1c0,0.2,0.1,0.4,0.2,0.6c0.1,0.4,0.4,0.7,0.8,0.9
			c1.1,0.4,2.2,1.2,1.9,2.5c-1,0.5-1.9,1.1-2.7,1.8c-2.4-1.9-6.3-1.6-9.2-0.7c-0.8,0.3-1.6,0.6-2.3,1.1l0,0c0-0.1,0-0.2,0-0.2
			c-0.1-2.5-1.6-4.7-3.8-5.8c-1.6-0.8-3.6-0.4-4.8,0.9c-0.4-0.4-0.9-0.8-1.5-1.1C1569,202.6,1575,202.8,1577.8,204.5L1577.8,204.5z
			 M1590.2,199.3c0.9-0.2,2.5-0.4,3.1,0.4c0.7,0.6,1.7,0.5,2.3-0.2c0.1-0.1,0.2-0.3,0.3-0.4c0.6-1.8,2.1-3.2,4-3.5
			c1.8-0.3,3.6,0.9,4,2.7c0.1,0.3,0.2,0.5,0.4,0.6c0.3,0.3,0.8,0.5,1.2,0.4c2-0.4,4,0.8,4.4,2.8c0.1,0.5,0.1,1,0,1.4
			c-0.1,0.3,0,0.6,0.2,0.9c-0.2,0.3-0.3,0.5-0.4,0.8c-4.7-1.7-11.4-0.6-13.6,4.2c-0.5,0-1.1,0.1-1.6,0.1c-0.3-1.7-1.4-3.1-3-3.7
			c-0.2-1.7-1.1-3.2-2.5-4.3C1588.8,200.5,1588.8,199.6,1590.2,199.3L1590.2,199.3z M1599.2,217.8c-4.6,1.6-8.9,5.7-7.8,10.6
			c-1.7,0-3.3,0.5-4.7,1.5c-0.7-2.9-2.8-5.3-5.6-6.3c0.2-2.6-1.4-4.4-3.7-5.3c0-0.1,0-0.1,0-0.2c-0.2-2.5,1.9-3.9,4.1-4.4
			c1.7-0.4,4.7-0.7,6.2,0.5c0,0.7,0.6,1.3,1.3,1.3c0.4,0,0.8-0.2,1.1-0.5c1.5-1.8,3.7-2.9,6-3c3.3-0.2,3.4,2.9,3.2,5.4
			C1599.2,217.5,1599.1,217.6,1599.2,217.8L1599.2,217.8z M1573,246.9l-9.5,0.7c0.9-1.9,0.6-4.6,0-6.6c-0.1-0.4-0.2-0.7-0.4-1.1
			c2.2-1.5,5.1-1.3,7.1,0.3C1572,241.9,1573,244.4,1573,246.9L1573,246.9z M1561.9,250.4v-0.2l11.3-0.8l6.4,58.9
			c-0.6,5.3-1.1,10.7-1.4,16.1c-2.2-3.3-4.6-6.6-7-9.7L1561.9,250.4z M1570,237.2c-2.6-1.2-5.6-1-8,0.4c-1.1-1.8-2.7-3.3-4.7-4.2
			c0.2-1.2,0.1-2.4-0.4-3.5c0.1-0.1,0.1-0.3,0.1-0.4c0.2-1.6,0.3-3.5,2-4.3c1.8-0.7,3.8-0.8,5.7-0.3c0.5,0.4,1.2,0.3,1.6-0.2
			c0.1-0.1,0.2-0.3,0.2-0.5c0.5-2.9,2.8-4.4,5.7-4.4c2.2,0,7.1,0.9,6.3,4.2c0,0.2,0,0.4,0,0.6c-0.1,0.5,0.3,1,0.9,1.1c0,0,0,0,0,0
			c2.2,0.4,5.5,3.2,4.8,5.7c0,0.1,0,0.2,0,0.3c-2.3-1.8-5.7-2.2-8.6-1.8C1571.5,230.4,1570.2,233.7,1570,237.2L1570,237.2z
			 M1575.7,214.6c-0.6,0.9-0.9,1.9-0.9,3c-4.1-0.6-9,0.8-10.4,4.8c-0.4-0.1-0.8-0.1-1.2-0.1C1561.1,215.7,1570.8,213.1,1575.7,214.6
			L1575.7,214.6z M1541.6,251.6l9.4-0.6l6.9,48.4c-3.5-3.6-7.1-7.1-10.9-10.4c-2-12.3-3.9-24.7-5.8-37
			C1541.3,251.9,1541.4,251.8,1541.6,251.6L1541.6,251.6z M1586.7,269.5l-2.7-20.9l9-0.6c-0.8,2.3-1.5,4.5-2.2,6.8
			C1589.3,259.7,1587.9,264.6,1586.7,269.5L1586.7,269.5z M1593.9,245.5l-18.4,1.3c0.1-3-1.1-5.9-3.2-8c0.1-0.2,0.2-0.4,0.2-0.6
			c0.2-3.3,0.9-5.9,4.7-5.9c2.7,0,5.5,0.4,6.7,3.1c0.1,0.3,0.4,0.6,0.7,0.6c0.5,0.3,1.2,0.1,1.5-0.4c0.1-0.1,0.1-0.2,0.1-0.3
			c1.2-6.1,9.2-5.2,11.7-0.6c-0.2,0.5-0.4,1-0.6,1.5C1596.1,239.2,1594.9,242.3,1593.9,245.5L1593.9,245.5z M1599,231.9
			c-1.3-1.5-3-2.5-4.9-3.1c0-0.1,0-0.1,0-0.2c-1.7-5.2,4.8-8.9,9.1-9C1601.6,223.6,1600.3,227.7,1599,231.9L1599,231.9z M1604,217.4
			c-0.2-0.1-0.4-0.2-0.7-0.2c-0.5,0-1.1,0-1.6,0.1c0.2-2.9-0.3-6.3-3-7.4c1.8-3,6.7-3.4,9.8-2.4
			C1606.8,210.7,1605.3,213.9,1604,217.4L1604,217.4z M1612.1,201c-0.9-2.6-3.4-4.3-6.1-4.2c-0.2-0.4-0.4-0.8-0.6-1.1
			c2.7,0.9,5.4,1.9,8.1,3C1613,199.4,1612.5,200.2,1612.1,201L1612.1,201z M1558.5,185.9c13.5,1,26.9,3.6,39.9,7.5
			c-1.9,0.7-3.4,2.1-4.3,3.9c-1.4-0.7-3-0.8-4.5-0.4c-1.7,0.3-3,1.8-3.1,3.6c-2.8-0.9-5.8-0.3-8,1.6c-4.2-2.1-11.3-1.5-13.2,3.4
			c-2.4-0.7-4.9-0.7-7.3,0.1c-3.7,1.2-5.4,4.6-5.4,8.2c-3.3-0.6-7.6,1.6-9.3,4.2c-2.4,3.6-1.6,8.4,1.8,11c-1.4,1.1-2.3,2.6-2.7,4.3
			c-4.6-1.4-9.5,1.1-10.9,5.7c0,0,0,0,0,0.1c-1.3,5.1,2.4,10.9,7.2,12.7c0,0.1,0,0.1,0,0.2l5.5,34.8c-16.3-13.7-35.1-23.9-55.5-30.1
			c-27.4-8.2-56.7-9-85.1-5.1C1441.2,206.3,1499.3,181.4,1558.5,185.9L1558.5,185.9z M1604.5,379.6c-5.6-18.2-13.7-35.6-24-51.6
			c0.8-17.1,3.1-34.1,6.9-50.8c2.7-12.1,6.2-23.9,10.5-35.5c4.4-11.8,8-24,14.2-34.9c1.3-2.4,2.7-4.8,4.2-7.2c0.9-0.3,1.4-1.1,1.3-2
			c10.8-17.2,25-33.6,45.6-37.7c2.1-0.4,5.4-1.9,6.3,1.4c0.4,1.6-1.4,4.7-2.2,6c-1.7,2.9-4.1,5.3-6.3,7.8c-3.5,4-6.6,8.2-9.3,12.7
			c-6,10-10.7,20.8-13.8,32.1c-6.9,6.6-11.6,16.6-15.3,24.9c-5.2,11.5-8.2,23.9-6.6,36.5c0.2,1.6,2.7,1.6,2.5,0
			c-2.5-19.7,6.4-41.4,18.7-56.7c1.5-1.9,3.2-3.6,5.1-5.1c2.7-2.1,7.5-3.9,9.6-0.4c3,5-0.8,13-2.8,17.6c-3.8,8.5-6.4,16.9-6.8,26.4
			c0,0.2,0,0.4,0.1,0.6c-12.4,23.7-22.4,48.7-29.8,74.4C1608.6,351.6,1605.9,365.5,1604.5,379.6L1604.5,379.6z M1645,258.5
			c0.7-6.3,2.4-12.4,5-18.2c1.1-2.5,2.3-5,3.3-7.6c1.8,1.6,4.3,2.3,6.8,1.8c-3.2,4.1-6.2,8.3-8.8,12.8
			C1649.1,251,1647,254.7,1645,258.5L1645,258.5z M1671.1,222.4c0.4-1.6,0.5-3.3,0.2-4.9c4-0.3,7-3.8,6.7-7.8
			c-0.1-1.4-0.6-2.8-1.5-3.9c0.5-0.5,0.9-1.1,1.3-1.8c0.1,0,0.2-0.1,0.3-0.2c1.7-1.3,4.7-1.9,6.3-0.2c1.3,1.4,2.8,3.8,1.4,5.6
			c-0.1,0.2-0.2,0.4-0.2,0.7c-2.2,1.8-4.4,3.6-6.6,5.4C1676.2,217.6,1673.6,219.9,1671.1,222.4L1671.1,222.4z M1866.7,28.2
			c7.2,5.9,12.5,13.8,15.2,22.8c0.2,0.7,0.9,1,1.6,0.8c0.4-0.1,0.7-0.4,0.8-0.8c3.3-15.7,2.6-31.9-1.8-47.2
			c21.8,12.7,35.5,35.8,36.2,61.1c0,0.7,0.6,1.2,1.3,1.2c0.5,0,1-0.4,1.2-0.9l6.7-19.1c5.4,12,6.2,25.4,2.3,38
			c-0.7,2.4-2.3,4.8-2.4,7.3c-0.1,2.3,1.2,3.7,2.4,5.5c3,4.4,5.4,9.2,7.2,14.2c-1.9-1.8-4-3.3-6.3-4.6c-0.6-0.3-1.4-0.1-1.7,0.5
			c-0.2,0.3-0.2,0.6-0.1,0.9c3.1,14.2,2.9,29-0.8,43.2c-1.7-9.1-4.8-17.9-9.1-26c-0.4-0.6-1.2-0.8-1.8-0.4c-0.3,0.2-0.4,0.4-0.5,0.7
			c-4.1,10-9.7,19.4-16.7,27.7c1.9-13.3-1.1-26.7-7.5-38.7c-0.2-0.5-0.7-0.7-1.2-0.6c-0.2-21.1-6.6-41.7-18.3-59.2
			c-0.6-0.9-1.2-1.8-1.9-2.6C1871,43.9,1869.3,35.9,1866.7,28.2z M1788.3,170.2c-13.3,0-26.9,0.6-39.9,3.6c-2.5,0.6-5,1.3-7.4,2
			c-9.2-9.8-15.1-21.8-18.7-34.7c-3.8-13.9-4.2-26.7,1.3-40.2c0.6-0.3,0.9-1.1,0.6-1.8c-0.2-0.3-0.4-0.5-0.7-0.6
			c-0.4-0.4-1-0.4-1.4,0c-0.1,0.1-0.2,0.3-0.3,0.4v0.1c-7.8,2.2-9.8-8.4-7.8-14c2.1-5.9,6.4-11,10.7-15.4c8.1-8.1,17-15.3,26.6-21.5
			c7.6-5.1,15.7-9.2,24.2-12.3c7.6-1,15.4-1.2,22.7,1.5c8.1,2.9,12.9,8.6,16.8,16c5.1,9.4,12.3,16.3,22.9,17.2
			c-9.6,9.6-13,23.7-8.9,36.7c-3.2,1.8-6.1,4.1-8.5,6.9c-1,1.2,0.7,3,1.8,1.8c5.2-5.9,15.1-12.4,22.3-5.4c5.7,5.6,5.2,16.7,2.9,23.7
			c-2.6,7.7-8.3,14-15.7,17.4c-3.5,1.7-7.3,2.6-11.2,2.7c-6.5-0.1-9.1-6.4-9.2-12.1c0-0.7-0.6-1.2-1.2-1.2s-1.2,0.6-1.2,1.2
			c0.1,4.6,1.6,9.7,5.3,12.7c3.4,2.7,8,2.1,12,1.2c10.5-2.3,19.2-9.7,23.1-19.7c3.2-8.3,3.9-22.4-4-28.5c-4.4-3.4-9.4-3.4-14-1.6
			c-3.9-12.6,0-26.4,9.8-35.2c0.1-0.1,0.2-0.2,0.2-0.3c1.6-0.1,1.6-2.6,0-2.5c-8.5,0.4-16.7-3.7-21.3-10.9
			c-3.5-5.4-5.7-11.5-10.6-16c-6.7-6.1-15.3-8.3-24-8.4c9.8-2.5,19.8-3.7,29.9-3.5c10.5,0.2,21.2,1.5,31.1,5.4
			c11.2,4.5,19.3,12.6,25.8,22.6c11.7,17.9,17.6,38.9,17.1,60.3c-0.6,22.9-8.9,47.9-29.4,60.3c-0.5,0.3-0.7,0.8-0.6,1.3
			C1836.2,172.8,1812,170.1,1788.3,170.2z"/>
	</g>
</g>
<polygon class="st0" points="18,436.3 18,447.5 387.5,447.5 386.7,442.2 "/>
<polygon class="st0" points="413.5,436.3 413.5,447.5 783,447.5 782.2,442.2 "/>
<g>
	<polygon class="st0" points="841.5,436.3 841.5,447.5 1211,447.5 1210.2,442.2 	"/>
	<polygon class="st0" points="1250,436.3 1250,447.5 1619.5,447.5 1618.7,442.2 	"/>
</g>
<polygon class="st0" points="1676.7,436.3 1676.7,447.5 2046.2,447.5 2045.4,442.2 "/>
</svg>
