<?xml version="1.0" encoding="utf-8"?>
<!-- Generator: Adobe Illustrator 22.1.0, SVG Export Plug-In . SVG Version: 6.00 Build 0)  -->
<svg version="1.1" id="Calque_1" xmlns="http://www.w3.org/2000/svg" xmlns:xlink="http://www.w3.org/1999/xlink" x="0px" y="0px"
	 viewBox="0 0 621.3 713.7" style="enable-background:new 0 0 621.3 713.7;" xml:space="preserve">
<style type="text/css">
	.st0{fill:#F08863;}
	.st1{fill:#E7464D;}
	.st2{fill:#374191;}
	.st3{fill:#D83C4A;}
	.st4{fill:#2B397E;}
	.st5{fill:#E84E1B;}
	.st6{fill:#F29100;}
	.st7{fill:#EA9053;}
	.st8{fill:#FAB814;}
	.st9{fill:#EFA58C;}
	.st10{fill:#F5A566;}
	.st11{fill:#ED784D;stroke:#ED784D;stroke-miterlimit:10;}
	.st12{fill:#F8B133;}
	.st13{opacity:0.57;}
	.st14{fill:#FFFFFF;}
	.st15{fill:#A1D4D1;}
	.st16{fill:#82BCB8;}
	.st17{clip-path:url(#SVGID_2_);}
</style>
<polygon class="st0" points="530.5,382.8 412,423.2 382,467.5 391.4,498.3 559.5,481.8 576.5,427.7 "/>
<path class="st1" d="M176.8,193.5l1.4,3.3c0,0-8.4,25.6,1.9,55.4s-0.8,0.2-0.8,0.2l13.2-30.9l16.8,7l18.7,50.7l-26.5,26.5L163.7,265
	l-11.4-36L176.8,193.5z"/>
<path class="st2" d="M295.1,112.8l11.1-21.6l-27.7,14.3c0,0-2.5-10.7,2.5-19.4s26.4-40,26.4-40l-51.8,24.4l-28.1,27.2l-8.8,21.2
	l1.1-37.1l-15.6,21.4c0,0-8.8,16.8-10.2,23c-1.5,6.2,4.3,25.1,4.3,25.1l-35.8,24.3l33.5-4.4c0,0-14.9,18-19,36.2s2.8,43.2,2.8,43.2
	s7.2-20.5,16.7-23.5c0,0,2.8,32.2,24.9,47.6c0,0-0.4-19.7,4.6-29.4l-9.8-82.1L295.1,112.8z"/>
<title>Fichier 2</title>
<g>
	<path class="st1" d="M221.8,515.4c0,0,8.2,18.8-27,52.2c-35.3,33.5-84.3,20.5-112,2.1s-46.7-77.8-46.7-77.8S23.7,423,25.4,411.7
		c1.7-11.3,7-80.5,7-80.5s18.8-73.6,29.4-88.7c10.6-15,64.6-11.1,64.6-11.1L221.8,515.4z"/>
	<path class="st1" d="M432.9,500.9c0,0,8.4,55.5,66.3,57c0,0,51.4,3.5,72.5-52.5s18.9-126.6,9.6-173c-9.3-46.3-23.1-115.6-48-133
		C508.5,182,432.9,500.9,432.9,500.9z"/>
	<g>
		<g>
			<path class="st3" d="M356.5,360.3c9.8-8.3,22.7-12.4,35.5-11c14.9,1.6,25.6,10.4,30,24.6c3.6,11.6,6.3,27-0.8,37.7
				c-6.6,10-19,15-30.6,15.6c-2.4,0.1-2.4,3.9,0,3.8c12.8-0.7,26.1-6.1,33.5-16.9c8.3-12.1,5.5-29.5,1.1-42.6
				c-4.9-14.5-15.9-23.6-31.1-25.7c-14.5-2-29.1,2.5-40.1,11.9C352,359.2,354.7,361.8,356.5,360.3L356.5,360.3z"/>
		</g>
	</g>
	<g>
		<g>
			<path class="st3" d="M402.8,193.6c26.7-32.6,74-35.9,107.9-12.9c36.9,25,51.8,69.1,61.3,110.6c10.3,45.2,17.1,91.9,14.1,138.3
				c-1.5,23-5.5,45.8-12.7,67.6c-6.9,21-17.5,40.6-38.2,50.6c-10.1,4.9-21.2,7.2-32.2,8.4c-10.4,1.2-19.4,0.8-28.9-3.8
				c-18.5-9-34.7-27-39.8-47.1c-0.4-1.6-2.8-0.9-2.4,0.7c4.6,18.1,17.7,34,33.1,44.2c6.7,4.4,14.3,7.9,22.3,9.1
				c9.4,1.3,19.8-0.6,29-2.5c20-4.2,37.2-14.6,47.9-32.2c12.4-20.4,18.1-45.8,21.7-69.2c7.4-48.9,2.2-98.8-7.6-146.9
				c-9-44.4-21.1-92.8-57.4-123.2c-17.3-14.4-38.7-23-61.4-22.1c-22.6,0.9-44,11.2-58.4,28.7C400,193.1,401.7,194.8,402.8,193.6
				L402.8,193.6z"/>
		</g>
	</g>
	<g>
		<g>
			<path class="st3" d="M179.4,194.6c-16.3-11.9-37.3-13.7-56.4-8.5c-20,5.5-36.3,18.4-48.8,34.7c-13.7,17.9-22.6,39.1-29.8,60.4
				c-8.1,23.9-13.8,48.6-17,73.6c-6.3,48.1-4.4,99.2,9.9,145.7c12.2,39.5,37.4,76.8,80,86.5c22.8,5.2,48.1,2,68-10.7
				c19.2-12.3,33-32,40.2-53.5c0.5-1.5-1.9-2.2-2.4-0.7c-6.5,19.5-18.6,37.5-35.3,49.5c-16.9,12.2-38.2,16.9-58.8,14.7
				c-21.6-2.2-41.5-12.1-56.6-27.7c-14-14.4-23.6-32.7-30.1-51.6c-15-42.3-18.1-89.5-14.4-134c2-23.7,6.2-47.2,12.5-70.1
				c5.9-21.3,13.2-42.7,23.9-62.2c11.2-20.4,27.1-39.2,48.9-48.5c20.9-9,46.1-9.3,65,4.6C179.4,197.7,180.6,195.5,179.4,194.6
				L179.4,194.6z"/>
		</g>
	</g>
	<g>
		<g>
			<path class="st3" d="M283.6,233.5c-8,4.4-13.7,18.2-4.6,24.7c9.7,7,23.7-0.3,25.6-11.3c0.4-2.4-3.2-3.4-3.6-1
				c-1.5,8.3-12,15-19.7,9.3c-6.9-5.1-1.6-15.2,4.2-18.4C287.6,235.6,285.7,232.4,283.6,233.5L283.6,233.5z"/>
		</g>
	</g>
	<g>
		<g>
			<path class="st3" d="M291.6,239.7c-2.2,3.3-4.4,6.6-6.8,9.8c-1.4,1.9,1.8,3.8,3.2,1.9c2.4-3.2,4.6-6.4,6.8-9.8
				C296.1,239.5,292.9,237.6,291.6,239.7L291.6,239.7z"/>
		</g>
	</g>
	<g>
		<g>
			<path class="st4" d="M243,199.6c20.3-8.3,19.2-36.4,17.8-54.4c-0.2-3.2-5.2-3.2-5,0c0.7,8.9,1.2,18-0.2,26.8
				c-1.3,8.6-5.3,19.2-14,22.7C238.7,196,240,200.8,243,199.6L243,199.6z"/>
		</g>
	</g>
	<g>
		<g>
			<path class="st4" d="M256.8,146.4c9.6,5.4,21.3,5.7,32.1,5c4.9-0.3,9.6-1.5,13.8-4.1c4.9-3,9-7.2,14.1-10
				c10.5-5.9,22.9-7.2,34.8-7.2c11.8,0,23.8,1.8,33.5,9c2.6,1.9,5.1-2.4,2.5-4.3c-16.7-12.2-43-12.1-62.1-6.4
				c-4.9,1.5-9.7,3.5-14,6.4c-5,3.3-9.3,8-15,10.2c-5.4,2.1-11.9,1.7-17.6,1.6c-6.8-0.2-13.4-1-19.5-4.4
				C256.5,140.5,254,144.8,256.8,146.4L256.8,146.4z"/>
		</g>
	</g>
	<path class="st4" d="M245.6,150.6c8.3-13.4,20.4-22.2,34.3-29c14.6-7.1,29.7-11.4,46.2-11c16.4,0.4,34.3,5.5,47,16
		c3.1,2.6,5.9,5.4,8.4,8.5c-0.3-1.9,0.7-4,2.3-5.2c-23-25.5-64-30.1-94.9-17.9c-16.4,6.5-32.5,15.6-43.3,29.9
		c-11.3,14.9-17.2,34-15,52.6c0.4,3.2,5.4,3.2,5,0C233.8,179.3,237.6,163.7,245.6,150.6z"/>
	<g>
		<g>
			<path class="st0" d="M224.6,212.2c5.3,8.3,11.3,16,18.1,23.1c2.2,2.3,5.8-1.2,3.5-3.5c-6.5-6.8-12.3-14.2-17.4-22.1
				C227.2,207,222.8,209.5,224.6,212.2L224.6,212.2z"/>
		</g>
	</g>
	<g>
		<g>
			<path class="st0" d="M236.4,208.1c-2.7,8.7-5,17.5-7,26.4c-0.7,3.1,4.1,4.5,4.8,1.3c2-8.9,4.3-17.7,7-26.4
				C242.1,206.4,237.3,205,236.4,208.1L236.4,208.1z"/>
		</g>
	</g>
	<g>
		<g>
			<path class="st4" d="M296.2,111.7c3.5-8.5,9.1-15.9,16.5-21.4c1.6-1.2,0.8-4.1-1.4-3.4c-13.4,4.1-25.7,10.8-36.3,20
				c1.1,0.4,2.1,0.9,3.2,1.3c2.2-24,17.9-43,32.8-60.6c1.1-1.3,0.1-3.7-1.8-3.1c-39.2,11.6-81.7,32.6-93,75.5c-0.6,2.3,3,3.3,3.6,1
				c10.9-41.6,52.5-61.6,90.4-72.9c-0.6-1-1.2-2.1-1.8-3.1c-15.7,18.5-31.7,38.2-33.9,63.3c-0.2,1.8,2.1,2.3,3.2,1.3
				c10.2-8.7,21.9-15.1,34.7-19c-0.5-1.1-1-2.3-1.4-3.4c-8.2,6.2-14.3,14.1-18.2,23.7C291.7,113,295.3,113.9,296.2,111.7
				L296.2,111.7z"/>
		</g>
	</g>
	<g>
		<g>
			<path class="st4" d="M220,120.6c-1.3-13.3,0.1-26.4,4-39.2c0.4-1.4-1.4-3.1-2.8-2.1c-21.4,16.2-36.9,48.7-24,74.7
				c1.1,2.2,4.3,0.3,3.2-1.9c-11.9-23.9,3-54.7,22.7-69.6c-0.9-0.7-1.8-1.4-2.8-2.1c-4,13-5.4,26.6-4.1,40.1
				C216.5,123,220.2,123,220,120.6L220,120.6z"/>
		</g>
	</g>
	<g>
		<g>
			<path class="st4" d="M198.3,151.4c-15.3,5.5-29.9,13.6-38.9,27.6c-1.3,1.9,1.4,3.5,2.9,2.3c9.6-7.5,21.8-7.9,33.5-7.9
				c2.4,0,2.4-3.7,0-3.8c-12.8,0-25.7,0.8-36.1,9c1,0.8,2,1.5,2.9,2.3c8.5-13.1,22.3-20.8,36.7-25.9
				C201.6,154.2,200.6,150.6,198.3,151.4L198.3,151.4z"/>
		</g>
	</g>
	<g>
		<g>
			<path class="st4" d="M194.5,170.2c-18.4,20.7-32.2,57.7-15,83.1c1.1,1.6,3.3,0.9,3.5-0.9c1.3-10.1,6.7-19.1,14.9-25
				c-0.9-0.5-1.9-1.1-2.8-1.6c1.4,20.6,12.2,38.4,25.3,53.8c1,1.2,3.4,0.3,3.2-1.3c-1.6-11.8,0.8-23.3,7-33.5c1.3-2.1-2-4-3.2-1.9
				c-6.5,10.7-9.1,22.9-7.5,35.3c1.1-0.4,2.1-0.9,3.2-1.3c-12.4-14.6-22.9-31.6-24.2-51.1c-0.1-1.3-1.6-2.5-2.8-1.6
				c-9.5,6.8-15.3,16.7-16.8,28.2c1.2-0.3,2.3-0.6,3.5-0.9c-16.2-24-2.9-59.1,14.4-78.6C198.7,171.1,196.1,168.4,194.5,170.2
				L194.5,170.2z"/>
		</g>
	</g>
	<ellipse class="st4" cx="294.8" cy="163.5" rx="10" ry="10"/>
	<ellipse class="st4" cx="363.5" cy="151.7" rx="10" ry="10"/>
	<g>
		<g>
			<path class="st5" d="M413.4,54.7c3.8,16.9,19.7,29.2,36.5,31.2c17,2,34.7-7.3,42.4-22.6c7.4-14.7,6.2-36.2-7.1-47.3
				c-6.8-5.6-15.7-7.2-24.2-8.7c-8-1.4-16.7-2.1-24.4,1.2c-7.1,3.1-14.5,10.4-18.9,16.6C412,32.9,411.9,45.5,413.4,54.7
				c0.4,2.4,4,1.4,3.6-1c-1.2-7.5-1.2-18.2,2.8-25c3.2-5.5,9.5-11,14.6-14.7c5.8-4.2,13.3-4.5,20.2-3.8c6.8,0.7,14.4,1.9,20.8,4.4
				c16.1,6.3,20.6,26.3,15.8,41.5c-4.8,14.9-19.1,25.4-34.6,26.3c-17.6,1-35.7-11.2-39.6-28.7C416.5,51.3,412.9,52.3,413.4,54.7z"/>
		</g>
	</g>
	<g>
		<path class="st6" d="M167.7,483.8v0.1c-0.7,1.7-1.4,3.3-1.9,5c3.2,2.5,6.9,4.3,10.8,5.8c0-0.5,0-1.1,0-1.6c0.2-1,0.6-1.9,1-2.9
			c0.1-0.1,0.1-0.2,0.2-0.3c-1.4-0.6-2.7-1.2-4.1-1.9C171.4,486.8,169.4,485.4,167.7,483.8z"/>
		<path class="st6" d="M243.6,459.9c-3.9-37.8-58.9-49.1-81.2-20.9c-1,1.3-1.9,2.6-2.8,4.1c0.8-0.3,1.5-0.6,2.3-1
			c0.2-0.1,0.4-0.2,0.6-0.2c0.8-0.9,2-1.5,3.5-1.5c0.6,0,1.1,0.1,1.5,0.2c8.5-9.4,21.9-13.7,34.4-12.6c16.6,1.5,34.9,14.3,36.7,31.8
			c0.2,4-0.2,9-1.4,13.6c1.9,0.2,3.1,1.4,3.7,2.8c0.2,0.2,0.3,0.3,0.5,0.5C243.2,471.2,243.8,465,243.6,459.9z"/>
		<path class="st6" d="M221.4,491.2c-1.4,0.8-2.8,1.6-4.1,2.3c-2.4,1.3-4.9,2.1-7.4,2.5c0.5,0.9,0.7,2,0.6,3c0.4,0.5,0.8,1.1,1,1.8
			c0.3,0,0.6-0.1,0.8-0.2c2.2-0.5,4.2-1.3,6.1-2.2c0.9-1.2,1.8-2.3,2.8-3.4c0.2-0.2,0.4-0.5,0.7-0.7
			C221.3,493.4,221.2,492.3,221.4,491.2z"/>
	</g>
	<g>
		<g>
			<path class="st7" d="M481.3,312.6c-15.9-11-38.9-8.5-53.1,4.1c-13.6,12-18.1,32.5-11.2,49.2c3.4,8.3,9.3,15.4,16.7,20.5
				c8.6,5.9,17.9,7.3,28.1,6.3c8.5-0.8,16.1-2.3,22.9-7.7c6.7-5.3,12.2-12.5,15.1-20.5C506.8,345.5,496.4,324.3,481.3,312.6
				c-2.5-2-5,2.4-2.5,4.3c12.3,9.5,19.5,24.4,17.8,40c-1.5,13.7-14,27.3-27.5,29.7c-9,1.6-18.5,2.5-27.1-1.4
				c-7.1-3.3-13.2-8.8-17.3-15.4c-8.5-13.7-7.6-31.6,2.3-44.4c11.9-15.4,35.7-19.7,51.9-8.5C481.4,318.8,483.9,314.5,481.3,312.6z"
				/>
		</g>
	</g>
	<g>
		<g>
			<path class="st4" d="M261.5,151.9c6-13.1,20.2-18,33.9-16.1c3.1,0.4,4.5-4.4,1.3-4.8c-15.7-2.2-32.5,3.2-39.5,18.4
				C255.8,152.3,260.1,154.8,261.5,151.9L261.5,151.9z"/>
		</g>
	</g>
	<g>
		<g>
			<path class="st4" d="M347.9,123.3c4.2-3.1,8.9-4.2,14.2-4.1c5.4,0.1,12.1,0.9,16.8,3.6c2.8,1.6,5.3-2.7,2.5-4.3
				c-5.6-3.2-13-4.1-19.3-4.3c-6-0.1-11.8,1.2-16.7,4.8C342.8,120.8,345.3,125.2,347.9,123.3L347.9,123.3z"/>
		</g>
	</g>
	<g>
		<g>
			<path class="st0" d="M275.5,227.2c6.8,11.9,22,18.7,34.6,22.2c15.5,4.2,31.2,2.8,46.8,0c3.2-0.6,1.8-5.4-1.3-4.8
				c-14.2,2.5-28.4,3.9-42.5,0.4c-11.9-3-26.9-9.2-33.3-20.3C278.2,221.8,273.9,224.4,275.5,227.2L275.5,227.2z"/>
		</g>
	</g>
	<g>
		<g>
			<path class="st0" d="M437.1,480c-8.3-2.3-12.4-10.1-15.5-17.5c-2.1-5-4-13.2-9.2-15.8c-11.9-5.8-17.7,13.1-17.3,21.3
				c1.5,29.1,34.8,40.5,59.4,41.1c28.2,0.6,57.9-11,77.6-31.3c18.3-18.7,26.9-51.4,5.2-71.2c-4.7-4.3-11.2-8.2-17.8-8.5
				c-5.4-0.3-11.3,2.6-12,8.5c-0.8,6.9,5.7,11.2,10.4,14.8c4.4,3.4,5,7.7,4,12.9c-0.8,4.1-2.6,8.4-7,9.6c0.8,0.4,1.5,0.9,2.3,1.3
				c-1.5-10-3.5-20.9-11.2-28.1c-6.6-6.2-19-12.3-28.2-11c-8.5,1.2-12.9,8.9-10.4,17c1.6,5.1,5.4,9,8.8,13c4.2,5,10.9,17.9-0.2,19.9
				c0.7,0.3,1.4,0.6,2.1,0.9c-4.7-10.8-10.4-23.3-18.6-32c-7.3-7.8-17.3-1.4-23,5.2c-6.6,7.7-3,14.5,2.5,21.4c7.2,9,6.4,22.4-4,28.9
				c-2,1.3-0.2,4.5,1.9,3.2c5.9-3.7,9.7-9.7,10.6-16.6c1-7.7-2.1-13.5-6.7-19.3c-4.4-5.4-5.9-10.5-0.5-16.1
				c4.6-4.8,11.6-9.6,17.2-3.5c4,4.3,7,10.1,9.8,15.2c2.8,5,5.4,10.2,7.7,15.5c0.4,0.8,1.4,1,2.1,0.9c7.5-1.3,10.2-9.4,8.1-16
				c-3-9.3-17.4-17.1-14.4-27.9c3.6-12.7,23.6-2.7,30.1,1.8c9.3,6.5,11.3,18.2,12.9,28.6c0.2,1,1.4,1.6,2.3,1.3
				c8.1-2.4,11-12.6,10.1-20.2c-0.5-4.1-2.9-6.7-6-9.1c-2.2-1.7-4.6-3.2-6.4-5.4c-5.2-6.3,0.1-12,7.3-10.8
				c12.3,2,21.5,13.6,24.4,25.1c3.3,13.2-0.6,27.3-8,38.3c-13.9,20.8-39.3,33.9-63.5,38.3c-23,4.1-55.9,1.1-69.9-20.4
				c-3.6-5.6-5.6-12.4-5.1-19.1c0.4-4.3,1.8-9.4,5-12.4c4.8-4.5,8.8-0.4,11,4.3c5,10.7,8.4,23.8,21.3,27.4
				C438.4,484.3,439.4,480.7,437.1,480L437.1,480z"/>
		</g>
	</g>
	<g>
		<g>
			<path class="st0" d="M105.4,455.3c-3.1-4.2-7.1-8.5-12.7-9c-5.4-0.5-10.1,2.9-12.5,7.6c-6.1,11.8,3.3,27.4,10.2,36.6
				c1.9,2.5,6.2,0.1,4.3-2.5c-5-6.8-10-14.9-11.2-23.4c-0.6-4.4,0.2-9.4,4.2-12c5.3-3.5,10.2,1.1,13.2,5.3
				C102.9,460.4,107.3,457.9,105.4,455.3L105.4,455.3z"/>
		</g>
	</g>
	<g>
		<g>
			<path class="st0" d="M545.8,420.2c4.3-3.8,11-5.9,14.4,0.3c2.4,4.3,1.2,9.3-0.9,13.5c-3.7,7.4-9.9,13.8-16.1,19.2
				c-2.4,2.1,1.1,5.6,3.5,3.5c8.7-7.6,21.4-20.2,19.7-32.9c-0.6-4.8-3.4-9.6-8.1-11.5c-6-2.4-11.6,0.4-16,4.3
				C539.8,418.8,543.4,422.3,545.8,420.2L545.8,420.2z"/>
		</g>
	</g>
	<path class="st0" d="M394.3,146c-3.1-2.9-6.4-5.5-10.3-7.6c5.5,7.8,9.2,16.8,11.2,26.5c3.3,15.8,4.2,33.1,2.1,49.1
		c-1.9,14.2-6.2,29.7-16.7,40c-10.6,10.3-25.5,15.7-39.6,18.9c-33,7.5-71.1,1.6-93-26.2c-2-2.5-5.5,1-3.5,3.5
		c20.5,26,55.5,34.1,87.2,29.5c15.9-2.3,32.6-7.1,45.9-16.6c12.7-9.1,18.8-22,22.5-36.8c4.3-17.3,3.8-35.4,1.6-52.9
		C400.4,163.8,398.2,154.5,394.3,146z"/>
	<path class="st4" d="M383.7,129.8c0,0,7.3,7.5,10.7,16.4c0,0-6.8-6.4-10.4-7.8s-3.2-7.1-3.2-7.1L383.7,129.8z"/>
	<g>
		<g>
			<path class="st3" d="M217.8,382.2c9.8-8.3,22.7-12.4,35.5-11c14.9,1.6,25.6,10.4,30,24.6c3.6,11.6,6.3,27-0.8,37.7
				c-6.6,10-19,15-30.6,15.6c-2.4,0.1-2.4,3.9,0,3.8c12.8-0.7,26.1-6.1,33.5-16.9c8.3-12.1,5.5-29.5,1.1-42.6
				c-4.9-14.5-15.9-23.6-31.1-25.7c-14.5-2-29.1,2.5-40.1,11.9C213.3,381.1,215.9,383.8,217.8,382.2L217.8,382.2z"/>
		</g>
	</g>
	<path class="st8" d="M175.7,452.4c-2.1,10.6-8.3,21.1-7.2,32.1c1.5,1.3,3.2,2.5,5.1,3.4c0.5,0.3,1.1,0.5,1.6,0.8
		c0.1-1.7,0-3.4,0.2-5c0.4-4.6,1-9.3,2.5-13.7c3-9.1,9.4-16.2,18.3-19.8c6.1-2.5,16.7-4.7,20.2,2.8c4.1,8.7-4,18.7-6.2,26.8
		c-1.1,4.2-1.2,8.7-0.2,12.9c0.2,0.7,0.4,2,0.8,3c2.2-0.5,4.3-1.2,6.3-2.3c1.2-0.7,2.5-1.4,3.8-2.1c1.8-4.1,2.9-8.5,4.7-12.6
		c2.2-5.1,7.4-9.2,11.8-7.3c0.9-4,1.1-8.2,1-11.7c-1.8-17.6-20.1-30.4-36.7-31.8c-12.1-1.1-25,2.9-33.5,11.6
		C174.8,440.2,177.1,445.4,175.7,452.4z"/>
	<path class="st8" d="M175.7,452.4c-2.1,10.6-8.3,21.1-7.2,32.1c1.5,1.3,3.2,2.5,5.1,3.4c0.5,0.3,1.1,0.5,1.6,0.8
		c0.1-1.7,0-3.4,0.2-5c0.4-4.6,1-9.3,2.5-13.7c3-9.1,9.4-16.2,18.3-19.8c6.1-2.5,16.7-4.7,20.2,2.8c4.1,8.7-4,18.7-6.2,26.8
		c-1.1,4.2-1.2,8.7-0.2,12.9c0.2,0.7,0.4,2,0.8,3c2.2-0.5,4.3-1.2,6.3-2.3c1.2-0.7,2.5-1.4,3.8-2.1c1.8-4.1,2.9-8.5,4.7-12.6
		c2.2-5.1,7.4-9.2,11.8-7.3c0.9-4,1.1-8.2,1-11.7c-1.8-17.6-20.1-30.4-36.7-31.8c-12.1-1.1-25,2.9-33.5,11.6
		C174.8,440.2,177.1,445.4,175.7,452.4z"/>
	<path class="st2" d="M217.6,221c-0.1-9.6,3.2-22.4,13.2-26.2c0.2-0.1,0.3-0.1,0.5-0.2v-0.1C229,176,235,157,246.2,142.2
		c10.7-14.2,26.7-23.2,43-29.6c1.1-0.4,2.2-0.8,3.3-1.2c0-0.2,0-0.5,0.1-0.7c2.7-6.5,6.3-12.2,11-17.2c-9.5,3.9-18.2,9.2-26,15.9
		c-1.1,1-3.4,0.4-3.2-1.3c2.1-22.8,15.5-41.2,29.7-58.3C268.2,61.3,230.7,81.1,220,120c0,0.2,0,0.4,0.1,0.6c0.2,1.9-2.1,2.3-3.2,1.2
		c-0.6-0.4-1-1.1-0.7-2c0-0.1,0.1-0.2,0.1-0.3c-1-11.3-0.1-22.4,2.6-33.4c-17.4,15.9-29.3,43.8-18.3,65.9c0.3,0.6,0.3,1.1,0.1,1.5
		c-0.1,0.6-0.5,1.1-1.2,1.4c-11.4,4.1-22.5,9.8-30.9,18.6c8.4-3.4,17.6-3.9,26.9-3.9c0.3-0.1,0.7-0.1,1,0.1c0.8,0.2,1.2,0.9,1.3,1.6
		c0.1,0.4,0,0.8-0.3,1.3c-0.1,0.1-0.1,0.2-0.2,0.2l0,0c-16.4,18.4-29.1,50.6-16.9,74.3c2.4-9.3,7.8-17.3,15.8-23
		c1.2-0.9,2.7,0.3,2.8,1.6c1.2,17.6,9.8,33.2,20.6,46.7c-0.3-10.4,2.4-20.5,7.9-29.6C221,237.6,217.7,229.5,217.6,221z"/>
	<path class="st1" d="M288,251.3c-1.4,1.9-4.7,0-3.2-1.9c2.1-2.8,4.1-5.7,6-8.6c-2-1.2-3.9-2.4-5.7-3.8c-5.7,3.4-10.6,13.3-3.8,18.2
		c7.7,5.7,18.2-1.1,19.7-9.3c0-0.1,0-0.1,0.1-0.2c-2.3-0.9-4.7-1.9-7-3.1C292.2,245.6,290.1,248.5,288,251.3z"/>
	<path class="st2" d="M245.1,150.3c-8,12.9-11.8,28.4-10.2,43.6c2.4-0.1,4.6,0.5,6.6,1.7c0.1-0.1,0.2-0.1,0.3-0.2
		c8.9-3.6,13-14.3,14.4-23.2s0.9-18.1,0.2-27v-0.1c-0.8-1.4,0.8-3.6,2.6-2.6c0.8,0.4,1.5,0.8,2.3,1.2c8.1-10.4,22-14,35.2-12.2
		c2.4,0.3,1.4,3.9-1,3.6c-11.4-1.6-23.2,1.5-30.5,10c4.4,1.3,9,1.8,13.7,1.9c5.8,0.1,12.3,0.5,17.8-1.6c5.8-2.2,10.1-6.9,15.2-10.3
		c4.3-2.8,9-4.8,13.9-6.3c15.7-4.7,36.2-5.5,52.3,1.1c-1.3-1.3-2.7-2.6-4.2-3.8c-3.6-3-7.7-5.6-12-7.7c-5.1-0.1-9.9,1.1-14,4.2
		c-1.9,1.4-3.8-1.8-1.9-3.2c2.7-2,5.8-3.3,9-4c-9.2-3.5-19.1-5.2-28.5-5.4c-16.6-0.4-31.7,4-46.5,11.1
		C265.6,127.9,253.5,136.9,245.1,150.3z"/>
	<path class="st9" d="M101.6,457.5L101.6,457.5c-3.3-4.5-8.5-9.3-14.2-5.5c-4.2,2.8-5.1,7.9-4.5,12.6c1,7,4.4,13.7,8.4,19.7
		c0.7-7.6,3.3-15.2,6.9-21.5C99.3,461,100.4,459.2,101.6,457.5z"/>
	<path class="st9" d="M241.1,486.8c0-3.3-0.7-6.2-2.4-9c-2.5-4.2-6.5-2.6-8.8,1c-3,4.9-3.9,11.1-6.5,16.3
		c-2.8,5.5-10.9,11.4-15.2,3.6c-4.2-7.6-2.8-17.5,0.4-25.1c1.9-4.5,4.4-9,5-13.9c1-8.3-6.9-8.7-12.9-7c-11,3.2-17.9,12-20.3,22.9
		c-1.1,5.1-1.1,10.1-1.4,15.2c-0.1,2.3-0.4,4.8-2.2,6.4c-5.7,5.1-10.3-4.8-11.2-9c-2-9.2,1.1-18.2,3.9-26.9c0.9-2.7,1.8-5.5,2.4-8.3
		c0.3-1.3,0.9-3.2,0.8-4.4c-0.1-1.9-2.2-4.8-4.2-5.4c-4-1.3-10.5,2.5-13.5,4.6c-8.8,6.1-13.3,16.1-16.8,25.9
		c-1.2,3.4-3.9,18.8-10.1,16.5c-2.6-1-3.4-5.2-3.9-7.4c-0.9-4.3-0.9-8.7-0.3-13c0.8-5.6,2.6-11,4.5-16.3c0.4-1.1,1.1-2.6,1.2-3.6
		c0.1-1.2,0-3.8-1.5-4.5c-1.9-1-5.9,0.4-7.8,1.1c-10.2,3.8-17.7,14.5-21.5,24.2c-4,10.1-6.1,23.4,1.4,32.4
		c6.5,7.7,16.2,13,25.4,16.7c20.8,8.4,43.5,9.1,65.6,9.8l0,0c11.6-1.9,23.7-4,33.6-10.7C234.6,512.2,241,498.8,241.1,486.8z"/>
	<path class="st10" d="M441.9,385.3c8.6,3.9,18.1,3,27.1,1.4c13.5-2.4,26-16,27.5-29.7c1.7-15.6-5.4-30.5-17.8-40
		c-16.1-11.2-40-6.9-51.9,8.5c-9.9,12.8-10.8,30.7-2.3,44.4C428.8,376.5,434.8,382.1,441.9,385.3z"/>
	<path class="st11" d="M456.6,81.8c15.2-0.9,29.3-11.2,34-25.9c4.7-14.9,0.4-34.5-15.4-40.7c-6.3-2.5-13.8-3.7-20.6-4.4
		c-6.8-0.7-14.2-0.4-19.9,3.7c-5.1,3.7-11.2,9.1-14.4,14.5c-3.9,6.6-3.9,17.2-2.7,24.5C421.4,70.7,439.3,82.7,456.6,81.8z"/>
	<path class="st9" d="M473.8,503.8c24.1-4.4,49.5-17.5,63.5-38.3c2.3-3.4,4.2-7,5.7-10.8c0-0.2,0.1-0.4,0.3-0.7
		c3.3-8.5,4.3-17.9,2.1-26.8c-2.9-11.5-12.2-23.1-24.4-25.1c-7.2-1.2-12.5,4.5-7.3,10.8c1.8,2.2,4.2,3.7,6.4,5.4
		c3.1,2.4,5.5,5,6,9.1c0.9,7.6-2,17.8-10.1,20.2c-0.9,0.3-2.2-0.3-2.3-1.3c-1.6-10.5-3.6-22.1-12.9-28.6
		c-6.5-4.5-26.5-14.5-30.1-1.8c-3.1,10.8,11.4,18.5,14.4,27.9c2.1,6.6-0.6,14.7-8.1,16c-0.8,0.1-1.8-0.1-2.1-0.9
		c-2.3-5.3-4.8-10.4-7.7-15.5c-2.9-5.1-5.9-10.9-9.8-15.2c-5.6-6.1-12.6-1.3-17.2,3.5c-5.4,5.6-3.8,10.7,0.5,16.1
		c4.7,5.8,7.8,11.6,6.7,19.3c-0.8,6.4-4.1,12-9.3,15.7c-0.3,0.5-0.7,0.8-1.3,0.9c-1,0.6-1.9,0.1-2.4-0.6
		c-11.4-4.2-14.8-16.7-19.6-26.9c-2.2-4.7-6.1-8.8-11-4.3c-3.2,3-4.7,8.1-5,12.4c-0.6,6.7,1.4,13.5,5.1,19.1
		C417.9,504.9,450.8,507.9,473.8,503.8z"/>
	<path class="st9" d="M206.9,495.9c-2.5-7.1-1.1-15.6,1.7-22.3c1.9-4.5,4.4-9,5-13.9c1-8.3-6.9-8.7-12.9-7
		c-11,3.2-17.9,12-20.3,22.9c-1.1,5.1-1.1,10.1-1.4,15.2c-0.1,1.2-0.2,2.4-0.5,3.6C187.8,495.7,197.4,496.3,206.9,495.9z"/>
	<path class="st9" d="M241,488.2c0-0.5,0-0.9,0.1-1.4c0-3.3-0.7-6.2-2.4-9c-2.5-4.2-6.5-2.6-8.8,1c-2.7,4.5-3.7,10.1-5.9,14.9
		C229.9,492.5,235.6,490.7,241,488.2z"/>
	<path class="st9" d="M160.3,491.6c2.2,0.4,4.4,0.8,6.7,1.2c-0.8-1.6-1.3-3.3-1.6-4.5c-2-9.2,1.1-18.2,3.9-26.9
		c0.9-2.7,1.8-5.5,2.4-8.3c0.3-1.3,0.9-3.2,0.8-4.4c-0.1-1.9-2.2-4.8-4.2-5.4c-4-1.3-10.5,2.5-13.5,4.6C146,454,141.5,464,138,473.8
		c-0.6,1.7-1.6,6.5-3.3,10.6C143.1,487.8,152.2,490,160.3,491.6z"/>
	<path class="st9" d="M123.4,478.4c-0.2-2.8,0-5.7,0.4-8.5c0.8-5.6,2.6-11,4.5-16.3c0.4-1.1,1.1-2.6,1.2-3.6c0.1-1.2,0-3.8-1.5-4.5
		c-1.9-1-5.9,0.4-7.8,1.1c-5,1.9-9.4,5.4-13,9.7C109.3,465.9,115.4,473.1,123.4,478.4z"/>
	<path class="st9" d="M520,418.3c3.1,2.4,5.5,5,6,9.1c0.2,1.8,0.2,3.6,0,5.5c4.8-5.9,9.2-12.1,13.2-18.6c-4.5-6.2-10.8-11-18.3-12.2
		c-7.2-1.2-12.5,4.5-7.3,10.8C515.4,415.1,517.8,416.5,520,418.3z"/>
	<path class="st9" d="M447.4,467.1c-0.8,5.8-3.6,11-8,14.7c23.3-2.9,45.7-12.3,64.2-26.9c3.5-2.7,6.8-5.6,10-8.7
		c-1.6-10.5-3.6-22.1-12.9-28.6c-6.5-4.5-26.5-14.5-30.1-1.8c-3.1,10.8,11.4,18.5,14.4,27.9c2.1,6.6-0.6,14.7-8.1,16
		c-0.8,0.1-1.8-0.1-2.1-0.9c-2.3-5.3-4.8-10.4-7.7-15.5c-2.9-5.1-5.9-10.9-9.8-15.2c-5.6-6.1-12.6-1.3-17.2,3.5
		c-5.4,5.6-3.8,10.7,0.5,16.1C445.3,453.6,448.4,459.4,447.4,467.1z"/>
	<path class="st9" d="M432.9,482.4c-10.3-4.7-13.5-16.5-18.1-26.2c-2.2-4.7-6.1-8.8-11-4.3c-3.2,3-4.7,8.1-5,12.4
		c-0.5,5.9,1,12,3.9,17.2C412.8,482.8,422.9,483.2,432.9,482.4z"/>
	<path class="st1" d="M571.1,289.6c-9.4-41-24.3-84.6-60.8-109.3c-33.8-22.9-80.7-19.5-107.2,12.8c-0.1,0.1,0,0.1,0,0
		c0.3,10.9-1.1,22.3-3.8,32.9c-3.7,14.7-9.7,27.4-22.3,36.5c-13.2,9.5-29.8,14.2-45.7,16.5c-31.5,4.6-66.2-3.5-86.6-29.3
		c-0.2-0.3-0.3-0.5-0.4-0.8c-3.9,0.6-8.4-0.8-11.7-2.4c-0.8-0.4-1.6-0.8-2.4-1.3c-6,10.1-8.3,21.5-6.8,33.1c0.2,1.6-2.2,2.5-3.2,1.3
		c-12.4-14.5-22.7-31.1-25-50.2c-6.9,5.8-11.3,14-12.5,23c-0.2,1.8-2.4,2.6-3.5,0.9c-11.2-16.6-9.2-38.2-1.4-56.9
		c-0.1,0-0.2-0.1-0.3-0.2c-18.8-13.7-43.6-13.4-64.4-4.5c-21.7,9.3-37.4,28-48.6,48.3c-10.7,19.4-18,40.7-23.8,62
		c-6.3,22.9-11.9,46.3-13.9,70c-3.7,44.5,0.8,91.5,15.6,133.9c6.5,18.8,16,37,30,51.3c15,15.4,34.8,25.3,56.2,27.5
		c20.5,2.1,41.7-2.5,58.5-14.6c15.3-11,26.7-27.1,33.4-44.6c-9.1,4.4-19.4,6.2-29.3,7.9c-0.2,0-0.4,0-0.5,0
		c-26.2-0.8-53.8-1.8-77.2-15c-9.2-5.2-19.6-12.6-21.8-23.6c-0.3-1.4-0.5-2.8-0.6-4.3c-0.1-0.1-0.2-0.2-0.4-0.4
		c-6.7-9-16.2-24.4-10.2-36c2.3-4.4,6.8-7.7,11.9-7.3c4.8,0.4,8.4,3.9,11.3,7.5c3.9-4.8,8.8-9,14.5-11.3c6-2.4,16.9-2.8,15,6.5
		c-1.2,6-4.2,11.6-5.5,17.6c-0.7,3.2-1.1,6.6-0.9,10c0.1,1.8,0.4,10,3.3,6.9c1.6-1.7,2.1-5.9,2.9-8.1c0.9-2.7,1.9-5.4,2.9-8.1
		c1.9-4.7,4-9.4,7-13.6c4.4-6.1,10.6-11.5,17.9-13.7c0.4-0.6,0.8-1.1,1.2-1.7c22.4-28.2,77.3-16.9,81.2,20.9
		c0.2,4.8-0.3,10.5-1.9,15.7c4.7,7.7,3.1,16.5,0.4,24.8c-0.8,2.3-1.6,4.5-2.7,6.6c0.6-0.3,1.4-0.5,2.3-0.5h187c0.1,0,0.2,0,0.3,0
		h1.9c0.4,0,0.8,0,1.1,0.1c0.1,0-0.1,0,0,0c0.1-0.6,0.1-0.4-0.1-0.9c-0.1-0.2-0.3-0.1-0.5-0.3c-18.4-5.3-35.3-17.1-36.3-37.5
		c-0.4-8.2,5.4-27.1,17.3-21.3c5.2,2.6,7.1,10.8,9.2,15.8c3,7.1,6.9,14.5,14.5,17.2c9.3-6.7,9.8-19.4,2.9-28.1
		c-5.5-6.9-9.1-13.7-2.5-21.4c5.7-6.6,15.7-12.9,23-5.2c7.9,8.3,13.4,20.2,18.1,30.7c8.8-2.9,2.6-14.7-1.4-19.5
		c-3.3-4-7.2-7.9-8.8-13c-2.5-8.1,1.9-15.8,10.4-17c9.2-1.3,21.7,4.8,28.2,11c7.2,6.7,9.3,16.6,10.8,25.9c2.9-1.8,4.3-5.3,5-8.8
		c1-5.2,0.4-9.5-4-12.9c-4.7-3.6-11.2-7.9-10.4-14.8c0.7-5.9,6.6-8.8,12-8.5c6.6,0.3,13.1,4.1,17.8,8.5c3,2.8,5.4,5.8,7.3,9
		c3.9-2.9,8.6-4.6,13.5-2.6c4.4,1.8,7.1,6.4,7.7,11c1.5,12.5-11,24.9-19.6,32.3c-0.1,0.1-0.2,0.2-0.3,0.2c-3.2,7.9-8,15.3-13.8,21.3
		c-19.8,20.3-49.4,31.9-77.6,31.3c-6-0.1-12.5-0.9-19-2.4c5.4,19.2,21.1,36.3,39.1,44.6c9.6,4.4,18.7,4.5,29,3.3
		c11.2-1.3,22.4-3.7,32.5-8.9c20.1-10.3,30.2-29.8,36.9-50.5c7.2-22.1,11.2-45.2,12.5-68.4C588.3,380.7,581.4,334.4,571.1,289.6z
		 M499.9,364.5c-2.9,8-8.4,15.2-15.1,20.5c-6.9,5.4-14.4,6.9-22.9,7.7c-10.2,1-19.5-0.4-28.1-6.3c-7.4-5-13.3-12.2-16.7-20.5
		c-6.9-16.7-2.4-37.1,11.2-49.2c14.2-12.6,37.2-15.1,53.1-4.1C496.4,324.3,506.8,345.5,499.9,364.5z"/>
	<path class="st12" d="M171.1,492.8c2.1,2,3.1,1.9,3.5,1.1c-1.4-0.6-2.8-1.3-4.2-2C170.6,492.2,170.8,492.5,171.1,492.8z"/>
	<path class="st9" d="M384.5,138c-9.7-6.7-21.4-8.5-33-8.5c-11.9,0-24.5,1.4-35.1,7.3c-5.1,2.8-9.1,7-14.1,10
		c-4.2,2.5-8.7,3.7-13.5,4c-8.6,0.6-17.9,0.5-26.1-2.4c-0.6,1-1.3,2.1-1.8,3.2c-0.1,0.2-0.2,0.4-0.3,0.5c0.9,16.6-0.2,38.1-15.9,46
		c2.6,2.7,4.5,6.4,5.5,10.2c0.6,2.3-3,3.3-3.6,1c-2.2-8.2-9.8-15.9-18-8.8c-5.5,4.7-7.2,13.5-7.2,20.5c0.1,8,3.2,15.8,10,20.4
		c2.9,2,6.8,3.7,10.5,3.8c5.3,0.1,6.8-3.7,8.1-8c0.7-2.3,4.3-1.3,3.6,1c-1,3.5-2.4,7.4-5.6,9.5c22.1,27.5,60.2,33.3,93.2,25.8
		c14.2-3.2,29.3-8.7,39.9-19.1c10.6-10.4,15-26,16.9-40.4c2.1-16.1,1.2-33.5-2.1-49.3C393.8,154.9,390.1,145.8,384.5,138z
		 M242.7,235.3c-2.3-2.4-4.5-4.9-6.6-7.4c-0.6,2.6-1.3,5.2-1.9,7.9c-0.7,3.1-5.5,1.8-4.8-1.3c0.9-3.8,1.8-7.6,2.8-11.4
		c-2.7-3.5-5.2-7.1-7.6-10.9c-1.7-2.7,2.6-5.2,4.3-2.5c1.6,2.5,3.2,4.9,4.9,7.2c0.8-2.9,1.7-5.9,2.6-8.8c0.9-3.1,5.8-1.8,4.8,1.3
		c-1.3,4.1-2.5,8.3-3.6,12.5c2.7,3.4,5.6,6.7,8.6,9.8C248.5,234.1,244.9,237.6,242.7,235.3z M361.2,142c5.4-1.3,10.7,2.1,12,7.4
		c1.3,5.4-2.1,10.7-7.4,12c-5.4,1.3-10.7-2.1-12-7.4S355.9,143.3,361.2,142z M292.5,153.8c5.4-1.3,10.7,2.1,12,7.4
		c1.3,5.4-2.1,10.7-7.4,12c-5.4,1.3-10.7-2.1-12-7.4C283.8,160.4,287.1,155,292.5,153.8z M356.8,248.7c-15.5,2.8-31.1,4.2-46.5,0
		c-1.8-0.5-3.8-1.1-5.7-1.7c-2,11-15.9,18.2-25.6,11.3c-8.5-6.1-4-18.6,3.2-23.8c-2.4-2.3-4.5-4.8-6.1-7.6c-1.2-2.1,2-4,3.2-1.9
		c6.5,11.3,21.6,17.6,33.7,20.6c14.2,3.6,28.6,2.1,42.9-0.4C358.2,244.7,359.2,248.3,356.8,248.7z M355.6,223.1
		c-2.4-0.3-2.4-4,0-3.8c7.2,0.8,13.8-3.3,15-10.8c0.9-5.6-2.2-10.6-6.3-14.2c-8.3-7.1-20.6-11.1-30.6-15c-2.2-0.9-1.2-4.5,1-3.6
		c7.9,3.1,15.9,6.4,23.5,10.3c5.8,3,11.6,6.9,14.6,13C378.7,211.2,368.8,224.5,355.6,223.1z"/>
	<path class="st9" d="M244.8,204.8c0.5,1.2,1,2.4,1.5,3.6C245.9,207.1,245.4,205.9,244.8,204.8z"/>
	<path class="st9" d="M247.2,210.3c1.5,3,3.3,6,5.4,8.8c6.4,8.7,14.9,15.7,24.2,21.3c1.4-2.4,3.2-4.5,5.3-6
		c-2.4-2.3-4.5-4.8-6.1-7.6c-1.2-2.1,2-4,3.2-1.9c6.5,11.3,21.6,17.6,33.7,20.6c14.2,3.6,28.6,2.1,42.9-0.4c2.4-0.4,3.4,3.2,1,3.6
		c-15.5,2.8-31.1,4.2-46.5,0c-1.8-0.5-3.8-1.1-5.7-1.7c-0.3,1.8-1,3.6-1.9,5.1c5.1,1.7,10.2,3.2,15.2,4.4
		c16.9,4.1,37.1,7.2,55.4,4.1c2.8-1.9,5.4-3.9,7.8-6.3c10.6-10.4,15-26,16.9-40.4c2.1-16.1,1.2-33.5-2.1-49.3
		c-2-9.8-5.7-18.9-11.3-26.7c-9.7-6.7-21.4-8.5-33-8.5c-11.9,0-24.5,1.4-35.1,7.3c-5.1,2.8-9.1,7-14.1,10c-4.2,2.5-8.7,3.7-13.5,4
		c-8.6,0.6-17.9,0.5-26.1-2.4c-0.6,1-1.3,2.1-1.8,3.2c-0.1,0.2-0.2,0.4-0.3,0.5c0.9,16.6-0.2,38.1-15.9,46c2.6,2.7,4.5,6.4,5.5,10.2
		C250.7,210.2,248.5,211.2,247.2,210.3z M361.2,142c5.4-1.3,10.7,2.1,12,7.4c1.3,5.4-2.1,10.7-7.4,12c-5.4,1.3-10.7-2.1-12-7.4
		S355.9,143.3,361.2,142z M334.7,175.7c7.9,3.1,15.9,6.4,23.5,10.3c5.8,3,11.6,6.9,14.6,13c5.9,12.1-3.9,25.4-17.1,24
		c-2.4-0.3-2.4-4,0-3.8c7.2,0.8,13.8-3.3,15-10.8c0.9-5.6-2.2-10.6-6.3-14.2c-8.3-7.1-20.6-11.1-30.6-15
		C331.5,178.5,332.5,174.9,334.7,175.7z M292.5,153.8c5.4-1.3,10.7,2.1,12,7.4c1.3,5.4-2.1,10.7-7.4,12c-5.4,1.3-10.7-2.1-12-7.4
		C283.8,160.4,287.1,155,292.5,153.8z"/>
	<path class="st9" d="M548.3,449.3c4.5-4.4,8.7-9.4,11.5-15c2.2-4.3,3.5-9.6,0.9-14.1c-3.4-6.1-9.7-4.8-14.3-1.3
		C550.8,428.3,551,439,548.3,449.3z"/>
	<path class="st0" d="M358.2,186.1c-7.6-3.9-15.5-7.2-23.5-10.3c-2.2-0.9-3.2,2.7-1,3.6c10,3.9,22.3,7.9,30.6,15
		c4.1,3.6,7.2,8.6,6.3,14.2c-1.1,7.4-7.8,11.5-15,10.8c-2.4-0.3-2.4,3.5,0,3.8c13.2,1.4,23-11.9,17.1-24
		C369.8,193,364,189.1,358.2,186.1z"/>
	<path class="st4" d="M297.1,173.1c5.4-1.3,8.7-6.6,7.4-12c-1.3-5.4-6.6-8.7-12-7.4s-8.7,6.6-7.4,12
		C286.3,171.1,291.7,174.4,297.1,173.1z"/>
	<ellipse class="st4" cx="363.5" cy="151.7" rx="10" ry="10"/>
	<g>
		<g>
			<path class="st3" d="M291.6,239.7c-2.2,3.3-4.4,6.6-6.8,9.8c-1.4,1.9,1.8,3.8,3.2,1.9c2.4-3.2,4.6-6.4,6.8-9.8
				C296.1,239.5,292.9,237.6,291.6,239.7L291.6,239.7z"/>
		</g>
	</g>
	<g>
		<g>
			<path class="st4" d="M243,199.6c20.3-8.3,19.2-36.4,17.8-54.4c-0.2-3.2-5.2-3.2-5,0c0.7,8.9,1.2,18-0.2,26.8
				c-1.3,8.6-5.3,19.2-14,22.7C238.7,196,240,200.8,243,199.6L243,199.6z"/>
		</g>
	</g>
	<g>
		<g>
			<path class="st4" d="M256.8,146.4c9.6,5.4,21.3,5.7,32.1,5c4.9-0.3,9.6-1.5,13.8-4.1c4.9-3,9-7.2,14.1-10
				c10.5-5.9,22.9-7.2,34.8-7.2c11.8,0,23.8,1.8,33.5,9c2.6,1.9,5.1-2.4,2.5-4.3c-16.7-12.2-43-12.1-62.1-6.4
				c-4.9,1.5-9.7,3.5-14,6.4c-5,3.3-9.3,8-15,10.2c-5.4,2.1-11.9,1.7-17.6,1.6c-6.8-0.2-13.4-1-19.5-4.4
				C256.5,140.5,254,144.8,256.8,146.4L256.8,146.4z"/>
		</g>
	</g>
	<g>
		<g>
			<path class="st0" d="M224.6,212.2c5.3,8.3,11.3,16,18.1,23.1c2.2,2.3,5.8-1.2,3.5-3.5c-6.5-6.8-12.3-14.2-17.4-22.1
				C227.2,207,222.8,209.5,224.6,212.2L224.6,212.2z"/>
		</g>
	</g>
	<g>
		<g>
			<path class="st0" d="M236.4,208.1c-2.7,8.7-5,17.5-7,26.4c-0.7,3.1,4.1,4.5,4.8,1.3c2-8.9,4.3-17.7,7-26.4
				C242.1,206.4,237.3,205,236.4,208.1L236.4,208.1z"/>
		</g>
	</g>
	<ellipse class="st4" cx="294.8" cy="163.5" rx="10" ry="10"/>
	<ellipse class="st4" cx="363.5" cy="151.7" rx="10" ry="10"/>
	<g>
		<path class="st6" d="M167.7,483.8v0.1c-0.7,1.7-1.4,3.3-1.9,5c3.2,2.5,6.9,4.3,10.8,5.8c0-0.5,0-1.1,0-1.6c0.2-1,0.6-1.9,1-2.9
			c0.1-0.1,0.1-0.2,0.2-0.3c-1.4-0.6-2.7-1.2-4.1-1.9C171.4,486.8,169.4,485.4,167.7,483.8z"/>
		<path class="st6" d="M243.6,459.9c-3.9-37.8-58.9-49.1-81.2-20.9c-1,1.3-1.9,2.6-2.8,4.1c0.8-0.3,1.5-0.6,2.3-1
			c0.2-0.1,0.4-0.2,0.6-0.2c0.8-0.9,2-1.5,3.5-1.5c0.6,0,1.1,0.1,1.5,0.2c8.5-9.4,21.9-13.7,34.4-12.6c16.6,1.5,34.9,14.3,36.7,31.8
			c0.2,4-0.2,9-1.4,13.6c1.9,0.2,3.1,1.4,3.7,2.8c0.2,0.2,0.3,0.3,0.5,0.5C243.2,471.2,243.8,465,243.6,459.9z"/>
		<path class="st6" d="M221.4,491.2c-1.4,0.8-2.8,1.6-4.1,2.3c-2.4,1.3-4.9,2.1-7.4,2.5c0.5,0.9,0.7,2,0.6,3c0.4,0.5,0.8,1.1,1,1.8
			c0.3,0,0.6-0.1,0.8-0.2c2.2-0.5,4.2-1.3,6.1-2.2c0.9-1.2,1.8-2.3,2.8-3.4c0.2-0.2,0.4-0.5,0.7-0.7
			C221.3,493.4,221.2,492.3,221.4,491.2z"/>
	</g>
	<g>
		<g>
			<path class="st7" d="M481.3,312.6c-15.9-11-38.9-8.5-53.1,4.1c-13.6,12-18.1,32.5-11.2,49.2c3.4,8.3,9.3,15.4,16.7,20.5
				c8.6,5.9,17.9,7.3,28.1,6.3c8.5-0.8,16.1-2.3,22.9-7.7c6.7-5.3,12.2-12.5,15.1-20.5C506.8,345.5,496.4,324.3,481.3,312.6
				c-2.5-2-5,2.4-2.5,4.3c12.3,9.5,19.5,24.4,17.8,40c-1.5,13.7-14,27.3-27.5,29.7c-9,1.6-18.5,2.5-27.1-1.4
				c-7.1-3.3-13.2-8.8-17.3-15.4c-8.5-13.7-7.6-31.6,2.3-44.4c11.9-15.4,35.7-19.7,51.9-8.5C481.4,318.8,483.9,314.5,481.3,312.6z"
				/>
		</g>
	</g>
	<g>
		<g>
			<path class="st4" d="M261.5,151.9c6-13.1,20.2-18,33.9-16.1c3.1,0.4,4.5-4.4,1.3-4.8c-15.7-2.2-32.5,3.2-39.5,18.4
				C255.8,152.3,260.1,154.8,261.5,151.9L261.5,151.9z"/>
		</g>
	</g>
	<g>
		<g>
			<path class="st4" d="M347.9,123.3c4.2-3.1,8.9-4.2,14.2-4.1c5.4,0.1,12.1,0.9,16.8,3.6c2.8,1.6,5.3-2.7,2.5-4.3
				c-5.6-3.2-13-4.1-19.3-4.3c-6-0.1-11.8,1.2-16.7,4.8C342.8,120.8,345.3,125.2,347.9,123.3L347.9,123.3z"/>
		</g>
	</g>
	<g>
		<g>
			<path class="st0" d="M191.5,533.3c11.1-1.9,22.6-3.8,32.5-9.5c9.2-5.3,14.9-13.4,18.1-23.4c2.9-8.7,4.5-17.9-1-25.9
				c-4.9-7.1-12.4-2.3-15.3,4.2c-2.3,5.1-3.3,10.7-6.2,15.6c-1.3,2.2-4.4,7.1-8.1,2.4c-0.7-0.8-1.1-3.1-1.3-4
				c-1-4.2-0.9-8.7,0.2-12.9c2.1-8.1,10.3-18.1,6.2-26.8c-3.6-7.5-14.2-5.3-20.2-2.8c-8.9,3.6-15.3,10.7-18.3,19.8
				c-1.5,4.4-2.1,9-2.5,13.7c-0.2,2.4-0.1,4.8-0.3,7.1c-0.3,2.4-0.1,5.5-4,1.9c-1.3-1.2-1.7-3.9-2.1-5.5c-2.6-12,4.4-23.4,6.7-34.9
				c1.6-8.1-1.7-13.8-10.5-12.7c-9.1,1.2-16.8,7.4-22,14.6c-3,4.2-5.1,8.8-7,13.6c-1.1,2.7-2,5.4-2.9,8.1c-0.8,2.2-1.3,6.4-2.9,8.1
				c-2.9,3.2-3.2-5-3.3-6.9c-0.2-3.3,0.3-6.7,0.9-10c1.3-6,4.2-11.6,5.5-17.6c1.9-9.4-9-8.9-15-6.5c-8.8,3.5-15.6,11.5-20.2,19.6
				c-5.2,9.3-8.6,21.3-6.4,32c2.2,11,12.6,18.4,21.8,23.6c23.5,13.2,51.2,14.2,77.4,15c2.4,0.1,2.4-3.7,0-3.8
				c-22.1-0.7-44.8-1.4-65.6-9.8c-9.2-3.7-18.9-9.1-25.4-16.7c-7.6-9-5.4-22.3-1.4-32.4c3.9-9.7,11.4-20.4,21.5-24.2
				c1.9-0.7,5.9-2,7.8-1.1c1.5,0.8,1.6,3.3,1.5,4.5c-0.1,1-0.9,2.5-1.2,3.6c-1.8,5.3-3.7,10.7-4.5,16.3c-0.6,4.3-0.7,8.7,0.3,13
				c0.5,2.2,1.3,6.5,3.9,7.4c6.2,2.3,8.9-13.1,10.1-16.5c3.5-9.8,8-19.7,16.8-25.9c3-2.1,9.5-5.9,13.5-4.6c2,0.7,4.1,3.6,4.2,5.4
				c0.1,1.2-0.5,3.1-0.8,4.4c-0.7,2.8-1.6,5.6-2.4,8.3c-2.8,8.6-5.9,17.7-3.9,26.9c0.9,4.3,5.5,14.1,11.2,9c1.8-1.6,2.1-4.2,2.2-6.4
				c0.3-5.1,0.3-10.2,1.4-15.2c2.4-11,9.3-19.7,20.3-22.9c6-1.7,13.9-1.3,12.9,7c-0.6,4.9-3.1,9.4-5,13.9
				c-3.2,7.6-4.6,17.5-0.4,25.1c4.3,7.8,12.4,1.9,15.2-3.6c2.6-5.1,3.5-11.4,6.5-16.3c2.2-3.6,6.3-5.2,8.8-1c1.7,2.9,2.4,5.7,2.4,9
				c0,12-6.5,25.4-16.4,32.1c-10.1,6.9-22.5,8.8-34.2,10.8C188.1,530.1,189.1,533.7,191.5,533.3L191.5,533.3z"/>
		</g>
	</g>
	<g>
		<g>
			<path class="st0" d="M104.8,455.6c-3-4.1-6.8-8.2-12.1-8.7c-5.2-0.5-9.6,2.8-11.9,7.3c-5.9,11.5,3.5,26.9,10.2,36
				c1.4,1.9,4.7,0,3.2-1.9c-5.1-6.8-10.1-15.1-11.3-23.7c-0.6-4.7,0.3-9.8,4.5-12.6c5.6-3.7,10.9,1,14.1,5.5
				C103,459.4,106.2,457.5,104.8,455.6L104.8,455.6z"/>
		</g>
	</g>
	<g>
		<g>
			<path class="st0" d="M545.3,419.8c4.6-4.1,11.7-6.1,15.4,0.4c2.5,4.5,1.3,9.8-0.9,14.1c-3.8,7.4-10,13.9-16.2,19.3
				c-1.8,1.6,0.8,4.2,2.7,2.7c8.6-7.4,21.1-19.8,19.6-32.3c-0.6-4.6-3.2-9.2-7.7-11c-5.7-2.4-11.1,0.4-15.4,4.2
				C540.9,418.7,543.5,421.4,545.3,419.8L545.3,419.8z"/>
		</g>
	</g>
	<path class="st4" d="M383.7,129.8c0,0,7.3,7.5,10.7,16.4c0,0-6.8-6.4-10.4-7.8s-3.2-7.1-3.2-7.1L383.7,129.8z"/>
	<g>
		<g>
			<path class="st0" d="M250.2,208.3c-2.3-8.7-9.5-17.3-19.4-13.5s-13.2,16.6-13.2,26.2c0.1,10.7,5.2,20.9,15.2,25.5
				c3.9,1.8,9.4,3.5,13.6,1.9c4.3-1.6,5.9-6.2,7.1-10.3c0.7-2.3-2.9-3.3-3.6-1c-1.3,4.3-2.8,8.2-8.1,8c-3.6-0.1-7.5-1.8-10.5-3.8
				c-6.8-4.6-9.9-12.4-10-20.4c0-7,1.7-15.7,7.2-20.5c8.2-7.1,15.8,0.6,18,8.8C247.2,211.6,250.8,210.6,250.2,208.3L250.2,208.3z"/>
		</g>
	</g>
	<g>
		<g>
			<path class="st3" d="M283.6,233.5c-8,4.4-13.7,18.2-4.6,24.7c9.7,7,23.7-0.3,25.6-11.3c0.4-2.4-3.2-3.4-3.6-1
				c-1.5,8.3-12,15-19.7,9.3c-6.9-5.1-1.6-15.2,4.2-18.4C287.6,235.6,285.7,232.4,283.6,233.5L283.6,233.5z"/>
		</g>
	</g>
	<g>
		<g>
			<path class="st4" d="M275.5,227.2c6.8,11.9,22,18.7,34.6,22.2c15.5,4.2,31.2,2.8,46.8,0c3.2-0.6,1.8-5.4-1.3-4.8
				c-14.2,2.5-28.4,3.9-42.5,0.4c-11.9-3-26.9-9.2-33.3-20.3C278.2,221.8,273.9,224.4,275.5,227.2L275.5,227.2z"/>
		</g>
	</g>
</g>
<g class="st13">
	<g>
		<path class="st14" d="M487.6,288c13.7-27.7,19.4-58.1,21.2-88.8c0.9-15.6,1.5-31.7,0.2-47.3c-1.3-15.9-5.2-31.5-11.1-46.4
			c-0.6-1.5-3-0.8-2.4,0.7c5.8,14.7,9.7,30,11,45.8c1.3,15,0.6,30.5-0.1,45.5c-1.6,30.8-7.1,61.5-20.9,89.3
			C484.7,288.2,486.9,289.5,487.6,288L487.6,288z"/>
	</g>
</g>
<g class="st13">
	<g>
		<path class="st14" d="M249.9,451.9c59.2,2.7,123.9-3.2,169.2-45.6c1.2-1.1-0.6-2.9-1.8-1.8c-44.9,42-109,47.5-167.5,44.9
			C248.3,449.3,248.3,451.8,249.9,451.9L249.9,451.9z"/>
	</g>
</g>
<g class="st13">
	<g>
		<path class="st14" d="M107.3,130c-22.1,73.7-20.1,153.9,5.1,226.6c7,20.3,15.9,40,26.4,58.7c0.8,1.4,2.9,0.1,2.2-1.3
			c-37.2-66.2-52.6-143.8-44.3-219.3c2.4-21.7,6.8-43.2,13.1-64.1C110.1,129.1,107.7,128.5,107.3,130L107.3,130z"/>
	</g>
</g>
<g class="st13">
	<g>
		<path class="st14" d="M131,141.3c-14.8,60.1-12.1,123.7,7.6,182.4c0.5,1.5,2.9,0.9,2.4-0.7c-19.6-58.2-22.3-121.4-7.6-181
			C133.8,140.4,131.4,139.8,131,141.3L131,141.3z"/>
	</g>
</g>
<g class="st13">
	<g>
		<path class="st14" d="M459.5,71.8C474.6,112,480,155.3,475.4,198c-0.2,1.6,2.3,1.6,2.5,0c4.7-42.9-0.8-86.4-16-126.8
			C461.4,69.7,459,70.3,459.5,71.8L459.5,71.8z"/>
	</g>
</g>
<g class="st13">
	<g>
		<path class="st14" d="M395.6,374.3c-31.6,23.5-70.2,36.3-109.6,36.2c-1.6,0-1.6,2.5,0,2.5c39.8,0,78.9-12.9,110.9-36.6
			C398.2,375.5,396.9,373.3,395.6,374.3L395.6,374.3z"/>
	</g>
</g>
<g class="st13">
	<g>
		<path class="st14" d="M158.2,47c25.2-24.3,57.4-40.3,92-45.8c1.6-0.3,0.9-2.7-0.7-2.4c-35,5.6-67.6,21.9-93.1,46.5
			C155.2,46.4,157,48.1,158.2,47L158.2,47z"/>
	</g>
</g>
<g class="st13">
	<g>
		<path class="st14" d="M179.2,71.4c14.7-14.1,32.5-25,50.7-34.1s37.6-16.7,57.8-19.9c1.6-0.3,0.9-2.7-0.7-2.4
			c-20.3,3.3-40,11-58.4,20.2s-36.3,20.2-51.2,34.5C176.3,70.8,178,72.6,179.2,71.4L179.2,71.4z"/>
	</g>
</g>
<g>
	<path class="st15" d="M123.2,163c4.3,0.9,8.8,0.9,13.1,0.2c14.9-2.2,28-11.8,33.7-24.9s3.6-29.2-5.2-41.4s-24.4-19.8-39.6-19.5
		c-4.5,0.1-9,0.9-13,2.7C106.6,82.7,98.3,87,95,91.8c-7.5,10.8-14.6,24.9-8.5,38.7c2.8,6.3,8.3,17.5,12.7,21.8
		C105.5,158.7,114.1,161.1,123.2,163z"/>
	<g>
		<path class="st16" d="M122.5,165.4c18.8,3.4,39.4-6.2,48.3-23.3c8.8-16.8,4.7-38.1-8.3-51.6c-13.1-13.6-35.2-20.2-52.8-12.1
			c-8.6,3.9-15.1,8.7-20,16.8c-5.2,8.5-9.2,18.4-7.7,28.6c1.3,9.3,7.3,19.7,12.8,27.2C101.5,159.9,112.1,163.2,122.5,165.4
			c3.1,0.7,4.5-4.1,1.3-4.8c-8.2-1.8-16.9-3.9-23-10.1c-4.8-4.9-7.9-11.9-10.8-18c-4.3-9-4.2-17.8-0.2-27
			c3.4-7.9,7.9-14.6,15.4-19.1c7.4-4.4,14.9-7,23.6-6.4c8.2,0.5,16.3,3.5,23.1,8.1c14.5,9.8,22.2,28.2,17.1,45.2
			c-5.5,18.6-26.3,30.7-45.2,27.2C120.7,160,119.4,164.9,122.5,165.4z"/>
	</g>
</g>
<path class="st15" d="M152,88.2c-6.8-4.6-14.8-7.6-23.1-8.1c-8.7-0.6-16.2,2-23.6,6.4c-7.5,4.4-11.9,11.2-15.4,19.1
	c-4,9.2-4.1,17.9,0.2,27c2.9,6.1,6,13.1,10.8,18c6.1,6.2,14.8,8.3,23,10.1c18.9,3.4,39.7-8.6,45.2-27.2
	C174.1,116.3,166.4,98,152,88.2z"/>
<g>
	<path class="st15" d="M123.2,163c4.3,0.9,8.8,0.9,13.1,0.2c14.9-2.2,28-11.8,33.7-24.9s3.6-29.2-5.2-41.4s-24.4-19.8-39.6-19.5
		c-4.5,0.1-9,0.9-13,2.7C106.6,82.7,98.3,87,95,91.8c-7.5,10.8-14.6,24.9-8.5,38.7c2.8,6.3,8.3,17.5,12.7,21.8
		C105.5,158.7,114.1,161.1,123.2,163z"/>
	<g>
		<path class="st16" d="M122.7,164.8c18.6,3.4,38.8-6.1,47.6-23c8.7-16.6,4.6-37.6-8.2-50.8c-12.9-13.3-34.7-20-52.1-12
			c-8.5,3.9-14.9,8.6-19.8,16.6c-5.2,8.4-9.1,18.2-7.6,28.3c1.3,9.2,7.3,19.5,12.8,26.8C101.9,159.5,112.5,162.6,122.7,164.8
			c2.4,0.5,3.4-3.1,1-3.6c-8.3-1.8-17.1-4-23.2-10.2c-4.8-4.9-8-12-10.9-18.1c-4.4-9.2-4.3-18.2-0.2-27.5c3.5-8,8-14.9,15.6-19.4
			c7.5-4.5,15.1-7.1,23.9-6.5c8.3,0.5,16.5,3.5,23.4,8.2c14.7,9.9,22.5,28.6,17.4,45.9c-5.6,19-26.7,31.2-46,27.7
			C121.3,160.8,120.3,164.4,122.7,164.8z"/>
	</g>
</g>
<g>
	<g>
		<path class="st5" d="M417.2,30.3c0.4,14.9,4.5,29.8,15.9,40c0.9,0.8,2.5,0,2.1-1.2c-3.2-9-4.3-18.3-3.1-27.8
			c-0.8,0.1-1.6,0.2-2.5,0.3c3.4,8.7,9.6,15.2,16.1,21.7c0.9,0.9,2.5,0,2.1-1.2c-5-15.9-6.6-32.4-4.7-49c0.2-1.6-2.3-1.6-2.5,0
			c-1.9,16.8-0.3,33.6,4.8,49.7c0.7-0.4,1.4-0.8,2.1-1.2c-6.1-6.1-12.2-12.4-15.4-20.6c-0.5-1.3-2.3-1.1-2.5,0.3
			c-1.1,9.7-0.1,19.3,3.2,28.5c0.7-0.4,1.4-0.8,2.1-1.2c-11-9.8-14.9-24-15.2-38.3C419.7,28.7,417.2,28.7,417.2,30.3L417.2,30.3z"/>
	</g>
</g>
<g>
	<g>
		<path class="st5" d="M448.5,9c-0.2,12.3,2.1,24.5,7.1,35.8c1.3,2.9,3.6,10.8,7.7,10.9c4.1,0.2,9.2-4.4,12.2-6.8
			c1.3-1-0.5-2.8-1.8-1.8c-1.8,1.4-4.2,3.5-6.4,4.3c-3.9,1.5-5.6-0.1-7.3-3.3c-2.1-4-3.8-8.1-5.2-12.4C452,27,450.8,18,451,8.9
			C451,7.3,448.5,7.3,448.5,9L448.5,9z"/>
	</g>
</g>
<g>
	<g>
		<path class="st5" d="M453.2,28.9c2.9-1.8,6-3,9.4-3.6c1.6-0.3,0.9-2.7-0.7-2.4c-3.6,0.6-6.9,1.9-10,3.8
			C450.6,27.6,451.9,29.8,453.2,28.9L453.2,28.9z"/>
	</g>
</g>
<g>
	<g>
		<path class="st5" d="M450.8,11.6c1.2-0.6,2.5-1,3.8-1.1c0.7-0.1,1-0.9,0.9-1.5c-0.2-0.7-0.9-1-1.5-0.9c-1.6,0.2-3,0.7-4.4,1.4
			C448.1,10.1,449.4,12.3,450.8,11.6L450.8,11.6z"/>
	</g>
</g>
<g>
	<g>
		<path class="st5" d="M473.4,13.6c4.7,11,7.5,22.5,8.4,34.5c0.1,0.7,0.8,1.5,1.6,1.2c11.2-4.5,10.1-20.3-2.1-22.5
			c0.1,0.8,0.2,1.5,0.3,2.3c3.3-2.2,4.9-5.2,5-9.1c0-1.6-2.5-1.6-2.5,0c0,3-1.1,5.2-3.7,7c-0.8,0.5-0.8,2.1,0.3,2.3
			C490,31,492,43.2,482.8,47c0.5,0.4,1.1,0.8,1.6,1.2c-1-12.4-3.9-24.3-8.7-35.7C474.9,10.9,472.7,12.1,473.4,13.6L473.4,13.6z"/>
	</g>
</g>
<g>
	<path class="st15" d="M88.5,117c1.3-8.8,3.1-17.8,9.5-24s14.7-10.4,23.3-12.6c0.5-0.1,0.9-0.2,1.4-0.1c0.6,0.1,1.2,0.6,1.6,1.1
		c3.4,4,3.1,10.6-0.3,14.6s-9.3,5.5-14.5,4.2c-4.2-1.1-8-4.3-8.9-8.6"/>
	<g>
		<path class="st16" d="M89.7,117.3c1-6.5,2.1-13.2,5.5-18.9c3.7-6,10.2-10.3,16.5-13.3c3.1-1.5,9-4.7,12.3-2.1
			c2.9,2.3,1.3,8.8-0.3,11.2c-5.3,8.1-19.2,6.1-21.9-3.1c-0.4-1.5-2.9-0.9-2.4,0.7c2.5,8.6,12.6,12.2,20.5,8.6
			c7-3.1,11.3-13.4,5.4-19.8c-2.7-2.9-5.9-1.2-9.2-0.1c-5.4,1.9-10.5,4.5-15,8c-9.3,7.2-12.2,16.8-13.9,28
			C87.1,118.3,89.5,118.9,89.7,117.3L89.7,117.3z"/>
	</g>
</g>
<g>
	<path class="st15" d="M96,123.2c8.6-13.1,23.3-22.1,38.9-23.8c2.8-0.3,8.3,0,9.5,2.6c0.8,1.8-2,4-3.2,5.7c-2.6,3.4-7,5.2-11.2,4.7
		s-8-3.4-9.7-7.3c-2.4,9.6-5.4,19.1-9,28.4"/>
	<g>
		<path class="st16" d="M97.1,123.8c7.2-10.7,18.1-18.6,30.7-21.8c3.3-0.9,17.9-4,13.2,3.9c-4.7,8.1-16,5.9-19.7-1.6
			c-0.5-1-2-0.7-2.3,0.3c-2.4,9.7-5.4,19.1-9,28.4c-0.6,1.5,1.8,2.2,2.4,0.7c3.6-9.3,6.6-18.8,9-28.4c-0.8,0.1-1.5,0.2-2.3,0.3
			c3.7,7.3,12.4,10.3,19.5,5.9c4.2-2.6,11-9.9,3.5-12.7c-7.5-2.8-17.8,1-24.6,4.2c-9.2,4.3-16.9,11.1-22.6,19.5
			C94,123.9,96.2,125.1,97.1,123.8L97.1,123.8z"/>
	</g>
</g>
<g>
	<path class="st15" d="M146.9,114.1c-6.2,11.1-16.5,19.9-28.5,24.3"/>
	<g>
		<path class="st16" d="M145.8,113.5c-6.3,10.9-15.9,19.2-27.7,23.7c-1.5,0.6-0.8,3,0.7,2.4c12.4-4.7,22.6-13.3,29.2-24.8
			C148.8,113.4,146.6,112.1,145.8,113.5L145.8,113.5z"/>
	</g>
</g>
<g>
	<path class="st15" d="M123.9,145.9c11.5-6.1,23.5-12.8,29.9-24.1c-2.7,12.6-9.3,24.2-18.7,33c10.1-5.4,20.8-11.4,25.6-21.8"/>
	<g>
		<path class="st16" d="M124.6,147c11.6-6.2,23.5-12.9,30.4-24.6c-0.8-0.3-1.5-0.6-2.3-1c-2.9,12.5-9.1,23.6-18.3,32.5
			c-1,1,0.3,2.6,1.5,2c10.2-5.5,20.7-11.5,26.1-22.2c0.7-1.4-1.4-2.7-2.2-1.3c-5.2,10.4-15.4,16.1-25.2,21.3c0.5,0.7,1,1.3,1.5,2
			c9.5-9.2,16-20.7,19-33.6c0.3-1.4-1.5-2.2-2.3-1c-6.7,11.3-18.2,17.7-29.5,23.7C121.9,145.6,123.2,147.7,124.6,147L124.6,147z"/>
	</g>
</g>
<g>
	<path class="st15" d="M163.7,137.3c1.1,1.9,2.6,3.6,4.2,5"/>
	<g>
		<path class="st16" d="M162.7,137.9c1.2,2,2.7,3.8,4.4,5.3c1.2,1.1,3-0.7,1.8-1.8c-1.6-1.4-2.9-3-4-4.8
			C164,135.3,161.8,136.5,162.7,137.9L162.7,137.9z"/>
	</g>
</g>
<g>
	<path class="st15" d="M164.7,141.5c-6.8,7.7-15.4,13.9-24.9,17.7"/>
	<g>
		<path class="st16" d="M163.8,140.6c-6.8,7.6-15,13.5-24.3,17.4c-1.5,0.6-0.8,3,0.7,2.4c9.8-4.1,18.3-10.1,25.4-18
			C166.6,141.2,164.9,139.4,163.8,140.6L163.8,140.6z"/>
	</g>
</g>
<g>
	<g>
		<g>
			<defs>
				<path id="SVGID_1_" d="M175.7,452.4c-2.1,10.6-8.3,21.1-7.2,32.1c1.5,1.3,3.2,2.5,5.1,3.4c0.5,0.3,1.1,0.5,1.6,0.8
					c0.1-1.7,0-3.4,0.2-5c0.4-4.6,1-9.3,2.5-13.7c3-9.1,9.4-16.2,18.3-19.8c6.1-2.5,16.7-4.7,20.2,2.8c4.1,8.7-4,18.7-6.2,26.8
					c-1.1,4.2-1.2,8.7-0.2,12.9c0.2,0.7,0.4,2,0.8,3c2.2-0.5,4.3-1.2,6.3-2.3c1.2-0.7,2.5-1.4,3.8-2.1c1.8-4.1,2.9-8.5,4.7-12.6
					c2.2-5.1,7.4-9.2,11.8-7.3c0.9-4,1.1-8.2,1-11.7c-1.8-17.6-20.1-30.4-36.7-31.8c-12.1-1.1-25,2.9-33.5,11.6
					C174.8,440.2,177.1,445.4,175.7,452.4z"/>
			</defs>
			<clipPath id="SVGID_2_">
				<use xlink:href="#SVGID_1_"  style="overflow:visible;"/>
			</clipPath>
			<g class="st17">
				<path class="st6" d="M177.5,449.5c-4.2,9.5-8.6,19-13.4,28.2c-0.7,1.4,1.4,2.7,2.2,1.3c4.8-9.3,9.2-18.7,13.4-28.2
					C180.3,449.3,178.2,448,177.5,449.5z"/>
				<path class="st6" d="M182,450.9c-2,10.2-3.2,20.5-3.6,30.9c-0.1,1.6,2.4,1.6,2.5,0c0.4-10.2,1.5-20.2,3.5-30.2
					C184.7,450,182.3,449.3,182,450.9z"/>
				<path class="st6" d="M190,449.9c-0.6-0.1-1.2,0.2-1.3,0.9c-1.3,4.9-2.4,9.9-3.2,15c-0.3,1.6,2.1,2.2,2.4,0.7
					c0.7-4.1,1.6-8.2,2.6-12.3c1,1.8,1.6,3.8,1.8,5.8c0.2,1.6,2.7,1.6,2.5,0c-0.3-3.6-1.6-6.7-3.8-9.6
					C190.7,450,190.4,449.9,190,449.9z"/>
				<path class="st6" d="M210.7,483.4c-3.3-0.2-6.2,0.2-9.2,1.1c1.1-9.8,1.7-19.6,1.8-29.5c0-1.6-2.5-1.6-2.5,0
					c-0.1,10.5-0.8,20.9-2,31.3c-0.1,0.8,0.9,1.5,1.6,1.2c3.4-1.2,6.7-1.7,10.3-1.6C212.3,486,212.3,483.5,210.7,483.4z"/>
				<path class="st6" d="M214.3,468.9c-1.5,0-3,0-4.5,0c-1.6,0-1.6,2.5,0,2.5c1.5,0,3,0,4.5,0C215.9,471.4,215.9,468.9,214.3,468.9z
					"/>
				<path class="st6" d="M232.6,456.5c-4.6-4.5-9.6,0.3-11.5,4.8c-3,6.8-3.8,14.8-0.7,21.9c2.6,5.9,10.2,3,13.6-0.6
					c1.1-1.2-0.7-2.9-1.8-1.8c-2.4,2.5-7,5.3-9.8,0.2c-0.8-1.4-1.2-5.6-1.3-6.8c-0.3-3.6,0.4-6.8,1.6-10.1c0.5-1.3,0.9-3.2,1.9-4.2
					c5.7-5.4,7.6-0.4,8.4,2.8c1.1,4.3,0.6,8.9-0.5,13.1c-0.4,1.6,2,2.2,2.4,0.7C236.5,470.6,237.5,461.2,232.6,456.5z"/>
				<path class="st6" d="M204.4,449c2.4-2.2,4.8-4.2,7.4-6.1c1.3-0.9,0-3.1-1.3-2.2c-2.8,2-5.4,4.2-7.9,6.5
					C201.4,448.3,203.2,450.1,204.4,449z"/>
			</g>
		</g>
	</g>
</g>
<g>
	<path class="st7" d="M450,362c-1.2,6.8-3.2,13.3-6,19.6c-0.8-7.1-2-14-3.6-20.9c-0.4-1.6-2.8-0.9-2.4,0.7c2,8.2,3.3,16.5,4,25
		c0.1,1.1,1.7,1.8,2.3,0.6c3.9-7.7,6.6-15.7,8.1-24.2C452.7,361.1,450.3,360.4,450,362z"/>
	<path class="st7" d="M457.1,364.8c-1.7,7.6-3.7,15.1-6,22.5c-0.5,1.5,1.9,2.2,2.4,0.7c2.3-7.4,4.3-14.9,6-22.5
		C459.8,363.9,457.4,363.2,457.1,364.8z"/>
	<path class="st7" d="M462.5,370.7c-0.8,2.4,0.7,4.4,2.4,6c2.7,2.3,5.4,4.6,2.8,8.1c-2.3,3.2-6.1,2.8-9.6,2.3
		c-1.6-0.2-1.6,2.3,0,2.5c4.9,0.6,11.6,0.2,13.1-5.6c0.6-2.1,0.1-4.5-1.2-6.3c-0.6-0.8-1.4-1.4-2.2-2c-2.1-1-2.8-2.9-2.1-5.5
		c1.2-1.6,2.7-1.8,4.5-0.7c0.1,1.6,2.6,1.6,2.5,0C472.4,363.2,463.8,366.5,462.5,370.7z"/>
	<path class="st7" d="M487.5,371.1c-0.4,4.5-1.8,10.1-6.2,12.5c-5.9,3.1-2.8-11.3-1.8-13.5c0.6-1.5-1.5-2.7-2.2-1.3
		c-1.5,3.6-2.5,7.6-2.1,11.5c0.2,2.4,1.3,6.1,4.2,6.6c2.9,0.5,6-3.4,7.5-5.4c2.3-3,2.9-6.7,3.2-10.4
		C490.1,369.5,487.6,369.5,487.5,371.1z"/>
</g>
<g>
	<g>
		<path class="st7" d="M417.2,337.9c0.3,8.2,2.7,15.9,7.1,22.9c0.9,1.3,3,0.1,2.2-1.3c-4.2-6.6-6.5-13.8-6.8-21.6
			C419.6,336.3,417.1,336.3,417.2,337.9L417.2,337.9z"/>
	</g>
</g>
<g>
	<g>
		<path class="st7" d="M424.2,334.4c0.4,7.4,2.1,14.5,5.1,21.3c0.6,1.5,2.8,0.2,2.2-1.3c-2.8-6.4-4.3-13.1-4.7-20
			C426.6,332.8,424.1,332.8,424.2,334.4L424.2,334.4z"/>
	</g>
</g>
<g>
	<g>
		<path class="st7" d="M426.3,334.8c11-2.6,19.5,18.3,6.2,19.5c-1.6,0.1-1.6,2.6,0,2.5c6.8-0.6,10.7-6.9,9-13.4
			c-1.6-6.2-9.2-12.6-15.9-11C424.1,332.7,424.7,335.2,426.3,334.8L426.3,334.8z"/>
	</g>
</g>
<g>
	<g>
		<path class="st7" d="M443.6,331.6c-0.3,4.1-0.6,8.2-0.8,12.4c-0.1,2.5-0.7,5.7,0.2,8.1c1.6,4.5,6.7,4.7,10.6,4.4
			c1.6-0.1,1.6-2.6,0-2.5c-2.4,0.2-5.7,0.7-7.5-1.4c-1.6-1.8-0.9-5.5-0.8-7.7c0.1-4.4,0.4-8.8,0.8-13.3
			C446.2,330,443.7,330,443.6,331.6L443.6,331.6z"/>
	</g>
</g>
<g>
	<g>
		<path class="st7" d="M445.3,339.9c2.8-0.4,5.6-0.3,8.3,0.3c1.6,0.3,2.2-2.1,0.7-2.4c-3.2-0.6-6.4-0.7-9.7-0.3
			C443.1,337.7,443.7,340.1,445.3,339.9L445.3,339.9z"/>
	</g>
</g>
<g>
	<g>
		<path class="st7" d="M445,332.4c3.1-1.2,6.4-0.6,9.6,0.1c1.6,0.4,2.2-2.1,0.7-2.4c-3.6-0.8-7.3-1.5-10.9-0.1
			C442.8,330.6,443.5,333,445,332.4L445,332.4z"/>
	</g>
</g>
<g>
	<g>
		<path class="st7" d="M462.3,355.9c0-8.1,0.2-16.2,2.6-24c-0.8,0-1.6,0-2.4,0c2.3,8.4,2.3,17.2,4.6,25.5c0.3,1,1.8,1.3,2.3,0.3
			c3.8-7.2,4.1-16.2,5.3-24.1c0.2-1.6-2.2-2.3-2.4-0.7c-1.2,7.6-1.4,16.5-5.1,23.5c0.8,0.1,1.5,0.2,2.3,0.3
			c-2.3-8.4-2.3-17.2-4.6-25.5c-0.3-1.2-2.1-1.2-2.4,0c-2.4,8-2.6,16.3-2.7,24.6C459.8,357.5,462.3,357.5,462.3,355.9L462.3,355.9z"
			/>
	</g>
</g>
<g>
	<g>
		<path class="st7" d="M476.7,334.7c4-0.1,7.6,1,10.9,3.3c1.3,0.9,2.6-1.2,1.3-2.2c-3.6-2.5-7.8-3.7-12.1-3.7
			C475.1,332.3,475,334.8,476.7,334.7L476.7,334.7z"/>
	</g>
</g>
<g>
	<g>
		<path class="st7" d="M482.2,334.9c-2.9,7.4-4.7,15-5.6,22.9c-0.2,1.6,2.3,1.6,2.5,0c0.9-7.7,2.7-15,5.5-22.2
			C485.2,334.1,482.8,333.4,482.2,334.9L482.2,334.9z"/>
	</g>
</g>
<g>
	<g>
		<path class="st7" d="M492.2,337.6c-1.4,7.3-3.6,14.2-6.8,20.9c-0.7,1.4,1.5,2.7,2.2,1.3c3.3-6.9,5.6-14,7-21.5
			C494.9,336.7,492.5,336,492.2,337.6L492.2,337.6z"/>
	</g>
</g>
<g>
	<g>
		<path class="st7" d="M496.2,343.5c-1.1,5.9-2.8,11.6-5.2,17.2c-0.6,1.5,1.5,2.7,2.2,1.3c2.5-5.7,4.3-11.6,5.5-17.8
			C498.9,342.6,496.5,341.9,496.2,343.5L496.2,343.5z"/>
	</g>
</g>
</svg>
