<?xml version="1.0" encoding="utf-8"?>
<!-- Generator: Adobe Illustrator 22.1.0, SVG Export Plug-In . SVG Version: 6.00 Build 0)  -->
<svg version="1.1" id="Calque_1" xmlns="http://www.w3.org/2000/svg" xmlns:xlink="http://www.w3.org/1999/xlink" x="0px" y="0px"
	 viewBox="0 0 116.2 116.4" style="enable-background:new 0 0 116.2 116.4;" xml:space="preserve">
<style type="text/css">
	.st0{fill:#FFFFFF;}
</style>
<title>Fichier 1</title>
<g>
	<g>
		<g>
			<path class="st0" d="M0.6,66.9c3.1-7.8,8.7-14,16-18.1c3.5-2,7.2-3.4,11.1-4.5c5.8-1.6,9.6-0.9,14.8,1.6
				c13.3,6.5,28.9,15.5,37.7,27.8c0.5,0.6,1.6,0,1.1-0.6c-5.1-7.1-12.4-12.3-19.5-17.2c-7.3-5-15.9-11.1-24.5-13.5
				c-7.2-2-16.7,2.3-22.8,6.1C7.7,52.8,2.4,59-0.6,66.6C-0.9,67.3,0.3,67.7,0.6,66.9L0.6,66.9z"/>
		</g>
	</g>
	<g>
		<g>
			<path class="st0" d="M81.2,73.7c9.2-13,20.9-23.8,34.5-32.1c0.7-0.4,0.1-1.5-0.6-1.1c-13.8,8.4-25.6,19.4-34.9,32.6
				C79.7,73.7,80.8,74.3,81.2,73.7L81.2,73.7z"/>
		</g>
	</g>
	<g>
		<g>
			<path class="st0" d="M116,40.3C99.1,29.6,82.3,17.6,62.3,13.6c-0.8-0.2-1.1,1-0.3,1.2c19.8,4,36.6,15.9,53.3,26.5
				C116,41.8,116.7,40.7,116,40.3L116,40.3z"/>
		</g>
	</g>
	<g>
		<g>
			<path class="st0" d="M61.8,13.8C51.1,21.4,42.3,31,35.6,42.3c-0.4,0.7,0.7,1.3,1.1,0.6c6.6-11.1,15.3-20.6,25.8-28.1
				C63.1,14.4,62.5,13.3,61.8,13.8L61.8,13.8z"/>
		</g>
	</g>
	<g>
		<g>
			<path class="st0" d="M0.1,67.2C19.6,68.9,36,79.7,50.8,91.7c0.6,0.5,1.5-0.4,0.9-0.9C36.6,78.6,19.9,67.7,0.1,65.9
				C-0.7,65.9-0.7,67.1,0.1,67.2L0.1,67.2z"/>
		</g>
	</g>
	<g>
		<g>
			<path class="st0" d="M52.3,91.6c7.1-9.7,17.3-13.5,28.4-17.2c0.8-0.3,0.4-1.5-0.3-1.2C68.9,77.1,58.6,81,51.2,91
				C50.7,91.6,51.8,92.3,52.3,91.6L52.3,91.6z"/>
		</g>
	</g>
	<g>
		<g>
			<path class="st0" d="M81,74.2c9.5-11.7,21.4-20.9,35.1-27.2c0.7-0.3,0.1-1.4-0.6-1.1c-13.8,6.3-25.8,15.6-35.3,27.3
				C79.6,73.9,80.5,74.8,81,74.2L81,74.2z"/>
		</g>
	</g>
	<g>
		<g>
			<path class="st0" d="M115.8,46c-1.6-0.8-3.3-1.4-5.1-1.8c-0.8-0.2-1.1,1-0.3,1.2c1.7,0.4,3.3,0.9,4.8,1.7
				C115.9,47.4,116.5,46.3,115.8,46L115.8,46z"/>
		</g>
	</g>
	<g>
		<g>
			<path class="st0" d="M79.8,74.4c-11.1,7.9-22.2,16-29.9,27.5c-0.4,0.7,0.6,1.3,1.1,0.6c7.6-11.3,18.5-19.3,29.4-27.1
				C81.1,75,80.5,73.9,79.8,74.4L79.8,74.4z"/>
		</g>
	</g>
	<g>
		<g>
			<path class="st0" d="M51.2,102.2c-4.2-8-13.5-12.7-21.1-16.9C20.8,80.1,11,75.9,0.8,72.7c-0.8-0.2-1.1,1-0.3,1.2
				c9.5,3,18.7,6.8,27.4,11.6c7.9,4.3,17.9,9.1,22.2,17.3C50.5,103.5,51.6,102.9,51.2,102.2L51.2,102.2z"/>
		</g>
	</g>
	<g>
		<g>
			<path class="st0" d="M0.8,73.6c0.9-0.7,1.8-1.3,2.8-1.9c0.7-0.4,0.1-1.5-0.6-1.1c-1,0.6-1.9,1.2-2.8,1.9
				C-0.5,73,0.1,74.1,0.8,73.6L0.8,73.6z"/>
		</g>
	</g>
	<g>
		<g>
			<path class="st0" d="M79.7,73.8c-10,5.9-23,11.3-29.2,21.6c-0.4,0.7,0.7,1.3,1.1,0.6c6.1-10.1,19-15.4,28.8-21.2
				C81,74.5,80.4,73.4,79.7,73.8L79.7,73.8z"/>
		</g>
	</g>
	<g>
		<g>
			<path class="st0" d="M51.6,95.4C46.5,88.2,39,84,31.1,80.5c-9.9-4.3-20.2-7.9-30.4-11.1c-0.8-0.2-1.1,1-0.3,1.2
				c9.3,2.9,18.4,6.2,27.4,9.9C36.4,84,44.9,88.2,50.5,96C51,96.7,52.1,96,51.6,95.4L51.6,95.4z"/>
		</g>
	</g>
	<g>
		<g>
			<path class="st0" d="M0.8,69.8c0.3-0.8,0.9-1.5,1.7-1.9c0.7-0.4,0.1-1.5-0.6-1.1c-1.1,0.6-1.8,1.5-2.2,2.6
				C-0.7,70.3,0.5,70.6,0.8,69.8L0.8,69.8z"/>
		</g>
	</g>
	<g>
		<g>
			<path class="st0" d="M80.9,74.7c4-5.8,11-10,16.9-13.7c5.6-3.5,11.5-6.6,17.6-9.3c0.7-0.3,0.1-1.4-0.6-1.1
				c-7.2,3.1-14,6.8-20.5,11.1c-5.1,3.4-10.9,7.1-14.5,12.3C79.4,74.8,80.5,75.4,80.9,74.7L80.9,74.7z"/>
		</g>
	</g>
	<g>
		<g>
			<path class="st0" d="M115.5,50.5c-1.1-0.7-2.2-1.3-3.4-1.8c-0.7-0.3-1.4,0.7-0.6,1.1c1.2,0.5,2.3,1.1,3.4,1.8
				C115.6,52,116.2,50.9,115.5,50.5L115.5,50.5z"/>
		</g>
	</g>
	<g>
		<g>
			<path class="st0" d="M45.1,40.2c4.2-6.7,9.7-14.5,16.6-18.7c0.7-0.4,0.1-1.5-0.6-1.1c-7.1,4.4-12.7,12.2-17,19.1
				C43.6,40.2,44.7,40.9,45.1,40.2L45.1,40.2z"/>
		</g>
	</g>
	<g>
		<g>
			<path class="st0" d="M48.7,41.8c2.3-4,4.9-7.8,7.7-11.5c0.5-0.6-0.4-1.5-0.9-0.9c-2.9,3.7-5.5,7.6-7.9,11.7
				C47.3,41.9,48.3,42.5,48.7,41.8L48.7,41.8z"/>
		</g>
	</g>
	<g>
		<g>
			<path class="st0" d="M51.5,44.6c2.2-3.3,4.4-6.6,6.7-9.8c0.5-0.7-0.6-1.3-1.1-0.6c-2.3,3.2-4.5,6.5-6.7,9.8
				C50,44.6,51.1,45.3,51.5,44.6L51.5,44.6z"/>
		</g>
	</g>
	<g>
		<g>
			<path class="st0" d="M54.6,46.9c1.8-3.4,4-6.6,6.4-9.6c0.5-0.6-0.4-1.5-0.9-0.9c-2.5,3.1-4.7,6.4-6.6,9.9
				C53.2,47,54.3,47.6,54.6,46.9L54.6,46.9z"/>
		</g>
	</g>
	<g>
		<path class="st0" d="M62.7,23.7c-1,0.5-1.9,1.3-2.4,2.2c-0.1,0.2-0.2,0.3-0.2,0.5c0.1,0.4,0.7,0.5,1,0.8c0.4,0.3,0.4,1,0.2,1.5
			c-0.2,0.5-0.6,0.9-0.8,1.3c-0.1,0.1-0.1,0.3-0.1,0.4c0,0.2,0.2,0.3,0.3,0.5c1.2,1.1,2.4,2.3,3.6,3.4c0.2,0.2,0.3,0.3,0.6,0.4
			c0.2,0,0.5-0.1,0.7-0.2c2.5-1.2,4.6-3.1,6.1-5.3c0.2-0.3,0.4-0.5,0.4-0.9c0-0.5-0.2-0.9-0.5-1.2c-0.8-1-1.7-2-2.6-2.8
			c-0.9-0.8-1.9-1.6-3.1-1.8s-2.6,0.3-3.1,1.4"/>
		<g>
			<path class="st0" d="M62.4,23.1c-1,0.5-3.1,2-2.9,3.4c0.1,0.5,0.5,0.5,0.7,0.9c0.8,1.6-0.6,1.7-0.4,3c0.1,1.4,3.1,3.6,4.1,4.3
				c1.5,1.1,2.9-0.1,4.3-1.1c1.6-1.1,3.3-2.7,4.3-4.4c0.8-1.5-0.4-2.7-1.4-3.8c-2.1-2.3-6.5-5.8-8.8-1.9c-0.4,0.7,0.7,1.3,1.1,0.6
				c0.8-1.4,2.8-1.2,3.9-0.5c0.6,0.3,1.1,0.8,1.6,1.3c1,0.9,2.6,2.3,2.4,3.9c-0.1,0.9-2.2,2.6-2.9,3.2c-1.4,1.1-2.6,2.2-4.4,1
				c-1-0.7-2.6-2.1-2.4-3.3c0.1-0.7,0.7-1,0.6-1.8c-0.1-0.5-0.3-0.6-0.5-1.1c-0.1-0.2-0.5-0.2-0.5-0.3c-0.2-1,1.3-1.8,2-2.2
				C63.7,23.8,63.1,22.7,62.4,23.1L62.4,23.1z"/>
		</g>
	</g>
	<g>
		<g>
			<path class="st0" d="M63.5,51.7c5.9-8.2,12.7-15.5,20.4-21.9c0.6-0.5-0.3-1.4-0.9-0.9c-7.8,6.5-14.7,13.9-20.6,22.2
				C61.9,51.7,63,52.3,63.5,51.7L63.5,51.7z"/>
		</g>
	</g>
	<g>
		<path class="st0" d="M88.4,30.1c-2.6,1.8-4,2.8-6.1,5.1c-0.1,0.1-0.3,0.3-0.2,0.5c0,0.2,0.2,0.3,0.3,0.4c4.8,4,9.9,7.6,15.3,10.8
			c2.3-2,4.6-4,6.9-6c-5.1-3.7-10.1-7.4-15.2-11.1"/>
		<g>
			<path class="st0" d="M88.1,29.5c-2.2,1.5-5.4,3.4-6.6,5.9c-0.1,0.2-0.1,0.4,0,0.6c1.5,2,4,3.5,6,4.9c3.1,2.3,6.4,4.4,9.8,6.4
				c0.3,0.1,0.5,0.1,0.8-0.1c2.3-2,4.6-4,6.9-6c0.3-0.3,0.2-0.8-0.1-1c-5.1-3.7-10.1-7.4-15.2-11.1c-0.6-0.5-1.3,0.6-0.6,1.1
				c3.7,2.7,7.4,5.4,11,8.1c1,0.8,3,1.6,2.9,3.1c0,0.5-4.1,3.9-4.6,4c-2.8,0.8-7.3-3.4-9.5-5.1c-1.6-1.2-5.9-3.1-5-5.8
				c0.5-1.5,3.8-3.1,5-4C89.4,30.2,88.8,29.1,88.1,29.5L88.1,29.5z"/>
		</g>
	</g>
	<g>
		<g>
			<path class="st0" d="M69.8,54.4c3.3-5.1,7.1-9.6,11.6-13.6c0.6-0.5-0.3-1.4-0.9-0.9c-4.6,4.1-8.5,8.7-11.8,13.8
				C68.2,54.5,69.3,55.1,69.8,54.4L69.8,54.4z"/>
		</g>
	</g>
	<g>
		<g>
			<path class="st0" d="M73.5,57.2c3-4.7,6.1-9.4,10.3-13.2c0.6-0.5-0.3-1.4-0.9-0.9c-4.2,3.9-7.4,8.7-10.5,13.5
				C72,57.2,73.1,57.8,73.5,57.2L73.5,57.2z"/>
		</g>
	</g>
	<g>
		<g>
			<path class="st0" d="M77.5,59.8c2.1-5.3,6.6-8.9,10.9-12.3c0.6-0.5-0.3-1.4-0.9-0.9c-4.6,3.6-9,7.3-11.3,12.8
				C76,60.2,77.2,60.5,77.5,59.8L77.5,59.8z"/>
		</g>
	</g>
	<g>
		<g>
			<path class="st0" d="M80.4,63.3c1.3-2.1,2.8-4,4.5-5.7c0.6-0.6-0.3-1.5-0.9-0.9c-1.8,1.8-3.4,3.8-4.7,5.9
				C78.9,63.3,80,64,80.4,63.3L80.4,63.3z"/>
		</g>
	</g>
	<g>
		<g>
			<path class="st0" d="M87.5,55c1.1-1.6,2.3-3.1,3.5-4.5c0.5-0.6-0.4-1.5-0.9-0.9c-1.3,1.5-2.6,3.1-3.7,4.8
				C85.9,55,87,55.6,87.5,55L87.5,55z"/>
		</g>
	</g>
	<g>
		<g>
			<path class="st0" d="M8.7,63.8c6.1,1,11.9,2.9,17.4,5.6c0.7,0.4,1.4-0.7,0.6-1.1c-5.6-2.8-11.5-4.7-17.7-5.7
				C8.3,62.5,7.9,63.7,8.7,63.8L8.7,63.8z"/>
		</g>
	</g>
	<g>
		<g>
			<path class="st0" d="M27,69.2c3.5-5,8.2-8.8,13.8-11.1c0.7-0.3,0.4-1.5-0.3-1.2c-5.9,2.4-10.9,6.4-14.5,11.7
				C25.5,69.2,26.6,69.8,27,69.2L27,69.2z"/>
		</g>
	</g>
	<g>
		<g>
			<path class="st0" d="M40.8,56.7c-4.8-1.9-9.7-3.7-14.7-5.2c-0.8-0.2-1.1,1-0.3,1.2c5,1.5,9.8,3.2,14.7,5.2
				C41.2,58.2,41.6,57,40.8,56.7L40.8,56.7z"/>
		</g>
	</g>
	<g>
		<g>
			<path class="st0" d="M9.3,63.2c4.1-4.8,9.1-8.5,15-11c0.7-0.3,0.1-1.4-0.6-1.1c-5.9,2.5-11,6.3-15.2,11.2
				C7.9,62.9,8.8,63.8,9.3,63.2L9.3,63.2z"/>
		</g>
	</g>
	<g>
		<g>
			<path class="st0" d="M32.1,49.5c1.9-1,3.9-1.9,5.8-2.9c0.7-0.4,0.1-1.4-0.6-1.1c-1.9,1-3.9,1.9-5.8,2.9
				C30.7,48.8,31.3,49.9,32.1,49.5L32.1,49.5z"/>
		</g>
	</g>
	<g>
		<g>
			<path class="st0" d="M35.5,51.5c1.7-1,3.4-1.9,5.1-2.9c0.7-0.4,0.1-1.5-0.6-1.1c-1.7,1-3.4,1.9-5.1,2.9
				C34.2,50.8,34.8,51.9,35.5,51.5L35.5,51.5z"/>
		</g>
	</g>
	<g>
		<g>
			<path class="st0" d="M39.2,53.7c2.1-1.2,4.2-2.4,6.3-3.6c0.7-0.4,0.1-1.5-0.6-1.1c-2.1,1.2-4.2,2.4-6.3,3.6
				C37.8,53,38.5,54.1,39.2,53.7L39.2,53.7z"/>
		</g>
	</g>
	<g>
		<g>
			<path class="st0" d="M31.6,70.8c6.6-6.6,12.8-12.3,21.8-15.3c0.8-0.3,0.4-1.5-0.3-1.2c-9.2,3.1-15.6,8.8-22.4,15.6
				C30.2,70.5,31,71.3,31.6,70.8L31.6,70.8z"/>
		</g>
	</g>
	<g>
		<g>
			<path class="st0" d="M34.6,73.1c4.8-7.5,13.3-11.5,21.1-15.5c0.7-0.4,0.1-1.4-0.6-1.1c-8,4.1-16.5,8.1-21.5,15.9
				C33.1,73.2,34.2,73.8,34.6,73.1L34.6,73.1z"/>
		</g>
	</g>
	<g>
		<g>
			<path class="st0" d="M38.3,75.9c4.2-7.6,14.2-12,21.5-16c0.7-0.4,0.1-1.5-0.6-1.1c-7.5,4.1-17.7,8.5-22,16.4
				C36.9,75.9,38,76.6,38.3,75.9L38.3,75.9z"/>
		</g>
	</g>
	<g>
		<g>
			<path class="st0" d="M40.8,77.2c1.5-2,3.2-3.8,5.2-5.4c2.3-1.8,3.2-1.9,5.9-0.4c2.2,1.2,4.1,2.9,6,4.5c2.1,1.8,3.1,2.1,0.5,3.8
				c-1.2,0.8-2.3,1.7-3.3,2.7c-1.6,1.6-1.5,2-3.3,0.5c-3.1-2.6-5.9-5.1-9.3-7.1c-0.7-0.4-1.3,0.7-0.6,1.1c4.2,2.5,7.8,5.5,11.1,9.1
				c0.3,0.3,0.8,0.2,1-0.1c2.2-2.9,4.8-5,8.1-6.6c0.4-0.2,0.4-0.7,0.1-1c-2.8-2.8-8.8-9.5-13.4-9.3c-3.3,0.1-7.3,5.5-9,7.8
				C39.2,77.2,40.3,77.9,40.8,77.2L40.8,77.2z"/>
		</g>
	</g>
	<g>
		<g>
			<path class="st0" d="M55.7,67.9c2.2-2.2,4.7-3.8,7.6-5c0.7-0.3,0.4-1.5-0.3-1.2c-3.1,1.2-5.8,3-8.1,5.3
				C54.3,67.6,55.2,68.5,55.7,67.9L55.7,67.9z"/>
		</g>
	</g>
	<g>
		<g>
			<path class="st0" d="M58.6,71.5c1.3-1.4,2.7-2.6,4.4-3.5c1.5-0.8,3.1-1.2,4.5-2.1c0.7-0.4,0.1-1.5-0.6-1.1c-1.6,1-3.4,1.4-5,2.3
				c-1.6,0.9-2.9,2.1-4.1,3.5C57.2,71.2,58.1,72.1,58.6,71.5L58.6,71.5z"/>
		</g>
	</g>
</g>
</svg>
